<?xml version="1.0" encoding="UTF-8" standalone="no"?>
<!-- Generator: Adobe Illustrator 12.0.0, SVG Export Plug-In . SVG Version: 6.00 Build 51448)  -->

<svg
   xmlns:dc="http://purl.org/dc/elements/1.1/"
   xmlns:cc="http://creativecommons.org/ns#"
   xmlns:rdf="http://www.w3.org/1999/02/22-rdf-syntax-ns#"
   xmlns:svg="http://www.w3.org/2000/svg"
   xmlns="http://www.w3.org/2000/svg"
   xmlns:xlink="http://www.w3.org/1999/xlink"
   xmlns:sodipodi="http://sodipodi.sourceforge.net/DTD/sodipodi-0.dtd"
   xmlns:inkscape="http://www.inkscape.org/namespaces/inkscape"
   height="138.498"
   id="Layer_1"
   inkscape:version="0.48.1 "
   sodipodi:docname="closed-lock.svg"
   sodipodi:version="0.32"
   space="preserve"
   style="overflow:visible;enable-background:new 0 0 107.373 138.498;"
   version="1.1"
   viewBox="0 0 107.373 138.498"
   width="107.373"
   inkscape:output_extension="org.inkscape.output.svg.inkscape">
  <metadata
     id="metadata3">
    <rdf:RDF>
      <cc:Work
         rdf:about="">
        <dc:title></dc:title>
        <dc:description />
        <dc:subject>
          <rdf:Bag>
            <rdf:li>lock</rdf:li>
            <rdf:li>padlock</rdf:li>
            <rdf:li>gold</rdf:li>
          </rdf:Bag>
        </dc:subject>
        <dc:publisher>
          <cc:Agent
             rdf:about="http://www.openclipart.org/">
            <dc:title>Open Clip Art Library</dc:title>
          </cc:Agent>
        </dc:publisher>
        <dc:creator>
          <cc:Agent>
            <dc:title>Architetto Francesco Rollandin</dc:title>
          </cc:Agent>
        </dc:creator>
        <dc:rights>
          <cc:Agent>
            <dc:title>Architetto Francesco Rollandin</dc:title>
          </cc:Agent>
        </dc:rights>
        <dc:date />
        <dc:format>image/svg+xml</dc:format>
        <dc:type
           rdf:resource="http://purl.org/dc/dcmitype/StillImage" />
        <cc:license
           rdf:resource="http://web.resource.org/cc/PublicDomain" />
        <dc:language>en</dc:language>
      </cc:Work>
      <cc:License
         rdf:about="http://web.resource.org/cc/PublicDomain">
        <cc:permits
           rdf:resource="http://web.resource.org/cc/Reproduction" />
        <cc:permits
           rdf:resource="http://web.resource.org/cc/Distribution" />
        <cc:permits
           rdf:resource="http://web.resource.org/cc/DerivativeWorks" />
      </cc:License>
    </rdf:RDF>
  </metadata>
  <defs
     id="defs61">
    <linearGradient
       y2="461.6665"
       y1="461.6665"
       x2="-256.1553"
       x1="-258.1064"
       id="XMLID_4_"
       gradientUnits="userSpaceOnUse"
       gradientTransform="matrix(76.2002,76.2007,76.2007,-76.2002,-15540.281,54801.852)">
      <stop
         style="stop-color:#FFFFFF"
         offset="0"
         id="stop12" />
      <stop
         style="stop-color:#000000"
         offset="1"
         id="stop14" />
    </linearGradient>
    <linearGradient
       y2="94.1219"
       y1="96.979"
       x2="103.5597"
       x1="7.3916"
       id="XMLID_5_"
       gradientUnits="userSpaceOnUse">
      <stop
         style="stop-color:#FFD53D"
         offset="0"
         id="stop29" />
      <stop
         style="stop-color:#FDD33A"
         offset="0.3017"
         id="stop31" />
      <stop
         style="stop-color:#F6CB30"
         offset="0.5348"
         id="stop33" />
      <stop
         style="stop-color:#EABE20"
         offset="0.7449"
         id="stop35" />
      <stop
         style="stop-color:#DAAC09"
         offset="0.9404"
         id="stop37" />
      <stop
         style="stop-color:#D4A500"
         offset="1"
         id="stop39" />
    </linearGradient>
    <linearGradient
       y2="461.6235"
       y1="461.6235"
       x2="-252.8316"
       x1="-254.8359"
       id="XMLID_6_"
       gradientUnits="userSpaceOnUse"
       gradientTransform="matrix(0,126.6817,126.6817,0,-58425.73,32328.262)">
      <stop
         style="stop-color:#DF9000"
         offset="0"
         id="stop54" />
      <stop
         style="stop-color:#9F7800"
         offset="1"
         id="stop56" />
    </linearGradient>
    <linearGradient
       inkscape:collect="always"
       xlink:href="#XMLID_6_"
       id="linearGradient3025"
       gradientUnits="userSpaceOnUse"
       gradientTransform="matrix(0,126.6817,126.6817,0,-58425.73,32328.262)"
       x1="-254.8359"
       y1="461.6235"
       x2="-252.8316"
       y2="461.6235" />
    <linearGradient
       inkscape:collect="always"
       xlink:href="#XMLID_5_"
       id="linearGradient3033"
       gradientUnits="userSpaceOnUse"
       x1="7.3916"
       y1="96.979"
       x2="103.5597"
       y2="94.1219" />
    <linearGradient
       inkscape:collect="always"
       xlink:href="#XMLID_4_"
       id="linearGradient3041"
       gradientUnits="userSpaceOnUse"
       gradientTransform="matrix(76.2002,76.2007,76.2007,-76.2002,-15540.281,54801.852)"
       x1="-258.1064"
       y1="461.6665"
       x2="-256.1553"
       y2="461.6665" />
  </defs>
  <sodipodi:namedview
     bordercolor="#666666"
     borderopacity="1.0"
     id="base"
     inkscape:current-layer="Layer_1"
     inkscape:cx="-6.3292993"
     inkscape:cy="69.249001"
     inkscape:pageopacity="0.0"
     inkscape:pageshadow="2"
     inkscape:window-height="1018"
     inkscape:window-width="1920"
     inkscape:window-x="-8"
     inkscape:window-y="-8"
     inkscape:zoom="2.5993155"
     pagecolor="#ffffff"
     showgrid="false"
     inkscape:window-maximized="1" />
  <path
     inkscape:connector-curvature="0"
     style="fill:#ffe600"
     id="path5"
     d="m 54.757,61.18 c 0,-1.062 -1.443,-1.016 -2.15,-0.79 -0.098,1.213 1.243,0.958 -0.016,2.763 1.101,-0.291 1.824,-0.95 2.166,-1.973"
     inkscape:export-filename="D:\studyworkspace\Asia-PGP\lock_closed_96.png"
     inkscape:export-xdpi="62.383984"
     inkscape:export-ydpi="62.383984" />
  <path
     inkscape:connector-curvature="0"
     style="fill:#e5e5e5"
     id="path7"
     d="m 33.463,37.514 c 0,-7.261 1.527,-16.303 8.889,-19.698 4.861,-2.24 13.018,-2.063 18.239,-1.028 14.832,2.936 12.472,22.021 12.472,33.375 0,5.101 -1.444,6.402 3.714,6.402 1.219,0 14.085,0.146 14.085,-0.139 0,-10.168 1.522,-21.672 -0.756,-31.662 -7.526,-33.018 -66.112,-33.018 -73.64,0 -2.277,9.99 -0.755,21.494 -0.755,31.662 0,0.287 11.615,0.139 12.679,0.139 6.193,0 5.073,-0.207 5.073,-6.402 0,-4.217 0,-8.434 0,-12.649"
     inkscape:export-filename="D:\studyworkspace\Asia-PGP\lock_closed_96.png"
     inkscape:export-xdpi="62.383984"
     inkscape:export-ydpi="62.383984" />
  <path
     inkscape:connector-curvature="0"
     style="fill:#c6c6c6"
     id="path9"
     d="m 71.7,19.941 c -4.349,-6.429 -9.086,-6.406 -16.307,-5.826 -7.102,0.572 -15.802,0.732 -19.79,7.71 -3.052,5.339 -3.759,11.359 -4.296,17.332 -0.289,3.198 -0.555,6.421 -1.109,9.585 -0.706,4.005 -3.457,3.632 -5.963,5.811 3.262,0.023 6.525,0.046 9.787,0.07 0,-7.52 -0.462,-15.184 0.083,-22.688 1.012,-13.883 13.316,-17.22 25.258,-15.495 13.731,1.982 13.962,14.593 13.962,25.635 0,4.129 0,8.257 0,12.384 0,0.657 8.205,4.556 8.205,-0.422 -6.299,0.091 -6.443,-9.898 -6.427,-14.154 0.03,-7.643 1.021,-12.914 -3.403,-19.942"
     inkscape:export-filename="D:\studyworkspace\Asia-PGP\lock_closed_96.png"
     inkscape:export-xdpi="62.383984"
     inkscape:export-ydpi="62.383984" />
  <path
     inkscape:connector-curvature="0"
     style="fill:url(#linearGradient3041)"
     id="path16"
     d="m 47.417,0.296 c -17.391,0 -31.715,14.199 -31.715,31.575 0,3.959 -1.722,24.911 1.53,24.911 5.437,0 10.874,0 16.31,0 1.553,0 0.709,-11.14 0.709,-12.877 0,-12.75 0.771,-27.244 16.906,-27.244 5.92,0 12.296,-0.561 16.8,4.094 4.868,5.029 5.099,12.504 5.099,19.08 0,5.429 0,10.856 0,16.283 0,1.453 11.545,0.665 13.279,0.665 5.049,0 5.313,0.984 5.313,-3.971 0,-6.198 0,-12.394 0,-18.592 0,-15.775 -8.867,-29.835 -25.06,-33.235 -6.184,-1.3 -12.89,-0.689 -19.171,-0.689 M 16.495,31.37 c 0,-35.45 57.622,-41.998 71.481,-12.795 5.009,10.554 2.878,24.71 2.878,36.059 0,3.021 -8.366,1.455 -10.915,1.455 -7.126,0 -6.089,-0.091 -6.089,-7.175 0,-12.017 1.714,-31.33 -14.633,-32.86 -5.098,-0.476 -11.916,-0.85 -16.625,1.318 -7.579,3.485 -9.14,12.727 -9.14,20.196 0,5.211 0,10.425 0,15.638 0,5.167 -6.429,2.883 -10.882,2.883 -5.833,0 -6.076,0.979 -6.076,-4.8 0,-6.232 0,-12.465 0,-18.698 0.001,-0.406 0.001,-0.815 0.001,-1.221"
     inkscape:export-filename="D:\studyworkspace\Asia-PGP\lock_closed_96.png"
     inkscape:export-xdpi="62.383984"
     inkscape:export-ydpi="62.383984" />
  <path
     inkscape:connector-curvature="0"
     style="fill:#c6c6c6"
     id="path18"
     d="M 74.351,8.301 C 76.601,15.993 63.03,7.712 59.437,7.291 53.709,6.621 47.629,8.15 42.192,9.821 39.407,10.675 34.977,13.173 31.963,12.522 29.88,12.071 31.618,8.898 32.46,8.093 35.756,4.937 41.029,3.704 45.389,3.134 50.449,2.471 72.201,0.941 74.351,8.301"
     inkscape:export-filename="D:\studyworkspace\Asia-PGP\lock_closed_96.png"
     inkscape:export-xdpi="62.383984"
     inkscape:export-ydpi="62.383984" />
  <path
     inkscape:connector-curvature="0"
     style="fill:#ffffff"
     id="path20"
     d="m 19.794,29.649 c -0.808,5.069 -0.499,10.577 -0.188,15.674 0.077,1.288 2.007,8.92 3.256,3.89 1.197,-4.824 0.083,-10.516 -0.307,-15.388 -0.136,-1.734 1.462,-14.972 2.432,-14.509 -2.635,-1.253 -5.003,9.135 -5.193,10.333"
     inkscape:export-filename="D:\studyworkspace\Asia-PGP\lock_closed_96.png"
     inkscape:export-xdpi="62.383984"
     inkscape:export-ydpi="62.383984" />
  <path
     inkscape:connector-curvature="0"
     style="fill:#ffffff"
     id="path22"
     d="m 71.133,16.734 c 1.756,1.653 3.757,3.805 4.546,6.142 0.904,2.672 -1.422,3.55 -2.854,1.33 -1.643,-2.551 -2.668,-5.846 -5.102,-7.792 -0.608,-0.487 -5.849,-3.023 -5.715,-3.788 0.427,-2.399 8.629,3.641 9.125,4.108"
     inkscape:export-filename="D:\studyworkspace\Asia-PGP\lock_closed_96.png"
     inkscape:export-xdpi="62.383984"
     inkscape:export-ydpi="62.383984" />
  <path
     inkscape:connector-curvature="0"
     style="fill:#ffffff"
     id="path24"
     d="M 57.991,3.386 C 57.324,4.835 54.518,4.407 53.304,4.492 48.746,4.81 44.244,5.949 40.271,8.241 38.62,9.193 29.536,17.86 27.741,16.437 22.069,11.93 34.779,5.38 37.169,4.55 38.543,4.072 59.081,1.024 57.991,3.386"
     inkscape:export-filename="D:\studyworkspace\Asia-PGP\lock_closed_96.png"
     inkscape:export-xdpi="62.383984"
     inkscape:export-ydpi="62.383984" />
  <path
     inkscape:connector-curvature="0"
     style="fill:#ffffff"
     id="path26"
     d="m 84.633,15.285 c 1.854,3.186 8.464,17.998 3.315,20.747 -2.18,1.163 -3.84,-12.51 -4.433,-14.133 -1.434,-3.927 -3.298,-6.686 -6.969,-8.79 -1.846,-1.058 -6.355,-2.05 -7.356,-4.117 -1.555,-3.215 5.489,-2.769 6.772,-2.148 3.537,1.715 6.709,5.069 8.671,8.441"
     inkscape:export-filename="D:\studyworkspace\Asia-PGP\lock_closed_96.png"
     inkscape:export-xdpi="62.383984"
     inkscape:export-ydpi="62.383984" />
  <path
     inkscape:connector-curvature="0"
     style="fill:url(#linearGradient3033)"
     id="path41"
     d="m 106.442,119.543 c 0,15.563 -16.803,17.455 -28.827,17.455 -11.972,0 -23.946,0 -35.917,0 -10.132,0 -22.237,1.413 -31.599,-2.989 C -1.319,128.639 0.905,115.671 0.905,105.244 0.905,94.79 0.491,84.24 1,73.79 1.654,60.305 7.923,54.44 21.005,54.44 c 22.164,0 44.33,0 66.495,0 16.627,0 18.942,12.089 18.942,26.368 0,12.912 0,25.824 0,38.735"
     inkscape:export-filename="D:\studyworkspace\Asia-PGP\lock_closed_96.png"
     inkscape:export-xdpi="62.383984"
     inkscape:export-ydpi="62.383984" />
  <path
     inkscape:connector-curvature="0"
     style="fill:#ffe45c"
     id="path43"
     d="m 94.229,106.979 c 3.975,0.198 1.291,5.347 0.112,6.991 -4.356,6.093 -11.635,10.018 -18.534,12.465 -12.174,4.317 -25.604,4.537 -38.266,2.61 -7.056,-1.072 -24.077,-3.506 -26.72,-12.031 -3.099,-10.001 15.294,-4.391 18.506,-3.341 12.626,4.135 24.352,6.559 37.719,5.116 6.896,-0.746 14.029,-2.416 19.5,-6.912 2.257,-1.852 4.429,-5.064 7.683,-4.898"
     inkscape:export-filename="D:\studyworkspace\Asia-PGP\lock_closed_96.png"
     inkscape:export-xdpi="62.383984"
     inkscape:export-ydpi="62.383984" />
  <path
     inkscape:connector-curvature="0"
     style="fill:#c79c00"
     id="path45"
     d="m 100.259,88.635 c 0,3.883 0.878,13.111 -2.885,15.984 -2.182,1.664 -3.929,-1.259 -4.48,-3.014 -4.209,-13.383 3.196,-27.977 -10.471,-37.687 -1.68,-1.194 -5.415,-2.291 -6.503,-4.09 -1.083,-1.788 5.825,-2.245 6.531,-2.177 14.289,1.341 17.808,19.593 17.808,30.984"
     inkscape:export-filename="D:\studyworkspace\Asia-PGP\lock_closed_96.png"
     inkscape:export-xdpi="62.383984"
     inkscape:export-ydpi="62.383984" />
  <path
     inkscape:connector-curvature="0"
     style="fill:#ffe45c"
     id="path47"
     d="m 11.523,72.528 c -1.634,7.877 -2.156,17.012 0.984,24.602 2.238,5.411 9.856,11.733 15.704,7.029 C 36.52,97.478 29.567,77.136 42.055,74.304 48.87,72.759 56.587,73.371 62.451,68.82 66.184,65.921 64.246,62.638 60.568,60.945 47.993,55.157 15.237,54.652 11.523,72.528"
     inkscape:export-filename="D:\studyworkspace\Asia-PGP\lock_closed_96.png"
     inkscape:export-xdpi="62.383984"
     inkscape:export-ydpi="62.383984" />
  <path
     inkscape:connector-curvature="0"
     style="fill:#ffc800"
     id="path49"
     d="m 9.031,127.001 c 0,-12.627 0,-25.254 0,-37.881 0,-13.418 -0.844,-31.963 17.216,-31.963 24.504,0 49.007,0 73.511,0 -4.673,-3.345 -10.843,-2.717 -16.301,-2.717 -7.783,0 -15.568,0 -23.354,0 -14.112,0 -28.224,0 -42.336,0 -19.283,0 -16.862,21.031 -16.862,34.84 0,12.786 -5.038,38.213 9.402,44.823 -0.904,-2.253 -1.276,-4.683 -1.276,-7.102"
     inkscape:export-filename="D:\studyworkspace\Asia-PGP\lock_closed_96.png"
     inkscape:export-xdpi="62.383984"
     inkscape:export-ydpi="62.383984" />
  <path
     inkscape:connector-curvature="0"
     style="fill:#ffb600"
     id="path51"
     d="m 89.772,54.44 c -20.578,0 -41.154,0 -61.733,0 -8.29,0 -19.589,-1.701 -24.273,6.911 -4.839,8.896 -2.861,22.674 -2.861,32.56 0,9.431 -2.283,22.323 0.923,31.45 4.283,12.189 20.083,11.638 30.735,11.638 12.453,0 24.905,0 37.358,0 10.37,0 23.576,1.565 31.793,-5.912 8.771,-7.981 4.728,-29.889 4.728,-40.305 0,-13.715 2.837,-36.342 -16.67,-36.342 m 13.432,56.3 c 0,28.007 -41.422,21.026 -59.807,21.026 -9.479,0 -21.106,1.453 -29.939,-2.51 C 1.261,123.784 3.144,109.362 3.144,98.3 3.144,88.153 1.329,75.328 4.456,65.48 8.113,53.963 20.447,55.25 30.155,55.25 c 12.783,0 25.563,0 38.347,0 8.824,0 21.707,-1.861 28.947,3.919 6.777,5.41 5.286,15.995 5.388,23.759 0.123,9.27 0.245,18.541 0.367,27.812"
     inkscape:export-filename="D:\studyworkspace\Asia-PGP\lock_closed_96.png"
     inkscape:export-xdpi="62.383984"
     inkscape:export-ydpi="62.383984" />
  <path
     inkscape:connector-curvature="0"
     style="fill:url(#linearGradient3025)"
     id="path58"
     d="M 17.332,53.535 C 0.918,53.535 0,69.008 0,81.737 c 0,11.677 0,23.353 0,35.029 0,26.764 34.278,21.139 52.85,21.139 17.913,0 54.497,6.022 54.497,-20.328 0,-11.599 0,-23.202 0,-34.802 0,-10.9 0.524,-26.338 -13.127,-28.86 -12.377,-2.288 -26.529,-0.38 -39.023,-0.38 -12.622,0 -25.244,0 -37.865,0 M 1.811,119.543 c 0,-10.087 0,-20.175 0,-30.263 0,-9.396 -2.441,-24.733 5.753,-31.166 5.818,-4.566 17.395,-2.769 24.321,-2.769 13.035,0 26.071,0 39.106,0 7.541,0 17.103,-1.443 24.492,0.734 11.837,3.489 10.054,19.266 10.054,29.061 0,11.222 0,22.444 0,33.668 0,14.442 -14.181,17.284 -25.958,17.284 -14.052,0 -28.103,0 -42.153,0 -12.864,10e-4 -35.615,1.685 -35.615,-16.549"
     inkscape:export-filename="D:\studyworkspace\Asia-PGP\lock_closed_96.png"
     inkscape:export-xdpi="62.383984"
     inkscape:export-ydpi="62.383984" />
</svg>
