<?xml version="1.0" encoding="UTF-8" standalone="no"?>
<!-- Created with Inkscape (http://www.inkscape.org/) -->

<svg
   xmlns:dc="http://purl.org/dc/elements/1.1/"
   xmlns:cc="http://creativecommons.org/ns#"
   xmlns:rdf="http://www.w3.org/1999/02/22-rdf-syntax-ns#"
   xmlns:svg="http://www.w3.org/2000/svg"
   xmlns="http://www.w3.org/2000/svg"
   xmlns:xlink="http://www.w3.org/1999/xlink"
   xmlns:sodipodi="http://sodipodi.sourceforge.net/DTD/sodipodi-0.dtd"
   xmlns:inkscape="http://www.inkscape.org/namespaces/inkscape"
   id="svg2"
   sodipodi:version="0.32"
   inkscape:version="0.48.1 "
   width="210mm"
   height="297mm"
   sodipodi:docname="history.svg"
   inkscape:output_extension="org.inkscape.output.svg.inkscape"
   version="1.1">
  <metadata
     id="metadata7">
    <rdf:RDF>
      <cc:Work
         rdf:about="">
        <dc:format>image/svg+xml</dc:format>
        <dc:type
           rdf:resource="http://purl.org/dc/dcmitype/StillImage" />
        <dc:title></dc:title>
      </cc:Work>
    </rdf:RDF>
  </metadata>
  <defs
     id="defs5">
    <linearGradient
       id="linearGradient3760">
      <stop
         style="stop-color:#8c8c8c;stop-opacity:1;"
         offset="0"
         id="stop3762" />
      <stop
         style="stop-color:#b2b2b2;stop-opacity:1;"
         offset="1"
         id="stop3764" />
    </linearGradient>
    <inkscape:perspective
       sodipodi:type="inkscape:persp3d"
       inkscape:vp_x="0 : 526.18109 : 1"
       inkscape:vp_y="0 : 1000 : 0"
       inkscape:vp_z="744.09448 : 526.18109 : 1"
       inkscape:persp3d-origin="372.04724 : 350.78739 : 1"
       id="perspective9" />
    <linearGradient
       inkscape:collect="always"
       xlink:href="#linearGradient3760"
       id="linearGradient3766"
       x1="214.51157"
       y1="608.44409"
       x2="214.51157"
       y2="123.31458"
       gradientUnits="userSpaceOnUse" />
    <linearGradient
       inkscape:collect="always"
       xlink:href="#linearGradient3760"
       id="linearGradient3768"
       x1="217.3922"
       y1="603.24713"
       x2="217.3922"
       y2="118.32517"
       gradientUnits="userSpaceOnUse" />
  </defs>
  <sodipodi:namedview
     inkscape:window-height="1058"
     inkscape:window-width="1920"
     inkscape:pageshadow="2"
     inkscape:pageopacity="0.0"
     guidetolerance="10.0"
     gridtolerance="10.0"
     objecttolerance="10.0"
     borderopacity="1.0"
     bordercolor="#666666"
     pagecolor="#ffffff"
     id="base"
     showgrid="false"
     inkscape:zoom="0.43901235"
     inkscape:cx="-383.0568"
     inkscape:cy="526.18109"
     inkscape:window-x="-8"
     inkscape:window-y="-8"
     inkscape:current-layer="svg2"
     inkscape:window-maximized="0" />
  <g
     id="g3161"
     inkscape:export-filename="D:\studyworkspace\Asia\res\drawable-hdpi\history.png"
     inkscape:export-xdpi="9.0884819"
     inkscape:export-ydpi="9.0884819"
     style="fill:url(#linearGradient3766);fill-opacity:1;stroke-width:30;stroke-miterlimit:4;stroke-dasharray:none;stroke-linejoin:miter;stroke:#000000;stroke-opacity:0.27513227">
    <path
       sodipodi:nodetypes="csccccscccc"
       id="rect2382"
       d="M 117.54713,173.11586 C 117.54713,173.11586 209.52733,141.38041 250.56242,141.2261 C 292.92774,141.06678 388.13341,173.11586 388.13341,173.11586 C 398.99181,173.11586 407.73341,181.85746 407.73341,192.71586 L 407.73341,565.80495 C 407.73341,576.66335 398.99181,585.40495 388.13341,585.40495 C 388.13341,585.40495 299.22011,556.2112 259.67379,555.79303 C 216.12261,555.33251 117.54713,585.40495 117.54713,585.40495 C 106.68873,585.40495 97.947128,576.66335 97.947128,565.80495 L 97.947128,192.71586 C 97.947128,181.85746 106.68873,173.11586 117.54713,173.11586 z"
       style="fill:url(#linearGradient3766);fill-opacity:1;fill-rule:nonzero;stroke:#000000;stroke-width:30;stroke-linecap:round;stroke-linejoin:miter;stroke-miterlimit:4;stroke-opacity:0.27513227;stroke-dasharray:none" />
    <path
       sodipodi:nodetypes="csc"
       id="path3155"
       d="M 159.44882,478.34645 C 159.44882,478.34645 227.50827,459.9227 257.39594,460.12373 C 285.27072,460.31122 348.50955,478.34645 348.50955,478.34645"
       style="fill:url(#linearGradient3766);fill-rule:evenodd;stroke:#000000;stroke-width:30;stroke-linecap:round;stroke-linejoin:miter;stroke-miterlimit:4;stroke-dasharray:none;stroke-opacity:0.27513227;fill-opacity:1" />
    <path
       sodipodi:nodetypes="csc"
       id="path3157"
       d="M 155.65243,373.56661 C 155.65243,373.56661 223.71187,355.14286 253.59954,355.34389 C 281.47432,355.53138 344.71315,373.56661 344.71315,373.56661"
       style="fill:url(#linearGradient3766);fill-rule:evenodd;stroke:#000000;stroke-width:30;stroke-linecap:round;stroke-linejoin:miter;stroke-miterlimit:4;stroke-dasharray:none;stroke-opacity:0.27513227;fill-opacity:1" />
    <path
       sodipodi:nodetypes="csc"
       id="path3159"
       d="M 158.3099,268.78596 C 158.3099,268.78596 226.36935,250.36221 256.25702,250.56324 C 284.1318,250.75073 347.37063,268.78596 347.37063,268.78596"
       style="fill:url(#linearGradient3766);fill-rule:evenodd;stroke:#000000;stroke-width:30;stroke-linecap:round;stroke-linejoin:miter;stroke-miterlimit:4;stroke-dasharray:none;stroke-opacity:0.27513227;fill-opacity:1" />
  </g>
  <g
     id="g3167"
     transform="translate(309.78624,-1.1386329)"
     inkscape:export-filename="D:\studyworkspace\Asia\res\drawable-hdpi\history.png"
     inkscape:export-xdpi="9.0884819"
     inkscape:export-ydpi="9.0884819">
    <path
       sodipodi:nodetypes="csccccscccc"
       id="path3169"
       d="M 117.54713,173.11586 C 117.54713,173.11586 209.52733,141.38041 250.56242,141.2261 C 292.92774,141.06678 388.13341,173.11586 388.13341,173.11586 C 398.99181,173.11586 407.73341,181.85746 407.73341,192.71586 L 407.73341,565.80495 C 407.73341,576.66335 398.99181,585.40495 388.13341,585.40495 C 388.13341,585.40495 299.22011,556.2112 259.67379,555.79303 C 216.12261,555.33251 117.54713,585.40495 117.54713,585.40495 C 106.68873,585.40495 97.947128,576.66335 97.947128,565.80495 L 97.947128,192.71586 C 97.947128,181.85746 106.68873,173.11586 117.54713,173.11586 z"
       style="fill:url(#linearGradient3768);fill-opacity:1;fill-rule:nonzero;stroke:#000000;stroke-width:30;stroke-linecap:round;stroke-linejoin:miter;stroke-miterlimit:4;stroke-opacity:0.27513227;stroke-dasharray:none" />
    <path
       sodipodi:nodetypes="csc"
       id="path3171"
       d="M 159.44882,478.34645 C 159.44882,478.34645 227.50827,459.9227 257.39594,460.12373 C 285.27072,460.31122 348.50955,478.34645 348.50955,478.34645"
       style="fill:none;fill-rule:evenodd;stroke:#000000;stroke-width:30;stroke-linecap:round;stroke-linejoin:round;stroke-miterlimit:4;stroke-dasharray:none;stroke-opacity:0.32804233" />
    <path
       sodipodi:nodetypes="csc"
       id="path3173"
       d="M 155.65243,373.56661 C 155.65243,373.56661 223.71187,355.14286 253.59954,355.34389 C 281.47432,355.53138 344.71315,373.56661 344.71315,373.56661"
       style="fill:none;fill-rule:evenodd;stroke:#000000;stroke-width:30;stroke-linecap:round;stroke-linejoin:round;stroke-miterlimit:4;stroke-dasharray:none;stroke-opacity:0.32804233" />
    <path
       sodipodi:nodetypes="csc"
       id="path3175"
       d="M 158.3099,268.78596 C 158.3099,268.78596 226.36935,250.36221 256.25702,250.56324 C 284.1318,250.75073 347.37063,268.78596 347.37063,268.78596"
       style="fill:none;fill-rule:evenodd;stroke:#000000;stroke-width:30;stroke-linecap:round;stroke-linejoin:round;stroke-miterlimit:4;stroke-dasharray:none;stroke-opacity:0.32804233" />
  </g>
</svg>
