<?xml version="1.0" encoding="UTF-8" standalone="no"?>
<svg
   xmlns:dc="http://purl.org/dc/elements/1.1/"
   xmlns:cc="http://creativecommons.org/ns#"
   xmlns:rdf="http://www.w3.org/1999/02/22-rdf-syntax-ns#"
   xmlns:svg="http://www.w3.org/2000/svg"
   xmlns="http://www.w3.org/2000/svg"
   xmlns:sodipodi="http://sodipodi.sourceforge.net/DTD/sodipodi-0.dtd"
   xmlns:inkscape="http://www.inkscape.org/namespaces/inkscape"
   version="1.1"
   width="460.10153"
   height="192.76071"
   id="svg2"
   sodipodi:version="0.32"
   inkscape:version="0.48.1 "
   sodipodi:docname="icq_free4chat.svg"
   inkscape:output_extension="org.inkscape.output.svg.inkscape">
  <metadata
     id="metadata21">
    <rdf:RDF>
      <cc:Work
         rdf:about="">
        <dc:format>image/svg+xml</dc:format>
        <dc:type
           rdf:resource="http://purl.org/dc/dcmitype/StillImage" />
        <dc:title></dc:title>
      </cc:Work>
    </rdf:RDF>
  </metadata>
  <defs
     id="defs19">
    <inkscape:perspective
       sodipodi:type="inkscape:persp3d"
       inkscape:vp_x="0 : 96.380356 : 1"
       inkscape:vp_y="0 : 1000 : 0"
       inkscape:vp_z="460.10153 : 96.380356 : 1"
       inkscape:persp3d-origin="230.05077 : 64.253571 : 1"
       id="perspective23" />
  </defs>
  <sodipodi:namedview
     inkscape:window-height="1058"
     inkscape:window-width="1920"
     inkscape:pageshadow="2"
     inkscape:pageopacity="0.0"
     guidetolerance="10.0"
     gridtolerance="10.0"
     objecttolerance="10.0"
     borderopacity="1.0"
     bordercolor="#666666"
     pagecolor="#ffffff"
     id="base"
     showgrid="false"
     inkscape:zoom="1.6720922"
     inkscape:cx="-223.47886"
     inkscape:cy="125.49992"
     inkscape:window-x="0"
     inkscape:window-y="14"
     inkscape:current-layer="svg2"
     inkscape:window-maximized="0" />
  <path
     d="M 60.593997,9.6355765 C 55.294184,8.4305146 50.955961,8.9125394 46.379185,11.322663 c -5.06126,3.133161 -7.953409,7.953409 -9.158471,14.699296 -1.205062,6.9869 0,13.735246 3.615186,20.481134 l 1.687087,2.407664 -5.784297,-1.928099 C 29.510773,45.295572 22.762433,46.259621 16.016543,49.874807 9.0296434,53.489992 4.6914234,58.548793 1.7992734,65.538152 c -2.65113998,6.748347 -2.40766998,13.253222 0.96405,19.276072 1.44607,2.651136 3.61518,4.817788 5.54082,6.263863 2.8921496,2.892148 6.5073396,4.579235 10.8430996,5.299813 l 1.68709,0.482024 -3.61519,3.133161 c -3.37417,2.892145 -5.29981,6.504875 -6.50487,10.120065 -1.2050596,4.33822 -0.7230396,8.67398 1.68708,12.77119 1.20507,1.92564 2.40767,3.61273 4.33577,4.81779 1.9281,1.68709 4.33822,2.89215 7.22791,3.1307 5.30227,1.20507 10.843098,1.20507 16.865948,-0.72549 l -4.338222,7.22791 -1.205062,3.13562 c -2.407664,7.70994 -1.687084,14.45828 1.928099,21.44272 1.687086,2.65114 3.615185,5.06372 5.543285,7.22792 2.892148,2.65113 6.504874,4.33822 10.843097,5.54328 7.227912,1.92564 14.458284,1.68709 21.445184,-1.92564 6.748346,-3.61764 11.08411,-9.39948 13.253221,-16.62985 l 0.241012,-1.44608 c 4.576776,5.06372 8.914999,8.43544 13.735245,9.6405 4.81779,1.44607 9.63804,1.20506 13.97626,-1.68709 4.09721,-2.41012 6.9869,-6.50733 8.43297,-11.56613 1.20507,-5.30228 1.20507,-10.60209 0,-16.62494 2.40767,1.68709 4.81779,2.88723 7.70994,3.61273 7.70994,2.41012 14.45583,2.16665 21.20417,-1.44608 6.50734,-3.61272 10.8431,-9.39948 13.01221,-16.86841 1.9281,-7.22791 1.44608,-14.21235 -2.16911,-20.960695 l -1.20506,-1.928099 c -1.9281,-2.892149 -3.85374,-5.784297 -6.74589,-7.709937 -2.40766,-1.687087 -5.29981,-2.892149 -7.95095,-4.097211 7.47139,-3.615185 12.7712,-8.673986 15.18132,-15.18132 1.68709,-5.302273 1.20506,-9.638036 -1.20506,-13.976259 l 0,-0.482025 c -2.88969,-4.820247 -6.74589,-7.953408 -12.76874,-9.638036 -3.61518,-0.723037 -7.71239,-0.723037 -11.32512,-0.482024 l -7.95095,1.687086 2.65114,-6.02285 c 2.41012,-7.709937 1.68708,-15.181321 -2.41013,-22.16822 l -0.72303,-1.205062 C 126.37562,11.553838 121.07581,7.941112 113.8479,6.0130129 106.37897,4.0849139 99.392071,4.807951 92.643725,8.4231367 85.897837,12.035863 81.07759,17.579148 78.910938,24.809519 l 0,0.482025 -0.241013,1.687087 -0.964049,-1.687087 -2.410124,-4.338223 C 71.437094,14.937849 66.616847,11.322663 60.593997,9.6355765 l 0,0 z M 122.03986,24.09386 c 1.20506,2.407665 1.9281,5.299813 1.9281,8.432974 l -0.72304,5.299813 c -0.96405,2.651136 -2.16911,5.06126 -3.61519,7.227912 L 97.943538,71.563462 C 95.774426,69.876375 93.364302,68.671313 90.954179,67.466251 L 88.546514,40.23923 88.305502,30.601194 88.546514,28.19353 c 1.205062,-4.817788 4.576776,-8.432974 8.914999,-10.843098 4.335767,-2.407664 9.156007,-2.892149 13.732787,-1.205062 5.06126,1.202603 8.67645,3.853739 10.84556,7.94849 l 0,0 z m -74.699085,4.820248 c 0.241012,-4.338223 1.928099,-7.227912 4.817788,-8.914999 1.446075,-1.205062 3.615186,-1.205062 5.540826,-0.241012 4.338223,1.205061 7.950949,4.338222 10.843098,10.361073 1.205061,2.410123 2.410123,4.817788 2.892148,7.709936 L 76.252423,66.263649 72.637238,67.468711 51.192054,44.095428 49.986993,41.687764 C 48.063812,37.347082 46.85875,33.25233 47.340775,28.914108 l 0,0 z m -13.012209,28.19107 6.507334,2.651136 21.204171,15.422333 c -1.928099,2.407665 -3.130702,4.817789 -3.853739,7.227912 l -34.698409,4.338223 -2.41012,-0.482024 c -4.33822,-0.723038 -7.22791,-2.651137 -9.15601,-6.263863 -1.9280996,-3.615186 -1.9280996,-7.227912 -0.48203,-10.843098 1.68709,-4.579235 4.81779,-8.194421 9.39703,-10.12006 4.33576,-2.412584 8.67153,-3.135621 13.491773,-1.930559 l 0,0 z m 22.891257,39.275181 1.687087,4.820251 0.723037,1.68708 c -3.615186,3.13071 -6.266322,6.02285 -9.156011,8.67399 l -7.230371,6.02531 -1.928099,1.20506 c -4.579236,2.16665 -8.432973,2.89215 -12.530183,2.40767 -3.61519,-0.24102 -6.50734,-1.44608 -7.7124,-3.61273 l -0.72304,-2.65114 0.48203,-2.16665 c 1.20506,-3.61764 4.33822,-7.22791 9.88151,-9.88151 2.88969,-1.20506 5.29981,-2.41012 7.227909,-2.892145 l 19.278531,-3.615186 0,0 z M 132.39847,57.346191 c 4.33822,-1.928099 8.43298,-2.410124 12.7712,-1.928099 4.09721,0.482024 6.98936,2.407664 8.43297,5.299813 l 0.96405,3.130701 -0.48202,2.410124 c -1.68709,4.338223 -5.30228,7.709937 -11.32513,10.361073 -2.40766,1.205062 -5.0588,1.687087 -7.95095,2.166652 l -29.63714,3.615186 -0.48202,-1.687087 -0.48203,-0.720578 0.96405,-1.205062 24.33733,-20.240121 2.88969,-1.202602 0,0 z m -61.4434,22.891257 c 2.889689,-2.651136 6.745887,-4.335764 11.325122,-4.335764 4.338223,0 8.432974,1.687087 11.08411,4.335764 3.374174,3.374173 4.820248,6.989359 4.820248,11.325123 0,4.335763 -1.446074,8.432974 -4.820248,11.325119 -3.133161,3.13071 -6.745887,4.81779 -11.08411,4.81779 -4.579235,0 -8.435433,-1.68708 -11.325122,-4.81779 -3.133161,-2.892145 -4.817789,-6.989356 -4.817789,-11.325119 0,-4.335764 1.684628,-7.95095 4.817789,-11.325123 l 0,0 z m 5.540825,34.939422 c 0.482025,8.19442 1.205062,16.8684 2.410124,26.26543 l 0,9.64049 -0.241012,2.41013 c -1.687087,4.3333 -4.579236,7.94849 -8.914999,9.87658 -4.335764,2.41013 -8.914999,2.89215 -13.253222,1.68709 -4.817788,-1.20014 -8.432974,-4.09229 -10.361073,-7.94849 -1.205062,-2.41012 -2.169111,-5.30227 -2.169111,-8.19442 l 1.205062,-5.53837 c 0.482024,-2.41012 1.687086,-4.8227 3.615185,-6.74834 l 20.240122,-24.09878 c 2.410123,1.2026 4.817788,2.40766 7.468924,2.64868 l 0,0 z m 18.555494,-3.13316 10.120061,10.36107 6.26386,7.70994 1.20506,2.41012 c 2.16912,4.09721 3.37418,7.95341 2.89215,12.53264 -0.48202,4.33823 -1.9281,7.46893 -4.81779,8.67399 -1.68708,1.20506 -3.61518,1.20506 -5.54082,0.96159 -4.57924,-1.20014 -8.194422,-4.81779 -10.843099,-10.60209 l -2.892148,-7.94849 -3.615186,-20.96561 4.09721,-1.44608 3.130702,-1.68708 0,0 z m 10.843101,-14.940314 27.22948,-2.407664 9.63803,-0.241013 2.41013,0.241013 c 3.61518,1.205061 6.98936,3.374173 8.915,6.986898 2.40766,2.65114 3.61272,6.26386 3.61272,10.36108 l -0.72058,4.81778 c -1.20506,4.82271 -4.09721,8.43544 -8.19442,10.36108 -4.33822,2.41012 -8.67398,2.89215 -13.49423,1.20506 -2.89215,-0.72058 -4.81779,-1.92564 -6.50733,-3.85128 l -25.30139,-20.96562 1.68709,-3.612726 0.7255,-2.894608 0,0 z"
     style="fill:#8bc800;fill-opacity:1"
     id="path10"
     inkscape:export-filename="D:\studyworkspace\Asia\res\icq_free4chat_96.png"
     inkscape:export-xdpi="49.798119"
     inkscape:export-ydpi="49.798119" />
  <path
     sodipodi:type="star"
     style="fill:none;stroke:#ffff00;stroke-width:18.63027763;stroke-linejoin:round;stroke-miterlimit:4;stroke-opacity:1;stroke-dasharray:none"
     id="path2386"
     sodipodi:sides="8"
     sodipodi:cx="-233.43387"
     sodipodi:cy="-235.20139"
     sodipodi:r1="75.119591"
     sodipodi:r2="110.46999"
     sodipodi:arg1="1.1276938"
     sodipodi:arg2="1.5203929"
     inkscape:flatsided="false"
     inkscape:rounded="0"
     inkscape:randomized="0"
     d="m -201.22676,-167.33641 -26.6414,42.46472 -30.77963,-39.56805 -48.86541,11.18878 6.21435,-49.74332 -42.46472,-26.6414 39.56805,-30.77963 -11.18878,-48.8654 49.74333,6.21435 26.64139,-42.46472 30.77963,39.56805 48.86541,-11.18878 -6.21435,49.74332 42.46472,26.6414 -39.56805,30.77963 11.18878,48.8654 z"
     transform="matrix(0.74961305,0,0,0.72504562,260.90237,262.12999)"
     inkscape:export-filename="D:\studyworkspace\Asia\res\icq_free4chat_96.png"
     inkscape:export-xdpi="49.798119"
     inkscape:export-ydpi="49.798119" />
  <path
     sodipodi:type="arc"
     style="fill:#ffff00;fill-opacity:1;fill-rule:nonzero;stroke:none"
     id="path2396"
     sodipodi:cx="94.303902"
     sodipodi:cy="108.18323"
     sodipodi:rx="63.856003"
     sodipodi:ry="62.587341"
     d="m 158.1599,108.18323 a 63.856003,62.587341 0 1 1 -127.712001,0 63.856003,62.587341 0 1 1 127.712001,0 z"
     transform="matrix(0.81435699,0,0,0.80611696,9.1202498,3.2282891)"
     inkscape:export-filename="D:\studyworkspace\Asia\res\icq_free4chat_96.png"
     inkscape:export-xdpi="49.798119"
     inkscape:export-ydpi="49.798119" />
  <path
     sodipodi:type="arc"
     style="fill:#000000;fill-opacity:1;fill-rule:nonzero;stroke:#000000;stroke-width:2.1730001;stroke-miterlimit:4;stroke-opacity:1;stroke-dasharray:none"
     id="path3198"
     sodipodi:cx="81.617279"
     sodipodi:cy="94.227936"
     sodipodi:rx="3.8059869"
     sodipodi:ry="3.8059869"
     d="m 85.423266,94.227936 a 3.8059869,3.8059869 0 1 1 -7.611974,0 3.8059869,3.8059869 0 1 1 7.611974,0 z"
     transform="matrix(0.91564963,0,0,0.91564963,4.601783,-8.6213064)"
     inkscape:export-filename="D:\studyworkspace\Asia\res\icq_free4chat_96.png"
     inkscape:export-xdpi="49.798119"
     inkscape:export-ydpi="49.798119" />
  <path
     sodipodi:type="arc"
     style="fill:#000000;fill-opacity:1;fill-rule:nonzero;stroke:#000000;stroke-width:2.1730001;stroke-miterlimit:4;stroke-opacity:1;stroke-dasharray:none"
     id="path3200"
     sodipodi:cx="81.617279"
     sodipodi:cy="94.227936"
     sodipodi:rx="3.8059869"
     sodipodi:ry="3.8059869"
     d="m 85.423266,94.227936 a 3.8059869,3.8059869 0 1 1 -7.611974,0 3.8059869,3.8059869 0 1 1 7.611974,0 z"
     transform="matrix(0.91564963,0,0,0.91564963,18.154367,-9.0085164)"
     inkscape:export-filename="D:\studyworkspace\Asia\res\icq_free4chat_96.png"
     inkscape:export-xdpi="49.798119"
     inkscape:export-ydpi="49.798119" />
  <path
     sodipodi:type="arc"
     style="fill:#ffff02;fill-opacity:0.99122805;fill-rule:nonzero;stroke:#000000;stroke-width:4;stroke-linecap:round;stroke-linejoin:round;stroke-miterlimit:4;stroke-opacity:1;stroke-dasharray:none"
     id="path3158"
     sodipodi:cx="-348.88214"
     sodipodi:cy="-134.55417"
     sodipodi:rx="41.865856"
     sodipodi:ry="31.293671"
     d="m -387.53313,-146.58018 a 41.865856,31.293671 0 0 1 77.38569,0.15144"
     sodipodi:start="3.5360371"
     sodipodi:end="5.8939769"
     transform="matrix(0.91564963,0,0,-0.91564963,405.75832,-22.705344)"
     sodipodi:open="true"
     inkscape:export-filename="D:\studyworkspace\Asia\res\icq_free4chat_96.png"
     inkscape:export-xdpi="49.798119"
     inkscape:export-ydpi="49.798119" />
</svg>
