<?xml version="1.0" encoding="UTF-8" standalone="no"?>
<svg
   xmlns:dc="http://purl.org/dc/elements/1.1/"
   xmlns:cc="http://creativecommons.org/ns#"
   xmlns:rdf="http://www.w3.org/1999/02/22-rdf-syntax-ns#"
   xmlns:svg="http://www.w3.org/2000/svg"
   xmlns="http://www.w3.org/2000/svg"
   xmlns:xlink="http://www.w3.org/1999/xlink"
   xmlns:sodipodi="http://sodipodi.sourceforge.net/DTD/sodipodi-0.dtd"
   xmlns:inkscape="http://www.inkscape.org/namespaces/inkscape"
   width="48"
   height="48"
   overflow="visible"
   enable-background="new 0 0 128 129.396"
   xml:space="preserve"
   id="svg2"
   sodipodi:version="0.32"
   inkscape:version="0.48.1 "
   sodipodi:docname="icq_home.svg"
   version="1.0"
   inkscape:export-filename="/home/tigert/My Downloads/go-home.png"
   inkscape:export-xdpi="90.000000"
   inkscape:export-ydpi="90.000000"
   inkscape:output_extension="org.inkscape.output.svg.inkscape"><metadata
   id="metadata367"><rdf:RDF><cc:Work
       rdf:about=""><dc:format>image/svg+xml</dc:format><dc:type
         rdf:resource="http://purl.org/dc/dcmitype/StillImage" /><cc:license
         rdf:resource="http://creativecommons.org/licenses/publicdomain/" /><dc:title>Go Home</dc:title><dc:creator><cc:Agent><dc:title>Jakub Steiner</dc:title></cc:Agent></dc:creator><dc:source>http://jimmac.musichall.cz</dc:source><dc:subject><rdf:Bag><rdf:li>home</rdf:li><rdf:li>return</rdf:li><rdf:li>go</rdf:li><rdf:li>default</rdf:li><rdf:li>user</rdf:li><rdf:li>directory</rdf:li></rdf:Bag></dc:subject><dc:contributor><cc:Agent><dc:title>Tuomas Kuosmanen</dc:title></cc:Agent></dc:contributor></cc:Work><cc:License
       rdf:about="http://creativecommons.org/licenses/publicdomain/"><cc:permits
         rdf:resource="http://creativecommons.org/ns#Reproduction" /><cc:permits
         rdf:resource="http://creativecommons.org/ns#Distribution" /><cc:permits
         rdf:resource="http://creativecommons.org/ns#DerivativeWorks" /></cc:License></rdf:RDF></metadata><defs
   id="defs365"><inkscape:perspective
     sodipodi:type="inkscape:persp3d"
     inkscape:vp_x="0 : 24 : 1"
     inkscape:vp_y="0 : 1000 : 0"
     inkscape:vp_z="48 : 24 : 1"
     inkscape:persp3d-origin="24 : 16 : 1"
     id="perspective92" /><linearGradient
     inkscape:collect="always"
     id="linearGradient5060"><stop
       style="stop-color:black;stop-opacity:1;"
       offset="0"
       id="stop5062" /><stop
       style="stop-color:black;stop-opacity:0;"
       offset="1"
       id="stop5064" /></linearGradient><linearGradient
     id="linearGradient5048"><stop
       style="stop-color:black;stop-opacity:0;"
       offset="0"
       id="stop5050" /><stop
       id="stop5056"
       offset="0.5"
       style="stop-color:black;stop-opacity:1;" /><stop
       style="stop-color:black;stop-opacity:0;"
       offset="1"
       id="stop5052" /></linearGradient><linearGradient
     id="linearGradient2406"><stop
       style="stop-color:#7c7e79;stop-opacity:1;"
       offset="0"
       id="stop2408" /><stop
       id="stop2414"
       offset="0.1724138"
       style="stop-color:#848681;stop-opacity:1;" /><stop
       style="stop-color:#898c86;stop-opacity:1;"
       offset="1"
       id="stop2410" /></linearGradient><linearGradient
     inkscape:collect="always"
     id="linearGradient2390"><stop
       style="stop-color:#919191;stop-opacity:1;"
       offset="0"
       id="stop2392" /><stop
       style="stop-color:#919191;stop-opacity:0;"
       offset="1"
       id="stop2394" /></linearGradient><linearGradient
     inkscape:collect="always"
     id="linearGradient2378"><stop
       style="stop-color:#575757;stop-opacity:1;"
       offset="0"
       id="stop2380" /><stop
       style="stop-color:#575757;stop-opacity:0;"
       offset="1"
       id="stop2382" /></linearGradient><linearGradient
     inkscape:collect="always"
     id="linearGradient2368"><stop
       style="stop-color:#ffffff;stop-opacity:1;"
       offset="0"
       id="stop2370" /><stop
       style="stop-color:#ffffff;stop-opacity:0;"
       offset="1"
       id="stop2372" /></linearGradient><linearGradient
     inkscape:collect="always"
     id="linearGradient2349"><stop
       style="stop-color:#000000;stop-opacity:1;"
       offset="0"
       id="stop2351" /><stop
       style="stop-color:#000000;stop-opacity:0;"
       offset="1"
       id="stop2353" /></linearGradient><linearGradient
     id="linearGradient2341"><stop
       id="stop2343"
       offset="0"
       style="stop-color:#000000;stop-opacity:1;" /><stop
       id="stop2345"
       offset="1"
       style="stop-color:#000000;stop-opacity:0;" /></linearGradient><linearGradient
     id="linearGradient2329"><stop
       style="stop-color:#000000;stop-opacity:0.18556701;"
       offset="0"
       id="stop2331" /><stop
       style="stop-color:#ffffff;stop-opacity:1;"
       offset="1"
       id="stop2333" /></linearGradient><linearGradient
     inkscape:collect="always"
     id="linearGradient2319"><stop
       style="stop-color:#000000;stop-opacity:1;"
       offset="0"
       id="stop2321" /><stop
       style="stop-color:#000000;stop-opacity:0;"
       offset="1"
       id="stop2323" /></linearGradient><linearGradient
     id="linearGradient2307"><stop
       style="stop-color:#edd400;stop-opacity:1;"
       offset="0"
       id="stop2309" /><stop
       style="stop-color:#998800;stop-opacity:1;"
       offset="1"
       id="stop2311" /></linearGradient><linearGradient
     inkscape:collect="always"
     id="linearGradient2299"><stop
       style="stop-color:#ffffff;stop-opacity:1;"
       offset="0"
       id="stop2301" /><stop
       style="stop-color:#ffffff;stop-opacity:0;"
       offset="1"
       id="stop2303" /></linearGradient><linearGradient
     id="XMLID_2_"
     gradientUnits="userSpaceOnUse"
     x1="80.223602"
     y1="117.5205"
     x2="48.046001"
     y2="59.7995"
     gradientTransform="matrix(0.314683,0.000000,0.000000,0.314683,4.128264,3.742874)">
				<stop
   offset="0"
   style="stop-color:#CCCCCC"
   id="stop17" />
				<stop
   offset="0.9831"
   style="stop-color:#FFFFFF"
   id="stop19" />
				<midPointStop
   offset="0"
   style="stop-color:#CCCCCC"
   id="midPointStop48" />
				<midPointStop
   offset="0.5"
   style="stop-color:#CCCCCC"
   id="midPointStop50" />
				<midPointStop
   offset="0.9831"
   style="stop-color:#FFFFFF"
   id="midPointStop52" />
			</linearGradient><linearGradient
     id="XMLID_39_"
     gradientUnits="userSpaceOnUse"
     x1="64.387703"
     y1="65.124001"
     x2="64.387703"
     y2="35.569"
     gradientTransform="matrix(0.354101,0.000000,0.000000,0.354101,1.638679,-8.364921e-2)">
						<stop
   offset="0"
   style="stop-color:#FFFFFF"
   id="stop336" />
						<stop
   offset="0.8539"
   style="stop-color:#FF6200"
   id="stop338" />
						<stop
   offset="1"
   style="stop-color:#F25D00"
   id="stop340" />
						<midPointStop
   offset="0"
   style="stop-color:#FFFFFF"
   id="midPointStop335" />
						<midPointStop
   offset="0.5"
   style="stop-color:#FFFFFF"
   id="midPointStop337" />
						<midPointStop
   offset="0.8539"
   style="stop-color:#FF6200"
   id="midPointStop339" />
						<midPointStop
   offset="0.5"
   style="stop-color:#FF6200"
   id="midPointStop341" />
						<midPointStop
   offset="1"
   style="stop-color:#F25D00"
   id="midPointStop343" />
					</linearGradient><radialGradient
     inkscape:collect="always"
     xlink:href="#linearGradient2349"
     id="radialGradient2355"
     cx="24.023088"
     cy="40.56913"
     fx="24.023088"
     fy="40.56913"
     r="16.28684"
     gradientTransform="matrix(1.000000,0.000000,0.000000,0.431250,1.157278e-15,23.07369)"
     gradientUnits="userSpaceOnUse" /><linearGradient
     inkscape:collect="always"
     xlink:href="#linearGradient2390"
     id="linearGradient2396"
     x1="30.603519"
     y1="37.337803"
     x2="30.603519"
     y2="36.112415"
     gradientUnits="userSpaceOnUse"
     gradientTransform="matrix(1.263867,0,0,0.859794,-6.499556,8.390924)" /><inkscape:perspective
     id="perspective2638"
     inkscape:persp3d-origin="230.05077 : 64.253571 : 1"
     inkscape:vp_z="460.10153 : 96.380356 : 1"
     inkscape:vp_y="0 : 1000 : 0"
     inkscape:vp_x="0 : 96.380356 : 1"
     sodipodi:type="inkscape:persp3d" /><linearGradient
     inkscape:collect="always"
     xlink:href="#linearGradient5048"
     id="linearGradient2678"
     gradientUnits="userSpaceOnUse"
     gradientTransform="matrix(2.774389,0,0,1.969706,-1892.179,-872.8854)"
     x1="302.85715"
     y1="366.64789"
     x2="302.85715"
     y2="609.50507" /><radialGradient
     inkscape:collect="always"
     xlink:href="#linearGradient5060"
     id="radialGradient2680"
     gradientUnits="userSpaceOnUse"
     gradientTransform="matrix(2.774389,0,0,1.969706,-1891.633,-872.8854)"
     cx="605.71429"
     cy="486.64789"
     fx="605.71429"
     fy="486.64789"
     r="117.14286" /><radialGradient
     inkscape:collect="always"
     xlink:href="#linearGradient5060"
     id="radialGradient2682"
     gradientUnits="userSpaceOnUse"
     gradientTransform="matrix(-2.774389,0,0,1.969706,112.7623,-872.8854)"
     cx="605.71429"
     cy="486.64789"
     fx="605.71429"
     fy="486.64789"
     r="117.14286" /><linearGradient
     inkscape:collect="always"
     xlink:href="#XMLID_2_"
     id="linearGradient2684"
     gradientUnits="userSpaceOnUse"
     gradientTransform="matrix(0.336922,0,0,0.166888,17.98288,15.46151)"
     x1="52.006104"
     y1="166.1331"
     x2="14.049017"
     y2="-42.218513" /><linearGradient
     inkscape:collect="always"
     xlink:href="#linearGradient2329"
     id="linearGradient2686"
     gradientUnits="userSpaceOnUse"
     gradientTransform="matrix(0.898789,0,0,1.071914,0.478025,-2.080838)"
     x1="17.602522"
     y1="26.057423"
     x2="17.682528"
     y2="32.654099" /><radialGradient
     inkscape:collect="always"
     xlink:href="#linearGradient2378"
     id="radialGradient2688"
     gradientUnits="userSpaceOnUse"
     gradientTransform="matrix(1.125263,-3.585417e-8,4.269819e-8,1.340059,-3.006704,1.355395)"
     cx="24.195112"
     cy="10.577631"
     fx="24.195112"
     fy="10.577631"
     r="15.242914" /><linearGradient
     inkscape:collect="always"
     xlink:href="#linearGradient2406"
     id="linearGradient2690"
     gradientUnits="userSpaceOnUse"
     gradientTransform="matrix(0.888785,0,0,1.08932,2.41099,-1.524336)"
     x1="17.850183"
     y1="28.939463"
     x2="19.040216"
     y2="41.03223" /><radialGradient
     inkscape:collect="always"
     xlink:href="#linearGradient2319"
     id="radialGradient2692"
     gradientUnits="userSpaceOnUse"
     gradientTransform="matrix(1.125263,0,0,0.982744,-3.428678,0.731106)"
     cx="20.443665"
     cy="37.425829"
     fx="20.443665"
     fy="37.425829"
     r="1.0821035" /><radialGradient
     inkscape:collect="always"
     xlink:href="#linearGradient2307"
     id="radialGradient2694"
     gradientUnits="userSpaceOnUse"
     gradientTransform="matrix(1.125263,0,0,0.982744,-3.428678,0.565787)"
     cx="19.985598"
     cy="36.77816"
     fx="19.985598"
     fy="36.77816"
     r="1.0821035" /><linearGradient
     inkscape:collect="always"
     xlink:href="#XMLID_39_"
     id="linearGradient2696"
     gradientUnits="userSpaceOnUse"
     gradientTransform="matrix(0.354101,0,0,0.354101,1.638679,-0.08364921)"
     x1="64.387703"
     y1="65.124001"
     x2="64.387703"
     y2="35.569" /><radialGradient
     inkscape:collect="always"
     xlink:href="#linearGradient2299"
     id="radialGradient2698"
     gradientUnits="userSpaceOnUse"
     gradientTransform="matrix(4.100086,0,0,4.201322,-25.41506,-78.53967)"
     cx="7.5326638"
     cy="24.202574"
     fx="7.5326638"
     fy="24.202574"
     r="8.2452128" /><radialGradient
     inkscape:collect="always"
     xlink:href="#linearGradient2341"
     id="radialGradient2700"
     gradientUnits="userSpaceOnUse"
     gradientTransform="matrix(4.100086,0,0,-4.201322,-5.198109,105.3535)"
     cx="11.68129"
     cy="19.554111"
     fx="11.68129"
     fy="19.554111"
     r="8.2452126" /><radialGradient
     inkscape:collect="always"
     xlink:href="#linearGradient2368"
     id="radialGradient2702"
     gradientUnits="userSpaceOnUse"
     gradientTransform="matrix(3.751495,0,0,3.147818,-82.00907,-65.70704)"
     cx="29.913452"
     cy="30.442923"
     fx="29.913452"
     fy="30.442923"
     r="4.0018832" /><radialGradient
     inkscape:collect="always"
     xlink:href="#linearGradient2368"
     id="radialGradient3845"
     gradientUnits="userSpaceOnUse"
     gradientTransform="matrix(13.322438,0,0,11.17864,-281.15555,-245.25462)"
     cx="29.913452"
     cy="30.442923"
     fx="29.913452"
     fy="30.442923"
     r="4.0018832" /><radialGradient
     inkscape:collect="always"
     xlink:href="#linearGradient2341"
     id="radialGradient3850"
     gradientUnits="userSpaceOnUse"
     gradientTransform="matrix(14.560367,0,0,-14.91988,-8.381812,362.22147)"
     cx="11.68129"
     cy="19.554111"
     fx="11.68129"
     fy="19.554111"
     r="8.2452126" /><radialGradient
     inkscape:collect="always"
     xlink:href="#linearGradient2299"
     id="radialGradient3853"
     gradientUnits="userSpaceOnUse"
     gradientTransform="matrix(14.560367,0,0,14.91988,-80.176946,-290.8263)"
     cx="7.5326638"
     cy="24.202574"
     fx="7.5326638"
     fy="24.202574"
     r="8.2452128" /><linearGradient
     inkscape:collect="always"
     xlink:href="#XMLID_39_"
     id="linearGradient3857"
     gradientUnits="userSpaceOnUse"
     gradientTransform="matrix(1.2574957,0,0,1.2574957,15.897225,-12.210569)"
     x1="64.387703"
     y1="65.124001"
     x2="64.387703"
     y2="35.569" /><radialGradient
     inkscape:collect="always"
     xlink:href="#linearGradient2307"
     id="radialGradient3860"
     gradientUnits="userSpaceOnUse"
     gradientTransform="matrix(3.9960728,0,0,3.4899544,-2.0981476,-9.9042687)"
     cx="19.985598"
     cy="36.77816"
     fx="19.985598"
     fy="36.77816"
     r="1.0821035" /><radialGradient
     inkscape:collect="always"
     xlink:href="#linearGradient2319"
     id="radialGradient3863"
     gradientUnits="userSpaceOnUse"
     gradientTransform="matrix(3.9960728,0,0,3.4899544,-2.0981476,-9.3171821)"
     cx="20.443665"
     cy="37.425829"
     fx="20.443665"
     fy="37.425829"
     r="1.0821035" /><linearGradient
     inkscape:collect="always"
     xlink:href="#linearGradient2406"
     id="linearGradient3866"
     gradientUnits="userSpaceOnUse"
     gradientTransform="matrix(3.156284,0,0,3.8684308,18.639883,-17.326786)"
     x1="17.850183"
     y1="28.939463"
     x2="19.040216"
     y2="41.03223" /><radialGradient
     inkscape:collect="always"
     xlink:href="#linearGradient2378"
     id="radialGradient3869"
     gradientUnits="userSpaceOnUse"
     gradientTransform="matrix(3.9960728,-1.2732657e-7,1.5163129e-7,4.7588638,-0.59961898,-7.1001855)"
     cx="24.195112"
     cy="10.577631"
     fx="24.195112"
     fy="10.577631"
     r="15.242914" /><linearGradient
     inkscape:collect="always"
     xlink:href="#linearGradient2329"
     id="linearGradient3873"
     gradientUnits="userSpaceOnUse"
     gradientTransform="matrix(3.1918105,0,0,3.806618,11.775471,-19.303055)"
     x1="17.602522"
     y1="26.057423"
     x2="17.682528"
     y2="32.654099" /><linearGradient
     inkscape:collect="always"
     xlink:href="#XMLID_2_"
     id="linearGradient3877"
     gradientUnits="userSpaceOnUse"
     gradientTransform="matrix(1.196489,0,0,0.59265842,73.939316,42.993937)"
     x1="52.006104"
     y1="166.1331"
     x2="14.049017"
     y2="-42.218513" /></defs><sodipodi:namedview
   inkscape:cy="-30.659807"
   inkscape:cx="-292.89818"
   inkscape:zoom="1.4142136"
   inkscape:window-height="1058"
   inkscape:window-width="1920"
   inkscape:pageshadow="2"
   inkscape:pageopacity="0.0"
   borderopacity="0.21568627"
   bordercolor="#666666"
   pagecolor="#ffffff"
   id="base"
   inkscape:showpageshadow="false"
   inkscape:window-x="-8"
   inkscape:window-y="-8"
   inkscape:current-layer="svg2"
   fill="#555753"
   showgrid="false"
   stroke="#a40000"
   showguides="true"
   inkscape:guide-bbox="true"
   inkscape:window-maximized="0" />
	
<path
   inkscape:connector-curvature="0"
   d="m 73.730652,-11.790395 c -5.29982,-1.205062 -9.63804,-0.723038 -14.21481,1.687086 -5.06127,3.133161 -7.95341,7.9534092 -9.15848,14.699296 -1.20506,6.9869 0,13.735246 3.61519,20.481134 l 1.68709,2.407664 -5.7843,-1.928099 c -7.22792,-1.687086 -13.97626,-0.723037 -20.72215,2.892149 -6.9869,3.615185 -11.32512,8.673986 -14.21727,15.663345 -2.65114,6.748347 -2.40767,13.253222 0.96405,19.276072 1.44607,2.651136 3.61518,4.817788 5.54082,6.263863 2.89215,2.892148 6.50734,4.579235 10.8431,5.299813 l 1.68709,0.482024 -3.61519,3.133161 c -3.37417,2.892145 -5.29981,6.504878 -6.50487,10.120068 -1.20506,4.338219 -0.72304,8.673979 1.68708,12.771189 1.20507,1.92564 2.40767,3.61273 4.33577,4.81779 1.9281,1.68709 4.33822,2.89215 7.22791,3.1307 5.30227,1.20507 10.8431,1.20507 16.86595,-0.72549 l -4.33822,7.22791 -1.20506,3.13562 c -2.40767,7.70994 -1.68709,14.45828 1.9281,21.44272 1.68708,2.65114 3.61518,5.06372 5.54328,7.22792 2.89215,2.65113 6.50488,4.33822 10.8431,5.54328 7.22791,1.92564 14.45828,1.68709 21.44518,-1.92564 6.74835,-3.61764 11.08411,-9.39948 13.253218,-16.62985 l 0.24102,-1.44608 c 4.57677,5.06372 8.91499,8.43544 13.73524,9.6405 4.81779,1.44607 9.63804,1.20506 13.97626,-1.68709 4.09721,-2.41012 6.9869,-6.50733 8.43297,-11.56613 1.20507,-5.30228 1.20507,-10.60209 0,-16.62494 2.40767,1.68709 4.81779,2.88723 7.70994,3.61273 7.70994,2.41012 14.45583,2.16665 21.20417,-1.44608 6.50734,-3.61272 10.8431,-9.39948 13.01221,-16.86841 1.9281,-7.227909 1.44608,-14.212349 -2.16911,-20.960697 l -1.20506,-1.928099 c -1.9281,-2.892149 -3.85374,-5.784297 -6.74589,-7.709937 -2.40766,-1.687087 -5.29981,-2.892149 -7.95095,-4.097211 7.47139,-3.615185 12.7712,-8.673986 15.18132,-15.18132 1.68709,-5.302273 1.20506,-9.638036 -1.20506,-13.976259 l 0,-0.482025 c -2.88969,-4.820247 -6.74589,-7.953408 -12.76874,-9.638036 -3.61518,-0.723037 -7.71239,-0.723037 -11.32512,-0.482024 l -7.95095,1.687086 2.65114,-6.02285 c 2.41012,-7.709937 1.68708,-15.181321 -2.41013,-22.1682198 l -0.72303,-1.205062 c -3.61519,-6.0253102 -8.915,-9.6380362 -16.14291,-11.5661352 -7.46893,-1.928099 -14.45583,-1.205062 -21.20417,2.410124 -6.745888,3.612726 -11.566138,9.1560112 -13.732788,16.386382 l 0,0.482025 -0.24101,1.687087 -0.96405,-1.687087 -2.41013,-4.3382228 c -3.85866,-6.0154722 -8.6789,-9.6306582 -14.70175,-11.3177442 l 0,0 z M 135.17651,2.6678882 c 1.20506,2.4076648 1.9281,5.2998128 1.9281,8.4329738 l -0.72304,5.299813 c -0.96405,2.651136 -2.16911,5.06126 -3.61519,7.227912 L 111.08019,50.13749 c -2.16911,-1.687087 -4.57924,-2.892149 -6.98936,-4.097211 l -2.40767,-27.227021 -0.24101,-9.638036 0.24101,-2.407664 c 1.20507,-4.8177878 4.57678,-8.4329738 8.915,-10.8430978 4.33577,-2.4076642 9.15601,-2.8921492 13.73279,-1.205062 5.06126,1.202603 8.67645,3.853739 10.84556,7.94849 l 0,0 0,0 z M 60.477432,7.488136 c 0.24101,-4.338223 1.92809,-7.2279118 4.81778,-8.9149988 1.44608,-1.205062 3.61519,-1.205062 5.54083,-0.241012 4.33822,1.205061 7.95095,4.338222 10.8431,10.3610728 1.20506,2.410123 2.41012,4.817788 2.89214,7.709936 l 4.81779,28.434543 -3.61518,1.205062 -21.44519,-23.373283 -1.20506,-2.407664 c -1.92318,-4.340682 -3.12824,-8.435434 -2.64621,-12.773656 l 0,0 0,0 z m -13.01221,28.19107 6.50733,2.651136 21.20417,15.422333 c -1.9281,2.407665 -3.1307,4.817789 -3.85374,7.227912 l -34.69841,4.338223 -2.41012,-0.482024 c -4.33822,-0.723038 -7.22791,-2.651137 -9.15601,-6.263863 -1.9281,-3.615186 -1.9281,-7.227912 -0.48203,-10.843098 1.68709,-4.579235 4.81779,-8.194421 9.39703,-10.12006 4.33576,-2.412584 8.67153,-3.135621 13.49178,-1.930559 l 0,0 0,0 z m 22.89125,39.275181 1.68709,4.820251 0.72304,1.68708 c -3.61519,3.130713 -6.26633,6.022853 -9.15601,8.673993 l -7.23037,6.025309 -1.9281,1.20506 c -4.57924,2.16665 -8.43298,2.89215 -12.53019,2.40767 -3.61519,-0.24102 -6.50734,-1.44608 -7.7124,-3.61273 l -0.72304,-2.65114 0.48203,-2.166649 c 1.20506,-3.61764 4.33822,-7.22791 9.88151,-9.881513 2.88969,-1.20506 5.29981,-2.41012 7.22791,-2.892145 l 19.27853,-3.615186 0,0 0,0 z M 145.53512,35.920219 c 4.33822,-1.928099 8.43298,-2.410124 12.7712,-1.928099 4.09721,0.482024 6.98936,2.407664 8.43297,5.299813 l 0.96405,3.130701 -0.48202,2.410124 c -1.68709,4.338223 -5.30228,7.709937 -11.32513,10.361073 -2.40766,1.205062 -5.0588,1.687087 -7.95095,2.166652 l -29.63714,3.615186 -0.48202,-1.687087 -0.48203,-0.720578 0.96405,-1.205062 24.33733,-20.240121 2.88969,-1.202602 0,0 0,0 z M 84.091722,58.811476 c 2.88969,-2.651136 6.74589,-4.335764 11.32512,-4.335764 4.33823,0 8.432978,1.687087 11.084108,4.335764 3.37418,3.374173 4.82025,6.989359 4.82025,11.325123 0,4.335763 -1.44607,8.432974 -4.82025,11.325119 -3.13316,3.130713 -6.745878,4.817793 -11.084108,4.817793 -4.57923,0 -8.43543,-1.68708 -11.32512,-4.817793 -3.13316,-2.892145 -4.81779,-6.989356 -4.81779,-11.325119 0,-4.335764 1.68463,-7.95095 4.81779,-11.325123 l 0,0 z m 5.54083,34.939424 c 0.48202,8.19442 1.20506,16.8684 2.41012,26.26543 l 0,9.64049 -0.24101,2.41013 c -1.68709,4.3333 -4.57924,7.94849 -8.915,9.87658 -4.33577,2.41013 -8.915,2.89215 -13.25322,1.68709 -4.81779,-1.20014 -8.43298,-4.09229 -10.36108,-7.94849 -1.20506,-2.41012 -2.16911,-5.30227 -2.16911,-8.19442 l 1.20506,-5.53837 c 0.48203,-2.41012 1.68709,-4.8227 3.61519,-6.74834 l 20.24012,-24.098779 c 2.41012,1.2026 4.81779,2.407659 7.46893,2.648679 l 0,0 0,0 z m 18.555488,-3.133159 10.12006,10.361069 6.26386,7.70994 1.20506,2.41012 c 2.16912,4.09721 3.37418,7.95341 2.89215,12.53264 -0.48202,4.33823 -1.9281,7.46893 -4.81779,8.67399 -1.68708,1.20506 -3.61518,1.20506 -5.54082,0.96159 -4.57924,-1.20014 -8.19442,-4.81779 -10.8431,-10.60209 l -2.89215,-7.94849 -3.61518,-20.96561 4.09721,-1.446079 3.1307,-1.68708 0,0 0,0 z m 10.8431,-14.940317 27.22948,-2.407664 9.63803,-0.241013 2.41013,0.241013 c 3.61518,1.205061 6.98936,3.374173 8.915,6.986898 2.40766,2.65114 3.61272,6.263863 3.61272,10.361083 l -0.72058,4.817779 c -1.20506,4.82271 -4.09721,8.43544 -8.19442,10.36108 -4.33822,2.41012 -8.67398,2.89215 -13.49423,1.20506 -2.89215,-0.72058 -4.81779,-1.92564 -6.50733,-3.85128 l -25.30139,-20.965622 1.68709,-3.612726 0.7255,-2.894608 0,0 0,0 z"
   style="fill:#8bc82f;fill-opacity:0.94117647"
   id="path2625-1"
   inkscape:export-filename="D:\studyworkspace\Asia\res\icq_home_96.png"
   inkscape:export-xdpi="50.553905"
   inkscape:export-ydpi="50.553905" /><path
   d="M -529.45676,4.2552165 C -534.75658,3.0501546 -539.0948,3.5321794 -543.67157,5.942303 C -548.73284,9.075464 -551.62498,13.895712 -552.83005,20.641599 C -554.03511,27.628499 -552.83005,34.376845 -549.21486,41.122733 L -547.52777,43.530397 L -553.31207,41.602298 C -560.53999,39.915212 -567.28833,40.879261 -574.03422,44.494447 C -581.02112,48.109632 -585.35934,53.168433 -588.25149,60.157792 C -590.90263,66.906139 -590.65916,73.411014 -587.28744,79.433864 C -585.84137,82.085 -583.67226,84.251652 -581.74662,85.697727 C -578.85447,88.589875 -575.23928,90.276962 -570.90352,90.99754 L -569.21643,91.479564 L -572.83162,94.612725 C -576.20579,97.50487 -578.13143,101.1176 -579.33649,104.73279 C -580.54155,109.07101 -580.05953,113.40677 -577.64941,117.50398 C -576.44434,119.42962 -575.24174,121.11671 -573.31364,122.32177 C -571.38554,124.00886 -568.97542,125.21392 -566.08573,125.45247 C -560.78346,126.65754 -555.24263,126.65754 -549.21978,124.72698 L -553.558,131.95489 L -554.76306,135.09051 C -557.17073,142.80045 -556.45015,149.54879 -552.83496,156.53323 C -551.14788,159.18437 -549.21978,161.59695 -547.29168,163.76115 C -544.39953,166.41228 -540.7868,168.09937 -536.44858,169.30443 C -529.22067,171.23007 -521.9903,170.99152 -515.0034,167.37879 C -508.25505,163.76115 -503.91929,157.97931 -501.75018,150.74894 L -501.50916,149.30286 C -496.93239,154.36658 -492.59417,157.7383 -487.77392,158.94336 C -482.95613,160.38943 -478.13588,160.14842 -473.79766,157.25627 C -469.70045,154.84615 -466.81076,150.74894 -465.36469,145.69014 C -464.15962,140.38786 -464.15962,135.08805 -465.36469,129.0652 C -462.95702,130.75229 -460.5469,131.95243 -457.65475,132.67793 C -449.94481,135.08805 -443.19892,134.84458 -436.45058,131.23185 C -429.94324,127.61913 -425.60748,121.83237 -423.43837,114.36344 C -421.51027,107.13553 -421.99229,100.15109 -425.60748,93.402745 L -426.81254,91.474646 C -428.74064,88.582497 -430.66628,85.690349 -433.55843,83.764709 C -435.96609,82.077622 -438.85824,80.87256 -441.50938,79.667498 C -434.03799,76.052313 -428.73818,70.993512 -426.32806,64.486178 C -424.64097,59.183905 -425.123,54.848142 -427.53312,50.509919 L -427.53312,50.027894 C -430.42281,45.207647 -434.27901,42.074486 -440.30186,40.389858 C -443.91704,39.666821 -448.01425,39.666821 -451.62698,39.907834 L -459.57793,41.59492 L -456.92679,35.57207 C -454.51667,27.862133 -455.23971,20.390749 -459.33692,13.40385 L -460.05995,12.198788 C -463.67514,6.173478 -468.97495,2.560752 -476.20286,0.6326529 C -483.67179,-1.2954461 -490.65869,-0.572409 -497.40703,3.0427767 C -504.15292,6.655503 -508.97317,12.198788 -511.13982,19.429159 L -511.13982,19.911184 L -511.38083,21.598271 L -512.34488,19.911184 L -514.75501,15.572961 C -518.61367,9.557489 -523.43391,5.942303 -529.45676,4.2552165 L -529.45676,4.2552165 z M -468.0109,18.7135 C -466.80584,21.121165 -466.0828,24.013313 -466.0828,27.146474 L -466.80584,32.446287 C -467.76989,35.097423 -468.97495,37.507547 -470.42103,39.674199 L -492.10722,66.183102 C -494.27633,64.496015 -496.68646,63.290953 -499.09658,62.085891 L -501.50425,34.85887 L -501.74526,25.220834 L -501.50425,22.81317 C -500.29918,17.995382 -496.92747,14.380196 -492.58925,11.970072 C -488.25348,9.562408 -483.43324,9.077923 -478.85646,10.76501 C -473.7952,11.967613 -470.18001,14.618749 -468.0109,18.7135 L -468.0109,18.7135 L -468.0109,18.7135 z M -542.70998,23.533748 C -542.46897,19.195525 -540.78189,16.305836 -537.8922,14.618749 C -536.44612,13.413687 -534.27701,13.413687 -532.35137,14.377737 C -528.01315,15.582798 -524.40042,18.715959 -521.50827,24.73881 C -520.30321,27.148933 -519.09815,29.556598 -518.61613,32.448746 L -513.79834,60.883289 L -517.41352,62.088351 L -538.85871,38.715068 L -540.06377,36.307404 C -541.98695,31.966722 -543.19201,27.87197 -542.70998,23.533748 L -542.70998,23.533748 L -542.70998,23.533748 z M -555.72219,51.724818 L -549.21486,54.375954 L -528.01069,69.798287 C -529.93879,72.205952 -531.14139,74.616076 -531.86443,77.026199 L -566.56284,81.364422 L -568.97296,80.882398 C -573.31118,80.15936 -576.20087,78.231261 -578.12897,74.618535 C -580.05707,71.003349 -580.05707,67.390623 -578.611,63.775437 C -576.92391,59.196202 -573.79321,55.581016 -569.21397,53.655377 C -564.87821,51.242793 -560.54244,50.519756 -555.72219,51.724818 L -555.72219,51.724818 L -555.72219,51.724818 z M -532.83094,90.999999 L -531.14385,95.82025 L -530.42081,97.50733 C -534.036,100.63804 -536.68714,103.53018 -539.57682,106.18132 L -546.80719,112.20663 L -548.73529,113.41169 C -553.31453,115.57834 -557.16827,116.30384 -561.26548,115.81936 C -564.88067,115.57834 -567.77282,114.37328 -568.97788,112.20663 L -569.70092,109.55549 L -569.21889,107.38884 C -568.01383,103.7712 -564.88067,100.16093 -559.33738,97.50733 C -556.44769,96.30227 -554.03757,95.09721 -552.10947,94.615185 L -532.83094,90.999999 L -532.83094,90.999999 L -532.83094,90.999999 z M -457.65229,51.965831 C -453.31407,50.037732 -449.21931,49.555707 -444.88109,50.037732 C -440.78388,50.519756 -437.89173,52.445396 -436.44812,55.337545 L -435.48407,58.468246 L -435.96609,60.87837 C -437.65318,65.216593 -441.26837,68.588307 -447.29122,71.239443 C -449.69888,72.444505 -452.35002,72.92653 -455.24217,73.406095 L -484.87931,77.021281 L -485.36133,75.334194 L -485.84336,74.613616 L -484.87931,73.408554 L -460.54198,53.168433 L -457.65229,51.965831 L -457.65229,51.965831 L -457.65229,51.965831 z M -519.09569,74.857088 C -516.206,72.205952 -512.3498,70.521324 -507.77057,70.521324 C -503.43234,70.521324 -499.33759,72.208411 -496.68646,74.857088 C -493.31228,78.231261 -491.86621,81.846447 -491.86621,86.182211 C -491.86621,90.517974 -493.31228,94.615185 -496.68646,97.50733 C -499.81962,100.63804 -503.43234,102.32512 -507.77057,102.32512 C -512.3498,102.32512 -516.206,100.63804 -519.09569,97.50733 C -522.22885,94.615185 -523.91348,90.517974 -523.91348,86.182211 C -523.91348,81.846447 -522.22885,78.231261 -519.09569,74.857088 L -519.09569,74.857088 z M -513.55486,109.79651 C -513.07284,117.99093 -512.3498,126.66491 -511.14474,136.06194 L -511.14474,145.70243 L -511.38575,148.11256 C -513.07284,152.44586 -515.96499,156.06105 -520.30075,157.98914 C -524.63652,160.39927 -529.21575,160.88129 -533.55397,159.67623 C -538.37176,158.47609 -541.98695,155.58394 -543.91505,151.72774 C -545.12011,149.31762 -546.08416,146.42547 -546.08416,143.53332 L -544.8791,137.99495 C -544.39707,135.58483 -543.19201,133.17225 -541.26391,131.24661 L -521.02379,107.14783 C -518.61367,108.35043 -516.206,109.55549 -513.55486,109.79651 L -513.55486,109.79651 L -513.55486,109.79651 z M -494.99937,106.66335 L -484.87931,117.02442 L -478.61545,124.73436 L -477.41039,127.14448 C -475.24127,131.24169 -474.03621,135.09789 -474.51824,139.67712 C -475.00026,144.01535 -476.44634,147.14605 -479.33603,148.35111 C -481.02311,149.55617 -482.95121,149.55617 -484.87685,149.3127 C -489.45609,148.11256 -493.07127,144.49491 -495.71995,138.71061 L -498.6121,130.76212 L -502.22728,109.79651 L -498.13007,108.35043 L -494.99937,106.66335 L -494.99937,106.66335 L -494.99937,106.66335 z M -484.15627,91.723036 L -456.92679,89.315372 L -447.28876,89.074359 L -444.87863,89.315372 C -441.26345,90.520433 -437.88927,92.689545 -435.96363,96.30227 C -433.55597,98.95341 -432.35091,102.56613 -432.35091,106.66335 L -433.07149,111.48113 C -434.27655,116.30384 -437.1687,119.91657 -441.26591,121.84221 C -445.60413,124.25233 -449.93989,124.73436 -454.76014,123.04727 C -457.65229,122.32669 -459.57793,121.12163 -461.26747,119.19599 L -486.56886,98.23037 L -484.88177,94.617644 L -484.15627,91.723036 L -484.15627,91.723036 L -484.15627,91.723036 z"
   style="fill:#020202;fill-opacity:0.23245615"
   id="path2625" /><path
   d="M -468.0109,18.7135 C -466.80584,21.121165 -466.0828,24.013313 -466.0828,27.146474 L -466.80584,32.446287 C -467.76989,35.097423 -468.97495,37.507547 -470.42103,39.674199 L -492.10722,66.183102 C -494.27633,64.496015 -496.68646,63.290953 -499.09658,62.085891 L -501.50425,34.85887 L -501.74526,25.220834 L -501.50425,22.81317 C -500.29918,17.995382 -496.92747,14.380196 -492.58925,11.970072 C -488.25348,9.562408 -483.43324,9.077923 -478.85646,10.76501 C -473.7952,11.967613 -470.18001,14.618749 -468.0109,18.7135 L -468.0109,18.7135 L -468.0109,18.7135 z M -542.70998,23.533748 C -542.46897,19.195525 -540.78189,16.305836 -537.8922,14.618749 C -536.44612,13.413687 -534.27701,13.413687 -532.35137,14.377737 C -528.01315,15.582798 -524.40042,18.715959 -521.50827,24.73881 C -520.30321,27.148933 -519.09815,29.556598 -518.61613,32.448746 L -513.79834,60.883289 L -517.41352,62.088351 L -538.85871,38.715068 L -540.06377,36.307404 C -541.98695,31.966722 -543.19201,27.87197 -542.70998,23.533748 L -542.70998,23.533748 L -542.70998,23.533748 z M -555.72219,51.724818 L -549.21486,54.375954 L -528.01069,69.798287 C -529.93879,72.205952 -531.14139,74.616076 -531.86443,77.026199 L -566.56284,81.364422 L -568.97296,80.882398 C -573.31118,80.15936 -576.20087,78.231261 -578.12897,74.618535 C -580.05707,71.003349 -580.05707,67.390623 -578.611,63.775437 C -576.92391,59.196202 -573.79321,55.581016 -569.21397,53.655377 C -564.87821,51.242793 -560.54244,50.519756 -555.72219,51.724818 L -555.72219,51.724818 L -555.72219,51.724818 z M -457.65229,51.965831 C -453.31407,50.037732 -449.21931,49.555707 -444.88109,50.037732 C -440.78388,50.519756 -437.89173,52.445396 -436.44812,55.337545 L -435.48407,58.468246 L -435.96609,60.87837 C -437.65318,65.216593 -441.26837,68.588307 -447.29122,71.239443 C -449.69888,72.444505 -452.35002,72.92653 -455.24217,73.406095 L -484.87931,77.021281 L -485.36133,75.334194 L -485.84336,74.613616 L -484.87931,73.408554 L -460.54198,53.168433 L -457.65229,51.965831 L -457.65229,51.965831 L -457.65229,51.965831 z M -513.55486,109.79651 C -513.07284,117.99093 -512.3498,126.66491 -511.14474,136.06194 L -511.14474,145.70243 L -511.38575,148.11256 C -513.07284,152.44586 -515.96499,156.06105 -520.30075,157.98914 C -524.63652,160.39927 -529.21575,160.88129 -533.55397,159.67623 C -538.37176,158.47609 -541.98695,155.58394 -543.91505,151.72774 C -545.12011,149.31762 -546.08416,146.42547 -546.08416,143.53332 L -544.8791,137.99495 C -544.39707,135.58483 -543.19201,133.17225 -541.26391,131.24661 L -521.02379,107.14783 C -518.61367,108.35043 -516.206,109.55549 -513.55486,109.79651 L -513.55486,109.79651 L -513.55486,109.79651 z M -494.99937,106.66335 L -484.87931,117.02442 L -478.61545,124.73436 L -477.41039,127.14448 C -475.24127,131.24169 -474.03621,135.09789 -474.51824,139.67712 C -475.00026,144.01535 -476.44634,147.14605 -479.33603,148.35111 C -481.02311,149.55617 -482.95121,149.55617 -484.87685,149.3127 C -489.45609,148.11256 -493.07127,144.49491 -495.71995,138.71061 L -498.6121,130.76212 L -502.22728,109.79651 L -498.13007,108.35043 L -494.99937,106.66335 L -494.99937,106.66335 L -494.99937,106.66335 z M -484.15627,91.723036 L -456.92679,89.315372 L -447.28876,89.074359 L -444.87863,89.315372 C -441.26345,90.520433 -437.88927,92.689545 -435.96363,96.30227 C -433.55597,98.95341 -432.35091,102.56613 -432.35091,106.66335 L -433.07149,111.48113 C -434.27655,116.30384 -437.1687,119.91657 -441.26591,121.84221 C -445.60413,124.25233 -449.93989,124.73436 -454.76014,123.04727 C -457.65229,122.32669 -459.57793,121.12163 -461.26747,119.19599 L -486.56886,98.23037 L -484.88177,94.617644 L -484.15627,91.723036 L -484.15627,91.723036 L -484.15627,91.723036 z"
   style="fill:#48f600;fill-opacity:0.21491228"
   id="path2627" /><path
   d="M -532.83094,90.999999 L -531.14385,95.82025 L -530.42081,97.50733 C -534.036,100.63804 -536.68714,103.53018 -539.57682,106.18132 L -546.80719,112.20663 L -548.73529,113.41169 C -553.31453,115.57834 -557.16827,116.30384 -561.26548,115.81936 C -564.88067,115.57834 -567.77282,114.37328 -568.97788,112.20663 L -569.70092,109.55549 L -569.21889,107.38884 C -568.01383,103.7712 -564.88067,100.16093 -559.33738,97.50733 C -556.44769,96.30227 -554.03757,95.09721 -552.10947,94.615185 L -532.83094,90.999999 L -532.83094,90.999999 L -532.83094,90.999999 z"
   style="fill:#ff001c;fill-opacity:0.25"
   id="path2629" /><path
   d="M -519.09569,74.857088 C -516.206,72.205952 -512.3498,70.521324 -507.77057,70.521324 C -503.43234,70.521324 -499.33759,72.208411 -496.68646,74.857088 C -493.31228,78.231261 -491.86621,81.846447 -491.86621,86.182211 C -491.86621,90.517974 -493.31228,94.615185 -496.68646,97.50733 C -499.81962,100.63804 -503.43234,102.32512 -507.77057,102.32512 C -512.3498,102.32512 -516.206,100.63804 -519.09569,97.50733 C -522.22885,94.615185 -523.91348,90.517974 -523.91348,86.182211 C -523.91348,81.846447 -522.22885,78.231261 -519.09569,74.857088 L -519.09569,74.857088 L -519.09569,74.857088 z"
   style="fill:#fdfb12;fill-opacity:0.27631578"
   id="path2631" /><path
   inkscape:connector-curvature="0"
   style="fill:url(#linearGradient3877);fill-opacity:1;fill-rule:nonzero;stroke:#757575;stroke-width:3.55123663;stroke-linecap:butt;stroke-linejoin:miter;stroke-miterlimit:4;stroke-opacity:1;stroke-dashoffset:0;marker:none;visibility:visible;display:inline;overflow:visible"
   d="m 86.854076,17.147567 21.156334,0 c 2.98209,0 49.31413,54.814468 49.31413,58.029511 l -1.57505,65.686282 c 0,3.21505 -2.40074,5.80334 -5.38282,5.80334 l -111.712173,0 c -2.982088,0 -5.382828,-2.58829 -5.382828,-5.80334 l 0.200567,-65.686282 c 0,-3.215043 50.399755,-58.029511 53.38184,-58.029511 z"
   id="rect1512"
   sodipodi:nodetypes="ccccccccc"
   inkscape:export-filename="D:\studyworkspace\Asia\res\icq_home_96.png"
   inkscape:export-xdpi="50.553905"
   inkscape:export-ydpi="50.553905" /><path
   inkscape:connector-curvature="0"
   style="fill:none"
   id="path5"
   d="m 176.85656,150.50423 -160.959345,0 0,-160.959336 160.959345,0 0,160.959336 z"
   inkscape:export-filename="D:\studyworkspace\Asia\res\icq_home_96.png"
   inkscape:export-xdpi="50.553905"
   inkscape:export-ydpi="50.553905" /><path
   inkscape:connector-curvature="0"
   style="fill:url(#linearGradient3873);fill-opacity:1;fill-rule:evenodd"
   id="path2327"
   d="m 91.756286,91.072289 -0.162434,53.591471 -42.056528,0 -0.395852,-53.591471 42.614814,0 z"
   clip-rule="evenodd"
   sodipodi:nodetypes="ccccc"
   inkscape:export-filename="D:\studyworkspace\Asia\res\icq_home_96.png"
   inkscape:export-xdpi="50.553905"
   inkscape:export-ydpi="50.553905" /><path
   inkscape:connector-curvature="0"
   sodipodi:nodetypes="ccccccccc"
   id="path2357"
   d="m 87.425409,21.487923 19.741661,0 c 2.78268,0 46.16913,51.136314 46.16913,54.13563 l -1.23284,64.676187 c 0,1.63094 -0.51044,2.32061 -1.81956,2.32061 l -111.463319,0.0507 c -1.309119,0 -2.073792,-0.28382 -2.073792,-1.61066 l 0.76473,-65.436847 c 0,-2.999316 47.131318,-54.13563 49.91399,-54.13563 z"
   style="opacity:0.3125;fill:none;stroke:#ffffff;stroke-width:3.55123496;stroke-linecap:butt;stroke-linejoin:miter;stroke-miterlimit:4;stroke-opacity:1;stroke-dashoffset:0;marker:none;visibility:visible;display:inline;overflow:visible"
   inkscape:export-filename="D:\studyworkspace\Asia\res\icq_home_96.png"
   inkscape:export-xdpi="50.553905"
   inkscape:export-ydpi="50.553905" /><path
   inkscape:connector-curvature="0"
   clip-rule="evenodd"
   d="M 35.673519,87.318823 35.480841,96.534965 100.7105,49.732344 154.99607,89.344333 155.24931,88.237364 97.113983,31.758065 35.673519,87.318823 z"
   id="path23"
   style="opacity:0.2;fill:url(#radialGradient3869);fill-opacity:1;fill-rule:evenodd"
   sodipodi:nodetypes="ccccccc"
   inkscape:export-filename="D:\studyworkspace\Asia\res\icq_home_96.png"
   inkscape:export-xdpi="50.553905"
   inkscape:export-ydpi="50.553905" /><path
   inkscape:connector-curvature="0"
   clip-rule="evenodd"
   d="m 88.205051,94.623524 0,50.040236 -34.841265,0 -0.67108,-50.040236 35.512345,0 z"
   id="path188"
   style="fill:url(#linearGradient3866);fill-opacity:1;fill-rule:evenodd"
   sodipodi:nodetypes="ccccc"
   inkscape:export-filename="D:\studyworkspace\Asia\res\icq_home_96.png"
   inkscape:export-xdpi="50.553905"
   inkscape:export-ydpi="50.553905" /><path
   inkscape:connector-curvature="0"
   style="opacity:0.40909089;fill:url(#radialGradient3863);fill-opacity:1;fill-rule:evenodd"
   id="path2315"
   d="m 79.599898,117.52071 c 2.389235,0 4.320489,1.68544 4.320489,3.75901 0,2.09456 -1.931254,3.79398 -4.320489,3.79398 -2.387395,0 -4.327839,-1.69942 -4.327839,-3.79398 0.0018,-2.07357 1.940444,-3.75901 4.327839,-3.75901 z"
   clip-rule="evenodd"
   inkscape:export-filename="D:\studyworkspace\Asia\res\icq_home_96.png"
   inkscape:export-xdpi="50.553905"
   inkscape:export-ydpi="50.553905" /><path
   inkscape:connector-curvature="0"
   clip-rule="evenodd"
   d="m 79.193133,115.69026 c 2.389231,0 4.320485,1.68543 4.320485,3.75901 0,2.09455 -1.931254,3.79397 -4.320485,3.79397 -2.387399,0 -4.327843,-1.69942 -4.327843,-3.79397 0.0018,-2.07358 1.940444,-3.75901 4.327843,-3.75901 z"
   id="path217"
   style="fill:url(#radialGradient3860);fill-opacity:1;fill-rule:evenodd"
   inkscape:export-filename="D:\studyworkspace\Asia\res\icq_home_96.png"
   inkscape:export-xdpi="50.553905"
   inkscape:export-ydpi="50.553905" /><path
   inkscape:connector-curvature="0"
   d="m 96.897578,29.136405 67.214432,60.974228 1.75672,1.392052 1.43355,-0.608628 -1.32415,-2.70488 -0.98588,-0.793473 -68.094672,-55.300911 -68.856716,55.908275 -0.843779,0.511804 -0.769588,2.509962 1.539175,0.45899 1.365642,-1.095282 67.565266,-61.252137 z"
   id="path342"
   style="fill:url(#linearGradient3857)"
   sodipodi:nodetypes="ccccccccccccc"
   inkscape:export-filename="D:\studyworkspace\Asia\res\icq_home_96.png"
   inkscape:export-xdpi="50.553905"
   inkscape:export-ydpi="50.553905" /><path
   inkscape:connector-curvature="0"
   style="fill:#ef2929;stroke:#a40000;stroke-width:3.55123448"
   id="path362"
   d="M 96.480024,-3.8474564 18.772839,60.434635 16.55428,85.882526 l 7.102243,7.330895 c 0,0 72.471396,-60.929542 73.240991,-61.53566 l 69.719756,62.30023 6.74175,-8.253058 -5.73806,-25.254157 -70.723446,-64.6891922 -0.41749,0.3709598 z"
   sodipodi:nodetypes="cccccccccc"
   inkscape:export-filename="D:\studyworkspace\Asia\res\icq_home_96.png"
   inkscape:export-xdpi="50.553905"
   inkscape:export-ydpi="50.553905" /><path
   inkscape:connector-curvature="0"
   style="opacity:0.40909089;fill:url(#radialGradient3853);fill-opacity:1;fill-rule:nonzero;stroke:none;stroke-width:1;marker:none;visibility:visible;display:inline;overflow:visible"
   d="M 20.168173,61.288544 19.132792,84.809666 96.618703,19.976841 96.368952,-0.95175815 20.168173,61.288544 z"
   id="path1536"
   sodipodi:nodetypes="ccccc"
   inkscape:export-filename="D:\studyworkspace\Asia\res\icq_home_96.png"
   inkscape:export-xdpi="50.553905"
   inkscape:export-ydpi="50.553905" /><path
   inkscape:connector-curvature="0"
   sodipodi:nodetypes="ccccc"
   id="path2337"
   d="M 97.025476,19.163301 97.378682,-1.579821 166.02036,61.106405 171.31814,84.192312 97.025476,19.163301 z"
   style="opacity:0.13636367;fill:url(#radialGradient3850);fill-opacity:1;fill-rule:nonzero;stroke:none;stroke-width:1;marker:none;visibility:visible;display:inline;overflow:visible"
   inkscape:export-filename="D:\studyworkspace\Asia\res\icq_home_96.png"
   inkscape:export-xdpi="50.553905"
   inkscape:export-ydpi="50.553905" /><path
   inkscape:connector-curvature="0"
   style="opacity:0.31818183;fill:none;stroke:#ffffff;stroke-width:3.5512321;stroke-linecap:butt;stroke-linejoin:miter;stroke-miterlimit:4;stroke-opacity:1;stroke-dashoffset:0;marker:none;visibility:visible;display:inline;overflow:visible"
   d="m 106.32426,86.526084 32.10314,0 c 2.73656,0 4.93965,2.20308 4.93965,4.93965 l -0.0284,32.242446 c 0,2.73656 -2.11768,4.49575 -4.85425,4.49575 l -32.16027,0 c -2.73657,0 -4.93965,-2.20309 -4.93965,-4.93966 l 0,-31.798536 c 0,-2.73657 2.20308,-4.93965 4.93965,-4.93965 z"
   id="rect2361"
   sodipodi:nodetypes="ccccccccc"
   inkscape:export-filename="D:\studyworkspace\Asia\res\icq_home_96.png"
   inkscape:export-xdpi="50.553905"
   inkscape:export-ydpi="50.553905" /><rect
   style="fill:#3465a4;fill-opacity:1;fill-rule:nonzero;stroke:#757575;stroke-width:3.55123234;stroke-linecap:butt;stroke-linejoin:miter;stroke-miterlimit:4;stroke-opacity:1;stroke-dasharray:none;stroke-dashoffset:0;marker:none;visibility:visible;display:inline;overflow:visible"
   id="rect3263"
   width="35.517078"
   height="35.379017"
   x="104.21319"
   y="89.347298"
   rx="1.3540224"
   ry="1.3540224"
   inkscape:export-filename="D:\studyworkspace\Asia\res\icq_home_96.png"
   inkscape:export-xdpi="50.553905"
   inkscape:export-ydpi="50.553905" /><path
   inkscape:connector-curvature="0"
   style="opacity:0.39772728;fill:url(#radialGradient3845);fill-opacity:1;fill-rule:nonzero;stroke:none;stroke-width:0.99999958;marker:none;visibility:visible;display:inline;overflow:visible"
   d="m 106.34162,110.27829 c 12.84831,1.17609 19.63025,-5.13403 31.49289,-5.51414 l 0.0878,-13.670447 -31.64722,-0.02141 0.0665,19.206001 z"
   id="rect2363"
   sodipodi:nodetypes="ccccc"
   inkscape:export-filename="D:\studyworkspace\Asia\res\icq_home_96.png"
   inkscape:export-xdpi="50.553905"
   inkscape:export-ydpi="50.553905" /></svg>