<?xml version="1.0" encoding="UTF-8" standalone="no"?>
<svg
   xmlns:dc="http://purl.org/dc/elements/1.1/"
   xmlns:cc="http://creativecommons.org/ns#"
   xmlns:rdf="http://www.w3.org/1999/02/22-rdf-syntax-ns#"
   xmlns:svg="http://www.w3.org/2000/svg"
   xmlns="http://www.w3.org/2000/svg"
   xmlns:xlink="http://www.w3.org/1999/xlink"
   xmlns:sodipodi="http://sodipodi.sourceforge.net/DTD/sodipodi-0.dtd"
   xmlns:inkscape="http://www.inkscape.org/namespaces/inkscape"
   version="1.1"
   width="460.10153"
   height="192.76071"
   id="svg2"
   sodipodi:version="0.32"
   inkscape:version="0.48.1 "
   sodipodi:docname="icq_busy.svg"
   inkscape:output_extension="org.inkscape.output.svg.inkscape">
  <metadata
     id="metadata21">
    <rdf:RDF>
      <cc:Work
         rdf:about="">
        <dc:format>image/svg+xml</dc:format>
        <dc:type
           rdf:resource="http://purl.org/dc/dcmitype/StillImage" />
        <dc:title></dc:title>
      </cc:Work>
    </rdf:RDF>
  </metadata>
  <defs
     id="defs19">
    <inkscape:perspective
       sodipodi:type="inkscape:persp3d"
       inkscape:vp_x="0 : 96.380356 : 1"
       inkscape:vp_y="6.1230318e-14 : 1000 : 0"
       inkscape:vp_z="460.10153 : 96.380356 : 1"
       inkscape:persp3d-origin="230.05077 : 64.253571 : 1"
       id="perspective23" />
    <linearGradient
       gradientUnits="userSpaceOnUse"
       y2="621.52362"
       x2="310.21301"
       y1="544.04443"
       x1="283.1438"
       gradientTransform="matrix(2.020132,0,0,1.072146,-243.4128,-461.5797)"
       id="linearGradient21775"
       xlink:href="#linearGradient19891" />
    <linearGradient
       gradientUnits="userSpaceOnUse"
       y2="596.4635"
       x2="411.76834"
       y1="500.31891"
       x1="356.59149"
       gradientTransform="matrix(1.824467,0,0,1.187127,-243.4128,-461.5797)"
       id="linearGradient21774"
       xlink:href="#linearGradient19891" />
    <linearGradient
       gradientUnits="userSpaceOnUse"
       y2="536.09961"
       x2="355.53992"
       y1="490.90662"
       x1="366.79565"
       gradientTransform="matrix(1.694095,0,0,1.278483,-243.4128,-461.5797)"
       id="linearGradient21773"
       xlink:href="#linearGradient19891" />
    <linearGradient
       gradientUnits="userSpaceOnUse"
       y2="726.86414"
       x2="254.63019"
       y1="675.68268"
       x1="278.43369"
       gradientTransform="matrix(2.142385,0,0,1.010964,-243.4128,-461.5797)"
       id="linearGradient21772"
       xlink:href="#linearGradient19891" />
    <radialGradient
       gradientUnits="userSpaceOnUse"
       r="118.80912"
       fy="1002.0805"
       fx="421.10483"
       cy="1002.0805"
       cx="421.10483"
       gradientTransform="scale(1.384399,0.722335)"
       id="radialGradient19258"
       xlink:href="#linearGradient19255" />
    <radialGradient
       r="167.6913"
       fy="328.01367"
       fx="876.83997"
       cy="328.01367"
       cx="876.83997"
       gradientTransform="scale(0.547099,1.827822)"
       gradientUnits="userSpaceOnUse"
       id="radialGradient18011"
       xlink:href="#linearGradient6048" />
    <linearGradient
       y2="366.24344"
       x2="992.73981"
       y1="339.08038"
       x1="950.22913"
       gradientTransform="scale(0.554968,1.801905)"
       gradientUnits="userSpaceOnUse"
       id="linearGradient18010"
       xlink:href="#linearGradient6048" />
    <linearGradient
       y2="378.45157"
       x2="907.35303"
       y1="365.68399"
       x1="879.77722"
       gradientTransform="matrix(1.034524,0.112267,-0.295907,2.726726,-431.8589,-598.1391)"
       gradientUnits="userSpaceOnUse"
       id="linearGradient18009"
       xlink:href="#linearGradient6048" />
    <radialGradient
       r="42.667896"
       fy="320.04651"
       fx="974.2926"
       cy="320.04651"
       cx="974.2926"
       gradientTransform="scale(0.547099,1.827822)"
       gradientUnits="userSpaceOnUse"
       id="radialGradient18008"
       xlink:href="#linearGradient6048" />
    <radialGradient
       r="167.6913"
       fy="328.01367"
       fx="876.83997"
       cy="328.01367"
       cx="876.83997"
       gradientTransform="scale(0.547099,1.827822)"
       gradientUnits="userSpaceOnUse"
       id="radialGradient18007"
       xlink:href="#linearGradient6048" />
    <radialGradient
       r="123.73125"
       fy="325.69855"
       fx="889.96802"
       cy="325.69855"
       cx="889.96802"
       gradientTransform="scale(0.547099,1.827822)"
       gradientUnits="userSpaceOnUse"
       id="radialGradient18006"
       xlink:href="#linearGradient6048" />
    <linearGradient
       gradientUnits="userSpaceOnUse"
       y2="378.45157"
       x2="907.35303"
       y1="365.68399"
       x1="879.77722"
       gradientTransform="matrix(0.896751,0.13257,-0.349418,2.363591,-104.4107,-572.1006)"
       id="linearGradient17999"
       xlink:href="#linearGradient6048" />
    <linearGradient
       gradientUnits="userSpaceOnUse"
       y2="366.24344"
       x2="992.73981"
       y1="339.08038"
       x1="950.22913"
       gradientTransform="scale(0.554968,1.801905)"
       id="linearGradient17995"
       xlink:href="#linearGradient6048" />
    <radialGradient
       r="123.73125"
       fy="325.69855"
       fx="889.96802"
       cy="325.69855"
       cx="889.96802"
       gradientTransform="scale(0.547099,1.827822)"
       gradientUnits="userSpaceOnUse"
       id="radialGradient17373"
       xlink:href="#linearGradient6048" />
    <radialGradient
       r="167.6913"
       fy="328.01367"
       fx="876.83997"
       cy="328.01367"
       cx="876.83997"
       gradientTransform="scale(0.547099,1.827822)"
       gradientUnits="userSpaceOnUse"
       id="radialGradient16750"
       xlink:href="#linearGradient6048" />
    <radialGradient
       r="42.667896"
       fy="320.04651"
       fx="974.2926"
       cy="320.04651"
       cx="974.2926"
       gradientTransform="scale(0.547099,1.827822)"
       gradientUnits="userSpaceOnUse"
       id="radialGradient15503"
       xlink:href="#linearGradient6048" />
    <radialGradient
       gradientUnits="userSpaceOnUse"
       r="167.6913"
       fy="328.01367"
       fx="876.83997"
       cy="328.01367"
       cx="876.83997"
       gradientTransform="scale(0.547099,1.827822)"
       id="radialGradient15499"
       xlink:href="#linearGradient6048" />
    <linearGradient
       y2="1042.7759"
       x2="313.97519"
       y1="990.95471"
       x1="215.40974"
       gradientTransform="matrix(2.447112,0,0,0.885074,-265.0692,-488.8545)"
       gradientUnits="userSpaceOnUse"
       id="linearGradient14874"
       xlink:href="#linearGradient6048" />
    <linearGradient
       y2="588.27478"
       x2="332.32843"
       y1="580.00238"
       x1="162.94325"
       gradientTransform="matrix(1.38217,0,0,1.56701,102.5026,-640.9953)"
       gradientUnits="userSpaceOnUse"
       id="linearGradient14251"
       xlink:href="#linearGradient6048" />
    <linearGradient
       y2="938.22028"
       x2="226.1803"
       y1="970.60608"
       x1="217.05249"
       gradientTransform="matrix(2.106406,0,0,1.028232,102.5026,-640.9953)"
       gradientUnits="userSpaceOnUse"
       id="linearGradient14247"
       xlink:href="#linearGradient6048" />
    <linearGradient
       y2="312.83487"
       x2="622.90125"
       y1="311.3053"
       x1="355.22385"
       gradientTransform="matrix(0.776691,0,0,2.788592,102.5026,-640.9953)"
       gradientUnits="userSpaceOnUse"
       id="linearGradient14237"
       xlink:href="#linearGradient6048" />
    <linearGradient
       y2="890.487"
       x2="186.85065"
       y1="878.4621"
       x1="176.8945"
       gradientTransform="matrix(2.447112,0,0,0.885074,207.3883,-424.3939)"
       gradientUnits="userSpaceOnUse"
       id="linearGradient14235"
       xlink:href="#linearGradient6048" />
    <linearGradient
       y2="1042.7759"
       x2="313.97519"
       y1="990.95471"
       x1="215.40974"
       gradientTransform="matrix(2.447112,0,0,0.885074,-243.4128,-461.5797)"
       gradientUnits="userSpaceOnUse"
       id="linearGradient14217"
       xlink:href="#linearGradient6048" />
    <linearGradient
       gradientUnits="userSpaceOnUse"
       y2="535.12262"
       x2="340.41629"
       y1="528.67883"
       x1="328.87115"
       gradientTransform="matrix(1.163397,0,0,1.86168,-243.4128,-461.5797)"
       id="linearGradient14215"
       xlink:href="#linearGradient11708" />
    <linearGradient
       gradientUnits="userSpaceOnUse"
       y2="844.19476"
       x2="203.49179"
       y1="836.89905"
       x1="188.7569"
       gradientTransform="matrix(1.828164,0,0,1.184727,-243.4128,-461.5797)"
       id="linearGradient14211"
       xlink:href="#linearGradient6048" />
    <linearGradient
       gradientUnits="userSpaceOnUse"
       y2="920.22772"
       x2="180.96294"
       y1="913.29193"
       x1="177.62766"
       gradientTransform="matrix(2.030149,0,0,1.066855,-243.4128,-461.5797)"
       id="linearGradient12964"
       xlink:href="#linearGradient11708" />
    <linearGradient
       gradientUnits="userSpaceOnUse"
       y2="781.55225"
       x2="242.92342"
       y1="717.41785"
       x1="181.08142"
       gradientTransform="matrix(2.589692,0,0,0.836344,-243.4128,-461.5797)"
       id="linearGradient11718"
       xlink:href="#linearGradient11708" />
    <linearGradient
       gradientUnits="userSpaceOnUse"
       y2="789.95105"
       x2="313.91788"
       y1="734.84552"
       x1="254.38174"
       gradientTransform="matrix(2.586092,0,0,0.837508,-243.4128,-461.5797)"
       id="linearGradient11714"
       xlink:href="#linearGradient6048" />
    <linearGradient
       gradientUnits="userSpaceOnUse"
       y2="610.27765"
       x2="498.86972"
       y1="487.45126"
       x1="449.02173"
       gradientTransform="matrix(1.54723,0,0,1.39984,-243.4128,-461.5797)"
       id="linearGradient11707"
       xlink:href="#linearGradient11708" />
    <linearGradient
       gradientUnits="userSpaceOnUse"
       y2="622.31219"
       x2="357.63406"
       y1="495.55145"
       x1="130.16898"
       gradientTransform="matrix(1.431202,0,0,1.513326,-243.4128,-461.5797)"
       id="linearGradient11082"
       xlink:href="#linearGradient6048" />
    <linearGradient
       y2="933.09766"
       x2="162.13568"
       y1="928.82422"
       x1="156.27499"
       gradientTransform="matrix(2.447112,0,0,0.885074,-243.4128,-461.5797)"
       gradientUnits="userSpaceOnUse"
       id="linearGradient9819"
       xlink:href="#linearGradient6048" />
    <linearGradient
       y2="875.35773"
       x2="156.26242"
       y1="859.61609"
       x1="139.11574"
       gradientTransform="matrix(2.447112,0,0,0.885074,-210.9924,-455.377)"
       gradientUnits="userSpaceOnUse"
       id="linearGradient9817"
       xlink:href="#linearGradient6048" />
    <linearGradient
       gradientUnits="userSpaceOnUse"
       y2="831.15369"
       x2="191.15134"
       y1="817.92725"
       x1="141.55222"
       gradientTransform="matrix(1.904069,0,0,1.137498,-243.4128,-461.5797)"
       id="linearGradient9815"
       xlink:href="#linearGradient6048" />
    <linearGradient
       y2="890.487"
       x2="186.85065"
       y1="878.4621"
       x1="176.8945"
       gradientTransform="matrix(2.447112,0,0,0.885074,-138.5273,-244.9784)"
       gradientUnits="userSpaceOnUse"
       id="linearGradient8566"
       xlink:href="#linearGradient6048" />
    <linearGradient
       gradientUnits="userSpaceOnUse"
       y2="938.22028"
       x2="226.1803"
       y1="970.60608"
       x1="217.05249"
       gradientTransform="matrix(2.106406,0,0,1.028232,-243.4128,-461.5797)"
       id="linearGradient8564"
       xlink:href="#linearGradient6048" />
    <linearGradient
       gradientUnits="userSpaceOnUse"
       y2="588.27478"
       x2="332.32843"
       y1="580.00238"
       x1="162.94325"
       gradientTransform="matrix(1.38217,0,0,1.56701,-243.4128,-461.5797)"
       id="linearGradient7939"
       xlink:href="#linearGradient6048" />
    <linearGradient
       gradientUnits="userSpaceOnUse"
       y2="312.83487"
       x2="622.90125"
       y1="311.3053"
       x1="355.22385"
       gradientTransform="matrix(0.776691,0,0,2.788592,-243.4128,-461.5797)"
       id="linearGradient7313"
       xlink:href="#linearGradient6048" />
    <linearGradient
       gradientUnits="userSpaceOnUse"
       y2="890.487"
       x2="186.85065"
       y1="878.4621"
       x1="176.8945"
       gradientTransform="matrix(2.447112,0,0,0.885074,-243.4128,-461.5797)"
       id="linearGradient6686"
       xlink:href="#linearGradient6048" />
    <linearGradient
       gradientUnits="userSpaceOnUse"
       y2="875.35773"
       x2="156.26242"
       y1="859.61609"
       x1="139.11574"
       gradientTransform="matrix(2.447112,0,0,0.885074,-243.4128,-461.5797)"
       id="linearGradient6682"
       xlink:href="#linearGradient6048" />
    <linearGradient
       gradientUnits="userSpaceOnUse"
       y2="458.29462"
       x2="333.6091"
       y1="445.10104"
       x1="328.51797"
       gradientTransform="matrix(1.233745,0,0,1.755529,-243.4128,-461.5797)"
       id="linearGradient6056"
       xlink:href="#linearGradient6048" />
    <radialGradient
       gradientUnits="userSpaceOnUse"
       r="52.276608"
       fy="470.34796"
       fx="585.98401"
       cy="470.34796"
       cx="585.98401"
       gradientTransform="scale(0.719013,1.390795)"
       id="radialGradient6052"
       xlink:href="#linearGradient6048" />
    <linearGradient
       id="linearGradient6048">
      <stop
         id="stop6049"
         offset="0.0000000"
         style="stop-color:#cfcfcf;stop-opacity:1.0000000;" />
      <stop
         id="stop6050"
         offset="1.0000000"
         style="stop-color:#5d5d5d;stop-opacity:1.0000000;" />
    </linearGradient>
    <linearGradient
       id="linearGradient6683">
      <stop
         id="stop6684"
         offset="0.0000000"
         style="stop-color:#000000;stop-opacity:1.0000000;" />
      <stop
         id="stop6685"
         offset="1"
         style="stop-color:#000000;stop-opacity:0;" />
    </linearGradient>
    <linearGradient
       id="linearGradient11708">
      <stop
         id="stop11709"
         offset="0.0000000"
         style="stop-color:#5d5d5d;stop-opacity:1.0000000;" />
      <stop
         id="stop11710"
         offset="1.0000000"
         style="stop-color:#292929;stop-opacity:1.0000000;" />
    </linearGradient>
    <linearGradient
       id="linearGradient19255">
      <stop
         id="stop19256"
         offset="0.0000000"
         style="stop-color:#555555;stop-opacity:1.0000000;" />
      <stop
         id="stop19257"
         offset="1"
         style="stop-color:#000000;stop-opacity:0;" />
    </linearGradient>
    <linearGradient
       id="linearGradient19891">
      <stop
         id="stop19892"
         offset="0.0000000"
         style="stop-color:#303030;stop-opacity:1.0000000;" />
      <stop
         id="stop19893"
         offset="1.0000000"
         style="stop-color:#000000;stop-opacity:1.0000000;" />
    </linearGradient>
    <inkscape:perspective
       id="perspective106"
       inkscape:persp3d-origin="354.33069 : 236.22046 : 1"
       inkscape:vp_z="708.66138 : 354.33069 : 1"
       inkscape:vp_y="0 : 1000 : 0"
       inkscape:vp_x="0 : 354.33069 : 1"
       sodipodi:type="inkscape:persp3d" />
    <inkscape:perspective
       id="perspective4269"
       inkscape:persp3d-origin="262.2355 : 130.25334 : 1"
       inkscape:vp_z="524.47101 : 195.38 : 1"
       inkscape:vp_y="0 : 1000 : 0"
       inkscape:vp_x="0 : 195.38 : 1"
       sodipodi:type="inkscape:persp3d" />
    <inkscape:perspective
       id="perspective6419"
       inkscape:persp3d-origin="266.93585 : 161.49948 : 1"
       inkscape:vp_z="533.8717 : 242.24922 : 1"
       inkscape:vp_y="0 : 1000 : 0"
       inkscape:vp_x="0 : 242.24922 : 1"
       sodipodi:type="inkscape:persp3d" />
    <inkscape:perspective
       id="perspective6623"
       inkscape:persp3d-origin="368.09933 : 165.68761 : 1"
       inkscape:vp_z="736.19867 : 248.53142 : 1"
       inkscape:vp_y="0 : 1000 : 0"
       inkscape:vp_x="0 : 248.53142 : 1"
       sodipodi:type="inkscape:persp3d" />
    <inkscape:perspective
       id="perspective9009"
       inkscape:persp3d-origin="233.54762 : 229.71812 : 1"
       inkscape:vp_z="467.09525 : 344.57718 : 1"
       inkscape:vp_y="0 : 1000 : 0"
       inkscape:vp_x="0 : 344.57718 : 1"
       sodipodi:type="inkscape:persp3d" />
    <inkscape:perspective
       id="perspective9201"
       inkscape:persp3d-origin="1996.3621 : 1185.696 : 1"
       inkscape:vp_z="3992.7241 : 1778.5441 : 1"
       inkscape:vp_y="0 : 1000 : 0"
       inkscape:vp_x="0 : 1778.5441 : 1"
       sodipodi:type="inkscape:persp3d" />
    <inkscape:perspective
       id="perspective11269"
       inkscape:persp3d-origin="210.68201 : 111.76433 : 1"
       inkscape:vp_z="421.36401 : 167.6465 : 1"
       inkscape:vp_y="0 : 1000 : 0"
       inkscape:vp_x="0 : 167.6465 : 1"
       sodipodi:type="inkscape:persp3d" />
    <linearGradient
       id="linearGradient2174"
       inkscape:collect="always">
      <stop
         id="stop2176"
         offset="0"
         style="stop-color:#fff8fc;stop-opacity:1;" />
      <stop
         id="stop2178"
         offset="1"
         style="stop-color:#fff8fc;stop-opacity:0;" />
    </linearGradient>
    <linearGradient
       inkscape:collect="always"
       id="linearGradient2061">
      <stop
         style="stop-color:#ff7317;stop-opacity:1;"
         offset="0"
         id="stop2063" />
      <stop
         style="stop-color:#ff7317;stop-opacity:0;"
         offset="1"
         id="stop2065" />
    </linearGradient>
    <radialGradient
       inkscape:collect="always"
       xlink:href="#linearGradient2061"
       id="radialGradient2073"
       gradientUnits="userSpaceOnUse"
       gradientTransform="matrix(1.062184,0,0,0.741329,-115.4977,-131.3148)"
       cx="462.10849"
       cy="463.81677"
       fx="462.10849"
       fy="463.81677"
       r="36.395855" />
    <radialGradient
       inkscape:collect="always"
       xlink:href="#linearGradient2061"
       id="radialGradient2081"
       gradientUnits="userSpaceOnUse"
       gradientTransform="matrix(1.062184,0,0,0.741329,-115.4977,-131.3148)"
       cx="462.10849"
       cy="463.81677"
       fx="462.10849"
       fy="463.81677"
       r="36.395855" />
    <radialGradient
       inkscape:collect="always"
       xlink:href="#linearGradient2061"
       id="radialGradient2089"
       gradientUnits="userSpaceOnUse"
       gradientTransform="matrix(1.062184,0,0,0.741329,-115.4977,-131.3148)"
       cx="462.10849"
       cy="463.81677"
       fx="462.10849"
       fy="463.81677"
       r="36.395855" />
    <radialGradient
       inkscape:collect="always"
       xlink:href="#linearGradient2061"
       id="radialGradient2097"
       gradientUnits="userSpaceOnUse"
       gradientTransform="matrix(1.062184,0,0,0.741329,-115.4977,-131.3148)"
       cx="462.10849"
       cy="463.81677"
       fx="462.10849"
       fy="463.81677"
       r="36.395855" />
    <radialGradient
       inkscape:collect="always"
       xlink:href="#linearGradient2061"
       id="radialGradient2105"
       gradientUnits="userSpaceOnUse"
       gradientTransform="matrix(1.062184,0,0,0.741329,-115.4977,-131.3148)"
       cx="462.10849"
       cy="463.81677"
       fx="462.10849"
       fy="463.81677"
       r="36.395855" />
    <radialGradient
       inkscape:collect="always"
       xlink:href="#linearGradient2061"
       id="radialGradient2113"
       gradientUnits="userSpaceOnUse"
       gradientTransform="matrix(1.062184,0,0,0.741329,-115.4977,-131.3148)"
       cx="462.10849"
       cy="463.81677"
       fx="462.10849"
       fy="463.81677"
       r="36.395855" />
    <radialGradient
       inkscape:collect="always"
       xlink:href="#linearGradient2061"
       id="radialGradient2121"
       gradientUnits="userSpaceOnUse"
       gradientTransform="matrix(1.062184,0,0,0.741329,-115.4977,-131.3148)"
       cx="462.10849"
       cy="463.81677"
       fx="462.10849"
       fy="463.81677"
       r="36.395855" />
    <radialGradient
       inkscape:collect="always"
       xlink:href="#linearGradient2061"
       id="radialGradient2129"
       gradientUnits="userSpaceOnUse"
       gradientTransform="matrix(1.062184,0,0,0.741329,-115.4977,-131.3148)"
       cx="462.10849"
       cy="463.81677"
       fx="462.10849"
       fy="463.81677"
       r="36.395855" />
    <radialGradient
       gradientUnits="userSpaceOnUse"
       r="112.79443"
       fy="349.7952"
       fx="329.40298"
       cy="349.7952"
       cx="329.40298"
       id="radialGradient2180"
       xlink:href="#linearGradient2174"
       inkscape:collect="always" />
    <inkscape:perspective
       id="perspective11983"
       inkscape:persp3d-origin="138.4375 : 92.666667 : 1"
       inkscape:vp_z="276.875 : 139 : 1"
       inkscape:vp_y="0 : 1000 : 0"
       inkscape:vp_x="0 : 139 : 1"
       sodipodi:type="inkscape:persp3d" />
  </defs>
  <sodipodi:namedview
     inkscape:window-height="1058"
     inkscape:window-width="1920"
     inkscape:pageshadow="2"
     inkscape:pageopacity="0.0"
     guidetolerance="10.0"
     gridtolerance="10.0"
     objecttolerance="10.0"
     borderopacity="1.0"
     bordercolor="#666666"
     pagecolor="#ffffff"
     id="base"
     showgrid="false"
     inkscape:zoom="1.6720922"
     inkscape:cx="9.2033493"
     inkscape:cy="178.37045"
     inkscape:window-x="0"
     inkscape:window-y="14"
     inkscape:current-layer="svg2"
     inkscape:window-maximized="0" />
  <path
     d="m 167.16163,13.018676 c -5.29981,-1.205062 -9.63803,-0.723037 -14.21481,1.687087 -5.06126,3.133161 -7.95341,7.953409 -9.15847,14.699296 -1.20506,6.9869 0,13.735246 3.61519,20.481134 l 1.68708,2.407664 -5.78429,-1.928099 c -7.22792,-1.687086 -13.97626,-0.723037 -20.72215,2.892149 -6.9869,3.615185 -11.32512,8.673986 -14.21727,15.663345 -2.65114,6.748347 -2.40767,13.253222 0.96405,19.276072 1.44607,2.651136 3.61518,4.817788 5.54082,6.263863 2.89215,2.892148 6.50734,4.579235 10.8431,5.299813 l 1.68709,0.48202 -3.61519,3.13316 c -3.37417,2.89215 -5.29981,6.50488 -6.50487,10.12007 -1.20506,4.33822 -0.72304,8.67398 1.68708,12.77119 1.20507,1.92564 2.40767,3.61273 4.33577,4.81779 1.9281,1.68709 4.33822,2.89215 7.22791,3.1307 5.30227,1.20507 10.8431,1.20507 16.86595,-0.72549 l -4.33822,7.22791 -1.20507,3.13562 c -2.40766,7.70994 -1.68708,14.45828 1.9281,21.44272 1.68709,2.65114 3.61519,5.06372 5.54329,7.22792 2.89215,2.65113 6.50487,4.33822 10.84309,5.54328 7.22792,1.92564 14.45829,1.68709 21.44519,-1.92564 6.74834,-3.61764 11.08411,-9.39948 13.25322,-16.62985 l 0.24101,-1.44608 c 4.57678,5.06372 8.915,8.43544 13.73525,9.6405 4.81779,1.44607 9.63804,1.20506 13.97626,-1.68709 4.09721,-2.41012 6.9869,-6.50733 8.43297,-11.56613 1.20507,-5.30228 1.20507,-10.60209 0,-16.62494 2.40767,1.68709 4.81779,2.88723 7.70994,3.61273 7.70994,2.41012 14.45583,2.16665 21.20417,-1.44608 6.50734,-3.61272 10.8431,-9.39948 13.01221,-16.86841 1.9281,-7.22791 1.44608,-14.21235 -2.16911,-20.9607 l -1.20506,-1.92809 c -1.9281,-2.892153 -3.85374,-5.784301 -6.74589,-7.709941 -2.40766,-1.687087 -5.29981,-2.892149 -7.95095,-4.097211 7.47139,-3.615185 12.7712,-8.673986 15.18132,-15.18132 1.68709,-5.302273 1.20506,-9.638036 -1.20506,-13.976259 l 0,-0.482025 c -2.88969,-4.820247 -6.74589,-7.953408 -12.76874,-9.638036 -3.61518,-0.723037 -7.71239,-0.723037 -11.32512,-0.482024 l -7.95095,1.687086 2.65114,-6.02285 c 2.41012,-7.709937 1.68708,-15.181321 -2.41013,-22.16822 l -0.72303,-1.205062 c -3.61519,-6.02531 -8.915,-9.638036 -16.14291,-11.5661355 -7.46893,-1.928099 -14.45583,-1.2050619 -21.20418,2.4101235 -6.74589,3.612727 -11.56613,9.156012 -13.73279,16.386383 l 0,0.482025 -0.24101,1.687087 -0.96405,-1.687087 -2.41012,-4.338223 c -3.85866,-6.015472 -8.67891,-9.630658 -14.70176,-11.317745 l 0,0 z M 228.6075,27.47696 c 1.20506,2.407665 1.9281,5.299813 1.9281,8.432974 l -0.72304,5.299813 c -0.96405,2.651136 -2.16911,5.06126 -3.61519,7.227912 l -21.6862,26.508903 c -2.16911,-1.687087 -4.57923,-2.892149 -6.98935,-4.097211 l -2.40767,-27.227021 -0.24101,-9.638036 0.24101,-2.407664 c 1.20506,-4.817788 4.57678,-8.432974 8.915,-10.843098 4.33577,-2.407664 9.15601,-2.892149 13.73279,-1.205062 5.06126,1.202603 8.67645,3.853739 10.84556,7.94849 l 0,0 z m -74.69909,4.820248 c 0.24101,-4.338223 1.9281,-7.227912 4.81779,-8.914999 1.44607,-1.205062 3.61519,-1.205062 5.54083,-0.241012 4.33822,1.205061 7.95094,4.338222 10.84309,10.361073 1.20506,2.410123 2.41013,4.817788 2.89215,7.709936 l 4.81779,28.434543 -3.61519,1.205062 -21.44518,-23.373283 -1.20506,-2.407664 c -1.92318,-4.340682 -3.12824,-8.435434 -2.64622,-12.773656 l 0,0 z m -13.01221,28.19107 6.50734,2.651136 21.20417,15.422333 c -1.9281,2.407665 -3.1307,4.817789 -3.85374,7.227912 l -34.69841,4.338223 -2.41012,-0.482024 c -4.33822,-0.723038 -7.22791,-2.651137 -9.15601,-6.263863 -1.9281,-3.615186 -1.9281,-7.227912 -0.48203,-10.843098 1.68709,-4.579235 4.81779,-8.194421 9.39703,-10.12006 4.33576,-2.412584 8.67153,-3.135621 13.49177,-1.930559 l 0,0 z m 22.89126,39.275181 1.68709,4.820251 0.72303,1.68708 c -3.61518,3.13071 -6.26632,6.02285 -9.15601,8.67399 l -7.23037,6.02531 -1.9281,1.20506 c -4.57923,2.16665 -8.43297,2.89215 -12.53018,2.40767 -3.61519,-0.24102 -6.50734,-1.44608 -7.7124,-3.61273 l -0.72304,-2.65114 0.48203,-2.16665 c 1.20506,-3.61764 4.33822,-7.22791 9.88151,-9.88151 2.88969,-1.20506 5.29981,-2.41012 7.22791,-2.89215 l 19.27853,-3.615181 0,0 z m 75.17865,-39.034168 c 4.33822,-1.928099 8.43298,-2.410124 12.7712,-1.928099 4.09721,0.482024 6.98936,2.407664 8.43297,5.299813 l 0.96405,3.130701 -0.48202,2.410124 c -1.68709,4.338223 -5.30228,7.709937 -11.32513,10.361073 -2.40766,1.205062 -5.0588,1.687087 -7.95095,2.166652 l -29.63714,3.615186 -0.48202,-1.687087 -0.48203,-0.720578 0.96405,-1.205062 24.33733,-20.240121 2.88969,-1.202602 0,0 z m -61.4434,22.891257 c 2.88969,-2.651136 6.74588,-4.335764 11.32512,-4.335764 4.33822,0 8.43297,1.687087 11.08411,4.335764 3.37417,3.374173 4.82025,6.989359 4.82025,11.325123 0,4.335763 -1.44608,8.432969 -4.82025,11.325119 -3.13316,3.13071 -6.74589,4.81779 -11.08411,4.81779 -4.57924,0 -8.43543,-1.68708 -11.32512,-4.81779 -3.13316,-2.89215 -4.81779,-6.989356 -4.81779,-11.325119 0,-4.335764 1.68463,-7.95095 4.81779,-11.325123 l 0,0 z m 5.54082,34.939422 c 0.48203,8.19442 1.20506,16.8684 2.41013,26.26543 l 0,9.64049 -0.24102,2.41013 c -1.68708,4.3333 -4.57923,7.94849 -8.915,9.87658 -4.33576,2.41013 -8.91499,2.89215 -13.25322,1.68709 -4.81779,-1.20014 -8.43297,-4.09229 -10.36107,-7.94849 -1.20506,-2.41012 -2.16911,-5.30227 -2.16911,-8.19442 l 1.20506,-5.53837 c 0.48202,-2.41012 1.68709,-4.8227 3.61519,-6.74834 l 20.24012,-24.09878 c 2.41012,1.2026 4.81779,2.40766 7.46892,2.64868 l 0,0 z m 18.5555,-3.13316 10.12006,10.36107 6.26386,7.70994 1.20506,2.41012 c 2.16912,4.09721 3.37418,7.95341 2.89215,12.53264 -0.48202,4.33823 -1.9281,7.46893 -4.81779,8.67399 -1.68708,1.20506 -3.61518,1.20506 -5.54082,0.96159 -4.57924,-1.20014 -8.19443,-4.81779 -10.8431,-10.60209 l -2.89215,-7.94849 -3.61519,-20.96561 4.09721,-1.44608 3.13071,-1.68708 0,0 z m 10.8431,-14.94031 27.22948,-2.407668 9.63803,-0.241013 2.41013,0.241013 c 3.61518,1.205061 6.98936,3.374168 8.915,6.986898 2.40766,2.65114 3.61272,6.26386 3.61272,10.36108 l -0.72058,4.81778 c -1.20506,4.82271 -4.09721,8.43544 -8.19442,10.36108 -4.33822,2.41012 -8.67398,2.89215 -13.49423,1.20506 -2.89215,-0.72058 -4.81779,-1.92564 -6.50733,-3.85128 l -25.30139,-20.96562 1.68709,-3.61273 0.7255,-2.8946 0,0 z"
     style="fill:#8bc800;fill-opacity:1"
     id="path10"
     inkscape:export-filename="D:\studyworkspace\Asia\res\icq_busy_96.png"
     inkscape:export-xdpi="50.553905"
     inkscape:export-ydpi="50.553905"
     inkscape:connector-curvature="0" />
  <g
     sodipodi:type="inkscape:box3d"
     style="fill:#7f7f7f;fill-opacity:0;fill-rule:nonzero;stroke:#7f7f7f;stroke-width:10;stroke-linejoin:round;stroke-miterlimit:4;stroke-dasharray:none;stroke-opacity:0.82017541"
     id="g2386"
     inkscape:perspectiveID="#perspective23"
     inkscape:corner0="-1.5220729 : -0.070550986 : 0 : 1"
     inkscape:corner7="-2.0461538 : -0.10345079 : 0.25 : 1">
    <path
       sodipodi:type="inkscape:box3dside"
       id="path2392"
       style="fill:#8686bf;fill-rule:evenodd;stroke:none;stroke-width:1px;stroke-linecap:butt;stroke-linejoin:round;stroke-opacity:1"
       inkscape:box3dsidetype="3"
       d="M -440.64875,-100.29289 L -219.90148,-1.767518 L -219.90148,-33.215861 L -440.64875,-163.31053 L -440.64875,-100.29289 z" />
    <path
       sodipodi:type="inkscape:box3dside"
       id="path2388"
       style="fill:#353564;fill-rule:evenodd;stroke:none;stroke-width:1px;stroke-linecap:butt;stroke-linejoin:round;stroke-opacity:1"
       inkscape:box3dsidetype="6"
       d="M -440.64875,-100.29289 L -440.64875,-163.31053 L -1268.3224,-401.93306 L -1268.3224,-281.0103 L -440.64875,-100.29289 z" />
    <path
       sodipodi:type="inkscape:box3dside"
       id="path2390"
       style="fill:#4d4d9f;fill-rule:evenodd;stroke:none;stroke-width:1px;stroke-linecap:butt;stroke-linejoin:round;stroke-opacity:1"
       inkscape:box3dsidetype="5"
       d="M -440.64875,-100.29289 L -219.90148,-1.767518 L -433.42901,-32.5869 L -1268.3224,-281.0103 L -440.64875,-100.29289 z" />
    <path
       sodipodi:type="inkscape:box3dside"
       id="path2398"
       style="fill:#e9e9ff;fill-rule:evenodd;stroke:none;stroke-width:1px;stroke-linecap:butt;stroke-linejoin:round;stroke-opacity:1"
       inkscape:box3dsidetype="11"
       d="M -1268.3224,-281.0103 L -433.42901,-32.5869 L -433.42901,-73.910328 L -1268.3224,-401.93306 L -1268.3224,-281.0103 z" />
    <path
       sodipodi:type="inkscape:box3dside"
       id="path2396"
       style="fill:#afafde;fill-rule:evenodd;stroke:none;stroke-width:1px;stroke-linecap:butt;stroke-linejoin:round;stroke-opacity:1"
       inkscape:box3dsidetype="13"
       d="M -440.64875,-163.31053 L -219.90148,-33.215861 L -433.42901,-73.910328 L -1268.3224,-401.93306 L -440.64875,-163.31053 z" />
    <path
       sodipodi:type="inkscape:box3dside"
       id="path2394"
       style="fill:#d7d7ff;fill-rule:evenodd;stroke:none;stroke-width:1px;stroke-linecap:butt;stroke-linejoin:round;stroke-opacity:1"
       inkscape:box3dsidetype="14"
       d="M -219.90148,-1.767518 L -219.90148,-33.215861 L -433.42901,-73.910328 L -433.42901,-32.5869 L -219.90148,-1.767518 z" />
  </g>
  <g
     sodipodi:type="inkscape:box3d"
     style="fill:#7f7f7f;fill-opacity:0;fill-rule:nonzero;stroke:#7f7f7f;stroke-width:10;stroke-linejoin:round;stroke-miterlimit:4;stroke-dasharray:none;stroke-opacity:0.82017541"
     id="g2400"
     inkscape:perspectiveID="#perspective23"
     inkscape:corner0="-2.0923697 : -0.036490809 : 0 : 1"
     inkscape:corner7="-1.7176781 : -0.33008304 : 0.25 : 1">
    <path
       sodipodi:type="inkscape:box3dside"
       id="path2406"
       style="fill:#8686bf;fill-rule:evenodd;stroke:none;stroke-width:1px;stroke-linecap:butt;stroke-linejoin:round;stroke-opacity:1"
       inkscape:box3dsidetype="3"
       d="M -210.5979,33.564997 L -320.54868,0.76981105 L -320.54868,-408.31642 L -210.5979,-235.20137 L -210.5979,33.564997 z" />
    <path
       sodipodi:type="inkscape:box3dside"
       id="path2408"
       style="fill:#d7d7ff;fill-rule:evenodd;stroke:none;stroke-width:1px;stroke-linecap:butt;stroke-linejoin:round;stroke-opacity:1"
       inkscape:box3dsidetype="14"
       d="M -320.54868,0.76981105 L -320.54868,-408.31642 L -737.84971,-678.10497 L -737.84971,-50.339352 L -320.54868,0.76981105 z" />
    <path
       sodipodi:type="inkscape:box3dside"
       id="path2404"
       style="fill:#4d4d9f;fill-rule:evenodd;stroke:none;stroke-width:1px;stroke-linecap:butt;stroke-linejoin:round;stroke-opacity:1"
       inkscape:box3dsidetype="5"
       d="M -210.5979,33.564997 L -320.54868,0.76981105 L -737.84971,-50.339352 L -409.64929,14.922542 L -210.5979,33.564997 z" />
    <path
       sodipodi:type="inkscape:box3dside"
       id="path2412"
       style="fill:#e9e9ff;fill-rule:evenodd;stroke:none;stroke-width:1px;stroke-linecap:butt;stroke-linejoin:round;stroke-opacity:1"
       inkscape:box3dsidetype="11"
       d="M -409.64929,14.922542 L -737.84971,-50.339352 L -737.84971,-678.10497 L -409.64929,-333.60879 L -409.64929,14.922542 z" />
    <path
       sodipodi:type="inkscape:box3dside"
       id="path2410"
       style="fill:#afafde;fill-rule:evenodd;stroke:none;stroke-width:1px;stroke-linecap:butt;stroke-linejoin:round;stroke-opacity:1"
       inkscape:box3dsidetype="13"
       d="M -210.5979,-235.20137 L -320.54868,-408.31642 L -737.84971,-678.10497 L -409.64929,-333.60879 L -210.5979,-235.20137 z" />
    <path
       sodipodi:type="inkscape:box3dside"
       id="path2402"
       style="fill:#353564;fill-rule:evenodd;stroke:none;stroke-width:1px;stroke-linecap:butt;stroke-linejoin:round;stroke-opacity:1"
       inkscape:box3dsidetype="6"
       d="M -210.5979,33.564997 L -210.5979,-235.20137 L -409.64929,-333.60879 L -409.64929,14.922542 L -210.5979,33.564997 z" />
  </g>
  <g
     sodipodi:type="inkscape:box3d"
     style="fill:#7f7f7f;fill-opacity:0;fill-rule:nonzero;stroke:#7f7f7f;stroke-width:10;stroke-linejoin:round;stroke-miterlimit:4;stroke-dasharray:none;stroke-opacity:0.82017541"
     id="g2414"
     inkscape:perspectiveID="#perspective23"
     inkscape:corner0="-1.7838617 : 0.11298592 : 0 : 1"
     inkscape:corner7="-1.996337 : 0.084471685 : 0.25 : 1">
    <path
       sodipodi:type="inkscape:box3dside"
       id="path2424"
       style="fill:#afafde;fill-rule:evenodd;stroke:none;stroke-width:1px;stroke-linecap:butt;stroke-linejoin:round;stroke-opacity:1"
       inkscape:box3dsidetype="13"
       d="M -293.48388,163.15859 L -230.89654,148.9177 L -462.3597,166.5161 L -646.37743,194.42991 L -293.48388,163.15859 z" />
    <path
       sodipodi:type="inkscape:box3dside"
       id="path2420"
       style="fill:#8686bf;fill-rule:evenodd;stroke:none;stroke-width:1px;stroke-linecap:butt;stroke-linejoin:round;stroke-opacity:1"
       inkscape:box3dsidetype="3"
       d="M -293.48388,199.5352 L -230.89654,177.53677 L -230.89654,148.9177 L -293.48388,163.15859 L -293.48388,199.5352 z" />
    <path
       sodipodi:type="inkscape:box3dside"
       id="path2416"
       style="fill:#353564;fill-rule:evenodd;stroke:none;stroke-width:1px;stroke-linecap:butt;stroke-linejoin:round;stroke-opacity:1"
       inkscape:box3dsidetype="6"
       d="M -293.48388,199.5352 L -293.48388,163.15859 L -646.37743,194.42991 L -646.37743,247.84118 L -293.48388,199.5352 z" />
    <path
       sodipodi:type="inkscape:box3dside"
       id="path2418"
       style="fill:#4d4d9f;fill-rule:evenodd;stroke:none;stroke-width:1px;stroke-linecap:butt;stroke-linejoin:round;stroke-opacity:1"
       inkscape:box3dsidetype="5"
       d="M -293.48388,199.5352 L -230.89654,177.53677 L -462.3597,204.72167 L -646.37743,247.84118 L -293.48388,199.5352 z" />
    <path
       sodipodi:type="inkscape:box3dside"
       id="path2426"
       style="fill:#e9e9ff;fill-rule:evenodd;stroke:none;stroke-width:1px;stroke-linecap:butt;stroke-linejoin:round;stroke-opacity:1"
       inkscape:box3dsidetype="11"
       d="M -646.37743,247.84118 L -462.3597,204.72167 L -462.3597,166.5161 L -646.37743,194.42991 L -646.37743,247.84118 z" />
    <path
       sodipodi:type="inkscape:box3dside"
       id="path2422"
       style="fill:#d7d7ff;fill-rule:evenodd;stroke:none;stroke-width:1px;stroke-linecap:butt;stroke-linejoin:round;stroke-opacity:1"
       inkscape:box3dsidetype="14"
       d="M -230.89654,177.53677 L -230.89654,148.9177 L -462.3597,166.5161 L -462.3597,204.72167 L -230.89654,177.53677 z" />
  </g>
  <g
     sodipodi:type="inkscape:box3d"
     style="fill:#7f7f7f;fill-opacity:0;fill-rule:nonzero;stroke:#7f7f7f;stroke-width:10;stroke-linejoin:round;stroke-miterlimit:4;stroke-dasharray:none;stroke-opacity:0.82017541"
     id="g2428"
     inkscape:perspectiveID="#perspective23"
     inkscape:corner0="-1.5938865 : 0.052702647 : 0 : 1"
     inkscape:corner7="-1.6766169 : 0.0346157 : 0.25 : 1">
    <path
       sodipodi:type="inkscape:box3dside"
       id="path2438"
       style="fill:#afafde;fill-rule:evenodd;stroke:none;stroke-width:1px;stroke-linecap:butt;stroke-linejoin:round;stroke-opacity:1"
       inkscape:box3dsidetype="13"
       d="M -387.36488,100.57125 L -340.00151,100.05883 L -808.86658,102.21443 L -1003.4594,103.61796 L -387.36488,100.57125 z" />
    <path
       sodipodi:type="inkscape:box3dside"
       id="path2434"
       style="fill:#8686bf;fill-rule:evenodd;stroke:none;stroke-width:1px;stroke-linecap:butt;stroke-linejoin:round;stroke-opacity:1"
       inkscape:box3dsidetype="3"
       d="M -387.36488,131.02647 L -340.00151,126.79027 L -340.00151,100.05883 L -387.36488,100.57125 L -387.36488,131.02647 z" />
    <path
       sodipodi:type="inkscape:box3dside"
       id="path2430"
       style="fill:#353564;fill-rule:evenodd;stroke:none;stroke-width:1px;stroke-linecap:butt;stroke-linejoin:round;stroke-opacity:1"
       inkscape:box3dsidetype="6"
       d="M -387.36488,131.02647 L -387.36488,100.57125 L -1003.4594,103.61796 L -1003.4594,156.21365 L -387.36488,131.02647 z" />
    <path
       sodipodi:type="inkscape:box3dside"
       id="path2432"
       style="fill:#4d4d9f;fill-rule:evenodd;stroke:none;stroke-width:1px;stroke-linecap:butt;stroke-linejoin:round;stroke-opacity:1"
       inkscape:box3dsidetype="5"
       d="M -387.36488,131.02647 L -340.00151,126.79027 L -808.86658,144.61066 L -1003.4594,156.21365 L -387.36488,131.02647 z" />
    <path
       sodipodi:type="inkscape:box3dside"
       id="path2440"
       style="fill:#e9e9ff;fill-rule:evenodd;stroke:none;stroke-width:1px;stroke-linecap:butt;stroke-linejoin:round;stroke-opacity:1"
       inkscape:box3dsidetype="11"
       d="M -1003.4594,156.21365 L -808.86658,144.61066 L -808.86658,102.21443 L -1003.4594,103.61796 L -1003.4594,156.21365 z" />
    <path
       sodipodi:type="inkscape:box3dside"
       id="path2436"
       style="fill:#d7d7ff;fill-rule:evenodd;stroke:none;stroke-width:1px;stroke-linecap:butt;stroke-linejoin:round;stroke-opacity:1"
       inkscape:box3dsidetype="14"
       d="M -340.00151,126.79027 L -340.00151,100.05883 L -808.86658,102.21443 L -808.86658,144.61066 L -340.00151,126.79027 z" />
  </g>
  <g
     sodipodi:type="inkscape:box3d"
     style="fill:#7f7f7f;fill-opacity:0;fill-rule:nonzero;stroke:#7f7f7f;stroke-width:10;stroke-linejoin:round;stroke-miterlimit:4;stroke-dasharray:none;stroke-opacity:0.82017541"
     id="g2442"
     inkscape:perspectiveID="#perspective23"
     inkscape:corner0="-0.077966108 : 0.049318136 : 0 : 1"
     inkscape:corner7="-0.32169576 : 0.013794382 : 0.25 : 1">
    <path
       sodipodi:type="inkscape:box3dside"
       id="path2452"
       style="fill:#afafde;fill-rule:evenodd;stroke:none;stroke-width:1px;stroke-linecap:butt;stroke-linejoin:round;stroke-opacity:1"
       inkscape:box3dsidetype="13"
       d="M 249.50359,116.26293 L 339.15573,123.40717 L 371.72743,116.12863 L 294.42506,112.02189 L 249.50359,116.26293 z" />
    <path
       sodipodi:type="inkscape:box3dside"
       id="path2444"
       style="fill:#353564;fill-rule:evenodd;stroke:none;stroke-width:1px;stroke-linecap:butt;stroke-linejoin:round;stroke-opacity:1"
       inkscape:box3dsidetype="6"
       d="M 249.50359,77.735324 L 249.50359,116.26293 L 294.42506,112.02189 L 294.42506,81.712392 L 249.50359,77.735324 z" />
    <path
       sodipodi:type="inkscape:box3dside"
       id="path2454"
       style="fill:#e9e9ff;fill-rule:evenodd;stroke:none;stroke-width:1px;stroke-linecap:butt;stroke-linejoin:round;stroke-opacity:1"
       inkscape:box3dsidetype="11"
       d="M 294.42506,81.712392 L 371.72743,77.861264 L 371.72743,116.12863 L 294.42506,112.02189 L 294.42506,81.712392 z" />
    <path
       sodipodi:type="inkscape:box3dside"
       id="path2446"
       style="fill:#4d4d9f;fill-rule:evenodd;stroke:none;stroke-width:1px;stroke-linecap:butt;stroke-linejoin:round;stroke-opacity:1"
       inkscape:box3dsidetype="5"
       d="M 249.50359,77.735324 L 339.15573,71.035754 L 371.72743,77.861264 L 294.42506,81.712392 L 249.50359,77.735324 z" />
    <path
       sodipodi:type="inkscape:box3dside"
       id="path2450"
       style="fill:#d7d7ff;fill-rule:evenodd;stroke:none;stroke-width:1px;stroke-linecap:butt;stroke-linejoin:round;stroke-opacity:1"
       inkscape:box3dsidetype="14"
       d="M 339.15573,71.035754 L 339.15573,123.40717 L 371.72743,116.12863 L 371.72743,77.861264 L 339.15573,71.035754 z" />
    <path
       sodipodi:type="inkscape:box3dside"
       id="path2448"
       style="fill:#8686bf;fill-rule:evenodd;stroke:none;stroke-width:1px;stroke-linecap:butt;stroke-linejoin:round;stroke-opacity:1"
       inkscape:box3dsidetype="3"
       d="M 249.50359,77.735324 L 339.15573,71.035754 L 339.15573,123.40717 L 249.50359,116.26293 L 249.50359,77.735324 z" />
  </g>
  <g
     sodipodi:type="inkscape:box3d"
     style="fill:#7f7f7f;fill-opacity:0;fill-rule:nonzero;stroke:#7f7f7f;stroke-width:10;stroke-linejoin:round;stroke-miterlimit:4;stroke-dasharray:none;stroke-opacity:0.82017541"
     id="g2456"
     inkscape:perspectiveID="#perspective23"
     inkscape:corner0="0.32038835 : -0.15523879 : 0 : 1"
     inkscape:corner7="-0.17325228 : -0.18782308 : 0.25 : 1">
    <path
       sodipodi:type="inkscape:box3dside"
       id="path2466"
       style="fill:#afafde;fill-rule:evenodd;stroke:none;stroke-width:1px;stroke-linecap:butt;stroke-linejoin:round;stroke-opacity:1"
       inkscape:box3dsidetype="13"
       d="M 174.22963,262.96003 L 278.25994,362.42266 L 320.48004,300.65278 L 219.73937,236.44117 L 174.22963,262.96003 z" />
    <path
       sodipodi:type="inkscape:box3dside"
       id="path2458"
       style="fill:#353564;fill-rule:evenodd;stroke:none;stroke-width:1px;stroke-linecap:butt;stroke-linejoin:round;stroke-opacity:1"
       inkscape:box3dsidetype="6"
       d="M 174.22963,238.28222 L 174.22963,262.96003 L 219.73937,236.44117 L 219.73937,215.69197 L 174.22963,238.28222 z" />
    <path
       sodipodi:type="inkscape:box3dside"
       id="path2468"
       style="fill:#e9e9ff;fill-rule:evenodd;stroke:none;stroke-width:1px;stroke-linecap:butt;stroke-linejoin:round;stroke-opacity:1"
       inkscape:box3dsidetype="11"
       d="M 219.73937,215.69197 L 320.48004,270.39101 L 320.48004,300.65278 L 219.73937,236.44117 L 219.73937,215.69197 z" />
    <path
       sodipodi:type="inkscape:box3dside"
       id="path2460"
       style="fill:#4d4d9f;fill-rule:evenodd;stroke:none;stroke-width:1px;stroke-linecap:butt;stroke-linejoin:round;stroke-opacity:1"
       inkscape:box3dsidetype="5"
       d="M 174.22963,238.28222 L 278.25994,323.01004 L 320.48004,270.39101 L 219.73937,215.69197 L 174.22963,238.28222 z" />
    <path
       sodipodi:type="inkscape:box3dside"
       id="path2464"
       style="fill:#d7d7ff;fill-rule:evenodd;stroke:none;stroke-width:1px;stroke-linecap:butt;stroke-linejoin:round;stroke-opacity:1"
       inkscape:box3dsidetype="14"
       d="M 278.25994,323.01004 L 278.25994,362.42266 L 320.48004,300.65278 L 320.48004,270.39101 L 278.25994,323.01004 z" />
    <path
       sodipodi:type="inkscape:box3dside"
       id="path2462"
       style="fill:#8686bf;fill-rule:evenodd;stroke:none;stroke-width:1px;stroke-linecap:butt;stroke-linejoin:round;stroke-opacity:1"
       inkscape:box3dsidetype="3"
       d="M 174.22963,238.28222 L 278.25994,323.01004 L 278.25994,362.42266 L 174.22963,262.96003 L 174.22963,238.28222 z" />
  </g>
  <path
     sodipodi:type="arc"
     style="opacity:1;fill:#ffffff;fill-opacity:0.8888889;fill-rule:evenodd;stroke:none;stroke-width:10;stroke-linecap:round;stroke-miterlimit:4;stroke-opacity:1;stroke-dasharray:none"
     id="path3918"
     sodipodi:cx="197.91133"
     sodipodi:cy="110.29766"
     sodipodi:rx="66.816216"
     sodipodi:ry="65.547554"
     d="m 264.72755,110.29766 a 66.816216,65.547554 0 1 1 -133.63243,0 66.816216,65.547554 0 1 1 133.63243,0 z"
     transform="translate(-6.7661991,-14.378173)"
     inkscape:export-filename="D:\studyworkspace\Asia\res\icq_busy_96.png"
     inkscape:export-xdpi="50.553905"
     inkscape:export-ydpi="50.553905" />
  <path
     style="fill:#0000ff;fill-opacity:0.88888891;stroke:none"
     d="m 181.88913,102.82668 -24.21922,-44.740739 -7.7343,4.296107 6.23213,-27.498186 26.15525,9.508244 -6.28412,3.490583 24.21922,44.740748 z"
     id="path3922"
     inkscape:connector-curvature="0"
     sodipodi:nodetypes="cccccccc"
     inkscape:export-filename="D:\studyworkspace\Asia\res\icq_busy_96.png"
     inkscape:export-xdpi="50.553905"
     inkscape:export-ydpi="50.553905" />
  <path
     style="fill:#0000ff;fill-opacity:0.88888891;stroke:none"
     d="m 185.12767,82.426106 50.26684,7.845211 1.26922,-8.755861 18.09809,21.620574 -23.41291,15.04458 1.03123,-7.11414 -50.26685,-7.8452 z"
     id="path3922-9"
     inkscape:connector-curvature="0"
     sodipodi:nodetypes="cccccccc"
     inkscape:export-filename="D:\studyworkspace\Asia\res\icq_busy_96.png"
     inkscape:export-xdpi="50.553905"
     inkscape:export-ydpi="50.553905" />
</svg>
