<?xml version="1.0" encoding="UTF-8" standalone="no"?>
<!-- Created with Inkscape (http://www.inkscape.org/) -->

<svg
   xmlns:dc="http://purl.org/dc/elements/1.1/"
   xmlns:cc="http://creativecommons.org/ns#"
   xmlns:rdf="http://www.w3.org/1999/02/22-rdf-syntax-ns#"
   xmlns:svg="http://www.w3.org/2000/svg"
   xmlns="http://www.w3.org/2000/svg"
   xmlns:xlink="http://www.w3.org/1999/xlink"
   xmlns:sodipodi="http://sodipodi.sourceforge.net/DTD/sodipodi-0.dtd"
   xmlns:inkscape="http://www.inkscape.org/namespaces/inkscape"
   version="1.0"
   width="389.76376"
   height="248.03149"
   id="svg2"
   sodipodi:version="0.32"
   inkscape:version="0.48.1 "
   sodipodi:docname="jeronimo_audio-cassette_bumpy_rmx.svg"
   inkscape:output_extension="org.inkscape.output.svg.inkscape">
  <metadata
     id="metadata40322">
    <rdf:RDF>
      <cc:Work
         rdf:about="">
        <dc:format>image/svg+xml</dc:format>
        <dc:type
           rdf:resource="http://purl.org/dc/dcmitype/StillImage" />
        <dc:title></dc:title>
      </cc:Work>
    </rdf:RDF>
  </metadata>
  <sodipodi:namedview
     inkscape:window-height="1018"
     inkscape:window-width="1920"
     inkscape:pageshadow="2"
     inkscape:pageopacity="0.0"
     guidetolerance="10.0"
     gridtolerance="10.0"
     objecttolerance="10.0"
     borderopacity="1.0"
     bordercolor="#666666"
     pagecolor="#ffffff"
     id="base"
     showgrid="false"
     inkscape:zoom="1.2619365"
     inkscape:cx="194.88188"
     inkscape:cy="124.01575"
     inkscape:window-x="-8"
     inkscape:window-y="-8"
     inkscape:window-maximized="1"
     inkscape:current-layer="svg2" />
  <defs
     id="defs4">
    <pattern
       inkscape:collect="always"
       xlink:href="#pattern42266"
       id="pattern40327"
       patternTransform="translate(204.31383,-41.288085)" />
    <inkscape:perspective
       sodipodi:type="inkscape:persp3d"
       inkscape:vp_x="0 : 124.01575 : 1"
       inkscape:vp_y="0 : 1000 : 0"
       inkscape:vp_z="389.76376 : 124.01575 : 1"
       inkscape:persp3d-origin="194.88188 : 82.677165 : 1"
       id="perspective40324" />
    <pattern
       patternTransform="translate(429.7966,46.15748)"
       id="pattern2291"
       xlink:href="#pattern39582" />
    <pattern
       patternTransform="translate(396.3298,3.13352)"
       id="pattern42266"
       xlink:href="#pattern39582" />
    <linearGradient
       id="linearGradient25231">
      <stop
         style="stop-color:black;stop-opacity:0.78438663"
         offset="0"
         id="stop25233" />
      <stop
         style="stop-color:#4b4b4b;stop-opacity:0.78066915"
         offset="1"
         id="stop25235" />
    </linearGradient>
    <linearGradient
       id="linearGradient8133">
      <stop
         style="stop-color:black;stop-opacity:0.5"
         offset="0"
         id="stop8135" />
      <stop
         style="stop-color:white;stop-opacity:0.5"
         offset="1"
         id="stop8137" />
    </linearGradient>
    <pattern
       id="pattern39582"
       patternTransform="translate(392.5984,70.15748)"
       height="8.5039368"
       width="12.047244"
       patternUnits="userSpaceOnUse">
      <g
         transform="translate(-392.5984,-70.15748)"
         id="g39574">
        <rect
           id="rect36809"
           y="70.157478"
           x="392.59842"
           height="8.5039368"
           width="12.047244"
           style="fill:none;stroke:none" />
        <g
           id="g38679">
          <rect
             style="opacity:1;fill:#6a7f4c;fill-opacity:1;stroke:none;stroke-width:1.41732287;stroke-linecap:round;stroke-linejoin:round;stroke-miterlimit:4;stroke-dasharray:none;stroke-dashoffset:0;stroke-opacity:1"
             id="rect38681"
             width="12.047244"
             height="8.5039368"
             x="392.59842"
             y="70.157478" />
          <rect
             style="opacity:1;fill:#8da370;fill-opacity:1;stroke:none;stroke-width:1.41732287;stroke-linecap:round;stroke-linejoin:round;stroke-miterlimit:4;stroke-dasharray:none;stroke-dashoffset:0;stroke-opacity:1"
             id="rect38683"
             width="10.629911"
             height="7.0866113"
             x="393.3071"
             y="70.866142"
             rx="0"
             ry="0" />
          <path
             style="opacity:1;fill:white;fill-opacity:0.70588235;stroke:none;stroke-width:1.41732287;stroke-linecap:round;stroke-linejoin:round;stroke-miterlimit:4;stroke-dasharray:none;stroke-dashoffset:0;stroke-opacity:1"
             d="M 393.30709,70.866144 L 393.30709,77.959894 L 394.02584,77.241144 L 394.02584,71.584894 L 403.20943,71.584894 L 403.93209,70.866144 L 393.30709,70.866144 z "
             id="path38685"
             sodipodi:nodetypes="ccccccc" />
          <path
             style="opacity:1;fill:black;fill-opacity:0.50196078;stroke:none;stroke-width:1.41732287;stroke-linecap:round;stroke-linejoin:round;stroke-miterlimit:4;stroke-dasharray:none;stroke-dashoffset:0;stroke-opacity:1"
             d="M 403.93698,77.952754 L 403.93698,70.859004 L 403.21823,71.577754 L 403.21823,77.234004 L 394.03464,77.234004 L 393.31198,77.952754 L 403.93698,77.952754 z "
             id="path38687"
             sodipodi:nodetypes="ccccccc" />
        </g>
      </g>
    </pattern>
    <linearGradient
       x1="37.05357"
       y1="257.66522"
       x2="41.674637"
       y2="266.23666"
       id="linearGradient44543"
       xlink:href="#linearGradient8133"
       gradientUnits="userSpaceOnUse"
       gradientTransform="translate(134.6457,-74.40945)" />
    <linearGradient
       x1="98.742409"
       y1="184.21709"
       x2="117.11788"
       y2="203.98816"
       id="linearGradient44545"
       xlink:href="#linearGradient8133"
       gradientUnits="userSpaceOnUse" />
    <linearGradient
       x1="83.996719"
       y1="169.27585"
       x2="116.41466"
       y2="201.26338"
       id="linearGradient44547"
       xlink:href="#linearGradient8133"
       gradientUnits="userSpaceOnUse" />
    <linearGradient
       x1="98.742409"
       y1="184.21709"
       x2="117.11788"
       y2="203.98816"
       id="linearGradient44551"
       xlink:href="#linearGradient8133"
       gradientUnits="userSpaceOnUse" />
    <linearGradient
       x1="83.996719"
       y1="169.27585"
       x2="116.41466"
       y2="201.26338"
       id="linearGradient44553"
       xlink:href="#linearGradient8133"
       gradientUnits="userSpaceOnUse" />
    <linearGradient
       x1="10.543467"
       y1="273.2999"
       x2="15.499528"
       y2="277.84558"
       id="linearGradient44555"
       xlink:href="#linearGradient25231"
       gradientUnits="userSpaceOnUse" />
    <linearGradient
       x1="18.541616"
       y1="282.15988"
       x2="15.499528"
       y2="277.84558"
       id="linearGradient44557"
       xlink:href="#linearGradient8133"
       gradientUnits="userSpaceOnUse" />
    <linearGradient
       x1="18.541616"
       y1="282.15988"
       x2="15.499528"
       y2="277.84558"
       id="linearGradient44559"
       xlink:href="#linearGradient8133"
       gradientUnits="userSpaceOnUse" />
    <linearGradient
       x1="18.541616"
       y1="282.15988"
       x2="15.499528"
       y2="277.84558"
       id="linearGradient44561"
       xlink:href="#linearGradient8133"
       gradientUnits="userSpaceOnUse" />
    <linearGradient
       x1="18.541616"
       y1="282.15988"
       x2="15.499528"
       y2="277.84558"
       id="linearGradient44563"
       xlink:href="#linearGradient8133"
       gradientUnits="userSpaceOnUse" />
    <linearGradient
       x1="106.39202"
       y1="80.025307"
       x2="102.25252"
       y2="74.668167"
       id="linearGradient2280"
       xlink:href="#linearGradient8133"
       gradientUnits="userSpaceOnUse"
       gradientTransform="translate(37.1982,-24)" />
    <linearGradient
       inkscape:collect="always"
       xlink:href="#linearGradient8133"
       id="linearGradient40441"
       gradientUnits="userSpaceOnUse"
       gradientTransform="translate(134.6457,-74.40945)"
       x1="37.05357"
       y1="257.66522"
       x2="41.674637"
       y2="266.23666" />
    <linearGradient
       inkscape:collect="always"
       xlink:href="#linearGradient8133"
       id="linearGradient40443"
       gradientUnits="userSpaceOnUse"
       x1="98.742409"
       y1="184.21709"
       x2="117.11788"
       y2="203.98816" />
    <linearGradient
       inkscape:collect="always"
       xlink:href="#linearGradient8133"
       id="linearGradient40445"
       gradientUnits="userSpaceOnUse"
       x1="83.996719"
       y1="169.27585"
       x2="116.41466"
       y2="201.26338" />
    <linearGradient
       inkscape:collect="always"
       xlink:href="#linearGradient8133"
       id="linearGradient40447"
       gradientUnits="userSpaceOnUse"
       gradientTransform="translate(37.1982,-24)"
       x1="106.39202"
       y1="80.025307"
       x2="102.25252"
       y2="74.668167" />
    <linearGradient
       inkscape:collect="always"
       xlink:href="#linearGradient8133"
       id="linearGradient40449"
       gradientUnits="userSpaceOnUse"
       x1="98.742409"
       y1="184.21709"
       x2="117.11788"
       y2="203.98816" />
    <linearGradient
       inkscape:collect="always"
       xlink:href="#linearGradient8133"
       id="linearGradient40451"
       gradientUnits="userSpaceOnUse"
       x1="83.996719"
       y1="169.27585"
       x2="116.41466"
       y2="201.26338" />
    <linearGradient
       inkscape:collect="always"
       xlink:href="#linearGradient25231"
       id="linearGradient40453"
       gradientUnits="userSpaceOnUse"
       x1="10.543467"
       y1="273.2999"
       x2="15.499528"
       y2="277.84558" />
    <linearGradient
       inkscape:collect="always"
       xlink:href="#linearGradient8133"
       id="linearGradient40455"
       gradientUnits="userSpaceOnUse"
       x1="18.541616"
       y1="282.15988"
       x2="15.499528"
       y2="277.84558" />
    <linearGradient
       inkscape:collect="always"
       xlink:href="#linearGradient8133"
       id="linearGradient40457"
       gradientUnits="userSpaceOnUse"
       x1="18.541616"
       y1="282.15988"
       x2="15.499528"
       y2="277.84558" />
    <linearGradient
       inkscape:collect="always"
       xlink:href="#linearGradient8133"
       id="linearGradient40459"
       gradientUnits="userSpaceOnUse"
       x1="18.541616"
       y1="282.15988"
       x2="15.499528"
       y2="277.84558" />
    <linearGradient
       inkscape:collect="always"
       xlink:href="#linearGradient8133"
       id="linearGradient40461"
       gradientUnits="userSpaceOnUse"
       x1="18.541616"
       y1="282.15988"
       x2="15.499528"
       y2="277.84558" />
  </defs>
  <g
     id="g2297"
     transform="translate(-20.025986,-27.916916)"
     inkscape:export-filename="D:\studyworkspace\Asia\res\drawable-hdpi\xstatus_music_32.png"
     inkscape:export-xdpi="19.353212"
     inkscape:export-ydpi="19.353212">
    <path
       id="path2257"
       style="fill:#000000;fill-opacity:1;stroke:none"
       d="m 136.41695,78.75 c -44.985827,0 -81.5,36.51417 -81.5,81.5 0,44.98583 36.514173,81.5 81.5,81.5 44.98583,0 81.5,-36.51417 81.5,-81.5 0,-44.98583 -36.51417,-81.5 -81.5,-81.5 z m 0,56.96875 c 13.54112,0 24.53125,10.99013 24.53125,24.53125 0,13.54112 -10.99013,24.53125 -24.53125,24.53125 -13.54112,0 -24.53125,-10.99013 -24.53125,-24.53125 0,-13.54112 10.99013,-24.53125 24.53125,-24.53125 z"
       inkscape:connector-curvature="0" />
    <path
       id="path5818"
       style="fill:#060000;fill-opacity:1;stroke:none"
       d="m 288.77275,114.18972 c -25.42677,0 -46.06249,20.63572 -46.0625,46.0625 0,25.42677 20.63574,46.0625 46.0625,46.0625 25.42677,0 46.06249,-20.63573 46.0625,-46.0625 0,-25.42677 -20.63571,-46.0625 -46.0625,-46.0625 z m 0,23.03125 c 12.71311,0 23.03125,10.31813 23.03125,23.03125 -10e-6,12.71312 -10.31814,23.03125 -23.03125,23.03125 -12.71311,0 -23.03125,-10.31813 -23.03125,-23.03125 1e-5,-12.71311 10.31814,-23.03125 23.03125,-23.03125 z"
       inkscape:connector-curvature="0" />
    <path
       id="rect18032"
       style="fill:#6a7f4c;fill-opacity:1;stroke:none"
       d="m 47.8232,36.25 c -5.888976,0 -10.625,4.736024 -10.625,10.625 l 0,7.0625 c -1.962992,0 -3.53125,1.599511 -3.53125,3.5625 l 0,38.96875 c 0,1.96299 1.568258,3.5625 3.53125,3.5625 l 0,148.8125 c 0,5.88898 4.736024,10.625 10.625,10.625 l 329.53125,0 c 5.88898,0 10.625,-4.73603 10.625,-10.625 l 0,-148.8125 c 1.96299,0 3.56251,-1.59951 3.5625,-3.5625 l 0,-38.96875 c 0,-1.962992 -1.59951,-3.5625 -3.5625,-3.5625 l 0,-7.0625 c 0,-5.888976 -4.73603,-10.625 -10.625,-10.625 l -329.53125,0 z m 77.96875,2.65625 c 4.40079,-10e-7 7.96875,3.567963 7.96875,7.96875 0,4.400785 -3.56796,7.96875 -7.96875,7.96875 -4.40079,3e-6 -7.96875,-3.567963 -7.96875,-7.96875 0,-4.40079 3.56796,-7.96875 7.96875,-7.96875 z m 173.625,0 c 4.40077,-10e-7 7.96875,3.567963 7.96875,7.96875 -10e-6,4.400785 -3.56796,7.96875 -7.96875,7.96875 -4.4008,3e-6 -8,-3.567963 -8,-7.96875 0,-4.40079 3.59921,-7.96875 8,-7.96875 z M 159.4482,46.875 l 5.3125,0 c 1.96299,0 3.53125,1.568258 3.53125,3.53125 l 0,5.3125 c -1e-5,1.962991 -1.56826,3.5625 -3.53125,3.5625 l -5.3125,0 c -1.96299,2e-6 -3.5625,-1.599508 -3.5625,-3.5625 l 0,-5.3125 c 0,-1.962989 1.59951,-3.53125 3.5625,-3.53125 z m 100.96875,0 5.3125,0 c 1.963,0 3.5625,1.568258 3.5625,3.53125 l 0,5.3125 c -10e-6,1.962991 -1.59951,3.5625 -3.5625,3.5625 l -5.3125,0 c -1.96299,2e-6 -3.53125,-1.599508 -3.53125,-3.5625 l 0,-5.3125 c 0,-1.962989 1.56826,-3.53125 3.53125,-3.53125 z M 177.1982,139 l 70.8125,0 c 1.97857,0 3.5625,1.58393 3.5625,3.5625 l 0,35.375 c 0,1.97857 -1.58393,3.5625 -3.5625,3.5625 l -70.8125,0 c -1.97857,0 -3.5625,-1.58393 -3.5625,-3.5625 l 0,-35.375 c 0,-1.97857 1.58393,-3.5625 3.5625,-3.5625 z m -40.78125,1.75 c 10.75748,0 19.46875,8.74252 19.46875,19.5 0,10.75749 -8.71127,19.5 -19.46875,19.5 -10.75748,1e-5 -19.5,-8.74252 -19.5,-19.5 0,-10.75748 8.74252,-19.5 19.5,-19.5 z m 152.34375,0 c 10.75748,0 19.5,8.74252 19.5,19.5 -10e-6,10.75749 -8.74252,19.5 -19.5,19.5 -10.75748,1e-5 -19.46875,-8.74252 -19.46875,-19.5 0,-10.75748 8.71127,-19.5 19.46875,-19.5 z"
       inkscape:connector-curvature="0" />
    <path
       id="path40480"
       style="fill:#8da370;fill-opacity:1;fill-rule:evenodd;stroke:none"
       d="m 86.79195,36.25 9.6875,48.5 c 0.93538,4.554 3.05961,4.56187 6.28125,4.625 5.20557,0.10005 214.48401,0 219.5625,0 4.74604,0 6.21632,-4.19487 7.09375,-8.125 l 8.96875,-45 -251.59375,0 z m 39,2.65625 c 4.40079,0 7.96875,3.567963 7.96875,7.96875 0,4.400789 -3.56796,7.96875 -7.96875,7.96875 -4.40078,0 -7.96875,-3.567963 -7.96875,-7.96875 0,-4.400786 3.56796,-7.96875 7.96875,-7.96875 z m 173.625,0 c 4.40079,0 7.96875,3.567963 7.96875,7.96875 0,4.400789 -3.56796,7.96875 -7.96875,7.96875 -4.40078,0 -8,-3.567963 -8,-7.96875 0,-4.400786 3.59921,-7.96875 8,-7.96875 z M 159.4482,46.875 l 5.28125,0 c 1.97093,0 3.5625,1.591573 3.5625,3.5625 l 0,5.28125 c -1e-5,1.970931 -1.59157,3.5625 -3.5625,3.5625 l -5.28125,0 c -1.97093,2e-6 -3.5625,-1.591573 -3.5625,-3.5625 l 0,-5.28125 c 0,-1.970929 1.59157,-3.5625 3.5625,-3.5625 z m 101,0 5.28125,0 c 1.97092,0 3.5625,1.591573 3.5625,3.5625 l 0,5.28125 c -10e-6,1.970931 -1.59157,3.5625 -3.5625,3.5625 l -5.28125,0 c -1.97093,2e-6 -3.5625,-1.591573 -3.5625,-3.5625 l 0,-5.28125 c 0,-1.970929 1.59157,-3.5625 3.5625,-3.5625 z"
       inkscape:connector-curvature="0" />
    <path
       id="path38630"
       style="fill:url(#pattern2291);fill-opacity:1;stroke:none"
       d="m 58.5326,39.77953 0.02497,7.09547 c 0,5.86719 -4.72603,10.625 -10.59375,10.625 l -7.222318,-0.0039 0,180.708665 7.222318,0.014 c 5.86772,0 10.59375,4.44532 10.59375,10.625 l -0.02497,7.07751 308.19316,0 0.0193,-7.07751 c 2e-5,-5.86718 4.75728,-10.625 10.625,-10.625 l 7.07221,-0.014 0,-180.708665 -7.07221,0.0039 c -5.86772,0 -10.625,-4.75781 -10.625,-10.625 l -0.0193,-7.09547 -29.04177,0 -8.25141,41.47047 c -0.87743,3.93013 -2.34773,8.125 -7.09375,8.125 -5.07849,0 -214.35695,0.10005 -219.56251,0 -3.221645,-0.06313 -5.345885,-0.071 -6.281245,-4.625 l -8.994518,-44.97047 -28.967957,0 z m 115.36873,95.65797 77.40625,0 c 2.11824,0 3.8125,1.8284 3.8125,4.09375 l 0,41.4375 c 0,2.26535 -1.69425,4.09375 -3.8125,4.09375 l -77.40625,0 c -2.11824,1e-5 -3.8125,-1.8284 -3.8125,-4.09375 l 0,-41.4375 c 0,-2.26535 1.69425,-4.09375 3.8125,-4.09375 z m -37.46876,1.78125 c 12.71336,0 23.03126,10.31787 23.03126,23.03125 3e-5,12.71338 -10.31787,23.03125 -23.03126,23.03125 -12.7134,0 -23.03125,-10.31787 -23.03125,-23.03125 -2e-5,-12.71338 10.31787,-23.03125 23.03125,-23.03125 z m 152.34376,0 c 12.71339,0 23.03125,10.31787 23.03125,23.03125 0,12.71338 -10.31787,23.03125 -23.03125,23.03125 -12.71337,0 -23.03125,-10.31787 -23.03125,-23.03125 2e-5,-12.71338 10.31787,-23.03125 23.03125,-23.03125 z"
       inkscape:connector-curvature="0" />
    <rect
       id="rect18918"
       style="fill:#6a7f4c;fill-opacity:1;stroke:none"
       y="43.301575"
       x="174.5107"
       height="21.281103"
       width="76.156296" />
    <g
       id="g9947"
       transform="translate(37.1982,-25.77165)">
      <path
         id="rect9052"
         style="fill:url(#linearGradient40441);fill-opacity:1;stroke:none"
         transform="translate(0,1.771649)"
         d="m 138.21875,161.21875 c -1.97857,0 -3.5625,1.56826 -3.5625,3.53125 l 0,39 c 0,1.96299 1.58393,3.53126 3.5625,3.53125 l 74.34375,0 c 1.97857,0 3.59375,-1.56825 3.59375,-3.53125 l 0,-39 c 0,-1.96299 -1.61518,-3.53125 -3.59375,-3.53125 l -74.34375,0 z M 140,163 l 70.8125,0 c 1.97857,0 3.5625,1.58393 3.5625,3.5625 l 0,35.375 c 0,1.97857 -1.58393,3.5625 -3.5625,3.5625 L 140,205.5 c -1.97857,0 -3.59375,-1.58393 -3.59375,-3.5625 l 0,-35.375 C 136.40625,164.58393 138.02143,163 140,163 z"
         inkscape:connector-curvature="0" />
      <rect
         id="rect9046"
         style="fill:#7f7f7f;fill-opacity:0.47393362;stroke:none"
         y="164.76378"
         x="136.41733"
         ry="3.5714285"
         rx="3.5714285"
         height="42.519684"
         width="77.952759" />
    </g>
    <g
       id="g20730"
       transform="translate(37.1982,-24)">
      <path
         id="path6361"
         style="fill:url(#linearGradient40443);fill-opacity:1;stroke:none"
         d="m 99.21875,161.21875 c -12.713384,0 -23.031248,10.31787 -23.03125,23.03125 0,12.71338 10.317867,23.03125 23.03125,23.03125 12.71338,0 23.03125,-10.31786 23.03125,-23.03125 0,-12.71338 -10.31787,-23.03124 -23.03125,-23.03125 z m 0,3.53125 c 10.75748,0 19.46875,8.74252 19.46875,19.5 0,10.75749 -8.71127,19.5 -19.46875,19.5 -10.757479,1e-5 -19.5,-8.74252 -19.5,-19.5 0,-10.75748 8.742518,-19.5 19.5,-19.5 z"
         inkscape:connector-curvature="0" />
      <path
         id="path19823"
         style="fill:#ffffff;fill-opacity:1;stroke:none"
         d="m 99.218752,164.75 c -10.757482,0 -19.5,8.74252 -19.5,19.5 0,10.75748 8.742521,19.50001 19.5,19.5 10.757478,0 19.468748,-8.74251 19.468748,-19.5 0,-10.75748 -8.71127,-19.5 -19.468748,-19.5 z m -1.8125,1.78125 c 0.01024,-0.001 0.02101,0.001 0.03125,0 l 0,3.53125 3.562498,0 0,-3.53125 c 5.10076,0.50962 9.57266,3.186 12.46875,7.09375 l -2.9375,1.6875 1.78125,3.0625 2.9375,-1.6875 c 1.06319,2.27435 1.6875,4.79348 1.6875,7.46875 0,2.70999 -0.62945,5.26559 -1.71875,7.5625 L 112.25,190 l -1.78125,3.0625 2.9375,1.71875 c -2.89769,3.85848 -7.34483,6.49419 -12.40625,7 l 0,-3.46875 -3.531248,0 0,3.46875 c -5.087796,-0.49951 -9.534338,-3.18011 -12.4375,-7.0625 l 2.90625,-1.65625 -1.75,-3.0625 -2.96875,1.6875 c -1.083051,-2.29112 -1.71875,-4.82963 -1.71875,-7.53125 0,-2.70562 0.601552,-5.26803 1.6875,-7.5625 l 3,1.75 1.78125,-3.09375 -2.9375,-1.6875 c 2.891225,-3.86832 7.313046,-6.51663 12.375,-7.03125 z"
         inkscape:connector-curvature="0" />
      <path
         id="path1892"
         style="fill:url(#linearGradient40445);fill-opacity:1;stroke:none"
         d="m 99.21875,164.75 c -10.757482,0 -19.5,8.74252 -19.5,19.5 0,10.75748 8.742521,19.50001 19.5,19.5 10.75748,0 19.46875,-8.74251 19.46875,-19.5 0,-10.75748 -8.71127,-19.5 -19.46875,-19.5 z m -1.8125,1.78125 c 0.01024,-0.001 0.02101,0.001 0.03125,0 l 0,3.53125 3.5625,0 0,-3.53125 c 5.10076,0.50962 9.57266,3.186 12.46875,7.09375 l -2.9375,1.6875 1.78125,3.0625 2.9375,-1.6875 c 1.06319,2.27435 1.6875,4.79348 1.6875,7.46875 0,2.70999 -0.62945,5.26559 -1.71875,7.5625 L 112.25,190 l -1.78125,3.0625 2.9375,1.71875 c -2.89769,3.85848 -7.34483,6.49419 -12.40625,7 l 0,-3.46875 -3.53125,0 0,3.46875 c -5.087796,-0.49951 -9.534338,-3.18011 -12.4375,-7.0625 L 87.9375,193.0625 86.1875,190 83.21875,191.6875 C 82.135699,189.39638 81.5,186.85787 81.5,184.15625 c 0,-2.70562 0.601552,-5.26803 1.6875,-7.5625 l 3,1.75 1.78125,-3.09375 -2.9375,-1.6875 c 2.891225,-3.86832 7.313046,-6.51663 12.375,-7.03125 z"
         inkscape:connector-curvature="0" />
    </g>
    <path
       id="path13592"
       style="fill:url(#linearGradient40447);fill-opacity:1;fill-rule:evenodd;stroke:none"
       d="m 86.79195,36.25 9.6875,48.5 c 0.935375,4.554 3.059602,4.56187 6.28125,4.625 5.20557,0.10005 214.48401,0 219.5625,0 4.74604,0 6.21632,-4.19487 7.09375,-8.125 l 8.96875,-45 -3.5625,0 -10.1875,47.8125 c -0.19061,0.71137 -0.44837,1.78125 -2.25,1.78125 -1.70669,0 -217.86293,0 -219.59375,0 -1.79459,0 -2.03802,-1.04427 -2.21875,-1.71875 L 90.35445,36.25 l -3.5625,0 z"
       inkscape:connector-curvature="0" />
    <g
       id="g20735"
       transform="translate(189.554,-23.99778)">
      <path
         id="path20737"
         style="fill:url(#linearGradient40449);fill-opacity:1;stroke:none"
         d="m 99.21875,161.21875 c -12.713384,0 -23.031248,10.31787 -23.03125,23.03125 0,12.71338 10.317867,23.03125 23.03125,23.03125 12.71338,0 23.03125,-10.31786 23.03125,-23.03125 0,-12.71338 -10.31787,-23.03124 -23.03125,-23.03125 z m 0,3.53125 c 10.75748,0 19.46875,8.74252 19.46875,19.5 0,10.75749 -8.71127,19.5 -19.46875,19.5 -10.757479,1e-5 -19.5,-8.74252 -19.5,-19.5 0,-10.75748 8.742518,-19.5 19.5,-19.5 z"
         inkscape:connector-curvature="0" />
      <path
         id="path20739"
         style="fill:#ffffff;fill-opacity:1;stroke:none"
         d="m 99.218752,164.75 c -10.757482,0 -19.5,8.74252 -19.5,19.5 0,10.75748 8.742521,19.50001 19.5,19.5 10.757478,0 19.468748,-8.74251 19.468748,-19.5 0,-10.75748 -8.71127,-19.5 -19.468748,-19.5 z m -1.8125,1.78125 c 0.01024,-0.001 0.02101,0.001 0.03125,0 l 0,3.53125 3.562498,0 0,-3.53125 c 5.10076,0.50962 9.57266,3.186 12.46875,7.09375 l -2.9375,1.6875 1.78125,3.0625 2.9375,-1.6875 c 1.06319,2.27435 1.6875,4.79348 1.6875,7.46875 0,2.70999 -0.62945,5.26559 -1.71875,7.5625 L 112.25,190 l -1.78125,3.0625 2.9375,1.71875 c -2.89769,3.85848 -7.34483,6.49419 -12.40625,7 l 0,-3.46875 -3.531248,0 0,3.46875 c -5.087796,-0.49951 -9.534338,-3.18011 -12.4375,-7.0625 l 2.90625,-1.65625 -1.75,-3.0625 -2.96875,1.6875 c -1.083051,-2.29112 -1.71875,-4.82963 -1.71875,-7.53125 0,-2.70562 0.601552,-5.26803 1.6875,-7.5625 l 3,1.75 1.78125,-3.09375 -2.9375,-1.6875 c 2.891225,-3.86832 7.313046,-6.51663 12.375,-7.03125 z"
         inkscape:connector-curvature="0" />
      <path
         id="path20741"
         style="fill:url(#linearGradient40451);fill-opacity:1;stroke:none"
         d="m 99.21875,164.75 c -10.757482,0 -19.5,8.74252 -19.5,19.5 0,10.75748 8.742521,19.50001 19.5,19.5 10.75748,0 19.46875,-8.74251 19.46875,-19.5 0,-10.75748 -8.71127,-19.5 -19.46875,-19.5 z m -1.8125,1.78125 c 0.01024,-0.001 0.02101,0.001 0.03125,0 l 0,3.53125 3.5625,0 0,-3.53125 c 5.10076,0.50962 9.57266,3.186 12.46875,7.09375 l -2.9375,1.6875 1.78125,3.0625 2.9375,-1.6875 c 1.06319,2.27435 1.6875,4.79348 1.6875,7.46875 0,2.70999 -0.62945,5.26559 -1.71875,7.5625 L 112.25,190 l -1.78125,3.0625 2.9375,1.71875 c -2.89769,3.85848 -7.34483,6.49419 -12.40625,7 l 0,-3.46875 -3.53125,0 0,3.46875 c -5.087796,-0.49951 -9.534338,-3.18011 -12.4375,-7.0625 L 87.9375,193.0625 86.1875,190 83.21875,191.6875 C 82.135699,189.39638 81.5,186.85787 81.5,184.15625 c 0,-2.70562 0.601552,-5.26803 1.6875,-7.5625 l 3,1.75 1.78125,-3.09375 -2.9375,-1.6875 c 2.891225,-3.86832 7.313046,-6.51663 12.375,-7.03125 z"
         inkscape:connector-curvature="0" />
    </g>
    <g
       id="g26148"
       transform="translate(37.1982,-26.65752)">
      <path
         id="path24330"
         style="fill:#000000;fill-opacity:1;fill-rule:nonzero;stroke:none;stroke-width:2.1169126;marker:none;visibility:visible;display:inline;overflow:visible"
         transform="matrix(1.608624,0,0,1.753848,150.4577,-385.4288)"
         d="m 20.455589,277.84558 c 0,2.50922 -2.220315,4.54569 -4.956061,4.54569 -2.735746,0 -4.956061,-2.03647 -4.956061,-4.54569 0,-2.50922 2.220315,-4.54569 4.956061,-4.54569 2.735746,0 4.956061,2.03647 4.956061,4.54569 z"
         inkscape:connector-curvature="0" />
      <path
         id="path24328"
         style="fill:#121212;fill-opacity:1;fill-rule:nonzero;stroke:none;stroke-width:2.1169126;marker:none;visibility:visible;display:inline;overflow:visible"
         transform="matrix(1.429888,0,0,1.558976,153.228,-331.2845)"
         d="m 20.455589,277.84558 c 0,2.51051 -2.218904,4.54569 -4.956061,4.54569 -2.737157,0 -4.956061,-2.03518 -4.956061,-4.54569 0,-2.51051 2.218904,-4.54569 4.956061,-4.54569 2.737157,0 4.956061,2.03518 4.956061,4.54569 z"
         inkscape:connector-curvature="0" />
      <path
         id="path24332"
         style="fill:url(#linearGradient40453);fill-opacity:1;fill-rule:nonzero;stroke:none;stroke-width:2.1169126;marker:none;visibility:visible;display:inline;overflow:visible"
         transform="matrix(1.429888,0,0,1.558976,153.228,-331.2845)"
         d="m 20.455589,277.84558 c 0,2.50922 -2.220315,4.54569 -4.956061,4.54569 -2.735746,0 -4.956061,-2.03647 -4.956061,-4.54569 0,-2.50922 2.220315,-4.54569 4.956061,-4.54569 2.735746,0 4.956061,2.03647 4.956061,4.54569 z"
         inkscape:connector-curvature="0" />
      <path
         id="path24334"
         style="fill:#000000;fill-opacity:1;fill-rule:evenodd;stroke:none"
         d="m 177.89612,106.88104 c -2.5055,-2.5055 -2.5055,-2.5055 -5.011,0 -2.5055,-2.5055 0,0 -2.5055,-2.5055 2.5055,-2.50549 2.5055,-2.50549 1e-5,-5.010988 2.50549,-2.50549 0,0 2.50549,-2.50549 2.50549,2.50549 2.50549,2.50549 5.01099,-10e-6 2.5055,2.5055 0,0 2.5055,2.5055 -2.5055,2.505498 -2.5055,2.505498 0,5.010998 -2.50549,2.50549 0,0 -2.50549,2.50549 z"
         inkscape:connector-curvature="0" />
    </g>
    <path
       id="rect25249"
       style="fill:#000000;fill-opacity:0.50196078;fill-rule:nonzero;stroke:none;stroke-width:2.1169126;marker:none;visibility:visible;display:inline;overflow:visible"
       d="m 174.5107,43.3125 0,21.28125 0.875,-0.90625 0,-19.46875 74.40625,0 0.875,-0.90625 -76.15625,0 z"
       inkscape:connector-curvature="0" />
    <path
       id="path27934"
       style="fill:#ffffff;fill-opacity:0.50196078;fill-rule:nonzero;stroke:none;stroke-width:2.1169126;marker:none;visibility:visible;display:inline;overflow:visible"
       d="m 174.5107,64.582679 76.15625,0 0,-21.281255 -0.875,0.90625 0,19.468755 -74.40625,0 -0.875,0.90625 z"
       inkscape:connector-curvature="0" />
    <path
       id="rect10317"
       style="fill:#ffffff;fill-opacity:0.58767772;stroke:none"
       d="m 212.60445,151.45313 c -0.831,0 -1.5,0.669 -1.5,1.5 l 0,6.125 -10,0 0,1.34375 10.90625,0 0,-6.125 c 0,-0.831 0.669,-1.5 1.5,-1.5 0.20775,0 0.41417,0.0493 0.59375,0.125 -0.0163,-0.81668 -0.67928,-1.46875 -1.5,-1.46875 z m -13.90625,3.53125 c -0.831,0 -1.5,0.66899 -1.5,1.5 l 0,2.59375 -9.65625,0 c -0.831,0 -1.5,0.669 -1.5,1.5 0,0.62325 0.36752,1.14789 0.90625,1.375 -2e-4,-0.0102 0,-0.021 0,-0.0312 0,-0.831 0.669,-1.5 1.5,-1.5 l 9.65625,0 0,-2.59375 c 0,-0.83101 0.669,-1.5 1.5,-1.5 0.20775,0 0.41417,0.0493 0.59375,0.125 -0.0163,-0.81668 -0.67928,-1.46876 -1.5,-1.46875 z m 27.8125,0 c -0.831,0 -1.5,0.66899 -1.5,1.5 l 0,2.59375 -10,0 0,1.34375 10.90625,0 0,-2.59375 c 0,-0.83101 0.669,-1.5 1.5,-1.5 0.20775,0 0.41417,0.0493 0.59375,0.125 -0.0163,-0.81668 -0.67928,-1.46876 -1.5,-1.46875 z m 2.40625,4.09375 0,1.34375 9.65625,0 c 0.20775,0 0.41417,0.0493 0.59375,0.125 -0.0163,-0.81668 -0.67928,-1.46875 -1.5,-1.46875 l -8.75,0 z m -31.71875,4.34375 0,0.6875 c 0,0.62325 0.36752,1.14789 0.90625,1.375 -2e-4,-0.0102 0,-0.021 0,-0.0312 l 0,-2.03125 -0.90625,0 z m 13.90625,0 0,4.25 c 0,0.62325 0.36752,1.14789 0.90625,1.375 -2e-4,-0.0102 0,-0.021 0,-0.0312 l 0,-5.59375 -0.90625,0 z m 13.90625,0 0,0.6875 c 0,0.62325 0.36752,1.14789 0.90625,1.375 -2e-4,-0.0102 0,-0.021 0,-0.0312 l 0,-2.03125 -0.90625,0 z"
       inkscape:connector-curvature="0" />
    <g
       id="g21011"
       transform="translate(37.1982,-24)">
      <rect
         id="rect29715"
         style="fill:#6a7f4c;fill-opacity:1;fill-rule:nonzero;stroke:none;stroke-width:2.1169126;marker:none;visibility:visible;display:inline;overflow:visible"
         y="85.039375"
         x="311.81104"
         ry="3.5433071"
         rx="3.5433071"
         height="28.346457"
         width="21.259842" />
      <path
         id="rect17460"
         style="fill:#ffffff;fill-opacity:0.70588235;fill-rule:nonzero;stroke:none;stroke-width:2.1169126;marker:none;visibility:visible;display:inline;overflow:visible"
         d="m 331.57088,85.729582 c 0.48369,0.60562 0.78125,1.37993 0.78125,2.21875 l 0,21.249998 c 2e-5,1.963 -1.56826,3.53125 -3.53125,3.53125 l -14.1875,0 c -0.73612,0 -1.40341,-0.21244 -1.96875,-0.59375 0.64896,0.7669 1.5996,1.25 2.6875,1.25 l 14.1875,0 c 1.96299,0 3.53127,-1.56826 3.53125,-3.53125 l 0,-21.249998 c 0,-1.1955 -0.59823,-2.23391 -1.5,-2.875 z"
         inkscape:connector-curvature="0" />
      <path
         id="rect19235"
         style="fill:#000000;fill-opacity:0.70588235;fill-rule:nonzero;stroke:none;stroke-width:2.1169126;marker:none;visibility:visible;display:inline;overflow:visible"
         d="m 315.34229,85.039375 c -1.96299,0 -3.53125,1.568261 -3.53125,3.53125 l 0,21.281255 c 0,1.25241 0.64947,2.33892 1.625,2.96875 -0.52599,-0.61795 -0.84375,-1.40246 -0.84375,-2.28125 l 0,-21.281255 c 0,-1.962989 1.56826,-3.53125 3.53125,-3.53125 l 14.1875,0 c 0.71058,0 1.35277,0.205159 1.90625,0.5625 -0.64894,-0.762383 -1.60329,-1.25 -2.6875,-1.25 l -14.1875,0 z"
         inkscape:connector-curvature="0" />
    </g>
    <g
       id="g15668"
       transform="translate(-8.86111,-24.00579)">
      <path
         id="path15662"
         style="font-size:80px;font-style:normal;font-weight:normal;fill:#8da370;fill-opacity:1;stroke:none;font-family:Nimbus Sans L"
         transform="translate(46.06299,0)"
         d="m 315.3125,91.6875 c -0.14043,0.005 -0.26933,0.07899 -0.34437,0.197799 -0.075,0.118806 -0.0865,0.267019 -0.0306,0.395951 l 5.71875,14.1875 c 0.0614,0.17092 0.22465,0.28393 0.40625,0.28125 l 2.65625,0 c 0.1816,0.003 0.34483,-0.11033 0.40625,-0.28125 l 5.8125,-14.1875 c 0.0581,-0.134023 0.0433,-0.288488 -0.0392,-0.409043 -0.0825,-0.120555 -0.22109,-0.190305 -0.36706,-0.184707 l -2.21875,0 c -0.1816,-0.0027 -0.34483,0.110331 -0.40625,0.28125 l -1.59375,3.96875 -5.6875,0 -1.53125,-3.96875 c -0.0614,-0.170919 -0.22465,-0.283928 -0.40625,-0.28125 l -2.34375,0 c -0.0104,-3.83e-4 -0.0208,-3.83e-4 -0.0312,0 z m 5.25,6.65625 3.875,0 -2,4.84375 -1.875,-4.84375 z"
         inkscape:connector-curvature="0" />
      <path
         id="path15664"
         style="font-size:80px;font-style:normal;font-weight:normal;fill:#000000;fill-opacity:0.70588235;stroke:none;font-family:Nimbus Sans L"
         d="m 363.59123,91.687482 1.53125,3.9375 0.4375,0 -1.40625,-3.65625 c -0.0614,-0.170921 -0.22465,-0.283928 -0.40625,-0.28125 l -0.15625,0 z m 11.875,0 c 0.0245,0.09141 0.007,0.191902 -0.0312,0.28125 l -5.8125,14.187498 c -0.0614,0.17092 -0.22465,0.28393 -0.40625,0.28125 l -2.5,0 0,0.0312 c 0.0614,0.17092 0.22465,0.28393 0.40625,0.28125 l 2.65625,0 c 0.18161,0.003 0.34483,-0.11033 0.40625,-0.28125 l 5.8125,-14.187498 c 0.0581,-0.134024 0.0512,-0.285695 -0.0312,-0.40625 -0.0825,-0.120557 -0.22903,-0.193098 -0.375,-0.1875 l -0.125,0 z m -9.40625,6.34375 1.875,4.843748 0.21875,-0.5625 -1.53125,-3.968748 3.1875,0 0.125,-0.3125 -3.875,0 z"
         inkscape:connector-curvature="0" />
      <path
         id="path15666"
         style="font-size:80px;font-style:normal;font-weight:normal;fill:#ffffff;fill-opacity:0.70616114;stroke:none;font-family:Nimbus Sans L"
         d="m 361.37479,91.687037 c -0.14041,0.005 -0.26871,0.06869 -0.34375,0.1875 -0.075,0.118805 -0.0871,0.277318 -0.0312,0.40625 l 5.71875,14.187483 c 0.0614,0.17092 0.22465,0.28393 0.40625,0.28125 l 0.1875,0 -5.71875,-14.156233 c -0.0559,-0.128932 -0.0438,-0.287446 0.0312,-0.40625 0.075,-0.118805 0.20331,-0.182547 0.34375,-0.1875 0.0104,-3.83e-4 0.0208,-3.84e-4 0.0312,0 l 2.15625,0 0,-0.03125 c -0.0614,-0.170919 -0.22465,-0.283928 -0.40625,-0.28125 l -2.34375,0 c -0.0104,-3.83e-4 -0.0208,-3.83e-4 -0.0312,0 z m 12,0 c -0.18158,-0.0027 -0.34483,0.110331 -0.40625,0.28125 l -1.59375,3.96875 -5.21875,0 0.125,0.3125 5.6875,0 1.59375,-3.96875 c 0.0614,-0.170919 0.22464,-0.283928 0.40625,-0.28125 l 2.03125,0 c -0.0123,-0.04448 -0.004,-0.08582 -0.0312,-0.125 -0.0825,-0.120555 -0.22903,-0.193098 -0.375,-0.1875 l -2.21875,0 z m -3,6.96875 -1.625,3.937483 0.34375,0.90625 2,-4.843733 -0.71875,0 z"
         inkscape:connector-curvature="0" />
    </g>
    <g
       id="g21016"
       transform="translate(-256.8963,-24)">
      <rect
         id="rect21018"
         style="fill:#6a7f4c;fill-opacity:1;fill-rule:nonzero;stroke:none;stroke-width:2.1169126;marker:none;visibility:visible;display:inline;overflow:visible"
         y="85.039375"
         x="311.81104"
         ry="3.5433071"
         rx="3.5433071"
         height="28.346457"
         width="21.259842" />
      <path
         id="path21020"
         style="fill:#ffffff;fill-opacity:0.70588235;fill-rule:nonzero;stroke:none;stroke-width:2.1169126;marker:none;visibility:visible;display:inline;overflow:visible"
         d="m 331.57088,85.729582 c 0.48369,0.60562 0.78125,1.37993 0.78125,2.21875 l 0,21.249998 c 2e-5,1.963 -1.56826,3.53125 -3.53125,3.53125 l -14.1875,0 c -0.73612,0 -1.40341,-0.21244 -1.96875,-0.59375 0.64896,0.7669 1.5996,1.25 2.6875,1.25 l 14.1875,0 c 1.96299,0 3.53127,-1.56826 3.53125,-3.53125 l 0,-21.249998 c 0,-1.1955 -0.59823,-2.23391 -1.5,-2.875 z"
         inkscape:connector-curvature="0" />
      <path
         id="path21022"
         style="fill:#000000;fill-opacity:0.70588235;fill-rule:nonzero;stroke:none;stroke-width:2.1169126;marker:none;visibility:visible;display:inline;overflow:visible"
         d="m 315.34229,85.039375 c -1.96299,0 -3.53125,1.568261 -3.53125,3.53125 l 0,21.281255 c 0,1.25241 0.64947,2.33892 1.625,2.96875 -0.52599,-0.61795 -0.84375,-1.40246 -0.84375,-2.28125 l 0,-21.281255 c 0,-1.962989 1.56826,-3.53125 3.53125,-3.53125 l 14.1875,0 c 0.71058,0 1.35277,0.205159 1.90625,0.5625 -0.64894,-0.762383 -1.60329,-1.25 -2.6875,-1.25 l -14.1875,0 z"
         inkscape:connector-curvature="0" />
    </g>
    <g
       id="g15680"
       transform="translate(-302.9556,-24.00579)">
      <path
         id="path15682"
         style="font-size:80px;font-style:normal;font-weight:normal;fill:#8da370;fill-opacity:1;stroke:none;font-family:Nimbus Sans L"
         transform="translate(46.06299,0)"
         d="m 315.3125,91.6875 c -0.14043,0.005 -0.26933,0.07899 -0.34437,0.197799 -0.075,0.118806 -0.0865,0.267019 -0.0306,0.395951 l 5.71875,14.1875 c 0.0614,0.17092 0.22465,0.28393 0.40625,0.28125 l 2.65625,0 c 0.1816,0.003 0.34483,-0.11033 0.40625,-0.28125 l 5.8125,-14.1875 c 0.0581,-0.134023 0.0433,-0.288488 -0.0392,-0.409043 -0.0825,-0.120555 -0.22109,-0.190305 -0.36706,-0.184707 l -2.21875,0 c -0.1816,-0.0027 -0.34483,0.110331 -0.40625,0.28125 l -1.59375,3.96875 -5.6875,0 -1.53125,-3.96875 c -0.0614,-0.170919 -0.22465,-0.283928 -0.40625,-0.28125 l -2.34375,0 c -0.0104,-3.83e-4 -0.0208,-3.83e-4 -0.0312,0 z m 5.25,6.65625 3.875,0 -2,4.84375 -1.875,-4.84375 z"
         inkscape:connector-curvature="0" />
      <path
         id="path15684"
         style="font-size:80px;font-style:normal;font-weight:normal;fill:#000000;fill-opacity:0.70588235;stroke:none;font-family:Nimbus Sans L"
         d="m 363.59123,91.687482 1.53125,3.9375 0.4375,0 -1.40625,-3.65625 c -0.0614,-0.170921 -0.22465,-0.283928 -0.40625,-0.28125 l -0.15625,0 z m 11.875,0 c 0.0245,0.09141 0.007,0.191902 -0.0312,0.28125 l -5.8125,14.187498 c -0.0614,0.17092 -0.22465,0.28393 -0.40625,0.28125 l -2.5,0 0,0.0312 c 0.0614,0.17092 0.22465,0.28393 0.40625,0.28125 l 2.65625,0 c 0.18161,0.003 0.34483,-0.11033 0.40625,-0.28125 l 5.8125,-14.187498 c 0.0581,-0.134024 0.0512,-0.285695 -0.0312,-0.40625 -0.0825,-0.120557 -0.22903,-0.193098 -0.375,-0.1875 l -0.125,0 z m -9.40625,6.34375 1.875,4.843748 0.21875,-0.5625 -1.53125,-3.968748 3.1875,0 0.125,-0.3125 -3.875,0 z"
         inkscape:connector-curvature="0" />
      <path
         id="path15686"
         style="font-size:80px;font-style:normal;font-weight:normal;fill:#ffffff;fill-opacity:0.70616114;stroke:none;font-family:Nimbus Sans L"
         d="m 361.37479,91.687037 c -0.14041,0.005 -0.26871,0.06869 -0.34375,0.1875 -0.075,0.118805 -0.0871,0.277318 -0.0312,0.40625 l 5.71875,14.187483 c 0.0614,0.17092 0.22465,0.28393 0.40625,0.28125 l 0.1875,0 -5.71875,-14.156233 c -0.0559,-0.128932 -0.0438,-0.287446 0.0312,-0.40625 0.075,-0.118805 0.20331,-0.182547 0.34375,-0.1875 0.0104,-3.83e-4 0.0208,-3.84e-4 0.0312,0 l 2.15625,0 0,-0.03125 c -0.0614,-0.170919 -0.22465,-0.283928 -0.40625,-0.28125 l -2.34375,0 c -0.0104,-3.83e-4 -0.0208,-3.83e-4 -0.0312,0 z m 12,0 c -0.18158,-0.0027 -0.34483,0.110331 -0.40625,0.28125 l -1.59375,3.96875 -5.21875,0 0.125,0.3125 5.6875,0 1.59375,-3.96875 c 0.0614,-0.170919 0.22464,-0.283928 0.40625,-0.28125 l 2.03125,0 c -0.0123,-0.04448 -0.004,-0.08582 -0.0312,-0.125 -0.0825,-0.120555 -0.22903,-0.193098 -0.375,-0.1875 l -2.21875,0 z m -3,6.96875 -1.625,3.937483 0.34375,0.90625 2,-4.843733 -0.71875,0 z"
         inkscape:connector-curvature="0" />
    </g>
    <g
       id="g26344"
       transform="translate(37.1982,-24)">
      <path
         id="rect16259"
         style="fill:#6a7f4c;fill-opacity:1;stroke:none"
         d="m 19.5,116.90198 c -1.962992,0 -3.5625,1.59951 -3.5625,3.5625 l 0,141.75427 c 0,1.96299 1.599509,3.53123 3.5625,3.53125 l 311.8125,0 c 1.96299,0 3.53124,-1.56825 3.53125,-3.53125 l 0,-141.75427 c 0,-1.96299 -1.56827,-3.5625 -3.53125,-3.5625 l -311.8125,0 z m 47.8125,42.53552 216.15625,0 c 1.963,0 3.53125,1.59951 3.53125,3.5625 l 0,42.5 c 10e-6,1.963 -1.56826,3.5625 -3.53125,3.5625 l -216.15625,0 c -1.962989,1e-5 -3.53125,-1.59951 -3.53125,-3.5625 l 0,-42.5 c 0,-1.96299 1.568258,-3.5625 3.53125,-3.5625 z m 31.90625,1.78125 c -0.665711,0 -1.317313,0.0383 -1.96875,0.0937 l 3.9375,0 c -0.65144,-0.0554 -1.303039,-0.0937 -1.96875,-0.0937 z m 152.34375,0 c -0.66571,0 -1.31731,0.0383 -1.96875,0.0937 l 3.9375,0 c -0.65144,-0.0554 -1.30304,-0.0937 -1.96875,-0.0937 z"
         inkscape:connector-curvature="0" />
      <path
         id="path21024"
         style="fill:#000000;fill-opacity:0.70588235;stroke:none"
         d="m 19.5,116.90198 c -1.963,1e-5 -3.5625,1.59951 -3.5625,3.5625 l 0,141.78125 c -10e-6,1.12828 0.55284,2.10537 1.375,2.75 -0.42493,-0.58068 -0.6875,-1.31637 -0.6875,-2.09375 l 0,-141.75 c 0,-1.96299 1.59951,-3.5625 3.5625,-3.5625 l 311.8125,0 c 0.80745,0 1.5328,0.29475 2.125,0.75 -0.64259,-0.8564 -1.65697,-1.4375 -2.8125,-1.4375 l -311.8125,0 z m 266.78125,43.96875 c 0.44902,0.59843 0.71875,1.34879 0.71875,2.15625 l 0,42.5 c 3e-5,1.963 -1.56826,3.5625 -3.53125,3.5625 l -216.15625,0 c -0.80746,1e-5 -1.5328,-0.29475 -2.125,-0.75 0.64259,0.8564 1.65697,1.40625 2.8125,1.40625 l 216.15625,0 c 1.96299,0 3.53126,-1.5995 3.53125,-3.5625 l 0,-42.5 c 0,-1.15553 -0.55876,-2.161 -1.40625,-2.8125 z m -187.0625,0.375 c -0.66572,0 -1.31731,0.0383 -1.96875,0.0937 l 3.9375,0 c -0.65145,-0.0554 -1.30304,-0.0937 -1.96875,-0.0937 z m 152.34375,0 c -0.66569,0 -1.31731,0.0383 -1.96875,0.0937 l 3.9375,0 c -0.65142,-0.0554 -1.30304,-0.0937 -1.96875,-0.0937 z"
         inkscape:connector-curvature="0" />
      <path
         id="path24569"
         style="fill:#ffffff;fill-opacity:0.70588235;stroke:none"
         d="m 333.3125,117.5 c 0.49812,0.61497 0.81251,1.39494 0.8125,2.25 l 0,141.75 c -10e-6,1.963 -1.56825,3.53124 -3.53125,3.53125 l -311.8125,0 c -0.73612,-10e-6 -1.43129,-0.21456 -2,-0.59375 0.6541,0.78884 1.61027,1.31249 2.71875,1.3125 l 311.8125,0 c 1.96298,0 3.53124,-1.56825 3.53125,-3.53125 l 0,-141.75 c 0,-1.22687 -0.59255,-2.32762 -1.53125,-2.96875 z M 66.59375,158.71875 c -1.96299,0 -3.53124,1.59951 -3.53125,3.5625 l 0,42.5 c 0,1.22687 0.59256,2.32762 1.53125,2.96875 -0.50662,-0.6175 -0.8125,-1.38689 -0.8125,-2.25 l 0,-42.5 c -1e-5,-1.96299 1.56826,-3.5625 3.53125,-3.5625 l 216.15625,0 c 0.7214,0 1.41222,0.1918 1.96875,0.5625 -0.64566,-0.7711 -1.60045,-1.28125 -2.6875,-1.28125 l -216.15625,0 z m 32.625,2.5 c -0.66572,0 -1.31732,0.0383 -1.96875,0.0937 l 3.9375,0 c -0.65145,-0.0554 -1.30304,-0.0937 -1.96875,-0.0937 z m 152.34375,0 c -0.66572,0 -1.31731,0.0383 -1.96875,0.0937 l 3.9375,0 c -0.65145,-0.0554 -1.30304,-0.0937 -1.96875,-0.0937 z"
         inkscape:connector-curvature="0" />
    </g>
    <path
       id="rect26759"
       style="fill:#000000;fill-opacity:0.50196078;stroke:none"
       d="m 387.97945,53.9375 0,46.09375 c 1.96286,0 3.56251,-1.59951 3.5625,-3.5625 l 0,-38.96875 c 0,-1.962992 -1.59964,-3.5625 -3.5625,-3.5625 z"
       inkscape:connector-curvature="0" />
    <path
       id="path28537"
       style="fill:#ffffff;fill-opacity:0.70588235;stroke:none"
       d="m 37.1982,53.952758 c -3.543307,0 -3.543307,3.543307 -3.543307,3.547251 l 0,38.972431 c -5e-6,1.02911 0.691362,1.74794 1.5625,2.15625 0,0 -1.5625,-41.132625 1.980807,-44.675932 z"
       inkscape:connector-curvature="0" />
    <path
       id="path1946"
       style="fill:#ffffff;fill-opacity:0.70588235;stroke:none"
       d="m 47.8125,36.25 c -5.88899,-2e-6 -10.625,4.736024 -10.625,10.625 l 0,201.96875 c 0,3.24033 1.41665,6.14846 3.6875,8.09375 -1.34788,-1.78085 -2.15625,-3.98922 -2.15625,-6.40625 l 0,-201.96875 c 0,-5.888976 4.73601,-10.625002 10.625,-10.625 l 37.78125,0 -0.34375,-1.6875 -38.96875,0 z m 42.53125,0 0.375,1.6875 243.71875,0 0.375,-1.6875 -244.46875,0 z m 248.03125,0 -0.34375,1.6875 40.84375,0 c 2.64864,0 5.0813,0.941165 6.9375,2.53125 C 383.87632,37.91063 380.8157,36.25 377.34375,36.25 l -38.96875,0 z"
       inkscape:connector-curvature="0" />
    <path
       id="path2838"
       style="fill:#000000;fill-opacity:0.70588235;stroke:none"
       d="m 377.3606,259.46457 c 5.88899,0 10.625,-4.73603 10.625,-10.625 l 0,-201.968751 c 0,-3.24033 -1.41665,-6.14846 -3.6875,-8.09375 1.34788,1.78085 2.15625,3.98922 2.15625,6.40625 l 0,201.968751 c 0,5.88897 -4.73601,10.625 -10.625,10.625 l -329.531253,0 c -2.64865,0 -5.0813,-0.94117 -6.9375,-2.53125 1.93617,2.55812 4.9968,4.21875 8.46875,4.21875 l 329.531253,0 z"
       inkscape:connector-curvature="0" />
    <path
       id="rect4610"
       style="fill:#f9f4ea;fill-opacity:0.70588235;stroke:none"
       d="m 58.458043,96.47244 0,141.73229 308.271407,0.014 -0.004,-141.74631 -308.267717,0 z m 38.976377,35.43307 230.31496,0 0,56.69292 -230.31496,0 0,-56.69292 z"
       inkscape:connector-curvature="0" />
    <path
       id="path5500"
       style="fill:none;stroke:#303030;stroke-width:1px;stroke-linecap:round;stroke-linejoin:round;stroke-opacity:1"
       d="m 65.544657,202.77166 294.094483,0"
       inkscape:connector-curvature="0" />
    <path
       id="path6387"
       style="fill:none;stroke:#303030;stroke-width:1px;stroke-linecap:round;stroke-linejoin:round;stroke-opacity:1"
       d="m 65.544657,220.48819 294.094483,0"
       inkscape:connector-curvature="0" />
    <path
       id="text6389"
       style="font-size:80px;font-style:normal;font-weight:normal;fill:#303030;fill-opacity:1;stroke:none;font-family:OpenSymbol"
       d="m 347.23757,166.74906 3.54848,-8.81673 -7.10992,0 3.56144,8.81673 m 1.47637,2.36143 -2.9657,0 -7.36894,-17.71654 2.71963,0 1.7613,4.54483 8.71581,0 1.7613,-4.54483 2.7585,0 -7.3819,17.71654"
       inkscape:connector-curvature="0" />
    <g
       id="g9955"
       transform="matrix(-0.32,0,0,-0.32,77.32418,272.3198)">
      <g
         id="g9951" />
      <path
         id="path9961"
         style="font-size:80px;font-style:normal;font-weight:normal;fill:#303030;fill-opacity:1;stroke:none;font-family:OpenSymbol"
         d="m -45.15625,339.85185 c -2.153154,3e-5 -3.936944,0.4933 -5.25,1.5625 -1.301691,1.0676 -1.968751,2.60135 -1.96875,4.40625 0,1.55838 0.49,2.88219 1.46875,3.8125 0.977386,0.92901 2.442059,1.54641 4.40625,1.9375 0.01042,2.7e-4 0.02083,2.7e-4 0.03125,0 l 1.5625,0.28125 c 1.230396,0.24769 2.032041,0.62715 2.46875,1.03125 0.440578,0.40171 0.656241,0.91222 0.65625,1.71875 -9e-6,0.9086 -0.296118,1.50476 -0.9375,1.96875 -0.648834,0.46936 -1.620781,0.74999 -3,0.75 -0.898349,0 -1.84262,-0.12782 -2.78125,-0.40625 -0.942031,-0.27942 -1.904601,-0.71935 -2.90625,-1.28125 -0.185824,-0.0941 -0.407057,-0.0856 -0.585098,0.0225 -0.178041,0.1081 -0.287656,0.30046 -0.289902,0.50873 l 0,2.625 c -0.0018,0.24655 0.146719,0.46934 0.375,0.5625 1.095892,0.40239 2.147644,0.72779 3.1875,0.9375 1.052202,0.21045 2.073015,0.28126 3,0.28125 2.441363,0 4.380556,-0.47347 5.75,-1.53125 1.381341,-1.05967 2.031231,-2.67184 2.03125,-4.625 -2.1e-5,-1.64449 -0.469648,-3.06339 -1.5,-4.09375 -1.02506,-1.04419 -2.559457,-1.68733 -4.53125,-2.0625 L -45.5,347.9456 c -1.34795,-0.25171 -2.246875,-0.61718 -2.59375,-0.90625 -0.357662,-0.30915 -0.531249,-0.69657 -0.53125,-1.40625 0,-0.83939 0.273758,-1.38013 0.875,-1.8125 0.615777,-0.43788 1.567358,-0.71874 2.875,-0.71875 0.739916,2e-5 1.531355,0.12873 2.34375,0.34375 0.812999,0.21522 1.684392,0.51892 2.625,0.96875 0.182933,0.0799 0.39358,0.0641 0.56252,-0.0423 0.16894,-0.10637 0.274252,-0.28948 0.28123,-0.489 l 0,-2.46875 c -0.0031,-0.25446 -0.165669,-0.47956 -0.40625,-0.5625 -0.984541,-0.32816 -1.958029,-0.58468 -2.90625,-0.75 -0.943433,-0.16443 -1.857468,-0.24997 -2.78125,-0.25 z m 84.6875,0 c -2.782055,3e-5 -5.110606,0.94376 -6.8125,2.84375 -1.69599,1.89447 -2.500003,4.45218 -2.5,7.53125 -3e-6,3.0791 0.806369,5.60818 2.5,7.5 1.701293,1.89033 4.029161,2.84376 6.8125,2.84375 2.775338,0 5.060382,-0.95643 6.75,-2.84375 1.689788,-1.89653 2.531231,-4.42478 2.53125,-7.5 -1.8e-5,-3.08328 -0.837916,-5.63973 -2.53125,-7.53125 -1.69022,-1.89696 -3.975947,-2.84372 -6.75,-2.84375 z m -76.8125,0.34375 c -0.276457,0.063 -0.471608,0.31021 -0.46875,0.59375 l 0,2.15625 c 0.0048,0.3259 0.267854,0.58892 0.59375,0.59375 l 6.09375,0 0,16.0625 c 0.0048,0.3259 0.267854,0.58892 0.59375,0.59375 l 2.5625,0 c 0.325896,-0.005 0.588918,-0.26785 0.59375,-0.59375 l 0,-16.0625 6.09375,0 c 0.325896,-0.005 0.588918,-0.26785 0.59375,-0.59375 l 0,-2.15625 c -0.0048,-0.3259 -0.267854,-0.58892 -0.59375,-0.59375 l -15.9375,0 c -0.04155,-0.004 -0.08345,-0.004 -0.125,0 l 0,0 z m 18.40625,0 c -0.276457,0.063 -0.471608,0.31021 -0.46875,0.59375 l 0,18.8125 c 0.0048,0.3259 0.267854,0.58892 0.59375,0.59375 l 12.125,0 c 0.3258964,-0.005 0.5889176,-0.26785 0.59375,-0.59375 l 0,-2.125 c -0.00483,-0.3259 -0.2678536,-0.58892 -0.59375,-0.59375 l -9,0 0,-5.625 8.375,0 c 0.3258964,-0.005 0.5889176,-0.26785 0.59375,-0.59375 l 0,-2.15625 c -0.00483,-0.3259 -0.2678536,-0.58892 -0.59375,-0.59375 l -8.375,0 0,-4.375 8.78125,0 c 0.3258964,-0.005 0.5889176,-0.26785 0.59375,-0.59375 l 0,-2.15625 c -0.00483,-0.3259 -0.2678536,-0.58892 -0.59375,-0.59375 l -11.90625,0 c -0.04155,-0.004 -0.08345,-0.004 -0.125,0 l 0,0 z m 16.34375,0 c -0.2764573,0.063 -0.4716076,0.31021 -0.46875,0.59375 l 0,18.8125 c 0.00483,0.3259 0.2678536,0.58892 0.59375,0.59375 l 2.53125,0 c 0.32589643,-0.005 0.58891759,-0.26785 0.59375,-0.59375 l 0,-7.34375 2.1875,0 c 0.9239529,0 1.5807367,0.21134 2.03125,0.53125 0.4361867,0.30535 1.0248609,1.06479 1.625,2.28125 l 2.40625,4.8125 c 0.1064102,0.19367 0.3102707,0.31359 0.53125,0.3125 l 2.75,0 c 0.208275,-0.002 0.400631,-0.11186 0.508727,-0.2899 0.108096,-0.17804 0.116613,-0.39928 0.02252,-0.5851 l -2.59375,-5.125 c -0.5359308,-1.08911 -1.0542126,-1.96212 -1.625,-2.625 -0.2358297,-0.27834 -0.494932,-0.51174 -0.75,-0.71875 0.6214351,-0.34394 1.1957062,-0.77424 1.59375,-1.34375 0.633896,-0.89324 0.937484,-1.99795 0.9375,-3.28125 -1.5e-5,-1.93413 -0.5979622,-3.53107 -1.8125,-4.5625 -1.2130547,-1.0301 -2.9524162,-1.46873 -5.1875,-1.46875 l -5.75,0 c -0.041554,-0.004 -0.083446,-0.004 -0.125,0 l 0,0 z m 17.9375,0 c -0.276457,0.063 -0.471608,0.31021 -0.46875,0.59375 l 0,18.8125 c 0.0048,0.3259 0.267854,0.58892 0.59375,0.59375 l 12.15625,0 c 0.325896,-0.005 0.588918,-0.26785 0.59375,-0.59375 l 0,-2.125 c -0.0048,-0.3259 -0.267854,-0.58892 -0.59375,-0.59375 l -9,0 0,-5.625 8.375,0 c 0.325896,-0.005 0.588918,-0.26785 0.59375,-0.59375 l 0,-2.15625 c -0.0048,-0.3259 -0.267854,-0.58892 -0.59375,-0.59375 l -8.375,0 0,-4.375 8.75,0 c 0.325896,-0.005 0.588918,-0.26785 0.59375,-0.59375 l 0,-2.15625 c -0.0048,-0.3259 -0.267854,-0.58892 -0.59375,-0.59375 l -11.90625,0 c -0.04155,-0.004 -0.08345,-0.004 -0.125,0 l 0,0 z m 24.125,2.90625 c 1.700963,2e-5 2.93219,0.59576 3.90625,1.84375 0.978433,1.24393 1.499986,2.9934 1.5,5.28125 -1.6e-5,2.27916 -0.519565,4.00353 -1.5,5.25 -0.974059,1.248 -2.205289,1.84374 -3.90625,1.84375 -1.700984,0 -2.94709,-0.59431 -3.9375,-1.84375 -0.980452,-1.24646 -1.500001,-2.97084 -1.5,-5.25 -3e-6,-2.28785 0.521549,-4.03732 1.5,-5.28125 0.990408,-1.24943 2.236512,-1.84374 3.9375,-1.84375 z m -38.8125,0.375 2.625,0 c 1.1355788,2e-5 1.9010249,0.25839 2.375,0.6875 0.475846,0.41876 0.749989,1.07319 0.75,2.0625 -1.08e-5,0.98933 -0.2616549,1.61972 -0.75,2.0625 -0.4739706,0.42913 -1.2394253,0.68751 -2.375,0.6875 l -2.625,0 0,-5.5 z"
         inkscape:connector-curvature="0" />
    </g>
    <g
       id="g12646"
       transform="translate(37.1982,-24)">
      <path
         id="path11750"
         style="fill:#000000;fill-opacity:0.70588235;stroke:none"
         d="m 88.0625,62.375 c -4.416,0 -7.999999,3.583999 -8,8 0,2.386924 1.059142,4.502566 2.71875,5.96875 -1.348763,-1.43224 -2.1875,-3.347647 -2.1875,-5.46875 0,-4.415999 3.584,-8 8,-8 1.932,0 3.679453,0.670953 5.0625,1.8125 -1.444113,-1.420509 -3.409612,-2.312501 -5.59375,-2.3125 z"
         inkscape:connector-curvature="0" />
      <path
         id="path11759"
         style="fill:#ffffff;fill-opacity:0.70588235;stroke:none"
         d="m 89.069745,79.352569 c 4.416001,0 7.999999,-3.583999 8.000005,-8.000001 -10e-7,-2.386925 -1.059149,-4.502565 -2.718754,-5.968749 1.348758,1.432241 2.187501,3.347646 2.187503,5.468748 -3e-6,4.416001 -3.584004,8.000001 -8.000003,8.000001 -1.932001,0 -3.679454,-0.670953 -5.062496,-1.812499 1.444109,1.420509 3.409608,2.3125 5.593745,2.3125 z"
         inkscape:connector-curvature="0" />
    </g>
    <g
       id="g12650"
       transform="translate(210.8537,-23.945)">
      <path
         id="path12652"
         style="fill:#000000;fill-opacity:0.70588235;stroke:none"
         d="m 88.0625,62.375 c -4.416,0 -7.999999,3.583999 -8,8 0,2.386924 1.059142,4.502566 2.71875,5.96875 -1.348763,-1.43224 -2.1875,-3.347647 -2.1875,-5.46875 0,-4.415999 3.584,-8 8,-8 1.932,0 3.679453,0.670953 5.0625,1.8125 -1.444113,-1.420509 -3.409612,-2.312501 -5.59375,-2.3125 z"
         inkscape:connector-curvature="0" />
      <path
         id="path12654"
         style="fill:#ffffff;fill-opacity:0.70588235;stroke:none"
         d="m 89.069745,79.352569 c 4.416001,0 7.999999,-3.583999 8.000005,-8.000001 -10e-7,-2.386925 -1.059149,-4.502565 -2.718754,-5.968749 1.348758,1.432241 2.187501,3.347646 2.187503,5.468748 -3e-6,4.416001 -3.584004,8.000001 -8.000003,8.000001 -1.932001,0 -3.679454,-0.670953 -5.062496,-1.812499 1.444109,1.420509 3.409608,2.3125 5.593745,2.3125 z"
         inkscape:connector-curvature="0" />
    </g>
    <g
       id="g13551"
       transform="translate(37.1982,-24)">
      <path
         id="rect12658"
         style="fill:#000000;fill-opacity:0.70588235;stroke:none"
         d="m 121.4375,69.96875 c -2.00765,0 -3.625,1.617345 -3.625,3.625 l 0,5.15625 c 0,1.206662 0.59822,2.248296 1.5,2.90625 -0.38049,-0.573627 -0.625,-1.257168 -0.625,-2 l 0,-5.15625 c 0,-2.007655 1.61735,-3.625 3.625,-3.625 l 5.15625,0 c 0.75287,0 1.45305,0.203768 2.03125,0.59375 -0.65796,-0.901775 -1.69959,-1.5 -2.90625,-1.5 l -5.15625,0 z"
         inkscape:connector-curvature="0" />
      <path
         id="path12664"
         style="fill:#ffffff;fill-opacity:0.70588235;stroke:none"
         d="m 128.35778,84.153545 c 2.00765,0 3.625,-1.617345 3.625,-3.625 l 0,-5.15625 c 0,-1.206662 -0.59822,-2.248296 -1.5,-2.90625 0.38049,0.573627 0.625,1.257168 0.625,2 l 0,5.15625 c 0,2.007655 -1.61735,3.625 -3.625,3.625 l -5.15625,0 c -0.75287,0 -1.45305,-0.203768 -2.03125,-0.59375 0.65796,0.901775 1.69959,1.5 2.90625,1.5 l 5.15625,0 z"
         inkscape:connector-curvature="0" />
    </g>
    <g
       id="g13555"
       transform="translate(138.1849,-24)">
      <path
         id="path13557"
         style="fill:#000000;fill-opacity:0.70588235;stroke:none"
         d="m 121.4375,69.96875 c -2.00765,0 -3.625,1.617345 -3.625,3.625 l 0,5.15625 c 0,1.206662 0.59822,2.248296 1.5,2.90625 -0.38049,-0.573627 -0.625,-1.257168 -0.625,-2 l 0,-5.15625 c 0,-2.007655 1.61735,-3.625 3.625,-3.625 l 5.15625,0 c 0.75287,0 1.45305,0.203768 2.03125,0.59375 -0.65796,-0.901775 -1.69959,-1.5 -2.90625,-1.5 l -5.15625,0 z"
         inkscape:connector-curvature="0" />
      <path
         id="path13559"
         style="fill:#ffffff;fill-opacity:0.70588235;stroke:none"
         d="m 128.35778,84.153545 c 2.00765,0 3.625,-1.617345 3.625,-3.625 l 0,-5.15625 c 0,-1.206662 -0.59822,-2.248296 -1.5,-2.90625 0.38049,0.573627 0.625,1.257168 0.625,2 l 0,5.15625 c 0,2.007655 -1.61735,3.625 -3.625,3.625 l -5.15625,0 c -0.75287,0 -1.45305,-0.203768 -2.03125,-0.59375 0.65796,0.901775 1.69959,1.5 2.90625,1.5 l 5.15625,0 z"
         inkscape:connector-curvature="0" />
    </g>
    <g
       id="g22473"
       transform="translate(37.1982,-24)">
      <path
         id="path20700"
         style="fill:#8da370;fill-opacity:1;fill-rule:evenodd;stroke:none"
         d="m 166.52559,70.866144 -21.25,7.0625 21.25,7.09375 17.71875,0 -10.59375,-3.53125 31.84375,0 -3.53125,-3.5625 3.53125,-3.53125 -31.875,0 10.625,-3.53125 -17.71875,0 z"
         inkscape:connector-curvature="0" />
      <path
         id="path18027"
         style="fill:#ffffff;fill-opacity:0.70588235;fill-rule:evenodd;stroke:none"
         d="m 166.53125,70.875 -21.25,7.0625 1.59375,0.53125 20.71875,-6.875 14.5,0 2.15625,-0.71875 -17.71875,0 z m 10.3125,3.53125 -2.15625,0.71875 30.09375,0 0.71875,-0.71875 -28.65625,0 z m -2.125,7.8125 8.4375,2.8125 1.09375,0 -8.4375,-2.8125 -1.09375,0 z"
         inkscape:connector-curvature="0" />
      <path
         id="path19809"
         style="fill:#000000;fill-opacity:0.70588235;fill-rule:evenodd;stroke:none"
         d="m 181.02559,70.883122 -8.46875,2.8125 3.21875,0 8.46875,-2.8125 -3.21875,0 z m 22.6875,3.53125 -2.8125,2.8125 3.53125,3.5625 -31.84375,0 2.15625,0.71875 30.75,0 -3.53125,-3.5625 3.53125,-3.53125 -1.78125,0 z m -57.90625,3.34375 -0.53125,0.1875 21.25,7.09375 17.71875,0 -2.15625,-0.71875 -16.625,0 -19.65625,-6.5625 z"
         inkscape:connector-curvature="0" />
    </g>
    <g
       id="g32246"
       transform="matrix(-1.000091,0,0,-1,93.89629,542.9636)">
      <path
         id="path22484"
         style="fill:#808080;fill-opacity:1;fill-rule:nonzero;stroke:none;stroke-width:2.1169126;marker:none;visibility:visible;display:inline;overflow:visible"
         transform="matrix(1.429888,0,0,1.558976,23.9004,-139.0602)"
         d="m 20.455589,277.84558 c 0,2.51051 -2.218904,4.54569 -4.956061,4.54569 -2.737157,0 -4.956061,-2.03518 -4.956061,-4.54569 0,-2.51051 2.218904,-4.54569 4.956061,-4.54569 2.737157,0 4.956061,2.03518 4.956061,4.54569 z"
         inkscape:connector-curvature="0" />
      <path
         id="path22486"
         style="fill:#181818;fill-opacity:1;fill-rule:nonzero;stroke:none;stroke-width:2.1169126;marker:none;visibility:visible;display:inline;overflow:visible"
         transform="matrix(1.608624,0,0,1.753848,21.13008,-193.2045)"
         d="m 20.455589,277.84558 c 0,2.50922 -2.220315,4.54569 -4.956061,4.54569 -2.735746,0 -4.956061,-2.03647 -4.956061,-4.54569 0,-2.50922 2.220315,-4.54569 4.956061,-4.54569 2.735746,0 4.956061,2.03647 4.956061,4.54569 z"
         inkscape:connector-curvature="0" />
      <path
         id="path22488"
         style="fill:url(#linearGradient40455);fill-opacity:1;fill-rule:nonzero;stroke:none;stroke-width:2.1169126;marker:none;visibility:visible;display:inline;overflow:visible"
         transform="matrix(1.429888,0,0,1.558976,23.9004,-139.0602)"
         d="m 20.455589,277.84558 c 0,2.50922 -2.220315,4.54569 -4.956061,4.54569 -2.735746,0 -4.956061,-2.03647 -4.956061,-4.54569 0,-2.50922 2.220315,-4.54569 4.956061,-4.54569 2.735746,0 4.956061,2.03647 4.956061,4.54569 z"
         inkscape:connector-curvature="0" />
      <path
         id="path22490"
         style="fill:#181818;fill-opacity:1;fill-rule:evenodd;stroke:none"
         d="m 48.568485,299.10542 c -2.505498,-2.5055 -2.505498,-2.5055 -5.010995,0 -2.505498,-2.5055 0,0 -2.505498,-2.5055 2.505496,-2.50549 2.505496,-2.50549 5e-6,-5.01099 2.505496,-2.50549 0,0 2.505496,-2.50549 2.505491,2.50549 2.505491,2.50549 5.010987,-10e-6 2.505499,2.5055 0,0 2.505499,2.5055 -2.505496,2.5055 -2.505496,2.5055 2e-6,5.011 -2.505496,2.50549 0,0 -2.505496,2.50549 z"
         inkscape:connector-curvature="0" />
      <path
         id="path24264"
         style="fill:none;stroke:#404040;stroke-width:1.41725862;stroke-linecap:round;stroke-linejoin:round;stroke-miterlimit:4;stroke-opacity:1;stroke-dasharray:none"
         d="m 43.728347,296.42911 4.669292,-4.6693"
         inkscape:connector-curvature="0" />
      <path
         id="path26921"
         style="fill:none;stroke:#404040;stroke-width:1.41725862;stroke-linecap:round;stroke-linejoin:round;stroke-miterlimit:4;stroke-opacity:1;stroke-dasharray:none"
         d="m 48.397639,296.42911 -4.669292,-4.6693"
         inkscape:connector-curvature="0" />
      <path
         id="path28697"
         style="fill:#ffffff;fill-opacity:0.70588235;fill-rule:nonzero;stroke:none;stroke-width:2.1169126;marker:none;visibility:visible;display:inline;overflow:visible"
         d="m 45.35064,285.48229 c -4.400786,0 -7.968749,3.56797 -7.96875,7.96875 0,2.28699 0.986997,4.327 2.53125,5.78125 -1.137614,-1.37828 -1.8125,-3.13716 -1.8125,-5.0625 1e-6,-4.4008 3.567964,-7.96875 7.96875,-7.96875 1.925344,-10e-6 3.684218,0.67488 5.0625,1.8125 -1.454247,-1.54425 -3.494259,-2.53125 -5.78125,-2.53125 z"
         inkscape:connector-curvature="0" />
      <path
         id="path30472"
         style="fill:#000000;fill-opacity:0.70588235;fill-rule:nonzero;stroke:none;stroke-width:2.1169126;marker:none;visibility:visible;display:inline;overflow:visible"
         d="m 46.777313,302.77559 c 4.400786,0 7.968749,-3.56797 7.96875,-7.96875 0,-2.28699 -0.986997,-4.327 -2.53125,-5.78125 1.137614,1.37828 1.8125,3.13716 1.8125,5.0625 -10e-7,4.4008 -3.567964,7.96875 -7.96875,7.96875 -1.925344,10e-6 -3.684218,-0.67488 -5.0625,-1.8125 1.454247,1.54425 3.494259,2.53125 5.78125,2.53125 z"
         inkscape:connector-curvature="0" />
    </g>
    <g
       id="g32294"
       transform="matrix(-1.000091,0,0,-1,423.4239,542.9636)">
      <path
         id="path32296"
         style="fill:#808080;fill-opacity:1;fill-rule:nonzero;stroke:none;stroke-width:2.1169126;marker:none;visibility:visible;display:inline;overflow:visible"
         transform="matrix(1.429888,0,0,1.558976,23.9004,-139.0602)"
         d="m 20.455589,277.84558 c 0,2.51051 -2.218904,4.54569 -4.956061,4.54569 -2.737157,0 -4.956061,-2.03518 -4.956061,-4.54569 0,-2.51051 2.218904,-4.54569 4.956061,-4.54569 2.737157,0 4.956061,2.03518 4.956061,4.54569 z"
         inkscape:connector-curvature="0" />
      <path
         id="path32298"
         style="fill:#181818;fill-opacity:1;fill-rule:nonzero;stroke:none;stroke-width:2.1169126;marker:none;visibility:visible;display:inline;overflow:visible"
         transform="matrix(1.608624,0,0,1.753848,21.13008,-193.2045)"
         d="m 20.455589,277.84558 c 0,2.50922 -2.220315,4.54569 -4.956061,4.54569 -2.735746,0 -4.956061,-2.03647 -4.956061,-4.54569 0,-2.50922 2.220315,-4.54569 4.956061,-4.54569 2.735746,0 4.956061,2.03647 4.956061,4.54569 z"
         inkscape:connector-curvature="0" />
      <path
         id="path32300"
         style="fill:url(#linearGradient40457);fill-opacity:1;fill-rule:nonzero;stroke:none;stroke-width:2.1169126;marker:none;visibility:visible;display:inline;overflow:visible"
         transform="matrix(1.429888,0,0,1.558976,23.9004,-139.0602)"
         d="m 20.455589,277.84558 c 0,2.50922 -2.220315,4.54569 -4.956061,4.54569 -2.735746,0 -4.956061,-2.03647 -4.956061,-4.54569 0,-2.50922 2.220315,-4.54569 4.956061,-4.54569 2.735746,0 4.956061,2.03647 4.956061,4.54569 z"
         inkscape:connector-curvature="0" />
      <path
         id="path32302"
         style="fill:#181818;fill-opacity:1;fill-rule:evenodd;stroke:none"
         d="m 48.568485,299.10542 c -2.505498,-2.5055 -2.505498,-2.5055 -5.010995,0 -2.505498,-2.5055 0,0 -2.505498,-2.5055 2.505496,-2.50549 2.505496,-2.50549 5e-6,-5.01099 2.505496,-2.50549 0,0 2.505496,-2.50549 2.505491,2.50549 2.505491,2.50549 5.010987,-10e-6 2.505499,2.5055 0,0 2.505499,2.5055 -2.505496,2.5055 -2.505496,2.5055 2e-6,5.011 -2.505496,2.50549 0,0 -2.505496,2.50549 z"
         inkscape:connector-curvature="0" />
      <path
         id="path32304"
         style="fill:none;stroke:#404040;stroke-width:1.41725862;stroke-linecap:round;stroke-linejoin:round;stroke-miterlimit:4;stroke-opacity:1;stroke-dasharray:none"
         d="m 43.728347,296.42911 4.669292,-4.6693"
         inkscape:connector-curvature="0" />
      <path
         id="path32306"
         style="fill:none;stroke:#404040;stroke-width:1.41725862;stroke-linecap:round;stroke-linejoin:round;stroke-miterlimit:4;stroke-opacity:1;stroke-dasharray:none"
         d="m 48.397639,296.42911 -4.669292,-4.6693"
         inkscape:connector-curvature="0" />
      <path
         id="path32308"
         style="fill:#ffffff;fill-opacity:0.70588235;fill-rule:nonzero;stroke:none;stroke-width:2.1169126;marker:none;visibility:visible;display:inline;overflow:visible"
         d="m 45.35064,285.48229 c -4.400786,0 -7.968749,3.56797 -7.96875,7.96875 0,2.28699 0.986997,4.327 2.53125,5.78125 -1.137614,-1.37828 -1.8125,-3.13716 -1.8125,-5.0625 1e-6,-4.4008 3.567964,-7.96875 7.96875,-7.96875 1.925344,-10e-6 3.684218,0.67488 5.0625,1.8125 -1.454247,-1.54425 -3.494259,-2.53125 -5.78125,-2.53125 z"
         inkscape:connector-curvature="0" />
      <path
         id="path32310"
         style="fill:#000000;fill-opacity:0.70588235;fill-rule:nonzero;stroke:none;stroke-width:2.1169126;marker:none;visibility:visible;display:inline;overflow:visible"
         d="m 46.777313,302.77559 c 4.400786,0 7.968749,-3.56797 7.96875,-7.96875 0,-2.28699 -0.986997,-4.327 -2.53125,-5.78125 1.137614,1.37828 1.8125,3.13716 1.8125,5.0625 -10e-7,4.4008 -3.567964,7.96875 -7.96875,7.96875 -1.925344,10e-6 -3.684218,-0.67488 -5.0625,-1.8125 1.454247,1.54425 3.494259,2.53125 5.78125,2.53125 z"
         inkscape:connector-curvature="0" />
    </g>
    <g
       id="g32314"
       transform="matrix(-1.000091,0,0,-1,423.4239,340.9951)">
      <path
         id="path32316"
         style="fill:#808080;fill-opacity:1;fill-rule:nonzero;stroke:none;stroke-width:2.1169126;marker:none;visibility:visible;display:inline;overflow:visible"
         transform="matrix(1.429888,0,0,1.558976,23.9004,-139.0602)"
         d="m 20.455589,277.84558 c 0,2.51051 -2.218904,4.54569 -4.956061,4.54569 -2.737157,0 -4.956061,-2.03518 -4.956061,-4.54569 0,-2.51051 2.218904,-4.54569 4.956061,-4.54569 2.737157,0 4.956061,2.03518 4.956061,4.54569 z"
         inkscape:connector-curvature="0" />
      <path
         id="path32318"
         style="fill:#181818;fill-opacity:1;fill-rule:nonzero;stroke:none;stroke-width:2.1169126;marker:none;visibility:visible;display:inline;overflow:visible"
         transform="matrix(1.608624,0,0,1.753848,21.13008,-193.2045)"
         d="m 20.455589,277.84558 c 0,2.50922 -2.220315,4.54569 -4.956061,4.54569 -2.735746,0 -4.956061,-2.03647 -4.956061,-4.54569 0,-2.50922 2.220315,-4.54569 4.956061,-4.54569 2.735746,0 4.956061,2.03647 4.956061,4.54569 z"
         inkscape:connector-curvature="0" />
      <path
         id="path32320"
         style="fill:url(#linearGradient40459);fill-opacity:1;fill-rule:nonzero;stroke:none;stroke-width:2.1169126;marker:none;visibility:visible;display:inline;overflow:visible"
         transform="matrix(1.429888,0,0,1.558976,23.9004,-139.0602)"
         d="m 20.455589,277.84558 c 0,2.50922 -2.220315,4.54569 -4.956061,4.54569 -2.735746,0 -4.956061,-2.03647 -4.956061,-4.54569 0,-2.50922 2.220315,-4.54569 4.956061,-4.54569 2.735746,0 4.956061,2.03647 4.956061,4.54569 z"
         inkscape:connector-curvature="0" />
      <path
         id="path32322"
         style="fill:#181818;fill-opacity:1;fill-rule:evenodd;stroke:none"
         d="m 48.568485,299.10542 c -2.505498,-2.5055 -2.505498,-2.5055 -5.010995,0 -2.505498,-2.5055 0,0 -2.505498,-2.5055 2.505496,-2.50549 2.505496,-2.50549 5e-6,-5.01099 2.505496,-2.50549 0,0 2.505496,-2.50549 2.505491,2.50549 2.505491,2.50549 5.010987,-10e-6 2.505499,2.5055 0,0 2.505499,2.5055 -2.505496,2.5055 -2.505496,2.5055 2e-6,5.011 -2.505496,2.50549 0,0 -2.505496,2.50549 z"
         inkscape:connector-curvature="0" />
      <path
         id="path32324"
         style="fill:none;stroke:#404040;stroke-width:1.41725862;stroke-linecap:round;stroke-linejoin:round;stroke-miterlimit:4;stroke-opacity:1;stroke-dasharray:none"
         d="m 43.728347,296.42911 4.669292,-4.6693"
         inkscape:connector-curvature="0" />
      <path
         id="path32326"
         style="fill:none;stroke:#404040;stroke-width:1.41725862;stroke-linecap:round;stroke-linejoin:round;stroke-miterlimit:4;stroke-opacity:1;stroke-dasharray:none"
         d="m 48.397639,296.42911 -4.669292,-4.6693"
         inkscape:connector-curvature="0" />
      <path
         id="path32328"
         style="fill:#ffffff;fill-opacity:0.70588235;fill-rule:nonzero;stroke:none;stroke-width:2.1169126;marker:none;visibility:visible;display:inline;overflow:visible"
         d="m 45.35064,285.48229 c -4.400786,0 -7.968749,3.56797 -7.96875,7.96875 0,2.28699 0.986997,4.327 2.53125,5.78125 -1.137614,-1.37828 -1.8125,-3.13716 -1.8125,-5.0625 1e-6,-4.4008 3.567964,-7.96875 7.96875,-7.96875 1.925344,-10e-6 3.684218,0.67488 5.0625,1.8125 -1.454247,-1.54425 -3.494259,-2.53125 -5.78125,-2.53125 z"
         inkscape:connector-curvature="0" />
      <path
         id="path32330"
         style="fill:#000000;fill-opacity:0.70588235;fill-rule:nonzero;stroke:none;stroke-width:2.1169126;marker:none;visibility:visible;display:inline;overflow:visible"
         d="m 46.777313,302.77559 c 4.400786,0 7.968749,-3.56797 7.96875,-7.96875 0,-2.28699 -0.986997,-4.327 -2.53125,-5.78125 1.137614,1.37828 1.8125,3.13716 1.8125,5.0625 -10e-7,4.4008 -3.567964,7.96875 -7.96875,7.96875 -1.925344,10e-6 -3.684218,-0.67488 -5.0625,-1.8125 1.454247,1.54425 3.494259,2.53125 5.78125,2.53125 z"
         inkscape:connector-curvature="0" />
    </g>
    <g
       id="g32334"
       transform="matrix(-1.000091,0,0,-1,93.89629,340.9951)">
      <path
         id="path32336"
         style="fill:#808080;fill-opacity:1;fill-rule:nonzero;stroke:none;stroke-width:2.1169126;marker:none;visibility:visible;display:inline;overflow:visible"
         transform="matrix(1.429888,0,0,1.558976,23.9004,-139.0602)"
         d="m 20.455589,277.84558 c 0,2.51051 -2.218904,4.54569 -4.956061,4.54569 -2.737157,0 -4.956061,-2.03518 -4.956061,-4.54569 0,-2.51051 2.218904,-4.54569 4.956061,-4.54569 2.737157,0 4.956061,2.03518 4.956061,4.54569 z"
         inkscape:connector-curvature="0" />
      <path
         id="path32338"
         style="fill:#181818;fill-opacity:1;fill-rule:nonzero;stroke:none;stroke-width:2.1169126;marker:none;visibility:visible;display:inline;overflow:visible"
         transform="matrix(1.608624,0,0,1.753848,21.13008,-193.2045)"
         d="m 20.455589,277.84558 c 0,2.50922 -2.220315,4.54569 -4.956061,4.54569 -2.735746,0 -4.956061,-2.03647 -4.956061,-4.54569 0,-2.50922 2.220315,-4.54569 4.956061,-4.54569 2.735746,0 4.956061,2.03647 4.956061,4.54569 z"
         inkscape:connector-curvature="0" />
      <path
         id="path32340"
         style="fill:url(#linearGradient40461);fill-opacity:1;fill-rule:nonzero;stroke:none;stroke-width:2.1169126;marker:none;visibility:visible;display:inline;overflow:visible"
         transform="matrix(1.429888,0,0,1.558976,23.9004,-139.0602)"
         d="m 20.455589,277.84558 c 0,2.50922 -2.220315,4.54569 -4.956061,4.54569 -2.735746,0 -4.956061,-2.03647 -4.956061,-4.54569 0,-2.50922 2.220315,-4.54569 4.956061,-4.54569 2.735746,0 4.956061,2.03647 4.956061,4.54569 z"
         inkscape:connector-curvature="0" />
      <path
         id="path32342"
         style="fill:#181818;fill-opacity:1;fill-rule:evenodd;stroke:none"
         d="m 48.568485,299.10542 c -2.505498,-2.5055 -2.505498,-2.5055 -5.010995,0 -2.505498,-2.5055 0,0 -2.505498,-2.5055 2.505496,-2.50549 2.505496,-2.50549 5e-6,-5.01099 2.505496,-2.50549 0,0 2.505496,-2.50549 2.505491,2.50549 2.505491,2.50549 5.010987,-10e-6 2.505499,2.5055 0,0 2.505499,2.5055 -2.505496,2.5055 -2.505496,2.5055 2e-6,5.011 -2.505496,2.50549 0,0 -2.505496,2.50549 z"
         inkscape:connector-curvature="0" />
      <path
         id="path32344"
         style="fill:none;stroke:#404040;stroke-width:1.41725862;stroke-linecap:round;stroke-linejoin:round;stroke-miterlimit:4;stroke-opacity:1;stroke-dasharray:none"
         d="m 43.728347,296.42911 4.669292,-4.6693"
         inkscape:connector-curvature="0" />
      <path
         id="path32346"
         style="fill:none;stroke:#404040;stroke-width:1.41725862;stroke-linecap:round;stroke-linejoin:round;stroke-miterlimit:4;stroke-opacity:1;stroke-dasharray:none"
         d="m 48.397639,296.42911 -4.669292,-4.6693"
         inkscape:connector-curvature="0" />
      <path
         id="path32348"
         style="fill:#ffffff;fill-opacity:0.70588235;fill-rule:nonzero;stroke:none;stroke-width:2.1169126;marker:none;visibility:visible;display:inline;overflow:visible"
         d="m 45.35064,285.48229 c -4.400786,0 -7.968749,3.56797 -7.96875,7.96875 0,2.28699 0.986997,4.327 2.53125,5.78125 -1.137614,-1.37828 -1.8125,-3.13716 -1.8125,-5.0625 1e-6,-4.4008 3.567964,-7.96875 7.96875,-7.96875 1.925344,-10e-6 3.684218,0.67488 5.0625,1.8125 -1.454247,-1.54425 -3.494259,-2.53125 -5.78125,-2.53125 z"
         inkscape:connector-curvature="0" />
      <path
         id="path32350"
         style="fill:#000000;fill-opacity:0.70588235;fill-rule:nonzero;stroke:none;stroke-width:2.1169126;marker:none;visibility:visible;display:inline;overflow:visible"
         d="m 46.777313,302.77559 c 4.400786,0 7.968749,-3.56797 7.96875,-7.96875 0,-2.28699 -0.986997,-4.327 -2.53125,-5.78125 1.137614,1.37828 1.8125,3.13716 1.8125,5.0625 -10e-7,4.4008 -3.567964,7.96875 -7.96875,7.96875 -1.925344,10e-6 -3.684218,-0.67488 -5.0625,-1.8125 1.454247,1.54425 3.494259,2.53125 5.78125,2.53125 z"
         inkscape:connector-curvature="0" />
    </g>
    <path
       id="path2178"
       style="fill:#303030;fill-opacity:1;stroke:none"
       d="m 63.795026,100.01711 0,28.34375 297.593744,0 0,-28.34375 -297.593744,0 z m 17.09375,1.21875 c 2.162659,0 4.005536,0.62576 5.28125,1.78125 1.275712,1.1555 1.968752,2.83915 1.96875,4.84375 0,0.92692 -0.135595,2.15187 -0.28125,2.84375 l -0.0625,0.3125 -1.28125,6.8125 c -0.531892,2.89217 -1.450496,4.91923 -3,6.46875 -1.799932,1.83455 -4.395684,2.84374 -7.1875,2.84375 -2.189114,0 -4.088751,-0.67799 -5.375,-2 -1.09494,-1.09494 -1.750002,-2.75881 -1.75,-4.28125 0,-0.7637 0.138408,-2.46439 0.28125,-3.25 l 1.28125,-6.8125 c 0.499974,-2.73318 1.42512,-4.9378 2.71875,-6.40625 1.792563,-2.06834 4.388961,-3.15624 7.40625,-3.15625 z m 18.71875,0.40625 2.750004,0 c 0.19745,3.8e-4 0.38356,0.10311 0.46875,0.28125 0.0852,0.17812 0.0611,0.40855 -0.0625,0.5625 l -6.062504,7 c 0.471362,-0.0943 0.911473,-0.15625 1.40625,-0.15625 3.839784,0 6.718754,2.98597 6.718754,6.96875 0,5.84106 -4.7013,10.84374 -10.281254,10.84375 -2.16143,0 -4.048799,-0.71461 -5.375,-1.96875 -1.326198,-1.25413 -2.062497,-3.04825 -2.0625,-5.125 0,-1.61217 0.377344,-3.22057 1.09375,-4.6875 0.667411,-1.36819 1.223135,-2.11338 3.40625,-4.6875 l 7.59375,-8.84375 c 0.0993,-0.11723 0.25263,-0.18975 0.40625,-0.1875 z m 179.968744,2.53125 3.5625,0 1.875,2.65625 c 0.0716,-0.007 0.14714,0 0.21875,0 0.0716,-0.007 0.181,0 0.34375,0 0.73567,-1e-5 1.44271,0.0794 2.09375,0.28125 0.65104,0.20182 1.2474,0.50911 1.78125,0.90625 0.71613,0.52734 1.28386,1.21745 1.6875,2.03125 0.39713,0.8203 0.59375,1.694 0.59375,2.625 -1e-5,1.1914 -0.20443,2.28905 -0.5625,3.34375 -0.3646,1.06119 -0.87239,2.03515 -1.5625,2.875 -0.83986,1.03514 -1.82291,1.77993 -2.96875,2.28125 -1.15235,0.5078 -2.51431,0.78123 -4.03125,0.78125 -1.94011,-2e-5 -3.47785,-0.54428 -4.65625,-1.625 -1.18489,-1.07424 -1.78123,-2.48048 -1.78125,-4.21875 0,-2.04428 0.50393,-3.83203 1.5,-5.375 0.9896,-1.53647 2.35418,-2.67188 4.125,-3.375 l -2.21875,-3.1875 z m -199.124994,0.25 c -1.995323,0 -3.673858,0.88172 -4.75,2.40625 -0.632085,0.89067 -1.210525,2.58185 -1.59375,4.59375 l -1.09375,5.84375 c -0.19274,1.1243 -0.281251,1.93982 -0.28125,2.78125 0,1.23197 0.206693,1.83628 0.84375,2.53125 0.0127,0.0115 0.01976,0.0498 0.03125,0.0625 0.735271,0.82011 1.846216,1.25 3.15625,1.25 1.881473,0 3.888562,-0.94666 4.875,-2.28125 0.625632,-0.85313 1.277462,-2.66716 1.625,-4.53125 l 1.09375,-5.875 c 0.05556,-0.25928 0.249999,-2.49672 0.25,-2.875 0,-1.17778 -0.413398,-2.13856 -1.125,-2.8125 -0.711602,-0.67393 -1.759174,-1.09374 -3.03125,-1.09375 z m 46.875004,2.40625 c 1.9336,-1e-5 3.47786,0.51953 4.65625,1.59375 1.17839,1.07422 1.78126,2.5052 1.78125,4.25 2e-5,1.1914 -0.20443,2.28905 -0.5625,3.34375 -0.35807,1.05468 -0.86588,2.02864 -1.5625,2.875 -0.83332,1.02863 -1.8164,1.77342 -2.96875,2.28125 -1.15884,0.5078 -2.52082,0.78123 -4.03125,0.78125 -1.94009,-2e-5 -3.47785,-0.54428 -4.65625,-1.625 -1.18488,-1.07424 -1.78123,-2.48048 -1.78125,-4.21875 2e-5,-1.18491 0.16668,-2.32032 0.53125,-3.375 0.35809,-1.05469 0.90367,-1.97266 1.59375,-2.8125 0.84637,-1.03516 1.84116,-1.82943 3,-2.34375 1.15235,-0.50781 2.48959,-0.75 4,-0.75 z m 40.8125,0 c 1.72527,-1e-5 3.03907,0.35807 3.9375,1.09375 0.89845,0.74219 1.34375,1.81249 1.34375,3.21875 1e-5,0.23437 0.001,0.49478 -0.0312,0.78125 -0.0325,0.29296 -0.0846,0.64713 -0.15625,1.03125 l -1.71875,8.71875 -3.75,0 1.6875,-8.71875 c 0.0651,-0.31251 0.1237,-0.60287 0.15625,-0.84375 0.0261,-0.24089 0.0313,-0.44271 0.0312,-0.625 2e-5,-0.63802 -0.16145,-1.1185 -0.5,-1.4375 -0.34504,-0.31251 -0.85416,-0.46876 -1.53125,-0.46875 -0.91144,-1e-5 -1.60546,0.27344 -2.09375,0.78125 -0.48826,0.51431 -0.85936,1.3763 -1.09375,2.59375 l -1.6875,8.71875 -3.75,0 1.6875,-8.71875 c 0.4232,-2.14844 1.22136,-3.71745 2.40625,-4.6875 1.1784,-0.96355 2.86198,-1.4375 5.0625,-1.4375 z m 100.68749,0 c 1.72525,-1e-5 3.00781,0.35807 3.90625,1.09375 0.89842,0.74219 1.375,1.81249 1.375,3.21875 -1e-5,0.23437 -0.0299,0.49478 -0.0625,0.78125 -0.0326,0.29296 -0.0846,0.64713 -0.15625,1.03125 l -1.6875,8.71875 -3.78125,0 1.71875,-8.71875 c 0.0651,-0.31251 0.0925,-0.60287 0.125,-0.84375 0.026,-0.24089 0.0625,-0.44271 0.0625,-0.625 10e-6,-0.63802 -0.1927,-1.1185 -0.53125,-1.4375 -0.34506,-0.31251 -0.85416,-0.46876 -1.53125,-0.46875 -0.91146,-1e-5 -1.60546,0.27344 -2.09375,0.78125 -0.48828,0.51431 -0.85937,1.3763 -1.09375,2.59375 l -1.6875,8.71875 -3.75,0 1.6875,-8.71875 c 0.42318,-2.14844 1.22137,-3.71745 2.40625,-4.6875 1.17839,-0.96355 2.89324,-1.4375 5.09375,-1.4375 z m 56.34375,0 c 2.0703,-1e-5 3.72136,0.51432 4.90625,1.5625 1.1849,1.05468 1.75,2.49609 1.75,4.3125 -2e-5,1.17838 -0.16016,2.28384 -0.53125,3.3125 -0.37112,1.03514 -0.95182,1.95962 -1.6875,2.8125 -0.89845,1.04165 -1.9388,1.82942 -3.15625,2.34375 -1.22395,0.51431 -2.61848,0.78123 -4.1875,0.78125 -0.87241,-2e-5 -1.77082,-0.099 -2.65625,-0.28125 -0.88542,-0.18231 -1.73436,-0.45444 -2.59375,-0.8125 l 0.5625,-3 c 0.79428,0.46222 1.58204,0.80337 2.34375,1.03125 0.7552,0.22785 1.51304,0.34374 2.28125,0.34375 1.6797,-1e-5 3.03907,-0.56772 4.09375,-1.6875 1.05467,-1.1198 1.59375,-2.55469 1.59375,-4.3125 -2e-5,-1.16538 -0.32552,-2.07422 -0.9375,-2.71875 -0.6185,-0.64453 -1.47395,-0.96875 -2.59375,-0.96875 -0.3646,-1e-5 -0.72916,0.0169 -1.09375,0.0625 -0.3646,0.0521 -0.72264,0.14583 -1.09375,0.25 l -0.5625,2.8125 2.28125,0 -0.46875,2.53125 -5.84375,0 1.375,-7 c 0.95051,-0.46224 1.91538,-0.83464 2.9375,-1.0625 1.02212,-0.22136 2.11589,-0.3125 3.28125,-0.3125 z m -187.40624,0.28125 3.75,0 -2.84375,14.5625 -3.75,0 2.84375,-14.5625 z m 16.375,0 3.96875,0 -2.84375,14.5625 -3.9375,0 c -1.888,-2e-5 -3.30598,-0.1159 -4.25,-0.34375 -0.94399,-0.22137 -1.71874,-0.56642 -2.34375,-1.09375 -0.63148,-0.52736 -1.11847,-1.1823 -1.4375,-1.9375 -0.31898,-0.74872 -0.46873,-1.61199 -0.46875,-2.5625 3e-5,-1.32163 0.26564,-2.54688 0.8125,-3.71875 0.54039,-1.16537 1.29819,-2.14323 2.28125,-2.9375 0.8594,-0.70964 1.86069,-1.23178 3,-1.53125 1.13283,-0.29948 2.86198,-0.4375 5.21875,-0.4375 z m 21.40625,0 3.5625,0 0.4375,2.65625 5.8125,0 1.4375,-2.65625 3.875,0 -8.25,14.5625 -4.3125,0 -2.5625,-14.5625 z m 27.46875,0 3.74999,0 -1.18749,6.09375 3.93749,8.375 0.53125,-2.75 4.84375,0 2.28125,-11.71875 3.75,0 -2.28125,11.71875 4.84375,0 -0.5625,2.84375 -13.375,0 -3.74999,0 -2.5,-5.375 -4.3125,5.375 -4.375,0 7.21875,-8.46875 1.1875,-6.09375 z m 24.71874,0 3.75,0 -2.84375,14.5625 -3.75,0 2.84375,-14.5625 z m 6.125,0 10.34375,0 -2.84375,14.5625 -3.75,0 2.28125,-11.71875 -6.5625,0 0.53125,-2.84375 z m 12.4375,0 3.5625,0 0.40625,2.65625 5.84375,0 1.4375,-2.65625 3.84375,0 -8.21875,14.5625 -4.3125,0 -2.5625,-14.5625 z m 56.375,0 3.78125,0 -1.21875,6.1875 5.53125,0 1.21875,-6.1875 3.75,0 -2.84375,14.5625 -3.75,0 1.09375,-5.53125 -5.5625,0 -1.0625,5.53125 -3.78125,0 2.84375,-14.5625 z m 33.1875,0 3.75,0 -2.84375,14.5625 -3.75,0 2.84375,-14.5625 z m 7.4375,0 3.78125,0 -1.21875,6.1875 5.53125,0 1.21875,-6.1875 3.75,0 -2.84375,14.5625 -3.75,0 1.09375,-5.53125 -5.5625,0 -1.0625,5.53125 -3.78125,0 2.84375,-14.5625 z m -216.40624,2.4375 c -0.74868,-1e-5 -1.42057,0.15625 -2,0.46875 -0.58593,0.319 -1.08984,0.78776 -1.5,1.40625 -0.39062,0.59244 -0.69791,1.2578 -0.90625,2 -0.21483,0.74218 -0.31248,1.49999 -0.3125,2.28125 2e-5,1.14583 0.26043,2.02603 0.78125,2.625 0.51434,0.59895 1.26693,0.90624 2.25,0.90625 1.30209,-1e-5 2.39584,-0.60939 3.28125,-1.78125 0.87892,-1.16538 1.3125,-2.6172 1.3125,-4.375 1e-5,-1.1198 -0.26692,-1.97527 -0.78125,-2.59375 -0.5143,-0.61849 -1.20702,-0.9375 -2.125,-0.9375 z m 157.96874,0 c -0.74868,-1e-5 -1.42057,0.15625 -2,0.46875 -0.58594,0.319 -1.08984,0.78776 -1.5,1.40625 -0.39063,0.59244 -0.69791,1.2578 -0.90625,2 -0.21484,0.74218 -0.31248,1.49999 -0.3125,2.28125 0,1.14583 0.26043,2.02603 0.78125,2.625 0.51432,0.59895 1.26693,0.90624 2.25,0.90625 1.30208,-1e-5 2.39584,-0.60939 3.28125,-1.78125 0.8789,-1.16538 1.3125,-2.6172 1.3125,-4.375 -1e-5,-1.1198 -0.26692,-1.97527 -0.78125,-2.59375 -0.51433,-0.61849 -1.20702,-0.9375 -2.125,-0.9375 z m -132.40624,0.40625 c -1.75129,-1e-5 -3.1341,0.48568 -4.15625,1.46875 -1.02211,0.98306 -1.53124,2.29556 -1.53125,3.96875 2e-5,1.1328 0.32944,2.01431 1,2.59375 0.66408,0.57941 1.65365,0.84374 2.96875,0.84375 l 1.3125,0 1.75,-8.875 -1.34375,0 z m 27.5625,2.46875 0.875,5.59375 3.0625,-5.59375 -3.9375,0 z m 70.74999,0 0.875,5.59375 3.03125,-5.59375 -3.90625,0 z m -153.499994,0.15625 c -3.535946,0 -6.625001,3.18742 -6.625,6.90625 0,1.36686 0.43981,2.45782 1.1875,3.21875 0.747691,0.76092 1.811505,1.18751 3.125,1.1875 2.00828,0 3.82027,-0.99806 4.96875,-2.78125 0.897564,-1.36181 1.375004,-2.81096 1.375004,-4.15625 0,-1.37801 -0.37408,-2.44116 -1.0625,-3.1875 -0.688425,-0.74633 -1.705997,-1.18749 -2.968754,-1.1875 z"
       inkscape:connector-curvature="0" />
  </g>
</svg>
