<?xml version="1.0" encoding="UTF-8" standalone="no"?>
<svg
   xmlns:dc="http://purl.org/dc/elements/1.1/"
   xmlns:cc="http://creativecommons.org/ns#"
   xmlns:rdf="http://www.w3.org/1999/02/22-rdf-syntax-ns#"
   xmlns:svg="http://www.w3.org/2000/svg"
   xmlns="http://www.w3.org/2000/svg"
   xmlns:xlink="http://www.w3.org/1999/xlink"
   xmlns:sodipodi="http://sodipodi.sourceforge.net/DTD/sodipodi-0.dtd"
   xmlns:inkscape="http://www.inkscape.org/namespaces/inkscape"
   width="256pt"
   height="256pt"
   viewBox="0 0 256 256"
   version="1.1"
   id="svg2"
   inkscape:version="0.48.1 "
   sodipodi:docname="mrim-away.svg">
  <metadata
     id="metadata66">
    <rdf:RDF>
      <cc:Work
         rdf:about="">
        <dc:format>image/svg+xml</dc:format>
        <dc:type
           rdf:resource="http://purl.org/dc/dcmitype/StillImage" />
        <dc:title></dc:title>
      </cc:Work>
    </rdf:RDF>
  </metadata>
  <defs
     id="defs64">
    <inkscape:perspective
       sodipodi:type="inkscape:persp3d"
       inkscape:vp_x="0 : 332 : 1"
       inkscape:vp_y="0 : 1000 : 0"
       inkscape:vp_z="443 : 332 : 1"
       inkscape:persp3d-origin="221.5 : 221.33333 : 1"
       id="perspective3265" />
    <inkscape:perspective
       id="perspective23"
       inkscape:persp3d-origin="230.05077 : 64.253571 : 1"
       inkscape:vp_z="460.10153 : 96.380356 : 1"
       inkscape:vp_y="0 : 1000 : 0"
       inkscape:vp_x="0 : 96.380356 : 1"
       sodipodi:type="inkscape:persp3d" />
    <radialGradient
       gradientUnits="userSpaceOnUse"
       gradientTransform="matrix(2.0824918,-6.83348,10.405135,3.1709431,-4768.9247,211.49142)"
       r="185.25969"
       fy="280.71976"
       fx="188.27602"
       cy="280.71976"
       cx="188.27602"
       id="radialGradient3164"
       xlink:href="#linearGradient3158"
       inkscape:collect="always" />
    <inkscape:perspective
       id="perspective15"
       inkscape:persp3d-origin="221.5 : 221.33333 : 1"
       inkscape:vp_z="443 : 332 : 1"
       inkscape:vp_y="0 : 1000 : 0"
       inkscape:vp_x="0 : 332 : 1"
       sodipodi:type="inkscape:persp3d" />
    <linearGradient
       id="linearGradient3158"
       inkscape:collect="always">
      <stop
         id="stop3160"
         offset="0"
         style="stop-color:#ffffff;stop-opacity:1;" />
      <stop
         id="stop3162"
         offset="1"
         style="stop-color:#ffffff;stop-opacity:0;" />
    </linearGradient>
    <inkscape:perspective
       sodipodi:type="inkscape:persp3d"
       inkscape:vp_x="0 : 332 : 1"
       inkscape:vp_y="0 : 1000 : 0"
       inkscape:vp_z="443 : 332 : 1"
       inkscape:persp3d-origin="221.5 : 221.33333 : 1"
       id="perspective3265-2" />
    <inkscape:perspective
       id="perspective23-0"
       inkscape:persp3d-origin="230.05077 : 64.253571 : 1"
       inkscape:vp_z="460.10153 : 96.380356 : 1"
       inkscape:vp_y="0 : 1000 : 0"
       inkscape:vp_x="0 : 96.380356 : 1"
       sodipodi:type="inkscape:persp3d" />
    <radialGradient
       gradientUnits="userSpaceOnUse"
       gradientTransform="matrix(2.0824918,-6.83348,10.405135,3.1709431,-4768.9247,211.49142)"
       r="185.25969"
       fy="280.71976"
       fx="188.27602"
       cy="280.71976"
       cx="188.27602"
       id="radialGradient3164-8"
       xlink:href="#linearGradient3158-6"
       inkscape:collect="always" />
    <inkscape:perspective
       id="perspective15-9"
       inkscape:persp3d-origin="221.5 : 221.33333 : 1"
       inkscape:vp_z="443 : 332 : 1"
       inkscape:vp_y="0 : 1000 : 0"
       inkscape:vp_x="0 : 332 : 1"
       sodipodi:type="inkscape:persp3d" />
    <linearGradient
       id="linearGradient3158-6"
       inkscape:collect="always">
      <stop
         id="stop3160-1"
         offset="0"
         style="stop-color:#ffffff;stop-opacity:1;" />
      <stop
         id="stop3162-7"
         offset="1"
         style="stop-color:#ffffff;stop-opacity:0;" />
    </linearGradient>
    <radialGradient
       inkscape:collect="always"
       xlink:href="#linearGradient3158-6"
       id="radialGradient3987"
       gradientUnits="userSpaceOnUse"
       gradientTransform="matrix(1.6659934,-5.466784,8.324108,2.5367545,-3032.3963,75.545617)"
       cx="188.27602"
       cy="280.71976"
       fx="188.27602"
       fy="280.71976"
       r="185.25969" />
    <linearGradient
       id="linearGradient3158-8-7"
       inkscape:collect="always">
      <stop
         id="stop3160-3-5"
         offset="0"
         style="stop-color:#ffffff;stop-opacity:1;" />
      <stop
         id="stop3162-1-0"
         offset="1"
         style="stop-color:#ffffff;stop-opacity:0;" />
    </linearGradient>
    <radialGradient
       gradientUnits="userSpaceOnUse"
       gradientTransform="matrix(2.0824918,-6.83348,10.405135,3.1709431,-4768.9247,211.49142)"
       r="185.25969"
       fy="280.71976"
       fx="188.27602"
       cy="280.71976"
       cx="188.27602"
       id="radialGradient3164-7-1"
       xlink:href="#linearGradient3158-8-7"
       inkscape:collect="always" />
    <linearGradient
       id="linearGradient3158-8"
       inkscape:collect="always">
      <stop
         id="stop3160-3"
         offset="0"
         style="stop-color:#ffffff;stop-opacity:1;" />
      <stop
         id="stop3162-1"
         offset="1"
         style="stop-color:#ffffff;stop-opacity:0;" />
    </linearGradient>
    <radialGradient
       gradientUnits="userSpaceOnUse"
       gradientTransform="matrix(2.0824918,-6.83348,10.405135,3.1709431,-4768.9247,211.49142)"
       r="185.25969"
       fy="280.71976"
       fx="188.27602"
       cy="280.71976"
       cx="188.27602"
       id="radialGradient3164-7"
       xlink:href="#linearGradient3158-8"
       inkscape:collect="always" />
    <inkscape:perspective
       sodipodi:type="inkscape:persp3d"
       inkscape:vp_x="0 : 96.380356 : 1"
       inkscape:vp_y="0 : 1000 : 0"
       inkscape:vp_z="460.10153 : 96.380356 : 1"
       inkscape:persp3d-origin="230.05077 : 64.253571 : 1"
       id="perspective23-1" />
    <inkscape:perspective
       sodipodi:type="inkscape:persp3d"
       inkscape:vp_x="0 : 332 : 1"
       inkscape:vp_y="0 : 1000 : 0"
       inkscape:vp_z="443 : 332 : 1"
       inkscape:persp3d-origin="221.5 : 221.33333 : 1"
       id="perspective3265-8" />
    <inkscape:perspective
       id="perspective23-4"
       inkscape:persp3d-origin="230.05077 : 64.253571 : 1"
       inkscape:vp_z="460.10153 : 96.380356 : 1"
       inkscape:vp_y="0 : 1000 : 0"
       inkscape:vp_x="0 : 96.380356 : 1"
       sodipodi:type="inkscape:persp3d" />
    <radialGradient
       gradientUnits="userSpaceOnUse"
       gradientTransform="matrix(2.0824918,-6.83348,10.405135,3.1709431,-4768.9247,211.49142)"
       r="185.25969"
       fy="280.71976"
       fx="188.27602"
       cy="280.71976"
       cx="188.27602"
       id="radialGradient3164-9"
       xlink:href="#linearGradient3158-1"
       inkscape:collect="always" />
    <inkscape:perspective
       id="perspective15-0"
       inkscape:persp3d-origin="221.5 : 221.33333 : 1"
       inkscape:vp_z="443 : 332 : 1"
       inkscape:vp_y="0 : 1000 : 0"
       inkscape:vp_x="0 : 332 : 1"
       sodipodi:type="inkscape:persp3d" />
    <linearGradient
       id="linearGradient3158-1"
       inkscape:collect="always">
      <stop
         id="stop3160-7"
         offset="0"
         style="stop-color:#ffffff;stop-opacity:1;" />
      <stop
         id="stop3162-4"
         offset="1"
         style="stop-color:#ffffff;stop-opacity:0;" />
    </linearGradient>
    <radialGradient
       r="185.25969"
       fy="280.71976"
       fx="188.27602"
       cy="280.71976"
       cx="188.27602"
       gradientTransform="matrix(1.6659934,-5.466784,8.324108,2.5367545,-3032.3963,75.545617)"
       gradientUnits="userSpaceOnUse"
       id="radialGradient3987-7"
       xlink:href="#linearGradient3158-6-1"
       inkscape:collect="always" />
    <linearGradient
       inkscape:collect="always"
       id="linearGradient3158-6-1">
      <stop
         style="stop-color:#ffffff;stop-opacity:1;"
         offset="0"
         id="stop3160-1-5" />
      <stop
         style="stop-color:#ffffff;stop-opacity:0;"
         offset="1"
         id="stop3162-7-2" />
    </linearGradient>
    <inkscape:perspective
       sodipodi:type="inkscape:persp3d"
       inkscape:vp_x="0 : 332 : 1"
       inkscape:vp_y="0 : 1000 : 0"
       inkscape:vp_z="443 : 332 : 1"
       inkscape:persp3d-origin="221.5 : 221.33333 : 1"
       id="perspective15-9-1" />
    <radialGradient
       inkscape:collect="always"
       xlink:href="#linearGradient3158-6-1"
       id="radialGradient3164-8-7"
       cx="188.27602"
       cy="280.71976"
       fx="188.27602"
       fy="280.71976"
       r="185.25969"
       gradientTransform="matrix(2.0824918,-6.83348,10.405135,3.1709431,-4768.9247,211.49142)"
       gradientUnits="userSpaceOnUse" />
    <inkscape:perspective
       sodipodi:type="inkscape:persp3d"
       inkscape:vp_x="0 : 96.380356 : 1"
       inkscape:vp_y="0 : 1000 : 0"
       inkscape:vp_z="460.10153 : 96.380356 : 1"
       inkscape:persp3d-origin="230.05077 : 64.253571 : 1"
       id="perspective23-0-1" />
    <inkscape:perspective
       id="perspective3265-2-5"
       inkscape:persp3d-origin="221.5 : 221.33333 : 1"
       inkscape:vp_z="443 : 332 : 1"
       inkscape:vp_y="0 : 1000 : 0"
       inkscape:vp_x="0 : 332 : 1"
       sodipodi:type="inkscape:persp3d" />
    <linearGradient
       inkscape:collect="always"
       id="linearGradient3158-82">
      <stop
         style="stop-color:#ffffff;stop-opacity:1;"
         offset="0"
         id="stop3160-4" />
      <stop
         style="stop-color:#ffffff;stop-opacity:0;"
         offset="1"
         id="stop3162-5" />
    </linearGradient>
    <inkscape:perspective
       sodipodi:type="inkscape:persp3d"
       inkscape:vp_x="0 : 332 : 1"
       inkscape:vp_y="0 : 1000 : 0"
       inkscape:vp_z="443 : 332 : 1"
       inkscape:persp3d-origin="221.5 : 221.33333 : 1"
       id="perspective15-8" />
    <radialGradient
       inkscape:collect="always"
       xlink:href="#linearGradient3158-82"
       id="radialGradient3164-4"
       cx="188.27602"
       cy="280.71976"
       fx="188.27602"
       fy="280.71976"
       r="185.25969"
       gradientTransform="matrix(2.0824918,-6.83348,10.405135,3.1709431,-4768.9247,211.49142)"
       gradientUnits="userSpaceOnUse" />
    <inkscape:perspective
       sodipodi:type="inkscape:persp3d"
       inkscape:vp_x="0 : 96.380356 : 1"
       inkscape:vp_y="0 : 1000 : 0"
       inkscape:vp_z="460.10153 : 96.380356 : 1"
       inkscape:persp3d-origin="230.05077 : 64.253571 : 1"
       id="perspective23-9" />
    <inkscape:perspective
       id="perspective3265-0"
       inkscape:persp3d-origin="221.5 : 221.33333 : 1"
       inkscape:vp_z="443 : 332 : 1"
       inkscape:vp_y="0 : 1000 : 0"
       inkscape:vp_x="0 : 332 : 1"
       sodipodi:type="inkscape:persp3d" />
  </defs>
  <sodipodi:namedview
     pagecolor="#ffffff"
     bordercolor="#666666"
     borderopacity="1"
     objecttolerance="10"
     gridtolerance="10"
     guidetolerance="10"
     inkscape:pageopacity="0"
     inkscape:pageshadow="2"
     inkscape:window-width="1920"
     inkscape:window-height="1018"
     id="namedview62"
     showgrid="false"
     inkscape:zoom="0.909375"
     inkscape:cx="-271.93136"
     inkscape:cy="321.6965"
     inkscape:window-x="-8"
     inkscape:window-y="-8"
     inkscape:window-maximized="1"
     inkscape:current-layer="svg2" />
  <path
     style="fill:#e2e2e2"
     d="M 692.0625 -294.34375 C 667.3375 -293.44375 642.58125 -287.5 620.78125 -275.625 C 602.24375 -265.9125 586.15625 -252.0875 572.59375 -236.25 C 555.03125 -214.5875 543.26875 -188.1875 539.28125 -160.5625 C 537.44375 -149.3875 537.76875 -138.025 538.03125 -126.75 C 539.36875 -108.8625 544.16875 -91.35 551.34375 -74.9375 C 565.00625 -43.775 589.45625 -17.75625 619.09375 -1.21875 C 649.11875 14.59375 684.25625 21.18125 717.84375 15.40625 C 740.83125 11.94375 762.80625 2.65625 781.59375 -10.96875 C 786.06875 -14.18125 790.44375 -18.5375 791.03125 -24.3125 C 792.75625 -33.625 785.9375 -43.80625 776.375 -44.96875 C 768.0625 -46.34375 760.3 -42.1 753.5 -37.875 C 735.575 -26.8 714.33125 -21.65625 693.34375 -22.03125 C 669.08125 -21.95625 644.66875 -29.1625 624.84375 -43.25 C 616.21875 -48.5375 609.44375 -56.20625 602.46875 -63.40625 C 583.11875 -85.76875 574.90625 -116.26875 576.90625 -145.46875 C 577.94375 -166.74375 584.825 -187.91875 597.375 -205.21875 C 609.25 -222.54375 626.3375 -236.00625 645.4375 -244.59375 C 665.4875 -253.99375 688.29375 -256.2375 710.09375 -253.375 C 730.86875 -250.075 750.81875 -241.28125 767.21875 -228.09375 C 783.43125 -215.99375 795.575 -198.8875 802.9375 -180.125 C 808.3375 -166.35 810.0125 -151.45 810.4375 -136.75 C 810.3375 -129.2875 809.65625 -121.7875 808.03125 -114.5 C 807.04375 -111 806.08125 -106.90625 802.84375 -104.78125 C 795.68125 -100.53125 785.2125 -101.61875 779.9375 -108.34375 C 776.925 -112.10625 777.35 -117.225 777.1875 -121.75 C 777.3625 -139.6625 777.23125 -157.5875 777.40625 -175.5 C 777.35625 -181.0875 777.34375 -186.9125 774.90625 -192.0625 C 772.95625 -196.4375 768.16875 -199.39375 763.40625 -199.28125 C 759.88125 -198.45625 756.75625 -196.43125 753.21875 -195.65625 C 750.46875 -195.06875 748.81875 -197.68125 747.21875 -199.40625 C 743.49375 -204.00625 739.275 -208.3 734.125 -211.3125 C 718.0625 -220.7125 698.6625 -225.025 680.25 -221.25 C 667.4125 -218.4625 654.71875 -213.90625 644.03125 -206.09375 C 626.93125 -194.86875 614.85625 -176.39375 611.21875 -156.28125 C 607.04375 -137.49375 610.04375 -117.53125 617.90625 -100.09375 C 631.39375 -72.29375 661.61875 -54.83125 692.09375 -53.78125 C 708.56875 -53.69375 725.00625 -58.61875 738.90625 -67.40625 C 743.68125 -70.20625 746.375 -75.61875 751.5 -77.84375 C 755.1 -72.21875 759.525 -66.94375 765.75 -64.15625 C 778.975 -57.29375 794.74375 -55.55625 809.09375 -59.59375 C 822.18125 -63.25625 832.49375 -73.76875 838.15625 -85.84375 C 845.26875 -99.15625 847.6 -114.33125 848.5625 -129.21875 C 850.425 -166.15625 838.5875 -203.78125 815.75 -232.90625 C 800.825 -253.21875 780.25625 -269.01875 757.59375 -279.84375 C 737.13125 -289.35625 714.5875 -294.09375 692.0625 -294.34375 z M 692.125 -183.5 C 695.02942 -183.51736 697.95625 -183.40156 700.84375 -183.21875 C 714.50625 -182.69375 727.06875 -173.99375 733.65625 -162.21875 C 739.31875 -153.18125 738.99375 -142.05625 738.65625 -131.78125 C 738.40625 -111.74375 720.86875 -93.63125 700.84375 -92.78125 C 692.85625 -92.29375 684.65625 -92.2625 676.84375 -94.25 C 666.85625 -97.5125 658.11875 -104.54375 653.03125 -113.78125 C 647.16875 -123.20625 647.59375 -134.8375 648.09375 -145.5 C 648.78125 -162.3625 661.74375 -177.375 677.71875 -182 C 682.44531 -183.07812 687.2843 -183.47107 692.125 -183.5 z "
     id="path6"
     transform="scale(0.8,0.8)"
     inkscape:export-filename="D:\studyworkspace\Asia\res\drawable\mrim_away_16.png"
     inkscape:export-xdpi="4.6181207"
     inkscape:export-ydpi="4.6181207" />
  <path
     d="m 535.76667,-231.3455 c 22.12,-3.5 45.32,-0.98 65.91,7.95 33.25,14.17 59.52,43.66 69.77,78.32 5.97,20.17 6.85,41.96 2.01,62.450002 -3.22,12.96 -10.65,26.17 -23.44,31.62 -13.76,5.02 -30.23,3.22 -41.95,-5.83 -2.53,-2.19 -3.62,-5.67 -6.34,-7.66 -2.58,-1.69 -4.39,1.69 -5.94,3.23 -4.18,5.5 -10.65,8.43 -16.8,11.14 -13.89,5.54 -29.78,6.34 -43.98,1.46 -13.3,-4.03 -25.08,-12.56 -33.44,-23.61 -10.75,-14.74 -13.43,-34.080002 -10.51,-51.770002 2.5,-15.46 11.69,-29.52 24.44,-38.52 11.14,-7.85 24.53,-12.54 38.17,-13.18 12.37,-0.27 24.8,3.35 35.04,10.31 3.77,2.53 6.23,6.42 9.34,9.64 1.47,1.57 3.93,2.88 6.01,1.66 3.25,-1.62 7.14,-4.1 10.66,-1.6 -1.9,0.13 -3.82,0.14 -5.69,0.55 -2.53,1.4 -4.32,5.6 -7.7,4.2 -3.76,-1.74 -5.92,-5.5 -8.6,-8.47 -4.01,-5.02 -9.98,-7.83 -15.76,-10.27 -10.33,-4.38 -21.95,-5.09 -32.92,-3.18 -16.27,3.24 -31.82,11.94 -41.57,25.58 -4.37,6.21 -7.56,13.28 -9.1,20.73 -1.98,8.2 -1.97,16.72 -1.28,25.09 0.78,5.580002 2.18,11.090002 4.33,16.310002 2.46,6.19 5.87,12.06 10.57,16.82 9.92,11.3 24.16,18.27 38.87,20.68 15.33,2.23 31.42,-1.59 44.29,-10.15 2.94,-1.81 4.65,-4.85 6.5,-7.65 1.38,-3.03 6.58,-2.8 7.86,0.19 1.44,2.5 2.25,5.53 4.62,7.36 10.79,8.18 25.44,9.75 38.28,6.26 8.32,-2.57 14.68,-9.37 18.77,-16.85 3.59,-6.34 5.68,-13.42 6.88,-20.59 1.48,-7.66 1.89,-15.490002 1.71,-23.280002 -0.06,-8.14 -1.04,-16.26 -2.94,-24.18 -2.09,-9.23 -5.18,-18.24 -9.43,-26.7 -12.85,-26.42 -35.53,-47.97 -62.76,-59.08 -22.25,-9.11 -47.35,-11.32 -70.79,-5.87 -35.27,7.63 -66.72,31.99 -82.34,64.6 -3.6,6.95 -6.25,14.35 -8.15,21.93 -1.81,6.39 -3,12.94 -3.63,19.54 -0.57,6.56 -0.63,13.16 -0.22,19.73 0.36,6.360002 1.29,12.670002 2.62,18.890002 1.35,5.44 3.06,10.78 5.03,16.02 1.96,5.32 4.36,10.46 7.19,15.36 3.59,6.67 7.84,12.97 12.7,18.77 5.57,6.81 11.82,13.1 18.97,18.25 37.87,30.41 95.27,33.44 136.2,7.2899997 3.57,-2.2199997 7.1,-4.5799997 10.13,-7.5099997 3.09,-4.86 2.35,-12.81 -3.07,-15.71 -5.77,-2.58 -12.46,-0.59 -17.42,2.87 -6.97,4.69 -14.74,7.96 -22.59,10.84 -9.7,2.33 -19.6,4.18 -29.62,3.94 -9.64,0.04 -19.14,-1.71 -28.49,-3.89 -12.74,-4.52 -25.02,-10.56 -35.52,-19.17 -5.52,-4.87 -10.72,-10.16 -15.11,-16.09 -3.7,-5.05 -6.88,-10.48 -9.69,-16.07 -2.38,-5.53 -4.31,-11.25 -5.95,-17.04 -1.2,-5.24 -1.91,-10.59 -2.37,-15.950002 -0.44,-6.6 -0.43,-13.23 0.08,-19.82 0.83,-6.71 2.28,-13.35 4.21,-19.83 2.97,-8.43 6.84,-16.57 11.88,-23.95 15.17,-22.26 39.87,-37.7 66.51,-41.67 36.77,-5.65 75.35,12.33 96.23,42.8 5.44,8.26 9.77,17.31 12.32,26.88 2.27,8.05 3.48,16.39 3.68,24.76 0.14,7.64 -0.32,15.320002 -2.02,22.790002 -1.26,3.91 -3.09,8.14 -6.98,10.08 -5.61,2.75 -12.69,2.65 -18.1,-0.53 -3.37,-1.94 -5.53,-5.28 -7.63,-8.44 -0.3,-6.86 -0.18,-13.730002 -0.11,-20.600002 0,-6.67 -0.02,-13.33 0.04,-20 -0.12,-7.48 0.51,-15.03 -0.69,-22.46 -0.07,-0.43 -0.21,-1.29 -0.28,-1.72 2.91,1.53 2.66,5.07 2.72,7.88 -0.14,15.69 0.02,31.37 -0.12,47.060002 -0.1,4.54 0.11,9.54 3.22,13.17 5.53,7.1 18.3,8.01 23.73,0.4 3.95,-7.5 4.28,-16.270002 4.26,-24.570002 0.44,-20.22 -5.71,-40.72 -17.87,-56.95 -13.62,-18.73 -34.54,-31.49 -56.82,-37.14 -22.71,-5.85 -47.37,-1.82 -67.74,9.49 -20.59,11.29 -36.92,30.35 -44.19,52.74 -5.25,15.18 -6.09,31.67 -3.7,47.480002 3.16,19.6 12.72,38.08 26.97,51.91 15.26,13.84 34.62,23.38 55.14,25.87 20.61,2.67 42.32,-0.87 60.3,-11.55 6.28,-3.93 13.92,-8.36 21.47,-5.15 8.1,3.66 8.75,16.22 1.45,21.11 -31.89,24.5 -76.66,29.39 -114,15.4699997 -37.81,-13.85 -67.19,-47.9399997 -75.94,-87.1799997 -9.33,-39.810002 2.75,-84.370002 32.24,-112.980002 18.08,-18.63 42.35,-31.03 67.98,-35.06 z"
     id="path8"
     inkscape:connector-curvature="0"
     style="fill:#bbb4af"
     inkscape:export-filename="D:\studyworkspace\Asia\res\drawable\mrim_away_16.png"
     inkscape:export-xdpi="4.6181207"
     inkscape:export-ydpi="4.6181207" />
  <path
     style="fill:#00fa00;fill-opacity:1"
     d="m 553.425,-231.48603 c -8.26661,0.094 -16.5175,1.07656 -24.575,2.95 -35.27,7.63 -66.705,31.99 -82.325,64.6 -3.6,6.95 -6.25,14.345 -8.15,21.925 -1.81,6.39 -3.02,12.925 -3.65,19.525 -0.57,6.56 -0.61,13.18 -0.2,19.75 0.36,6.360001 1.27,12.655001 2.6,18.875001 1.35,5.44 3.08,10.785 5.05,16.025 1.96,5.32 4.345,10.45 7.175,15.35 3.59,6.67 7.84,12.975 12.7,18.775 5.57,6.81 11.825,13.1 18.975,18.25 37.87,30.41 95.27,33.45 136.2,7.2999992 3.57,-2.2200002 7.095,-4.5949992 10.125,-7.5249992 3.09,-4.86 2.345,-12.8 -3.075,-15.7 -5.77,-2.58 -12.44,-0.585 -17.4,2.875 -6.97,4.69 -14.75,7.945 -22.6,10.825 -9.7,2.33 -19.605,4.19 -29.625,3.95 -9.64,0.04 -19.125,-1.72 -28.475,-3.9 -12.74,-4.52 -25.025,-10.54 -35.525,-19.15 -5.52,-4.87 -10.735,-10.17 -15.125,-16.1 -3.7,-5.05 -6.865,-10.485 -9.675,-16.075 -2.38,-5.53 -4.31,-11.235 -5.95,-17.025 -1.2,-5.24 -1.915,-10.59 -2.375,-15.950001 -0.44,-6.6 -0.435,-13.235 0.075,-19.825 0.83,-6.71 2.295,-13.345 4.225,-19.825 2.97,-8.43 6.835,-16.57 11.875,-23.95 15.17,-22.26 39.86,-37.705 66.5,-41.675 36.77,-5.65 75.345,12.33 96.225,42.8 5.44,8.26 9.775,17.305 12.325,26.875 2.27,8.05 3.475,16.38 3.675,24.75 0.14,7.64 -0.3,15.330001 -2,22.800001 -1.26,3.91 -3.11,8.135 -7,10.075 -5.61,2.75 -12.69,2.655 -18.1,-0.525 -3.37,-1.94 -5.525,-5.29 -7.625,-8.45 -0.3,-6.86 -0.17,-13.730001 -0.1,-20.600001 0,-6.67 -0.035,-13.33 0.025,-20 -0.12,-7.48 0.525,-15.02 -0.675,-22.45 l -0.275,-1.725 c -0.63,-0.82 -1.28,-1.595 -1.95,-2.375 -1.9,0.13 -3.83,0.14 -5.7,0.55 -2.53,1.4 -4.32,5.6 -7.7,4.2 -3.76,-1.74 -5.92,-5.505 -8.6,-8.475 -4.01,-5.02 -9.97,-7.835 -15.75,-10.275 -10.33,-4.38 -21.955,-5.085 -32.925,-3.175 -16.27,3.24 -31.825,11.935 -41.575,25.575 -4.37,6.21 -7.56,13.275 -9.1,20.725 -1.98,8.2 -1.965,16.73 -1.275,25.1 0.78,5.580001 2.175,11.080001 4.325,16.300001 2.46,6.19 5.875,12.065 10.575,16.825 9.92,11.3 24.165,18.265 38.875,20.675 15.33,2.23 31.405,-1.59 44.275,-10.15 2.94,-1.81 4.65,-4.85 6.5,-7.65 1.38,-3.03 6.595,-2.79 7.875,0.2 1.44,2.5 2.23,5.52 4.6,7.35 10.79,8.18 25.46,9.765 38.3,6.275 8.32,-2.57 14.66,-9.37 18.75,-16.85 3.59,-6.34 5.7,-13.43 6.9,-20.6 1.48,-7.66 1.88,-15.485001 1.7,-23.275001 -0.06,-8.14 -1.05,-16.255 -2.95,-24.175 -2.09,-9.23 -5.175,-18.24 -9.425,-26.7 -12.85,-26.42 -35.52,-47.99 -62.75,-59.1 -14.60156,-5.97844 -30.44328,-8.97952 -46.225,-8.8 z m -0.475,80.975 c 6.53364,-0.1991 13.12,1.25562 19.225,3.6 7.51,4.5 14.16,10.575 18.3,18.375 2.84,6.2 4.175,13.015 4.075,19.825 -0.49,6.93 -2.825,13.605001 -6.225,19.625001 -3.71,4.9 -8.05,9.48 -13.4,12.6 -4.57,2.71 -9.72,4.225 -14.8,5.625 -3.65,-0.19 -7.295,-0.2 -10.925,0 -9.83,-2.21 -19.175,-6.985 -25.625,-14.875 -3.98,-5.27 -6.825,-11.365 -8.225,-17.825001 -0.79,-6.43 -0.555,-13.04 1.175,-19.3 3.08,-8.75 9.06,-16.115 16.45,-21.625 3.63,-1.74 7.26,-3.55 11.15,-4.65 2.90313,-0.84062 5.85516,-1.2845 8.825,-1.375 z"
     id="path10"
     inkscape:connector-curvature="0"
     inkscape:export-filename="D:\studyworkspace\Asia\res\drawable\mrim_away_16.png"
     inkscape:export-xdpi="4.6181207"
     inkscape:export-ydpi="4.6181207" />
  <path
     style="fill:#8bc800;fill-opacity:1;stroke:none"
     d="m 141.13244,13.416284 c -8.2666,0.094 -14.3182,-0.24303 -22.3757,1.63041 -35.269999,7.63 -62.306299,24.9522 -77.926299,57.5622 -3.6,6.95 -6.6899,14.78486 -8.5899,22.36486 -2.1722,13.665616 -3.8933,19.431206 -2.9703,34.876366 0.36,6.36 1.27,13.97459 2.6,20.19459 1.35,5.44 3.9597,13.42417 5.9297,18.66417 1.9601,5.32 6.9621,11.25427 9.7921,16.15427 9.2319,13.15261 19.9599,21.05818 32.5768,30.06266 25.553899,14.57495 67.118799,29.49123 116.406199,3.34123 3.57,-2.22 7.5349,-5.47472 10.5649,-8.40472 3.09,-4.86 4.9842,-6.20205 -0.4358,-9.10207 -5.77,-2.58 -9.361,0.73459 -14.321,4.1946 -6.97,4.69 -14.75,7.945 -22.6,10.825 -9.7,2.33 -19.605,4.19 -29.625,3.95 -9.64,0.04 -19.125,-1.72 -28.475,-3.9 -12.739999,-4.52 -25.024999,-10.54 -35.524999,-19.15001 -5.52,-4.87 -10.735,-10.17 -15.125,-16.1 -3.7,-5.05 -6.865,-10.485 -9.675,-16.075 -2.38,-5.53 -4.31,-11.235 -5.95,-17.025 -1.2,-5.24 -1.915,-10.59 -2.375,-15.95 -0.44,-6.6 -0.435,-13.235 0.075,-19.82499 0.83,-6.71 2.295,-13.344996 4.225,-19.824996 2.97,-8.43 6.835,-16.57 11.875,-23.95 15.17,-22.26 39.86,-37.705 66.499999,-41.675 36.77,-5.65 75.345,12.33 96.225,42.8 5.44,8.26 9.775,17.305 12.325,26.875 2.27,8.049996 3.475,16.379996 3.675,24.749986 0.14,7.64 -0.3,15.33 -2,22.8 -1.26,3.91 -3.11,8.135 -7,10.075 -5.61,2.75 -12.69,2.655 -18.1,-0.525 -3.37,-1.94 -11.6831,-12.76765 -13.7831,-15.92765 -0.3,-6.86 0.2699,-7.13207 0.3399,-14.00207 0,-6.67 1.2846,-12.89013 1.3446,-19.56013 -0.12,-7.479996 0.9648,-13.260546 -0.2352,-20.690546 -2.206,-11.06541 -5.9826,-6.01834 -8.3648,-1.35069 -1.6503,4.47904 0.5185,17.03642 -2.8615,15.63642 -3.76,-1.74 -6.3599,-8.14417 -9.0399,-11.11417 -4.01,-5.02 -15.2483,-11.79376 -21.0283,-14.23376 -12.9692,-3.06041 -21.0753,-2.44583 -32.0453,-0.53583 -12.2404,6.19738 -13.0385,4.54117 -22.6609,12.37913 -4.369999,6.21 -7.120199,9.31623 -11.299299,17.206096 -1.98,8.2 -5.0441,14.09081 -4.3541,22.46081 0.78,5.58 2.175,13.71919 4.325,18.93919 2.46,6.19 1.0365,7.22651 5.7365,11.98651 9.919999,11.3 18.886699,19.14472 33.596699,21.55472 15.33,2.23 28.7658,-1.15014 41.6358,-9.71014 2.94,-1.81 6.8493,-5.72973 8.6993,-8.52973 1.38,-3.03 9.2342,-3.22985 10.5142,-0.23985 1.44,2.5 3.5496,4.20041 5.9196,6.03041 10.79,8.18 14.9033,8.88528 25.544,8.91417 8.32,-2.57 15.9796,-4.09165 20.0696,-11.57165 3.59,-6.34 6.1398,-7.71179 7.3398,-14.88179 1.48,-7.66 1.88,-12.84581 1.7,-20.63581 -0.06,-8.14 -0.6101,-16.69487 -2.5101,-24.61487 -2.09,-9.229996 -3.8554,-16.920406 -8.1054,-25.380406 -12.85,-26.42 -35.52,-44.03124 -56.1521,-53.82165 -14.6016,-5.97844 -28.244,-8.09979 -44.0257,-7.92027 z m -2.6743,69.53857 c 6.5337,-0.1991 13.12,1.25562 19.225,3.6 7.51,4.5 14.16,10.575 18.3,18.374996 2.84,6.2 4.175,13.01499 4.075,19.82499 -0.49,6.93 -2.825,13.605 -6.225,19.625 -3.71,4.9 -8.05,9.48 -13.4,12.6 -4.57,2.71 -9.72,4.225 -14.8,5.625 -3.65,-0.19 -7.295,-0.2 -10.925,0 -9.83,-2.21 -19.175,-6.985 -25.625,-14.875 -3.98,-5.27 -6.825,-11.365 -8.225,-17.825 -0.79,-6.43 -0.555,-13.04 1.175,-19.29999 3.08,-8.75 9.06,-16.114996 16.45,-21.624996 3.63,-1.74 7.26,-3.55 11.15,-4.65 2.9031,-0.84062 5.8552,-1.2845 8.825,-1.375 z"
     id="path10-6"
     inkscape:connector-curvature="0"
     inkscape:export-filename="D:\studyworkspace\Asia\res\mrim_away_96.png"
     inkscape:export-xdpi="31.535776"
     inkscape:export-ydpi="31.535776"
     sodipodi:nodetypes="sccccccccccccccccccccccccccccccccccccccccccccccccccccccccssccccccccccccs" />
  <path
     style="fill:#f0f0f0;fill-opacity:0.92063491;fill-rule:evenodd;stroke:none"
     d="M 28.383161,187.26926 44.267439,51.723579 256.05754,76.079445 239.11436,210.56617 28.383161,187.26926 z"
     id="path2403-8"
     sodipodi:nodetypes="ccccc"
     inkscape:connector-curvature="0"
     inkscape:export-filename="D:\studyworkspace\Asia\res\mrim_away_96.png"
     inkscape:export-xdpi="31.535776"
     inkscape:export-ydpi="31.535776" />
</svg>
