<?xml version="1.0" encoding="UTF-8" standalone="no"?>
<!-- Created with Inkscape (http://www.inkscape.org/) -->

<svg
   xmlns:dc="http://purl.org/dc/elements/1.1/"
   xmlns:cc="http://creativecommons.org/ns#"
   xmlns:rdf="http://www.w3.org/1999/02/22-rdf-syntax-ns#"
   xmlns:svg="http://www.w3.org/2000/svg"
   xmlns="http://www.w3.org/2000/svg"
   xmlns:xlink="http://www.w3.org/1999/xlink"
   xmlns:sodipodi="http://sodipodi.sourceforge.net/DTD/sodipodi-0.dtd"
   xmlns:inkscape="http://www.inkscape.org/namespaces/inkscape"
   width="128.00000px"
   height="128.00000px"
   id="svg2"
   sodipodi:version="0.32"
   inkscape:version="0.48.1 "
   sodipodi:docname="nicubunu_Cigarette.svg"
   inkscape:export-filename="/home/nicu/Desktop/potato_guy.png"
   inkscape:export-xdpi="90.000000"
   inkscape:export-ydpi="90.000000"
   version="1.1">
  <defs
     id="defs3">
    <linearGradient
       inkscape:collect="always"
       id="linearGradient14422">
      <stop
         style="stop-color:#000000;stop-opacity:1;"
         offset="0"
         id="stop14424" />
      <stop
         style="stop-color:#000000;stop-opacity:0;"
         offset="1"
         id="stop14426" />
    </linearGradient>
    <linearGradient
       inkscape:collect="always"
       id="linearGradient14414">
      <stop
         style="stop-color:#000000;stop-opacity:1;"
         offset="0"
         id="stop14416" />
      <stop
         style="stop-color:#000000;stop-opacity:0;"
         offset="1"
         id="stop14418" />
    </linearGradient>
    <linearGradient
       id="linearGradient2424">
      <stop
         style="stop-color:#dec164;stop-opacity:1;"
         offset="0"
         id="stop2426" />
      <stop
         style="stop-color:#d5a864;stop-opacity:1.0000000;"
         offset="1.0000000"
         id="stop2428" />
    </linearGradient>
    <linearGradient
       inkscape:collect="always"
       xlink:href="#linearGradient2424"
       id="linearGradient7610"
       gradientUnits="userSpaceOnUse"
       gradientTransform="translate(84.00000,5.000000)"
       x1="114.00000"
       y1="112.36218"
       x2="197.00000"
       y2="288.36218" />
    <linearGradient
       inkscape:collect="always"
       xlink:href="#linearGradient14414"
       id="linearGradient14441"
       gradientUnits="userSpaceOnUse"
       x1="359.40097"
       y1="501.27704"
       x2="392.05878"
       y2="543.17145" />
    <linearGradient
       inkscape:collect="always"
       xlink:href="#linearGradient14422"
       id="linearGradient14443"
       gradientUnits="userSpaceOnUse"
       x1="408.05783"
       y1="499.79263"
       x2="448.46774"
       y2="546.30530" />
    <linearGradient
       id="linearGradient912">
      <stop
         id="stop913"
         offset="0.0000000"
         style="stop-color:#ffffff;stop-opacity:1.0000000;" />
      <stop
         id="stop914"
         offset="1.0000000"
         style="stop-color:#ffffff;stop-opacity:0.0000000;" />
    </linearGradient>
    <radialGradient
       inkscape:collect="always"
       xlink:href="#linearGradient912"
       id="radialGradient17463"
       gradientUnits="userSpaceOnUse"
       gradientTransform="scale(1.022475,0.978019)"
       cx="44.699298"
       cy="42.720970"
       fx="44.699298"
       fy="42.720970"
       r="12.239094" />
  </defs>
  <sodipodi:namedview
     id="base"
     pagecolor="#ffffff"
     bordercolor="#666666"
     borderopacity="1.0"
     inkscape:pageopacity="0.0"
     inkscape:pageshadow="2"
     inkscape:zoom="1"
     inkscape:cx="252.66113"
     inkscape:cy="-56.187325"
     inkscape:document-units="px"
     inkscape:current-layer="layer1"
     inkscape:window-width="1152"
     inkscape:window-height="791"
     inkscape:window-x="0"
     inkscape:window-y="26"
     showguides="true"
     inkscape:guide-bbox="true"
     showgrid="false"
     inkscape:window-maximized="0" />
  <g
     inkscape:label="Layer 1"
     inkscape:groupmode="layer"
     id="layer1">
    <g
       id="g11813"
       transform="matrix(2.052794,0.000000,0.000000,2.052794,-730.5753,-1072.286)"
       inkscape:export-filename="D:\studyworkspace\Asia\res\drawable-hdpi\xstatus_cigarette_32.png"
       inkscape:export-xdpi="52.982285"
       inkscape:export-ydpi="52.982285">
      <g
         transform="translate(92.12489,25.22490)"
         id="g11764">
        <path
           style="fill:#f8f8f8;fill-opacity:1.0000000;fill-rule:evenodd;stroke:none;stroke-width:1.0000000px;stroke-linecap:butt;stroke-linejoin:miter;stroke-opacity:1.0000000"
           d="M 273.89697,540.82972 C 273.89697,540.82972 285.21413,527.55382 286.19350,526.68327 C 287.17287,525.81272 289.67570,522.98343 292.06971,522.98343 C 294.46373,522.98343 306.86907,521.67761 307.41317,522.54816 C 307.95726,523.41871 308.50136,525.37745 308.82781,526.57446 C 309.15427,527.77146 310.02482,530.49193 309.15427,530.92721 C 308.28372,531.36248 297.72829,531.03603 297.40184,531.47130 C 297.07538,531.90658 289.78452,540.93854 289.56688,541.91791 C 289.34924,542.89728 285.64940,548.88231 285.10531,548.33822 C 284.56122,547.79413 273.57051,542.46200 273.89697,540.82972 z "
           id="path11758" />
        <path
           style="fill:#daa612;fill-opacity:1.0000000;fill-rule:evenodd;stroke:none;stroke-width:1.0000000px;stroke-linecap:butt;stroke-linejoin:miter;stroke-opacity:1.0000000"
           d="M 307.19553,522.65698 C 307.19553,522.65698 308.71899,525.48627 308.93663,526.90091 C 309.15427,528.31556 308.93663,530.92721 308.61017,531.36248 C 308.28372,531.79776 320.68906,533.53886 321.45080,533.32122 C 322.21253,533.10358 322.97426,532.01540 323.08308,531.03603 C 323.19190,530.05666 322.64780,528.96847 322.75662,527.00973 C 322.86544,525.05099 321.99489,522.33052 320.25379,522.33052 C 318.51269,522.33052 306.97789,522.33052 307.19553,522.65698 z "
           id="path11760" />
        <path
           style="fill:#000000;fill-opacity:1.0000000;fill-rule:evenodd;stroke:none;stroke-width:1.0000000px;stroke-linecap:butt;stroke-linejoin:miter;stroke-opacity:1.0000000"
           d="M 302.01423,522.13307 C 298.09227,522.28601 294.15900,522.42799 290.26311,522.91878 C 288.24508,523.61672 287.11576,525.63136 285.56724,526.98578 C 281.31410,531.58228 277.29443,536.38642 273.24421,541.16054 C 273.05859,544.70024 275.85291,547.76922 279.14099,548.69655 C 281.26344,549.39001 283.73385,549.86809 285.84980,548.97184 C 286.94027,547.44672 287.68101,545.65974 288.78521,544.10478 C 291.20800,540.22868 293.75440,536.42783 296.47795,532.75603 C 297.84752,531.14861 301.03665,531.64346 303.29510,531.75654 C 309.39785,532.02288 315.40977,533.36716 321.51605,533.55154 C 323.70209,533.16240 323.66865,530.47392 323.34856,528.77705 C 322.86224,526.66599 324.03189,523.48000 321.58625,522.35383 C 319.11112,521.56282 316.45065,522.01634 313.89241,521.88385 C 311.56860,521.89329 303.54774,521.93256 302.01423,522.13307 z M 311.89075,522.75354 C 314.78434,522.78133 317.69804,522.64331 320.57718,522.94211 C 323.27554,523.54611 321.95547,526.97942 322.48275,528.94454 C 323.12453,530.91369 322.18044,533.55161 319.70072,532.60776 C 316.18065,532.33242 312.68504,531.82430 309.18015,531.40891 C 310.46131,529.43204 308.95808,527.11594 308.76270,525.02704 C 308.51999,523.82907 306.85854,522.39247 308.99232,522.80418 C 309.95834,522.78180 310.92452,522.76179 311.89075,522.75354 z M 306.54044,522.85718 C 308.26602,524.61870 308.30994,527.31284 308.81474,529.60366 C 308.92704,531.83585 306.25708,531.11188 304.78549,530.97713 C 302.54125,530.81715 300.27646,530.65568 298.03232,530.87988 C 298.20526,529.28035 298.45874,526.43369 296.43153,525.99988 C 298.49867,528.15388 297.46882,532.68763 296.07694,530.64828 C 295.36358,529.13652 293.22599,529.01204 291.45249,529.71598 C 293.58475,529.61565 295.62034,529.69298 295.76348,532.16701 C 292.31617,537.00631 288.95887,541.92661 285.98459,547.07805 C 285.54540,547.58956 282.74097,541.79789 277.89996,541.18263 C 276.89791,540.74963 273.25503,541.66927 275.47210,539.89631 C 280.06874,534.54701 284.48832,529.00612 289.64313,524.17419 C 291.47096,523.14503 293.70436,523.64177 295.70684,523.30591 C 299.31596,523.11128 302.92742,522.95502 306.54044,522.85718 z "
           id="path11728"
           sodipodi:nodetypes="cccccccccccccccccccccccccccccccccccc" />
        <path
           style="fill:#fa0c08;fill-opacity:1.0000000;fill-rule:evenodd;stroke:none;stroke-width:1.0000000px;stroke-linecap:butt;stroke-linejoin:miter;stroke-opacity:1.0000000"
           d="M 274.35743,542.04862 L 275.24131,544.87705 L 275.94842,543.10928 L 276.30197,546.11448 L 279.48396,548.23580 L 277.53941,545.93771 L 281.60528,546.64481 L 280.89817,548.23580 L 284.96403,548.76613 L 281.42850,543.81639 L 280.72139,545.05382 L 277.89297,544.70027 L 279.66073,543.46283 L 274.35743,542.04862 z "
           id="path11762" />
      </g>
      <path
         sodipodi:nodetypes="ccccc"
         id="path11784"
         d="M 363.89715,536.16355 C 361.47945,538.08333 354.87336,548.27567 361.52812,555.12030 C 374.23538,565.57730 366.02157,564.31566 371.52661,575.88341 C 378.94941,573.54314 380.96314,567.67723 378.87338,558.96104 C 377.17035,545.98889 368.76264,552.01326 363.89715,536.16355 z "
         style="fill:#000000;fill-opacity:0.082352944;fill-rule:evenodd;stroke:none;stroke-width:1.0000000px;stroke-linecap:butt;stroke-linejoin:miter;stroke-opacity:1.0000000" />
      <path
         sodipodi:nodetypes="ccccc"
         id="path11786"
         d="M 363.47295,539.84720 C 361.34702,541.53529 358.07360,548.86770 363.92527,554.88632 C 375.09903,564.08137 367.51425,563.87751 372.35494,574.04927 C 377.79534,571.08590 377.57390,566.10899 376.27964,558.08246 C 374.78214,546.67577 367.75128,553.78417 363.47295,539.84720 z "
         style="fill:#000000;fill-opacity:0.082352944;fill-rule:evenodd;stroke:none;stroke-width:1.0000000px;stroke-linecap:butt;stroke-linejoin:miter;stroke-opacity:1.0000000" />
    </g>
  </g>
  <metadata
     id="metadata30">
    <rdf:RDF>
      <cc:Work
         rdf:about="">
        <dc:title>smoke</dc:title>
        <dc:description />
        <dc:subject>
          <rdf:Bag>
            <rdf:li>smoke</rdf:li>
          </rdf:Bag>
        </dc:subject>
        <dc:publisher>
          <cc:Agent>
            <dc:title />
          </cc:Agent>
        </dc:publisher>
        <dc:creator>
          <cc:Agent>
            <dc:title>Nicu Buculei</dc:title>
          </cc:Agent>
        </dc:creator>
        <dc:rights>
          <cc:Agent>
            <dc:title>Nicu Buculei</dc:title>
          </cc:Agent>
        </dc:rights>
        <dc:date />
        <dc:format>image/svg+xml</dc:format>
        <dc:type
           rdf:resource="http://purl.org/dc/dcmitype/StillImage" />
        <cc:license
           rdf:resource="http://web.resource.org/cc/PublicDomain" />
        <dc:language>en</dc:language>
      </cc:Work>
      <cc:License
         rdf:about="http://web.resource.org/cc/PublicDomain">
        <cc:permits
           rdf:resource="http://web.resource.org/cc/Reproduction" />
        <cc:permits
           rdf:resource="http://web.resource.org/cc/Distribution" />
        <cc:permits
           rdf:resource="http://web.resource.org/cc/DerivativeWorks" />
      </cc:License>
    </rdf:RDF>
  </metadata>
</svg>
