<?xml version="1.0" encoding="UTF-8" standalone="no"?>
<!-- Created with Inkscape (http://www.inkscape.org/) -->

<svg
   xmlns:dc="http://purl.org/dc/elements/1.1/"
   xmlns:cc="http://creativecommons.org/ns#"
   xmlns:rdf="http://www.w3.org/1999/02/22-rdf-syntax-ns#"
   xmlns:svg="http://www.w3.org/2000/svg"
   xmlns="http://www.w3.org/2000/svg"
   xmlns:xlink="http://www.w3.org/1999/xlink"
   xmlns:sodipodi="http://sodipodi.sourceforge.net/DTD/sodipodi-0.dtd"
   xmlns:inkscape="http://www.inkscape.org/namespaces/inkscape"
   version="1.0"
   width="210mm"
   height="297mm"
   id="svg2"
   inkscape:version="0.48.1 "
   sodipodi:docname="smile_wink.svg">
  <metadata
     id="metadata32">
    <rdf:RDF>
      <cc:Work
         rdf:about="">
        <dc:format>image/svg+xml</dc:format>
        <dc:type
           rdf:resource="http://purl.org/dc/dcmitype/StillImage" />
        <dc:title></dc:title>
      </cc:Work>
    </rdf:RDF>
  </metadata>
  <sodipodi:namedview
     pagecolor="#ffffff"
     bordercolor="#666666"
     borderopacity="1"
     objecttolerance="10"
     gridtolerance="10"
     guidetolerance="10"
     inkscape:pageopacity="0"
     inkscape:pageshadow="2"
     inkscape:window-width="1920"
     inkscape:window-height="1018"
     id="namedview30"
     showgrid="false"
     inkscape:zoom="0.19552972"
     inkscape:cx="372.04724"
     inkscape:cy="422.1912"
     inkscape:window-x="-8"
     inkscape:window-y="-8"
     inkscape:window-maximized="1"
     inkscape:current-layer="svg2" />
  <defs
     id="defs5">
    <linearGradient
       id="linearGradient3950">
      <stop
         style="stop-color:#79513a;stop-opacity:1"
         offset="0"
         id="stop3952" />
      <stop
         style="stop-color:#271a12;stop-opacity:1"
         offset="1"
         id="stop3954" />
    </linearGradient>
    <linearGradient
       id="linearGradient3196">
      <stop
         style="stop-color:#fdeeee;stop-opacity:1"
         offset="0"
         id="stop3198" />
      <stop
         style="stop-color:#fac1bb;stop-opacity:1"
         offset="1"
         id="stop3200" />
    </linearGradient>
    <linearGradient
       id="linearGradient3154">
      <stop
         style="stop-color:#ffe500;stop-opacity:1"
         offset="0"
         id="stop3156" />
      <stop
         style="stop-color:#ff9b00;stop-opacity:1"
         offset="1"
         id="stop3158" />
    </linearGradient>
    <inkscape:perspective
       id="perspective9"
       inkscape:persp3d-origin="372.04724 : 350.78739 : 1"
       inkscape:vp_z="744.09448 : 526.18109 : 1"
       inkscape:vp_y="0 : 1000 : 0"
       inkscape:vp_x="0 : 526.18109 : 1"
       sodipodi:type="inkscape:persp3d" />
    <radialGradient
       cx="404.31665"
       cy="506.70181"
       r="222.75591"
       fx="404.31665"
       fy="506.70181"
       id="radialGradient3160"
       xlink:href="#linearGradient3154"
       gradientUnits="userSpaceOnUse"
       gradientTransform="matrix(1,0,0,0.9897742,-66.219201,-25.603219)"
       spreadMethod="pad" />
    <linearGradient
       x1="422.7608"
       y1="316.15829"
       x2="422.7608"
       y2="406.6579"
       id="linearGradient3956"
       xlink:href="#linearGradient3950"
       gradientUnits="userSpaceOnUse" />
  </defs>
  <path
     d="M 569.46007 518.20868 A 215.25591 212.97806 0 1 1  138.94826,518.20868 A 215.25591 212.97806 0 1 1  569.46007 518.20868 z"
     transform="translate(66.219201,30.902294)"
     style="opacity:1;fill:url(#radialGradient3160);fill-opacity:1;fill-rule:evenodd;stroke:#000000;stroke-width:15;stroke-linecap:butt;stroke-linejoin:miter;marker:none;marker-start:none;marker-mid:none;marker-end:none;stroke-miterlimit:4;stroke-dasharray:none;stroke-dashoffset:0;stroke-opacity:1;visibility:visible;display:inline;overflow:visible;enable-background:accumulate"
     id="path2382"
     inkscape:export-filename="D:\studyworkspace\Asia\res\drawable\wink_30.png"
     inkscape:export-xdpi="6.122015"
     inkscape:export-ydpi="6.122015" />
  <path
     d="m 311.41403,508.15113 c -2.75584,15.57745 2.70539,33.90685 -3.06349,45.10393 -6.16144,11.95902 -9.19555,15.96727 -19.7394,15.96727 -10.54387,0 -21.02289,-6.51827 -28.47986,-17.71536 -7.45698,-11.19708 -11.80017,-26.93522 -11.80395,-42.77314 -0.004,-15.84513 4.33605,-31.59493 11.79376,-42.80113 7.4577,-11.20621 17.94137,-17.73066 28.49005,-17.73066 10.54867,0 21.03234,6.52445 28.49004,17.73066 7.4577,11.2062 -2.88065,26.3547 -5.68715,42.21843 z"
     style="fill:#000000;fill-opacity:1;fill-rule:evenodd;stroke:#000000;stroke-width:0;stroke-linecap:butt;stroke-linejoin:miter;stroke-miterlimit:4;stroke-opacity:1;stroke-dasharray:none;stroke-dashoffset:0;marker:none;visibility:visible;display:inline;overflow:visible;enable-background:accumulate"
     id="path3164"
     inkscape:connector-curvature="0"
     sodipodi:nodetypes="sssssssss"
     inkscape:export-filename="D:\studyworkspace\Asia\res\drawable\wink_30.png"
     inkscape:export-xdpi="6.122015"
     inkscape:export-ydpi="6.122015" />
  <path
     d="m 515.59131,596.00142 c -16.86519,6.58103 -28.53993,4.30119 -28.53993,4.30119 -9.12144,28.88664 -31.80752,59.69859 -51.41807,75.31617 -16.97269,13.51683 -61.36883,33.39635 -107.24392,19.91363 -30.47913,-8.95784 -72.61117,-40.03726 -72.61117,-40.03726 0,0 1.47232,-0.58107 0.2364,-0.24041 -1.17547,0.32401 -2.44345,-2.34371 -2.44345,-2.34371 l 0.39028,0.1512 c 0.33096,0.12822 2.15511,-2.90877 2.79317,-2.26945 2.15623,2.1605 2.2451,2.34588 2.2451,2.34588 29.2776,20.21955 56.99763,34.24755 89.21073,34.41191 38.88738,0.19841 80.53255,-19.47219 96.06245,-34.0663 17.87778,-16.8005 40.02799,-51.71275 36.85122,-53.86468 0,0 -11.59658,-6.11072 -19.2693,-15.53513 -0.29264,-0.35944 3.01616,-1.86369 3.01616,-1.86369 0,0 14.48618,25.19594 49.88371,10.59805 1.29091,-0.53237 0.83667,3.18258 0.83667,3.18258 z"
     style="fill:#000000;fill-opacity:1;fill-rule:evenodd;stroke:#000000;stroke-width:1px;stroke-linecap:butt;stroke-linejoin:round;stroke-opacity:1"
     id="path3178"
     inkscape:connector-curvature="0"
     sodipodi:nodetypes="ccsscsccscsscccscc"
     inkscape:export-filename="D:\studyworkspace\Asia\res\drawable\wink_30.png"
     inkscape:export-xdpi="6.122015"
     inkscape:export-ydpi="6.122015" />
  <path
     d="m 463.01706,511.90737 c 0,6.50116 -5.09176,12.96227 -13.83779,17.55928 -8.74603,4.597 -21.03861,7.27327 -33.40736,7.27327 -12.36873,0 -24.66131,-2.67627 -33.40735,-7.27327 -8.74603,-4.59701 -13.83778,-11.05812 -13.83778,-17.55928 0,-6.50115 1.82863,-13.88454 8.06749,-2.54325 6.97056,12.67143 26.80891,15.25077 39.17764,15.25077 12.36875,0 32.65097,-3.33015 40.50926,-16.75236 6.44449,-11.00741 6.73589,-2.45631 6.73589,4.04484 z"
     style="fill:#000000;fill-opacity:1;fill-rule:evenodd;stroke:#000000;stroke-width:0;stroke-linecap:butt;stroke-linejoin:miter;stroke-miterlimit:4;stroke-opacity:1;stroke-dasharray:none;stroke-dashoffset:0;marker:none;visibility:visible;display:inline;overflow:visible;enable-background:accumulate"
     id="path3164-1"
     inkscape:connector-curvature="0"
     sodipodi:nodetypes="sssssssss"
     inkscape:export-filename="D:\studyworkspace\Asia\res\drawable\wink_30.png"
     inkscape:export-xdpi="6.122015"
     inkscape:export-ydpi="6.122015" />
</svg>
