<?xml version="1.0" encoding="UTF-8" standalone="no"?>
<!-- Created with Inkscape (http://www.inkscape.org/) -->

<svg
   xmlns:dc="http://purl.org/dc/elements/1.1/"
   xmlns:cc="http://creativecommons.org/ns#"
   xmlns:rdf="http://www.w3.org/1999/02/22-rdf-syntax-ns#"
   xmlns:svg="http://www.w3.org/2000/svg"
   xmlns="http://www.w3.org/2000/svg"
   xmlns:xlink="http://www.w3.org/1999/xlink"
   xmlns:sodipodi="http://sodipodi.sourceforge.net/DTD/sodipodi-0.dtd"
   xmlns:inkscape="http://www.inkscape.org/namespaces/inkscape"
   version="1.0"
   width="210mm"
   height="297mm"
   id="svg2"
   inkscape:version="0.48.1 "
   sodipodi:docname="smile_jokingly.svg"
   inkscape:export-filename="D:\studyworkspace\Asia\design\smile_laugh.png"
   inkscape:export-xdpi="3.2650747"
   inkscape:export-ydpi="3.2650747">
  <metadata
     id="metadata32">
    <rdf:RDF>
      <cc:Work
         rdf:about="">
        <dc:format>image/svg+xml</dc:format>
        <dc:type
           rdf:resource="http://purl.org/dc/dcmitype/StillImage" />
        <dc:title></dc:title>
      </cc:Work>
    </rdf:RDF>
  </metadata>
  <sodipodi:namedview
     pagecolor="#ffffff"
     bordercolor="#666666"
     borderopacity="1"
     objecttolerance="10"
     gridtolerance="10"
     guidetolerance="10"
     inkscape:pageopacity="0"
     inkscape:pageshadow="2"
     inkscape:window-width="1920"
     inkscape:window-height="1018"
     id="namedview30"
     showgrid="false"
     inkscape:zoom="0.39105942"
     inkscape:cx="372.04724"
     inkscape:cy="476.7456"
     inkscape:window-x="-8"
     inkscape:window-y="-8"
     inkscape:window-maximized="1"
     inkscape:current-layer="svg2" />
  <defs
     id="defs5">
    <linearGradient
       id="linearGradient3950">
      <stop
         style="stop-color:#79513a;stop-opacity:1"
         offset="0"
         id="stop3952" />
      <stop
         style="stop-color:#271a12;stop-opacity:1"
         offset="1"
         id="stop3954" />
    </linearGradient>
    <linearGradient
       id="linearGradient3196">
      <stop
         style="stop-color:#fdeeee;stop-opacity:1"
         offset="0"
         id="stop3198" />
      <stop
         style="stop-color:#fac1bb;stop-opacity:1"
         offset="1"
         id="stop3200" />
    </linearGradient>
    <linearGradient
       id="linearGradient3154">
      <stop
         style="stop-color:#ffe500;stop-opacity:1"
         offset="0"
         id="stop3156" />
      <stop
         style="stop-color:#ff9b00;stop-opacity:1"
         offset="1"
         id="stop3158" />
    </linearGradient>
    <inkscape:perspective
       id="perspective9"
       inkscape:persp3d-origin="372.04724 : 350.78739 : 1"
       inkscape:vp_z="744.09448 : 526.18109 : 1"
       inkscape:vp_y="0 : 1000 : 0"
       inkscape:vp_x="0 : 526.18109 : 1"
       sodipodi:type="inkscape:persp3d" />
    <radialGradient
       cx="404.31665"
       cy="506.70181"
       r="222.75591"
       fx="404.31665"
       fy="506.70181"
       id="radialGradient3160"
       xlink:href="#linearGradient3154"
       gradientUnits="userSpaceOnUse"
       gradientTransform="matrix(1,0,0,0.9897742,-66.219201,-25.603219)"
       spreadMethod="pad" />
    <linearGradient
       x1="422.7608"
       y1="316.15829"
       x2="422.7608"
       y2="406.6579"
       id="linearGradient3956"
       xlink:href="#linearGradient3950"
       gradientUnits="userSpaceOnUse" />
    <radialGradient
       r="222.75591"
       fy="506.70181"
       fx="404.31665"
       cy="506.70181"
       cx="404.31665"
       spreadMethod="pad"
       gradientTransform="matrix(1,0,0,0.9897742,-664.21892,-111.72681)"
       gradientUnits="userSpaceOnUse"
       id="radialGradient3140"
       xlink:href="#linearGradient3154-4"
       inkscape:collect="always" />
    <linearGradient
       gradientTransform="matrix(1.2639839,-0.30306424,0.26256294,1.4829808,-464.72712,32.993365)"
       y2="626.48004"
       x2="642.44501"
       y1="529.09326"
       x1="566.70526"
       gradientUnits="userSpaceOnUse"
       id="linearGradient3128"
       xlink:href="#linearGradient3154-4"
       inkscape:collect="always" />
    <linearGradient
       id="linearGradient3416">
      <stop
         style="stop-color:#d20000;stop-opacity:1"
         offset="0"
         id="stop3418" />
      <stop
         style="stop-color:#6d0000;stop-opacity:1"
         offset="1"
         id="stop3420" />
    </linearGradient>
    <linearGradient
       id="linearGradient3382">
      <stop
         style="stop-color:#646464;stop-opacity:1"
         offset="0"
         id="stop3384" />
      <stop
         style="stop-color:#646464;stop-opacity:0"
         offset="1"
         id="stop3386" />
    </linearGradient>
    <linearGradient
       id="linearGradient3374">
      <stop
         style="stop-color:#646464;stop-opacity:1"
         offset="0"
         id="stop3376" />
      <stop
         style="stop-color:#bcbcbc;stop-opacity:1"
         offset="1"
         id="stop3378" />
    </linearGradient>
    <linearGradient
       id="linearGradient3196-4">
      <stop
         style="stop-color:#fdeeee;stop-opacity:1"
         offset="0"
         id="stop3198-0" />
      <stop
         style="stop-color:#fac1bb;stop-opacity:1"
         offset="1"
         id="stop3200-9" />
    </linearGradient>
    <linearGradient
       id="linearGradient3154-4">
      <stop
         style="stop-color:#ffe500;stop-opacity:1"
         offset="0"
         id="stop3156-8" />
      <stop
         style="stop-color:#ff9b00;stop-opacity:1"
         offset="1"
         id="stop3158-8" />
    </linearGradient>
    <inkscape:perspective
       id="perspective9-2"
       inkscape:persp3d-origin="372.04724 : 350.78739 : 1"
       inkscape:vp_z="744.09448 : 526.18109 : 1"
       inkscape:vp_y="0 : 1000 : 0"
       inkscape:vp_x="0 : 526.18109 : 1"
       sodipodi:type="inkscape:persp3d" />
    <radialGradient
       cx="404.31665"
       cy="506.70181"
       r="222.75591"
       fx="404.31665"
       fy="506.70181"
       id="radialGradient3160-4"
       xlink:href="#linearGradient3154-4"
       gradientUnits="userSpaceOnUse"
       gradientTransform="matrix(1,0,0,0.9897742,0,5.2990749)"
       spreadMethod="pad" />
    <radialGradient
       cx="392.90057"
       cy="313.69574"
       r="108.81631"
       fx="392.90057"
       fy="313.69574"
       id="radialGradient3202"
       xlink:href="#linearGradient3196-4"
       gradientUnits="userSpaceOnUse"
       gradientTransform="matrix(0.9995717,2.9265887e-2,-3.0427056e-2,1.0392314,9.7131327,-25.690257)" />
    <radialGradient
       cx="243.84201"
       cy="313.64542"
       r="108.81631"
       fx="243.84201"
       fy="313.64542"
       id="radialGradient3206"
       xlink:href="#linearGradient3196-4"
       gradientUnits="userSpaceOnUse"
       gradientTransform="matrix(0.8778636,0.1306894,-0.1530917,1.0283435,77.863917,-47.006679)" />
    <linearGradient
       x1="120.32496"
       y1="426.08728"
       x2="147.06889"
       y2="426.08728"
       id="linearGradient3380"
       xlink:href="#linearGradient3374"
       gradientUnits="userSpaceOnUse" />
    <linearGradient
       x1="126.23879"
       y1="194.51459"
       x2="151.04599"
       y2="194.51459"
       id="linearGradient3388"
       xlink:href="#linearGradient3382"
       gradientUnits="userSpaceOnUse" />
    <linearGradient
       x1="566.25616"
       y1="569.63403"
       x2="719.03314"
       y2="613.67566"
       id="linearGradient3422"
       xlink:href="#linearGradient3416"
       gradientUnits="userSpaceOnUse" />
    <linearGradient
       x1="560.56989"
       y1="577.29688"
       x2="677.3078"
       y2="577.29688"
       id="linearGradient3430"
       xlink:href="#linearGradient3154-4"
       gradientUnits="userSpaceOnUse" />
    <linearGradient
       gradientUnits="userSpaceOnUse"
       xlink:href="#linearGradient3950-9"
       id="linearGradient3956-1"
       y2="406.6579"
       x2="422.7608"
       y1="316.15829"
       x1="422.7608" />
    <radialGradient
       spreadMethod="pad"
       gradientTransform="matrix(1,0,0,0.9897742,-66.219201,-25.603219)"
       gradientUnits="userSpaceOnUse"
       xlink:href="#linearGradient3154-5"
       id="radialGradient3160-1"
       fy="506.70181"
       fx="404.31665"
       r="222.75591"
       cy="506.70181"
       cx="404.31665" />
    <inkscape:perspective
       sodipodi:type="inkscape:persp3d"
       inkscape:vp_x="0 : 526.18109 : 1"
       inkscape:vp_y="0 : 1000 : 0"
       inkscape:vp_z="744.09448 : 526.18109 : 1"
       inkscape:persp3d-origin="372.04724 : 350.78739 : 1"
       id="perspective9-7" />
    <linearGradient
       id="linearGradient3154-5">
      <stop
         id="stop3156-5"
         offset="0"
         style="stop-color:#ffe500;stop-opacity:1" />
      <stop
         id="stop3158-1"
         offset="1"
         style="stop-color:#ff9b00;stop-opacity:1" />
    </linearGradient>
    <linearGradient
       id="linearGradient3196-8">
      <stop
         id="stop3198-2"
         offset="0"
         style="stop-color:#fdeeee;stop-opacity:1" />
      <stop
         id="stop3200-4"
         offset="1"
         style="stop-color:#fac1bb;stop-opacity:1" />
    </linearGradient>
    <linearGradient
       id="linearGradient3950-9">
      <stop
         id="stop3952-4"
         offset="0"
         style="stop-color:#79513a;stop-opacity:1" />
      <stop
         id="stop3954-8"
         offset="1"
         style="stop-color:#271a12;stop-opacity:1" />
    </linearGradient>
    <linearGradient
       inkscape:collect="always"
       xlink:href="#linearGradient3154-4"
       id="linearGradient3097"
       gradientUnits="userSpaceOnUse"
       gradientTransform="matrix(-1.0732818,-0.25733978,-0.22294906,1.2592378,1215.6977,125.55749)"
       x1="566.70526"
       y1="529.09326"
       x2="642.44501"
       y2="626.48004" />
    <radialGradient
       inkscape:collect="always"
       xlink:href="#linearGradient3154-5"
       id="radialGradient3104"
       gradientUnits="userSpaceOnUse"
       gradientTransform="matrix(1,0,0,0.9897742,-1553.2435,363.24701)"
       spreadMethod="pad"
       cx="404.31665"
       cy="506.70181"
       fx="404.31665"
       fy="506.70181"
       r="222.75591" />
  </defs>
  <path
     d="M 569.46007 518.20868 A 215.25591 212.97806 0 1 1  138.94826,518.20868 A 215.25591 212.97806 0 1 1  569.46007 518.20868 z"
     transform="translate(66.219201,30.902294)"
     style="opacity:1;fill:url(#radialGradient3160);fill-opacity:1;fill-rule:evenodd;stroke:#000000;stroke-width:15;stroke-linecap:butt;stroke-linejoin:miter;marker:none;marker-start:none;marker-mid:none;marker-end:none;stroke-miterlimit:4;stroke-dasharray:none;stroke-dashoffset:0;stroke-opacity:1;visibility:visible;display:inline;overflow:visible;enable-background:accumulate"
     id="path2382"
     inkscape:export-filename="D:\studyworkspace\Asia\res\drawable\mocking_30.png"
     inkscape:export-xdpi="6.029119"
     inkscape:export-ydpi="6.029119" />
  <path
     d="m 472.32548,478.00374 c 0,9.92266 -3.977,1.74099 -9.0341,-4.72042 -2.39225,-3.05655 -7.9101,-9.72851 -19.33538,-9.9652 -10.36958,-0.21482 -14.33801,3.64428 -19.70986,8.99766 -5.97047,5.94995 -9.19392,14.22706 -8.71446,4.78386 0.50317,-9.90989 4.97962,-16.84592 9.65068,-23.8623 4.67106,-7.01637 12.81842,-11.10116 19.42429,-11.10116 6.60587,0 14.30118,3.85876 18.97224,10.87514 4.67106,7.01638 8.74659,15.06975 8.74659,24.99242 z"
     style="fill:#000000;fill-opacity:1;fill-rule:evenodd;stroke:#000000;stroke-width:0;stroke-linecap:butt;stroke-linejoin:miter;stroke-miterlimit:4;stroke-opacity:1;stroke-dasharray:none;stroke-dashoffset:0;marker:none;visibility:visible;display:inline;overflow:visible;enable-background:accumulate"
     id="path3164"
     inkscape:connector-curvature="0"
     sodipodi:nodetypes="sssssssss"
     inkscape:export-filename="D:\studyworkspace\Asia\res\drawable\mocking_30.png"
     inkscape:export-xdpi="6.029119"
     inkscape:export-ydpi="6.029119" />
  <use
     transform="translate(70.366256,0.34985015)"
     id="use3168"
     x="0"
     y="0"
     width="744.09448"
     height="1052.3622"
     xlink:href="#path3164"
     inkscape:export-filename="D:\studyworkspace\Asia\res\drawable\mocking_30.png"
     inkscape:export-xdpi="6.029119"
     inkscape:export-ydpi="6.029119" />
  <path
     d="m 618.16184,615.14477 c -5.31582,-3.24343 -7.01947,-3.111 -7.01947,-3.111 -22.15724,46.06451 -62.51371,90.84995 -93.43841,108.60575 -26.76492,15.36741 -91.21103,28.5039 -145.57218,-17.41212 -36.11723,-30.50631 -79.32141,-105.36633 -79.32141,-105.36633 0,0 3.65743,4.20209 -10.24959,9.00989 -1.58286,0.54721 -1.02107,-7.52229 -1.02107,-7.52229 0,0 25.37657,-13.15539 39.42299,-50.19894 1.28322,-3.38412 5.33446,-1.41602 4.80089,0.0554 -6.86783,18.93894 -9.61382,17.34491 -9.61382,17.34491 40.36745,-1.95946 64.15596,-3.41313 107.31001,-4.28056 23.96114,-0.48164 56.87471,1.11602 70.64506,1.21826 10.91575,0.0811 59.59172,-0.96489 95.49972,2.50694 0,0 -0.76659,0.009 -7.28123,-19.87934 1.44023,-1.42461 5.769,0.38595 5.769,0.38595 0,0 8.14962,53.96131 35.92371,64.63228 -1.83096,1.71 -1.82068,-0.0262 -5.8542,4.01117 z"
     style="fill:#000000;fill-opacity:1;fill-rule:evenodd;stroke:#000000;stroke-width:1.55939186px;stroke-linecap:butt;stroke-linejoin:round;stroke-opacity:1"
     id="path3178"
     inkscape:connector-curvature="0"
     sodipodi:nodetypes="ccsscscsscssccccc"
     inkscape:export-filename="D:\studyworkspace\Asia\res\drawable\mocking_30.png"
     inkscape:export-xdpi="6.029119"
     inkscape:export-ydpi="6.029119" />
  <path
     d="m 393.11335,410.31945 c 0,0 10.78266,-23.88852 32.00594,-29.79864 21.9438,-6.11077 33.98825,11.95805 37.52422,13.24385 -3.31097,-13.24386 -18.82367,-26.77055 -39.73152,-22.07308 -32.84333,7.37908 -29.79864,38.62787 -29.79864,38.62787 z"
     style="fill:#000000;fill-opacity:1;fill-rule:evenodd;stroke:#000000;stroke-width:1px;stroke-linecap:butt;stroke-linejoin:miter;stroke-opacity:1"
     id="path3236"
     inkscape:connector-curvature="0"
     inkscape:export-filename="D:\studyworkspace\Asia\res\drawable\mocking_30.png"
     inkscape:export-xdpi="6.029119"
     inkscape:export-ydpi="6.029119" />
  <use
     transform="matrix(0.92819274,0.37209976,-0.37209976,0.92819274,270.73364,-117.18299)"
     id="use3435"
     x="0"
     y="0"
     width="744.09448"
     height="1052.3622"
     xlink:href="#path3236"
     inkscape:export-filename="D:\studyworkspace\Asia\res\drawable\mocking_30.png"
     inkscape:export-xdpi="6.029119"
     inkscape:export-ydpi="6.029119" />
  <path
     style="font-size:medium;font-style:normal;font-variant:normal;font-weight:normal;font-stretch:normal;text-indent:0;text-align:start;text-decoration:none;line-height:normal;letter-spacing:normal;word-spacing:normal;text-transform:none;direction:ltr;block-progression:tb;writing-mode:lr-tb;text-anchor:start;baseline-shift:baseline;color:#000000;fill:#ffffff;fill-opacity:1;fill-rule:nonzero;stroke:none;stroke-width:59.79330826;marker:none;visibility:visible;display:inline;overflow:visible;enable-background:accumulate;font-family:Sans;-inkscape-font-specification:Sans"
     d="m 346.98769,643.7543 c -4.90533,0.0418 -9.53125,0.38064 -9.53125,0.38064 -5.75424,1.78556 3.49392,8.04249 8.40625,14.54899 l 10.4375,12.22285 c 1.94094,-0.22512 1.36352,0.76368 2.125,-0.0846 0.28339,3.33284 0.53125,5.70964 0.53125,5.70964 3.20601,5.30757 6.47412,6.56186 10.625,11.2078 5.6424,4.13579 11.03125,8.54331 11.03125,8.54331 l 12.96875,9.17772 c 0,0 9.7817,9.40008 17.375,8.92394 0.0794,-0.006 0.15387,-0.0646 0.21875,-0.16917 0.1838,0.3346 0.38265,0.68689 0.59375,0.97275 4.63861,6.28146 20.5625,7.02073 20.5625,7.02073 l 7.25,1.81863 c 0,0 15.93549,5.86532 21,-0.25377 0.18927,-0.22868 0.39153,-0.475 0.5625,-0.76128 0.10062,0.20442 0.204,0.36575 0.3125,0.54982 3.06582,5.2014 20.0625,0.25376 20.0625,0.25376 l 6.96875,-1.81862 c 0,0 14.27452,-0.26593 18.375,-6.13257 0.11427,-0.1635 0.20732,-0.32806 0.3125,-0.50752 6.61433,0.44466 15.09375,-8.92396 15.09375,-8.92396 l 11.3125,-9.17771 c 0,0 4.70676,-4.44981 9.625,-8.5856 3.61814,-4.64592 6.45546,-5.90023 9.25,-11.20779 0,0 0.22291,-2.31294 0.46875,-5.62506 0.18398,-0.007 0.35968,0.0139 0.625,0.0423 l 11.3125,-12.26514 c 5.32092,-6.5065 15.35787,-12.76343 9.125,-14.549 0,0 -12.83741,-0.85628 -19.1875,0 -0.80713,0.10885 -1.48996,0.75752 -2.03125,1.73405 -0.20367,-0.46601 -0.45652,-0.7623 -0.75,-0.80358 -3.59797,-0.5061 -17.78125,1.22651 -17.78125,1.22651 l -8.71875,0.63442 c 0,0 -17.60922,-1.21823 -18.65625,3.04513 -3.70034,-1.16157 -9.47069,-0.15748 -17.375,1.81862 l -9.46875,-0.93046 c 0,0 -15.20804,-4.29573 -18.875,1.52257 -0.0559,0.0889 -0.10266,0.20154 -0.15625,0.29604 -0.0222,-0.0269 -0.04,-0.0582 -0.0625,-0.0846 -5.2163,-6.11479 -18.9375,-3.38349 -18.9375,-3.38349 l -9.9375,-0.88808 c 0,0 -12.95431,-1.78675 -18.96875,-0.93047 -0.71062,0.10118 -1.28965,0.75462 -1.78125,1.77634 -0.0119,-0.048 -0.0188,-0.12514 -0.0312,-0.16919 -1.20119,-4.26334 -21.375,-3.04514 -21.375,-3.04514 l -10,-0.59211 c 0,0 -16.30977,-1.73261 -20.4375,-1.22651 -0.76291,0.0936 -1.22029,1.41797 -1.5,3.42579 -0.60524,-2.44907 -1.49575,-4.16848 -2.78125,-4.35626 -2.19843,-0.32109 -5.2443,-0.40572 -8.1875,-0.38062 z"
     id="rect3014"
     inkscape:connector-curvature="0"
     inkscape:export-filename="D:\studyworkspace\Asia\res\drawable\mocking_30.png"
     inkscape:export-xdpi="6.029119"
     inkscape:export-ydpi="6.029119" />
  <path
     style="font-size:medium;font-style:normal;font-variant:normal;font-weight:normal;font-stretch:normal;text-indent:0;text-align:start;text-decoration:none;line-height:normal;letter-spacing:normal;word-spacing:normal;text-transform:none;direction:ltr;block-progression:tb;writing-mode:lr-tb;text-anchor:start;baseline-shift:baseline;color:#000000;fill:#ffffff;fill-opacity:1;fill-rule:nonzero;stroke:none;stroke-width:59.79330826;marker:none;visibility:visible;display:inline;overflow:visible;enable-background:accumulate;font-family:Sans;-inkscape-font-specification:Sans"
     d="m 382.01894,570.71327 c 0,0 -14.17748,2.23113 -20.375,3.08743 -0.3941,0.0544 -0.75222,0.2045 -1.0625,0.46521 -6.17934,-0.8413 -17.09375,-0.16916 -17.09375,-0.16916 l -9.4375,0.29605 c 0,0 -0.53513,0.37023 -6.75,1.22652 -5.48009,0.75505 -17.5,17.721 -17.5,17.721 l -0.5625,11.84221 c 0,0 13.9628,19.69907 21.90625,28.12525 1.30651,1.38591 7.28125,6.38633 7.28125,6.38633 l 7.25,0.33835 c 0,0 7.96011,2.55283 13.65625,-0.0846 2.14063,3.38391 26.78125,1.31111 26.78125,1.31111 l 16.5,1.2265 c 0,0 6.43382,0.23496 10.5,-0.6344 4.28808,5.62128 21.0625,1.81862 21.0625,1.81862 l 8.03125,0.93046 c 0,0 15.19212,2.32067 21.65625,0.88816 5.75909,4.31915 18.78125,0.63441 18.78125,0.63441 l 6.9375,0.63442 c 0,0 14.99969,0.37171 19.21875,-4.31396 3.32873,1.3018 10.4375,0.97274 10.4375,0.97274 l 14.5625,-1.22648 c 0,0 22.83695,2.22426 23.75,-1.52258 0.18686,-0.76678 0.33606,-1.61379 0.46875,-2.49531 0.081,0.13751 0.16454,0.2596 0.25,0.38062 4.32062,6.1191 13.84375,2.41074 13.84375,2.41074 l 5.96875,-0.29605 c 0,0 4.95259,-5.04273 6.03125,-6.42863 6.55815,-8.42618 13.78125,-25.03781 13.78125,-25.03781 l -8.59375,-13.11101 c 0,0 -3.8347,-10.1979 -4.96875,-14.92964 -1.59512,-6.65551 -2.625,-5.83651 -2.625,-5.83651 l -7.78125,-0.29606 c 0,0 -13.91144,-0.98685 -16.96875,1.09964 -0.40525,-0.78978 -0.9045,-1.29263 -1.5625,-1.39569 -5.46687,-0.8563 -17.96875,-3.04514 -17.96875,-3.04514 l -9.75,0 c 0,0 -15.56584,-0.24514 -19.0625,2.66449 -0.2051,-0.14145 -0.44543,-0.21763 -0.6875,-0.25375 -5.73536,-0.85625 -17.0625,-0.93046 -17.0625,-0.93046 l -8.71875,-0.59212 c 0,0 -12.77328,-0.75659 -18.625,0.38065 -4.20439,-1.81046 -19.3125,-1.60715 -19.3125,-1.60715 l -11.4375,0 c 0,0 -12.96133,-0.85631 -19.375,0 -0.57438,0.0767 -1.09389,0.4012 -1.53125,0.93045 -6.33024,-1.68082 -18.78125,-1.56485 -18.78125,-1.56485 l -11.0625,0 z"
     id="rect3014-2-9"
     inkscape:connector-curvature="0"
     inkscape:export-filename="D:\studyworkspace\Asia\res\drawable\mocking_30.png"
     inkscape:export-xdpi="6.029119"
     inkscape:export-ydpi="6.029119" />
  <path
     inkscape:connector-curvature="0"
     d="m 356.96137,652.17084 c 7.73138,-18.58295 -11.05515,-77.40686 24.5204,-74.43897 42.60227,3.5541 1.99552,49.2313 47.02095,40.52958 11.55805,-2.23374 114.82606,-112.60939 165.8891,-71.46466 17.30953,13.94742 -94.61948,63.88406 -89.76477,75.12541 4.85462,11.24132 109.32618,-102.17458 125.71881,-42.68242 10.15453,36.85269 -113.51985,69.57489 -108.3642,71.2515 13.50102,4.39039 114.27692,-66.80966 98.22598,-19.64081 -16.17144,47.5233 -98.73547,50.97314 -94.81622,66.747 1.58887,6.39511 101.16505,-67.05408 73.48252,-14.06398 -6.46126,12.3682 -33.93533,44.91979 -84.05364,60.97524 -50.11831,16.05545 -115.15968,36.75085 -148.84774,19.20978 -28.08779,-14.62509 -46.14479,-4.17524 -40.9767,-56.94835 2.39106,-24.41569 22.72537,-32.39009 31.96551,-54.5994 z"
     style="fill:url(#linearGradient3097);fill-opacity:1;fill-rule:evenodd;stroke:#000000;stroke-width:11.86966991;stroke-linecap:butt;stroke-linejoin:miter;stroke-miterlimit:4;stroke-opacity:1;stroke-dasharray:none"
     id="path3400"
     sodipodi:nodetypes="ssssssssssssss"
     inkscape:export-filename="D:\studyworkspace\Asia\res\drawable\mocking_30.png"
     inkscape:export-xdpi="6.029119"
     inkscape:export-ydpi="6.029119" />
</svg>
