<?xml version="1.0" encoding="UTF-8" standalone="no"?>
<!-- Created with Inkscape (http://www.inkscape.org/) -->

<svg
   xmlns:dc="http://purl.org/dc/elements/1.1/"
   xmlns:cc="http://creativecommons.org/ns#"
   xmlns:rdf="http://www.w3.org/1999/02/22-rdf-syntax-ns#"
   xmlns:svg="http://www.w3.org/2000/svg"
   xmlns="http://www.w3.org/2000/svg"
   xmlns:xlink="http://www.w3.org/1999/xlink"
   xmlns:sodipodi="http://sodipodi.sourceforge.net/DTD/sodipodi-0.dtd"
   xmlns:inkscape="http://www.inkscape.org/namespaces/inkscape"
   width="400"
   height="400"
   id="svg11772"
   version="1.1"
   inkscape:version="0.48.1 "
   sodipodi:docname="smile_bomb.svg">
  <defs
     id="defs11774">
    <linearGradient
       inkscape:collect="always"
       xlink:href="#linearGradient4156"
       id="linearGradient11748"
       gradientUnits="userSpaceOnUse"
       x1="241.40979"
       y1="287.49377"
       x2="315.47369"
       y2="367.88477" />
    <linearGradient
       id="linearGradient4156"
       inkscape:collect="always">
      <stop
         id="stop4158"
         offset="0"
         style="stop-color: rgb(255, 255, 255); stop-opacity: 1;" />
      <stop
         id="stop4160"
         offset="1"
         style="stop-color: rgb(255, 255, 255); stop-opacity: 0;" />
    </linearGradient>
    <linearGradient
       inkscape:collect="always"
       xlink:href="#linearGradient7171"
       id="linearGradient11750"
       gradientUnits="userSpaceOnUse"
       x1="275.60828"
       y1="300.86383"
       x2="341.99622"
       y2="391.44925" />
    <linearGradient
       id="linearGradient7171">
      <stop
         id="stop7173"
         offset="0"
         style="stop-color: rgb(0, 17, 43); stop-opacity: 1;" />
      <stop
         id="stop7175"
         offset="1"
         style="stop-color: rgb(0, 85, 212); stop-opacity: 1;" />
    </linearGradient>
    <radialGradient
       inkscape:collect="always"
       xlink:href="#linearGradient7111"
       id="radialGradient11752"
       gradientUnits="userSpaceOnUse"
       gradientTransform="matrix(-0.593266, -0.593266, 0.715046, -0.715049, 243.27, 849.034)"
       cx="312.78131"
       cy="386.57211"
       fx="312.78131"
       fy="386.57211"
       r="53.035713" />
    <linearGradient
       id="linearGradient7111">
      <stop
         id="stop7113"
         offset="0"
         style="stop-color: rgb(255, 255, 255); stop-opacity: 0.408163;" />
      <stop
         id="stop7115"
         offset="1"
         style="stop-color: rgb(255, 255, 255); stop-opacity: 0;" />
    </linearGradient>
    <linearGradient
       inkscape:collect="always"
       xlink:href="#linearGradient4148"
       id="linearGradient11754"
       gradientUnits="userSpaceOnUse"
       gradientTransform="matrix(0.955335, 0, 0, 0.955335, 55.1032, 472.672)"
       x1="255.31609"
       y1="286.66653"
       x2="300.26785"
       y2="338.81863" />
    <linearGradient
       id="linearGradient4148"
       inkscape:collect="always">
      <stop
         id="stop4150"
         offset="0"
         style="stop-color: rgb(255, 255, 255); stop-opacity: 1;" />
      <stop
         id="stop4152"
         offset="1"
         style="stop-color: rgb(255, 255, 255); stop-opacity: 0;" />
    </linearGradient>
    <linearGradient
       y2="338.81863"
       x2="300.26785"
       y1="286.66653"
       x1="255.31609"
       gradientTransform="matrix(0.955335, 0, 0, 0.955335, 55.1032, 472.672)"
       gradientUnits="userSpaceOnUse"
       id="linearGradient11820"
       xlink:href="#linearGradient4148"
       inkscape:collect="always" />
    <linearGradient
       id="linearGradient7199">
      <stop
         style="stop-color: rgb(85, 0, 0); stop-opacity: 1;"
         offset="0"
         id="stop7201" />
      <stop
         style="stop-color: rgb(255, 0, 0); stop-opacity: 1;"
         offset="1"
         id="stop7203" />
    </linearGradient>
    <linearGradient
       id="linearGradient7111-1">
      <stop
         id="stop7113-1"
         offset="0"
         style="stop-color: rgb(255, 255, 255); stop-opacity: 0.408163;" />
      <stop
         id="stop7115-8"
         offset="1"
         style="stop-color: rgb(255, 255, 255); stop-opacity: 0;" />
    </linearGradient>
    <linearGradient
       inkscape:collect="always"
       xlink:href="#linearGradient4148-9"
       id="linearGradient11738"
       gradientUnits="userSpaceOnUse"
       gradientTransform="matrix(0.955335, 0, 0, 0.955335, -84.8968, 472.672)"
       x1="255.31609"
       y1="286.66653"
       x2="300.26785"
       y2="338.81863" />
    <linearGradient
       id="linearGradient4148-9"
       inkscape:collect="always">
      <stop
         id="stop4150-3"
         offset="0"
         style="stop-color: rgb(255, 255, 255); stop-opacity: 1;" />
      <stop
         id="stop4152-8"
         offset="1"
         style="stop-color: rgb(255, 255, 255); stop-opacity: 0;" />
    </linearGradient>
    <filter
       color-interpolation-filters="sRGB"
       inkscape:collect="always"
       id="filter6469"
       x="-0.12398447"
       width="1.2479689"
       y="-0.12398447"
       height="1.2479689">
      <feGaussianBlur
         inkscape:collect="always"
         stdDeviation="4.6214502"
         id="feGaussianBlur6471" />
    </filter>
    <clipPath
       clipPathUnits="userSpaceOnUse"
       id="clipPath6307">
      <path
         sodipodi:type="arc"
         style="fill:#1a1a1a;fill-opacity:1;stroke:none"
         id="path6309"
         sodipodi:cx="501.29279"
         sodipodi:cy="289.18274"
         sodipodi:rx="44.729313"
         sodipodi:ry="44.729313"
         d="m 546.0221,289.18274 a 44.729313,44.729313 0 1 1 -89.45863,0 44.729313,44.729313 0 1 1 89.45863,0 z"
         transform="matrix(2.0736921,0.66917142,-0.66917142,2.0736921,-443.13306,-223.63944)" />
    </clipPath>
    <filter
       color-interpolation-filters="sRGB"
       inkscape:collect="always"
       id="filter6273">
      <feGaussianBlur
         inkscape:collect="always"
         stdDeviation="0.6942192"
         id="feGaussianBlur6275" />
    </filter>
    <radialGradient
       inkscape:collect="always"
       xlink:href="#linearGradient3955"
       id="radialGradient6303"
       gradientUnits="userSpaceOnUse"
       gradientTransform="matrix(0.80127956,0.46261963,-0.47046132,0.8148626,419.61442,-94.547893)"
       cx="483.42368"
       cy="690.37976"
       fx="483.42368"
       fy="690.37976"
       r="15.667972" />
    <linearGradient
       id="linearGradient3955">
      <stop
         id="stop3957"
         offset="0"
         style="stop-color:#ddb100;stop-opacity:1;" />
      <stop
         style="stop-color:#ffa000;stop-opacity:1;"
         offset="0.5"
         id="stop3965" />
      <stop
         id="stop3967"
         offset="0.75"
         style="stop-color:#a26001;stop-opacity:1;" />
      <stop
         id="stop3959"
         offset="1"
         style="stop-color:#c7b00f;stop-opacity:1;" />
    </linearGradient>
    <filter
       color-interpolation-filters="sRGB"
       id="filter3989"
       inkscape:collect="always">
      <feGaussianBlur
         id="feGaussianBlur3991"
         stdDeviation="0.31390347"
         inkscape:collect="always" />
    </filter>
    <radialGradient
       inkscape:collect="always"
       xlink:href="#linearGradient3955"
       id="radialGradient6305"
       gradientUnits="userSpaceOnUse"
       gradientTransform="matrix(0.80127956,0.46261963,-0.47046132,0.8148626,419.61442,-94.547893)"
       cx="483.42368"
       cy="690.37976"
       fx="483.42368"
       fy="690.37976"
       r="15.667972" />
    <linearGradient
       id="linearGradient6528">
      <stop
         id="stop6530"
         offset="0"
         style="stop-color:#ddb100;stop-opacity:1;" />
      <stop
         style="stop-color:#ffa000;stop-opacity:1;"
         offset="0.5"
         id="stop6532" />
      <stop
         id="stop6534"
         offset="0.75"
         style="stop-color:#a26001;stop-opacity:1;" />
      <stop
         id="stop6536"
         offset="1"
         style="stop-color:#c7b00f;stop-opacity:1;" />
    </linearGradient>
    <filter
       color-interpolation-filters="sRGB"
       id="filter3973"
       inkscape:collect="always">
      <feGaussianBlur
         id="feGaussianBlur3975"
         stdDeviation="1.0246751"
         inkscape:collect="always" />
    </filter>
    <filter
       color-interpolation-filters="sRGB"
       height="1.5530435"
       y="-0.27652177"
       width="1.5530435"
       x="-0.27652177"
       id="filter4339"
       inkscape:collect="always">
      <feGaussianBlur
         id="feGaussianBlur4341"
         stdDeviation="10.30719"
         inkscape:collect="always" />
    </filter>
    <filter
       color-interpolation-filters="sRGB"
       inkscape:collect="always"
       id="filter6333"
       x="-0.052392676"
       width="1.1047854"
       y="-0.11505969"
       height="1.2301193">
      <feGaussianBlur
         inkscape:collect="always"
         stdDeviation="0.2549428"
         id="feGaussianBlur6335" />
    </filter>
    <filter
       color-interpolation-filters="sRGB"
       inkscape:collect="always"
       id="filter6197">
      <feGaussianBlur
         inkscape:collect="always"
         stdDeviation="0.33393088"
         id="feGaussianBlur6199" />
    </filter>
    <linearGradient
       y2="344.96054"
       x2="482.79929"
       y1="229.9653"
       x1="518.12231"
       gradientUnits="userSpaceOnUse"
       id="linearGradient3942"
       xlink:href="#linearGradient4279"
       inkscape:collect="always" />
    <linearGradient
       id="linearGradient4279"
       inkscape:collect="always">
      <stop
         id="stop4281"
         offset="0"
         style="stop-color:#ffffff;stop-opacity:1;" />
      <stop
         id="stop4283"
         offset="1"
         style="stop-color:#ffffff;stop-opacity:0;" />
    </linearGradient>
    <linearGradient
       y2="241.86218"
       x2="446.5"
       y1="283.86218"
       x1="431.5"
       gradientTransform="translate(-13.47897,520.04372)"
       gradientUnits="userSpaceOnUse"
       id="linearGradient3944"
       xlink:href="#linearGradient4287"
       inkscape:collect="always" />
    <linearGradient
       id="linearGradient4287"
       inkscape:collect="always">
      <stop
         id="stop4289"
         offset="0"
         style="stop-color:#666666;stop-opacity:1;" />
      <stop
         id="stop4291"
         offset="1"
         style="stop-color:#666666;stop-opacity:0;" />
    </linearGradient>
    <linearGradient
       y2="640.62073"
       x2="278.06339"
       y1="590.65369"
       x1="288.44614"
       gradientTransform="matrix(0.76421949,0,0,0.76421949,184.88703,282.36344)"
       gradientUnits="userSpaceOnUse"
       id="linearGradient3946"
       xlink:href="#linearGradient3849"
       inkscape:collect="always" />
    <linearGradient
       id="linearGradient3849"
       inkscape:collect="always">
      <stop
         id="stop3851"
         offset="0"
         style="stop-color:#cccccc;stop-opacity:1;" />
      <stop
         id="stop3853"
         offset="1"
         style="stop-color:#cccccc;stop-opacity:0;" />
    </linearGradient>
    <linearGradient
       inkscape:collect="always"
       xlink:href="#linearGradient4549"
       id="linearGradient4555"
       x1="454.1875"
       y1="722.67468"
       x2="457.9375"
       y2="724.48718"
       gradientUnits="userSpaceOnUse" />
    <linearGradient
       id="linearGradient4549">
      <stop
         style="stop-color:#000000;stop-opacity:1;"
         offset="0"
         id="stop4551" />
      <stop
         style="stop-color:#3c3c3c;stop-opacity:1;"
         offset="1"
         id="stop4553" />
    </linearGradient>
    <linearGradient
       inkscape:collect="always"
       xlink:href="#linearGradient4534"
       id="linearGradient4540"
       x1="429.48706"
       y1="559.35339"
       x2="460.69858"
       y2="560.15198"
       gradientUnits="userSpaceOnUse" />
    <linearGradient
       id="linearGradient4534">
      <stop
         style="stop-color:#000000;stop-opacity:1;"
         offset="0"
         id="stop4536" />
      <stop
         style="stop-color:#464646;stop-opacity:1;"
         offset="1"
         id="stop4538" />
    </linearGradient>
    <linearGradient
       inkscape:collect="always"
       xlink:href="#linearGradient4534"
       id="linearGradient4583"
       x1="449.59293"
       y1="711.88519"
       x2="461.65897"
       y2="719.11096"
       gradientUnits="userSpaceOnUse" />
    <linearGradient
       id="linearGradient6567">
      <stop
         style="stop-color:#000000;stop-opacity:1;"
         offset="0"
         id="stop6569" />
      <stop
         style="stop-color:#464646;stop-opacity:1;"
         offset="1"
         id="stop6571" />
    </linearGradient>
    <radialGradient
       inkscape:collect="always"
       xlink:href="#linearGradient3955"
       id="radialGradient6379"
       gradientUnits="userSpaceOnUse"
       gradientTransform="matrix(0.80127956,0.46261963,-0.47046132,0.8148626,419.61442,-94.547893)"
       cx="483.42368"
       cy="690.37976"
       fx="483.42368"
       fy="690.37976"
       r="15.667972" />
    <linearGradient
       id="linearGradient6574">
      <stop
         id="stop6576"
         offset="0"
         style="stop-color:#ddb100;stop-opacity:1;" />
      <stop
         style="stop-color:#ffa000;stop-opacity:1;"
         offset="0.5"
         id="stop6578" />
      <stop
         id="stop6580"
         offset="0.75"
         style="stop-color:#a26001;stop-opacity:1;" />
      <stop
         id="stop6582"
         offset="1"
         style="stop-color:#c7b00f;stop-opacity:1;" />
    </linearGradient>
    <linearGradient
       inkscape:collect="always"
       xlink:href="#linearGradient4534"
       id="linearGradient3091"
       gradientUnits="userSpaceOnUse"
       x1="449.59293"
       y1="711.88519"
       x2="461.65897"
       y2="719.11096"
       gradientTransform="matrix(3.0460407,0,0,3.0460407,-1158.8057,-1451.581)" />
    <linearGradient
       inkscape:collect="always"
       xlink:href="#linearGradient4549"
       id="linearGradient3096"
       gradientUnits="userSpaceOnUse"
       x1="454.1875"
       y1="722.67468"
       x2="457.9375"
       y2="724.48718"
       gradientTransform="matrix(3.0460407,0,0,3.0460407,-1158.8057,-1451.581)" />
    <linearGradient
       inkscape:collect="always"
       xlink:href="#linearGradient3849"
       id="linearGradient3100"
       gradientUnits="userSpaceOnUse"
       gradientTransform="matrix(2.3278437,0,0,2.3278437,-595.63228,-591.49047)"
       x1="288.44614"
       y1="590.65369"
       x2="278.06339"
       y2="640.62073" />
    <linearGradient
       inkscape:collect="always"
       xlink:href="#linearGradient4287"
       id="linearGradient3103"
       gradientUnits="userSpaceOnUse"
       gradientTransform="matrix(3.0460407,0,0,3.0460407,-1199.8632,132.49334)"
       x1="431.5"
       y1="283.86218"
       x2="446.5"
       y2="241.86218" />
  </defs>
  <sodipodi:namedview
     id="base"
     pagecolor="#ffffff"
     bordercolor="#666666"
     borderopacity="1.0"
     inkscape:pageopacity="0.0"
     inkscape:pageshadow="2"
     inkscape:zoom="1.0787109"
     inkscape:cx="304.09184"
     inkscape:cy="168.24225"
     inkscape:document-units="px"
     inkscape:current-layer="layer1"
     showgrid="false"
     inkscape:window-width="1920"
     inkscape:window-height="1018"
     inkscape:window-x="-8"
     inkscape:window-y="-8"
     inkscape:window-maximized="1" />
  <metadata
     id="metadata11777">
    <rdf:RDF>
      <cc:Work
         rdf:about="">
        <dc:format>image/svg+xml</dc:format>
        <dc:type
           rdf:resource="http://purl.org/dc/dcmitype/StillImage" />
        <dc:title></dc:title>
      </cc:Work>
    </rdf:RDF>
  </metadata>
  <g
     inkscape:label="Layer 1"
     inkscape:groupmode="layer"
     id="layer1"
     transform="translate(0, -652.362)">
    <path
       transform="matrix(2.9779413,0,0,2.9779413,-1334.5055,-1.704738)"
       d="m 546.0221,289.18274 c 0,24.70332 -20.026,44.72931 -44.72931,44.72931 -24.70332,0 -44.72932,-20.02599 -44.72932,-44.72931 0,-24.70332 20.026,-44.72931 44.72932,-44.72931 24.70331,0 44.72931,20.02599 44.72931,44.72931 z"
       sodipodi:ry="44.729313"
       sodipodi:rx="44.729313"
       sodipodi:cy="289.18274"
       sodipodi:cx="501.29279"
       id="path3918"
       style="fill:#1a1a1a;fill-opacity:1;stroke:none"
       sodipodi:type="arc"
       inkscape:export-filename="D:\studyworkspace\Asia\res\drawable\bomb_30.png"
       inkscape:export-xdpi="9.3435364"
       inkscape:export-ydpi="9.3435364" />
    <path
       sodipodi:type="arc"
       style="fill:#000000;fill-opacity:1;stroke:none"
       id="path3920"
       sodipodi:cx="501.29279"
       sodipodi:cy="289.18274"
       sodipodi:rx="44.729313"
       sodipodi:ry="44.729313"
       d="m 546.0221,289.18274 c 0,24.70332 -20.026,44.72931 -44.72931,44.72931 -24.70332,0 -44.72932,-20.02599 -44.72932,-44.72931 0,-24.70332 20.026,-44.72931 44.72932,-44.72931 24.70331,0 44.72931,20.02599 44.72931,44.72931 z"
       transform="matrix(2.9197799,0,0,2.9197799,-1305.3497,15.114524)"
       inkscape:export-filename="D:\studyworkspace\Asia\res\drawable\bomb_30.png"
       inkscape:export-xdpi="9.3435364"
       inkscape:export-ydpi="9.3435364" />
    <g
       id="g6149"
       transform="matrix(1.3303632,-0.42930243,0.42930243,1.3303632,-688.62736,87.218328)"
       style="opacity:0.18584068;filter:url(#filter6273)"
       clip-path="url(#clipPath6307)"
       inkscape:export-filename="D:\studyworkspace\Asia\res\drawable\bomb_30.png"
       inkscape:export-xdpi="9.3435364"
       inkscape:export-ydpi="9.3435364">
      <path
         sodipodi:type="star"
         style="fill:url(#radialGradient6303);fill-opacity:1;stroke:none;filter:url(#filter3989)"
         id="path6151"
         sodipodi:sides="7"
         sodipodi:cx="481.75"
         sodipodi:cy="691.36218"
         sodipodi:r1="16.222656"
         sodipodi:r2="4.877346"
         sodipodi:arg1="0.98511054"
         sodipodi:arg2="1.4339095"
         inkscape:flatsided="false"
         inkscape:rounded="0"
         inkscape:randomized="0"
         d="m 490.71741,704.88106 -8.30185,-8.68716 -5.64395,10.60817 1.61577,-11.907 -11.81275,2.20146 10.31669,-6.16063 -9.0863,-7.86299 11.24892,4.22482 0.48232,-12.00645 3.7105,11.4289 9.68773,-7.10881 -6.62201,10.02678 11.5981,3.14191 -11.96802,1.07429 z"
         inkscape:transform-center-x="0.13589183"
         inkscape:transform-center-y="0.15864112"
         transform="matrix(0.32730892,0.19669772,-0.19669772,0.32730892,476.51189,378.32381)" />
      <path
         transform="matrix(0.35708394,0.42374853,-0.42374853,0.35708394,619.1556,248.28897)"
         inkscape:transform-center-y="-0.27662885"
         inkscape:transform-center-x="-0.265432"
         d="m 490.71741,704.88106 -8.30185,-8.68716 -5.64395,10.60817 1.61577,-11.907 -11.81275,2.20146 10.31669,-6.16063 -9.0863,-7.86299 11.24892,4.22482 0.48232,-12.00645 3.7105,11.4289 9.68773,-7.10881 -6.62201,10.02678 11.5981,3.14191 -11.96802,1.07429 z"
         inkscape:randomized="0"
         inkscape:rounded="0"
         inkscape:flatsided="false"
         sodipodi:arg2="1.4339095"
         sodipodi:arg1="0.98511054"
         sodipodi:r2="4.877346"
         sodipodi:r1="16.222656"
         sodipodi:cy="691.36218"
         sodipodi:cx="481.75"
         sodipodi:sides="7"
         id="path6153"
         style="fill:url(#radialGradient6305);fill-opacity:1;stroke:none;filter:url(#filter3973)"
         sodipodi:type="star" />
    </g>
    <path
       sodipodi:type="arc"
       style="fill:#ffffff;fill-opacity:1;stroke:none;filter:url(#filter4339)"
       id="path3922"
       sodipodi:cx="501.29279"
       sodipodi:cy="289.18274"
       sodipodi:rx="44.729313"
       sodipodi:ry="44.729313"
       d="m 546.0221,289.18274 c 0,24.70332 -20.026,44.72931 -44.72931,44.72931 -24.70332,0 -44.72932,-20.02599 -44.72932,-44.72931 0,-24.70332 20.026,-44.72931 44.72932,-44.72931 24.70331,0 44.72931,20.02599 44.72931,44.72931 z"
       transform="matrix(0.40961118,0,0,0.40961118,25.704004,672.85678)"
       inkscape:export-filename="D:\studyworkspace\Asia\res\drawable\bomb_30.png"
       inkscape:export-xdpi="9.3435364"
       inkscape:export-ydpi="9.3435364" />
    <path
       sodipodi:nodetypes="cccscssczcsccc"
       inkscape:connector-curvature="0"
       id="path4320"
       d="m 262.02793,718.36287 c -16.84293,-1.43237 -28.70802,-5.92187 -36.36046,6.86199 -4.023,6.08197 -5.67142,12.44619 5.69588,13.66128 0.6842,0.0594 1.83941,2.01542 1.74733,2.68704 -0.60074,4.38225 4.73425,-5.8944 4.84686,-8.51018 -0.13098,1.43822 -0.088,0.47189 0.19038,-0.19038 0.27841,-0.66227 0.6786,-1.53091 1.14227,-2.37972 0.42528,-0.77857 0.89955,-1.52707 1.23745,-1.99896 26.78234,-12.19778 24.37423,11.30937 39.47349,15.10236 15.09922,3.79299 28.6435,6.71777 37.91498,-3.58452 2.01913,-2.46705 1.61126,-6.54899 -0.85609,-8.56772 -2.46735,-2.01877 -6.54923,-1.61026 -8.5676,0.85743 -16.39029,10.75471 -20.27189,4.55371 -27.37315,1.96381 -6.27884,-4.04511 -14.69562,-12.52435 -19.09134,-15.90243 z"
       style="font-size:medium;font-style:normal;font-variant:normal;font-weight:normal;font-stretch:normal;text-indent:0;text-align:start;text-decoration:none;line-height:normal;letter-spacing:normal;word-spacing:normal;text-transform:none;direction:ltr;block-progression:tb;writing-mode:lr-tb;text-anchor:start;baseline-shift:baseline;color:#000000;fill:#2b1100;fill-opacity:1;stroke:none;stroke-width:3.98795199;marker:none;visibility:visible;display:inline;overflow:visible;enable-background:accumulate;font-family:Sans;-inkscape-font-specification:Sans"
       inkscape:export-filename="D:\studyworkspace\Asia\res\drawable\bomb_30.png"
       inkscape:export-xdpi="9.3435364"
       inkscape:export-ydpi="9.3435364" />
    <path
       style="font-size:medium;font-style:normal;font-variant:normal;font-weight:normal;font-stretch:normal;text-indent:0;text-align:start;text-decoration:none;line-height:normal;letter-spacing:normal;word-spacing:normal;text-transform:none;direction:ltr;block-progression:tb;writing-mode:lr-tb;text-anchor:start;baseline-shift:baseline;opacity:0.85283179;color:#000000;fill:#28170b;fill-opacity:1;stroke:none;stroke-width:3.98795199;marker:none;visibility:visible;display:inline;overflow:visible;filter:url(#filter6333);enable-background:accumulate;font-family:Sans;-inkscape-font-specification:Sans"
       d="m 464.54312,738.93827 c -1.53895,-0.56843 -4.96939,-2.47967 -4.51024,-3.90248 0.67388,-0.46663 3.39622,3.74892 7.93768,2.45427 1.56858,0.29211 2.93963,0.59554 2.95163,1.86981 0.9857,0.48437 0.83126,0.88393 0.46958,0.95745 -1.37514,-0.98492 -1.96276,-2.33243 -4.02885,-1.97248 -0.83811,0.0925 -2.19177,0.48135 -2.81962,0.59341 z"
       id="path6311"
       inkscape:connector-curvature="0"
       sodipodi:nodetypes="cccccccc"
       inkscape:transform-center-x="1.9455736"
       inkscape:transform-center-y="-0.82976616"
       transform="matrix(3.0460407,0,0,3.0460407,-1158.8057,-1451.581)"
       inkscape:export-filename="D:\studyworkspace\Asia\res\drawable\bomb_30.png"
       inkscape:export-xdpi="9.3435364"
       inkscape:export-ydpi="9.3435364" />
    <path
       style="fill:#1a1a1a;stroke:none;filter:url(#filter6197)"
       d="m 456.35095,726.03635 6.75,8.83839 c -0.25331,0.93439 -0.81987,1.80613 -3.40012,2.27513 L 447.5,726.23718 z"
       id="path6163"
       inkscape:connector-curvature="0"
       sodipodi:nodetypes="ccccc"
       transform="matrix(3.0460407,0,0,3.0460407,-1158.8057,-1451.581)"
       inkscape:export-filename="D:\studyworkspace\Asia\res\drawable\bomb_30.png"
       inkscape:export-xdpi="9.3435364"
       inkscape:export-ydpi="9.3435364" />
    <path
       transform="matrix(2.1025868,0,0,1.4556422,-895.69665,380.64312)"
       d="m 546.0221,289.18274 c 0,24.70332 -20.026,44.72931 -44.72931,44.72931 -24.70332,0 -44.72932,-20.02599 -44.72932,-44.72931 0,-24.70332 20.026,-44.72931 44.72932,-44.72931 24.70331,0 44.72931,20.02599 44.72931,44.72931 z"
       sodipodi:ry="44.729313"
       sodipodi:rx="44.729313"
       sodipodi:cy="289.18274"
       sodipodi:cx="501.29279"
       id="path3924"
       style="fill:url(#linearGradient3942);fill-opacity:1;stroke:none"
       sodipodi:type="arc"
       inkscape:export-filename="D:\studyworkspace\Asia\res\drawable\bomb_30.png"
       inkscape:export-xdpi="9.3435364"
       inkscape:export-ydpi="9.3435364" />
    <path
       inkscape:connector-curvature="0"
       id="path3926"
       d="m 249.73631,938.74223 c -25.36764,20.57705 -57.71075,32.89411 -92.91987,32.89411 -31.31065,0 -60.310814,-9.78133 -84.196129,-26.41134 20.110631,25.4426 51.168179,41.77794 86.116959,41.77794 37.83975,0 71.25311,-19.13404 90.99904,-48.26071 z"
       style="fill:url(#linearGradient3103);fill-opacity:1;stroke:none"
       inkscape:export-filename="D:\studyworkspace\Asia\res\drawable\bomb_30.png"
       inkscape:export-xdpi="9.3435364"
       inkscape:export-ydpi="9.3435364" />
    <path
       style="fill:url(#linearGradient3100);fill-opacity:1;stroke:none"
       d="m 51.859838,806.70953 c -6.956517,13.64721 -10.845946,25.93905 -12.439421,37.17275 3.130782,0.41411 6.367444,0.95174 9.675109,1.67313 2.432933,-14.32327 7.470567,-25.7617 13.676083,-34.48118 -3.744742,-0.81658 -7.398589,-2.15894 -10.911771,-4.3647 z m 40.009806,4.80117 c -8.393213,0.19495 -16.903059,1.29143 -25.097061,0.2909 -6.477344,8.36409 -12.276336,19.75954 -15.276473,34.3357 3.837189,0.915 7.804962,1.9986 11.857445,3.34626 4.383374,-12.04582 12.597754,-24.46047 28.516089,-37.97295 z m -52.740185,34.69943 c -2.01261,17.50538 1.469776,32.52906 7.347233,46.48413 l 3.855496,1.3094 c -3.310833,-17.77913 -3.505658,-33.24701 -1.527651,-46.41139 -3.310894,-0.62407 -6.547677,-1.07885 -9.675078,-1.38214 z m 12.002924,1.89138 c -2.422547,13.06669 -2.568483,28.58946 0.800195,46.4841 l 5.237666,1.81864 c 1.234104,-15.59826 0.59672,-30.14456 5.674104,-45.24747 -4.003381,-1.23992 -7.92927,-2.26138 -11.711965,-3.05527 z"
       id="path3928"
       inkscape:connector-curvature="0"
       inkscape:export-filename="D:\studyworkspace\Asia\res\drawable\bomb_30.png"
       inkscape:export-xdpi="9.3435364"
       inkscape:export-ydpi="9.3435364" />
    <path
       transform="matrix(1.4533529,0.81764877,-0.81764877,1.4533529,38.281837,-405.60568)"
       d="m 447.09134,557.4054 c 0,2.09673 -5.09922,3.79648 -11.38944,3.79648 -6.29021,0 -11.38944,-1.69975 -11.38944,-3.79648 0,-2.09674 5.09923,-3.79648 11.38944,-3.79648 6.29022,0 11.38944,1.69974 11.38944,3.79648 z"
       sodipodi:ry="3.7964799"
       sodipodi:rx="11.38944"
       sodipodi:cy="557.4054"
       sodipodi:cx="435.7019"
       id="path3932"
       style="fill:#000000;fill-opacity:1;stroke:none"
       sodipodi:type="arc"
       inkscape:export-filename="D:\studyworkspace\Asia\res\drawable\bomb_30.png"
       inkscape:export-xdpi="9.3435364"
       inkscape:export-ydpi="9.3435364" />
    <path
       style="fill:url(#linearGradient3096);fill-opacity:1;stroke:none"
       d="m 218.76621,723.10168 -15.99172,28.55663 0.19038,0.095 c -0.26257,0.17911 -0.52017,0.40652 -0.66632,0.66632 -1.44562,2.56958 3.6187,8.13284 11.32746,12.46973 7.70877,4.33689 15.21242,5.806 16.65804,3.23642 0.13555,-0.24094 0.16631,-0.56608 0.19038,-0.8567 l 0.19037,0.095 16.08691,-28.55663 c -9.35805,3.25694 -29.44239,-10.17573 -27.9855,-15.70615 z"
       id="rect3934"
       inkscape:connector-curvature="0"
       inkscape:export-filename="D:\studyworkspace\Asia\res\drawable\bomb_30.png"
       inkscape:export-xdpi="9.3435364"
       inkscape:export-ydpi="9.3435364" />
    <path
       sodipodi:type="arc"
       style="fill:url(#linearGradient4540);fill-opacity:1;stroke:none"
       id="path3940"
       sodipodi:cx="435.7019"
       sodipodi:cy="557.4054"
       sodipodi:rx="11.38944"
       sodipodi:ry="3.7964799"
       d="m 447.09134,557.4054 c 0,2.09673 -5.09922,3.79648 -11.38944,3.79648 -6.29021,0 -11.38944,-1.69975 -11.38944,-3.79648 0,-2.09674 5.09923,-3.79648 11.38944,-3.79648 6.29022,0 11.38944,1.69974 11.38944,3.79648 z"
       transform="matrix(1.1118788,0.62553717,-0.52913772,0.94053083,43.295133,-66.037148)"
       inkscape:export-filename="D:\studyworkspace\Asia\res\drawable\bomb_30.png"
       inkscape:export-xdpi="9.3435364"
       inkscape:export-ydpi="9.3435364" />
    <path
       style="font-size:medium;font-style:normal;font-variant:normal;font-weight:normal;font-stretch:normal;text-indent:0;text-align:start;text-decoration:none;line-height:normal;letter-spacing:normal;word-spacing:normal;text-transform:none;direction:ltr;block-progression:tb;writing-mode:lr-tb;text-anchor:start;baseline-shift:baseline;color:#000000;fill:#2b1100;fill-opacity:1;stroke:none;stroke-width:3.98795199;marker:none;visibility:visible;display:inline;overflow:visible;enable-background:accumulate;font-family:Sans;-inkscape-font-specification:Sans"
       d="m 226.73879,723.54972 c -0.37481,0.52261 -0.6906,1.1179 -1.04707,1.7134 -0.87346,1.32049 -1.64867,2.61122 -2.18935,3.90274 1.87368,1.66089 4.33948,3.51157 7.23435,5.1402 2.06056,1.15926 4.04368,2.03926 5.9017,2.76047 0.57574,-1.31418 1.05799,-2.45764 1.23746,-3.33161 0.0305,-0.14468 0.14651,-0.52556 0.28541,-0.8567 0.27841,-0.66227 0.6786,-1.53091 1.14227,-2.37972 0.0621,-0.11361 0.12671,-0.17392 0.19037,-0.28541 -1.41339,-1.03306 -3.01095,-2.06235 -4.75943,-3.04604 -2.86484,-1.61175 -5.61961,-2.87571 -7.99586,-3.61717 z"
       id="path4503"
       inkscape:connector-curvature="0"
       inkscape:export-filename="D:\studyworkspace\Asia\res\drawable\bomb_30.png"
       inkscape:export-xdpi="9.3435364"
       inkscape:export-ydpi="9.3435364" />
    <path
       style="fill:url(#linearGradient3091);fill-opacity:1;stroke:none"
       d="m 222.76413,721.67385 c -1.92278,-0.10417 -3.36063,0.27384 -3.90273,1.23745 -1.44563,2.56958 3.61869,8.22803 11.32746,12.56492 7.70877,4.33689 15.21241,5.71081 16.65803,3.14123 1.44562,-2.56958 -3.71388,-8.13284 -11.42265,-12.46973 -4.81798,-2.71058 -9.45549,-4.30031 -12.66011,-4.47387 z m -0.57113,1.33264 c 2.5846,-0.19555 7.53146,1.39814 12.66011,4.2835 6.83821,3.84715 11.46033,8.54262 10.37558,10.47076 -1.08476,1.92815 -7.5353,0.42036 -14.37351,-3.42679 -6.83821,-3.84715 -11.46033,-8.54262 -10.37558,-10.47077 0.2711,-0.48203 0.85186,-0.79151 1.7134,-0.8567 z"
       id="path3938"
       inkscape:connector-curvature="0"
       inkscape:export-filename="D:\studyworkspace\Asia\res\drawable\bomb_30.png"
       inkscape:export-xdpi="9.3435364"
       inkscape:export-ydpi="9.3435364" />
    <path
       transform="matrix(1.5313833,0.95673625,-0.95673625,1.5313833,240.74683,-784.78271)"
       inkscape:transform-center-y="-0.21645186"
       inkscape:transform-center-x="-0.20769473"
       d="m 490.71741,704.88106 c -0.10013,0.0664 -8.18281,-8.70355 -8.30185,-8.68716 -0.11904,0.0164 -5.52959,10.64505 -5.64395,10.60817 -0.11437,-0.0369 1.70281,-11.82416 1.61577,-11.907 -0.087,-0.0829 -11.77027,2.31387 -11.81275,2.20146 -0.0425,-0.1124 10.30619,-6.04093 10.31669,-6.16063 0.0105,-0.1197 -9.1477,-7.7597 -9.0863,-7.86299 0.0614,-0.10329 11.14879,4.29124 11.24892,4.22482 0.10014,-0.0664 0.36328,-11.99005 0.48232,-12.00645 0.11904,-0.0164 3.59613,11.39202 3.7105,11.4289 0.11436,0.0369 9.6007,-7.19166 9.68773,-7.10881 0.087,0.0828 -6.66449,9.91438 -6.62201,10.02678 0.0425,0.1124 11.6086,3.02221 11.5981,3.14191 -0.0105,0.1197 -11.90662,0.971 -11.96802,1.07429 -0.0614,0.1033 4.87499,10.96029 4.77485,11.02671 z"
       inkscape:randomized="0"
       inkscape:rounded="0.01"
       inkscape:flatsided="false"
       sodipodi:arg2="1.4339095"
       sodipodi:arg1="0.98511054"
       sodipodi:r2="4.877346"
       sodipodi:r1="16.222656"
       sodipodi:cy="691.36218"
       sodipodi:cx="481.75"
       sodipodi:sides="7"
       id="path3948"
       style="fill:url(#radialGradient6379);fill-opacity:1;stroke:none;filter:url(#filter3973)"
       sodipodi:type="star"
       inkscape:export-filename="D:\studyworkspace\Asia\res\drawable\bomb_30.png"
       inkscape:export-xdpi="9.3435364"
       inkscape:export-ydpi="9.3435364" />
    <path
       style="font-size:medium;font-style:normal;font-variant:normal;font-weight:normal;font-stretch:normal;text-indent:0;text-align:start;text-decoration:none;line-height:normal;letter-spacing:normal;word-spacing:normal;text-transform:none;direction:ltr;block-progression:tb;writing-mode:lr-tb;text-anchor:start;baseline-shift:baseline;color:#000000;fill:#2b1100;fill-opacity:1;stroke:none;stroke-width:3.98795199;marker:none;visibility:visible;display:inline;overflow:visible;enable-background:accumulate;font-family:Sans;-inkscape-font-specification:Sans"
       d="m 227.4166,722.56951 c -0.24003,0.30725 -0.43361,0.71225 -0.66632,1.04707 2.34596,0.72301 5.08365,1.93717 7.90066,3.52199 1.80338,1.01457 3.35214,2.09875 4.78323,3.16502 0.22449,-0.41097 0.4061,-0.83273 0.63062,-1.1907 -1.48083,-1.10346 -3.02539,-2.09415 -4.84271,-3.11659 -2.74976,-1.54702 -5.40612,-2.66489 -7.80548,-3.42679 z"
       id="path4516"
       inkscape:connector-curvature="0"
       sodipodi:nodetypes="ccsccsc"
       inkscape:export-filename="D:\studyworkspace\Asia\res\drawable\bomb_30.png"
       inkscape:export-xdpi="9.3435364"
       inkscape:export-ydpi="9.3435364" />
  </g>
</svg>
