<?xml version="1.0" encoding="UTF-8" standalone="no"?>
<!-- Created with Inkscape (http://www.inkscape.org/) -->
<svg
   xmlns:dc="http://purl.org/dc/elements/1.1/"
   xmlns:cc="http://creativecommons.org/ns#"
   xmlns:rdf="http://www.w3.org/1999/02/22-rdf-syntax-ns#"
   xmlns:svg="http://www.w3.org/2000/svg"
   xmlns="http://www.w3.org/2000/svg"
   xmlns:sodipodi="http://sodipodi.sourceforge.net/DTD/sodipodi-0.dtd"
   xmlns:inkscape="http://www.inkscape.org/namespaces/inkscape"
   version="1.0"
   width="443"
   height="664"
   id="svg1903"
   sodipodi:version="0.32"
   inkscape:version="0.46"
   sodipodi:docname="xmpp-connecting.svg"
   inkscape:output_extension="org.inkscape.output.svg.inkscape">
  <metadata
     id="metadata13">
    <rdf:RDF>
      <cc:Work
         rdf:about="">
        <dc:format>image/svg+xml</dc:format>
        <dc:type
           rdf:resource="http://purl.org/dc/dcmitype/StillImage" />
      </cc:Work>
    </rdf:RDF>
  </metadata>
  <sodipodi:namedview
     inkscape:window-height="1148"
     inkscape:window-width="1920"
     inkscape:pageshadow="2"
     inkscape:pageopacity="0.0"
     guidetolerance="10.0"
     gridtolerance="10.0"
     objecttolerance="10.0"
     borderopacity="1.0"
     bordercolor="#666666"
     pagecolor="#ffffff"
     id="base"
     showgrid="false"
     inkscape:zoom="0.98398594"
     inkscape:cx="43.143793"
     inkscape:cy="332"
     inkscape:window-x="-8"
     inkscape:window-y="-8"
     inkscape:current-layer="svg1903" />
  <defs
     id="defs1905">
    <inkscape:perspective
       sodipodi:type="inkscape:persp3d"
       inkscape:vp_x="0 : 332 : 1"
       inkscape:vp_y="0 : 1000 : 0"
       inkscape:vp_z="443 : 332 : 1"
       inkscape:persp3d-origin="221.5 : 221.33333 : 1"
       id="perspective15" />
  </defs>
  <path
     d="M -45.2495,963.699 L -45.2495,963.699 L -45.2495,963.699 L -45.2495,963.699 z"
     style="fill:#000000;stroke:none"
     id="path10"
     inkscape:export-filename="D:\studyworkspace\Asia\res\drawable\xmpp_connecting_80.png"
     inkscape:export-xdpi="7.4712143"
     inkscape:export-ydpi="7.4712143" />
  <path
     d="M 155.01488,324.7402 C 155.01488,315.05786 153.22644,304.48824 147.60156,296.3691 C 136.32398,280.09466 112.11363,274.91833 95.261238,285.17364 C 86.743244,290.3611 82.005771,299.4176 79.335204,308.71609 C 74.033017,327.17955 76.464346,348.24926 80.17226,366.79061 C 81.357324,372.72073 82.581333,378.65919 84.244874,384.48082 C 84.845751,386.58084 85.123935,389.63212 86.489819,391.37889 C 88.873577,394.43296 94.693465,395.31747 98.262287,394.71667 C 108.96959,392.91705 106.3185,375.28803 105.95407,367.79194 C 105.10005,350.23246 99.925828,333.19033 104.9387,315.72542 C 107.06125,308.33503 111.16168,300.02396 118.62536,296.81414 C 125.36297,293.91305 132.16179,297.46222 134.82957,304.0432 C 139.14949,314.69905 138.07014,327.00154 140.77965,338.08852 C 141.70044,341.85742 142.71303,345.59017 144.41273,349.10318 C 144.90512,350.11842 145.58389,352.22956 147.01097,352.10161 C 150.47993,351.78453 155.41213,345.99627 158.01287,343.84896 C 166.41403,336.90639 175.04608,329.47149 184.71854,324.3341 C 189.26963,321.91699 196.75806,318.00345 201.40679,322.11448 C 202.59158,323.1631 203.54575,324.41476 204.39421,325.74153 C 209.85775,334.30014 204.43316,340.96735 200.88103,349.10596 C 196.28265,359.63943 191.57049,370.06719 184.9077,379.47972 C 179.17989,387.57383 171.35207,394.66938 166.77567,403.51171 C 163.8297,409.2054 162.16338,415.44426 163.38182,421.86948 C 164.36938,427.06528 168.39748,430.20279 173.69689,428.9845 C 177.66379,428.07218 180.35105,424.67321 182.61268,421.5357 C 186.64357,415.93936 190.38793,410.13163 194.39378,404.51304 C 202.14398,393.6458 211.28789,383.48505 217.80574,371.80284 C 225.66166,357.7202 229.45052,341.78511 229.4419,325.74431 C 229.43661,312.63519 224.68245,292.60019 209.41265,289.85209 C 206.53929,289.33752 203.25366,289.61845 200.39949,290.11633 C 196.85292,290.73382 193.29217,291.88814 190.05132,293.45689 C 181.3692,297.65693 173.86101,303.92916 167.40993,311.06088 C 163.38488,315.50568 159.77962,321.09646 155.0032,324.74576"
     style="fill:#ffb400;stroke:none"
     id="path26"
     inkscape:export-filename="D:\studyworkspace\Asia\res\drawable\xmpp_connecting_80.png"
     inkscape:export-xdpi="7.4712143"
     inkscape:export-ydpi="7.4712143" />
  <path
     d="M 140.66087,0.46413156 C 128.61828,2.0467937 116.37819,1.8826864 104.27718,3.7518409 C 81.096387,7.3316057 58.894244,14.532857 37.182261,23.219419 C 29.276272,26.381962 21.475992,29.906097 13.814805,33.61381 C 10.963697,34.993424 6.6154031,36.097672 4.323167,38.31173 C 3.1300358,39.466044 3.2524368,42.169643 3.1075029,43.713364 C 2.7044143,48.055254 2.1619555,52.391582 1.7416195,56.73069 C 0.12008493,73.4752 -1.0232513,90.725939 1.3746948,107.4621 C 2.1508281,112.8693 3.8310595,122.6768 10.476875,123.71429 C 20.697077,125.31364 28.636449,112.73857 33.652106,105.79322 C 45.366434,89.571625 58.69423,74.47097 77.905617,67.219652 C 100.52198,58.683289 126.41534,56.672279 150.34195,55.031206 C 217.47053,50.430638 290.82737,62.691402 340.27736,112.13499 C 347.30985,119.16657 353.96679,126.62928 359.62784,134.83187 C 381.7685,166.89121 393.47727,203.34528 399.11606,241.63514 C 401.76715,259.61184 403.57813,277.80272 399.4777,295.70433 C 392.36175,326.76233 373.70395,353.79554 352.26431,376.8095 C 337.5901,392.56102 321.0771,406.79942 303.89089,419.74165 C 294.29633,426.96515 283.53617,433.09275 274.51466,440.98937 C 264.12449,450.08481 255.48131,461.46663 248.91339,473.60222 C 231.23758,506.27905 226.4976,545.59805 231.69658,582.07438 C 232.76203,589.551 233.72454,597.06378 235.41868,604.43748 C 235.92498,606.64319 236.014,610.43435 237.44108,612.23675 C 240.11165,615.6079 247.40007,617.46315 251.48103,617.66064 C 255.73724,617.86647 258.56916,614.59545 259.61235,610.77925 C 261.39829,604.24 260.33006,596.99702 259.29522,590.41882 C 257.17545,576.94533 255.23373,563.37727 255.83461,549.70074 C 256.94178,524.44768 266.70604,500.91636 284.20937,482.61422 C 302.01037,464.00056 326.05381,453.26682 346.28335,437.67385 C 387.054,406.24869 423.57956,363.85059 437.6056,313.39732 C 442.61847,295.35386 444.27923,276.23397 441.98978,257.65924 C 439.09666,234.16408 430.50356,210.69673 422.4084,188.57006 C 397.73627,121.12473 355.41335,56.983805 288.20132,26.128848 C 261.52625,13.884773 233.63274,8.3106866 204.7489,4.2886666 C 191.20412,2.4028231 177.66212,1.2457274 164.02526,0.64770924 C 156.45059,0.31671312 148.21078,-0.52329384 140.65809,0.46969452"
     style="fill:#fffb00;stroke:none;fill-opacity:1"
     id="path28"
     inkscape:export-filename="D:\studyworkspace\Asia\res\drawable\xmpp_connecting_80.png"
     inkscape:export-xdpi="7.4712143"
     inkscape:export-ydpi="7.4712143" />
  <path
     d="M 35.510097,437.02854 C 22.410412,438.90326 18.602074,449.40335 21.022274,461.24967 C 24.121244,476.40874 36.04421,487.97135 47.858407,497.07792 C 78.127608,520.40897 117.22359,533.0202 155.34314,531.35131 C 170.21764,530.70045 186.42186,528.24162 200.07235,521.93044 C 207.39137,518.54816 215.04699,506.3625 205.07966,501.14722 C 203.71377,500.43238 201.92811,499.99012 200.40617,499.73979 C 196.05287,499.02773 191.1788,500.8802 187.05361,502.06511 C 179.7791,504.154 172.51015,506.29296 165.02144,507.49456 C 142.6471,511.08823 118.45344,505.97587 99.929166,492.71934 C 84.954799,481.99951 72.842668,467.86403 61.409027,453.57279 C 54.410196,444.82503 48.084292,435.22614 35.504812,437.02854"
     style="fill:#fffb00;stroke:none;fill-opacity:1"
     id="path30"
     inkscape:export-filename="D:\studyworkspace\Asia\res\drawable\xmpp_connecting_80.png"
     inkscape:export-xdpi="7.4712143"
     inkscape:export-ydpi="7.4712143" />
  <path
     d="M 18.485236,511.12161 C 15.152592,511.56108 11.330344,511.43591 8.4761759,513.53037 C 2.5230383,517.90007 9.0798352,526.68955 12.212187,530.67263 C 21.294616,542.21299 33.253747,551.79241 45.188118,560.23698 C 78.458647,583.77108 116.14701,597.34749 156.6787,600.12619 C 168.33155,600.92447 180.20166,600.09559 191.72683,598.17637 C 195.94104,597.47265 201.18508,597.15557 205.07966,595.33648 C 216.10103,590.1824 212.91304,569.36302 203.07673,564.73463 C 198.78157,562.71528 191.89095,565.38272 187.38716,566.00855 C 176.73549,567.49386 166.05322,567.64406 155.34036,567.3826 C 127.26325,566.69558 97.352904,558.04796 72.889403,544.40202 C 63.272582,539.03376 54.440518,532.50284 46.183739,525.23484 C 41.162518,520.81507 36.004986,513.58322 29.492977,511.34969 C 26.460772,510.30942 21.631219,510.70439 18.476613,511.11883"
     style="fill:#fffb00;stroke:none;fill-opacity:1"
     id="path32"
     inkscape:export-filename="D:\studyworkspace\Asia\res\drawable\xmpp_connecting_80.png"
     inkscape:export-xdpi="7.4712143"
     inkscape:export-ydpi="7.4712143" />
  <path
     d="M 25.161374,573.5408 C 20.415833,574.07206 16.838387,576.54758 13.717162,580.06893 C 11.5668,582.49438 9.5249296,584.68619 8.2897926,587.74582 C 1.4798483,604.59046 19.634136,620.49218 32.171889,628.44722 C 46.12532,637.29788 61.369803,643.8594 76.900816,649.3862 C 111.92975,661.85279 153.01474,669.83286 189.39286,658.68747 C 200.20587,655.3775 210.8937,649.325 218.75518,641.14467 C 223.18359,636.53576 226.22415,629.55703 218.10145,626.60588 C 213.28887,624.85911 207.44422,629.30669 203.07951,631.06459 C 192.77558,635.22012 182.09331,638.37432 171.03272,639.71221 C 156.46422,641.47845 143.34785,638.2714 129.3079,634.75839 C 117.31539,631.75996 105.18684,628.76152 93.591856,624.4391 C 83.699633,620.75086 73.874174,616.37003 65.217366,610.24521 C 62.630255,608.415 59.531285,606.78505 57.411523,604.40132 C 50.48196,596.60483 45.274355,587.48158 37.844061,580.06615 C 34.633817,576.86189 30.071878,572.99007 25.15887,573.53802"
     style="fill:#fffb00;stroke:none;fill-opacity:1"
     id="path34"
     inkscape:export-filename="D:\studyworkspace\Asia\res\drawable\xmpp_connecting_80.png"
     inkscape:export-xdpi="7.4712143"
     inkscape:export-ydpi="7.4712143" />
</svg>
