<?xml version="1.0" encoding="UTF-8" standalone="no"?>
<!-- Created with Inkscape (http://www.inkscape.org/) -->

<svg
   xmlns:dc="http://purl.org/dc/elements/1.1/"
   xmlns:cc="http://creativecommons.org/ns#"
   xmlns:rdf="http://www.w3.org/1999/02/22-rdf-syntax-ns#"
   xmlns:svg="http://www.w3.org/2000/svg"
   xmlns="http://www.w3.org/2000/svg"
   xmlns:sodipodi="http://sodipodi.sourceforge.net/DTD/sodipodi-0.dtd"
   xmlns:inkscape="http://www.inkscape.org/namespaces/inkscape"
   version="1.0"
   width="443"
   height="664"
   id="svg1903"
   sodipodi:version="0.32"
   inkscape:version="0.48.1 "
   sodipodi:docname="xmpp-free4chat.svg"
   inkscape:output_extension="org.inkscape.output.svg.inkscape">
  <metadata
     id="metadata13">
    <rdf:RDF>
      <cc:Work
         rdf:about="">
        <dc:format>image/svg+xml</dc:format>
        <dc:type
           rdf:resource="http://purl.org/dc/dcmitype/StillImage" />
        <dc:title></dc:title>
      </cc:Work>
    </rdf:RDF>
  </metadata>
  <sodipodi:namedview
     inkscape:window-height="1058"
     inkscape:window-width="1920"
     inkscape:pageshadow="2"
     inkscape:pageopacity="0.0"
     guidetolerance="10.0"
     gridtolerance="10.0"
     objecttolerance="10.0"
     borderopacity="1.0"
     bordercolor="#666666"
     pagecolor="#ffffff"
     id="base"
     showgrid="false"
     inkscape:zoom="0.34789157"
     inkscape:cx="-583.62799"
     inkscape:cy="697.85888"
     inkscape:window-x="0"
     inkscape:window-y="14"
     inkscape:current-layer="svg1903"
     inkscape:window-maximized="0" />
  <defs
     id="defs1905">
    <inkscape:perspective
       sodipodi:type="inkscape:persp3d"
       inkscape:vp_x="0 : 332 : 1"
       inkscape:vp_y="0 : 1000 : 0"
       inkscape:vp_z="443 : 332 : 1"
       inkscape:persp3d-origin="221.5 : 221.33333 : 1"
       id="perspective15" />
    <inkscape:perspective
       sodipodi:type="inkscape:persp3d"
       inkscape:vp_x="0 : 96.380356 : 1"
       inkscape:vp_y="0 : 1000 : 0"
       inkscape:vp_z="460.10153 : 96.380356 : 1"
       inkscape:persp3d-origin="230.05077 : 64.253571 : 1"
       id="perspective23" />
    <inkscape:perspective
       id="perspective3265"
       inkscape:persp3d-origin="221.5 : 221.33333 : 1"
       inkscape:vp_z="443 : 332 : 1"
       inkscape:vp_y="0 : 1000 : 0"
       inkscape:vp_x="0 : 332 : 1"
       sodipodi:type="inkscape:persp3d" />
    <inkscape:perspective
       id="perspective23-1"
       inkscape:persp3d-origin="230.05077 : 64.253571 : 1"
       inkscape:vp_z="460.10153 : 96.380356 : 1"
       inkscape:vp_y="0 : 1000 : 0"
       inkscape:vp_x="0 : 96.380356 : 1"
       sodipodi:type="inkscape:persp3d" />
  </defs>
  <path
     inkscape:connector-curvature="0"
     d="m -931.51229,-117.38869 c -12.0426,1.58267 -24.2827,1.41856 -36.3837,3.28771 -23.1808,3.57977 -45.38291,10.78102 -67.09491,19.46758 -7.906,3.16254 -15.7063,6.68668 -23.3675,10.39439 -2.8511,1.37962 -7.1994,2.48386 -9.4916,4.69792 -1.1931,1.15432 -1.0707,3.85791 -1.2157,5.40164 -0.4031,4.34189 -0.9455,8.67821 -1.3659,13.01732 -1.6215,16.74451 -2.7648,33.99525 -0.3669,50.73141 0.7761,5.4072 2.4564,15.2147 9.1022,16.25219 10.2202,1.59935 18.1596,-10.97572 23.1752,-17.92107 11.7144,-16.22159 25.0422,-31.32225 44.25351,-38.57357 22.6164,-8.53636 48.5098,-10.54737 72.4364,-12.18844 67.1286,-4.60057 140.4854,7.66019 189.9354,57.10378 7.0325,7.03158 13.6894,14.49429 19.3505,22.69688 22.1406,32.05934 33.8494,68.51341 39.4882,106.80327 2.6511,17.9767 4.4621,36.16758 0.3616,54.06919 -7.1159,31.058 -25.7737,58.09121 -47.2134,81.10517 -14.6742,15.75152 -31.1872,29.98992 -48.3734,42.93215 -9.5945,7.2235 -20.3547,13.3511 -29.3762,21.24772 -10.3902,9.09544 -19.0334,20.47726 -25.6013,32.61285 -17.6758,32.67683 -22.4158,71.99583 -17.2168,108.47216 1.0655,7.47662 2.028,14.9894 3.7221,22.3631 0.5063,2.20571 0.5953,5.99687 2.0224,7.79927 2.6706,3.37115 9.959,5.2264 14.04,5.42389 4.2562,0.20583 7.0881,-3.06519 8.1313,-6.88139 1.7859,-6.53925 0.7177,-13.78223 -0.3172,-20.36043 -2.1197,-13.47349 -4.0614,-27.04155 -3.4606,-40.71808 1.1072,-25.25306 10.8715,-48.78438 28.3748,-67.08652 17.801,-18.61366 41.8444,-29.3474 62.074,-44.94037 40.7706,-31.42516 77.2962,-73.82326 91.3222,-124.27653 5.0129,-18.04346 6.6737,-37.16335 4.3842,-55.73808 -2.8931,-23.49516 -11.4862,-46.96251 -19.5814,-69.08918 -24.6721,-67.44533 -66.995,-131.58625 -134.2071,-162.44121 -26.675,-12.24408 -54.5685,-17.81816 -83.4524,-21.84018 -13.5448,-1.88585 -27.0868,-3.04294 -40.7236,-3.64096 -7.5747,-0.331 -15.8145,-1.171 -23.3672,-0.17801"
     style="fill:#8bc800;fill-opacity:1;stroke:none"
     id="path28"
     inkscape:export-filename="D:\studyworkspace\Asia\res\xmpp_free4chat_96.png"
     inkscape:export-xdpi="12.622364"
     inkscape:export-ydpi="12.622364" />
  <path
     inkscape:connector-curvature="0"
     d="m -1036.6631,319.17572 c -13.0997,1.87472 -16.908,12.37481 -14.4878,24.22113 3.099,15.15907 15.0219,26.72168 26.8361,35.82825 30.26921,23.33105 69.36521,35.94228 107.48481,34.27339 14.8745,-0.65086 31.0787,-3.10969 44.7292,-9.42087 7.319,-3.38228 14.9746,-15.56794 5.0073,-20.78322 -1.3659,-0.71484 -3.1516,-1.1571 -4.6735,-1.40743 -4.3533,-0.71206 -9.2274,1.14041 -13.3526,2.32532 -7.2745,2.08889 -14.5434,4.22785 -22.0321,5.42945 -22.3744,3.59367 -46.568,-1.51869 -65.0923,-14.77522 -14.9744,-10.71983 -27.0865,-24.85531 -38.52021,-39.14655 -6.9988,-8.74776 -13.3247,-18.34665 -25.9042,-16.54425"
     style="fill:#8bc800;fill-opacity:1;stroke:none"
     id="path30"
     inkscape:export-filename="D:\studyworkspace\Asia\res\xmpp_free4chat_96.png"
     inkscape:export-xdpi="12.622364"
     inkscape:export-ydpi="12.622364" />
  <path
     inkscape:connector-curvature="0"
     d="m -1053.6879,393.26879 c -3.3327,0.43947 -7.1549,0.3143 -10.0091,2.40876 -5.9531,4.3697 0.6037,13.15918 3.736,17.14226 9.0824,11.54036 21.0416,21.11978 32.9759,29.56435 33.27061,23.5341 70.95891,37.11051 111.49061,39.88921 11.6529,0.79828 23.523,-0.0306 35.0482,-1.94982 4.2142,-0.70372 9.4582,-1.0208 13.3528,-2.83989 11.0214,-5.15408 7.8334,-25.97346 -2.0029,-30.60185 -4.2952,-2.01935 -11.1858,0.64809 -15.6896,1.27392 -10.6517,1.48531 -21.334,1.63551 -32.0468,1.37405 -28.0771,-0.68702 -57.9875,-9.33464 -82.451,-22.98058 -9.61681,-5.36826 -18.44891,-11.89918 -26.70561,-19.16718 -5.0213,-4.41977 -10.1788,-11.65162 -16.6908,-13.88515 -3.0322,-1.04027 -7.8618,-0.6453 -11.0164,-0.23086"
     style="fill:#8bc800;fill-opacity:1;stroke:none"
     id="path32"
     inkscape:export-filename="D:\studyworkspace\Asia\res\xmpp_free4chat_96.png"
     inkscape:export-xdpi="12.622364"
     inkscape:export-ydpi="12.622364" />
  <path
     inkscape:connector-curvature="0"
     d="m -1047.0118,455.68798 c -4.7455,0.53126 -8.323,3.00678 -11.4442,6.52813 -2.1504,2.42545 -4.1922,4.61726 -5.4274,7.67689 -6.8099,16.84464 11.3444,32.74636 23.8821,40.7014 13.9534,8.85066 29.1979,15.41218 44.72891,20.93898 35.029,12.46659 76.114,20.44666 112.4921,9.30127 10.813,-3.30997 21.5008,-9.36247 29.3623,-17.5428 4.4284,-4.60891 7.469,-11.58764 -0.6537,-14.53879 -4.8126,-1.74677 -10.6573,2.70081 -15.022,4.45871 -10.3039,4.15553 -20.9862,7.30973 -32.0468,8.64762 -14.5685,1.76624 -27.6848,-1.44081 -41.7248,-4.95382 -11.9925,-2.99843 -24.121,-5.99687 -35.716,-10.31929 -9.8922,-3.68824 -19.7177,-8.06907 -28.37451,-14.19389 -2.5871,-1.83021 -5.6861,-3.46016 -7.8059,-5.84389 -6.9295,-7.79649 -12.1371,-16.91974 -19.5674,-24.33517 -3.2103,-3.20426 -7.7722,-7.07608 -12.6852,-6.52813"
     style="fill:#8bc800;fill-opacity:1;stroke:none"
     id="path34"
     inkscape:export-filename="D:\studyworkspace\Asia\res\xmpp_free4chat_96.png"
     inkscape:export-xdpi="12.622364"
     inkscape:export-ydpi="12.622364" />
  <path
     inkscape:connector-curvature="0"
     d="m -917.15829,206.88738 c 0,-9.68234 -1.7884,-20.25196 -7.4133,-28.3711 -11.2776,-16.27444 -35.4879,-21.45077 -52.3403,-11.19546 -8.518,5.18746 -13.2555,14.24396 -15.9261,23.54245 -5.3022,18.46346 -2.8708,39.53317 0.8371,58.07452 1.185,5.93012 2.4091,11.86858 4.0726,17.69021 0.6009,2.10002 0.8791,5.1513 2.2449,6.89807 2.3838,3.05407 8.2037,3.93858 11.7725,3.33778 10.7073,-1.79962 8.0562,-19.42864 7.6918,-26.92473 -0.854,-17.55948 -6.0283,-34.60161 -1.0154,-52.06652 2.1226,-7.39039 6.223,-15.70146 13.6867,-18.91128 6.7376,-2.90109 13.5364,0.64808 16.2042,7.22906 4.3199,10.65585 3.2406,22.95834 5.9501,34.04532 0.9208,3.7689 1.9334,7.50165 3.6331,11.01466 0.4923,1.01524 1.1711,3.12638 2.5982,2.99843 3.469,-0.31708 8.4012,-6.10534 11.0019,-8.25265 8.4012,-6.94257 17.0332,-14.37747 26.7057,-19.51486 4.5511,-2.41711 12.0395,-6.33065 16.6882,-2.21962 1.1848,1.04862 2.139,2.30028 2.9874,3.62705 5.4636,8.55861 0.039,15.22582 -3.5131,23.36443 -4.5984,10.53347 -9.3106,20.96123 -15.9734,30.37376 -5.7278,8.09411 -13.5556,15.18966 -18.132,24.03199 -2.946,5.69369 -4.6123,11.93255 -3.3939,18.35777 0.9876,5.1958 5.0157,8.33331 10.3151,7.11502 3.9669,-0.91232 6.6542,-4.31129 8.9158,-7.4488 4.0309,-5.59634 7.7753,-11.40407 11.7811,-17.02266 7.7502,-10.86724 16.8941,-21.02799 23.412,-32.7102 7.8559,-14.08264 11.6447,-30.01773 11.6361,-46.05853 -0.01,-13.10912 -4.7594,-33.14412 -20.0292,-35.89222 -2.8734,-0.51457 -6.159,-0.23364 -9.0132,0.26424 -3.5466,0.61749 -7.1073,1.77181 -10.3482,3.34056 -8.6821,4.20004 -16.1903,10.47227 -22.6413,17.60399 -4.0251,4.4448 -7.6304,10.03558 -12.4068,13.68488"
     style="fill:#ffb400;stroke:none"
     id="path26"
     inkscape:export-filename="D:\studyworkspace\Asia\res\xmpp_free4chat_96.png"
     inkscape:export-xdpi="12.622364"
     inkscape:export-ydpi="12.622364" />
  <g
     id="g3001"
     transform="translate(842.21644,-22.995671)"
     inkscape:export-filename="D:\studyworkspace\Asia\res\xmpp_free4chat_96.png"
     inkscape:export-xdpi="12.622364"
     inkscape:export-ydpi="12.622364">
    <path
       inkscape:export-ydpi="2.1037273"
       inkscape:export-xdpi="2.1037273"
       inkscape:export-filename="D:\studyworkspace\Asia\res\drawable\icq_free4chat_16.png"
       transform="matrix(2.9573953,0,0,2.8604711,-1138.4399,905.61795)"
       d="m -201.22676,-167.33641 -26.6414,42.46472 -30.77963,-39.56805 -48.86541,11.18878 6.21435,-49.74332 -42.46472,-26.6414 39.56805,-30.77963 -11.18878,-48.8654 49.74333,6.21435 26.64139,-42.46472 30.77963,39.56805 48.86541,-11.18878 -6.21435,49.74332 42.46472,26.6414 -39.56805,30.77963 11.18878,48.8654 z"
       inkscape:randomized="0"
       inkscape:rounded="0"
       inkscape:flatsided="false"
       sodipodi:arg2="1.5203929"
       sodipodi:arg1="1.1276938"
       sodipodi:r2="110.46999"
       sodipodi:r1="75.119591"
       sodipodi:cy="-235.20139"
       sodipodi:cx="-233.43387"
       sodipodi:sides="8"
       id="path2386"
       style="fill:none;stroke:#ffff00;stroke-width:18.63027763;stroke-linejoin:round;stroke-miterlimit:4;stroke-opacity:1;stroke-dasharray:none"
       sodipodi:type="star" />
    <path
       inkscape:export-ydpi="2.1037273"
       inkscape:export-xdpi="2.1037273"
       inkscape:export-filename="D:\studyworkspace\Asia\res\drawable\icq_free4chat_16.png"
       transform="matrix(3.212825,0,0,3.1803161,-2131.778,-115.80859)"
       d="m 158.1599,108.18323 c 0,34.56603 -28.5893,62.58734 -63.855998,62.58734 -35.266697,0 -63.856003,-28.02131 -63.856003,-62.58734 0,-34.566037 28.589306,-62.587344 63.856003,-62.587344 35.266698,0 63.855998,28.021307 63.855998,62.587344 z"
       sodipodi:ry="62.587341"
       sodipodi:rx="63.856003"
       sodipodi:cy="108.18323"
       sodipodi:cx="94.303902"
       id="path2396"
       style="fill:#ffff00;fill-opacity:1;fill-rule:nonzero;stroke:none"
       sodipodi:type="arc" />
    <path
       inkscape:export-ydpi="2.1037273"
       inkscape:export-xdpi="2.1037273"
       inkscape:export-filename="D:\studyworkspace\Asia\res\drawable\icq_free4chat_16.png"
       transform="matrix(3.6124476,0,0,3.6124476,-2149.6045,-162.55798)"
       d="m 85.423266,94.227936 c 0,2.101988 -1.703998,3.805987 -3.805987,3.805987 -2.101988,0 -3.805987,-1.703999 -3.805987,-3.805987 0,-2.101989 1.703999,-3.805987 3.805987,-3.805987 2.101989,0 3.805987,1.703998 3.805987,3.805987 z"
       sodipodi:ry="3.8059869"
       sodipodi:rx="3.8059869"
       sodipodi:cy="94.227936"
       sodipodi:cx="81.617279"
       id="path3198"
       style="fill:#000000;fill-opacity:1;fill-rule:nonzero;stroke:#000000;stroke-width:2.1730001;stroke-miterlimit:4;stroke-opacity:1;stroke-dasharray:none"
       sodipodi:type="arc" />
    <path
       inkscape:export-ydpi="2.1037273"
       inkscape:export-xdpi="2.1037273"
       inkscape:export-filename="D:\studyworkspace\Asia\res\drawable\icq_free4chat_16.png"
       transform="matrix(3.6124476,0,0,3.6124476,-2096.1364,-164.08561)"
       d="m 85.423266,94.227936 c 0,2.101988 -1.703998,3.805987 -3.805987,3.805987 -2.101988,0 -3.805987,-1.703999 -3.805987,-3.805987 0,-2.101989 1.703999,-3.805987 3.805987,-3.805987 2.101989,0 3.805987,1.703998 3.805987,3.805987 z"
       sodipodi:ry="3.8059869"
       sodipodi:rx="3.8059869"
       sodipodi:cy="94.227936"
       sodipodi:cx="81.617279"
       id="path3200"
       style="fill:#000000;fill-opacity:1;fill-rule:nonzero;stroke:#000000;stroke-width:2.1730001;stroke-miterlimit:4;stroke-opacity:1;stroke-dasharray:none"
       sodipodi:type="arc" />
    <path
       inkscape:export-ydpi="2.1037273"
       inkscape:export-xdpi="2.1037273"
       inkscape:export-filename="D:\studyworkspace\Asia\res\drawable\icq_free4chat_16.png"
       sodipodi:open="true"
       transform="matrix(3.6124476,0,0,-3.6124476,-566.94978,-218.1227)"
       sodipodi:end="5.8939769"
       sodipodi:start="3.5360371"
       d="m -387.53313,-146.58018 c 8.88563,-15.95586 33.39349,-23.50641 54.73984,-16.86462 10.27426,3.19677 18.42294,9.31968 22.64585,17.01606"
       sodipodi:ry="31.293671"
       sodipodi:rx="41.865856"
       sodipodi:cy="-134.55417"
       sodipodi:cx="-348.88214"
       id="path3158"
       style="fill:#ffff02;fill-opacity:0.99122805;fill-rule:nonzero;stroke:#000000;stroke-width:4;stroke-linecap:round;stroke-linejoin:round;stroke-miterlimit:4;stroke-opacity:1;stroke-dasharray:none"
       sodipodi:type="arc" />
  </g>
</svg>
