<?xml version="1.0" encoding="UTF-8" standalone="no"?>
<!-- Created with Inkscape (http://www.inkscape.org/) -->

<svg
   xmlns:dc="http://purl.org/dc/elements/1.1/"
   xmlns:cc="http://creativecommons.org/ns#"
   xmlns:rdf="http://www.w3.org/1999/02/22-rdf-syntax-ns#"
   xmlns:svg="http://www.w3.org/2000/svg"
   xmlns="http://www.w3.org/2000/svg"
   xmlns:xlink="http://www.w3.org/1999/xlink"
   xmlns:sodipodi="http://sodipodi.sourceforge.net/DTD/sodipodi-0.dtd"
   xmlns:inkscape="http://www.inkscape.org/namespaces/inkscape"
   id="svg2"
   sodipodi:version="0.32"
   inkscape:version="0.48.1 "
   width="210mm"
   height="297mm"
   sodipodi:docname="ася menu.svg"
   inkscape:output_extension="org.inkscape.output.svg.inkscape"
   version="1.1">
  <metadata
     id="metadata7">
    <rdf:RDF>
      <cc:Work
         rdf:about="">
        <dc:format>image/svg+xml</dc:format>
        <dc:type
           rdf:resource="http://purl.org/dc/dcmitype/StillImage" />
        <dc:title></dc:title>
      </cc:Work>
    </rdf:RDF>
  </metadata>
  <defs
     id="defs5">
    <linearGradient
       id="linearGradient3820">
      <stop
         style="stop-color:#8c8c8c;stop-opacity:1;"
         offset="0"
         id="stop3822" />
      <stop
         style="stop-color:#b2b2b2;stop-opacity:1;"
         offset="1"
         id="stop3824" />
    </linearGradient>
    <linearGradient
       id="linearGradient3812">
      <stop
         style="stop-color:#8c8c8c;stop-opacity:1;"
         offset="0"
         id="stop3814" />
      <stop
         style="stop-color:#b2b2b2;stop-opacity:1;"
         offset="1"
         id="stop3816" />
    </linearGradient>
    <linearGradient
       id="linearGradient3804">
      <stop
         style="stop-color:#8c8c8c;stop-opacity:1;"
         offset="0"
         id="stop3806" />
      <stop
         style="stop-color:#b2b2b2;stop-opacity:1;"
         offset="1"
         id="stop3808" />
    </linearGradient>
    <inkscape:perspective
       sodipodi:type="inkscape:persp3d"
       inkscape:vp_x="0 : 526.18109 : 1"
       inkscape:vp_y="0 : 1000 : 0"
       inkscape:vp_z="744.09448 : 526.18109 : 1"
       inkscape:persp3d-origin="372.04724 : 350.78739 : 1"
       id="perspective9" />
    <linearGradient
       inkscape:collect="always"
       xlink:href="#linearGradient3804"
       id="linearGradient3810"
       x1="1675.2103"
       y1="84.345757"
       x2="1675.2103"
       y2="-847.09644"
       gradientUnits="userSpaceOnUse" />
    <linearGradient
       inkscape:collect="always"
       xlink:href="#linearGradient3812"
       id="linearGradient3818"
       x1="1507.0477"
       y1="1043.9943"
       x2="1507.0477"
       y2="117.54056"
       gradientUnits="userSpaceOnUse" />
    <linearGradient
       inkscape:collect="always"
       xlink:href="#linearGradient3820"
       id="linearGradient3826"
       x1="2096.2073"
       y1="1046.9708"
       x2="2096.2073"
       y2="117.50072"
       gradientUnits="userSpaceOnUse" />
    <linearGradient
       inkscape:collect="always"
       xlink:href="#linearGradient3804"
       id="linearGradient3843"
       gradientUnits="userSpaceOnUse"
       x1="1675.2103"
       y1="84.345757"
       x2="1675.2103"
       y2="-847.09644" />
  </defs>
  <sodipodi:namedview
     inkscape:window-height="1058"
     inkscape:window-width="1920"
     inkscape:pageshadow="2"
     inkscape:pageopacity="0"
     guidetolerance="10.0"
     gridtolerance="10.0"
     objecttolerance="10.0"
     borderopacity="1.0"
     bordercolor="#666666"
     pagecolor="#ffffff"
     id="base"
     showgrid="false"
     inkscape:zoom="0.31042862"
     inkscape:cx="849.12802"
     inkscape:cy="601.5674"
     inkscape:window-x="0"
     inkscape:window-y="14"
     inkscape:current-layer="svg2"
     inkscape:window-maximized="0" />
  <path
     style="fill:url(#linearGradient3818);fill-opacity:1;fill-rule:evenodd;stroke:#000000;stroke-width:35.43307114000000300;stroke-linecap:butt;stroke-linejoin:miter;stroke-miterlimit:4;stroke-dasharray:none;stroke-opacity:0.29100528"
     d="M 1350.0312 128.90625 C 1349.6107 129.64268 1298.477 225.2153 1307.3125 308.28125 C 1300.6782 319.50926 1295.6478 331.65908 1292.4688 344.625 C 1279.037 399.40713 1301.6186 456.54245 1347.5 500.34375 L 1342 499.75 C 1319.8382 517.50345 1314.8202 534.08137 1310.0938 559 C 1301.2974 584.45736 1300.7292 601.07877 1296.4375 627.3125 C 1298.6146 667.75567 1303.1401 698.93988 1312.375 716.15625 C 1328.2115 746.81662 1328.4843 762.16197 1346.5625 793.59375 C 1357.8766 811.7415 1362.5338 823.26279 1355.6562 823.21875 L 1357.9375 843.71875 C 1340.2525 839.47941 1321.9189 833.95731 1310.0938 841.4375 C 1281.3924 849.25796 1271.3916 861.74272 1266.8125 875.59375 C 1252.3031 908.84407 1253.4515 933.39191 1285.0625 955.34375 C 1311.3923 978.79163 1349.8716 994.10527 1394.375 1005.4375 C 1478.8079 1028.2211 1555.0594 1035.0848 1633.5625 1028.2188 C 1665.5896 1030.9018 1698.0353 1030.0386 1730.5312 1024.5938 C 1705.045 1020.4998 1679.0826 1014.8884 1652.2812 1007.6562 C 1607.7778 996.324 1569.2987 981.01041 1542.9688 957.5625 C 1511.3578 935.61066 1510.2095 911.06285 1524.7188 877.8125 C 1529.2978 863.96147 1539.2986 851.47674 1568 843.65625 C 1579.8251 836.17606 1598.1589 841.69819 1615.8438 845.9375 L 1613.5625 825.4375 C 1620.44 825.48154 1615.783 813.96028 1604.4688 795.8125 C 1586.3906 764.38072 1586.1179 749.0354 1570.2812 718.375 C 1561.0464 701.15863 1556.521 669.97445 1554.3438 629.53125 C 1558.6354 603.29752 1559.2036 586.67614 1568 561.21875 C 1572.7264 536.30012 1577.7446 519.7222 1599.9062 501.96875 L 1605.4062 502.5625 C 1559.5249 458.7612 1536.9432 401.62588 1550.375 346.84375 C 1553.554 333.87783 1558.5846 321.72801 1565.2188 310.5 C 1562.5599 285.50354 1565.3452 259.36769 1570.5312 235.03125 C 1565.4031 233.47899 1560.1939 232.0152 1554.9062 230.71875 C 1521.3761 222.49774 1488.2268 220.41816 1457.25 223.59375 C 1435.2174 187.06856 1394.2828 157.38216 1350.0312 128.90625 z "
     id="path2382"
     inkscape:export-filename="D:\studyworkspace\Asia\res\drawable-hdpi\accounts.png"
     inkscape:export-xdpi="4.5398703"
     inkscape:export-ydpi="4.5398703" />
  <path
     style="fill:none;fill-opacity:1;fill-rule:evenodd;stroke:#787878;stroke-width:24.80315018;stroke-linecap:butt;stroke-linejoin:miter;stroke-miterlimit:4;stroke-dasharray:none;stroke-opacity:1"
     d="M 1356.8149,843.72476 C 1387.1861,860.75 1416.4184,873.80379 1447.9285,883.58696 C 1527.0516,906.53337 1490.387,896.41676 1525.5231,905.61725"
     id="path3165"
     sodipodi:nodetypes="ccc"
     inkscape:export-filename="D:\studyworkspace\Asia\res\drawable-hdpi\accounts.png"
     inkscape:export-xdpi="4.5398703"
     inkscape:export-ydpi="4.5398703" />
  <path
     style="fill:none;fill-opacity:1;fill-rule:evenodd;stroke:#787878;stroke-width:24.80315018;stroke-linecap:butt;stroke-linejoin:miter;stroke-miterlimit:4;stroke-dasharray:none;stroke-opacity:1"
     d="M 1552.7092,797.02903 C 1549.6195,818.83205 1543.6348,840.89593 1534.4864,859.66964 C 1528.4122,878.78402 1521.1991,896.30814 1515.1248,900.67076"
     id="path3169"
     sodipodi:nodetypes="ccc"
     inkscape:export-filename="D:\studyworkspace\Asia\res\drawable-hdpi\accounts.png"
     inkscape:export-xdpi="4.5398703"
     inkscape:export-ydpi="4.5398703" />
  <path
     style="fill:none;fill-opacity:1;fill-rule:evenodd;stroke:#787878;stroke-width:24.80315018;stroke-linecap:butt;stroke-linejoin:miter;stroke-miterlimit:4;stroke-dasharray:none;stroke-opacity:1"
     d="M 1467.2902,794.75119 C 1472.4487,816.61392 1470.4766,841.59622 1469.568,857.3918 L 1472.9848,889.28156"
     id="path3171"
     sodipodi:nodetypes="ccc"
     inkscape:export-filename="D:\studyworkspace\Asia\res\drawable-hdpi\accounts.png"
     inkscape:export-xdpi="4.5398703"
     inkscape:export-ydpi="4.5398703" />
  <path
     style="fill:#ffffff;fill-opacity:1;fill-rule:evenodd;stroke:#787878;stroke-width:13.82400417;stroke-linecap:butt;stroke-linejoin:miter;stroke-miterlimit:4;stroke-dasharray:none;stroke-opacity:1"
     d="M 1363.823,453.24976 L 1067.3546,383.42642"
     id="path3187"
     inkscape:export-filename="D:\studyworkspace\Asia\res\drawable-hdpi\accounts.png"
     inkscape:export-xdpi="4.5398703"
     inkscape:export-ydpi="4.5398703" />
  <path
     style="fill:#ffffff;fill-opacity:1;fill-rule:evenodd;stroke:#787878;stroke-width:13.90520763;stroke-linecap:butt;stroke-linejoin:miter;stroke-miterlimit:4;stroke-dasharray:none;stroke-opacity:1"
     d="M 1362.6435,479.40432 L 1068.5341,459.77467"
     id="path3189"
     inkscape:export-filename="D:\studyworkspace\Asia\res\drawable-hdpi\accounts.png"
     inkscape:export-xdpi="4.5398703"
     inkscape:export-ydpi="4.5398703" />
  <path
     style="fill:#ffffff;fill-opacity:1;fill-rule:evenodd;stroke:#787878;stroke-width:13.56386471;stroke-linecap:butt;stroke-linejoin:miter;stroke-miterlimit:4;stroke-dasharray:none;stroke-opacity:1"
     d="M 1361.7965,416.37187 L 1098.993,317.80151"
     id="path3191"
     inkscape:export-filename="D:\studyworkspace\Asia\res\drawable-hdpi\accounts.png"
     inkscape:export-xdpi="4.5398703"
     inkscape:export-ydpi="4.5398703" />
  <path
     sodipodi:type="arc"
     style="fill:#787878;fill-opacity:1;stroke-width:24.80315018;stroke-miterlimit:4;stroke-dasharray:none"
     id="path3183"
     sodipodi:cx="228.92294"
     sodipodi:cy="329.14792"
     sodipodi:rx="34.167603"
     sodipodi:ry="26.195162"
     d="M 263.09055,329.14792 A 34.167603,26.195162 0 1 1 194.75534,329.14792 A 34.167603,26.195162 0 1 1 263.09055,329.14792 z"
     transform="matrix(0.5833334,0,0,0.7391304,1304.7093,120.95615)"
     inkscape:export-filename="D:\studyworkspace\Asia\res\drawable-hdpi\accounts.png"
     inkscape:export-xdpi="4.5398703"
     inkscape:export-ydpi="4.5398703" />
  <path
     style="fill:url(#linearGradient3826);fill-opacity:1;fill-rule:evenodd;stroke:#000000;stroke-width:35.43307114000000300;stroke-linecap:butt;stroke-linejoin:miter;stroke-miterlimit:4;stroke-dasharray:none;stroke-opacity:0.29100528"
     d="M 1880.125 135.9375 C 1879.8329 136.44901 1855.0728 182.73337 1842.9375 238.78125 C 1865.1889 246.78227 1885.6952 257.17932 1903.9688 269.375 C 1940.1998 248.19259 1989.2569 241.02666 2040.625 236.34375 C 2040.6568 237.18518 2041.7716 344.08271 1996.5 413.6875 C 1997.1155 426.49475 1995.938 439.3454 1992.8125 452.09375 C 1984.4999 485.99724 1963.5308 514.31306 1934.3125 535.15625 L 1934.75 535.21875 C 1928.697 561.03428 1938.4208 560.40323 1955.5 586.21875 C 2046.6006 625.4171 2089.94 653.49193 2121.375 706.4375 C 2153.4586 768.15946 2158.2251 822.58352 2159.125 864.15625 C 2156.6031 904.57948 2158.3793 933.51306 2121.5312 972.5625 C 2074.3953 1002.0699 2026.3644 1018.431 1978.5625 1025.0938 C 2042.2131 1037.5754 2102.2445 1040.6212 2163.6562 1035.25 C 2239.5843 1041.6109 2317.7908 1028.1252 2393.7188 980.59375 C 2430.567 941.54435 2428.8218 912.61073 2431.3438 872.1875 C 2430.4441 830.61474 2425.6773 776.19071 2393.5938 714.46875 C 2362.1587 661.52315 2318.8194 633.44835 2227.7188 594.25 C 2210.6397 568.43445 2200.8845 569.06553 2206.9375 543.25 L 2206.5 543.1875 C 2235.7183 522.34435 2256.6874 494.02849 2265 460.125 C 2268.1255 447.37663 2269.303 434.526 2268.6875 421.71875 C 2313.9591 352.11394 2312.8443 245.21643 2312.8125 244.375 C 2261.4444 249.05791 2212.3873 256.22384 2176.1562 277.40625 C 2149.898 259.88161 2119.0493 246.09832 2085 237.75 C 2051.4698 229.52899 2018.3205 227.44941 1987.3438 230.625 C 1965.3112 194.09981 1924.3765 164.41341 1880.125 135.9375 z "
     id="path4763"
     inkscape:export-filename="D:\studyworkspace\Asia\res\drawable-hdpi\accounts.png"
     inkscape:export-xdpi="4.5398703"
     inkscape:export-ydpi="4.5398703" />
  <path
     style="fill:none;fill-opacity:1;fill-rule:evenodd;stroke:#787878;stroke-width:24.80315018;stroke-linecap:butt;stroke-linejoin:miter;stroke-miterlimit:4;stroke-dasharray:none;stroke-opacity:1"
     d="M 2236.5485,714.08855 C 2241.8933,736.13754 2243.7209,754.66928 2239.9652,767.6178 C 2246.0352,772.49453 2235.0211,804.1361 2204.6587,848.48112 C 2188.7138,871.58647 2172.769,897.57127 2156.8241,923.64985 L 2152.2684,927.06661"
     id="path4767"
     sodipodi:nodetypes="ccccc"
     inkscape:export-filename="D:\studyworkspace\Asia\res\drawable-hdpi\accounts.png"
     inkscape:export-xdpi="4.5398703"
     inkscape:export-ydpi="4.5398703" />
  <path
     style="fill:#ffffff;fill-opacity:1;fill-rule:evenodd;stroke:#787878;stroke-width:13.44564056;stroke-linecap:butt;stroke-linejoin:miter;stroke-miterlimit:4;stroke-dasharray:none;stroke-opacity:1"
     d="M 2153.8371,506.06411 L 2433.484,571.4826"
     id="path4779"
     inkscape:export-filename="D:\studyworkspace\Asia\res\drawable-hdpi\accounts.png"
     inkscape:export-xdpi="4.5398703"
     inkscape:export-ydpi="4.5398703" />
  <path
     style="fill:#ffffff;fill-opacity:1;fill-rule:evenodd;stroke:#787878;stroke-width:13.57200623;stroke-linecap:butt;stroke-linejoin:miter;stroke-miterlimit:4;stroke-dasharray:none;stroke-opacity:1"
     d="M 2136.1546,530.96323 L 2401.1742,640.58814"
     id="path4781"
     inkscape:export-filename="D:\studyworkspace\Asia\res\drawable-hdpi\accounts.png"
     inkscape:export-xdpi="4.5398703"
     inkscape:export-ydpi="4.5398703" />
  <path
     style="fill:#ffffff;fill-opacity:1;fill-rule:evenodd;stroke:#787878;stroke-width:13.51274967;stroke-linecap:butt;stroke-linejoin:miter;stroke-miterlimit:4;stroke-dasharray:none;stroke-opacity:1"
     d="M 2166.8451,476.17288 L 2431.6149,491.99843"
     id="path4783"
     inkscape:export-xdpi="4.5398703"
     inkscape:export-ydpi="4.5398703"
     inkscape:export-filename="D:\studyworkspace\Asia\res\drawable-hdpi\accounts.png" />
  <path
     sodipodi:type="arc"
     style="fill:#787878;fill-opacity:1;stroke-width:24.80315018;stroke-miterlimit:4;stroke-dasharray:none"
     id="path4787"
     sodipodi:cx="228.92294"
     sodipodi:cy="329.14792"
     sodipodi:rx="34.167603"
     sodipodi:ry="26.195162"
     d="M 263.09055,329.14792 A 34.167603,26.195162 0 1 1 194.75534,329.14792 A 34.167603,26.195162 0 1 1 263.09055,329.14792 z"
     transform="matrix(0.5833334,0,0,0.7391304,1972.0343,157.60229)"
     inkscape:export-filename="D:\studyworkspace\Asia\res\drawable-hdpi\accounts.png"
     inkscape:export-xdpi="4.5398703"
     inkscape:export-ydpi="4.5398703" />
  <g
     id="g3828"
     transform="translate(112.74734,956.74168)"
     inkscape:export-filename="D:\studyworkspace\Asia\res\drawable-hdpi\accounts.png"
     inkscape:export-xdpi="4.5398703"
     inkscape:export-ydpi="4.5398703">
    <path
       sodipodi:nodetypes="ccscccccccccccccccccccscccscc"
       id="path4897"
       d="m 1491.9557,-827.23485 c -0.4204,0.73643 -51.5543,96.30905 -42.7188,179.375 -6.6342,11.22802 -11.6647,23.37783 -14.8437,36.34375 -13.4317,54.78214 9.1498,111.91745 55.0312,155.71875 l -5.5,-0.59375 c -22.1617,17.75346 -27.1798,34.33137 -31.9062,59.25 -8.7963,25.45737 -9.3646,42.07877 -13.6563,68.3125 2.1772,40.44318 6.7026,71.62738 15.9375,88.84375 15.8366,30.66038 16.1093,46.00572 34.1875,77.4375 11.3142,18.14776 15.9713,29.66904 9.0938,29.625 l 2.2812,20.5 c -17.6849,-4.23933 -36.0186,-9.76144 -47.8437,-2.28125 -28.7012,7.82047 -38.7021,20.30522 -43.2813,34.15625 -14.5093,33.25033 -13.361,57.79816 18.25,79.75 26.3299,23.44789 64.8091,38.76154 109.3125,50.09377 84.433,22.7836 160.6844,29.6472 239.1875,22.7812 75.928,6.3609 154.1345,-7.1248 230.0625,-54.65622 36.8482,-39.04942 35.0875,-67.98042 37.6094,-108.40365 -0.8998,-41.57275 -5.6572,-96.00459 -37.7408,-157.72655 -31.4351,-52.9456 -74.7797,-81.01909 -165.8803,-120.21744 -17.0792,-25.81552 -26.8225,-25.18058 -20.7695,-50.99611 l -0.4375,-0.0625 c 29.2184,-20.84317 50.1874,-49.15901 58.5,-83.0625 3.1256,-12.74836 4.303,-25.599 3.6875,-38.40625 45.2717,-69.6048 44.1568,-176.50232 44.125,-177.34375 -51.368,4.68291 -100.4252,11.84884 -136.6563,33.03125 -26.2583,-17.52463 -57.1069,-31.30793 -91.1562,-39.65625 -33.5301,-8.22101 -66.6795,-10.30059 -97.6563,-7.125 -22.0325,-36.52519 -62.9672,-66.21159 -107.2187,-94.6875 z"
       style="fill:url(#linearGradient3843);fill-opacity:1;stroke:#000000;stroke-width:35.43307114;stroke-linecap:butt;stroke-linejoin:miter;stroke-miterlimit:4;stroke-opacity:0.22222224;stroke-dasharray:none"
       inkscape:connector-curvature="0" />
    <path
       sodipodi:nodetypes="cccccc"
       id="path4899"
       d="m 1498.727,-112.42542 c 30.3712,17.02524 59.6035,30.07903 91.1135,39.8622 79.1232,22.94641 73.0614,19.27251 108.1975,28.473 75.5254,11.44988 87.3734,10.71939 127.559,14.80596 44.0083,1.86826 87.8995,3.61939 123.0035,-3.41676 13.4446,-3.03712 26.0246,-6.07424 36.4454,-9.11136"
       style="fill:none;stroke:#787878;stroke-width:24.80315018;stroke-linecap:butt;stroke-linejoin:miter;stroke-miterlimit:4;stroke-opacity:1;stroke-dasharray:none"
       inkscape:connector-curvature="0" />
    <path
       sodipodi:nodetypes="ccccc"
       id="path3167"
       d="m 1848.3755,-249.09584 c 5.3448,22.04899 7.1724,40.58073 3.4167,53.52925 6.07,4.87673 -4.9441,36.5183 -35.3065,80.86332 -15.9449,23.10535 -31.8897,49.09015 -47.8346,75.16873 l -4.5557,3.41676"
       style="fill:none;stroke:#787878;stroke-width:24.80315018;stroke-linecap:butt;stroke-linejoin:miter;stroke-miterlimit:4;stroke-opacity:1;stroke-dasharray:none"
       inkscape:connector-curvature="0" />
    <path
       sodipodi:nodetypes="ccc"
       id="path4902"
       d="m 1694.6213,-159.12115 c -3.0897,21.80302 -9.0744,43.8669 -18.2228,62.64061 -6.0743,19.11438 -13.2873,36.6385 -19.3616,41.00112"
       style="fill:none;stroke:#787878;stroke-width:24.80315018;stroke-linecap:butt;stroke-linejoin:miter;stroke-miterlimit:4;stroke-opacity:1;stroke-dasharray:none"
       inkscape:connector-curvature="0" />
    <path
       sodipodi:nodetypes="ccc"
       id="path4904"
       d="m 1609.2022,-161.39899 c 5.1585,21.86273 3.1864,46.84503 2.2778,62.64061 l 3.4168,31.88976"
       style="fill:none;stroke:#787878;stroke-width:24.80315018;stroke-linecap:butt;stroke-linejoin:miter;stroke-miterlimit:4;stroke-opacity:1;stroke-dasharray:none"
       inkscape:connector-curvature="0" />
    <path
       inkscape:export-ydpi="5.7613058"
       inkscape:export-xdpi="5.7613058"
       inkscape:export-filename="C:\Users\Sergiy P\Pictures\path3209.png"
       id="path4906"
       d="m 1505.7351,-502.90042 -296.4685,-69.82334"
       style="fill:#ffffff;fill-opacity:1;fill-rule:evenodd;stroke:#787878;stroke-width:13.82400417;stroke-linecap:butt;stroke-linejoin:miter;stroke-miterlimit:4;stroke-opacity:1;stroke-dasharray:none"
       inkscape:connector-curvature="0" />
    <path
       inkscape:export-ydpi="5.7613058"
       inkscape:export-xdpi="5.7613058"
       inkscape:export-filename="C:\Users\Sergiy P\Pictures\path3209.png"
       id="path4908"
       d="m 1504.5555,-476.74586 -294.1093,-19.62965"
       style="fill:#ffffff;fill-opacity:1;fill-rule:evenodd;stroke:#787878;stroke-width:13.90520763;stroke-linecap:butt;stroke-linejoin:miter;stroke-miterlimit:4;stroke-opacity:1;stroke-dasharray:none"
       inkscape:connector-curvature="0" />
    <path
       inkscape:export-ydpi="5.7613058"
       inkscape:export-xdpi="5.7613058"
       inkscape:export-filename="C:\Users\Sergiy P\Pictures\path3209.png"
       id="path4910"
       d="M 1503.7085,-539.77831 1240.905,-638.34867"
       style="fill:#ffffff;fill-opacity:1;fill-rule:evenodd;stroke:#787878;stroke-width:13.56386471;stroke-linecap:butt;stroke-linejoin:miter;stroke-miterlimit:4;stroke-opacity:1;stroke-dasharray:none"
       inkscape:connector-curvature="0" />
    <path
       inkscape:export-ydpi="5.7613058"
       inkscape:export-xdpi="5.7613058"
       inkscape:export-filename="C:\Users\Sergiy P\Pictures\path3209.png"
       id="path3205"
       d="m 1765.664,-457.12028 279.6469,65.41849"
       style="fill:#ffffff;fill-opacity:1;fill-rule:evenodd;stroke:#787878;stroke-width:13.44564056;stroke-linecap:butt;stroke-linejoin:miter;stroke-miterlimit:4;stroke-opacity:1;stroke-dasharray:none"
       inkscape:connector-curvature="0" />
    <path
       inkscape:export-ydpi="5.7613058"
       inkscape:export-xdpi="5.7613058"
       inkscape:export-filename="C:\Users\Sergiy P\Pictures\path3209.png"
       id="path3207"
       d="m 1747.9816,-432.22116 265.0196,109.62491"
       style="fill:#ffffff;fill-opacity:1;fill-rule:evenodd;stroke:#787878;stroke-width:13.57200623;stroke-linecap:butt;stroke-linejoin:miter;stroke-miterlimit:4;stroke-opacity:1;stroke-dasharray:none"
       inkscape:connector-curvature="0" />
    <path
       inkscape:export-ydpi="5.7613058"
       inkscape:export-xdpi="5.7613058"
       id="path3209"
       d="m 1778.6721,-487.01151 264.7698,15.82555"
       style="fill:#ffffff;fill-opacity:1;fill-rule:evenodd;stroke:#787878;stroke-width:13.51274967;stroke-linecap:butt;stroke-linejoin:miter;stroke-miterlimit:4;stroke-opacity:1;stroke-dasharray:none"
       inkscape:connector-curvature="0" />
    <path
       inkscape:export-ydpi="9.2180891"
       inkscape:export-xdpi="9.2180891"
       inkscape:export-filename="C:\Users\Sergiy P\Pictures\online_96px.png"
       transform="matrix(0.5833334,0,0,0.7391304,1446.6213,-835.19403)"
       d="m 263.09055,329.14792 c 0,14.46719 -15.29736,26.19516 -34.16761,26.19516 -18.87024,0 -34.1676,-11.72797 -34.1676,-26.19516 0,-14.46719 15.29736,-26.19516 34.1676,-26.19516 18.87025,0 34.16761,11.72797 34.16761,26.19516 z"
       sodipodi:ry="26.195162"
       sodipodi:rx="34.167603"
       sodipodi:cy="329.14792"
       sodipodi:cx="228.92294"
       id="path4915"
       style="fill:#787878;fill-opacity:1;stroke-width:24.80315018;stroke-miterlimit:4;stroke-dasharray:none"
       sodipodi:type="arc" />
    <path
       inkscape:export-ydpi="9.2180891"
       inkscape:export-xdpi="9.2180891"
       inkscape:export-filename="C:\Users\Sergiy P\Pictures\online_96px.png"
       transform="matrix(0.5833334,0,0,0.7391304,1583.8613,-805.5821)"
       d="m 263.09055,329.14792 c 0,14.46719 -15.29736,26.19516 -34.16761,26.19516 -18.87024,0 -34.1676,-11.72797 -34.1676,-26.19516 0,-14.46719 15.29736,-26.19516 34.1676,-26.19516 18.87025,0 34.16761,11.72797 34.16761,26.19516 z"
       sodipodi:ry="26.195162"
       sodipodi:rx="34.167603"
       sodipodi:cy="329.14792"
       sodipodi:cx="228.92294"
       id="path3185"
       style="fill:#787878;fill-opacity:1;stroke-width:24.80315018;stroke-miterlimit:4;stroke-dasharray:none"
       sodipodi:type="arc" />
  </g>
</svg>
