<?xml version="1.0" encoding="UTF-8" standalone="no"?>
<!-- Created with Inkscape (http://www.inkscape.org/) -->

<svg
   xmlns:dc="http://purl.org/dc/elements/1.1/"
   xmlns:cc="http://creativecommons.org/ns#"
   xmlns:rdf="http://www.w3.org/1999/02/22-rdf-syntax-ns#"
   xmlns:svg="http://www.w3.org/2000/svg"
   xmlns="http://www.w3.org/2000/svg"
   xmlns:sodipodi="http://sodipodi.sourceforge.net/DTD/sodipodi-0.dtd"
   xmlns:inkscape="http://www.inkscape.org/namespaces/inkscape"
   width="1185"
   height="1427.8572"
   id="svg2"
   sodipodi:version="0.32"
   inkscape:version="0.48.1 "
   version="1.0"
   sodipodi:docname="gingercoons_Squirrel.svg"
   inkscape:output_extension="org.inkscape.output.svg.inkscape">
  <defs
     id="defs4">
    <inkscape:perspective
       sodipodi:type="inkscape:persp3d"
       inkscape:vp_x="0 : 526.18109 : 1"
       inkscape:vp_y="0 : 1000 : 0"
       inkscape:vp_z="744.09448 : 526.18109 : 1"
       inkscape:persp3d-origin="372.04724 : 350.78739 : 1"
       id="perspective10" />
    <inkscape:perspective
       id="perspective2450"
       inkscape:persp3d-origin="372.04724 : 350.78739 : 1"
       inkscape:vp_z="744.09448 : 526.18109 : 1"
       inkscape:vp_y="0 : 1000 : 0"
       inkscape:vp_x="0 : 526.18109 : 1"
       sodipodi:type="inkscape:persp3d" />
  </defs>
  <sodipodi:namedview
     id="base"
     pagecolor="#ffffff"
     bordercolor="#666666"
     borderopacity="1.0"
     gridtolerance="10000"
     guidetolerance="10"
     objecttolerance="10"
     inkscape:pageopacity="0.0"
     inkscape:pageshadow="2"
     inkscape:zoom="0.25"
     inkscape:cx="533.59949"
     inkscape:cy="726.71989"
     inkscape:document-units="px"
     inkscape:current-layer="layer1"
     showgrid="false"
     inkscape:window-width="1280"
     inkscape:window-height="746"
     inkscape:window-x="0"
     inkscape:window-y="32"
     inkscape:window-maximized="0" />
  <metadata
     id="metadata7">
    <rdf:RDF>
      <cc:Work
         rdf:about="">
        <dc:format>image/svg+xml</dc:format>
        <dc:type
           rdf:resource="http://purl.org/dc/dcmitype/StillImage" />
        <dc:title></dc:title>
      </cc:Work>
    </rdf:RDF>
  </metadata>
  <g
     inkscape:label="Layer 1"
     inkscape:groupmode="layer"
     id="layer1"
     transform="translate(255.35714,618.70925)">
    <path
       style="fill:#784421;fill-rule:evenodd;stroke:#000000;stroke-width:5;stroke-linecap:butt;stroke-linejoin:miter;stroke-miterlimit:4;stroke-opacity:1;stroke-dasharray:none"
       d="m 1901.4286,711.79075 21.4285,14.28572 -8.5714,-27.14286 -11.4286,-22.85714 -21.4285,-14.28572 L 1870,656.07647 1848.5714,624.6479 1840,607.50504 l -4.2857,-12.85714 -1.4286,-11.42857 0,-7.14286 2.8572,-2.85714 5.7142,2.85714 5.7143,4.28571 1.4286,-12.85714 7.1429,-22.85714 1.4285,-7.14286 12.8572,-20 17.1428,-17.14286 12.8572,4.28572 8.5714,5.71428 28.5714,20 24.2857,11.42857 40,14.28572 34.2858,8.57143 40,15.71428 30,11.42857 24.2857,2.85715 21.4285,-4.28572 12.8572,-5.71428 14.2857,-4.28572 21.4286,-8.57143 12.8571,-11.42857 1.4286,-12.85714 1.4286,-4.28571 7.1428,4.28571 18.5714,11.42857 4.2858,1.42857 -4.2858,-15.71428 -12.8571,-10 4.2857,-2.85715 4.2857,0 -4.2857,-7.14285 -7.1428,-8.57143 -7.1429,-4.28572 -7.1429,-8.57142 -1.4285,-4.28572 0,-20 0,-28.57143 -1.4286,-34.28571 -4.2857,-31.42857 -10,-22.85715 -14.2857,-15.71428 -12.8572,-14.28572 -15.7143,-14.28571 -17.1428,-21.42857 -5.7143,-15.71429 -1.4286,-17.14285 5.7143,-14.28572 1.4286,-40 -4.2857,-44.28571 -1.4286,-44.28572 -11.4286,-48.57143 -12.8571,-35.714282 -11.4286,-25.714286 -5.7143,-30 0,-2.857143 -4.2857,11.428572 -2.8571,5.714285 -2.8572,-10 -1.4285,-5.714285 -10,-12.857143 -10,-10 7.1428,22.857143 1.4286,20 -4.2857,-2.857143 8.5714,18.571428 0,32.857143 2.8571,20.000001 -4.2857,-5.71429 -1.4285,5.71429 7.1428,12.85714 2.8572,38.57143 -1.4286,28.57143 0,20 -21.4286,-35.71429 -4.2857,-12.85714 1.4286,25.71429 8.5714,32.85714 2.8571,14.28571 -2.8571,12.85715 -7.1429,-8.57143 0,15.71428 -2.8571,5.71429 -11.4286,-14.28571 -5.7143,-2.85715 -4.2857,-1.42857 1.4286,10 -5.7143,1.42857 -2.8571,-1.42857 1.4285,7.14286 -2.8571,4.28571 -1.4286,4.28572 -4.2857,1.42857 -1.4286,-1.42857 -8.5714,-30 -12.8571,-47.14286 -15.7143,-42.85714 -14.2857,-40 -14.2857,-25.714289 -1.4286,-15.714286 -12.8572,-24.285714 1.4286,20 -10,-10 -12.8571,-14.285715 7.1428,22.857143 -12.8571,-10 12.8571,35.714286 7.1429,21.428575 4.2857,12.85714 -15.7143,-14.28572 7.1429,14.28572 10,25.71429 L 1915.7143,83.21932 1900,58.93361 1881.4286,38.933611 1875.7143,37.505039 1880,58.93361 l 7.1429,17.14286 12.8571,31.42857 5.7143,12.85714 -20,-25.71428 -10,-5.71429 2.8571,14.28572 -7.1428,-2.85715 7.1428,14.28572 8.5715,18.57143 7.1428,14.28571 1.4286,17.14286 -15.7143,-21.42857 -10,-12.85715 -7.1429,-4.28571 14.2858,22.85714 14.2857,24.28572 5.7143,20 0,11.42857 -20,-1.42857 -30,-7.14286 -30,-14.28572 -55.7143,-24.28571 -38.5715,-15.71429 -35.7142,-11.42857 -41.4286,-7.14285 -37.1429,2.85714 -48.5714,7.14286 -35.7143,11.42857 -31.4286,15.71428 -4.2857,-4.28571 2.8572,-24.28572 7.1428,-22.85714 2.8572,-12.85714 5.7143,-14.28572 14.2857,5.71429 12.8571,4.28571 5.7143,0 1.4286,-4.28571 8.5714,2.85714 7.1429,-1.42857 4.2857,0 -1.4286,-8.57143 0,-4.28571 7.1429,0 24.2857,7.14285 10,-1.42857 0,-8.57143 5.7143,-4.28571 11.4285,5.71429 4.2857,5.71428 2.8572,-41.428569 1.4286,9.999999 10,2.85714 12.8571,7.14286 10,4.28571 2.8571,-2.85714 -2.8571,-12.857141 2.8571,-7.142857 4.2858,-7.142857 8.5714,1.428571 7.1428,4.285715 5.7143,-4.285715 0,-4.285714 5.7143,-10 8.5714,-8.571428 7.1429,-1.428572 17.1429,0 11.4285,-8.571428 14.2857,2.857142 7.1429,-7.142857 8.5714,-5.714285 -5.7143,-2.857143 5.7143,-14.285715 12.8572,-11.428571 8.5714,1.428571 10,-8.571428 15.7143,-10 -15.7143,-1.428572 -2.8571,-5.714285 8.5714,0 34.2857,-8.571429 15.7143,-10 1.4286,-7.142857 -22.8572,1.428571 -11.4286,0 14.2858,-8.571428 7.1428,-4.285715 8.5714,-5.714283 12.8572,-12.85715 8.5714,-5.71428 7.1429,-12.85714 10,-12.85715 1.4285,-11.42857 -11.4285,8.57143 -18.5715,5.71429 -20,8.57143 -11.4285,0 15.7143,-11.42858 15.7142,-11.42857 17.1429,-11.42857 15.7143,-10 18.5714,-21.42857 1.4286,-5.71429 -32.8572,17.14286 -15.7142,7.14286 -11.4286,1.42857 38.5714,-17.14286 12.8572,-18.57143 17.1428,-24.28571 11.4286,-54.28572 -21.4286,51.42858 -11.4286,4.28571 7.1429,-20 10,-28.57143 -7.1429,2.85714 -22.8571,11.42858 10,-12.85715 8.5714,-28.57143 -21.4285,20 -8.5715,5.71429 -12.8571,10 -24.2857,14.28571 18.5714,-25.71428 24.2857,-40 2.8572,-10 -10,1.42857 0,-12.85714 -12.8572,2.85714 -12.8571,0 21.4285,-17.14286 0,-8.57143 -10,4.28572 7.1429,-14.28572 -1.4286,-17.14285 -11.4285,12.85714 -10,5.71429 10,-24.28572 8.5714,-35.71428 -12.8572,28.57142 -8.5714,12.85715 -21.4286,25.71428 -12.8571,27.14286 5.7143,-32.85714 15.7143,-60 -2.8572,-15.71429 -5.7143,30 -15.7142,30 -4.2858,1.42857 10,-35.71428 -1.4285,-12.85715 -4.2857,-4.28571 -7.1429,18.57143 -1.4286,-25.71429 4.2857,-20 -1.4285,-28.57143 -18.5715,42.85715 0,-30 -5.7142,10 -7.1429,25.71428 -10,12.85715 -5.7143,7.14285 0,-20 2.8572,-35.71428 0,-20 -14.2858,20 4.2858,-22.85715 -1.4286,-20 -11.4286,12.85715 -5.7143,22.85714 -10,18.57143 -10,10 -1.4285,-27.14286 2.8571,-35.71428 -1.4286,-32.85715 -4.2857,2.85715 -5.7143,12.85714 -12.8571,17.14286 4.2857,-35.71429 -22.8571,-22.85714 5.7142,20 -1.4285,24.28571 0,0 -2.8572,11.42857 -8.5714,-37.14285 -8.5714,-14.28572 -1.4286,15.71429 1.4286,30 -1.4286,7.14285 -12.8571,-30 -11.4286,-20 -11.4286,-7.14285 -5.7143,-1.42857 0,11.42857 -1.4285,12.85714 -14.2858,-20 -14.2857,-4.28571 -5.7143,0 2.8572,11.42857 2.8571,24.28571 0,21.42857 1.4286,38.57143 -1.4286,28.57143 0,1.42857 -15.7143,-52.85714 -5.7142,-24.28572 -21.4286,-40 -11.4286,-11.42857 -11.4286,-2.85714 10,21.42857 2.8572,18.57143 4.2857,22.85714 -12.8571,-34.28571 -21.4286,-25.71429 -17.1429,-4.28571 15.7143,20 14.2857,27.14286 1.4286,14.28571 -17.1429,-17.14286 -10,-24.28571 -17.1428,-24.28572 -38.5714,-12.85714 -14.2858,-7.14286 -5.7142,-1.42857 5.7142,8.57143 2.8572,8.57143 -18.5714,-8.57143 -47.1429,-18.57143 -28.5714,-4.28571 12.8571,8.57143 2.8572,7.14285 -57.1429,-28.57142 -42.8571,-7.14286 12.8571,4.28571 10,8.57143 0,7.14286 -10,-8.57143 -35.7143,-14.28571 -12.8571,-2.85715 10,11.42857 8.5714,5.71429 5.7143,10 -28.5714,-4.28571 -21.4286,0 8.5714,4.28571 5.7143,7.14286 7.1429,10 -27.1429,4.28571 -12.8571,1.42857 -7.1429,5.71429 15.7143,4.28571 12.8571,7.14286 7.1429,7.14286 4.2857,4.28571 7.1429,2.85714 -17.1429,-4.28571 -27.1429,-4.28571 -22.8571,-2.85715 -5.7143,2.85715 14.2857,2.85714 11.4286,5.71428 27.1429,10 8.5714,7.14286 -18.5714,-4.28571 -25.7143,-1.42857 7.1428,10 11.4286,8.57142 -17.1429,0 -7.1428,4.28572 5.7143,10 12.8571,15.71428 -1.4286,7.14286 -18.5714,-7.14286 -1.4286,0 5.7143,7.14286 5.7143,8.57143 -15.7143,1.42857 -15.7143,1.42857 -27.1428,1.42857 -7.1429,-2.85714 18.5715,14.28572 -20,11.42857 -8.5715,7.14285 -1.4285,2.85715 8.5714,5.71428 -2.8572,7.14286 -5.7142,2.85714 27.1428,24.28572 37.1429,25.71428 27.1428,18.57143 17.1429,8.57143 -27.1429,-1.42857 -7.1428,0 -7.1429,1.42857 8.5714,14.28571 -11.4285,8.57143 -2.8572,0 10,7.14286 25.7143,20 7.1429,14.28571 -5.7143,7.14286 -5.7143,0 15.7143,14.28572 18.5714,10 14.2857,15.71428 30,10 17.1429,7.14286 -32.8572,-1.42857 -27.1428,2.85714 -18.5714,2.85714 30,15.71429 35.7142,10 20,5.71428 40,8.57143 30,5.71429 -30,4.28571 -25.7142,2.85715 -11.4286,4.28571 30,18.57143 4.2857,11.42857 14.2857,20 7.1429,17.14286 -18.5715,1.42857 0,11.42857 -20,-10 -52.8571,-40 -12.8571,-7.14286 11.4285,30 -1.4285,11.42857 -8.5715,-2.85714 -5.7143,-2.85714 -22.8571,-2.85714 7.1429,10 -1.4286,7.14285 -5.7143,4.28572 -4.2857,1.42857 20,22.857142 1.4286,11.428571 -12.8572,-5.714285 -21.4286,-8.571429 -10,0 22.8572,18.571429 8.5714,11.428571 -15.7143,0 -11.4285,1.428572 5.7142,12.857143 0,12.857142 -4.2857,2.857143 10,15.714286 4.2857,8.571429 -2.8571,11.428571 -7.1429,5.714286 14.2858,12.857143 -14.2858,1.428571 11.4286,11.428571 8.5714,10 7.1429,10.000004 -12.8571,8.57142 -5.7143,1.42858 14.2857,8.57142 8.5714,4.28572 17.1429,18.57143 11.4285,15.71428 15.7143,12.85715 31.4286,17.14285 25.7143,12.85715 -8.5714,7.14285 8.5714,7.14286 2.8571,2.85714 5.7143,12.85715 -2.8571,4.28571 17.1428,12.85714 8.5715,14.28572 -4.2858,10 2.8572,10 17.1428,10 4.2858,20 -5.7143,4.28571 -4.2857,18.57143 -1.4286,32.85714 5.7143,24.28572 4.2857,38.57143 7.1428,31.42857 1.4286,31.42857 8.5714,28.57143 10,25.71428 10,10 14.2858,18.57143 7.1428,12.85715 20,10 17.1429,-5.71429 25.7143,7.14286 54.2857,14.28571 37.1428,0 11.4286,-2.85714 8.5714,-2.85714 -14.2857,-7.14286 4.2857,-4.28572 -7.1428,-5.71428 -10,-4.28572 -10,-5.71428 11.4285,-1.42857 1.4286,-4.28572 -20,-11.42857 -21.4286,1.42857 -25.7142,-2.85714 -12.8572,-4.28571 42.8572,7.14285 25.7142,2.85715 17.1429,2.85714 20,-2.85714 15.7143,-5.71429 11.4286,-2.85714 12.8571,-4.28572 14.2857,-1.42857 10,0 -10,-7.14286 -10,-8.57142 -10,-10 -10,-7.14286 22.8572,20 21.4285,15.71428 24.2857,32.85715 32.8572,50 14.2857,20 32.8571,37.14285 28.5715,25.71429 14.2857,22.85714 10,32.85715 7.1428,-1.42858 5.7143,-12.85714 2.8572,-8.57143 0,-10 14.2857,14.28572 2.8571,17.14285 21.4286,22.85715 4.2857,-10 2.8572,-14.28572 0,-10 1.4285,-7.14285 18.5715,20 12.8571,7.14285 -2.8571,-12.85714 -4.2858,-7.14286 -1.4285,-8.57143 z"
       id="path2456"
       inkscape:connector-curvature="0"
       inkscape:export-filename="D:\studyworkspace\Asia\res\drawable-hdpi\xstatus_squirrel_32.png"
       inkscape:export-xdpi="3.0178792"
       inkscape:export-ydpi="3.0178792" />
    <path
       style="fill:#a05a2c;fill-rule:evenodd;stroke:none"
       d="m 2057.4114,569.02705 -8.0813,-10.10153 12.1219,-3.03046 8.0812,-3.03045 8.0812,-8.08123 16.1625,-11.11167 11.1116,-5.05077 11.1117,-1.01015 8.0812,-1.01015 15.1523,-11.11168 16.1625,-3.03046 10.1015,2.02031 9.0914,1.01015 9.0913,-4.04061 15.1523,-3.03046 9.0914,-4.04061 3.0305,2.02031 3.0304,29.29442 2.0203,10.10153 -1.0101,12.12183 -7.0711,8.08122 -20.2031,11.11168 -15.1522,7.07106 -23.2336,7.07107 -27.2741,3.03046 -32.3249,-8.08122 -24.2436,-11.11168 -8.0812,-6.06091 z"
       id="path2488"
       inkscape:connector-curvature="0"
       inkscape:export-filename="D:\studyworkspace\Asia\res\drawable-hdpi\xstatus_squirrel_32.png"
       inkscape:export-xdpi="3.0178792"
       inkscape:export-ydpi="3.0178792" />
    <path
       style="fill:#502d16;fill-rule:evenodd;stroke:#000000;stroke-width:5;stroke-linecap:butt;stroke-linejoin:miter;stroke-miterlimit:4;stroke-opacity:1;stroke-dasharray:none"
       d="m 2158.4266,587.20979 -8.0812,-5.05076 1.0101,-5.05076 4.0407,-6.06092 1.0101,-7.07107 2.0203,-8.08122 9.0914,-6.06091 13.132,9.09137 10.1015,3.03046 11.1117,-3.03046 4.0406,9.09137 -20.2031,10.10153 -17.1726,6.06091 -10.1015,3.03046 z"
       id="path2492"
       inkscape:connector-curvature="0"
       inkscape:export-filename="D:\studyworkspace\Asia\res\drawable-hdpi\xstatus_squirrel_32.png"
       inkscape:export-xdpi="3.0178792"
       inkscape:export-ydpi="3.0178792" />
    <path
       style="fill:none;stroke:#000000;stroke-width:5;stroke-linecap:butt;stroke-linejoin:miter;stroke-miterlimit:4;stroke-opacity:1;stroke-dasharray:none"
       d="m 2155.3571,557.1479 4.2858,1.78571 3.5714,2.5 2.5,6.07143 1.0714,5 2.5,5 4.2857,2.5 4.6429,0.35714 2.1428,0"
       id="path2458"
       inkscape:connector-curvature="0"
       inkscape:export-filename="D:\studyworkspace\Asia\res\drawable-hdpi\xstatus_squirrel_32.png"
       inkscape:export-xdpi="3.0178792"
       inkscape:export-ydpi="3.0178792" />
    <path
       style="fill:none;stroke:#000000;stroke-width:5;stroke-linecap:butt;stroke-linejoin:miter;stroke-miterlimit:4;stroke-opacity:1;stroke-dasharray:none"
       d="m 2210.7143,497.1479 0.7143,17.85714 1.7857,10.71428 1.4286,13.57143 1.7857,4.28572"
       id="path2460"
       inkscape:connector-curvature="0"
       inkscape:export-filename="D:\studyworkspace\Asia\res\drawable-hdpi\xstatus_squirrel_32.png"
       inkscape:export-xdpi="3.0178792"
       inkscape:export-ydpi="3.0178792" />
    <path
       style="fill:#a05a2c;fill-rule:evenodd;stroke:none"
       d="m 2009.6429,417.86218 -4.6429,7.85714 -2.1429,10.35715 0,14.64285 4.6429,10.71429 5.3571,6.07143 8.5715,6.42857 9.6428,1.78571 10,0.71429 13.9286,1.07143 11.0714,0.71428 4.2857,0.35715 -4.6428,-14.64286 -4.2857,-14.64286 -5.7143,-13.57143 -5,-7.14285 -5.7143,-6.07143 -9.6429,-6.42857 -9.2857,-1.78572 -9.6428,-1.42857 -3.9286,0.35714 -2.8571,4.64286 z"
       id="path2466"
       inkscape:connector-curvature="0"
       inkscape:export-filename="D:\studyworkspace\Asia\res\drawable-hdpi\xstatus_squirrel_32.png"
       inkscape:export-xdpi="3.0178792"
       inkscape:export-ydpi="3.0178792" />
    <path
       style="fill:#000000;fill-rule:evenodd;stroke:#000000;stroke-width:5;stroke-linecap:butt;stroke-linejoin:miter;stroke-miterlimit:4;stroke-opacity:1;stroke-dasharray:none"
       d="m 2012.8571,416.07647 11.4286,1.78571 12.1429,4.64286 8.2143,6.07143 7.8571,10 3.2143,12.14285 2.1428,9.64286 -1.4285,10 0.3571,1.78572 -7.1428,-0.35715 -9.6429,0.35715 -9.2857,0.71428 -9.2857,-3.57143 -7.1429,-9.28571 -5.3571,-7.85714 -2.5,-4.64286 -0.7143,-6.78572 1.0714,-10.35714 2.8572,-6.07143 3.2142,-8.21428 z"
       id="path2462"
       inkscape:connector-curvature="0"
       inkscape:export-filename="D:\studyworkspace\Asia\res\drawable-hdpi\xstatus_squirrel_32.png"
       inkscape:export-xdpi="3.0178792"
       inkscape:export-ydpi="3.0178792" />
    <path
       style="fill:#ffffff;fill-rule:evenodd;stroke:#000000;stroke-width:5;stroke-linecap:butt;stroke-linejoin:miter;stroke-miterlimit:4;stroke-opacity:1;stroke-dasharray:none"
       d="m 2038.9286,423.21932 -5.7143,2.14286 -1.0714,1.78572 -1.0715,3.92857 0.7143,7.85714 1.4286,4.64286 1.4286,-0.71429 0,-1.78571 2.8571,0 3.9286,-2.5 2.1428,-1.78572 1.0715,2.85715 -0.3572,2.5 -0.3571,1.42857 1.0714,0.71428 1.0714,-0.71428 1.7857,-2.85715 2.1429,-1.07142 -0.3571,-1.07143 -2.8572,-7.85715 -7.8571,-7.5 z"
       id="path2464"
       inkscape:connector-curvature="0"
       inkscape:export-filename="D:\studyworkspace\Asia\res\drawable-hdpi\xstatus_squirrel_32.png"
       inkscape:export-xdpi="3.0178792"
       inkscape:export-ydpi="3.0178792" />
    <path
       style="fill:none;stroke:#000000;stroke-width:5;stroke-linecap:butt;stroke-linejoin:miter;stroke-miterlimit:4;stroke-opacity:1;stroke-dasharray:none"
       d="M 1927.1429,396.07647 1945,385.36218 l 17.1429,-11.42857 8.5714,-8.57143 10,-17.85714 6.4286,-14.28572 2.8571,-12.14285 -5.7143,-27.85715 -6.4286,-20 -2.1428,-19.28571 -7.1429,-27.85714 -5,-13.57143 -2.8571,-5.71429 -7.1429,-7.14285"
       id="path2468"
       inkscape:connector-curvature="0"
       inkscape:export-filename="D:\studyworkspace\Asia\res\drawable-hdpi\xstatus_squirrel_32.png"
       inkscape:export-xdpi="3.0178792"
       inkscape:export-ydpi="3.0178792" />
    <path
       style="fill:none;stroke:#000000;stroke-width:5;stroke-linecap:butt;stroke-linejoin:miter;stroke-miterlimit:4;stroke-opacity:1;stroke-dasharray:none"
       d="m 1921.4286,262.50504 12.8571,7.14286 15.7143,12.14285 11.4286,16.42857 5,13.57143 0.7143,8.57143"
       id="path2470"
       inkscape:connector-curvature="0"
       inkscape:export-filename="D:\studyworkspace\Asia\res\drawable-hdpi\xstatus_squirrel_32.png"
       inkscape:export-xdpi="3.0178792"
       inkscape:export-ydpi="3.0178792" />
    <path
       style="fill:none;stroke:#000000;stroke-width:5;stroke-linecap:butt;stroke-linejoin:miter;stroke-miterlimit:4;stroke-opacity:1;stroke-dasharray:none"
       d="m 1930.7143,316.07647 10.7143,-5 9.2857,-1.42857 2.8571,5.71428 1.4286,17.14286 -1.4286,20 -4.2857,10 -4.2857,7.14286 -7.8571,0 -5,1.42857 -3.5715,4.28571 -6.4285,6.42857 0.7142,-0.71428 0,0"
       id="path2472"
       inkscape:connector-curvature="0"
       inkscape:export-filename="D:\studyworkspace\Asia\res\drawable-hdpi\xstatus_squirrel_32.png"
       inkscape:export-xdpi="3.0178792"
       inkscape:export-ydpi="3.0178792" />
    <path
       style="fill:none;stroke:#000000;stroke-width:5;stroke-linecap:butt;stroke-linejoin:miter;stroke-miterlimit:4;stroke-opacity:1;stroke-dasharray:none"
       d="m 1930.7143,342.50504 6.4286,8.57143 0.7142,7.14285 -0.7142,0"
       id="path2474"
       inkscape:connector-curvature="0"
       inkscape:export-filename="D:\studyworkspace\Asia\res\drawable-hdpi\xstatus_squirrel_32.png"
       inkscape:export-xdpi="3.0178792"
       inkscape:export-ydpi="3.0178792" />
    <path
       style="fill:none;stroke:#000000;stroke-width:5;stroke-linecap:butt;stroke-linejoin:miter;stroke-miterlimit:4;stroke-opacity:1;stroke-dasharray:none"
       d="m 1882.8571,380.36218 -20.7142,-11.42857 -19.2858,-3.57143 25,-3.57143 5,0 -5.7142,-5 3.5714,-2.85714 -3.5714,-6.42857 -5,-5.71429 -13.5715,-7.14285 21.4286,-0.71429 -17.8571,-9.28571 -4.2858,-2.85715 -2.1428,-3.57143 4.2857,-0.71428 5.7143,-2.85714 -7.8572,-10.71429 7.1429,-1.42857 2.8571,-5 -5,-12.85714 5.7143,0 6.4286,-2.14286 -1.4286,-3.57143 -0.7143,-3.57143 5,2.14286 6.4286,-3.57143 -5.7143,-10.71429 -9.2857,-12.14285 -10.7143,-17.14286 9.2857,5 6.4286,1.42857 -3.5714,-7.85714 6.4286,1.42857 -1.4286,-7.14286 4.2857,-0.71428 -1.4286,-20 3.5715,9.28571 0,-7.14286 6.4285,0.71429 3.5715,-1.42857 -2.1429,-3.57143 10.7143,0.71429 5,0"
       id="path2476"
       inkscape:connector-curvature="0"
       inkscape:export-filename="D:\studyworkspace\Asia\res\drawable-hdpi\xstatus_squirrel_32.png"
       inkscape:export-xdpi="3.0178792"
       inkscape:export-ydpi="3.0178792" />
    <path
       style="fill:none;stroke:#000000;stroke-width:5;stroke-linecap:butt;stroke-linejoin:miter;stroke-miterlimit:4;stroke-opacity:1;stroke-dasharray:none"
       d="M 2122.1429,290.36218 2101.4286,268.21932 2083.5714,240.36218 2075,223.93361"
       id="path2478"
       inkscape:connector-curvature="0"
       inkscape:export-filename="D:\studyworkspace\Asia\res\drawable-hdpi\xstatus_squirrel_32.png"
       inkscape:export-xdpi="3.0178792"
       inkscape:export-ydpi="3.0178792" />
    <path
       style="fill:#6f3916;fill-opacity:1;fill-rule:evenodd;stroke:none"
       d="m 1506.8782,83.14367 -12.1218,39.39595 -5.0508,36.36549 9.0914,0 24.2437,-16.16244 27.2741,-6.06091 41.4162,-8.08122 41.4163,-5.05077 25.2538,1.01016 30.3046,6.06091 22.2233,8.08122 -12.1218,6.06092 5.0508,6.06091 -6.0609,6.06092 4.0406,10.10152 -9.0914,2.02031 5.0508,9.09137 -17.1726,9.09137 4.0406,6.06092 -13.132,7.07107 11.1117,8.08122 -8.0813,8.08122 7.0711,5.05076 -8.0812,9.09137 6.0609,6.06092 -6.0609,6.06091 -23.2335,3.03046 -27.2741,0 -31.3148,-5.05076 -26.2639,-6.06092 -17.1726,-13.13198 -17.1726,-11.11168 -23.2335,-4.04061 -30.3046,-12.12183 -21.2132,2.02031 -27.2741,18.18274 -12.1219,6.06092 -15.1522,10.10152 -10.1016,12.12183 -8.0812,6.06092 -5.0508,-4.04061 -9.0913,-13.13198 -10.1016,-16.16245 -5.0507,-7.07106 6.0609,-5.05077 -15.1523,-18.18274 -11.1117,-10.10153 19.1929,2.02031 -15.1523,-13.13198 -15.1522,-9.09138 15.1522,4.04061 10.1016,-1.01015 -15.1523,-14.14214 -12.1218,-7.07106 21.2132,0 4.0406,-2.02031 -28.2843,-24.24366 -4.0406,-4.04061 12.1218,1.01015 8.0812,-2.0203 -26.2639,-19.1929 15.1523,-1.01015 -13.132,-13.13199 -13.132,-13.13198 15.1523,-2.0203 -7.0711,-6.06092 -17.1726,-17.172593 29.2944,11.111678 -14.1421,-30.304577 28.2843,22.223356 19.1929,5.050763 17.1726,-3.030458 12.1218,0 29.2944,13.131981 26.264,12.12183 15.1523,6.06092 21.2132,6.06091 19.1929,3.03046 11.1117,1.01015 5.0507,3.03046 z"
       id="path2498"
       inkscape:connector-curvature="0"
       inkscape:export-filename="D:\studyworkspace\Asia\res\drawable-hdpi\xstatus_squirrel_32.png"
       inkscape:export-xdpi="3.0178792"
       inkscape:export-ydpi="3.0178792" />
    <path
       style="fill:none;stroke:#000000;stroke-width:5;stroke-linecap:butt;stroke-linejoin:miter;stroke-miterlimit:4;stroke-opacity:1;stroke-dasharray:none"
       d="m 1489.2857,156.79075 -14.2857,9.28572 -20.7143,17.85714 -15.7143,13.57143 -13.5714,11.42857 -5.7143,7.85714 -15,9.28572 -9.2857,12.85714 -8.5714,11.42857 -3.5715,3.57143"
       id="path2480"
       inkscape:connector-curvature="0"
       inkscape:export-filename="D:\studyworkspace\Asia\res\drawable-hdpi\xstatus_squirrel_32.png"
       inkscape:export-xdpi="3.0178792"
       inkscape:export-ydpi="3.0178792" />
    <path
       style="fill:none;stroke:#000000;stroke-width:5;stroke-linecap:butt;stroke-linejoin:miter;stroke-miterlimit:4;stroke-opacity:1;stroke-dasharray:none"
       d="m 1480,209.6479 30.7143,4.28571 31.4286,10.71429 20,18.57142 8.5714,17.14286 3.5714,44.28572 2.1429,6.42857"
       id="path2482"
       inkscape:connector-curvature="0"
       inkscape:export-filename="D:\studyworkspace\Asia\res\drawable-hdpi\xstatus_squirrel_32.png"
       inkscape:export-xdpi="3.0178792"
       inkscape:export-ydpi="3.0178792" />
    <path
       style="fill:none;stroke:#000000;stroke-width:5;stroke-linecap:butt;stroke-linejoin:miter;stroke-miterlimit:4;stroke-opacity:1;stroke-dasharray:none"
       d="m 1505.7143,238.93361 20,12.85714 17.1428,20 16.4286,32.14286 8.5714,28.57143 6.4286,25 2.8572,20 0.7142,25.71428 -2.1428,16.42858 -10,17.14285 -9.2857,19.28572"
       id="path2484"
       inkscape:connector-curvature="0"
       inkscape:export-filename="D:\studyworkspace\Asia\res\drawable-hdpi\xstatus_squirrel_32.png"
       inkscape:export-xdpi="3.0178792"
       inkscape:export-ydpi="3.0178792" />
    <path
       style="fill:none;stroke:#000000;stroke-width:5;stroke-linecap:butt;stroke-linejoin:miter;stroke-miterlimit:4;stroke-opacity:1;stroke-dasharray:none"
       d="m 1714.2857,468.93361 13.5714,-0.71429 14.2858,7.14286 13.5714,11.42857 15.7143,5 8.5714,0 17.1429,-5 15.7142,2.14286 20,4.28571 15.7143,3.57143 10,2.14286 14.2857,2.14286 3.5715,0"
       id="path2486"
       inkscape:connector-curvature="0"
       inkscape:export-filename="D:\studyworkspace\Asia\res\drawable-hdpi\xstatus_squirrel_32.png"
       inkscape:export-xdpi="3.0178792"
       inkscape:export-ydpi="3.0178792" />
    <path
       style="fill:none;stroke:#000000;stroke-width:5;stroke-linecap:butt;stroke-linejoin:miter;stroke-miterlimit:4;stroke-opacity:1;stroke-dasharray:none"
       d="m 2027.1068,523.57018 25.2538,3.03046 16.1624,4.04061 19.1929,-1.01015 12.1219,-4.04061"
       id="path2490"
       inkscape:connector-curvature="0"
       inkscape:export-filename="D:\studyworkspace\Asia\res\drawable-hdpi\xstatus_squirrel_32.png"
       inkscape:export-xdpi="3.0178792"
       inkscape:export-ydpi="3.0178792" />
    <path
       style="fill:#a05a2c;fill-rule:evenodd;stroke:none"
       d="m 2135.1931,519.52957 -10.1015,-32.32488 -28.2843,-61.61931 -27.2741,-28.28427 -8.0812,-12.12183 6.0609,-1.01015 -4.0406,-18.18275 11.1117,1.01016 -11.1117,-26.26397 -11.1117,-19.1929 14.1421,14.14214 0,-16.16244 11.1117,9.09137 12.1218,17.17259 13.132,15.15229 -8.0812,-30.30457 15.1523,20.20305 11.1117,6.06091 -5.0508,-21.2132 9.0914,6.06091 -1.0102,-21.2132 4.0406,1.01015 6.0609,1.01015 -4.0406,-14.14213 -4.0406,-21.2132 1.0102,-3.03046 17.1726,23.23351 31.3147,32.32488 18.1828,22.22335 8.0812,16.16244 0,21.21321 -3.0305,23.23351 -6.0609,22.22335 0,15.15229 3.0305,47.47717 0,4.04061 -20.2031,4.04061 -13.007,-0.0203 -7.8312,-0.26016 -6.3109,0.25 -13.257,4.07107 z"
       id="path2494"
       sodipodi:nodetypes="ccccccccccccccccccccccccccccccccccccccccc"
       inkscape:connector-curvature="0"
       inkscape:export-filename="D:\studyworkspace\Asia\res\drawable-hdpi\xstatus_squirrel_32.png"
       inkscape:export-xdpi="3.0178792"
       inkscape:export-ydpi="3.0178792" />
  </g>
</svg>
