<?xml version="1.0" encoding="UTF-8" standalone="no"?>
<svg
   xmlns:dc="http://purl.org/dc/elements/1.1/"
   xmlns:cc="http://creativecommons.org/ns#"
   xmlns:rdf="http://www.w3.org/1999/02/22-rdf-syntax-ns#"
   xmlns:svg="http://www.w3.org/2000/svg"
   xmlns="http://www.w3.org/2000/svg"
   xmlns:sodipodi="http://sodipodi.sourceforge.net/DTD/sodipodi-0.dtd"
   xmlns:inkscape="http://www.inkscape.org/namespaces/inkscape"
   version="1.1"
   width="460.10153"
   height="192.76071"
   id="svg2445"
   sodipodi:version="0.32"
   inkscape:version="0.46"
   sodipodi:docname="ICQ in.svg"
   inkscape:output_extension="org.inkscape.output.svg.inkscape">
  <metadata
     id="metadata2464">
    <rdf:RDF>
      <cc:Work
         rdf:about="">
        <dc:format>image/svg+xml</dc:format>
        <dc:type
           rdf:resource="http://purl.org/dc/dcmitype/StillImage" />
      </cc:Work>
    </rdf:RDF>
  </metadata>
  <defs
     id="defs2462">
    <inkscape:perspective
       sodipodi:type="inkscape:persp3d"
       inkscape:vp_x="0 : 96.380356 : 1"
       inkscape:vp_y="0 : 1000 : 0"
       inkscape:vp_z="460.10153 : 96.380356 : 1"
       inkscape:persp3d-origin="230.05077 : 64.253571 : 1"
       id="perspective2466" />
  </defs>
  <sodipodi:namedview
     inkscape:window-height="1138"
     inkscape:window-width="1920"
     inkscape:pageshadow="2"
     inkscape:pageopacity="0.0"
     guidetolerance="10.0"
     gridtolerance="10.0"
     objecttolerance="10.0"
     borderopacity="1.0"
     bordercolor="#666666"
     pagecolor="#ffffff"
     id="base"
     showgrid="false"
     inkscape:zoom="0.59117386"
     inkscape:cx="-215.24971"
     inkscape:cy="96.380356"
     inkscape:window-x="0"
     inkscape:window-y="24"
     inkscape:current-layer="svg2445" />
  <path
     style="fill:#787878;fill-opacity:1"
     d="M 105.625 4.96875 C 101.16147 5.0275909 96.873966 6.1780089 92.65625 8.4375 C 85.910364 12.050226 81.072902 17.582129 78.90625 24.8125 L 78.90625 25.28125 L 78.65625 26.96875 L 77.71875 25.28125 L 75.28125 20.96875 C 71.422591 14.953278 66.6166 11.312086 60.59375 9.625 C 55.293936 8.4199384 50.951776 8.9023764 46.375 11.3125 C 41.31374 14.445661 38.423812 19.285363 37.21875 26.03125 C 36.013687 33.01815 37.228564 39.754112 40.84375 46.5 L 42.53125 48.90625 L 36.75 46.96875 C 29.522084 45.281664 22.77714 46.259814 16.03125 49.875 C 9.044351 53.490187 4.70465 58.541891 1.8125 65.53125 C -0.373152 71.094718 -0.59876046 76.494908 1.28125 81.59375 L 1.28125 70.96875 L 10.84375 70.96875 C 11.002681 70.362307 11.194877 69.762809 11.4375 69.15625 C 13.12459 64.577012 16.26451 60.956889 20.84375 59.03125 C 25.179509 56.618667 29.523507 55.888688 34.34375 57.09375 L 40.84375 59.75 L 56.25 70.96875 L 68.09375 70.96875 L 68.09375 62.53125 L 51.1875 44.09375 L 50 41.6875 C 48.07682 37.346819 46.861725 33.244472 47.34375 28.90625 C 47.584762 24.568027 49.266561 21.687087 52.15625 20 C 53.602326 18.794938 55.76186 18.78595 57.6875 19.75 C 62.025722 20.955061 65.639101 24.102149 68.53125 30.125 C 69.73631 32.535124 70.955475 34.951602 71.4375 37.84375 L 73.90625 52.40625 L 116.40625 96.15625 L 133.125 94.6875 L 142.75 94.46875 L 145.1875 94.6875 C 148.80268 95.892561 152.16811 98.074775 154.09375 101.6875 C 156.50141 104.33864 157.6875 107.93403 157.6875 112.03125 L 156.96875 116.875 C 155.7637 121.69771 152.87846 125.29311 148.78125 127.21875 C 144.44303 129.62887 140.1015 130.12459 135.28125 128.4375 C 132.3891 127.71692 130.47079 126.48814 128.78125 124.5625 L 119.0625 116.53125 L 109.28125 127.5 L 111.4375 130.125 L 112.625 132.53125 C 114.79412 136.62846 116.01328 140.48327 115.53125 145.0625 C 115.04923 149.40073 113.60844 152.51369 110.71875 153.71875 C 109.03167 154.9238 107.11314 154.93097 105.1875 154.6875 C 100.63254 153.49373 97.019827 149.91826 94.375 144.1875 L 70.625 170.78125 L 70.625 162.90625 C 70.333791 163.05849 70.055456 163.23917 69.75 163.375 C 65.414236 165.78512 60.838223 166.26756 56.5 165.0625 C 51.682214 163.86236 48.053099 160.94995 46.125 157.09375 C 44.919939 154.68364 43.96875 151.7984 43.96875 148.90625 L 44.09375 148.25 L 33.90625 148.375 C 33.76535 153.00783 34.885611 157.39869 37.21875 161.90625 C 38.905835 164.55739 40.8219 166.99205 42.75 169.15625 C 45.642146 171.80738 49.255527 173.48244 53.59375 174.6875 C 60.821663 176.61315 68.0756 176.36273 75.0625 172.75 C 81.810845 169.13235 86.143389 163.35537 88.3125 156.125 L 88.53125 154.6875 C 93.108026 159.75121 97.461004 163.10744 102.28125 164.3125 C 107.09904 165.75857 111.91178 165.51715 116.25 162.625 C 120.34721 160.21488 123.24143 156.1213 124.6875 151.0625 C 125.89257 145.76022 125.89257 140.46035 124.6875 134.4375 C 127.09517 136.12459 129.5141 137.337 132.40625 138.0625 C 140.11619 140.47262 146.84541 140.23773 153.59375 136.625 C 160.1011 133.01228 164.45589 127.21893 166.625 119.75 C 168.55309 112.52209 168.05269 105.5296 164.4375 98.78125 L 163.25 96.84375 C 161.3219 93.951604 159.39215 91.08189 156.5 89.15625 C 154.09235 87.469167 151.18239 86.267562 148.53125 85.0625 C 156.00264 81.447314 161.30863 76.382334 163.71875 69.875 C 165.40584 64.572726 164.94137 60.213223 162.53125 55.875 L 162.53125 55.40625 C 159.64156 50.586004 155.77285 47.465878 149.75 45.78125 C 146.13482 45.058213 142.05023 45.040237 138.4375 45.28125 L 130.46875 46.96875 L 133.125 40.9375 C 135.53513 33.227562 134.81596 25.768149 130.71875 18.78125 L 130 17.59375 C 126.38481 11.568441 121.07166 7.9280991 113.84375 6 C 111.0429 5.2769629 108.30312 4.9334455 105.625 4.96875 z M 105.96875 15.15625 C 107.71513 15.191252 109.47121 15.523592 111.1875 16.15625 C 116.24876 17.358853 119.86214 19.998999 122.03125 24.09375 C 123.23631 26.501414 123.96875 29.398089 123.96875 32.53125 L 123.25 37.8125 C 122.28595 40.463634 121.07108 42.895848 119.625 45.0625 L 97.9375 71.5625 C 95.768391 69.875414 93.378873 68.673812 90.96875 67.46875 L 88.53125 40.25 L 88.3125 30.59375 L 88.53125 28.1875 C 89.73631 23.369713 93.130527 19.753874 97.46875 17.34375 C 100.17861 15.83896 103.05812 15.097914 105.96875 15.15625 z M 141.96875 55.25 C 143.03048 55.242468 144.0717 55.285744 145.15625 55.40625 C 149.25347 55.888275 152.15014 57.826601 153.59375 60.71875 L 154.5625 63.84375 L 154.09375 66.25 C 152.40666 70.588225 148.77285 73.973864 142.75 76.625 C 140.34234 77.830061 137.70465 78.301685 134.8125 78.78125 L 105.15625 82.40625 L 104.6875 80.71875 L 104.21875 80 L 105.15625 78.78125 L 129.5 58.5625 L 132.40625 57.34375 C 135.65992 55.897675 138.78356 55.272595 141.96875 55.25 z "
     id="path2453"
     inkscape:export-filename="D:\studyworkspace\Asia\res\drawable\icq_in.png"
     inkscape:export-xdpi="16.113605"
     inkscape:export-ydpi="16.113605" />
  <path
     style="fill:none;fill-opacity:1;fill-rule:evenodd;stroke:#787878;stroke-width:11;stroke-linecap:butt;stroke-linejoin:round;stroke-miterlimit:4;stroke-dasharray:none;stroke-opacity:1"
     d="M -5.4975346,148.35753 L -5.4975346,70.546241 L 61.318685,70.546241 L 61.318685,46.018771 L 120.52293,106.91456 L 63.856005,170.34768 L 63.856005,147.51176 L -5.4975346,148.35753 z"
     id="path3714"
     inkscape:export-filename="D:\studyworkspace\Asia\res\drawable\icq_in.png"
     inkscape:export-xdpi="16.113605"
     inkscape:export-ydpi="16.113605" />
</svg>
