<?xml version="1.0" encoding="UTF-8" standalone="no"?>
<svg
   xmlns:dc="http://purl.org/dc/elements/1.1/"
   xmlns:cc="http://creativecommons.org/ns#"
   xmlns:rdf="http://www.w3.org/1999/02/22-rdf-syntax-ns#"
   xmlns:svg="http://www.w3.org/2000/svg"
   xmlns="http://www.w3.org/2000/svg"
   xmlns:xlink="http://www.w3.org/1999/xlink"
   xmlns:sodipodi="http://sodipodi.sourceforge.net/DTD/sodipodi-0.dtd"
   xmlns:inkscape="http://www.inkscape.org/namespaces/inkscape"
   version="1.1"
   width="460.10153"
   height="192.76071"
   id="svg2"
   sodipodi:version="0.32"
   inkscape:version="0.48.1 "
   sodipodi:docname="icq_template.svg"
   inkscape:output_extension="org.inkscape.output.svg.inkscape">
  <metadata
     id="metadata21">
    <rdf:RDF>
      <cc:Work
         rdf:about="">
        <dc:format>image/svg+xml</dc:format>
        <dc:type
           rdf:resource="http://purl.org/dc/dcmitype/StillImage" />
        <dc:title></dc:title>
      </cc:Work>
    </rdf:RDF>
  </metadata>
  <defs
     id="defs19">
    <inkscape:perspective
       sodipodi:type="inkscape:persp3d"
       inkscape:vp_x="0 : 96.380356 : 1"
       inkscape:vp_y="0 : 1000 : 0"
       inkscape:vp_z="460.10153 : 96.380356 : 1"
       inkscape:persp3d-origin="230.05077 : 64.253571 : 1"
       id="perspective23" />
    <inkscape:perspective
       sodipodi:type="inkscape:persp3d"
       inkscape:vp_x="0 : 332 : 1"
       inkscape:vp_y="0 : 1000 : 0"
       inkscape:vp_z="443 : 332 : 1"
       inkscape:persp3d-origin="221.5 : 221.33333 : 1"
       id="perspective3265" />
    <inkscape:perspective
       id="perspective2494"
       inkscape:persp3d-origin="230.05077 : 64.253571 : 1"
       inkscape:vp_z="460.10153 : 96.380356 : 1"
       inkscape:vp_y="0 : 1000 : 0"
       inkscape:vp_x="0 : 96.380356 : 1"
       sodipodi:type="inkscape:persp3d" />
    <radialGradient
       gradientUnits="userSpaceOnUse"
       gradientTransform="matrix(2.0824918,-6.83348,10.405135,3.1709431,-4768.9247,211.49142)"
       r="185.25969"
       fy="280.71976"
       fx="188.27602"
       cy="280.71976"
       cx="188.27602"
       id="radialGradient3164"
       xlink:href="#linearGradient3158"
       inkscape:collect="always" />
    <inkscape:perspective
       id="perspective15"
       inkscape:persp3d-origin="221.5 : 221.33333 : 1"
       inkscape:vp_z="443 : 332 : 1"
       inkscape:vp_y="0 : 1000 : 0"
       inkscape:vp_x="0 : 332 : 1"
       sodipodi:type="inkscape:persp3d" />
    <linearGradient
       id="linearGradient3158"
       inkscape:collect="always">
      <stop
         id="stop3160"
         offset="0"
         style="stop-color:#ffffff;stop-opacity:1;" />
      <stop
         id="stop3162"
         offset="1"
         style="stop-color:#ffffff;stop-opacity:0;" />
    </linearGradient>
    <inkscape:perspective
       sodipodi:type="inkscape:persp3d"
       inkscape:vp_x="0 : 96.380356 : 1"
       inkscape:vp_y="0 : 1000 : 0"
       inkscape:vp_z="460.10153 : 96.380356 : 1"
       inkscape:persp3d-origin="230.05077 : 64.253571 : 1"
       id="perspective3722" />
    <inkscape:perspective
       id="perspective3425"
       inkscape:persp3d-origin="230.05077 : 64.253571 : 1"
       inkscape:vp_z="460.10153 : 96.380356 : 1"
       inkscape:vp_y="0 : 1000 : 0"
       inkscape:vp_x="0 : 96.380356 : 1"
       sodipodi:type="inkscape:persp3d" />
  </defs>
  <sodipodi:namedview
     inkscape:window-height="1058"
     inkscape:window-width="1916"
     inkscape:pageshadow="2"
     inkscape:pageopacity="0.0"
     guidetolerance="10.0"
     gridtolerance="10.0"
     objecttolerance="10.0"
     borderopacity="1.0"
     bordercolor="#666666"
     pagecolor="#ffffff"
     id="base"
     showgrid="false"
     inkscape:zoom="0.32"
     inkscape:cx="-1050.412"
     inkscape:cy="500.49992"
     inkscape:window-x="0"
     inkscape:window-y="14"
     inkscape:current-layer="svg2"
     inkscape:window-maximized="0" />
  <g
     id="g3320"
     transform="matrix(3.9910045,0,0,3.9910045,8079.8531,1884.9203)"
     inkscape:export-filename="D:\studyworkspace\Asia\res\drawable\icq_na_80.png"
     inkscape:export-xdpi="10.555802"
     inkscape:export-ydpi="10.555802">
    <path
       inkscape:export-ydpi="41.415047"
       inkscape:export-xdpi="41.415047"
       inkscape:export-filename="D:\studyworkspace\Asia\res\drawable\icq_dinner_80.png"
       id="path3322"
       style="fill:#020202"
       d="M -1795.656,-693.48943 C -1800.9558,-694.69449 -1805.294,-694.21246 -1809.8708,-691.80234 C -1814.9321,-688.66918 -1817.8242,-683.84893 -1819.0293,-677.10304 C -1820.2344,-670.11614 -1819.0293,-663.3678 -1815.4141,-656.62191 L -1813.727,-654.21424 L -1819.5113,-656.14234 C -1826.7392,-657.82943 -1833.4876,-656.86538 -1840.2335,-653.25019 C -1847.2204,-649.63501 -1851.5586,-644.57621 -1854.4507,-637.58685 C -1857.1019,-630.8385 -1856.8584,-624.33363 -1853.4867,-618.31078 C -1852.0406,-615.65964 -1849.8715,-613.49299 -1847.9459,-612.04691 C -1845.0537,-609.15477 -1841.4385,-607.46768 -1837.1028,-606.7471 L -1835.4157,-606.26508 L -1839.0309,-603.13192 C -1842.405,-600.23977 -1844.3307,-596.62704 -1845.5357,-593.01185 C -1846.7408,-588.67363 -1846.2588,-584.33787 -1843.8487,-580.24066 C -1842.6436,-578.31502 -1841.441,-576.62793 -1839.5129,-575.42287 C -1837.5848,-573.73578 -1835.1747,-572.53072 -1832.285,-572.29217 C -1826.9827,-571.0871 -1821.4419,-571.0871 -1815.419,-573.01766 L -1819.7572,-565.78975 L -1820.9623,-562.65413 C -1823.37,-554.94419 -1822.6494,-548.19585 -1819.0342,-541.21141 C -1817.3471,-538.56027 -1815.419,-536.14769 -1813.4909,-533.98349 C -1810.5988,-531.33236 -1806.986,-529.64527 -1802.6478,-528.44021 C -1795.4199,-526.51457 -1788.1895,-526.75312 -1781.2026,-530.36585 C -1774.4543,-533.98349 -1770.1185,-539.76533 -1767.9494,-546.9957 L -1767.7084,-548.44178 C -1763.1316,-543.37806 -1758.7934,-540.00634 -1753.9732,-538.80128 C -1749.1554,-537.35521 -1744.3351,-537.59622 -1739.9969,-540.48837 C -1735.8997,-542.89849 -1733.01,-546.9957 -1731.5639,-552.0545 C -1730.3589,-557.35678 -1730.3589,-562.65659 -1731.5639,-568.67944 C -1729.1563,-566.99235 -1726.7461,-565.79221 -1723.854,-565.06671 C -1716.1441,-562.65659 -1709.3982,-562.90006 -1702.6498,-566.51279 C -1696.1425,-570.12551 -1691.8067,-575.91227 -1689.6376,-583.3812 C -1687.7095,-590.60911 -1688.1915,-597.59355 -1691.8067,-604.3419 L -1693.0118,-606.27 C -1694.9399,-609.16214 -1696.8655,-612.05429 -1699.7577,-613.97993 C -1702.1653,-615.66702 -1705.0575,-616.87208 -1707.7086,-618.07714 C -1700.2372,-621.69233 -1694.9374,-626.75113 -1692.5273,-633.25846 C -1690.8402,-638.56074 -1691.3222,-642.8965 -1693.7324,-647.23472 L -1693.7324,-647.71675 C -1696.6221,-652.53699 -1700.4783,-655.67016 -1706.5011,-657.35478 C -1710.1163,-658.07782 -1714.2135,-658.07782 -1717.8262,-657.83681 L -1725.7772,-656.14972 L -1723.126,-662.17257 C -1720.7159,-669.88251 -1721.439,-677.35389 -1725.5362,-684.34079 L -1726.2592,-685.54585 C -1729.8744,-691.57116 -1735.1742,-695.18389 -1742.4021,-697.11199 C -1749.871,-699.04009 -1756.8579,-698.31705 -1763.6063,-694.70187 C -1770.3522,-691.08914 -1775.1724,-685.54585 -1777.3391,-678.31548 L -1777.3391,-677.83346 L -1777.5801,-676.14637 L -1778.5441,-677.83346 L -1780.9543,-682.17168 C -1784.8129,-688.18715 -1789.6332,-691.80234 -1795.656,-693.48943 L -1795.656,-693.48943 z M -1734.2101,-679.03114 C -1733.0051,-676.62348 -1732.282,-673.73133 -1732.282,-670.59817 L -1733.0051,-665.29835 C -1733.9691,-662.64722 -1735.1742,-660.23709 -1736.6203,-658.07044 L -1758.3065,-631.56154 C -1760.4756,-633.24863 -1762.8857,-634.45369 -1765.2958,-635.65875 L -1767.7035,-662.88577 L -1767.9445,-672.52381 L -1767.7035,-674.93147 C -1766.4984,-679.74926 -1763.1267,-683.36445 -1758.7885,-685.77457 C -1754.4527,-688.18223 -1749.6325,-688.66672 -1745.0557,-686.97963 C -1739.9944,-685.77703 -1736.3793,-683.12589 -1734.2101,-679.03114 L -1734.2101,-679.03114 L -1734.2101,-679.03114 z M -1808.9092,-674.21089 C -1808.6682,-678.54912 -1806.9811,-681.43881 -1804.0914,-683.12589 C -1802.6454,-684.33095 -1800.4763,-684.33095 -1798.5506,-683.3669 C -1794.2124,-682.16184 -1790.5997,-679.02868 -1787.7075,-673.00583 C -1786.5025,-670.59571 -1785.2974,-668.18804 -1784.8154,-665.2959 L -1779.9976,-636.86135 L -1783.6128,-635.65629 L -1805.058,-659.02957 L -1806.263,-661.43724 C -1808.1862,-665.77792 -1809.3913,-669.87267 -1808.9092,-674.21089 L -1808.9092,-674.21089 L -1808.9092,-674.21089 z M -1821.9214,-646.01982 L -1815.4141,-643.36869 L -1794.2099,-627.94635 C -1796.138,-625.53869 -1797.3406,-623.12857 -1798.0637,-620.71844 L -1832.7621,-616.38022 L -1835.1722,-616.86224 C -1839.5104,-617.58528 -1842.4001,-619.51338 -1844.3282,-623.12611 C -1846.2563,-626.74129 -1846.2563,-630.35402 -1844.8102,-633.9692 C -1843.1232,-638.54844 -1839.9925,-642.16363 -1835.4132,-644.08926 C -1831.0775,-646.50185 -1826.7417,-647.22489 -1821.9214,-646.01982 L -1821.9214,-646.01982 L -1821.9214,-646.01982 z M -1799.0302,-606.74464 L -1797.3431,-601.92439 L -1796.6201,-600.23731 C -1800.2352,-597.1066 -1802.8864,-594.21446 -1805.7761,-591.56332 L -1813.0064,-585.53801 L -1814.9345,-584.33295 C -1819.5138,-582.1663 -1823.3675,-581.4408 -1827.4647,-581.92528 C -1831.0799,-582.1663 -1833.9721,-583.37136 -1835.1771,-585.53801 L -1835.9002,-588.18915 L -1835.4181,-590.3558 C -1834.2131,-593.97344 -1831.0799,-597.58371 -1825.5366,-600.23731 C -1822.6469,-601.44237 -1820.2368,-602.64743 -1818.3087,-603.12946 L -1799.0302,-606.74464 L -1799.0302,-606.74464 z M -1723.8515,-645.77881 C -1719.5133,-647.70691 -1715.4186,-648.18893 -1711.0803,-647.70691 C -1706.9831,-647.22489 -1704.091,-645.29925 -1702.6474,-642.4071 L -1701.6833,-639.2764 L -1702.1653,-636.86627 C -1703.8524,-632.52805 -1707.4676,-629.15633 -1713.4905,-626.5052 C -1715.8981,-625.30014 -1718.5493,-624.81811 -1721.4414,-624.33855 L -1751.0786,-620.72336 L -1751.5606,-622.41045 L -1752.0426,-623.13103 L -1751.0786,-624.33609 L -1726.7412,-644.57621 L -1723.8515,-645.77881 L -1723.8515,-645.77881 L -1723.8515,-645.77881 z M -1785.2949,-622.88755 C -1782.4052,-625.53869 -1778.549,-627.22332 -1773.9698,-627.22332 C -1769.6316,-627.22332 -1765.5368,-625.53623 -1762.8857,-622.88755 C -1759.5115,-619.51338 -1758.0655,-615.89819 -1758.0655,-611.56243 C -1758.0655,-607.22667 -1759.5115,-603.12946 -1762.8857,-600.23731 C -1766.0189,-597.1066 -1769.6316,-595.41952 -1773.9698,-595.41952 C -1778.549,-595.41952 -1782.4052,-597.1066 -1785.2949,-600.23731 C -1788.4281,-603.12946 -1790.1127,-607.22667 -1790.1127,-611.56243 C -1790.1127,-615.89819 -1788.4281,-619.51338 -1785.2949,-622.88755 L -1785.2949,-622.88755 z M -1779.7541,-587.94813 C -1779.2721,-579.75371 -1778.549,-571.07973 -1777.344,-561.6827 L -1777.344,-552.04221 L -1777.585,-549.63208 C -1779.2721,-545.29878 -1782.1642,-541.68359 -1786.5,-539.7555 C -1790.8358,-537.34537 -1795.415,-536.86335 -1799.7532,-538.06841 C -1804.571,-539.26855 -1808.1862,-542.1607 -1810.1143,-546.0169 C -1811.3194,-548.42702 -1812.2834,-551.31917 -1812.2834,-554.21132 L -1811.0783,-559.74969 C -1810.5963,-562.15981 -1809.3913,-564.57239 -1807.4632,-566.49803 L -1787.223,-590.59681 C -1784.8129,-589.39421 -1782.4052,-588.18915 -1779.7541,-587.94813 L -1779.7541,-587.94813 L -1779.7541,-587.94813 z M -1761.1986,-591.08129 L -1751.0786,-580.72022 L -1744.8147,-573.01028 L -1743.6096,-570.60016 C -1741.4405,-566.50295 -1740.2355,-562.64675 -1740.7175,-558.06752 C -1741.1995,-553.72929 -1742.6456,-550.59859 -1745.5353,-549.39353 C -1747.2224,-548.18847 -1749.1505,-548.18847 -1751.0761,-548.43194 C -1755.6553,-549.63208 -1759.2705,-553.24973 -1761.9192,-559.03403 L -1764.8113,-566.98252 L -1768.4265,-587.94813 L -1764.3293,-589.39421 L -1761.1986,-591.08129 L -1761.1986,-591.08129 L -1761.1986,-591.08129 z M -1750.3555,-606.02161 L -1723.126,-608.42927 L -1713.488,-608.67028 L -1711.0779,-608.42927 C -1707.4627,-607.22421 -1704.0885,-605.0551 -1702.1629,-601.44237 C -1699.7552,-598.79123 -1698.5502,-595.17851 -1698.5502,-591.08129 L -1699.2707,-586.26351 C -1700.4758,-581.4408 -1703.3679,-577.82807 -1707.4652,-575.90243 C -1711.8034,-573.49231 -1716.1391,-573.01028 -1720.9594,-574.69737 C -1723.8515,-575.41795 -1725.7772,-576.62301 -1727.4667,-578.54865 L -1752.7681,-599.51427 L -1751.081,-603.127 L -1750.3555,-606.02161 L -1750.3555,-606.02161 L -1750.3555,-606.02161 z" />
    <path
       inkscape:export-ydpi="41.415047"
       inkscape:export-xdpi="41.415047"
       inkscape:export-filename="D:\studyworkspace\Asia\res\drawable\icq_dinner_80.png"
       id="path3324"
       style="fill:#48f600"
       d="M -1734.2101,-679.03114 C -1733.0051,-676.62348 -1732.282,-673.73133 -1732.282,-670.59817 L -1733.0051,-665.29835 C -1733.9691,-662.64722 -1735.1742,-660.23709 -1736.6203,-658.07044 L -1758.3065,-631.56154 C -1760.4756,-633.24863 -1762.8857,-634.45369 -1765.2958,-635.65875 L -1767.7035,-662.88577 L -1767.9445,-672.52381 L -1767.7035,-674.93147 C -1766.4984,-679.74926 -1763.1267,-683.36445 -1758.7885,-685.77457 C -1754.4527,-688.18223 -1749.6325,-688.66672 -1745.0557,-686.97963 C -1739.9944,-685.77703 -1736.3793,-683.12589 -1734.2101,-679.03114 L -1734.2101,-679.03114 L -1734.2101,-679.03114 z M -1808.9092,-674.21089 C -1808.6682,-678.54912 -1806.9811,-681.43881 -1804.0914,-683.12589 C -1802.6454,-684.33095 -1800.4763,-684.33095 -1798.5506,-683.3669 C -1794.2124,-682.16184 -1790.5997,-679.02868 -1787.7075,-673.00583 C -1786.5025,-670.59571 -1785.2974,-668.18804 -1784.8154,-665.2959 L -1779.9976,-636.86135 L -1783.6128,-635.65629 L -1805.058,-659.02957 L -1806.263,-661.43724 C -1808.1862,-665.77792 -1809.3913,-669.87267 -1808.9092,-674.21089 L -1808.9092,-674.21089 L -1808.9092,-674.21089 z M -1821.9214,-646.01982 L -1815.4141,-643.36869 L -1794.2099,-627.94635 C -1796.138,-625.53869 -1797.3406,-623.12857 -1798.0637,-620.71844 L -1832.7621,-616.38022 L -1835.1722,-616.86224 C -1839.5104,-617.58528 -1842.4001,-619.51338 -1844.3282,-623.12611 C -1846.2563,-626.74129 -1846.2563,-630.35402 -1844.8102,-633.9692 C -1843.1232,-638.54844 -1839.9925,-642.16363 -1835.4132,-644.08926 C -1831.0775,-646.50185 -1826.7417,-647.22489 -1821.9214,-646.01982 L -1821.9214,-646.01982 L -1821.9214,-646.01982 z M -1723.8515,-645.77881 C -1719.5133,-647.70691 -1715.4186,-648.18893 -1711.0803,-647.70691 C -1706.9831,-647.22489 -1704.091,-645.29925 -1702.6474,-642.4071 L -1701.6833,-639.2764 L -1702.1653,-636.86627 C -1703.8524,-632.52805 -1707.4676,-629.15633 -1713.4905,-626.5052 C -1715.8981,-625.30014 -1718.5493,-624.81811 -1721.4414,-624.33855 L -1751.0786,-620.72336 L -1751.5606,-622.41045 L -1752.0426,-623.13103 L -1751.0786,-624.33609 L -1726.7412,-644.57621 L -1723.8515,-645.77881 L -1723.8515,-645.77881 L -1723.8515,-645.77881 z M -1779.7541,-587.94813 C -1779.2721,-579.75371 -1778.549,-571.07973 -1777.344,-561.6827 L -1777.344,-552.04221 L -1777.585,-549.63208 C -1779.2721,-545.29878 -1782.1642,-541.68359 -1786.5,-539.7555 C -1790.8358,-537.34537 -1795.415,-536.86335 -1799.7532,-538.06841 C -1804.571,-539.26855 -1808.1862,-542.1607 -1810.1143,-546.0169 C -1811.3194,-548.42702 -1812.2834,-551.31917 -1812.2834,-554.21132 L -1811.0783,-559.74969 C -1810.5963,-562.15981 -1809.3913,-564.57239 -1807.4632,-566.49803 L -1787.223,-590.59681 C -1784.8129,-589.39421 -1782.4052,-588.18915 -1779.7541,-587.94813 L -1779.7541,-587.94813 z M -1761.1986,-591.08129 L -1751.0786,-580.72022 L -1744.8147,-573.01028 L -1743.6096,-570.60016 C -1741.4405,-566.50295 -1740.2355,-562.64675 -1740.7175,-558.06752 C -1741.1995,-553.72929 -1742.6456,-550.59859 -1745.5353,-549.39353 C -1747.2224,-548.18847 -1749.1505,-548.18847 -1751.0761,-548.43194 C -1755.6553,-549.63208 -1759.2705,-553.24973 -1761.9192,-559.03403 L -1764.8113,-566.98252 L -1768.4265,-587.94813 L -1764.3293,-589.39421 L -1761.1986,-591.08129 L -1761.1986,-591.08129 L -1761.1986,-591.08129 z M -1750.3555,-606.02161 L -1723.126,-608.42927 L -1713.488,-608.67028 L -1711.0779,-608.42927 C -1707.4627,-607.22421 -1704.0885,-605.0551 -1702.1629,-601.44237 C -1699.7552,-598.79123 -1698.5502,-595.17851 -1698.5502,-591.08129 L -1699.2707,-586.26351 C -1700.4758,-581.4408 -1703.3679,-577.82807 -1707.4652,-575.90243 C -1711.8034,-573.49231 -1716.1391,-573.01028 -1720.9594,-574.69737 C -1723.8515,-575.41795 -1725.7772,-576.62301 -1727.4667,-578.54865 L -1752.7681,-599.51427 L -1751.081,-603.127 L -1750.3555,-606.02161 L -1750.3555,-606.02161 L -1750.3555,-606.02161 z" />
    <path
       inkscape:export-ydpi="41.415047"
       inkscape:export-xdpi="41.415047"
       inkscape:export-filename="D:\studyworkspace\Asia\res\drawable\icq_dinner_80.png"
       id="path3326"
       style="fill:#ff001c"
       d="M -1799.0302,-606.74464 L -1797.3431,-601.92439 L -1796.6201,-600.23731 C -1800.2352,-597.1066 -1802.8864,-594.21446 -1805.7761,-591.56332 L -1813.0064,-585.53801 L -1814.9345,-584.33295 C -1819.5138,-582.1663 -1823.3675,-581.4408 -1827.4647,-581.92528 C -1831.0799,-582.1663 -1833.9721,-583.37136 -1835.1771,-585.53801 L -1835.9002,-588.18915 L -1835.4181,-590.3558 C -1834.2131,-593.97344 -1831.0799,-597.58371 -1825.5366,-600.23731 C -1822.6469,-601.44237 -1820.2368,-602.64743 -1818.3087,-603.12946 L -1799.0302,-606.74464 L -1799.0302,-606.74464 L -1799.0302,-606.74464 z" />
    <path
       inkscape:export-ydpi="41.415047"
       inkscape:export-xdpi="41.415047"
       inkscape:export-filename="D:\studyworkspace\Asia\res\drawable\icq_dinner_80.png"
       id="path3328"
       style="fill:#fdfb12"
       d="M -1785.2949,-622.88755 C -1782.4052,-625.53869 -1778.549,-627.22332 -1773.9698,-627.22332 C -1769.6316,-627.22332 -1765.5368,-625.53623 -1762.8857,-622.88755 C -1759.5115,-619.51338 -1758.0655,-615.89819 -1758.0655,-611.56243 C -1758.0655,-607.22667 -1759.5115,-603.12946 -1762.8857,-600.23731 C -1766.0189,-597.1066 -1769.6316,-595.41952 -1773.9698,-595.41952 C -1778.549,-595.41952 -1782.4052,-597.1066 -1785.2949,-600.23731 C -1788.4281,-603.12946 -1790.1127,-607.22667 -1790.1127,-611.56243 C -1790.1127,-615.89819 -1788.4281,-619.51338 -1785.2949,-622.88755 L -1785.2949,-622.88755 z" />
  </g>
  <g
     id="g3305"
     transform="matrix(3.9910045,0,0,3.9910045,7239.2281,1669.2953)"
     inkscape:export-filename="D:\studyworkspace\Asia\res\drawable\icq_dnd_80.png"
     inkscape:export-xdpi="10.555801"
     inkscape:export-ydpi="10.555801">
    <path
       inkscape:export-ydpi="41.415047"
       inkscape:export-xdpi="41.415047"
       inkscape:export-filename="D:\studyworkspace\Asia\res\drawable\icq_dinner_80.png"
       id="path3307"
       style="fill:#020202"
       d="M -1795.656,-693.48943 C -1800.9558,-694.69449 -1805.294,-694.21246 -1809.8708,-691.80234 C -1814.9321,-688.66918 -1817.8242,-683.84893 -1819.0293,-677.10304 C -1820.2344,-670.11614 -1819.0293,-663.3678 -1815.4141,-656.62191 L -1813.727,-654.21424 L -1819.5113,-656.14234 C -1826.7392,-657.82943 -1833.4876,-656.86538 -1840.2335,-653.25019 C -1847.2204,-649.63501 -1851.5586,-644.57621 -1854.4507,-637.58685 C -1857.1019,-630.8385 -1856.8584,-624.33363 -1853.4867,-618.31078 C -1852.0406,-615.65964 -1849.8715,-613.49299 -1847.9459,-612.04691 C -1845.0537,-609.15477 -1841.4385,-607.46768 -1837.1028,-606.7471 L -1835.4157,-606.26508 L -1839.0309,-603.13192 C -1842.405,-600.23977 -1844.3307,-596.62704 -1845.5357,-593.01185 C -1846.7408,-588.67363 -1846.2588,-584.33787 -1843.8487,-580.24066 C -1842.6436,-578.31502 -1841.441,-576.62793 -1839.5129,-575.42287 C -1837.5848,-573.73578 -1835.1747,-572.53072 -1832.285,-572.29217 C -1826.9827,-571.0871 -1821.4419,-571.0871 -1815.419,-573.01766 L -1819.7572,-565.78975 L -1820.9623,-562.65413 C -1823.37,-554.94419 -1822.6494,-548.19585 -1819.0342,-541.21141 C -1817.3471,-538.56027 -1815.419,-536.14769 -1813.4909,-533.98349 C -1810.5988,-531.33236 -1806.986,-529.64527 -1802.6478,-528.44021 C -1795.4199,-526.51457 -1788.1895,-526.75312 -1781.2026,-530.36585 C -1774.4543,-533.98349 -1770.1185,-539.76533 -1767.9494,-546.9957 L -1767.7084,-548.44178 C -1763.1316,-543.37806 -1758.7934,-540.00634 -1753.9732,-538.80128 C -1749.1554,-537.35521 -1744.3351,-537.59622 -1739.9969,-540.48837 C -1735.8997,-542.89849 -1733.01,-546.9957 -1731.5639,-552.0545 C -1730.3589,-557.35678 -1730.3589,-562.65659 -1731.5639,-568.67944 C -1729.1563,-566.99235 -1726.7461,-565.79221 -1723.854,-565.06671 C -1716.1441,-562.65659 -1709.3982,-562.90006 -1702.6498,-566.51279 C -1696.1425,-570.12551 -1691.8067,-575.91227 -1689.6376,-583.3812 C -1687.7095,-590.60911 -1688.1915,-597.59355 -1691.8067,-604.3419 L -1693.0118,-606.27 C -1694.9399,-609.16214 -1696.8655,-612.05429 -1699.7577,-613.97993 C -1702.1653,-615.66702 -1705.0575,-616.87208 -1707.7086,-618.07714 C -1700.2372,-621.69233 -1694.9374,-626.75113 -1692.5273,-633.25846 C -1690.8402,-638.56074 -1691.3222,-642.8965 -1693.7324,-647.23472 L -1693.7324,-647.71675 C -1696.6221,-652.53699 -1700.4783,-655.67016 -1706.5011,-657.35478 C -1710.1163,-658.07782 -1714.2135,-658.07782 -1717.8262,-657.83681 L -1725.7772,-656.14972 L -1723.126,-662.17257 C -1720.7159,-669.88251 -1721.439,-677.35389 -1725.5362,-684.34079 L -1726.2592,-685.54585 C -1729.8744,-691.57116 -1735.1742,-695.18389 -1742.4021,-697.11199 C -1749.871,-699.04009 -1756.8579,-698.31705 -1763.6063,-694.70187 C -1770.3522,-691.08914 -1775.1724,-685.54585 -1777.3391,-678.31548 L -1777.3391,-677.83346 L -1777.5801,-676.14637 L -1778.5441,-677.83346 L -1780.9543,-682.17168 C -1784.8129,-688.18715 -1789.6332,-691.80234 -1795.656,-693.48943 L -1795.656,-693.48943 z M -1734.2101,-679.03114 C -1733.0051,-676.62348 -1732.282,-673.73133 -1732.282,-670.59817 L -1733.0051,-665.29835 C -1733.9691,-662.64722 -1735.1742,-660.23709 -1736.6203,-658.07044 L -1758.3065,-631.56154 C -1760.4756,-633.24863 -1762.8857,-634.45369 -1765.2958,-635.65875 L -1767.7035,-662.88577 L -1767.9445,-672.52381 L -1767.7035,-674.93147 C -1766.4984,-679.74926 -1763.1267,-683.36445 -1758.7885,-685.77457 C -1754.4527,-688.18223 -1749.6325,-688.66672 -1745.0557,-686.97963 C -1739.9944,-685.77703 -1736.3793,-683.12589 -1734.2101,-679.03114 L -1734.2101,-679.03114 L -1734.2101,-679.03114 z M -1808.9092,-674.21089 C -1808.6682,-678.54912 -1806.9811,-681.43881 -1804.0914,-683.12589 C -1802.6454,-684.33095 -1800.4763,-684.33095 -1798.5506,-683.3669 C -1794.2124,-682.16184 -1790.5997,-679.02868 -1787.7075,-673.00583 C -1786.5025,-670.59571 -1785.2974,-668.18804 -1784.8154,-665.2959 L -1779.9976,-636.86135 L -1783.6128,-635.65629 L -1805.058,-659.02957 L -1806.263,-661.43724 C -1808.1862,-665.77792 -1809.3913,-669.87267 -1808.9092,-674.21089 L -1808.9092,-674.21089 L -1808.9092,-674.21089 z M -1821.9214,-646.01982 L -1815.4141,-643.36869 L -1794.2099,-627.94635 C -1796.138,-625.53869 -1797.3406,-623.12857 -1798.0637,-620.71844 L -1832.7621,-616.38022 L -1835.1722,-616.86224 C -1839.5104,-617.58528 -1842.4001,-619.51338 -1844.3282,-623.12611 C -1846.2563,-626.74129 -1846.2563,-630.35402 -1844.8102,-633.9692 C -1843.1232,-638.54844 -1839.9925,-642.16363 -1835.4132,-644.08926 C -1831.0775,-646.50185 -1826.7417,-647.22489 -1821.9214,-646.01982 L -1821.9214,-646.01982 L -1821.9214,-646.01982 z M -1799.0302,-606.74464 L -1797.3431,-601.92439 L -1796.6201,-600.23731 C -1800.2352,-597.1066 -1802.8864,-594.21446 -1805.7761,-591.56332 L -1813.0064,-585.53801 L -1814.9345,-584.33295 C -1819.5138,-582.1663 -1823.3675,-581.4408 -1827.4647,-581.92528 C -1831.0799,-582.1663 -1833.9721,-583.37136 -1835.1771,-585.53801 L -1835.9002,-588.18915 L -1835.4181,-590.3558 C -1834.2131,-593.97344 -1831.0799,-597.58371 -1825.5366,-600.23731 C -1822.6469,-601.44237 -1820.2368,-602.64743 -1818.3087,-603.12946 L -1799.0302,-606.74464 L -1799.0302,-606.74464 z M -1723.8515,-645.77881 C -1719.5133,-647.70691 -1715.4186,-648.18893 -1711.0803,-647.70691 C -1706.9831,-647.22489 -1704.091,-645.29925 -1702.6474,-642.4071 L -1701.6833,-639.2764 L -1702.1653,-636.86627 C -1703.8524,-632.52805 -1707.4676,-629.15633 -1713.4905,-626.5052 C -1715.8981,-625.30014 -1718.5493,-624.81811 -1721.4414,-624.33855 L -1751.0786,-620.72336 L -1751.5606,-622.41045 L -1752.0426,-623.13103 L -1751.0786,-624.33609 L -1726.7412,-644.57621 L -1723.8515,-645.77881 L -1723.8515,-645.77881 L -1723.8515,-645.77881 z M -1785.2949,-622.88755 C -1782.4052,-625.53869 -1778.549,-627.22332 -1773.9698,-627.22332 C -1769.6316,-627.22332 -1765.5368,-625.53623 -1762.8857,-622.88755 C -1759.5115,-619.51338 -1758.0655,-615.89819 -1758.0655,-611.56243 C -1758.0655,-607.22667 -1759.5115,-603.12946 -1762.8857,-600.23731 C -1766.0189,-597.1066 -1769.6316,-595.41952 -1773.9698,-595.41952 C -1778.549,-595.41952 -1782.4052,-597.1066 -1785.2949,-600.23731 C -1788.4281,-603.12946 -1790.1127,-607.22667 -1790.1127,-611.56243 C -1790.1127,-615.89819 -1788.4281,-619.51338 -1785.2949,-622.88755 L -1785.2949,-622.88755 z M -1779.7541,-587.94813 C -1779.2721,-579.75371 -1778.549,-571.07973 -1777.344,-561.6827 L -1777.344,-552.04221 L -1777.585,-549.63208 C -1779.2721,-545.29878 -1782.1642,-541.68359 -1786.5,-539.7555 C -1790.8358,-537.34537 -1795.415,-536.86335 -1799.7532,-538.06841 C -1804.571,-539.26855 -1808.1862,-542.1607 -1810.1143,-546.0169 C -1811.3194,-548.42702 -1812.2834,-551.31917 -1812.2834,-554.21132 L -1811.0783,-559.74969 C -1810.5963,-562.15981 -1809.3913,-564.57239 -1807.4632,-566.49803 L -1787.223,-590.59681 C -1784.8129,-589.39421 -1782.4052,-588.18915 -1779.7541,-587.94813 L -1779.7541,-587.94813 L -1779.7541,-587.94813 z M -1761.1986,-591.08129 L -1751.0786,-580.72022 L -1744.8147,-573.01028 L -1743.6096,-570.60016 C -1741.4405,-566.50295 -1740.2355,-562.64675 -1740.7175,-558.06752 C -1741.1995,-553.72929 -1742.6456,-550.59859 -1745.5353,-549.39353 C -1747.2224,-548.18847 -1749.1505,-548.18847 -1751.0761,-548.43194 C -1755.6553,-549.63208 -1759.2705,-553.24973 -1761.9192,-559.03403 L -1764.8113,-566.98252 L -1768.4265,-587.94813 L -1764.3293,-589.39421 L -1761.1986,-591.08129 L -1761.1986,-591.08129 L -1761.1986,-591.08129 z M -1750.3555,-606.02161 L -1723.126,-608.42927 L -1713.488,-608.67028 L -1711.0779,-608.42927 C -1707.4627,-607.22421 -1704.0885,-605.0551 -1702.1629,-601.44237 C -1699.7552,-598.79123 -1698.5502,-595.17851 -1698.5502,-591.08129 L -1699.2707,-586.26351 C -1700.4758,-581.4408 -1703.3679,-577.82807 -1707.4652,-575.90243 C -1711.8034,-573.49231 -1716.1391,-573.01028 -1720.9594,-574.69737 C -1723.8515,-575.41795 -1725.7772,-576.62301 -1727.4667,-578.54865 L -1752.7681,-599.51427 L -1751.081,-603.127 L -1750.3555,-606.02161 L -1750.3555,-606.02161 L -1750.3555,-606.02161 z" />
    <path
       inkscape:export-ydpi="41.415047"
       inkscape:export-xdpi="41.415047"
       inkscape:export-filename="D:\studyworkspace\Asia\res\drawable\icq_dinner_80.png"
       id="path3309"
       style="fill:#48f600"
       d="M -1734.2101,-679.03114 C -1733.0051,-676.62348 -1732.282,-673.73133 -1732.282,-670.59817 L -1733.0051,-665.29835 C -1733.9691,-662.64722 -1735.1742,-660.23709 -1736.6203,-658.07044 L -1758.3065,-631.56154 C -1760.4756,-633.24863 -1762.8857,-634.45369 -1765.2958,-635.65875 L -1767.7035,-662.88577 L -1767.9445,-672.52381 L -1767.7035,-674.93147 C -1766.4984,-679.74926 -1763.1267,-683.36445 -1758.7885,-685.77457 C -1754.4527,-688.18223 -1749.6325,-688.66672 -1745.0557,-686.97963 C -1739.9944,-685.77703 -1736.3793,-683.12589 -1734.2101,-679.03114 L -1734.2101,-679.03114 L -1734.2101,-679.03114 z M -1808.9092,-674.21089 C -1808.6682,-678.54912 -1806.9811,-681.43881 -1804.0914,-683.12589 C -1802.6454,-684.33095 -1800.4763,-684.33095 -1798.5506,-683.3669 C -1794.2124,-682.16184 -1790.5997,-679.02868 -1787.7075,-673.00583 C -1786.5025,-670.59571 -1785.2974,-668.18804 -1784.8154,-665.2959 L -1779.9976,-636.86135 L -1783.6128,-635.65629 L -1805.058,-659.02957 L -1806.263,-661.43724 C -1808.1862,-665.77792 -1809.3913,-669.87267 -1808.9092,-674.21089 L -1808.9092,-674.21089 L -1808.9092,-674.21089 z M -1821.9214,-646.01982 L -1815.4141,-643.36869 L -1794.2099,-627.94635 C -1796.138,-625.53869 -1797.3406,-623.12857 -1798.0637,-620.71844 L -1832.7621,-616.38022 L -1835.1722,-616.86224 C -1839.5104,-617.58528 -1842.4001,-619.51338 -1844.3282,-623.12611 C -1846.2563,-626.74129 -1846.2563,-630.35402 -1844.8102,-633.9692 C -1843.1232,-638.54844 -1839.9925,-642.16363 -1835.4132,-644.08926 C -1831.0775,-646.50185 -1826.7417,-647.22489 -1821.9214,-646.01982 L -1821.9214,-646.01982 L -1821.9214,-646.01982 z M -1723.8515,-645.77881 C -1719.5133,-647.70691 -1715.4186,-648.18893 -1711.0803,-647.70691 C -1706.9831,-647.22489 -1704.091,-645.29925 -1702.6474,-642.4071 L -1701.6833,-639.2764 L -1702.1653,-636.86627 C -1703.8524,-632.52805 -1707.4676,-629.15633 -1713.4905,-626.5052 C -1715.8981,-625.30014 -1718.5493,-624.81811 -1721.4414,-624.33855 L -1751.0786,-620.72336 L -1751.5606,-622.41045 L -1752.0426,-623.13103 L -1751.0786,-624.33609 L -1726.7412,-644.57621 L -1723.8515,-645.77881 L -1723.8515,-645.77881 L -1723.8515,-645.77881 z M -1779.7541,-587.94813 C -1779.2721,-579.75371 -1778.549,-571.07973 -1777.344,-561.6827 L -1777.344,-552.04221 L -1777.585,-549.63208 C -1779.2721,-545.29878 -1782.1642,-541.68359 -1786.5,-539.7555 C -1790.8358,-537.34537 -1795.415,-536.86335 -1799.7532,-538.06841 C -1804.571,-539.26855 -1808.1862,-542.1607 -1810.1143,-546.0169 C -1811.3194,-548.42702 -1812.2834,-551.31917 -1812.2834,-554.21132 L -1811.0783,-559.74969 C -1810.5963,-562.15981 -1809.3913,-564.57239 -1807.4632,-566.49803 L -1787.223,-590.59681 C -1784.8129,-589.39421 -1782.4052,-588.18915 -1779.7541,-587.94813 L -1779.7541,-587.94813 z M -1761.1986,-591.08129 L -1751.0786,-580.72022 L -1744.8147,-573.01028 L -1743.6096,-570.60016 C -1741.4405,-566.50295 -1740.2355,-562.64675 -1740.7175,-558.06752 C -1741.1995,-553.72929 -1742.6456,-550.59859 -1745.5353,-549.39353 C -1747.2224,-548.18847 -1749.1505,-548.18847 -1751.0761,-548.43194 C -1755.6553,-549.63208 -1759.2705,-553.24973 -1761.9192,-559.03403 L -1764.8113,-566.98252 L -1768.4265,-587.94813 L -1764.3293,-589.39421 L -1761.1986,-591.08129 L -1761.1986,-591.08129 L -1761.1986,-591.08129 z M -1750.3555,-606.02161 L -1723.126,-608.42927 L -1713.488,-608.67028 L -1711.0779,-608.42927 C -1707.4627,-607.22421 -1704.0885,-605.0551 -1702.1629,-601.44237 C -1699.7552,-598.79123 -1698.5502,-595.17851 -1698.5502,-591.08129 L -1699.2707,-586.26351 C -1700.4758,-581.4408 -1703.3679,-577.82807 -1707.4652,-575.90243 C -1711.8034,-573.49231 -1716.1391,-573.01028 -1720.9594,-574.69737 C -1723.8515,-575.41795 -1725.7772,-576.62301 -1727.4667,-578.54865 L -1752.7681,-599.51427 L -1751.081,-603.127 L -1750.3555,-606.02161 L -1750.3555,-606.02161 L -1750.3555,-606.02161 z" />
    <path
       inkscape:export-ydpi="41.415047"
       inkscape:export-xdpi="41.415047"
       inkscape:export-filename="D:\studyworkspace\Asia\res\drawable\icq_dinner_80.png"
       id="path3311"
       style="fill:#ff001c"
       d="M -1799.0302,-606.74464 L -1797.3431,-601.92439 L -1796.6201,-600.23731 C -1800.2352,-597.1066 -1802.8864,-594.21446 -1805.7761,-591.56332 L -1813.0064,-585.53801 L -1814.9345,-584.33295 C -1819.5138,-582.1663 -1823.3675,-581.4408 -1827.4647,-581.92528 C -1831.0799,-582.1663 -1833.9721,-583.37136 -1835.1771,-585.53801 L -1835.9002,-588.18915 L -1835.4181,-590.3558 C -1834.2131,-593.97344 -1831.0799,-597.58371 -1825.5366,-600.23731 C -1822.6469,-601.44237 -1820.2368,-602.64743 -1818.3087,-603.12946 L -1799.0302,-606.74464 L -1799.0302,-606.74464 L -1799.0302,-606.74464 z" />
    <path
       inkscape:export-ydpi="41.415047"
       inkscape:export-xdpi="41.415047"
       inkscape:export-filename="D:\studyworkspace\Asia\res\drawable\icq_dinner_80.png"
       id="path3313"
       style="fill:#fdfb12"
       d="M -1785.2949,-622.88755 C -1782.4052,-625.53869 -1778.549,-627.22332 -1773.9698,-627.22332 C -1769.6316,-627.22332 -1765.5368,-625.53623 -1762.8857,-622.88755 C -1759.5115,-619.51338 -1758.0655,-615.89819 -1758.0655,-611.56243 C -1758.0655,-607.22667 -1759.5115,-603.12946 -1762.8857,-600.23731 C -1766.0189,-597.1066 -1769.6316,-595.41952 -1773.9698,-595.41952 C -1778.549,-595.41952 -1782.4052,-597.1066 -1785.2949,-600.23731 C -1788.4281,-603.12946 -1790.1127,-607.22667 -1790.1127,-611.56243 C -1790.1127,-615.89819 -1788.4281,-619.51338 -1785.2949,-622.88755 L -1785.2949,-622.88755 z" />
  </g>
  <path
     inkscape:connector-curvature="0"
     d="m -1526.9191,-1210.7925 c -21.1515,-4.8094 -38.4653,-2.8857 -56.7313,6.7331 -20.1997,12.5045 -31.7421,31.7421 -36.5516,58.665 -4.8096,27.8848 0,54.8174 14.4283,81.7403 l 6.7332,9.609 -23.0852,-7.695 c -28.8466,-6.7332 -55.7795,-2.8857 -82.7024,11.5426 -27.8847,14.4282 -45.1985,34.6178 -56.7409,62.51241 -10.5809,26.9327 -9.6091,52.89366 3.8473,76.93088 5.7714,10.58072 14.4283,19.22783 22.1134,24.99914 11.5428,11.54254 25.9711,18.27573 43.2749,21.15156 l 6.7332,1.92375 -14.4283,12.50445 c -13.466,11.54259 -21.1515,25.96101 -25.9607,40.38925 -4.8095,17.31385 -2.8859,34.61789 6.7328,50.96987 4.8096,7.68524 9.6092,14.41843 17.3042,19.22783 7.6951,6.73318 17.3138,11.54258 28.8466,12.49463 21.1615,4.80944 43.2749,4.80944 67.3123,-2.89543 l -17.3138,28.84662 -4.8095,12.51428 c -9.6092,30.7704 -6.7333,57.70306 7.695,85.57799 6.7332,10.58071 14.4283,20.20933 22.1234,28.84666 11.5423,10.58067 25.961,17.31385 43.2748,22.12325 28.8466,7.68524 57.7032,6.73319 85.5879,-7.68523 26.9325,-14.43802 44.2367,-37.51337 52.8936,-66.36981 l 0.9618,-5.77131 c 18.2661,20.20933 35.5798,33.66588 54.8173,38.47528 19.2278,5.77127 38.4657,4.8094 55.7794,-6.73319 16.352,-9.6188 27.8848,-25.97078 33.6562,-46.16047 4.8091,-21.16143 4.8091,-42.31299 0,-66.35021 9.6087,6.73318 19.2278,11.52294 30.7702,14.41842 30.7703,9.6188 57.6932,8.64711 84.6261,-5.77131 25.9706,-14.41839 43.2748,-37.51337 51.9317,-67.3219 7.6951,-28.84663 5.7714,-56.72156 -8.6569,-83.65425 l -4.8095,-7.69506 c -7.6951,-11.54254 -15.3801,-23.08513 -26.9229,-30.77036 -9.6088,-6.73319 -21.1516,-11.54259 -31.7321,-16.35199 29.8184,-14.42824 50.9699,-34.61793 60.5886,-60.58871 6.7333,-21.16143 4.8096,-38.46544 -4.8095,-55.77934 l 0,-1.9238 c -11.5328,-19.2376 -26.9229,-31.7421 -50.96,-38.4654 -14.4282,-2.8856 -30.7802,-2.8856 -45.1985,-1.9238 l -31.7325,6.7332 10.581,-24.0372 c 9.6187,-30.7704 6.7328,-60.5887 -9.6191,-88.4735 l -2.8855,-4.8094 c -14.4283,-24.047 -35.5798,-38.4654 -64.4264,-46.1605 -29.8084,-7.695 -57.6932,-4.8094 -84.6261,9.6188 -26.9229,14.4184 -46.1603,36.5417 -54.8076,65.3982 l 0,1.9237 -0.9619,6.7332 -3.8473,-6.7332 -9.6191,-17.3138 c -15.3997,-24.0078 -34.6376,-38.4361 -58.6746,-45.1692 l 0,0 z m 245.2309,57.7031 c 4.8091,9.6089 7.695,21.1515 7.695,33.656 l -2.8859,21.1516 c -3.8473,10.5807 -8.6568,20.1995 -14.4282,28.8466 l -86.5498,105.79715 c -8.6568,-6.73318 -18.2756,-11.54258 -27.8943,-16.35198 l -9.6091,-108.66317 -0.9619,-38.4655 0.9619,-9.6089 c 4.8095,-19.2279 18.266,-33.6561 35.5798,-43.2749 17.3042,-9.609 36.5416,-11.5426 54.8076,-4.8094 20.1997,4.7996 34.6276,15.3803 43.2849,31.7225 l 0,0 0,0 z m -298.1245,19.2376 c 0.9619,-17.3139 7.6951,-28.8467 19.2279,-35.5798 5.771,-4.8094 14.4279,-4.8094 22.1134,-0.9619 17.3137,4.8094 31.732,17.3139 43.2748,41.3511 4.8092,9.6188 9.6187,19.2278 11.5424,30.7704 l 19.2279,113.48239 -14.4283,4.8094 -85.5879,-93.28289 -4.8092,-9.609 c -7.6755,-17.3237 -12.485,-33.6658 -10.561,-50.9797 l 0,0 0,0 z m -51.9317,112.5107 25.9707,10.5807 84.626,61.55059 c -7.695,9.60898 -12.4946,19.22778 -15.3805,28.84662 l -138.4815,17.31386 -9.6187,-1.92375 c -17.3138,-2.88565 -28.8466,-10.58071 -36.5416,-24.99913 -7.6951,-14.4282 -7.6951,-28.84662 -1.9237,-43.27482 6.7328,-18.27577 19.2275,-32.70397 37.5035,-40.38917 17.3038,-9.6287 34.608,-12.5143 53.8458,-7.7049 l 0,0 0,0 z m 91.3589,156.74741 6.7332,19.23764 2.8855,6.73314 c -14.4279,12.49468 -25.0088,24.03723 -36.5416,34.61794 l -28.8562,24.04704 -7.6951,4.8094 c -18.276,8.64711 -33.6561,11.54258 -50.008,9.60902 -14.4283,-0.96191 -25.9711,-5.77131 -30.7803,-14.41842 l -2.8859,-10.58071 1.9241,-8.64711 c 4.8092,-14.43802 17.3138,-28.84663 39.4371,-39.43716 11.5328,-4.8094 21.1515,-9.6188 28.8466,-11.54258 l 76.9406,-14.4282 0,0 z m 300.0385,-155.78551 c 17.3138,-7.6951 33.6557,-9.6188 50.9699,-7.6951 16.352,1.9238 27.8944,9.609 33.6558,21.1516 l 3.8477,12.49461 -1.9237,9.61884 c -6.7332,17.31386 -21.1615,30.77041 -45.1989,41.35108 -9.6087,4.8094 -20.1897,6.73318 -31.7321,8.64711 l -118.2822,14.42824 -1.9236,-6.73319 -1.9237,-2.87583 3.8473,-4.8094 97.1307,-80.77846 11.5328,-4.7995 0,0 0,0 z m -245.2209,91.35908 c 11.5328,-10.58071 26.9229,-17.30407 45.1985,-17.30407 17.3138,0 33.6562,6.73318 44.2367,17.30407 13.4665,13.46633 19.2375,27.89457 19.2375,45.19861 0,17.30404 -5.771,33.65602 -19.2375,45.1986 -12.5046,12.49468 -26.9229,19.22783 -44.2367,19.22783 -18.2756,0 -33.6657,-6.73315 -45.1985,-19.22783 -12.5046,-11.54258 -19.2278,-27.89456 -19.2278,-45.1986 0,-17.30404 6.7232,-31.73228 19.2278,-45.19861 l 0,0 z m 22.1134,139.44339 c 1.9236,32.70396 4.8095,67.32186 9.6187,104.82545 l 0,38.47524 -0.9618,9.61884 c -6.7333,17.29422 -18.2756,31.72245 -35.5798,39.41747 -17.3042,9.61884 -35.5798,11.54258 -52.8936,6.73318 -19.2279,-4.78976 -33.6562,-16.33234 -41.3512,-31.72245 -4.8096,-9.6188 -8.6569,-21.16139 -8.6569,-32.70397 l 4.8096,-22.10366 c 1.9236,-9.6188 6.7328,-19.24742 14.4278,-26.93266 l 80.7788,-96.17834 c 9.6187,4.79959 19.2278,9.60899 29.8084,10.5709 l 0,0 0,0 z m 74.0551,-12.50446 40.3889,41.35108 24.9993,30.7704 4.8095,9.6188 c 8.6569,16.35199 13.4661,31.7421 11.5424,50.01783 -1.9236,17.31389 -7.695,29.80853 -19.2278,34.61793 -6.7333,4.8094 -14.4283,4.8094 -22.1134,3.83771 -18.2756,-4.78976 -32.7039,-19.22782 -43.2749,-42.31299 l -11.5423,-31.72246 -14.4283,-83.67384 16.3519,-5.77131 12.4947,-6.73315 0,0 0,0 z m 43.2748,-59.62688 108.6731,-9.60898 38.4653,-0.96188 9.6187,0.96188 c 14.4283,4.8094 27.8947,13.46632 35.5798,27.88474 9.6091,10.58072 14.4183,24.9991 14.4183,41.35112 l -2.8755,19.22778 c -4.8096,19.24746 -16.352,33.66588 -32.7043,41.35112 -17.3138,9.6188 -34.6176,11.54258 -53.8554,4.8094 -11.5424,-2.87584 -19.2279,-7.68524 -25.9707,-15.37048 l -100.978,-83.67388 6.7332,-14.41842 2.8955,-11.5524 0,0 0,0 z"
     style="fill:#646464;fill-opacity:1"
     id="path10"
     inkscape:export-filename="D:\studyworkspace\Asia\res\drawable\icq_invisible_16.png"
     inkscape:export-xdpi="2.1111603"
     inkscape:export-ydpi="2.1111603" />
  <g
     id="g3166"
     inkscape:export-filename="D:\studyworkspace\Asia\res\drawable\xmpp_dnd_16.png"
     inkscape:export-xdpi="2.1686757"
     inkscape:export-ydpi="2.1686757"
     transform="translate(697.76339,451.18855)">
    <path
       inkscape:export-ydpi="10.843379"
       inkscape:export-xdpi="10.843379"
       inkscape:export-filename="D:\studyworkspace\Asia\res\drawable\xmpp_online_80.png"
       id="path28"
       style="fill:#00fa00;fill-opacity:1;stroke:none"
       d="M -1503.5296,-465.19821 C -1515.5722,-463.61554 -1527.8123,-463.77965 -1539.9133,-461.9105 C -1563.0941,-458.33073 -1585.2962,-451.12948 -1607.0082,-442.44292 C -1614.9142,-439.28038 -1622.7145,-435.75624 -1630.3757,-432.04853 C -1633.2268,-430.66891 -1637.5751,-429.56467 -1639.8673,-427.35061 C -1641.0604,-426.19629 -1640.938,-423.4927 -1641.083,-421.94897 C -1641.4861,-417.60708 -1642.0285,-413.27076 -1642.4489,-408.93165 C -1644.0704,-392.18714 -1645.2137,-374.9364 -1642.8158,-358.20024 C -1642.0397,-352.79304 -1640.3594,-342.98554 -1633.7136,-341.94805 C -1623.4934,-340.3487 -1615.554,-352.92377 -1610.5384,-359.86912 C -1598.824,-376.09071 -1585.4962,-391.19137 -1566.2849,-398.44269 C -1543.6685,-406.97905 -1517.7751,-408.99006 -1493.8485,-410.63113 C -1426.7199,-415.2317 -1353.3631,-402.97094 -1303.9131,-353.52735 C -1296.8806,-346.49577 -1290.2237,-339.03306 -1284.5626,-330.83047 C -1262.422,-298.77113 -1250.7132,-262.31706 -1245.0744,-224.0272 C -1242.4233,-206.0505 -1240.6123,-187.85962 -1244.7128,-169.95801 C -1251.8287,-138.90001 -1270.4865,-111.8668 -1291.9262,-88.852838 C -1306.6004,-73.101318 -1323.1134,-58.862918 -1340.2996,-45.920688 C -1349.8941,-38.697188 -1360.6543,-32.569588 -1369.6758,-24.672968 C -1380.066,-15.577528 -1388.7092,-4.1957085 -1395.2771,7.9398815 C -1412.9529,40.616712 -1417.6929,79.935712 -1412.4939,116.41204 C -1411.4284,123.88866 -1410.4659,131.40144 -1408.7718,138.77514 C -1408.2655,140.98085 -1408.1765,144.77201 -1406.7494,146.57441 C -1404.0788,149.94556 -1396.7904,151.80081 -1392.7094,151.9983 C -1388.4532,152.20413 -1385.6213,148.93311 -1384.5781,145.11691 C -1382.7922,138.57766 -1383.8604,131.33468 -1384.8953,124.75648 C -1387.015,111.28299 -1388.9567,97.714932 -1388.3559,84.038402 C -1387.2487,58.785342 -1377.4844,35.254022 -1359.9811,16.951882 C -1342.1801,-1.6617785 -1318.1367,-12.395518 -1297.9071,-27.988488 C -1257.1365,-59.413648 -1220.6109,-101.81175 -1206.5849,-152.26502 C -1201.572,-170.30848 -1199.9112,-189.42837 -1202.2007,-208.0031 C -1205.0938,-231.49826 -1213.6869,-254.96561 -1221.7821,-277.09228 C -1246.4542,-344.53761 -1288.7771,-408.67853 -1355.9892,-439.53349 C -1382.6642,-451.77757 -1410.5577,-457.35165 -1439.4416,-461.37367 C -1452.9864,-463.25952 -1466.5284,-464.41661 -1480.1652,-465.01463 C -1487.7399,-465.34563 -1495.9797,-466.18563 -1503.5324,-465.19264" />
    <path
       inkscape:export-ydpi="10.843379"
       inkscape:export-xdpi="10.843379"
       inkscape:export-filename="D:\studyworkspace\Asia\res\drawable\xmpp_online_80.png"
       id="path30"
       style="fill:#00fa00;fill-opacity:1;stroke:none"
       d="M -1608.6804,-28.633798 C -1621.7801,-26.759078 -1625.5884,-16.258988 -1623.1682,-4.4126685 C -1620.0692,10.746402 -1608.1463,22.309012 -1596.3321,31.415582 C -1566.0629,54.746632 -1526.9669,67.357862 -1488.8473,65.688972 C -1473.9728,65.038112 -1457.7686,62.579282 -1444.1181,56.268102 C -1436.7991,52.885822 -1429.1435,40.700162 -1439.1108,35.484882 C -1440.4767,34.770042 -1442.2624,34.327782 -1443.7843,34.077452 C -1448.1376,33.365392 -1453.0117,35.217862 -1457.1369,36.402772 C -1464.4114,38.491662 -1471.6803,40.630622 -1479.169,41.832222 C -1501.5434,45.425892 -1525.737,40.313532 -1544.2613,27.057002 C -1559.2357,16.337172 -1571.3478,2.2016915 -1582.7815,-12.089548 C -1589.7803,-20.837308 -1596.1062,-30.436198 -1608.6857,-28.633798" />
    <path
       inkscape:export-ydpi="10.843379"
       inkscape:export-xdpi="10.843379"
       inkscape:export-filename="D:\studyworkspace\Asia\res\drawable\xmpp_online_80.png"
       id="path32"
       style="fill:#00fa00;fill-opacity:1;stroke:none"
       d="M -1625.7052,45.459272 C -1629.0379,45.898742 -1632.8601,45.773572 -1635.7143,47.868032 C -1641.6674,52.237732 -1635.1106,61.027212 -1631.9783,65.010292 C -1622.8959,76.550652 -1610.9367,86.130072 -1599.0024,94.574642 C -1565.7318,118.10874 -1528.0435,131.68515 -1487.5118,134.46385 C -1475.8589,135.26213 -1463.9888,134.43325 -1452.4636,132.51403 C -1448.2494,131.81031 -1443.0054,131.49323 -1439.1108,129.67414 C -1428.0894,124.52006 -1431.2774,103.70068 -1441.1137,99.072292 C -1445.4089,97.052942 -1452.2995,99.720382 -1456.8033,100.34621 C -1467.455,101.83152 -1478.1373,101.98172 -1488.8501,101.72026 C -1516.9272,101.03324 -1546.8376,92.385622 -1571.3011,78.739682 C -1580.9179,73.371422 -1589.75,66.840502 -1598.0067,59.572502 C -1603.028,55.152732 -1608.1855,47.920882 -1614.6975,45.687352 C -1617.7297,44.647082 -1622.5593,45.042052 -1625.7139,45.456492" />
    <path
       inkscape:export-ydpi="10.843379"
       inkscape:export-xdpi="10.843379"
       inkscape:export-filename="D:\studyworkspace\Asia\res\drawable\xmpp_online_80.png"
       id="path34"
       style="fill:#00fa00;fill-opacity:1;stroke:none"
       d="M -1619.0291,107.87846 C -1623.7746,108.40972 -1627.3521,110.88524 -1630.4733,114.40659 C -1632.6237,116.83204 -1634.6655,119.02385 -1635.9007,122.08348 C -1642.7106,138.92812 -1624.5563,154.82984 -1612.0186,162.78488 C -1598.0652,171.63554 -1582.8207,178.19706 -1567.2897,183.72386 C -1532.2607,196.19045 -1491.1757,204.17052 -1454.7976,193.02513 C -1443.9846,189.71516 -1433.2968,183.66266 -1425.4353,175.48233 C -1421.0069,170.87342 -1417.9663,163.89469 -1426.089,160.94354 C -1430.9016,159.19677 -1436.7463,163.64435 -1441.111,165.40225 C -1451.4149,169.55778 -1462.0972,172.71198 -1473.1578,174.04987 C -1487.7263,175.81611 -1500.8426,172.60906 -1514.8826,169.09605 C -1526.8751,166.09762 -1539.0036,163.09918 -1550.5986,158.77676 C -1560.4908,155.08852 -1570.3163,150.70769 -1578.9731,144.58287 C -1581.5602,142.75266 -1584.6592,141.12271 -1586.779,138.73898 C -1593.7085,130.94249 -1598.9161,121.81924 -1606.3464,114.40381 C -1609.5567,111.19955 -1614.1186,107.32773 -1619.0316,107.87568" />
    <path
       sodipodi:nodetypes="csssssssssssssssssssssssssssssss"
       id="path2384"
       d="M -1428.7402,15.408222 C -1418.7284,7.5305015 -1420.6211,-13.665698 -1413.4961,-24.226498 C -1406.4988,-34.598098 -1392.8938,-45.013988 -1383.0079,-52.682188 C -1372.7164,-60.664968 -1356.7274,-68.091678 -1346.422,-76.056498 C -1332.9368,-86.478948 -1315.6814,-101.59492 -1304.7547,-114.67494 C -1296.4046,-124.67068 -1286.6602,-139.3544 -1281.3804,-151.26083 C -1277.1529,-160.79413 -1273.7615,-174.48181 -1272.2339,-184.7979 C -1270.6256,-195.65946 -1270.1712,-210.45376 -1271.2177,-221.38378 C -1272.2892,-232.57611 -1276.3466,-247.13413 -1279.3479,-257.96967 C -1282.4361,-269.11934 -1286.1737,-284.30756 -1291.5432,-294.55556 C -1297.2031,-305.3579 -1308.1033,-317.72703 -1315.9338,-327.07635 C -1323.9671,-336.66795 -1334.1093,-350.43358 -1344.3894,-357.56459 C -1355.5084,-365.27741 -1373.2662,-370.42298 -1386.0567,-374.84126 C -1398.9216,-379.28526 -1416.2928,-385.0405 -1429.7565,-387.03656 C -1443.3312,-389.04907 -1461.7761,-388.58413 -1475.4889,-388.05283 C -1487.7358,-387.57833 -1504.0467,-385.97947 -1516.1399,-383.98773 C -1528.1806,-382.00464 -1544.7331,-380.03701 -1555.7746,-374.84126 C -1567.5822,-369.28504 -1581.1214,-357.66634 -1590.3279,-348.41812 C -1599.233,-339.4727 -1608.4903,-325.21734 -1615.7348,-314.88106 C -1622.8212,-304.77037 -1634.3888,-292.10583 -1638.0928,-280.32772 C -1643.3095,-263.73966 -1640.3806,-239.78718 -1640.1254,-222.40006 C -1639.8474,-203.46009 -1636.3262,-178.33117 -1636.0603,-159.39103 C -1635.8247,-142.61307 -1639.2058,-120.23859 -1638.0928,-103.49592 C -1637.2517,-90.842788 -1640.671,-70.006238 -1630.9789,-61.828658 C -1626.0855,-57.699888 -1616.0085,-62.459548 -1609.6371,-61.828658 C -1603.449,-61.215908 -1595.0856,-60.072148 -1589.3116,-57.763558 C -1582.9499,-55.219978 -1575.1547,-50.084338 -1570.0024,-45.568258 C -1561.0489,-37.720398 -1552.4022,-24.069488 -1544.5956,-15.080018 C -1538.9343,-8.5609385 -1532.5796,1.6403715 -1525.2863,6.2617415 C -1516.4061,11.888712 -1502.1057,14.617552 -1491.7493,16.424492 C -1480.0204,18.470882 -1464.0114,18.924032 -1452.1146,18.457042 C -1445.0483,18.179672 -1434.2978,19.781122 -1428.7402,15.408222 z"
       style="fill:url(#radialGradient3164);fill-opacity:1;fill-rule:evenodd;stroke:none;stroke-width:1px;stroke-linecap:butt;stroke-linejoin:miter;stroke-opacity:1" />
    <path
       inkscape:export-ydpi="10.843379"
       inkscape:export-xdpi="10.843379"
       inkscape:export-filename="D:\studyworkspace\Asia\res\drawable\xmpp_online_80.png"
       id="path26"
       style="fill:#ffb400;stroke:none"
       d="M -1489.1756,-140.92214 C -1489.1756,-150.60448 -1490.964,-161.1741 -1496.5889,-169.29324 C -1507.8665,-185.56768 -1532.0768,-190.74401 -1548.9292,-180.4887 C -1557.4472,-175.30124 -1562.1847,-166.24474 -1564.8553,-156.94625 C -1570.1575,-138.48279 -1567.7261,-117.41308 -1564.0182,-98.871728 C -1562.8332,-92.941608 -1561.6091,-87.003148 -1559.9456,-81.181518 C -1559.3447,-79.081498 -1559.0665,-76.030218 -1557.7007,-74.283448 C -1555.3169,-71.229378 -1549.497,-70.344868 -1545.9282,-70.945668 C -1535.2209,-72.745288 -1537.872,-90.374308 -1538.2364,-97.870398 C -1539.0904,-115.42988 -1544.2647,-132.47201 -1539.2518,-149.93692 C -1537.1292,-157.32731 -1533.0288,-165.63838 -1525.5651,-168.8482 C -1518.8275,-171.74929 -1512.0287,-168.20012 -1509.3609,-161.61914 C -1505.041,-150.96329 -1506.1203,-138.6608 -1503.4108,-127.57382 C -1502.49,-123.80492 -1501.4774,-120.07217 -1499.7777,-116.55916 C -1499.2854,-115.54392 -1498.6066,-113.43278 -1497.1795,-113.56073 C -1493.7105,-113.87781 -1488.7783,-119.66607 -1486.1776,-121.81338 C -1477.7764,-128.75595 -1469.1444,-136.19085 -1459.4719,-141.32824 C -1454.9208,-143.74535 -1447.4324,-147.65889 -1442.7837,-143.54786 C -1441.5989,-142.49924 -1440.6447,-141.24758 -1439.7963,-139.92081 C -1434.3327,-131.3622 -1439.7573,-124.69499 -1443.3094,-116.55638 C -1447.9078,-106.02291 -1452.62,-95.595148 -1459.2828,-86.182618 C -1465.0106,-78.088508 -1472.8384,-70.992958 -1477.4148,-62.150628 C -1480.3608,-56.456938 -1482.0271,-50.218078 -1480.8087,-43.792858 C -1479.8211,-38.597058 -1475.793,-35.459548 -1470.4936,-36.677838 C -1466.5267,-37.590158 -1463.8394,-40.989128 -1461.5778,-44.126638 C -1457.5469,-49.722978 -1453.8025,-55.530708 -1449.7967,-61.149298 C -1442.0465,-72.016538 -1432.9026,-82.177288 -1426.3847,-93.859498 C -1418.5288,-107.94214 -1414.74,-123.87723 -1414.7486,-139.91803 C -1414.7539,-153.02715 -1419.508,-173.06215 -1434.7778,-175.81025 C -1437.6512,-176.32482 -1440.9368,-176.04389 -1443.791,-175.54601 C -1447.3376,-174.92852 -1450.8983,-173.7742 -1454.1392,-172.20545 C -1462.8213,-168.00541 -1470.3295,-161.73318 -1476.7805,-154.60146 C -1480.8056,-150.15666 -1484.4109,-144.56588 -1489.1873,-140.91658" />
  </g>
  <g
     id="g3487"
     transform="translate(2823.9554,-760.33309)"
     inkscape:export-filename="D:\studyworkspace\Asia\res\drawable\icq_na_80.png"
     inkscape:export-xdpi="10.555802"
     inkscape:export-ydpi="10.555802">
    <rect
       ry="63.011993"
       y="27.999224"
       x="-2133.594"
       height="421.16174"
       width="636.74615"
       id="rect3461"
       style="fill:#ff0000;fill-opacity:1;fill-rule:nonzero;stroke:#000000;stroke-width:8.50925159;stroke-linecap:round;stroke-linejoin:round;stroke-miterlimit:4;stroke-dasharray:none;stroke-opacity:1" />
    <text
       transform="scale(0.9648328,1.036449)"
       id="text3463"
       y="393.81882"
       x="-2202.9229"
       style="font-size:449.27944946px;font-style:normal;font-weight:normal;fill:#ffffff;fill-opacity:1;stroke:none;stroke-width:1px;stroke-linecap:butt;stroke-linejoin:miter;stroke-opacity:1;font-family:Bitstream Vera Sans"
       xml:space="preserve"><tspan
         y="393.81882"
         x="-2202.9229"
         id="tspan3465"
         sodipodi:role="line">NA</tspan></text>
  </g>
  <g
     id="g3315"
     transform="translate(968.75,-1075)"
     inkscape:export-filename="D:\studyworkspace\Asia\res\drawable\icq_dnd_80.png"
     inkscape:export-xdpi="10.555801"
     inkscape:export-ydpi="10.555801">
    <path
       sodipodi:nodetypes="ccccc"
       id="path3492"
       d="M -1120.3319,485.68208 L -1077.215,117.75133 L -502.32317,183.86389 L -548.31447,548.92017 L -1120.3319,485.68208 z"
       style="fill:#ffffff;fill-opacity:1;fill-rule:evenodd;stroke:#000000;stroke-width:10;stroke-linecap:butt;stroke-linejoin:miter;stroke-miterlimit:4;stroke-dasharray:none;stroke-opacity:1" />
    <text
       transform="matrix(0.7445774,9.197571e-2,-0.1634092,1.3228582,0,0)"
       id="text3494"
       y="449.31677"
       x="-1394.1965"
       style="font-size:352.36428833px;font-style:normal;font-weight:normal;fill:#000000;fill-opacity:1;stroke:none;stroke-width:1px;stroke-linecap:butt;stroke-linejoin:miter;stroke-opacity:1;font-family:Bitstream Vera Sans"
       xml:space="preserve"><tspan
         y="449.31677"
         x="-1394.1965"
         id="tspan3496"
         sodipodi:role="line">DND</tspan></text>
  </g>
  <path
     style="fill:#ffffff;fill-opacity:0.88596493;fill-rule:evenodd;stroke:#000000;stroke-width:10;stroke-linecap:butt;stroke-linejoin:miter;stroke-miterlimit:4;stroke-dasharray:none;stroke-opacity:1"
     d="M -2391.9628,-521.18426 L -2348.8459,-889.11501 L -1773.9541,-823.00245 L -1819.9454,-457.94617 L -2391.9628,-521.18426 z"
     id="path2403"
     sodipodi:nodetypes="ccccc"
     inkscape:export-filename="D:\studyworkspace\Asia\res\drawable\icq_away_80.png"
     inkscape:export-xdpi="10.555801"
     inkscape:export-ydpi="10.555801" />
  <g
     id="g3330"
     transform="translate(1.9525374,-6.1999971)">
    <path
       sodipodi:nodetypes="ccccc"
       id="path3332"
       d="M -1120.3319,485.68208 L -1077.215,117.75133 L -502.32317,183.86389 L -548.31447,548.92017 L -1120.3319,485.68208 z"
       style="fill:#ffffff;fill-opacity:1;fill-rule:evenodd;stroke:#000000;stroke-width:10;stroke-linecap:butt;stroke-linejoin:miter;stroke-miterlimit:4;stroke-dasharray:none;stroke-opacity:1" />
    <text
       transform="matrix(0.7445774,9.197571e-2,-0.1634092,1.3228582,0,0)"
       id="text3334"
       y="449.31677"
       x="-1394.1965"
       style="font-size:352.36428833px;font-style:normal;font-weight:normal;fill:#000000;fill-opacity:1;stroke:none;stroke-width:1px;stroke-linecap:butt;stroke-linejoin:miter;stroke-opacity:1;font-family:Bitstream Vera Sans"
       xml:space="preserve"><tspan
         y="449.31677"
         x="-1394.1965"
         id="tspan3336"
         sodipodi:role="line">DND</tspan></text>
  </g>
  <g
     id="g3428"
     transform="translate(-2519.7983,320.74657)"
     inkscape:export-filename="D:\studyworkspace\Asia\res\drawable\icq_angry_80.png"
     inkscape:export-xdpi="40.645409"
     inkscape:export-ydpi="40.645409">
    <path
       inkscape:export-ydpi="41.415047"
       inkscape:export-xdpi="41.415047"
       inkscape:export-filename="D:\studyworkspace\Asia\res\drawable\icq_dinner_80.png"
       id="path3430"
       style="fill:#020202"
       d="M 60.593997,9.6355765 C 55.294184,8.4305146 50.955961,8.9125394 46.379185,11.322663 C 41.317925,14.455824 38.425776,19.276072 37.220714,26.021959 C 36.015652,33.008859 37.220714,39.757205 40.8359,46.503093 L 42.522987,48.910757 L 36.73869,46.982658 C 29.510773,45.295572 22.762433,46.259621 16.016543,49.874807 C 9.0296434,53.489992 4.6914234,58.548793 1.7992734,65.538152 C -0.85186658,72.286499 -0.60839658,78.791374 2.7633234,84.814224 C 4.2093934,87.46536 6.3785034,89.632012 8.3041434,91.078087 C 11.196293,93.970235 14.811483,95.657322 19.147243,96.3779 L 20.834333,96.859924 L 17.219143,99.993085 C 13.844973,102.88523 11.919333,106.49796 10.714273,110.11315 C 9.5092134,114.45137 9.9912334,118.78713 12.401353,122.88434 C 13.606423,124.80998 14.809023,126.49707 16.737123,127.70213 C 18.665223,129.38922 21.075343,130.59428 23.965033,130.83283 C 29.267303,132.0379 34.808131,132.0379 40.830981,130.10734 L 36.492759,137.33525 L 35.287697,140.47087 C 32.880033,148.18081 33.600613,154.92915 37.215796,161.91359 C 38.902882,164.56473 40.830981,166.97731 42.759081,169.14151 C 45.651229,171.79264 49.263955,173.47973 53.602178,174.68479 C 60.83009,176.61043 68.060462,176.37188 75.047362,172.75915 C 81.795708,169.14151 86.131472,163.35967 88.300583,156.1293 L 88.541595,154.68322 C 93.118371,159.74694 97.456594,163.11866 102.27684,164.32372 C 107.09463,165.76979 111.91488,165.52878 116.2531,162.63663 C 120.35031,160.22651 123.24,156.1293 124.68607,151.0705 C 125.89114,145.76822 125.89114,140.46841 124.68607,134.44556 C 127.09374,136.13265 129.50386,137.33279 132.39601,138.05829 C 140.10595,140.46841 146.85184,140.22494 153.60018,136.61221 C 160.10752,132.99949 164.44328,127.21273 166.61239,119.7438 C 168.54049,112.51589 168.05847,105.53145 164.44328,98.783105 L 163.23822,96.855006 C 161.31012,93.962857 159.38448,91.070709 156.49233,89.145069 C 154.08467,87.457982 151.19252,86.25292 148.54138,85.047858 C 156.01277,81.432673 161.31258,76.373872 163.7227,69.866538 C 165.40979,64.564265 164.92776,60.228502 162.51764,55.890279 L 162.51764,55.408254 C 159.62795,50.588007 155.77175,47.454846 149.7489,45.770218 C 146.13372,45.047181 142.03651,45.047181 138.42378,45.288194 L 130.47283,46.97528 L 133.12397,40.95243 C 135.53409,33.242493 134.81105,25.771109 130.71384,18.78421 L 129.99081,17.579148 C 126.37562,11.553838 121.07581,7.941112 113.8479,6.0130129 C 106.37897,4.0849139 99.392071,4.807951 92.643725,8.4231367 C 85.897837,12.035863 81.07759,17.579148 78.910938,24.809519 L 78.910938,25.291544 L 78.669925,26.978631 L 77.705876,25.291544 L 75.295752,20.953321 C 71.437094,14.937849 66.616847,11.322663 60.593997,9.6355765 L 60.593997,9.6355765 z M 122.03986,24.09386 C 123.24492,26.501525 123.96796,29.393673 123.96796,32.526834 L 123.24492,37.826647 C 122.28087,40.477783 121.07581,42.887907 119.62973,45.054559 L 97.943538,71.563462 C 95.774426,69.876375 93.364302,68.671313 90.954179,67.466251 L 88.546514,40.23923 L 88.305502,30.601194 L 88.546514,28.19353 C 89.751576,23.375742 93.12329,19.760556 97.461513,17.350432 C 101.79728,14.942768 106.61752,14.458283 111.1943,16.14537 C 116.25556,17.347973 119.87075,19.999109 122.03986,24.09386 L 122.03986,24.09386 L 122.03986,24.09386 z M 47.340775,28.914108 C 47.581787,24.575885 49.268874,21.686196 52.158563,19.999109 C 53.604638,18.794047 55.773749,18.794047 57.699389,19.758097 C 62.037612,20.963158 65.650338,24.096319 68.542487,30.11917 C 69.747548,32.529293 70.95261,34.936958 71.434635,37.829106 L 76.252423,66.263649 L 72.637238,67.468711 L 51.192054,44.095428 L 49.986993,41.687764 C 48.063812,37.347082 46.85875,33.25233 47.340775,28.914108 L 47.340775,28.914108 L 47.340775,28.914108 z M 34.328566,57.105178 L 40.8359,59.756314 L 62.040071,75.178647 C 60.111972,77.586312 58.909369,79.996436 58.186332,82.406559 L 23.487923,86.744782 L 21.077803,86.262758 C 16.739583,85.53972 13.849893,83.611621 11.921793,79.998895 C 9.9936934,76.383709 9.9936934,72.770983 11.439763,69.155797 C 13.126853,64.576562 16.257553,60.961376 20.836793,59.035737 C 25.172553,56.623153 29.508323,55.900116 34.328566,57.105178 L 34.328566,57.105178 L 34.328566,57.105178 z M 57.219823,96.380359 L 58.90691,101.20061 L 59.629947,102.88769 C 56.014761,106.0184 53.363625,108.91054 50.473936,111.56168 L 43.243565,117.58699 L 41.315466,118.79205 C 36.73623,120.9587 32.882493,121.6842 28.785283,121.19972 C 25.170093,120.9587 22.277943,119.75364 21.072883,117.58699 L 20.349843,114.93585 L 20.831873,112.7692 C 22.036933,109.15156 25.170093,105.54129 30.713383,102.88769 C 33.603073,101.68263 36.013193,100.47757 37.941292,99.995545 L 57.219823,96.380359 L 57.219823,96.380359 L 57.219823,96.380359 z M 132.39847,57.346191 C 136.73669,55.418092 140.83145,54.936067 145.16967,55.418092 C 149.26688,55.900116 152.15903,57.825756 153.60264,60.717905 L 154.56669,63.848606 L 154.08467,66.25873 C 152.39758,70.596953 148.78239,73.968667 142.75954,76.619803 C 140.35188,77.824865 137.70074,78.30689 134.80859,78.786455 L 105.17145,82.401641 L 104.68943,80.714554 L 104.2074,79.993976 L 105.17145,78.788914 L 129.50878,58.548793 L 132.39847,57.346191 L 132.39847,57.346191 L 132.39847,57.346191 z M 70.95507,80.237448 C 73.844759,77.586312 77.700957,75.901684 82.280192,75.901684 C 86.618415,75.901684 90.713166,77.588771 93.364302,80.237448 C 96.738476,83.611621 98.18455,87.226807 98.18455,91.562571 C 98.18455,95.898334 96.738476,99.995545 93.364302,102.88769 C 90.231141,106.0184 86.618415,107.70548 82.280192,107.70548 C 77.700957,107.70548 73.844759,106.0184 70.95507,102.88769 C 67.821909,99.995545 66.137281,95.898334 66.137281,91.562571 C 66.137281,87.226807 67.821909,83.611621 70.95507,80.237448 L 70.95507,80.237448 z M 76.495895,115.17687 C 76.97792,123.37129 77.700957,132.04527 78.906019,141.4423 L 78.906019,151.08279 L 78.665007,153.49292 C 76.97792,157.82622 74.085771,161.44141 69.750008,163.3695 C 65.414244,165.77963 60.835009,166.26165 56.496786,165.05659 C 51.678998,163.85645 48.063812,160.9643 46.135713,157.1081 C 44.930651,154.69798 43.966602,151.80583 43.966602,148.91368 L 45.171664,143.37531 C 45.653688,140.96519 46.85875,138.55261 48.786849,136.62697 L 69.026971,112.52819 C 71.437094,113.73079 73.844759,114.93585 76.495895,115.17687 L 76.495895,115.17687 L 76.495895,115.17687 z M 95.051389,112.04371 L 105.17145,122.40478 L 111.43531,130.11472 L 112.64037,132.52484 C 114.80949,136.62205 116.01455,140.47825 115.53252,145.05748 C 115.0505,149.39571 113.60442,152.52641 110.71473,153.73147 C 109.02765,154.93653 107.09955,154.93653 105.17391,154.69306 C 100.59467,153.49292 96.979488,149.87527 94.330811,144.09097 L 91.438663,136.14248 L 87.823477,115.17687 L 91.920687,113.73079 L 95.051389,112.04371 L 95.051389,112.04371 L 95.051389,112.04371 z M 105.89449,97.103396 L 133.12397,94.695732 L 142.762,94.454719 L 145.17213,94.695732 C 148.78731,95.900793 152.16149,98.069905 154.08713,101.68263 C 156.49479,104.33377 157.69985,107.94649 157.69985,112.04371 L 156.97927,116.86149 C 155.77421,121.6842 152.88206,125.29693 148.78485,127.22257 C 144.44663,129.63269 140.11087,130.11472 135.29062,128.42763 C 132.39847,127.70705 130.47283,126.50199 128.78329,124.57635 L 103.4819,103.61073 L 105.16899,99.998004 L 105.89449,97.103396 L 105.89449,97.103396 L 105.89449,97.103396 z" />
    <path
       inkscape:export-ydpi="41.415047"
       inkscape:export-xdpi="41.415047"
       inkscape:export-filename="D:\studyworkspace\Asia\res\drawable\icq_dinner_80.png"
       id="path3432"
       style="fill:#48f600"
       d="M 122.03986,24.09386 C 123.24492,26.501525 123.96796,29.393673 123.96796,32.526834 L 123.24492,37.826647 C 122.28087,40.477783 121.07581,42.887907 119.62973,45.054559 L 97.943538,71.563462 C 95.774426,69.876375 93.364302,68.671313 90.954179,67.466251 L 88.546514,40.23923 L 88.305502,30.601194 L 88.546514,28.19353 C 89.751576,23.375742 93.12329,19.760556 97.461513,17.350432 C 101.79728,14.942768 106.61752,14.458283 111.1943,16.14537 C 116.25556,17.347973 119.87075,19.999109 122.03986,24.09386 L 122.03986,24.09386 L 122.03986,24.09386 z M 47.340775,28.914108 C 47.581787,24.575885 49.268874,21.686196 52.158563,19.999109 C 53.604638,18.794047 55.773749,18.794047 57.699389,19.758097 C 62.037612,20.963158 65.650338,24.096319 68.542487,30.11917 C 69.747548,32.529293 70.95261,34.936958 71.434635,37.829106 L 76.252423,66.263649 L 72.637238,67.468711 L 51.192054,44.095428 L 49.986993,41.687764 C 48.063812,37.347082 46.85875,33.25233 47.340775,28.914108 L 47.340775,28.914108 L 47.340775,28.914108 z M 34.328566,57.105178 L 40.8359,59.756314 L 62.040071,75.178647 C 60.111972,77.586312 58.909369,79.996436 58.186332,82.406559 L 23.487923,86.744782 L 21.077803,86.262758 C 16.739583,85.53972 13.849893,83.611621 11.921793,79.998895 C 9.9936934,76.383709 9.9936934,72.770983 11.439763,69.155797 C 13.126853,64.576562 16.257553,60.961376 20.836793,59.035737 C 25.172553,56.623153 29.508323,55.900116 34.328566,57.105178 L 34.328566,57.105178 L 34.328566,57.105178 z M 132.39847,57.346191 C 136.73669,55.418092 140.83145,54.936067 145.16967,55.418092 C 149.26688,55.900116 152.15903,57.825756 153.60264,60.717905 L 154.56669,63.848606 L 154.08467,66.25873 C 152.39758,70.596953 148.78239,73.968667 142.75954,76.619803 C 140.35188,77.824865 137.70074,78.30689 134.80859,78.786455 L 105.17145,82.401641 L 104.68943,80.714554 L 104.2074,79.993976 L 105.17145,78.788914 L 129.50878,58.548793 L 132.39847,57.346191 L 132.39847,57.346191 L 132.39847,57.346191 z M 76.495895,115.17687 C 76.97792,123.37129 77.700957,132.04527 78.906019,141.4423 L 78.906019,151.08279 L 78.665007,153.49292 C 76.97792,157.82622 74.085771,161.44141 69.750008,163.3695 C 65.414244,165.77963 60.835009,166.26165 56.496786,165.05659 C 51.678998,163.85645 48.063812,160.9643 46.135713,157.1081 C 44.930651,154.69798 43.966602,151.80583 43.966602,148.91368 L 45.171664,143.37531 C 45.653688,140.96519 46.85875,138.55261 48.786849,136.62697 L 69.026971,112.52819 C 71.437094,113.73079 73.844759,114.93585 76.495895,115.17687 L 76.495895,115.17687 L 76.495895,115.17687 z M 95.051389,112.04371 L 105.17145,122.40478 L 111.43531,130.11472 L 112.64037,132.52484 C 114.80949,136.62205 116.01455,140.47825 115.53252,145.05748 C 115.0505,149.39571 113.60442,152.52641 110.71473,153.73147 C 109.02765,154.93653 107.09955,154.93653 105.17391,154.69306 C 100.59467,153.49292 96.979488,149.87527 94.330811,144.09097 L 91.438663,136.14248 L 87.823477,115.17687 L 91.920687,113.73079 L 95.051389,112.04371 L 95.051389,112.04371 L 95.051389,112.04371 z M 105.89449,97.103396 L 133.12397,94.695732 L 142.762,94.454719 L 145.17213,94.695732 C 148.78731,95.900793 152.16149,98.069905 154.08713,101.68263 C 156.49479,104.33377 157.69985,107.94649 157.69985,112.04371 L 156.97927,116.86149 C 155.77421,121.6842 152.88206,125.29693 148.78485,127.22257 C 144.44663,129.63269 140.11087,130.11472 135.29062,128.42763 C 132.39847,127.70705 130.47283,126.50199 128.78329,124.57635 L 103.4819,103.61073 L 105.16899,99.998004 L 105.89449,97.103396 L 105.89449,97.103396 L 105.89449,97.103396 z" />
    <path
       inkscape:export-ydpi="41.415047"
       inkscape:export-xdpi="41.415047"
       inkscape:export-filename="D:\studyworkspace\Asia\res\drawable\icq_dinner_80.png"
       id="path3434"
       style="fill:#ff001c"
       d="M 57.219823,96.380359 L 58.90691,101.20061 L 59.629947,102.88769 C 56.014761,106.0184 53.363625,108.91054 50.473936,111.56168 L 43.243565,117.58699 L 41.315466,118.79205 C 36.73623,120.9587 32.882493,121.6842 28.785283,121.19972 C 25.170093,120.9587 22.277943,119.75364 21.072883,117.58699 L 20.349843,114.93585 L 20.831873,112.7692 C 22.036933,109.15156 25.170093,105.54129 30.713383,102.88769 C 33.603073,101.68263 36.013193,100.47757 37.941292,99.995545 L 57.219823,96.380359 L 57.219823,96.380359 L 57.219823,96.380359 z" />
    <path
       inkscape:export-ydpi="41.415047"
       inkscape:export-xdpi="41.415047"
       inkscape:export-filename="D:\studyworkspace\Asia\res\drawable\icq_dinner_80.png"
       id="path3436"
       style="fill:#fdfb12"
       d="M 70.95507,80.237448 C 73.844759,77.586312 77.700957,75.901684 82.280192,75.901684 C 86.618415,75.901684 90.713166,77.588771 93.364302,80.237448 C 96.738476,83.611621 98.18455,87.226807 98.18455,91.562571 C 98.18455,95.898334 96.738476,99.995545 93.364302,102.88769 C 90.231141,106.0184 86.618415,107.70548 82.280192,107.70548 C 77.700957,107.70548 73.844759,106.0184 70.95507,102.88769 C 67.821909,99.995545 66.137281,95.898334 66.137281,91.562571 C 66.137281,87.226807 67.821909,83.611621 70.95507,80.237448 L 70.95507,80.237448 L 70.95507,80.237448 z" />
    <g
       transform="translate(277.83705,105.72186)"
       id="g3787">
      <path
         sodipodi:type="star"
         style="fill:#ff0002;fill-opacity:0.99122805;fill-rule:nonzero;stroke:#000000;stroke-width:3;stroke-linejoin:round;stroke-miterlimit:4;stroke-dasharray:none;stroke-opacity:1"
         id="path2386"
         sodipodi:sides="8"
         sodipodi:cx="-233.43387"
         sodipodi:cy="-235.20139"
         sodipodi:r1="24.303398"
         sodipodi:r2="110.46999"
         sodipodi:arg1="1.1276938"
         sodipodi:arg2="1.5203929"
         inkscape:flatsided="false"
         inkscape:rounded="0"
         inkscape:randomized="0"
         d="m -223.01392,-213.24507 -4.85424,88.37338 -13.72315,-87.43622 -65.92189,59.05695 52.12301,-71.53048 -88.37338,-4.85424 87.43623,-13.72315 -59.05696,-65.92188 71.53049,52.12301 4.85423,-88.37338 13.72316,87.43622 65.92188,-59.05695 -52.12301,71.53048 88.37338,4.85424 -87.43622,13.72315 59.05695,65.92188 z"
         transform="matrix(0.818668,0,0,0.7918374,-1.30895,171.28354)" />
      <path
         sodipodi:type="arc"
         style="fill:#ff0600;fill-opacity:1;fill-rule:nonzero;stroke:#000000;stroke-width:2.26023126;stroke-miterlimit:4;stroke-dasharray:none;stroke-opacity:1"
         id="path2396"
         sodipodi:cx="94.303902"
         sodipodi:cy="108.18323"
         sodipodi:rx="63.856003"
         sodipodi:ry="62.587341"
         d="m 158.1599,108.18323 c 0,34.56603 -28.5893,62.58734 -63.855998,62.58734 -35.266697,0 -63.856003,-28.02131 -63.856003,-62.58734 0,-34.566037 28.589306,-62.587344 63.856003,-62.587344 35.266698,0 63.855998,28.021307 63.855998,62.587344 z"
         transform="matrix(0.8893762,0,0,0.8803771,-276.28542,-111.4684)" />
      <path
         sodipodi:type="arc"
         style="fill:#000000;fill-opacity:1;fill-rule:nonzero;stroke:#000000;stroke-width:2.1730001;stroke-miterlimit:4;stroke-dasharray:none;stroke-opacity:1"
         id="path3198"
         sodipodi:cx="81.617279"
         sodipodi:cy="94.227936"
         sodipodi:rx="3.8059869"
         sodipodi:ry="3.8059869"
         d="m 85.423266,94.227936 c 0,2.101988 -1.703998,3.805987 -3.805987,3.805987 -2.101988,0 -3.805987,-1.703999 -3.805987,-3.805987 0,-2.101989 1.703999,-3.805987 3.805987,-3.805987 2.101989,0 3.805987,1.703998 3.805987,3.805987 z"
         transform="translate(-281.22014,-124.40958)" />
      <path
         sodipodi:type="arc"
         style="fill:#000000;fill-opacity:1;fill-rule:nonzero;stroke:#000000;stroke-width:2.1730001;stroke-miterlimit:4;stroke-dasharray:none;stroke-opacity:1"
         id="path3200"
         sodipodi:cx="81.617279"
         sodipodi:cy="94.227936"
         sodipodi:rx="3.8059869"
         sodipodi:ry="3.8059869"
         d="m 85.423266,94.227936 c 0,2.101988 -1.703998,3.805987 -3.805987,3.805987 -2.101988,0 -3.805987,-1.703999 -3.805987,-3.805987 0,-2.101989 1.703999,-3.805987 3.805987,-3.805987 2.101989,0 3.805987,1.703998 3.805987,3.805987 z"
         transform="translate(-266.41908,-124.83247)" />
      <g
         id="g3775"
         transform="translate(-162.38878,88.383476)">
        <path
           sodipodi:open="true"
           transform="translate(320.1258,73.958361)"
           sodipodi:end="5.8939769"
           sodipodi:start="3.5360371"
           d="m -387.53313,-146.58018 c 8.88563,-15.95586 33.39349,-23.50641 54.73984,-16.86462 10.27426,3.19677 18.42294,9.31968 22.64585,17.01606"
           sodipodi:ry="31.293671"
           sodipodi:rx="41.865856"
           sodipodi:cy="-134.55417"
           sodipodi:cx="-348.88214"
           id="path3158"
           style="fill:#ffffff;fill-opacity:0.99122805;fill-rule:nonzero;stroke:#000000;stroke-width:4;stroke-linecap:round;stroke-linejoin:round;stroke-miterlimit:4;stroke-dasharray:none;stroke-opacity:1"
           sodipodi:type="arc" />
        <path
           id="path3755"
           d="M -68.084879,-72.389718 L 9.3035239,-72.389718"
           style="fill:none;fill-rule:evenodd;stroke:#000000;stroke-width:3;stroke-linecap:butt;stroke-linejoin:miter;stroke-miterlimit:4;stroke-dasharray:none;stroke-opacity:1" />
        <path
           sodipodi:nodetypes="cc"
           id="path3757"
           d="M -55.398256,-72.812605 L -55.372603,-84.653454"
           style="fill:none;fill-rule:evenodd;stroke:#000000;stroke-width:1px;stroke-linecap:butt;stroke-linejoin:miter;stroke-opacity:1" />
        <path
           id="path3761"
           d="M -47.363394,-73.235492 L -47.69474,-88.249519"
           style="fill:none;fill-rule:evenodd;stroke:#000000;stroke-width:1px;stroke-linecap:butt;stroke-linejoin:miter;stroke-opacity:1" />
        <path
           id="path3763"
           d="M -39.546265,-72.924406 L -39.471509,-90.417461"
           style="fill:none;fill-rule:evenodd;stroke:#000000;stroke-width:1px;stroke-linecap:butt;stroke-linejoin:miter;stroke-opacity:1" />
        <path
           id="path3765"
           d="M -31.173521,-73.07392 L -31.173521,-90.940758"
           style="fill:none;fill-rule:evenodd;stroke:#000000;stroke-width:1px;stroke-linecap:butt;stroke-linejoin:miter;stroke-opacity:1" />
        <path
           id="path3767"
           d="M -23.17456,-72.924406 L -23.17456,-90.641731"
           style="fill:none;fill-rule:evenodd;stroke:#000000;stroke-width:1px;stroke-linecap:butt;stroke-linejoin:miter;stroke-opacity:1" />
        <path
           id="path3769"
           d="M -15.399869,-73.148676 L -15.399869,-89.669895"
           style="fill:none;fill-rule:evenodd;stroke:#000000;stroke-width:1px;stroke-linecap:butt;stroke-linejoin:miter;stroke-opacity:1" />
        <path
           id="path3771"
           d="M -7.6251778,-73.522459 L -7.6251778,-86.829142"
           style="fill:none;fill-rule:evenodd;stroke:#000000;stroke-width:1px;stroke-linecap:butt;stroke-linejoin:miter;stroke-opacity:1" />
        <path
           id="path3773"
           d="M -0.29902658,-73.223433 L -0.29902658,-83.09131"
           style="fill:none;fill-rule:evenodd;stroke:#000000;stroke-width:1px;stroke-linecap:butt;stroke-linejoin:miter;stroke-opacity:1" />
      </g>
    </g>
  </g>
</svg>
