<?xml version="1.0" encoding="UTF-8" standalone="no"?>
<svg
   xmlns:dc="http://purl.org/dc/elements/1.1/"
   xmlns:cc="http://creativecommons.org/ns#"
   xmlns:rdf="http://www.w3.org/1999/02/22-rdf-syntax-ns#"
   xmlns:svg="http://www.w3.org/2000/svg"
   xmlns="http://www.w3.org/2000/svg"
   xmlns:sodipodi="http://sodipodi.sourceforge.net/DTD/sodipodi-0.dtd"
   xmlns:inkscape="http://www.inkscape.org/namespaces/inkscape"
   version="1.1"
   width="460.10153"
   height="192.76071"
   id="svg2"
   sodipodi:version="0.32"
   inkscape:version="0.48.1 "
   sodipodi:docname="icq_eat.svg"
   inkscape:output_extension="org.inkscape.output.svg.inkscape">
  <metadata
     id="metadata21">
    <rdf:RDF>
      <cc:Work
         rdf:about="">
        <dc:format>image/svg+xml</dc:format>
        <dc:type
           rdf:resource="http://purl.org/dc/dcmitype/StillImage" />
        <dc:title></dc:title>
      </cc:Work>
    </rdf:RDF>
  </metadata>
  <defs
     id="defs19">
    <inkscape:perspective
       sodipodi:type="inkscape:persp3d"
       inkscape:vp_x="0 : 96.380356 : 1"
       inkscape:vp_y="0 : 1000 : 0"
       inkscape:vp_z="460.10153 : 96.380356 : 1"
       inkscape:persp3d-origin="230.05077 : 64.253571 : 1"
       id="perspective23" />
  </defs>
  <sodipodi:namedview
     inkscape:window-height="1058"
     inkscape:window-width="1920"
     inkscape:pageshadow="2"
     inkscape:pageopacity="0.0"
     guidetolerance="10.0"
     gridtolerance="10.0"
     objecttolerance="10.0"
     borderopacity="1.0"
     bordercolor="#666666"
     pagecolor="#ffffff"
     id="base"
     showgrid="false"
     inkscape:zoom="1.6720922"
     inkscape:cx="-201.06712"
     inkscape:cy="125.49992"
     inkscape:window-x="0"
     inkscape:window-y="14"
     inkscape:current-layer="svg2"
     inkscape:window-maximized="0" />
  <path
     d="M 52.819306,10.23363 C 47.519493,9.0285678 43.18127,9.5105926 38.604494,11.920716 c -5.06126,3.133161 -7.953409,7.953409 -9.158471,14.699296 -1.205062,6.9869 0,13.735246 3.615186,20.481134 l 1.687087,2.407664 -5.784297,-1.928099 C 21.736082,45.893625 14.987742,46.857674 8.2418519,50.47286 1.2549523,54.088045 -3.0832677,59.146846 -5.9754177,66.136205 c -2.65114,6.748347 -2.40767,13.253222 0.96405,19.276072 1.44607,2.651136 3.61518,4.817788 5.54081999,6.263863 2.89214961,2.892148 6.50733961,4.579235 10.84309971,5.299813 l 1.68709,0.482024 -3.6151901,3.133163 c -3.37417,2.89214 -5.29981,6.50487 -6.50487,10.12006 -1.2050596,4.33822 -0.7230396,8.67398 1.68708,12.77119 1.20507,1.92564 2.40767,3.61273 4.33577,4.81779 1.9281001,1.68709 4.3382201,2.89215 7.2279101,3.1307 5.30227,1.20507 10.843098,1.20507 16.865948,-0.72549 l -4.338222,7.22791 -1.205062,3.13562 c -2.407664,7.70994 -1.687084,14.45828 1.928099,21.44272 1.687086,2.65114 3.615185,5.06372 5.543285,7.22792 2.892148,2.65113 6.504874,4.33822 10.843097,5.54328 7.227912,1.92564 14.458284,1.68709 21.445184,-1.92564 6.748346,-3.61764 11.08411,-9.39948 13.253221,-16.62985 l 0.241012,-1.44608 c 4.576776,5.06372 8.914999,8.43544 13.735245,9.6405 4.81779,1.44607 9.638041,1.20506 13.976261,-1.68709 4.09721,-2.41012 6.9869,-6.50733 8.43297,-11.56613 1.20507,-5.30228 1.20507,-10.60209 0,-16.62494 2.40767,1.68709 4.81779,2.88723 7.70994,3.61273 7.70994,2.41012 14.45583,2.16665 21.20417,-1.44608 6.50734,-3.61272 10.8431,-9.39948 13.01221,-16.86841 1.9281,-7.22791 1.44608,-14.21235 -2.16911,-20.960692 l -1.20506,-1.928099 c -1.9281,-2.892149 -3.85374,-5.784297 -6.74589,-7.709937 -2.40766,-1.687087 -5.29981,-2.892149 -7.95095,-4.097211 7.47139,-3.615185 12.7712,-8.673986 15.18132,-15.18132 1.68709,-5.302273 1.20506,-9.638036 -1.20506,-13.976259 l 0,-0.482025 c -2.88969,-4.820247 -6.74589,-7.953408 -12.76874,-9.638036 -3.61518,-0.723037 -7.71239,-0.723037 -11.32512,-0.482024 l -7.95095,1.687086 2.65114,-6.02285 c 2.41012,-7.709937 1.68708,-15.181321 -2.41013,-22.16822 l -0.72303,-1.205062 C 118.60093,12.151891 113.30112,8.5391652 106.07321,6.6110661 98.604279,4.6829671 91.61738,5.4060042 84.869034,9.0211899 78.123146,12.633916 73.302899,18.177201 71.136247,25.407572 l 0,0.482025 -0.241013,1.687087 -0.964049,-1.687087 -2.410124,-4.338223 C 63.662403,15.535902 58.842156,11.920716 52.819306,10.23363 l 0,0 z m 61.445864,14.458283 c 1.20506,2.407665 1.9281,5.299813 1.9281,8.432974 l -0.72304,5.299813 c -0.96405,2.651136 -2.16911,5.06126 -3.61519,7.227912 L 90.168847,72.161515 c -2.169112,-1.687087 -4.579236,-2.892149 -6.989359,-4.097211 l -2.407665,-27.227021 -0.241012,-9.638036 0.241012,-2.407664 c 1.205062,-4.817788 4.576776,-8.432974 8.914999,-10.843098 4.335767,-2.407664 9.156007,-2.892149 13.732788,-1.205062 5.06126,1.202603 8.67645,3.853739 10.84556,7.94849 l 0,0 z m -74.699086,4.820248 c 0.241012,-4.338223 1.928099,-7.227912 4.817788,-8.914999 1.446075,-1.205062 3.615186,-1.205062 5.540826,-0.241012 4.338223,1.205061 7.950949,4.338222 10.843098,10.361073 1.205061,2.410123 2.410123,4.817788 2.892148,7.709936 L 68.477732,66.861702 64.862547,68.066764 43.417363,44.693481 42.212302,42.285817 C 40.289121,37.945135 39.084059,33.850383 39.566084,29.512161 l 0,0 z M 26.553875,57.703231 33.061209,60.354367 54.26538,75.7767 c -1.928099,2.407665 -3.130702,4.817789 -3.853739,7.227912 l -34.698409,4.338223 -2.41012,-0.482024 C 8.9648919,86.137773 6.0752019,84.209674 4.1471019,80.596948 2.2190023,76.981762 2.2190023,73.369036 3.6650719,69.75385 c 1.68709,-4.579235 4.81779,-8.194421 9.3970301,-10.12006 4.33576,-2.412584 8.67153,-3.135621 13.491773,-1.930559 l 0,0 z m 22.891257,39.275181 1.687087,4.820248 0.723037,1.68708 c -3.615186,3.13071 -6.266322,6.02285 -9.156011,8.67399 l -7.230371,6.02531 -1.928099,1.20506 c -4.579236,2.16665 -8.432973,2.89215 -12.530183,2.40767 -3.61519,-0.24102 -6.50734,-1.44608 -7.7124,-3.61273 l -0.72304,-2.65114 0.48203,-2.16665 c 1.20506,-3.61764 4.33822,-7.22791 9.88151,-9.88151 2.88969,-1.20506 5.29981,-2.41012 7.227909,-2.89214 l 19.278531,-3.615188 0,0 z M 124.62378,57.944244 c 4.33822,-1.928099 8.43298,-2.410124 12.7712,-1.928099 4.09721,0.482024 6.98936,2.407664 8.43297,5.299813 l 0.96405,3.130701 -0.48202,2.410124 c -1.68709,4.338223 -5.30228,7.709937 -11.32513,10.361073 -2.40766,1.205062 -5.0588,1.687087 -7.95095,2.166652 l -29.637141,3.615186 -0.48202,-1.687087 -0.48203,-0.720578 0.96405,-1.205062 24.337331,-20.240121 2.88969,-1.202602 0,0 z M 63.180379,80.835501 c 2.889689,-2.651136 6.745887,-4.335764 11.325122,-4.335764 4.338223,0 8.432974,1.687087 11.08411,4.335764 3.374174,3.374173 4.820248,6.989359 4.820248,11.325123 0,4.335763 -1.446074,8.432976 -4.820248,11.325116 -3.133161,3.13071 -6.745887,4.81779 -11.08411,4.81779 -4.579235,0 -8.435433,-1.68708 -11.325122,-4.81779 -3.133161,-2.89214 -4.817789,-6.989353 -4.817789,-11.325116 0,-4.335764 1.684628,-7.95095 4.817789,-11.325123 l 0,0 z m 5.540825,34.939419 c 0.482025,8.19442 1.205062,16.8684 2.410124,26.26543 l 0,9.64049 -0.241012,2.41013 c -1.687087,4.3333 -4.579236,7.94849 -8.914999,9.87658 -4.335764,2.41013 -8.914999,2.89215 -13.253222,1.68709 -4.817788,-1.20014 -8.432974,-4.09229 -10.361073,-7.94849 -1.205062,-2.41012 -2.169111,-5.30227 -2.169111,-8.19442 l 1.205062,-5.53837 c 0.482024,-2.41012 1.687086,-4.8227 3.615185,-6.74834 L 61.25228,113.12624 c 2.410123,1.2026 4.817788,2.40766 7.468924,2.64868 l 0,0 z m 18.555494,-3.13316 10.120061,10.36107 6.263861,7.70994 1.20506,2.41012 c 2.16912,4.09721 3.37418,7.95341 2.89215,12.53264 -0.48202,4.33823 -1.9281,7.46893 -4.81779,8.67399 -1.68708,1.20506 -3.615181,1.20506 -5.540821,0.96159 -4.57924,-1.20014 -8.194422,-4.81779 -10.843099,-10.60209 l -2.892148,-7.94849 -3.615186,-20.96561 4.09721,-1.44608 3.130702,-1.68708 0,0 z m 10.843101,-14.940311 27.229481,-2.407664 9.63803,-0.241013 2.41013,0.241013 c 3.61518,1.205061 6.98936,3.374173 8.915,6.986895 2.40766,2.65114 3.61272,6.26386 3.61272,10.36108 l -0.72058,4.81778 c -1.20506,4.82271 -4.09721,8.43544 -8.19442,10.36108 -4.33822,2.41012 -8.67398,2.89215 -13.49423,1.20506 -2.89215,-0.72058 -4.81779,-1.92564 -6.50733,-3.85128 l -25.301391,-20.96562 1.68709,-3.61272 0.7255,-2.894611 0,0 z"
     style="fill:#8bc800;fill-opacity:1"
     id="path10"
     inkscape:export-filename="D:\studyworkspace\Asia\res\icq_dinner_96.png"
     inkscape:export-xdpi="50.164417"
     inkscape:export-ydpi="50.164417"
     inkscape:connector-curvature="0" />
  <path
     d="m 45.856813,95.184253 1.687087,4.820247 0.723037,1.68708 c -3.615186,3.13071 -6.266322,6.02285 -9.156011,8.67399 l -7.230371,6.02531 -1.928099,1.20506 c -4.579236,2.16665 -8.432973,2.89215 -12.530183,2.40767 -3.61519,-0.24102 -6.50734,-1.44608 -7.7124,-3.61273 l -0.72304,-2.65114 0.48203,-2.16665 c 1.20506,-3.61764 4.33822,-7.22791 9.88151,-9.88151 2.88969,-1.20506 5.29981,-2.410119 7.227909,-2.892139 l 19.278531,-3.615188 0,0 z"
     style="fill:#ff001c;fill-opacity:0.19736843"
     id="path14"
     inkscape:export-filename="D:\studyworkspace\Asia\res\icq_dinner_96.png"
     inkscape:export-xdpi="50.164417"
     inkscape:export-ydpi="50.164417"
     inkscape:connector-curvature="0" />
  <g
     id="g3361"
     style="fill:#ffffff;fill-opacity:0.99122805"
     transform="matrix(0.6173823,0,0,0.7067823,260.30469,55.321008)"
     inkscape:export-filename="D:\studyworkspace\Asia\res\icq_dinner_96.png"
     inkscape:export-xdpi="50.164417"
     inkscape:export-ydpi="50.164417">
    <path
       inkscape:connector-curvature="0"
       sodipodi:nodetypes="cccccsscccccc"
       id="rect3352"
       d="m -398.77851,-58.016637 -1e-5,26.647002 -20.72148,39.7514198 0,129.3369652 -0.25,0 c -6e-5,0.01 -10e-6,0.0217 0,0.0312 0,8.56869 25.31441,15.50001 56.5,15.5 31.14717,0 56.43772,-6.9146 56.5,-15.46875 l 0.15625,0 0,-130.6681275 -20.72148,-39.7514195 -0.42289,-25.37834 -71.04039,0 z"
       style="fill:#ffffff;fill-opacity:0.99122805;fill-rule:nonzero;stroke:#000000;stroke-width:4;stroke-linecap:round;stroke-linejoin:round;stroke-miterlimit:4;stroke-opacity:1;stroke-dasharray:none" />
    <path
       transform="matrix(0.6349325,0,0,0.6979984,-132.67162,-19.944834)"
       d="m -306.17051,-54.83989 c 0,8.057623 -25.37065,14.589617 -56.66692,14.589617 -31.29628,0 -56.66692,-6.531994 -56.66692,-14.589617 0,-8.057622 25.37064,-14.589616 56.66692,-14.589616 31.29627,0 56.66692,6.531994 56.66692,14.589616 z"
       sodipodi:ry="14.589617"
       sodipodi:rx="56.66692"
       sodipodi:cy="-54.83989"
       sodipodi:cx="-362.83743"
       id="path3358"
       style="fill:#ffffff;fill-opacity:0.99122805;fill-rule:nonzero;stroke:#000000;stroke-width:4;stroke-linecap:round;stroke-linejoin:round;stroke-miterlimit:4;stroke-opacity:1;stroke-dasharray:none"
       sodipodi:type="arc" />
  </g>
  <g
     id="g3380"
     transform="matrix(0.5394716,0,0,0.5893801,168.49244,105.40267)"
     inkscape:export-filename="D:\studyworkspace\Asia\res\icq_dinner_96.png"
     inkscape:export-xdpi="50.164417"
     inkscape:export-ydpi="50.164417">
    <path
       inkscape:connector-curvature="0"
       sodipodi:nodetypes="csssssssssssscc"
       id="path3370"
       d="m -150.54793,120.44696 c 0,0 75.58409,-36.287561 101.492986,-60.472907 9.930069,-9.269486 20.898308,-24.54362 25.796134,-37.214095 3.13759,-8.116816 4.792349,-20.1102918 3.805987,-28.7563464 -0.614311,-5.3847996 -2.841948,-12.7786026 -6.343311,-16.9154976 -5.39822,-6.37805 -16.044082,-11.753336 -24.104585,-13.955286 -14.319209,-3.911689 -34.700061,-1.82243 -49.477826,-0.422887 -9.249365,0.87597 -12.789685,0.759068 -22.811055,2.272786 -2.85355,0.431027 -6.98694,7.657601 -9.85137,8.149314 -3.51866,0.604017 -12.11152,-4.242215 -15.60804,-3.539936 -12.89348,2.589671 -25.49195,5.872482 -36.72992,10.033333 -2.9271,1.083757 -2.89704,8.47563 -6.51192,10.213104 -2.59284,1.2462348 -14.62391,-1.176655 -17.42559,0.2984071 -22.79196,11.9997559 -48.79913,28.8170219 -48.79913,28.8170219 l 106.56764,101.492989 z"
       style="fill:#ffc146;fill-opacity:0.99122805;fill-rule:evenodd;stroke:#000000;stroke-width:4;stroke-linecap:butt;stroke-linejoin:miter;stroke-miterlimit:4;stroke-opacity:1;stroke-dasharray:none" />
    <path
       inkscape:connector-curvature="0"
       id="path3365"
       d="m -192.23548,12.013821 c -9.53527,-2.812302 -19.65297,-4.0794329 -29.92271,-3.5153977 -41.07895,2.2561367 -68.82906,33.2801387 -61.92735,69.2758097 l 0.238,0.07652 -0.0574,0.1785 79.16486,25.453627 52.91681,17.14549 c 14.7149,-13.8011 20.36855,-31.235383 16.57261,-51.032996 -5.17628,-26.996749 -28.37902,-49.144653 -56.98483,-57.581556 z"
       style="fill:#ffffe3;fill-opacity:0.99122805;fill-rule:nonzero;stroke:#000000;stroke-width:4;stroke-linecap:round;stroke-linejoin:round;stroke-miterlimit:4;stroke-opacity:1;stroke-dasharray:none" />
    <path
       inkscape:connector-curvature="0"
       id="path3376"
       d="m -206.36907,-9.8023754 33.4081,4.2288744 21.99015,11.8408486 21.56726,13.9552854 8.03486,10.995074 10.57219,6.766199 5.92042,-13.955286 -4.65176,-11.417961 -16.49261,-11.84084825 -11.84085,-10.14929875 -15.64683,-5.497537 -16.06973,-4.651762 -15.64683,-0.845775 -4.22888,9.726412 -16.91549,0.8457746 z"
       style="fill:#ffffa6;fill-opacity:0.99122805;fill-rule:evenodd;stroke:#000000;stroke-width:4;stroke-linecap:butt;stroke-linejoin:miter;stroke-miterlimit:4;stroke-opacity:1;stroke-dasharray:none" />
    <path
       inkscape:connector-curvature="0"
       id="path3378"
       d="m -145.47328,-30.100973 16.06972,6.343312 25.37325,10.149299 9.726409,10.9950732 8.880637,9.7264113 5.920424,9.7264115 5.920424,5.497537 8.457749,-11.840849 -4.228874,-14.3781732 -6.766199,-9.3035238 -6.343312,-8.034861 -8.880637,-4.228875 -11.417961,-3.805987 -8.88064,-2.960212 -6.7662,-2.537325 -4.65176,-0.422887 -8.88063,8.457749 -13.5324,-3.3831 z"
       style="fill:#ffffa6;fill-opacity:0.99122805;fill-rule:evenodd;stroke:#000000;stroke-width:4;stroke-linecap:butt;stroke-linejoin:miter;stroke-miterlimit:4;stroke-opacity:1;stroke-dasharray:none" />
  </g>
</svg>
