<?xml version="1.0" encoding="UTF-8" standalone="no"?>
<svg
   xmlns:dc="http://purl.org/dc/elements/1.1/"
   xmlns:cc="http://creativecommons.org/ns#"
   xmlns:rdf="http://www.w3.org/1999/02/22-rdf-syntax-ns#"
   xmlns:svg="http://www.w3.org/2000/svg"
   xmlns="http://www.w3.org/2000/svg"
   xmlns:sodipodi="http://sodipodi.sourceforge.net/DTD/sodipodi-0.dtd"
   xmlns:inkscape="http://www.inkscape.org/namespaces/inkscape"
   version="1.1"
   width="460.10153"
   height="192.76071"
   id="svg2"
   sodipodi:version="0.32"
   inkscape:version="0.48.1 "
   sodipodi:docname="icq_depress.svg"
   inkscape:output_extension="org.inkscape.output.svg.inkscape">
  <metadata
     id="metadata21">
    <rdf:RDF>
      <cc:Work
         rdf:about="">
        <dc:format>image/svg+xml</dc:format>
        <dc:type
           rdf:resource="http://purl.org/dc/dcmitype/StillImage" />
        <dc:title></dc:title>
      </cc:Work>
    </rdf:RDF>
  </metadata>
  <defs
     id="defs19">
    <inkscape:perspective
       sodipodi:type="inkscape:persp3d"
       inkscape:vp_x="0 : 96.380356 : 1"
       inkscape:vp_y="0 : 1000 : 0"
       inkscape:vp_z="460.10153 : 96.380356 : 1"
       inkscape:persp3d-origin="230.05077 : 64.253571 : 1"
       id="perspective23" />
  </defs>
  <sodipodi:namedview
     inkscape:window-height="1058"
     inkscape:window-width="1920"
     inkscape:pageshadow="2"
     inkscape:pageopacity="0.0"
     guidetolerance="10.0"
     gridtolerance="10.0"
     objecttolerance="10.0"
     borderopacity="1.0"
     bordercolor="#666666"
     pagecolor="#ffffff"
     id="base"
     showgrid="false"
     inkscape:zoom="1.1823477"
     inkscape:cx="-262.12345"
     inkscape:cy="125.49992"
     inkscape:window-x="0"
     inkscape:window-y="14"
     inkscape:current-layer="svg2"
     inkscape:window-maximized="0" />
  <path
     d="m 94.424997,43.466572 c -5.29982,-1.205062 -9.63804,-0.723037 -14.21482,1.687087 -5.06126,3.133161 -7.95341,7.953409 -9.15847,14.699296 -1.20506,6.9869 0,13.735246 3.61519,20.481134 l 1.68709,2.407664 -5.7843,-1.928099 c -7.22792,-1.687086 -13.97626,-0.723037 -20.72215,2.892149 -6.9869,3.615185 -11.32512,8.673986 -14.21727,15.663345 -2.65114,6.748342 -2.40767,13.253222 0.96405,19.276072 1.44607,2.65114 3.61518,4.81779 5.54082,6.26386 2.89215,2.89215 6.50734,4.57924 10.8431,5.29982 l 1.68709,0.48202 -3.61519,3.13316 c -3.37417,2.89215 -5.29981,6.50488 -6.50487,10.12007 -1.20506,4.33822 -0.72304,8.67398 1.68708,12.77119 1.20507,1.92564 2.40767,3.61273 4.33577,4.81779 1.9281,1.68709 4.33822,2.89215 7.22791,3.1307 5.30227,1.20507 10.8431,1.20507 16.86595,-0.72549 l -4.33822,7.22791 -1.20506,3.13562 c -2.40767,7.70994 -1.68709,14.45828 1.92809,21.44272 1.68709,2.65114 3.61519,5.06372 5.54329,7.22792 2.89215,2.65112 6.50487,4.33821 10.8431,5.54327 7.22791,1.92564 14.458283,1.68709 21.445183,-1.92564 6.74835,-3.61763 11.08411,-9.39947 13.25322,-16.62984 l 0.24101,-1.44608 c 4.57678,5.06372 8.915,8.43544 13.73525,9.6405 4.81779,1.44607 9.63804,1.20506 13.97626,-1.68709 4.09721,-2.41012 6.9869,-6.50733 8.43297,-11.56613 1.20507,-5.30228 1.20507,-10.60209 0,-16.62494 2.40767,1.68709 4.81779,2.88723 7.70994,3.61273 7.70994,2.41012 14.45583,2.16665 21.20417,-1.44608 6.50734,-3.61272 10.8431,-9.39948 13.01221,-16.86841 1.9281,-7.22791 1.44608,-14.21235 -2.16911,-20.9607 l -1.20506,-1.9281 c -1.9281,-2.89215 -3.85374,-5.7843 -6.74589,-7.70994 -2.40766,-1.68708 -5.29981,-2.89214 -7.95095,-4.09721 7.47139,-3.61518 12.7712,-8.67398 15.18132,-15.18132 1.68709,-5.302269 1.20506,-9.638032 -1.20506,-13.976255 l 0,-0.482025 c -2.88969,-4.820247 -6.74589,-7.953408 -12.76874,-9.638036 -3.61518,-0.723037 -7.71239,-0.723037 -11.32512,-0.482024 l -7.95095,1.687086 2.65114,-6.02285 c 2.41012,-7.709937 1.68708,-15.181321 -2.41013,-22.16822 l -0.72303,-1.205062 c -3.61519,-6.02531 -8.915,-9.638036 -16.14291,-11.566135 -7.46893,-1.928099 -14.45583,-1.205062 -21.20418,2.410124 -6.74588,3.612726 -11.56613,9.156011 -13.73278,16.386382 l 0,0.482025 -0.24102,1.687087 -0.96405,-1.687087 -2.41012,-4.338223 c -3.85866,-6.015472 -8.6789,-9.630658 -14.701753,-11.317745 l 0,0 z m 61.445863,14.458284 c 1.20506,2.407665 1.9281,5.299813 1.9281,8.432974 l -0.72304,5.299813 c -0.96405,2.651136 -2.16911,5.06126 -3.61519,7.227912 l -21.68619,26.508905 c -2.16912,-1.68709 -4.57924,-2.89215 -6.98936,-4.09721 l -2.40767,-27.227024 -0.24101,-9.638036 0.24101,-2.407664 c 1.20506,-4.817788 4.57678,-8.432974 8.915,-10.843098 4.33577,-2.407664 9.15601,-2.892149 13.73279,-1.205062 5.06126,1.202603 8.67645,3.853739 10.84556,7.94849 l 0,0 z m -74.699093,4.820248 c 0.24102,-4.338223 1.9281,-7.227912 4.81779,-8.914999 1.44608,-1.205062 3.61519,-1.205062 5.54083,-0.241012 4.33822,1.205061 7.95095,4.338222 10.843103,10.361073 1.20506,2.410123 2.41012,4.817788 2.89214,7.709936 l 4.81779,28.434538 -3.61518,1.20507 -21.445193,-23.373286 -1.20506,-2.407664 c -1.92318,-4.340682 -3.12824,-8.435434 -2.64622,-12.773656 l 0,0 z m -13.01221,28.19107 6.50734,2.651136 21.20417,15.42233 c -1.9281,2.40767 -3.1307,4.81779 -3.85374,7.22791 l -34.69841,4.33823 -2.41012,-0.48203 c -4.33822,-0.72303 -7.22791,-2.65113 -9.15601,-6.26386 -1.9281,-3.61519 -1.9281,-7.22791 -0.48203,-10.8431 1.68709,-4.579232 4.81779,-8.194418 9.39703,-10.120057 4.33576,-2.412584 8.67153,-3.135621 13.49177,-1.930559 l 0,0 z m 22.89126,39.275176 1.68709,4.82026 0.72304,1.68708 c -3.61519,3.13071 -6.26633,6.02285 -9.15602,8.67399 l -7.23037,6.02531 -1.9281,1.20506 c -4.57923,2.16665 -8.43297,2.89215 -12.53018,2.40767 -3.61519,-0.24102 -6.50734,-1.44608 -7.7124,-3.61273 l -0.72304,-2.65114 0.48203,-2.16665 c 1.20506,-3.61764 4.33822,-7.22791 9.88151,-9.88151 2.88969,-1.20506 5.29981,-2.41012 7.22791,-2.89215 l 19.27853,-3.61519 0,0 z M 166.22947,91.177187 c 4.33822,-1.928099 8.43298,-2.410124 12.7712,-1.928099 4.09721,0.482024 6.98936,2.407664 8.43297,5.299813 l 0.96405,3.130701 -0.48202,2.410128 c -1.68709,4.33822 -5.30228,7.70993 -11.32513,10.36107 -2.40766,1.20506 -5.0588,1.68709 -7.95095,2.16665 l -29.63714,3.61519 -0.48202,-1.68709 -0.48203,-0.72058 0.96405,-1.20506 24.33733,-20.240121 2.88969,-1.202602 0,0 z m -61.4434,22.891253 c 2.88969,-2.65113 6.74589,-4.33576 11.32512,-4.33576 4.33822,0 8.43297,1.68709 11.08411,4.33576 3.37417,3.37418 4.82025,6.98936 4.82025,11.32513 0,4.33576 -1.44608,8.43297 -4.82025,11.32512 -3.13316,3.13071 -6.74589,4.81779 -11.08411,4.81779 -4.57923,0 -8.43543,-1.68708 -11.32512,-4.81779 -3.13316,-2.89215 -4.817793,-6.98936 -4.817793,-11.32512 0,-4.33577 1.684633,-7.95095 4.817793,-11.32513 l 0,0 z m 5.54082,34.93943 c 0.48203,8.19442 1.20507,16.8684 2.41013,26.26543 l 0,9.64049 -0.24101,2.41013 c -1.68709,4.3333 -4.57924,7.94849 -8.915,9.87658 -4.335773,2.41013 -8.915003,2.89215 -13.253233,1.68709 -4.81778,-1.20014 -8.43297,-4.09229 -10.36107,-7.94849 -1.20506,-2.41012 -2.16911,-5.30227 -2.16911,-8.19442 l 1.20506,-5.53837 c 0.48203,-2.41012 1.68709,-4.8227 3.61519,-6.74834 l 20.240123,-24.09878 c 2.41012,1.2026 4.81779,2.40766 7.46892,2.64868 l 0,0 z m 18.5555,-3.13316 10.12006,10.36107 6.26386,7.70994 1.20506,2.41012 c 2.16912,4.09721 3.37418,7.95341 2.89215,12.53264 -0.48202,4.33823 -1.9281,7.46893 -4.81779,8.67399 -1.68708,1.20506 -3.61518,1.20506 -5.54082,0.96159 -4.57924,-1.20014 -8.19442,-4.81779 -10.8431,-10.60209 l -2.89215,-7.94849 -3.61518,-20.96561 4.09721,-1.44608 3.1307,-1.68708 0,0 z m 10.8431,-14.94032 27.22948,-2.40766 9.63803,-0.24102 2.41013,0.24102 c 3.61518,1.20506 6.98936,3.37417 8.915,6.9869 2.40766,2.65114 3.61272,6.26386 3.61272,10.36108 l -0.72058,4.81778 c -1.20506,4.82271 -4.09721,8.43544 -8.19442,10.36108 -4.33822,2.41012 -8.67398,2.89215 -13.49423,1.20506 -2.89215,-0.72058 -4.81779,-1.92564 -6.50733,-3.85128 l -25.30139,-20.96562 1.68709,-3.61273 0.7255,-2.89461 0,0 z"
     style="fill:#8bc800;fill-opacity:1"
     id="path10"
     inkscape:export-filename="D:\studyworkspace\Asia\res\icq_depress_96.png"
     inkscape:export-xdpi="50.553909"
     inkscape:export-ydpi="50.553909"
     inkscape:connector-curvature="0" />
  <path
     d="m 91.943317,135.60173 1.96077,5.60221 0.84033,1.96076 c -4.20165,3.63859 -7.28287,6.9999 -10.64133,10.08112 l -8.40332,7.00277 -2.24088,1.40055 c -5.3221,2.51813 -9.80101,3.36132 -14.56288,2.79825 -4.20166,-0.28012 -7.56299,-1.68067 -8.96354,-4.1988 l -0.84034,-3.08122 0.56023,-2.51814 c 1.40055,-4.20451 5.04199,-8.40045 11.48453,-11.48453 3.35847,-1.40055 6.15957,-2.8011 8.40045,-3.36132 l 22.40598,-4.20165 0,0 z"
     style="fill:#ff001c"
     id="path14"
     inkscape:export-filename="D:\studyworkspace\Asia\res\icq_depress_96.png"
     inkscape:export-xdpi="50.553909"
     inkscape:export-ydpi="50.553909"
     inkscape:connector-curvature="0" />
  <path
     d="m 107.90676,116.84004 c 3.35846,-3.08122 7.84023,-5.03913 13.16233,-5.03913 5.04199,0 9.801,1.96077 12.88222,5.03913 3.92155,3.92154 5.60221,8.1232 5.60221,13.16233 0,5.03913 -1.68066,9.80101 -5.60221,13.16233 -3.64144,3.63859 -7.84023,5.59935 -12.88222,5.59935 -5.3221,0 -9.80387,-1.96076 -13.16233,-5.59935 -3.64144,-3.36132 -5.59935,-8.1232 -5.59935,-13.16233 0,-5.03913 1.95791,-9.24079 5.59935,-13.16233 l 0,0 z"
     style="fill:#fdfb12"
     id="path16"
     inkscape:export-filename="D:\studyworkspace\Asia\res\icq_depress_96.png"
     inkscape:export-xdpi="50.553909"
     inkscape:export-ydpi="50.553909"
     inkscape:connector-curvature="0" />
  <path
     inkscape:connector-curvature="0"
     style="fill:#008eff;fill-opacity:0.99122804;fill-rule:nonzero;stroke:none"
     d="m 118.78804,42.448985 c -1.44506,0 -2.88725,0.04494 -4.31431,0.11642 1.06666,5.221908 1.64131,10.608155 1.64131,16.136821 -10e-6,43.740004 -35.039593,79.493274 -79.040973,81.685354 7.63534,37.43539 41.34677,65.66495 81.713973,65.66495 45.99032,0 83.30839,-36.6508 83.30839,-81.80178 0,-45.15097 -37.31808,-81.801765 -83.30839,-81.801765 z"
     id="path3172"
     inkscape:export-filename="D:\studyworkspace\Asia\res\icq_depress_96.png"
     inkscape:export-xdpi="50.553909"
     inkscape:export-ydpi="50.553909" />
  <path
     sodipodi:type="arc"
     style="fill:#000000;fill-opacity:1;fill-rule:nonzero;stroke:#000000;stroke-width:2.1730001;stroke-miterlimit:4;stroke-opacity:1;stroke-dasharray:none"
     id="path3198"
     sodipodi:cx="81.617279"
     sodipodi:cy="94.227936"
     sodipodi:rx="3.8059869"
     sodipodi:ry="3.8059869"
     d="m 85.423266,94.227936 a 3.8059869,3.8059869 0 1 1 -7.611974,0 3.8059869,3.8059869 0 1 1 7.611974,0 z"
     transform="matrix(1.1622242,0,0,1.1622242,32.321917,-16.716048)"
     inkscape:export-filename="D:\studyworkspace\Asia\res\icq_depress_96.png"
     inkscape:export-xdpi="50.553909"
     inkscape:export-ydpi="50.553909" />
  <path
     sodipodi:type="arc"
     style="fill:#000000;fill-opacity:1;fill-rule:nonzero;stroke:#000000;stroke-width:2.1730001;stroke-miterlimit:4;stroke-opacity:1;stroke-dasharray:none"
     id="path3200"
     sodipodi:cx="81.617279"
     sodipodi:cy="94.227936"
     sodipodi:rx="3.8059869"
     sodipodi:ry="3.8059869"
     d="m 85.423266,94.227936 a 3.8059869,3.8059869 0 1 1 -7.611974,0 3.8059869,3.8059869 0 1 1 7.611974,0 z"
     transform="matrix(1.1622242,0,0,1.1622242,49.524067,-17.207528)"
     inkscape:export-filename="D:\studyworkspace\Asia\res\icq_depress_96.png"
     inkscape:export-xdpi="50.553909"
     inkscape:export-ydpi="50.553909" />
  <path
     sodipodi:type="arc"
     style="fill:#008eff;fill-opacity:0.99215686;fill-rule:nonzero;stroke:#000000;stroke-width:4;stroke-linecap:round;stroke-linejoin:round;stroke-miterlimit:4;stroke-opacity:1;stroke-dasharray:none"
     id="path3158"
     sodipodi:cx="-348.88214"
     sodipodi:cy="-134.55417"
     sodipodi:rx="41.865856"
     sodipodi:ry="31.293671"
     d="m -387.53313,-146.58018 a 41.865856,31.293671 0 0 1 77.38569,0.15144"
     sodipodi:start="3.5360371"
     sodipodi:end="5.8939769"
     transform="matrix(1.1622242,0,0,1.1622242,541.5056,319.50234)"
     sodipodi:open="true"
     inkscape:export-filename="D:\studyworkspace\Asia\res\icq_depress_96.png"
     inkscape:export-xdpi="50.553909"
     inkscape:export-ydpi="50.553909" />
</svg>
