<?xml version="1.0" encoding="UTF-8" standalone="no"?>
<svg
   xmlns:dc="http://purl.org/dc/elements/1.1/"
   xmlns:cc="http://creativecommons.org/ns#"
   xmlns:rdf="http://www.w3.org/1999/02/22-rdf-syntax-ns#"
   xmlns:svg="http://www.w3.org/2000/svg"
   xmlns="http://www.w3.org/2000/svg"
   xmlns:xlink="http://www.w3.org/1999/xlink"
   xmlns:sodipodi="http://sodipodi.sourceforge.net/DTD/sodipodi-0.dtd"
   xmlns:inkscape="http://www.inkscape.org/namespaces/inkscape"
   version="1.1"
   width="460.10153"
   height="192.76071"
   id="svg2"
   sodipodi:version="0.32"
   inkscape:version="0.48.1 "
   sodipodi:docname="icq_work.svg"
   inkscape:output_extension="org.inkscape.output.svg.inkscape">
  <metadata
     id="metadata21">
    <rdf:RDF>
      <cc:Work
         rdf:about="">
        <dc:format>image/svg+xml</dc:format>
        <dc:type
           rdf:resource="http://purl.org/dc/dcmitype/StillImage" />
        <dc:title></dc:title>
      </cc:Work>
    </rdf:RDF>
  </metadata>
  <defs
     id="defs19">
    <inkscape:perspective
       sodipodi:type="inkscape:persp3d"
       inkscape:vp_x="-469.47172 : 59.301061 : 1"
       inkscape:vp_y="0 : 1000 : 0"
       inkscape:vp_z="-9.3701907 : 59.301061 : 1"
       inkscape:persp3d-origin="-239.42095 : 27.174276 : 1"
       id="perspective23" />
    <inkscape:perspective
       id="perspective3722"
       inkscape:persp3d-origin="230.05077 : 64.253571 : 1"
       inkscape:vp_z="460.10153 : 96.380356 : 1"
       inkscape:vp_y="0 : 1000 : 0"
       inkscape:vp_x="0 : 96.380356 : 1"
       sodipodi:type="inkscape:persp3d" />
    <linearGradient
       gradientTransform="matrix(0.1114007,0,0,0.1114007,20.322473,16.983151)"
       y2="-126.7233"
       x2="106.42678"
       y1="364.50668"
       x1="100.09005"
       gradientUnits="userSpaceOnUse"
       id="linearGradient3847"
       xlink:href="#linearGradient3634"
       inkscape:collect="always" />
    <linearGradient
       gradientTransform="matrix(0.07272715,0,0,0.07272715,24.422132,21.035103)"
       y2="-149.16039"
       x2="100.97306"
       y1="223.35675"
       x1="109.14501"
       gradientUnits="userSpaceOnUse"
       id="linearGradient3844"
       xlink:href="#linearGradient3668"
       inkscape:collect="always" />
    <linearGradient
       y2="240.48927"
       x2="104.46835"
       y1="-116.43893"
       x1="104.46835"
       gradientTransform="matrix(0.1114007,0,0,0.1114007,20.253055,17.446283)"
       gradientUnits="userSpaceOnUse"
       id="linearGradient3840"
       xlink:href="#linearGradient3644"
       inkscape:collect="always" />
    <linearGradient
       inkscape:collect="always"
       xlink:href="#linearGradient3644"
       id="linearGradient3782"
       gradientUnits="userSpaceOnUse"
       gradientTransform="matrix(0.83488778,0,0,0.83488778,298.00591,324.76069)"
       x1="104.46835"
       y1="-116.43893"
       x2="104.46835"
       y2="240.48927" />
    <linearGradient
       id="linearGradient3644">
      <stop
         id="stop3646"
         offset="0"
         style="stop-color:#ffffff;stop-opacity:1;" />
      <stop
         style="stop-color:#f9f9f9;stop-opacity:0;"
         offset="1"
         id="stop3654" />
    </linearGradient>
    <linearGradient
       inkscape:collect="always"
       xlink:href="#linearGradient3644"
       id="linearGradient3715"
       gradientUnits="userSpaceOnUse"
       x1="104.46835"
       y1="-116.43893"
       x2="104.46835"
       y2="240.48927"
       gradientTransform="matrix(0.83488778,0,0,0.83488778,298.00591,324.76069)" />
    <linearGradient
       id="linearGradient3668">
      <stop
         id="stop3670"
         offset="0"
         style="stop-color:#ffffff;stop-opacity:1;" />
      <stop
         id="stop3672"
         offset="1"
         style="stop-color:#cccccc;stop-opacity:1;" />
    </linearGradient>
    <linearGradient
       gradientUnits="userSpaceOnUse"
       y2="-149.16039"
       x2="100.97306"
       y1="223.35675"
       x1="109.14501"
       id="linearGradient3674"
       xlink:href="#linearGradient3668"
       inkscape:collect="always" />
    <linearGradient
       id="linearGradient3634">
      <stop
         id="stop3636"
         offset="0"
         style="stop-color:#ffdb00;stop-opacity:1;" />
      <stop
         style="stop-color:#efe43c;stop-opacity:1;"
         offset="0.5"
         id="stop3642" />
      <stop
         id="stop3638"
         offset="1"
         style="stop-color:#ffe149;stop-opacity:1;" />
    </linearGradient>
    <linearGradient
       gradientUnits="userSpaceOnUse"
       y2="-126.7233"
       x2="106.42678"
       y1="364.50668"
       x1="100.09005"
       id="linearGradient3640"
       xlink:href="#linearGradient3634"
       inkscape:collect="always" />
    <inkscape:perspective
       sodipodi:type="inkscape:persp3d"
       inkscape:vp_x="0 : 0.5 : 1"
       inkscape:vp_y="0 : 1000 : 0"
       inkscape:vp_z="1 : 0.5 : 1"
       inkscape:persp3d-origin="0.5 : 0.33333333 : 1"
       id="perspective3760" />
    <inkscape:perspective
       id="perspective3792"
       inkscape:persp3d-origin="32 : 21.333333 : 1"
       inkscape:vp_z="64 : 32 : 1"
       inkscape:vp_y="0 : 1000 : 0"
       inkscape:vp_x="0 : 32 : 1"
       sodipodi:type="inkscape:persp3d" />
    <linearGradient
       inkscape:collect="always"
       xlink:href="#linearGradient3634"
       id="linearGradient3959"
       gradientUnits="userSpaceOnUse"
       gradientTransform="matrix(0.1114007,0,0,0.1114007,20.322473,16.983151)"
       x1="100.09005"
       y1="364.50668"
       x2="106.42678"
       y2="-126.7233" />
    <linearGradient
       inkscape:collect="always"
       xlink:href="#linearGradient3668"
       id="linearGradient3961"
       gradientUnits="userSpaceOnUse"
       gradientTransform="matrix(0.07272715,0,0,0.07272715,24.422132,21.035103)"
       x1="109.14501"
       y1="223.35675"
       x2="100.97306"
       y2="-149.16039" />
    <linearGradient
       inkscape:collect="always"
       xlink:href="#linearGradient3644"
       id="linearGradient3963"
       gradientUnits="userSpaceOnUse"
       gradientTransform="matrix(0.1114007,0,0,0.1114007,20.253055,17.446283)"
       x1="104.46835"
       y1="-116.43893"
       x2="104.46835"
       y2="240.48927" />
    <linearGradient
       inkscape:collect="always"
       xlink:href="#linearGradient3644"
       id="linearGradient3966"
       gradientUnits="userSpaceOnUse"
       gradientTransform="matrix(0.29312508,0,0,0.29312508,332.55438,62.074725)"
       x1="104.46835"
       y1="-116.43893"
       x2="104.46835"
       y2="240.48927" />
    <linearGradient
       inkscape:collect="always"
       xlink:href="#linearGradient3634"
       id="linearGradient3973"
       gradientUnits="userSpaceOnUse"
       gradientTransform="matrix(0.29312508,0,0,0.29312508,332.73703,60.856106)"
       x1="100.09005"
       y1="364.50668"
       x2="106.42678"
       y2="-126.7233" />
  </defs>
  <sodipodi:namedview
     inkscape:window-height="1058"
     inkscape:window-width="1920"
     inkscape:pageshadow="2"
     inkscape:pageopacity="0.0"
     guidetolerance="10.0"
     gridtolerance="10.0"
     objecttolerance="10.0"
     borderopacity="1.0"
     bordercolor="#666666"
     pagecolor="#ffffff"
     id="base"
     showgrid="false"
     inkscape:zoom="1.6720922"
     inkscape:cx="147.74955"
     inkscape:cy="41.481861"
     inkscape:window-x="0"
     inkscape:window-y="14"
     inkscape:current-layer="svg2"
     inkscape:window-maximized="0" />
  <path
     d="m 340.54549,27.819737 c -5.29982,-1.205062 -9.63804,-0.723037 -14.21481,1.687086 -5.06126,3.133161 -7.95341,7.953409 -9.15848,14.699296 -1.20506,6.9869 0,13.735246 3.61519,20.481134 l 1.68709,2.407664 -5.7843,-1.928099 c -7.22792,-1.687086 -13.97626,-0.723037 -20.72215,2.892149 -6.9869,3.615185 -11.32512,8.673986 -14.21727,15.663345 -2.65114,6.748347 -2.40767,13.253222 0.96405,19.276068 1.44607,2.65114 3.61518,4.81779 5.54082,6.26387 2.89215,2.89215 6.50734,4.57923 10.8431,5.29981 l 1.68709,0.48202 -3.61519,3.13317 c -3.37417,2.89214 -5.29981,6.50487 -6.50487,10.12006 -1.20506,4.33822 -0.72304,8.67398 1.68708,12.77119 1.20507,1.92564 2.40767,3.61273 4.33577,4.81779 1.9281,1.68709 4.33822,2.89215 7.22791,3.1307 5.30227,1.20507 10.8431,1.20507 16.86595,-0.72549 l -4.33822,7.22791 -1.20506,3.13562 c -2.40767,7.70994 -1.68709,14.45828 1.9281,21.44272 1.68708,2.65114 3.61518,5.06372 5.54328,7.22792 2.89215,2.65113 6.50488,4.33822 10.8431,5.54328 7.22791,1.92564 14.45828,1.68709 21.44518,-1.92564 6.74835,-3.61764 11.08411,-9.39948 13.25322,-16.62985 l 0.24102,-1.44608 c 4.57677,5.06372 8.91499,8.43544 13.73524,9.6405 4.81779,1.44607 9.63804,1.20506 13.97626,-1.68709 4.09721,-2.41012 6.9869,-6.50733 8.43297,-11.56613 1.20507,-5.30228 1.20507,-10.60209 0,-16.62494 2.40767,1.68709 4.81779,2.88723 7.70994,3.61273 7.70994,2.41012 14.45583,2.16665 21.20417,-1.44608 6.50734,-3.61272 10.8431,-9.39948 13.01221,-16.86841 1.9281,-7.22791 1.44608,-14.21235 -2.16911,-20.96069 l -1.20506,-1.9281 c -1.9281,-2.89215 -3.85374,-5.7843 -6.74589,-7.70994 -2.40766,-1.68709 -5.29981,-2.89215 -7.95095,-4.09721 7.47139,-3.615187 12.7712,-8.673988 15.18132,-15.181322 1.68709,-5.302273 1.20506,-9.638036 -1.20506,-13.976259 l 0,-0.482025 c -2.88969,-4.820247 -6.74589,-7.953408 -12.76874,-9.638036 -3.61518,-0.723037 -7.71239,-0.723037 -11.32512,-0.482024 l -7.95095,1.687086 2.65114,-6.02285 c 2.41012,-7.709937 1.68708,-15.181321 -2.41013,-22.16822 l -0.72303,-1.205062 c -3.61519,-6.02531 -8.915,-9.638036 -16.14291,-11.566135 -7.46893,-1.928099 -14.45583,-1.205062 -21.20417,2.410124 -6.74589,3.612726 -11.56614,9.156011 -13.73279,16.386382 l 0,0.482025 -0.24101,1.687087 -0.96405,-1.687087 -2.41013,-4.338223 c -3.85866,-6.015472 -8.6789,-9.630658 -14.70175,-11.317744 l 0,0 z m 61.44586,14.458283 c 1.20506,2.407665 1.9281,5.299813 1.9281,8.432974 l -0.72304,5.299813 c -0.96405,2.651136 -2.16911,5.06126 -3.61519,7.227912 l -21.68619,26.508903 c -2.16911,-1.687087 -4.57924,-2.892149 -6.98936,-4.097211 L 368.498,58.42339 368.25699,48.785354 368.498,46.37769 c 1.20507,-4.817788 4.57678,-8.432974 8.915,-10.843098 4.33577,-2.407664 9.15601,-2.892149 13.73279,-1.205062 5.06126,1.202603 8.67645,3.853739 10.84556,7.94849 l 0,0 z m -74.69908,4.820248 c 0.24101,-4.338223 1.92809,-7.227912 4.81778,-8.914999 1.44608,-1.205062 3.61519,-1.205062 5.54083,-0.241012 4.33822,1.205061 7.95095,4.338222 10.8431,10.361073 1.20506,2.410123 2.41012,4.817788 2.89215,7.709936 l 4.81778,28.434543 -3.61518,1.205062 -21.44519,-23.373283 -1.20506,-2.407664 c -1.92318,-4.340682 -3.12824,-8.435434 -2.64621,-12.773656 l 0,0 z m -13.01221,28.19107 6.50733,2.651136 21.20417,15.422333 c -1.9281,2.407665 -3.1307,4.817789 -3.85374,7.227913 l -34.69841,4.33822 -2.41012,-0.48202 c -4.33822,-0.72304 -7.22791,-2.65114 -9.15601,-6.263865 -1.9281,-3.615186 -1.9281,-7.227912 -0.48203,-10.843098 1.68709,-4.579235 4.81779,-8.194421 9.39703,-10.12006 4.33576,-2.412584 8.67153,-3.135621 13.49178,-1.930559 l 0,0 z m 22.89125,39.275182 1.68709,4.82025 0.72304,1.68708 c -3.61519,3.13071 -6.26632,6.02285 -9.15601,8.67399 l -7.23037,6.02531 -1.9281,1.20506 c -4.57924,2.16665 -8.43298,2.89215 -12.53019,2.40767 -3.61519,-0.24102 -6.50734,-1.44608 -7.7124,-3.61273 l -0.72304,-2.65114 0.48203,-2.16665 c 1.20506,-3.61764 4.33822,-7.22791 9.88151,-9.88151 2.88969,-1.20506 5.29981,-2.41012 7.22791,-2.89214 l 19.27853,-3.61519 0,0 z m 75.17865,-39.034169 c 4.33822,-1.928099 8.43298,-2.410124 12.7712,-1.928099 4.09721,0.482024 6.98936,2.407664 8.43297,5.299813 l 0.96405,3.130701 -0.48202,2.410124 c -1.68709,4.338223 -5.30228,7.709937 -11.32513,10.361073 -2.40766,1.205062 -5.0588,1.687087 -7.95095,2.166652 l -29.63714,3.615185 -0.48202,-1.687086 -0.48203,-0.720578 0.96405,-1.205062 24.33733,-20.240121 2.88969,-1.202602 0,0 z m -61.4434,22.891257 c 2.88969,-2.651136 6.74589,-4.335764 11.32512,-4.335764 4.33823,0 8.43298,1.687087 11.08411,4.335764 3.37418,3.374172 4.82025,6.989362 4.82025,11.325122 0,4.33576 -1.44607,8.43298 -4.82025,11.32512 -3.13316,3.13071 -6.74588,4.81779 -11.08411,4.81779 -4.57923,0 -8.43543,-1.68708 -11.32512,-4.81779 -3.13316,-2.89214 -4.81779,-6.98936 -4.81779,-11.32512 0,-4.33576 1.68463,-7.95095 4.81779,-11.325122 l 0,0 z m 5.54083,34.939422 c 0.48202,8.19442 1.20506,16.8684 2.41012,26.26543 l 0,9.64049 -0.24101,2.41013 c -1.68709,4.3333 -4.57924,7.94849 -8.915,9.87658 -4.33577,2.41013 -8.915,2.89215 -13.25322,1.68709 -4.81779,-1.20014 -8.43298,-4.09229 -10.36108,-7.94849 -1.20506,-2.41012 -2.16911,-5.30227 -2.16911,-8.19442 l 1.20506,-5.53837 c 0.48203,-2.41012 1.68709,-4.8227 3.61519,-6.74834 l 20.24012,-24.09878 c 2.41012,1.2026 4.81779,2.40766 7.46893,2.64868 l 0,0 z m 18.55549,-3.13316 10.12006,10.36107 6.26386,7.70994 1.20506,2.41012 c 2.16912,4.09721 3.37418,7.95341 2.89215,12.53264 -0.48202,4.33823 -1.9281,7.46893 -4.81779,8.67399 -1.68708,1.20506 -3.61518,1.20506 -5.54082,0.96159 -4.57924,-1.20014 -8.19442,-4.81779 -10.8431,-10.60209 l -2.89215,-7.94849 -3.61518,-20.96561 4.09721,-1.44608 3.1307,-1.68708 0,0 z m 10.8431,-14.94031 27.22948,-2.40767 9.63803,-0.24101 2.41013,0.24101 c 3.61518,1.20506 6.98936,3.37418 8.915,6.9869 2.40766,2.65114 3.61272,6.26386 3.61272,10.36108 l -0.72058,4.81778 c -1.20506,4.82271 -4.09721,8.43544 -8.19442,10.36108 -4.33822,2.41012 -8.67398,2.89215 -13.49423,1.20506 -2.89215,-0.72058 -4.81779,-1.92564 -6.50733,-3.85128 l -25.30139,-20.96562 1.68709,-3.61273 0.7255,-2.8946 0,0 z"
     style="fill:#8bc800;fill-opacity:1"
     id="path10"
     inkscape:export-filename="D:\studyworkspace\Asia\res\icq_work_96.png"
     inkscape:export-xdpi="50.553909"
     inkscape:export-ydpi="50.553909"
     inkscape:connector-curvature="0" />
  <path
     d="m 122.03986,24.09386 c 1.20506,2.407665 1.9281,5.299813 1.9281,8.432974 l -0.72304,5.299813 c -0.96405,2.651136 -2.16911,5.06126 -3.61519,7.227912 L 97.943538,71.563462 C 95.774426,69.876375 93.364302,68.671313 90.954179,67.466251 L 88.546514,40.23923 88.305502,30.601194 88.546514,28.19353 c 1.205062,-4.817788 4.576776,-8.432974 8.914999,-10.843098 4.335767,-2.407664 9.156007,-2.892149 13.732787,-1.205062 5.06126,1.202603 8.67645,3.853739 10.84556,7.94849 l 0,0 z m -74.699085,4.820248 c 0.241012,-4.338223 1.928099,-7.227912 4.817788,-8.914999 1.446075,-1.205062 3.615186,-1.205062 5.540826,-0.241012 4.338223,1.205061 7.950949,4.338222 10.843098,10.361073 1.205061,2.410123 2.410123,4.817788 2.892148,7.709936 L 76.252423,66.263649 72.637238,67.468711 51.192054,44.095428 49.986993,41.687764 C 48.063812,37.347082 46.85875,33.25233 47.340775,28.914108 l 0,0 z m -13.012209,28.19107 6.507334,2.651136 21.204171,15.422333 c -1.928099,2.407665 -3.130702,4.817789 -3.853739,7.227912 l -34.698409,4.338223 -2.41012,-0.482024 c -4.33822,-0.723038 -7.22791,-2.651137 -9.15601,-6.263863 -1.9280996,-3.615186 -1.9280996,-7.227912 -0.48203,-10.843098 1.68709,-4.579235 4.81779,-8.194421 9.39703,-10.12006 4.33576,-2.412584 8.67153,-3.135621 13.491773,-1.930559 l 0,0 z m 98.069904,0.241013 c 4.33822,-1.928099 8.43298,-2.410124 12.7712,-1.928099 4.09721,0.482024 6.98936,2.407664 8.43297,5.299813 l 0.96405,3.130701 -0.48202,2.410124 c -1.68709,4.338223 -5.30228,7.709937 -11.32513,10.361073 -2.40766,1.205062 -5.0588,1.687087 -7.95095,2.166652 l -29.63714,3.615186 -0.48202,-1.687087 -0.48203,-0.720578 0.96405,-1.205062 24.33733,-20.240121 2.88969,-1.202602 0,0 z M 76.495895,115.17687 c 0.482025,8.19442 1.205062,16.8684 2.410124,26.26543 l 0,9.64049 -0.241012,2.41013 c -1.687087,4.3333 -4.579236,7.94849 -8.914999,9.87658 -4.335764,2.41013 -8.914999,2.89215 -13.253222,1.68709 -4.817788,-1.20014 -8.432974,-4.09229 -10.361073,-7.94849 -1.205062,-2.41012 -2.169111,-5.30227 -2.169111,-8.19442 l 1.205062,-5.53837 c 0.482024,-2.41012 1.687086,-4.8227 3.615185,-6.74834 l 20.240122,-24.09878 c 2.410123,1.2026 4.817788,2.40766 7.468924,2.64868 l 0,0 z m 18.555494,-3.13316 10.120061,10.36107 6.26386,7.70994 1.20506,2.41012 c 2.16912,4.09721 3.37418,7.95341 2.89215,12.53264 -0.48202,4.33823 -1.9281,7.46893 -4.81779,8.67399 -1.68708,1.20506 -3.61518,1.20506 -5.54082,0.96159 -4.57924,-1.20014 -8.194422,-4.81779 -10.843099,-10.60209 l -2.892148,-7.94849 -3.615186,-20.96561 4.09721,-1.44608 3.130702,-1.68708 0,0 z m 10.843101,-14.940314 27.22948,-2.407664 9.63803,-0.241013 2.41013,0.241013 c 3.61518,1.205061 6.98936,3.374173 8.915,6.986898 2.40766,2.65114 3.61272,6.26386 3.61272,10.36108 l -0.72058,4.81778 c -1.20506,4.82271 -4.09721,8.43544 -8.19442,10.36108 -4.33822,2.41012 -8.67398,2.89215 -13.49423,1.20506 -2.89215,-0.72058 -4.81779,-1.92564 -6.50733,-3.85128 l -25.30139,-20.96562 1.68709,-3.612726 0.7255,-2.894608 0,0 z"
     style="fill:#48f600;fill-opacity:0.25438598"
     id="path12"
     inkscape:export-filename="D:\studyworkspace\Asia\res\drawable\icq_angry_80.png"
     inkscape:export-xdpi="39.330894"
     inkscape:export-ydpi="39.330894" />
  <path
     d="m 57.219823,96.380359 1.687087,4.820251 0.723037,1.68708 c -3.615186,3.13071 -6.266322,6.02285 -9.156011,8.67399 l -7.230371,6.02531 -1.928099,1.20506 c -4.579236,2.16665 -8.432973,2.89215 -12.530183,2.40767 -3.61519,-0.24102 -6.50734,-1.44608 -7.7124,-3.61273 l -0.72304,-2.65114 0.48203,-2.16665 c 1.20506,-3.61764 4.33822,-7.22791 9.88151,-9.88151 2.88969,-1.20506 5.29981,-2.41012 7.227909,-2.892145 l 19.278531,-3.615186 0,0 z"
     style="fill:#ff001c;fill-opacity:0.24122807"
     id="path14"
     inkscape:export-filename="D:\studyworkspace\Asia\res\drawable\icq_angry_80.png"
     inkscape:export-xdpi="39.330894"
     inkscape:export-ydpi="39.330894" />
  <path
     d="m 70.95507,80.237448 c 2.889689,-2.651136 6.745887,-4.335764 11.325122,-4.335764 4.338223,0 8.432974,1.687087 11.08411,4.335764 3.374174,3.374173 4.820248,6.989359 4.820248,11.325123 0,4.335763 -1.446074,8.432974 -4.820248,11.325119 -3.133161,3.13071 -6.745887,4.81779 -11.08411,4.81779 -4.579235,0 -8.435433,-1.68708 -11.325122,-4.81779 -3.133161,-2.892145 -4.817789,-6.989356 -4.817789,-11.325119 0,-4.335764 1.684628,-7.95095 4.817789,-11.325123 l 0,0 z"
     style="fill:#fdfb12;fill-opacity:0.34210527"
     id="path16"
     inkscape:export-filename="D:\studyworkspace\Asia\res\drawable\icq_angry_80.png"
     inkscape:export-xdpi="39.330894"
     inkscape:export-ydpi="39.330894" />
  <g
     id="g3317"
     transform="matrix(0.5241906,0,0,0.4862152,328.65743,95.267191)">
    <path
       id="path4071"
       d="M -573.43536,35.023694 L -487.16632,63.357153 L -487.16632,51.939192 L -574.28114,21.914183 L -577.66424,24.451508 L -578.9329,26.988833 L -578.51001,30.371932 L -577.66424,33.332144 L -573.43536,35.023694 z"
       style="fill:#000000;fill-opacity:0.99122805;fill-rule:evenodd;stroke:#000000;stroke-width:1px;stroke-linecap:butt;stroke-linejoin:miter;stroke-opacity:1" />
    <path
       id="path4073"
       d="M -550.388,28.680383 L -464.11896,57.013842 L -464.11896,45.595881 L -551.23378,15.570872 L -554.61688,18.108197 L -555.88554,20.645522 L -555.46265,24.028621 L -554.61688,26.988833 L -550.388,28.680383 z"
       style="fill:#000000;fill-opacity:0.99122805;fill-rule:evenodd;stroke:#000000;stroke-width:1px;stroke-linecap:butt;stroke-linejoin:miter;stroke-opacity:1" />
    <g
       transform="translate(-326.4691,0.8457749)"
       id="g4085">
      <path
         style="fill:none;fill-rule:evenodd;stroke:#000000;stroke-width:1px;stroke-linecap:butt;stroke-linejoin:miter;stroke-opacity:1"
         d="M -226.66767,91.690612 L 25.796134,15.147984 L 18.18416,14.302209 L -233.43387,90.42195 L -226.66767,91.690612 z"
         id="path4079" />
      <path
         style="fill:#000000;fill-opacity:0.99122805;fill-rule:evenodd;stroke:#000000;stroke-width:1px;stroke-linecap:butt;stroke-linejoin:miter;stroke-opacity:1"
         d="M -227.09056,91.690612 L 25.796134,15.147984 L 25.373247,19.799746 L -228.35922,97.188149 L -227.09056,91.690612 z"
         id="path4081" />
      <path
         style="fill:#000000;fill-opacity:0.99122805;fill-rule:evenodd;stroke:#000000;stroke-width:1px;stroke-linecap:butt;stroke-linejoin:miter;stroke-opacity:1"
         d="M -233.01098,89.999062 L -234.27965,97.188149 L -229.62788,97.188149 L -227.93633,97.611036 L -227.09056,92.113499 L -233.01098,89.999062 z"
         id="path4083" />
    </g>
    <g
       transform="matrix(0.7042037,0,0,0.678355,-370.73234,4.5140979)"
       id="g3998">
      <path
         sodipodi:type="arc"
         style="fill:#aeaeae;fill-opacity:0.99122805;fill-rule:nonzero;stroke:#000000;stroke-width:3;stroke-linecap:round;stroke-linejoin:round;stroke-miterlimit:4;stroke-dasharray:none;stroke-opacity:1"
         id="path4000"
         sodipodi:cx="-142.09018"
         sodipodi:cy="69.27758"
         sodipodi:rx="16.069723"
         sodipodi:ry="22.835922"
         d="m -126.02046,69.27758 c 0,12.611932 -7.19466,22.835923 -16.06972,22.835923 -8.87506,0 -16.06972,-10.223991 -16.06972,-22.835923 0,-12.611931 7.19466,-22.835922 16.06972,-22.835922 8.87506,0 16.06972,10.223991 16.06972,22.835922 z" />
      <path
         sodipodi:type="arc"
         style="fill:#aeaeae;fill-opacity:0.99122805;fill-rule:nonzero;stroke:#000000;stroke-width:3;stroke-linecap:round;stroke-linejoin:round;stroke-miterlimit:4;stroke-dasharray:none;stroke-opacity:1"
         id="path4002"
         sodipodi:cx="-142.09018"
         sodipodi:cy="69.27758"
         sodipodi:rx="16.069723"
         sodipodi:ry="22.835922"
         d="m -126.02046,69.27758 c 0,12.611932 -7.19466,22.835923 -16.06972,22.835923 -8.87506,0 -16.06972,-10.223991 -16.06972,-22.835923 0,-12.611931 7.19466,-22.835922 16.06972,-22.835922 8.87506,0 16.06972,10.223991 16.06972,22.835922 z"
         transform="translate(6.3433094,1.268659)" />
      <path
         sodipodi:type="arc"
         style="fill:#aeaeae;fill-opacity:0.99122805;fill-rule:nonzero;stroke:#000000;stroke-width:3;stroke-linecap:round;stroke-linejoin:round;stroke-miterlimit:4;stroke-dasharray:none;stroke-opacity:1"
         id="path4004"
         sodipodi:cx="-129.61501"
         sodipodi:cy="75.620888"
         sodipodi:rx="11.629405"
         sodipodi:ry="15.646835"
         d="m -117.9856,75.620888 c 0,8.641508 -5.20666,15.646835 -11.62941,15.646835 -6.42274,0 -11.6294,-7.005327 -11.6294,-15.646835 0,-8.641509 5.20666,-15.646836 11.6294,-15.646836 6.42275,0 11.62941,7.005327 11.62941,15.646836 z"
         transform="matrix(0.8122134,0,0,1.0090775,-33.00915,-5.7611016)" />
    </g>
    <g
       transform="translate(-405.2316,-27.412807)"
       id="g4090">
      <path
         style="fill:none;fill-rule:evenodd;stroke:#000000;stroke-width:1px;stroke-linecap:butt;stroke-linejoin:miter;stroke-opacity:1"
         d="M -226.66767,91.690612 L 25.796134,15.147984 L 18.18416,14.302209 L -233.43387,90.42195 L -226.66767,91.690612 z"
         id="path4092" />
      <path
         style="fill:#000000;fill-opacity:0.99122805;fill-rule:evenodd;stroke:#000000;stroke-width:1px;stroke-linecap:butt;stroke-linejoin:miter;stroke-opacity:1"
         d="M -227.09056,91.690612 L 25.796134,15.147984 L 25.373247,19.799746 L -228.35922,97.188149 L -227.09056,91.690612 z"
         id="path4094" />
      <path
         style="fill:#000000;fill-opacity:0.99122805;fill-rule:evenodd;stroke:#000000;stroke-width:1px;stroke-linecap:butt;stroke-linejoin:miter;stroke-opacity:1"
         d="M -233.01098,89.999062 L -234.27965,97.188149 L -229.62788,97.188149 L -227.93633,97.611036 L -227.09056,92.113499 L -233.01098,89.999062 z"
         id="path4096" />
    </g>
    <path
       id="path4075"
       d="M -458.19854,-0.49885193 L -371.9295,27.834608 L -371.9295,16.416647 L -459.04432,-13.608363 L -462.42742,-11.071038 L -463.69608,-8.5337129 L -463.27319,-5.1506139 L -462.42742,-2.1904019 L -458.19854,-0.49885193 z"
       style="fill:#000000;fill-opacity:0.99122805;fill-rule:evenodd;stroke:#000000;stroke-width:1px;stroke-linecap:butt;stroke-linejoin:miter;stroke-opacity:1" />
    <g
       transform="matrix(0.7042037,0,0,0.678355,-393.99116,9.8001929)"
       id="g3985">
      <path
         sodipodi:type="arc"
         style="fill:#aeaeae;fill-opacity:0.99122805;fill-rule:nonzero;stroke:#000000;stroke-width:3;stroke-linecap:round;stroke-linejoin:round;stroke-miterlimit:4;stroke-dasharray:none;stroke-opacity:1"
         id="path3979"
         sodipodi:cx="-142.09018"
         sodipodi:cy="69.27758"
         sodipodi:rx="16.069723"
         sodipodi:ry="22.835922"
         d="m -126.02046,69.27758 c 0,12.611932 -7.19466,22.835923 -16.06972,22.835923 -8.87506,0 -16.06972,-10.223991 -16.06972,-22.835923 0,-12.611931 7.19466,-22.835922 16.06972,-22.835922 8.87506,0 16.06972,10.223991 16.06972,22.835922 z" />
      <path
         sodipodi:type="arc"
         style="fill:#aeaeae;fill-opacity:0.99122805;fill-rule:nonzero;stroke:#000000;stroke-width:3;stroke-linecap:round;stroke-linejoin:round;stroke-miterlimit:4;stroke-dasharray:none;stroke-opacity:1"
         id="path3981"
         sodipodi:cx="-142.09018"
         sodipodi:cy="69.27758"
         sodipodi:rx="16.069723"
         sodipodi:ry="22.835922"
         d="m -126.02046,69.27758 c 0,12.611932 -7.19466,22.835923 -16.06972,22.835923 -8.87506,0 -16.06972,-10.223991 -16.06972,-22.835923 0,-12.611931 7.19466,-22.835922 16.06972,-22.835922 8.87506,0 16.06972,10.223991 16.06972,22.835922 z"
         transform="translate(6.3433094,1.268659)" />
      <path
         sodipodi:type="arc"
         style="fill:#aeaeae;fill-opacity:0.99122805;fill-rule:nonzero;stroke:#000000;stroke-width:3;stroke-linecap:round;stroke-linejoin:round;stroke-miterlimit:4;stroke-dasharray:none;stroke-opacity:1"
         id="path3983"
         sodipodi:cx="-129.61501"
         sodipodi:cy="75.620888"
         sodipodi:rx="11.629405"
         sodipodi:ry="15.646835"
         d="m -117.9856,75.620888 c 0,8.641508 -5.20666,15.646835 -11.62941,15.646835 -6.42274,0 -11.6294,-7.005327 -11.6294,-15.646835 0,-8.641509 5.20666,-15.646836 11.6294,-15.646836 6.42275,0 11.62941,7.005327 11.62941,15.646836 z"
         transform="matrix(0.8122134,0,0,1.0090775,-33.00915,-5.7611016)" />
    </g>
    <path
       id="path4077"
       d="M -434.51684,-6.4192758 L -348.2478,21.914183 L -348.2478,10.496221 L -435.36262,-19.528786 L -438.74572,-16.991461 L -440.01438,-14.454136 L -439.59149,-11.071038 L -438.74572,-8.1108258 L -434.51684,-6.4192758 z"
       style="fill:#000000;fill-opacity:0.99122805;fill-rule:evenodd;stroke:#000000;stroke-width:1px;stroke-linecap:butt;stroke-linejoin:miter;stroke-opacity:1" />
    <g
       transform="matrix(0.7042037,0,0,0.678355,-255.28407,-31.431335)"
       id="g4022">
      <path
         sodipodi:type="arc"
         style="fill:#aeaeae;fill-opacity:0.99122805;fill-rule:nonzero;stroke:#000000;stroke-width:3;stroke-linecap:round;stroke-linejoin:round;stroke-miterlimit:4;stroke-dasharray:none;stroke-opacity:1"
         id="path4024"
         sodipodi:cx="-142.09018"
         sodipodi:cy="69.27758"
         sodipodi:rx="16.069723"
         sodipodi:ry="22.835922"
         d="m -126.02046,69.27758 c 0,12.611932 -7.19466,22.835923 -16.06972,22.835923 -8.87506,0 -16.06972,-10.223991 -16.06972,-22.835923 0,-12.611931 7.19466,-22.835922 16.06972,-22.835922 8.87506,0 16.06972,10.223991 16.06972,22.835922 z" />
      <path
         sodipodi:type="arc"
         style="fill:#aeaeae;fill-opacity:0.99122805;fill-rule:nonzero;stroke:#000000;stroke-width:3;stroke-linecap:round;stroke-linejoin:round;stroke-miterlimit:4;stroke-dasharray:none;stroke-opacity:1"
         id="path4026"
         sodipodi:cx="-142.09018"
         sodipodi:cy="69.27758"
         sodipodi:rx="16.069723"
         sodipodi:ry="22.835922"
         d="m -126.02046,69.27758 c 0,12.611932 -7.19466,22.835923 -16.06972,22.835923 -8.87506,0 -16.06972,-10.223991 -16.06972,-22.835923 0,-12.611931 7.19466,-22.835922 16.06972,-22.835922 8.87506,0 16.06972,10.223991 16.06972,22.835922 z"
         transform="translate(6.3433094,1.268659)" />
      <path
         sodipodi:type="arc"
         style="fill:#aeaeae;fill-opacity:0.99122805;fill-rule:nonzero;stroke:#000000;stroke-width:3;stroke-linecap:round;stroke-linejoin:round;stroke-miterlimit:4;stroke-dasharray:none;stroke-opacity:1"
         id="path4028"
         sodipodi:cx="-129.61501"
         sodipodi:cy="75.620888"
         sodipodi:rx="11.629405"
         sodipodi:ry="15.646835"
         d="m -117.9856,75.620888 c 0,8.641508 -5.20666,15.646835 -11.62941,15.646835 -6.42274,0 -11.6294,-7.005327 -11.6294,-15.646835 0,-8.641509 5.20666,-15.646836 11.6294,-15.646836 6.42275,0 11.62941,7.005327 11.62941,15.646836 z"
         transform="matrix(0.8122134,0,0,1.0090775,-33.00915,-5.7611016)" />
    </g>
    <g
       transform="matrix(0.7042037,0,0,0.678355,-278.54288,-25.088023)"
       id="g4006">
      <path
         sodipodi:type="arc"
         style="fill:#aeaeae;fill-opacity:0.99122805;fill-rule:nonzero;stroke:#000000;stroke-width:3;stroke-linecap:round;stroke-linejoin:round;stroke-miterlimit:4;stroke-dasharray:none;stroke-opacity:1"
         id="path4008"
         sodipodi:cx="-142.09018"
         sodipodi:cy="69.27758"
         sodipodi:rx="16.069723"
         sodipodi:ry="22.835922"
         d="m -126.02046,69.27758 c 0,12.611932 -7.19466,22.835923 -16.06972,22.835923 -8.87506,0 -16.06972,-10.223991 -16.06972,-22.835923 0,-12.611931 7.19466,-22.835922 16.06972,-22.835922 8.87506,0 16.06972,10.223991 16.06972,22.835922 z" />
      <path
         sodipodi:type="arc"
         style="fill:#aeaeae;fill-opacity:0.99122805;fill-rule:nonzero;stroke:#000000;stroke-width:3;stroke-linecap:round;stroke-linejoin:round;stroke-miterlimit:4;stroke-dasharray:none;stroke-opacity:1"
         id="path4010"
         sodipodi:cx="-142.09018"
         sodipodi:cy="69.27758"
         sodipodi:rx="16.069723"
         sodipodi:ry="22.835922"
         d="m -126.02046,69.27758 c 0,12.611932 -7.19466,22.835923 -16.06972,22.835923 -8.87506,0 -16.06972,-10.223991 -16.06972,-22.835923 0,-12.611931 7.19466,-22.835922 16.06972,-22.835922 8.87506,0 16.06972,10.223991 16.06972,22.835922 z"
         transform="translate(6.3433094,1.268659)" />
      <path
         sodipodi:type="arc"
         style="fill:#aeaeae;fill-opacity:0.99122805;fill-rule:nonzero;stroke:#000000;stroke-width:3;stroke-linecap:round;stroke-linejoin:round;stroke-miterlimit:4;stroke-dasharray:none;stroke-opacity:1"
         id="path4012"
         sodipodi:cx="-129.61501"
         sodipodi:cy="75.620888"
         sodipodi:rx="11.629405"
         sodipodi:ry="15.646835"
         d="m -117.9856,75.620888 c 0,8.641508 -5.20666,15.646835 -11.62941,15.646835 -6.42274,0 -11.6294,-7.005327 -11.6294,-15.646835 0,-8.641509 5.20666,-15.646836 11.6294,-15.646836 6.42275,0 11.62941,7.005327 11.62941,15.646836 z"
         transform="matrix(0.8122134,0,0,1.0090775,-33.00915,-5.7611016)" />
    </g>
    <g
       transform="matrix(0.7042037,0,0,0.678355,-476.03132,-17.89894)"
       id="g4014">
      <path
         sodipodi:type="arc"
         style="fill:#aeaeae;fill-opacity:0.99122805;fill-rule:nonzero;stroke:#000000;stroke-width:3;stroke-linecap:round;stroke-linejoin:round;stroke-miterlimit:4;stroke-dasharray:none;stroke-opacity:1"
         id="path4016"
         sodipodi:cx="-142.09018"
         sodipodi:cy="69.27758"
         sodipodi:rx="16.069723"
         sodipodi:ry="22.835922"
         d="m -126.02046,69.27758 c 0,12.611932 -7.19466,22.835923 -16.06972,22.835923 -8.87506,0 -16.06972,-10.223991 -16.06972,-22.835923 0,-12.611931 7.19466,-22.835922 16.06972,-22.835922 8.87506,0 16.06972,10.223991 16.06972,22.835922 z" />
      <path
         sodipodi:type="arc"
         style="fill:#aeaeae;fill-opacity:0.99122805;fill-rule:nonzero;stroke:#000000;stroke-width:3;stroke-linecap:round;stroke-linejoin:round;stroke-miterlimit:4;stroke-dasharray:none;stroke-opacity:1"
         id="path4018"
         sodipodi:cx="-142.09018"
         sodipodi:cy="69.27758"
         sodipodi:rx="16.069723"
         sodipodi:ry="22.835922"
         d="m -126.02046,69.27758 c 0,12.611932 -7.19466,22.835923 -16.06972,22.835923 -8.87506,0 -16.06972,-10.223991 -16.06972,-22.835923 0,-12.611931 7.19466,-22.835922 16.06972,-22.835922 8.87506,0 16.06972,10.223991 16.06972,22.835922 z"
         transform="translate(6.3433094,1.268659)" />
      <path
         sodipodi:type="arc"
         style="fill:#aeaeae;fill-opacity:0.99122805;fill-rule:nonzero;stroke:#000000;stroke-width:3;stroke-linecap:round;stroke-linejoin:round;stroke-miterlimit:4;stroke-dasharray:none;stroke-opacity:1"
         id="path4020"
         sodipodi:cx="-129.61501"
         sodipodi:cy="75.620888"
         sodipodi:rx="11.629405"
         sodipodi:ry="15.646835"
         d="m -117.9856,75.620888 c 0,8.641508 -5.20666,15.646835 -11.62941,15.646835 -6.42274,0 -11.6294,-7.005327 -11.6294,-15.646835 0,-8.641509 5.20666,-15.646836 11.6294,-15.646836 6.42275,0 11.62941,7.005327 11.62941,15.646836 z"
         transform="matrix(0.8122134,0,0,1.0090775,-33.00915,-5.7611016)" />
    </g>
    <g
       transform="translate(-226.24477,175.92117)"
       id="g4066">
      <path
         style="fill:#000000;fill-opacity:0.99122805;fill-rule:evenodd;stroke:#000000;stroke-width:0.19310866px;stroke-linecap:butt;stroke-linejoin:miter;stroke-opacity:1"
         d="M -338.71339,-142.69278 L -338.63211,-122.09843 L -327.41561,-125.3804 L -327.33433,-145.31836 L -338.71339,-142.69278 z"
         id="path4060" />
      <path
         style="fill:#000000;fill-opacity:0.99122805;fill-rule:evenodd;stroke:#000000;stroke-width:0.18482302px;stroke-linecap:butt;stroke-linejoin:miter;stroke-opacity:1"
         d="M -351.96544,-146.17312 L -352.03851,-126.85989 L -338.82121,-122.09429 L -338.74815,-142.82884 L -352.03851,-146.59115 L -351.96544,-146.17312 z"
         id="path4062"
         sodipodi:nodetypes="cccccc" />
      <path
         style="fill:#000000;fill-opacity:0.99122805;fill-rule:evenodd;stroke:#000000;stroke-width:1px;stroke-linecap:butt;stroke-linejoin:miter;stroke-opacity:1"
         d="M -352.0538,-146.81791 L -339.57862,-149.35523 L -327.31488,-145.76069 L -327.10344,-145.54925 L -338.73285,-143.01192 L -352.0538,-146.81791 z"
         id="path4064" />
    </g>
    <path
       sodipodi:nodetypes="ccccc"
       id="path3973"
       d="M -606.49447,19.837211 L -606.18761,-91.493524 L -520.50057,-71.166563 L -520.80742,48.207076 L -606.49447,19.837211 z"
       style="fill:#b85d01;fill-opacity:0.99122805;fill-rule:evenodd;stroke:#000000;stroke-width:0.85225731px;stroke-linecap:butt;stroke-linejoin:miter;stroke-opacity:1" />
    <path
       sodipodi:nodetypes="ccccc"
       id="path3975"
       d="M -520.99733,-71.543942 L -329.42931,-114.25558 L -420.773,-127.78799 L -605.9977,-91.419656 L -520.99733,-71.543942 z"
       style="fill:#b85d01;fill-opacity:0.99122805;fill-rule:evenodd;stroke:#000000;stroke-width:1px;stroke-linecap:butt;stroke-linejoin:miter;stroke-opacity:1" />
    <path
       sodipodi:nodetypes="ccccc"
       id="path3977"
       d="M -520.99733,48.133205 L -328.58354,-8.9566005 L -329.00642,-114.25558 L -520.99733,-71.543942 L -520.99733,48.133205 z"
       style="fill:#b85d01;fill-opacity:0.99122805;fill-rule:evenodd;stroke:#000000;stroke-width:1px;stroke-linecap:butt;stroke-linejoin:miter;stroke-opacity:1" />
    <path
       id="path4030"
       d="M -564.97762,-82.116129 L -381.44447,-121.86755"
       style="fill:none;fill-rule:evenodd;stroke:#000000;stroke-width:1px;stroke-linecap:butt;stroke-linejoin:miter;stroke-opacity:1" />
    <path
       id="path4032"
       d="M -601.34594,-82.539016 L -601.76883,15.147984 L -526.49486,39.252569 L -526.07197,-65.623518 L -601.76883,-84.653453 L -601.34594,-82.539016 z"
       style="fill:none;fill-rule:evenodd;stroke:#000000;stroke-width:1px;stroke-linecap:butt;stroke-linejoin:miter;stroke-opacity:1" />
    <path
       id="path4034"
       d="M -516.76845,-66.469293 L -516.34556,39.675456 L -457.9871,22.759958 L -457.56421,-80.001692 L -516.76845,-66.469293 z"
       style="fill:none;fill-rule:evenodd;stroke:#000000;stroke-width:1px;stroke-linecap:butt;stroke-linejoin:miter;stroke-opacity:1" />
    <path
       id="path4036"
       d="M -392.45551,-95.464382 L -392.03239,3.9574297 L -333.64246,-11.886683 L -333.21934,-108.13968 L -392.45551,-95.464382 z"
       style="fill:none;fill-rule:evenodd;stroke:#000000;stroke-width:0.9680742px;stroke-linecap:butt;stroke-linejoin:miter;stroke-opacity:1" />
    <path
       id="path4038"
       d="M -601.87258,14.938104 L -601.87258,10.602219 L -531.90036,-66.995179 L -526.21886,-65.64956 L -526.06934,-58.622435 L -594.54643,17.180803 L -601.87258,14.938104 z"
       style="fill:#000000;fill-opacity:0.99122805;fill-rule:evenodd;stroke:#000000;stroke-width:1px;stroke-linecap:butt;stroke-linejoin:miter;stroke-opacity:1" />
    <path
       id="path4040"
       d="M -601.57356,-84.637748 L -601.42404,-79.105756 L -531.75085,37.365098 L -526.51788,39.159257 L -526.51788,31.08554 L -596.34059,-83.441641 L -601.57356,-84.637748 z"
       style="fill:#000000;fill-opacity:0.99122805;fill-rule:evenodd;stroke:#000000;stroke-width:1px;stroke-linecap:butt;stroke-linejoin:miter;stroke-opacity:1" />
    <path
       id="path4042"
       d="M -516.50049,35.720452 L -461.33009,-79.255269 L -457.59226,-80.002836 L -457.59226,-74.620357 L -510.81899,38.112664 L -516.20147,39.75731 L -516.50049,35.720452 z"
       style="fill:#000000;fill-opacity:0.99122805;fill-rule:evenodd;stroke:#000000;stroke-width:1px;stroke-linecap:butt;stroke-linejoin:miter;stroke-opacity:1" />
    <path
       id="path4044"
       d="M -392.40446,-95.552218 L -392.55397,-91.216332 L -337.23406,-11.077208 L -333.94476,-11.824775 L -333.64574,-16.758714 L -387.76955,-96.449298 L -392.40446,-95.552218 z"
       style="fill:#000000;fill-opacity:0.99122805;fill-rule:evenodd;stroke:#000000;stroke-width:1px;stroke-linecap:butt;stroke-linejoin:miter;stroke-opacity:1" />
    <path
       id="path4046"
       d="M -455.02515,-82.653477 L -454.60228,24.238325 L -396.24725,7.2037752 L -395.82438,-96.281119 L -455.02515,-82.653477 z"
       style="fill:#000000;fill-opacity:0.99122805;fill-rule:evenodd;stroke:#000000;stroke-width:1.0034833px;stroke-linecap:butt;stroke-linejoin:miter;stroke-opacity:1" />
    <path
       id="path4048"
       d="M -542.98747,-77.041479 L -354.80256,-118.48445"
       style="fill:none;fill-rule:evenodd;stroke:#000000;stroke-width:1px;stroke-linecap:butt;stroke-linejoin:miter;stroke-opacity:1" />
    <path
       id="path4050"
       d="M -586.12199,-87.190778 L -401.32018,-125.25065"
       style="fill:none;fill-rule:evenodd;stroke:#000000;stroke-width:1px;stroke-linecap:butt;stroke-linejoin:miter;stroke-opacity:1" />
  </g>
  <g
     id="g3369"
     transform="matrix(0.3835965,0,0,0.3554313,252.36966,15.224565)">
    <path
       id="path2461"
       d="M -361.82215,198.74124 L -361.82215,320.14603 L -299.02657,336.29347 L -299.02657,210.10425 L -361.82215,198.74124 z"
       style="fill:#fff1c1;fill-opacity:1;fill-rule:evenodd;stroke:#000000;stroke-width:1px;stroke-linecap:butt;stroke-linejoin:miter;stroke-opacity:1" />
    <path
       id="path2463"
       d="M -361.99164,198.25825 L -316.3198,183.88008 L -253.73246,193.60649 L -299.4043,210.0991 L -298.98142,336.11955 L -255.8469,318.35828 L -254.57824,193.1836 L -298.98142,210.0991 L -361.99164,198.25825 z"
       style="fill:#fff1c1;fill-opacity:1;fill-rule:evenodd;stroke:#000000;stroke-width:1px;stroke-linecap:butt;stroke-linejoin:miter;stroke-opacity:1" />
    <path
       id="path2477"
       d="M -358.18566,203.75578 L -358.18566,317.08962 L -303.21029,331.0449 L -303.21029,212.63642 L -358.18566,203.75578 z"
       style="fill:none;fill-rule:evenodd;stroke:#000000;stroke-width:1px;stroke-linecap:butt;stroke-linejoin:miter;stroke-opacity:1" />
    <path
       id="path2479"
       d="M -296.0212,213.05931 L -296.0212,331.46779 L -259.23,316.24384 L -258.38422,198.25825 L -296.0212,213.05931 z"
       style="fill:none;fill-rule:evenodd;stroke:#000000;stroke-width:1px;stroke-linecap:butt;stroke-linejoin:miter;stroke-opacity:1" />
    <path
       id="path2481"
       d="M -348.03636,205.44733 L -348.03636,319.20405"
       style="fill:none;fill-rule:evenodd;stroke:#000000;stroke-width:1px;stroke-linecap:butt;stroke-linejoin:miter;stroke-opacity:1" />
    <path
       id="path2483"
       d="M -335.77262,207.13888 L -335.77262,322.16427"
       style="fill:none;fill-rule:evenodd;stroke:#000000;stroke-width:1px;stroke-linecap:butt;stroke-linejoin:miter;stroke-opacity:1" />
    <path
       id="path2485"
       d="M -322.66311,209.25332 L -323.93178,325.54737"
       style="fill:none;fill-rule:evenodd;stroke:#000000;stroke-width:1px;stroke-linecap:butt;stroke-linejoin:miter;stroke-opacity:1" />
    <path
       id="path2487"
       d="M -309.97649,211.79065 L -310.39938,327.6618"
       style="fill:none;fill-rule:evenodd;stroke:#000000;stroke-width:1px;stroke-linecap:butt;stroke-linejoin:miter;stroke-opacity:1" />
    <path
       id="path2489"
       d="M -287.14057,209.67621 L -287.14057,326.81603"
       style="fill:none;fill-rule:evenodd;stroke:#000000;stroke-width:1px;stroke-linecap:butt;stroke-linejoin:miter;stroke-opacity:1" />
    <path
       id="path2491"
       d="M -275.72261,205.02445 L -276.14549,322.58715"
       style="fill:none;fill-rule:evenodd;stroke:#000000;stroke-width:1px;stroke-linecap:butt;stroke-linejoin:miter;stroke-opacity:1" />
    <path
       id="path2493"
       d="M -265.9962,201.21846 L -265.57331,318.35828"
       style="fill:none;fill-rule:evenodd;stroke:#000000;stroke-width:1px;stroke-linecap:butt;stroke-linejoin:miter;stroke-opacity:1" />
    <path
       id="path3311"
       d="M -292.14896,276.78718 L -292.14896,298.31709 L -261.94728,287.55214 L -261.94728,267.21833 L -292.14896,276.78718 z"
       style="fill:#ffffff;fill-opacity:1;fill-rule:evenodd;stroke:#000000;stroke-width:1px;stroke-linecap:butt;stroke-linejoin:miter;stroke-opacity:1" />
  </g>
  <g
     id="g3383"
     transform="matrix(0.4300101,0,0,0.4163025,187.17248,30.766983)">
    <path
       sodipodi:nodetypes="ccccc"
       id="path2465"
       d="M -195.79688,285.37306 L -195.79688,239.27833 L -114.60249,239.27833 L -114.6025,285.37306 L -195.79688,285.37306 z"
       style="fill:#fff1da;fill-opacity:1;fill-rule:evenodd;stroke:#000000;stroke-width:1px;stroke-linecap:butt;stroke-linejoin:miter;stroke-opacity:1" />
    <path
       sodipodi:nodetypes="ccccccccc"
       id="path2467"
       d="M -196.00832,239.48977 L -160.69723,219.82551 L -77.176957,220.67128 L -114.60249,238.85544 L -114.60249,284.95017 L -77.388401,267.1889 L -77.176957,220.67128 L -114.60249,238.85544 L -196.00832,239.48977 z"
       style="fill:#fff1da;fill-opacity:1;fill-rule:evenodd;stroke:#000000;stroke-width:1px;stroke-linecap:butt;stroke-linejoin:miter;stroke-opacity:1" />
    <path
       id="path2511"
       d="M -185.85903,248.37041 L -185.85903,276.91531 L -123.48313,277.12675 L -123.48313,247.73608 L -185.85903,248.37041 z"
       style="fill:none;fill-rule:evenodd;stroke:#000000;stroke-width:1px;stroke-linecap:butt;stroke-linejoin:miter;stroke-opacity:1" />
    <path
       id="path2513"
       d="M -106.35619,244.35298 L -106.35619,272.89788 L -83.308825,262.32569 L -82.885937,233.99224 L -106.35619,244.35298 z"
       style="fill:none;fill-rule:evenodd;stroke:#000000;stroke-width:1px;stroke-linecap:butt;stroke-linejoin:miter;stroke-opacity:1" />
    <path
       id="path2519"
       d="M -172.23931,248.37965 L -171.64125,276.48815"
       style="fill:none;fill-rule:evenodd;stroke:#000000;stroke-width:1px;stroke-linecap:butt;stroke-linejoin:miter;stroke-opacity:1" />
    <path
       id="path2521"
       d="M -155.49382,247.7816 L -156.09187,277.08621"
       style="fill:none;fill-rule:evenodd;stroke:#000000;stroke-width:1px;stroke-linecap:butt;stroke-linejoin:miter;stroke-opacity:1" />
    <path
       id="path2523"
       d="M -139.94444,247.7816 L -139.94444,277.08621"
       style="fill:none;fill-rule:evenodd;stroke:#000000;stroke-width:1px;stroke-linecap:butt;stroke-linejoin:miter;stroke-opacity:1" />
    <path
       id="path2525"
       d="M -99.874875,241.20302 L -99.874875,269.31151"
       style="fill:none;fill-rule:evenodd;stroke:#000000;stroke-width:1px;stroke-linecap:butt;stroke-linejoin:miter;stroke-opacity:1" />
    <path
       id="path2527"
       d="M -90.904078,237.01664 L -90.904078,265.12514"
       style="fill:none;fill-rule:evenodd;stroke:#000000;stroke-width:1px;stroke-linecap:butt;stroke-linejoin:miter;stroke-opacity:1" />
    <path
       id="path3313"
       d="M -185.99453,271.70373 L -128.88045,247.7816 L -123.49797,247.48257 L -123.19895,252.267 L -182.10718,277.08621 L -185.39648,276.78718 L -185.99453,271.70373 z"
       style="fill:#fff1da;fill-opacity:1;fill-rule:evenodd;stroke:#000000;stroke-width:1px;stroke-linecap:butt;stroke-linejoin:miter;stroke-opacity:1" />
    <path
       id="path3315"
       d="M -106.45346,247.7816 L -85.5216,262.73293 L -83.129387,262.13488 L -83.129387,259.44364 L -104.06125,243.59523 L -106.45346,244.19328 L -106.45346,247.7816 z"
       style="fill:#fff1da;fill-opacity:1;fill-rule:evenodd;stroke:#000000;stroke-width:1px;stroke-linecap:butt;stroke-linejoin:miter;stroke-opacity:1" />
  </g>
  <g
     id="g3396"
     transform="matrix(0.2888243,0,0,0.3047576,138.22297,24.841089)">
    <path
       id="path2469"
       d="M -47.78628,312.01497 L -47.78628,352.61216 L 32.562332,345.42308 L 32.562332,304.40299 L -47.78628,312.01497 z"
       style="fill:#fff19d;fill-opacity:1;fill-rule:evenodd;stroke:#000000;stroke-width:1px;stroke-linecap:butt;stroke-linejoin:miter;stroke-opacity:1" />
    <path
       id="path2471"
       d="M -48.209168,352.18927 L -93.881011,334.00511 L -93.881011,294.2537 L -48.209168,311.16919 L 32.139445,303.98011 L -8.0348613,287.91038 L -94.303898,293.83081 L -46.940505,312.01497 L -48.209168,352.18927 z"
       style="fill:#fff19d;fill-opacity:1;fill-rule:evenodd;stroke:#000000;stroke-width:1px;stroke-linecap:butt;stroke-linejoin:miter;stroke-opacity:1" />
    <path
       id="path2515"
       d="M -89.652136,301.0199 L -89.86358,330.62202 L -53.072373,345.42308 L -52.860929,314.76374 L -89.652136,301.0199 z"
       style="fill:none;fill-rule:evenodd;stroke:#000000;stroke-width:1px;stroke-linecap:butt;stroke-linejoin:miter;stroke-opacity:1" />
    <path
       id="path2517"
       d="M -42.500187,316.0324 L -42.923075,347.53751 L 27.910571,341.40565 L 27.910571,309.05476 L -42.500187,316.0324 z"
       style="fill:none;fill-rule:evenodd;stroke:#000000;stroke-width:1px;stroke-linecap:butt;stroke-linejoin:miter;stroke-opacity:1" />
    <path
       id="path2529"
       d="M -80.139122,305.1947 L -80.139122,334.49931"
       style="fill:none;fill-rule:evenodd;stroke:#000000;stroke-width:1px;stroke-linecap:butt;stroke-linejoin:miter;stroke-opacity:1" />
    <path
       id="path2531"
       d="M -65.785846,310.57718 L -66.383899,339.88179"
       style="fill:none;fill-rule:evenodd;stroke:#000000;stroke-width:1px;stroke-linecap:butt;stroke-linejoin:miter;stroke-opacity:1" />
    <path
       id="path2533"
       d="M -29.902657,314.76355 L -29.902657,345.86232"
       style="fill:none;fill-rule:evenodd;stroke:#000000;stroke-width:1px;stroke-linecap:butt;stroke-linejoin:miter;stroke-opacity:1" />
    <path
       id="path2535"
       d="M -16.147435,312.96939 L -16.745488,344.66621"
       style="fill:none;fill-rule:evenodd;stroke:#000000;stroke-width:1px;stroke-linecap:butt;stroke-linejoin:miter;stroke-opacity:1" />
    <path
       id="path2537"
       d="M -0.59805315,311.77329 L -1.1961063,344.06816"
       style="fill:none;fill-rule:evenodd;stroke:#000000;stroke-width:1px;stroke-linecap:butt;stroke-linejoin:miter;stroke-opacity:1" />
    <path
       id="path2539"
       d="M 13.157169,309.97913 L 12.559116,342.274"
       style="fill:none;fill-rule:evenodd;stroke:#000000;stroke-width:1px;stroke-linecap:butt;stroke-linejoin:miter;stroke-opacity:1" />
  </g>
  <g
     id="g3446"
     transform="matrix(0.5241906,0,0,0.4862152,188.38667,80.304418)">
    <path
       id="path2473"
       d="M -244.25976,114.49087 L -244.25976,150.00192 L -215.51291,166.47904 L -215.8155,127.55893 L -244.25976,114.49087 z"
       style="fill:#fff1c1;fill-opacity:1;fill-rule:evenodd;stroke:#000000;stroke-width:0.69332254px;stroke-linecap:butt;stroke-linejoin:miter;stroke-opacity:1" />
    <path
       id="path2475"
       d="M -215.51291,166.19495 L -158.92699,153.12689 L -158.62439,115.34314 L -215.51291,127.27484 L -244.25976,114.20678 L -188.58164,103.12734 L -159.22958,115.05905 L -216.1181,127.27484 L -215.51291,166.19495 z"
       style="fill:#fff1c1;fill-opacity:1;fill-rule:evenodd;stroke:#000000;stroke-width:0.69332254px;stroke-linecap:butt;stroke-linejoin:miter;stroke-opacity:1" />
    <path
       id="path2495"
       d="M -224.74216,123.86578 L -216.572,137.21794 L -215.059,137.35998 L -205.67845,125.42827 L -205.82976,124.57601 L -223.68307,123.01352 L -224.74216,123.86578 z"
       style="fill:#caab98;fill-opacity:1;fill-rule:evenodd;stroke:#000000;stroke-width:0.69332254px;stroke-linecap:butt;stroke-linejoin:miter;stroke-opacity:1" />
    <path
       id="path2497"
       d="M -244.25976,125.28623 L -234.27401,119.74651 L -233.21492,118.7522 L -233.21492,111.93408 L -233.36622,111.3659 L -245.01626,113.92269 L -244.25976,125.28623 z"
       style="fill:#caab98;fill-opacity:1;fill-rule:evenodd;stroke:#000000;stroke-width:0.69332254px;stroke-linecap:butt;stroke-linejoin:miter;stroke-opacity:1" />
    <path
       id="path2499"
       d="M -198.56739,105.11595 L -180.41148,106.67844 L -188.88424,102.70121 L -198.56739,105.11595 z"
       style="fill:#caab98;fill-opacity:1;fill-rule:evenodd;stroke:#000000;stroke-width:0.69332254px;stroke-linecap:butt;stroke-linejoin:miter;stroke-opacity:1" />
    <path
       id="path2501"
       d="M -169.97183,117.18971 L -168.76144,111.08181 L -158.47309,115.20109 L -158.47309,125.57032 L -169.82053,118.04198 L -169.97183,117.18971 z"
       style="fill:#caab98;fill-opacity:1;fill-rule:evenodd;stroke:#000000;stroke-width:0.69332254px;stroke-linecap:butt;stroke-linejoin:miter;stroke-opacity:1" />
    <path
       id="path2503"
       d="M -168.61014,154.83141 L -159.22958,143.89402 L -158.77569,143.75197 L -158.92699,152.70075 L -168.30754,155.68368 L -168.61014,154.83141 z"
       style="fill:#caab98;fill-opacity:1;fill-rule:evenodd;stroke:#000000;stroke-width:0.69332254px;stroke-linecap:butt;stroke-linejoin:miter;stroke-opacity:1" />
    <path
       id="path2507"
       d="M -244.10846,140.627 L -236.8461,153.83711 L -244.25976,149.85987 L -244.10846,140.627 z"
       style="fill:#caab98;fill-opacity:1;fill-rule:evenodd;stroke:#000000;stroke-width:0.69332254px;stroke-linecap:butt;stroke-linejoin:miter;stroke-opacity:1" />
    <path
       id="path2509"
       d="M -215.21031,155.1155 L -204.92196,163.21202 L -205.22455,163.7802 L -215.059,166.90517 L -223.07787,161.93362 L -216.2694,155.1155 L -215.21031,155.1155 z"
       style="fill:#caab98;fill-opacity:1;fill-rule:evenodd;stroke:#000000;stroke-width:0.69332254px;stroke-linecap:butt;stroke-linejoin:miter;stroke-opacity:1" />
    <path
       id="path3428"
       d="M -209.91665,132.35734 L -209.61763,159.26974"
       style="fill:none;fill-rule:evenodd;stroke:#000000;stroke-width:1px;stroke-linecap:butt;stroke-linejoin:miter;stroke-opacity:1" />
    <path
       id="path3430"
       d="M -201.84294,124.58265 L -201.24488,162.85805"
       style="fill:none;fill-rule:evenodd;stroke:#000000;stroke-width:1px;stroke-linecap:butt;stroke-linejoin:miter;stroke-opacity:1" />
    <path
       id="path3432"
       d="M -191.97506,122.78849 L -191.67603,160.46584"
       style="fill:none;fill-rule:evenodd;stroke:#000000;stroke-width:1px;stroke-linecap:butt;stroke-linejoin:miter;stroke-opacity:1" />
    <path
       id="path3434"
       d="M -182.70524,120.69531 L -182.10718,158.37266"
       style="fill:none;fill-rule:evenodd;stroke:#000000;stroke-width:1px;stroke-linecap:butt;stroke-linejoin:miter;stroke-opacity:1" />
    <path
       id="path3436"
       d="M -174.93055,119.4992 L -173.73444,156.5785"
       style="fill:none;fill-rule:evenodd;stroke:#000000;stroke-width:1px;stroke-linecap:butt;stroke-linejoin:miter;stroke-opacity:1" />
    <path
       id="path3438"
       d="M -165.95975,120.99433 L -165.06267,149.40186"
       style="fill:none;fill-rule:evenodd;stroke:#000000;stroke-width:1px;stroke-linecap:butt;stroke-linejoin:miter;stroke-opacity:1" />
    <path
       id="path3440"
       d="M -240.11834,123.08752 C -240.11834,124.28363 -240.11834,147.00965 -240.11834,147.00965"
       style="fill:none;fill-rule:evenodd;stroke:#000000;stroke-width:1px;stroke-linecap:butt;stroke-linejoin:miter;stroke-opacity:1" />
    <path
       id="path3442"
       d="M -233.24073,119.79823 L -234.43683,155.38239"
       style="fill:none;fill-rule:evenodd;stroke:#000000;stroke-width:1px;stroke-linecap:butt;stroke-linejoin:miter;stroke-opacity:1" />
    <path
       id="path3444"
       d="M -225.76506,123.68557 L -225.46604,160.46584"
       style="fill:none;fill-rule:evenodd;stroke:#000000;stroke-width:1px;stroke-linecap:butt;stroke-linejoin:miter;stroke-opacity:1" />
  </g>
  <path
     style="fill:url(#linearGradient3973);fill-opacity:1;stroke:none"
     d="m 432.68967,168.24973 -138.49451,0 c -8.40246,-0.18841 -12.30575,-3.59047 -10.9883,-10.72162 0.46829,-2.68174 1.89701,-5.05315 3.05704,-7.4863 23.02288,-39.59962 46.04573,-79.199253 69.0686,-118.798861 5.71992,-7.46246 11.62551,-7.545372 17.28984,0.02368 l 71.25992,123.425781 c 2.71753,4.86303 2.12212,14.15345 -11.19259,13.55692 z"
     id="path2830"
     sodipodi:nodetypes="cccccccc"
     inkscape:connector-curvature="0"
     inkscape:export-filename="D:\studyworkspace\Asia\res\icq_work_96.png"
     inkscape:export-xdpi="50.553909"
     inkscape:export-ydpi="50.553909" />
  <path
     style="fill:#ffffff;fill-opacity:0.23809524;stroke:none;stroke-width:0.19136462000000001;stroke-opacity:0.02555913000000000"
     d="m 428.71802,155.17128 -130.17821,0 65.21451,-113.031698 64.9637,113.031698 z"
     id="path2830-1"
     sodipodi:nodetypes="cccc"
     inkscape:connector-curvature="0"
     inkscape:export-filename="D:\studyworkspace\Asia\res\icq_work_96.png"
     inkscape:export-xdpi="50.553909"
     inkscape:export-ydpi="50.553909" />
  <path
     style="fill:#000000;fill-opacity:1;stroke:none"
     d="m 373.04895,79.142968 c -3.49509,0 -6.33069,2.864727 -6.33069,6.396541 0,0.74755 0.12866,1.461669 0.36205,2.128506 -0.65879,0.275816 -1.38817,0.672948 -2.16142,1.228829 l -0.52664,-0.460802 c -0.20236,-0.162621 -0.40399,-0.319367 -0.60344,-0.471796 -5.16794,-3.949722 -9.40286,-4.498098 -14.21938,-3.70843 -7.22825,1.60371 -7.33,8.993208 -9.24914,14.910578 -2.98388,3.896986 -1.64906,5.513376 0.44985,5.858886 0.83414,0.15735 1.43011,0.0755 1.85419,-0.18656 l 1.42633,0.78997 c -0.9066,1.90061 -1.69348,3.83046 -2.26017,5.79307 -1.94303,17.91739 -11.91793,19.14519 -18.10334,28.2083 1.65557,3.19277 3.31476,6.4667 6.14418,9.4247 l 2.99528,-0.0329 c -1.16518,-1.9077 -2.443,-3.7545 -2.92945,-6.00155 7.04517,-8.46179 12.60269,-5.71686 21.13153,-25.38856 9.15028,7.50015 6.51469,20.89598 9.76485,31.34622 l 12.12375,0.0546 c -0.96023,-1.53584 -2.60847,-2.58947 -5.57363,-2.71003 -1.15995,-9.55014 -1.01933,-19.38009 -3.6536,-28.61426 l 7.88867,4.82753 c 0.25681,2.44614 2.90845,3.55266 4.39966,2.69906 l 6.22098,3.80718 c 0.59227,0.36272 0.89718,0.6194 0.86676,0.66926 -3.09071,5.06448 -4.84113,11.66154 -5.67238,19.29927 l 37.74273,0 -16.42467,-29.84308 c -6.17069,1.06522 -10.74152,3.94372 -14.06575,8.25074 -0.0307,0.04 -0.56757,0.86395 -1.0533,0.55954 l -6.65982,-4.16925 c 0.0447,-0.24286 0.0623,-0.51365 0.044,-0.8119 -0.8684,-3.36866 -2.43815,-7.98085 -4.65203,-11.97016 0.67618,-4.19872 1.73996,-8.2664 0.64734,-13.374526 -0.3357,-1.39765 -1.48306,-2.93029 -3.23667,-4.56425 l -0.57051,-0.4937 c 0.41385,-0.47329 0.74438,-0.92708 1.00937,-1.3605 0.86306,0.44581 1.83879,0.70218 2.87461,0.70218 3.4951,0 6.33067,-2.864687 6.33067,-6.396514 0,-3.531815 -2.83557,-6.396528 -6.33067,-6.396528 z m -22.36039,10.532878 c 1.29991,0.01051 2.34679,0.477432 2.08464,1.481178 -2.61454,4.06144 -5.66934,8.46488 -8.04227,13.089276 l -1.26174,-0.86677 c 0.14604,-0.91244 -0.021,-2.06495 -0.25234,-3.13792 1.67279,-3.379676 1.43577,-7.502866 5.07989,-10.11593 0.73387,-0.300807 1.61189,-0.456213 2.39182,-0.449834 z m 15.87608,14.296144 c 0.7953,0.094 0.39037,5.51769 1.18497,7.9545 1.51695,2.65924 3.09608,5.31721 4.38868,7.97645 -0.11919,0.24497 -0.21602,0.48176 -0.29625,0.71316 l -9.8087,-6.14417 c -0.52957,-1.35081 -1.94457,-3.27964 -1.18071,-4.89287 0.86813,-1.83341 2.57633,-3.76935 5.53648,-5.55222 0.0644,-0.0437 0.12261,-0.0611 0.1755,-0.0549 z"
     id="rect3628"
     sodipodi:nodetypes="cscccsccccccccccccccccccscccsccccccccsscccccccccccccscc"
     inkscape:connector-curvature="0"
     inkscape:export-filename="D:\studyworkspace\Asia\res\icq_work_96.png"
     inkscape:export-xdpi="50.553909"
     inkscape:export-ydpi="50.553909" />
  <path
     style="fill:url(#linearGradient3966);fill-opacity:1;stroke:none"
     d="m 311.21313,110.30068 44.87714,-77.901815 c 5.33572,-7.010118 9.75553,-7.627888 15.4717,-0.477522 l 54.58287,95.902427 c -14.2714,-8.52971 -39.31812,-37.978605 -56.49147,-19.62764 -18.48139,19.74876 -49.49325,-0.65959 -58.44024,2.10455 z"
     id="path2830-9"
     sodipodi:nodetypes="ccccsc"
     inkscape:connector-curvature="0"
     inkscape:export-filename="D:\studyworkspace\Asia\res\icq_work_96.png"
     inkscape:export-xdpi="50.553909"
     inkscape:export-ydpi="50.553909" />
</svg>
