<?xml version="1.0" encoding="UTF-8" standalone="no"?>
<svg
   xmlns:dc="http://purl.org/dc/elements/1.1/"
   xmlns:cc="http://creativecommons.org/ns#"
   xmlns:rdf="http://www.w3.org/1999/02/22-rdf-syntax-ns#"
   xmlns:svg="http://www.w3.org/2000/svg"
   xmlns="http://www.w3.org/2000/svg"
   xmlns:sodipodi="http://sodipodi.sourceforge.net/DTD/sodipodi-0.dtd"
   xmlns:inkscape="http://www.inkscape.org/namespaces/inkscape"
   version="1.1"
   width="460.10153"
   height="192.76071"
   id="svg2"
   sodipodi:version="0.32"
   inkscape:version="0.48.1 "
   sodipodi:docname="icq_connecting.svg"
   inkscape:output_extension="org.inkscape.output.svg.inkscape">
  <metadata
     id="metadata21">
    <rdf:RDF>
      <cc:Work
         rdf:about="">
        <dc:format>image/svg+xml</dc:format>
        <dc:type
           rdf:resource="http://purl.org/dc/dcmitype/StillImage" />
        <dc:title></dc:title>
      </cc:Work>
    </rdf:RDF>
  </metadata>
  <defs
     id="defs19">
    <inkscape:perspective
       sodipodi:type="inkscape:persp3d"
       inkscape:vp_x="0 : 96.380356 : 1"
       inkscape:vp_y="0 : 1000 : 0"
       inkscape:vp_z="460.10153 : 96.380356 : 1"
       inkscape:persp3d-origin="230.05077 : 64.253571 : 1"
       id="perspective23" />
  </defs>
  <sodipodi:namedview
     inkscape:window-height="1058"
     inkscape:window-width="1920"
     inkscape:pageshadow="2"
     inkscape:pageopacity="0.0"
     guidetolerance="10.0"
     gridtolerance="10.0"
     objecttolerance="10.0"
     borderopacity="1.0"
     bordercolor="#666666"
     pagecolor="#ffffff"
     id="base"
     showgrid="false"
     inkscape:zoom="2.3646954"
     inkscape:cx="-286.6026"
     inkscape:cy="125.49992"
     inkscape:window-x="0"
     inkscape:window-y="14"
     inkscape:current-layer="svg2"
     inkscape:window-maximized="0" />
  <path
     d="M 60.593997,9.6355765 C 55.294184,8.4305146 50.955961,8.9125394 46.379185,11.322663 c -5.06126,3.133161 -7.953409,7.953409 -9.158471,14.699296 -1.205062,6.9869 0,13.735246 3.615186,20.481134 l 1.687087,2.407664 -5.784297,-1.928099 C 29.510773,45.295572 22.762433,46.259621 16.016543,49.874807 9.0296434,53.489992 4.6914234,58.548793 1.7992734,65.538152 c -2.65113998,6.748347 -2.40766998,13.253222 0.96405,19.276072 1.44607,2.651136 3.61518,4.817788 5.54082,6.263863 2.8921496,2.892148 6.5073396,4.579235 10.8430996,5.299813 l 1.68709,0.482024 -3.61519,3.133161 c -3.37417,2.892145 -5.29981,6.504875 -6.50487,10.120065 -1.2050596,4.33822 -0.7230396,8.67398 1.68708,12.77119 1.20507,1.92564 2.40767,3.61273 4.33577,4.81779 1.9281,1.68709 4.33822,2.89215 7.22791,3.1307 5.30227,1.20507 10.843098,1.20507 16.865948,-0.72549 l -4.338222,7.22791 -1.205062,3.13562 c -2.407664,7.70994 -1.687084,14.45828 1.928099,21.44272 1.687086,2.65114 3.615185,5.06372 5.543285,7.22792 2.892148,2.65113 6.504874,4.33822 10.843097,5.54328 7.227912,1.92564 14.458284,1.68709 21.445184,-1.92564 6.748346,-3.61764 11.08411,-9.39948 13.253221,-16.62985 l 0.241012,-1.44608 c 4.576776,5.06372 8.914999,8.43544 13.735245,9.6405 4.81779,1.44607 9.63804,1.20506 13.97626,-1.68709 4.09721,-2.41012 6.9869,-6.50733 8.43297,-11.56613 1.20507,-5.30228 1.20507,-10.60209 0,-16.62494 2.40767,1.68709 4.81779,2.88723 7.70994,3.61273 7.70994,2.41012 14.45583,2.16665 21.20417,-1.44608 6.50734,-3.61272 10.8431,-9.39948 13.01221,-16.86841 1.9281,-7.22791 1.44608,-14.21235 -2.16911,-20.960695 l -1.20506,-1.928099 c -1.9281,-2.892149 -3.85374,-5.784297 -6.74589,-7.709937 -2.40766,-1.687087 -5.29981,-2.892149 -7.95095,-4.097211 7.47139,-3.615185 12.7712,-8.673986 15.18132,-15.18132 1.68709,-5.302273 1.20506,-9.638036 -1.20506,-13.976259 l 0,-0.482025 c -2.88969,-4.820247 -6.74589,-7.953408 -12.76874,-9.638036 -3.61518,-0.723037 -7.71239,-0.723037 -11.32512,-0.482024 l -7.95095,1.687086 2.65114,-6.02285 c 2.41012,-7.709937 1.68708,-15.181321 -2.41013,-22.16822 l -0.72303,-1.205062 C 126.37562,11.553838 121.07581,7.941112 113.8479,6.0130129 106.37897,4.0849139 99.392071,4.807951 92.643725,8.4231367 85.897837,12.035863 81.07759,17.579148 78.910938,24.809519 l 0,0.482025 -0.241013,1.687087 -0.964049,-1.687087 -2.410124,-4.338223 C 71.437094,14.937849 66.616847,11.322663 60.593997,9.6355765 l 0,0 z M 122.03986,24.09386 c 1.20506,2.407665 1.9281,5.299813 1.9281,8.432974 l -0.72304,5.299813 c -0.96405,2.651136 -2.16911,5.06126 -3.61519,7.227912 L 97.943538,71.563462 C 95.774426,69.876375 93.364302,68.671313 90.954179,67.466251 L 88.546514,40.23923 88.305502,30.601194 88.546514,28.19353 c 1.205062,-4.817788 4.576776,-8.432974 8.914999,-10.843098 4.335767,-2.407664 9.156007,-2.892149 13.732787,-1.205062 5.06126,1.202603 8.67645,3.853739 10.84556,7.94849 l 0,0 z m -74.699085,4.820248 c 0.241012,-4.338223 1.928099,-7.227912 4.817788,-8.914999 1.446075,-1.205062 3.615186,-1.205062 5.540826,-0.241012 4.338223,1.205061 7.950949,4.338222 10.843098,10.361073 1.205061,2.410123 2.410123,4.817788 2.892148,7.709936 L 76.252423,66.263649 72.637238,67.468711 51.192054,44.095428 49.986993,41.687764 C 48.063812,37.347082 46.85875,33.25233 47.340775,28.914108 l 0,0 z m -13.012209,28.19107 6.507334,2.651136 21.204171,15.422333 c -1.928099,2.407665 -3.130702,4.817789 -3.853739,7.227912 l -34.698409,4.338223 -2.41012,-0.482024 c -4.33822,-0.723038 -7.22791,-2.651137 -9.15601,-6.263863 -1.9280996,-3.615186 -1.9280996,-7.227912 -0.48203,-10.843098 1.68709,-4.579235 4.81779,-8.194421 9.39703,-10.12006 4.33576,-2.412584 8.67153,-3.135621 13.491773,-1.930559 l 0,0 z m 22.891257,39.275181 1.687087,4.820251 0.723037,1.68708 c -3.615186,3.13071 -6.266322,6.02285 -9.156011,8.67399 l -7.230371,6.02531 -1.928099,1.20506 c -4.579236,2.16665 -8.432973,2.89215 -12.530183,2.40767 -3.61519,-0.24102 -6.50734,-1.44608 -7.7124,-3.61273 l -0.72304,-2.65114 0.48203,-2.16665 c 1.20506,-3.61764 4.33822,-7.22791 9.88151,-9.88151 2.88969,-1.20506 5.29981,-2.41012 7.227909,-2.892145 l 19.278531,-3.615186 0,0 z M 132.39847,57.346191 c 4.33822,-1.928099 8.43298,-2.410124 12.7712,-1.928099 4.09721,0.482024 6.98936,2.407664 8.43297,5.299813 l 0.96405,3.130701 -0.48202,2.410124 c -1.68709,4.338223 -5.30228,7.709937 -11.32513,10.361073 -2.40766,1.205062 -5.0588,1.687087 -7.95095,2.166652 l -29.63714,3.615186 -0.48202,-1.687087 -0.48203,-0.720578 0.96405,-1.205062 24.33733,-20.240121 2.88969,-1.202602 0,0 z m -61.4434,22.891257 c 2.889689,-2.651136 6.745887,-4.335764 11.325122,-4.335764 4.338223,0 8.432974,1.687087 11.08411,4.335764 3.374174,3.374173 4.820248,6.989359 4.820248,11.325123 0,4.335763 -1.446074,8.432974 -4.820248,11.325119 -3.133161,3.13071 -6.745887,4.81779 -11.08411,4.81779 -4.579235,0 -8.435433,-1.68708 -11.325122,-4.81779 -3.133161,-2.892145 -4.817789,-6.989356 -4.817789,-11.325119 0,-4.335764 1.684628,-7.95095 4.817789,-11.325123 l 0,0 z m 5.540825,34.939422 c 0.482025,8.19442 1.205062,16.8684 2.410124,26.26543 l 0,9.64049 -0.241012,2.41013 c -1.687087,4.3333 -4.579236,7.94849 -8.914999,9.87658 -4.335764,2.41013 -8.914999,2.89215 -13.253222,1.68709 -4.817788,-1.20014 -8.432974,-4.09229 -10.361073,-7.94849 -1.205062,-2.41012 -2.169111,-5.30227 -2.169111,-8.19442 l 1.205062,-5.53837 c 0.482024,-2.41012 1.687086,-4.8227 3.615185,-6.74834 l 20.240122,-24.09878 c 2.410123,1.2026 4.817788,2.40766 7.468924,2.64868 l 0,0 z m 18.555494,-3.13316 10.120061,10.36107 6.26386,7.70994 1.20506,2.41012 c 2.16912,4.09721 3.37418,7.95341 2.89215,12.53264 -0.48202,4.33823 -1.9281,7.46893 -4.81779,8.67399 -1.68708,1.20506 -3.61518,1.20506 -5.54082,0.96159 -4.57924,-1.20014 -8.194422,-4.81779 -10.843099,-10.60209 l -2.892148,-7.94849 -3.615186,-20.96561 4.09721,-1.44608 3.130702,-1.68708 0,0 z m 10.843101,-14.940314 27.22948,-2.407664 9.63803,-0.241013 2.41013,0.241013 c 3.61518,1.205061 6.98936,3.374173 8.915,6.986898 2.40766,2.65114 3.61272,6.26386 3.61272,10.36108 l -0.72058,4.81778 c -1.20506,4.82271 -4.09721,8.43544 -8.19442,10.36108 -4.33822,2.41012 -8.67398,2.89215 -13.49423,1.20506 -2.89215,-0.72058 -4.81779,-1.92564 -6.50733,-3.85128 l -25.30139,-20.96562 1.68709,-3.612726 0.7255,-2.894608 0,0 z"
     style="fill:#ffc200;fill-opacity:1"
     id="path10"
     inkscape:export-filename="D:\studyworkspace\Asia\res\icq_connecting_24.png"
     inkscape:export-xdpi="12.638476"
     inkscape:export-ydpi="12.638476" />
  <path
     inkscape:connector-curvature="0"
     d="m -244.86238,-17.85613 c -5.29981,-1.205062 -9.63803,-0.723037 -14.21481,1.687087 -5.06126,3.133161 -7.95341,7.9534087 -9.15847,14.6992957 -1.20506,6.9869 0,13.7352463 3.61519,20.4811343 l 1.68708,2.407664 -5.78429,-1.928099 c -7.22792,-1.687086 -13.97626,-0.723037 -20.72215,2.892149 -6.9869,3.615185 -11.32512,8.673986 -14.21727,15.663345 -2.65114,6.748347 -2.40767,13.253222 0.96405,19.276072 1.44607,2.651136 3.61518,4.817788 5.54082,6.263863 2.89215,2.892148 6.50734,4.579235 10.8431,5.299813 l 1.68709,0.482024 -3.61519,3.133161 c -3.37417,2.892145 -5.29981,6.504878 -6.50487,10.120068 -1.20506,4.33822 -0.72304,8.67398 1.68708,12.77119 1.20507,1.92564 2.40767,3.61273 4.33577,4.817793 1.9281,1.68709 4.33822,2.89215 7.22791,3.1307 5.30227,1.20507 10.8431,1.20507 16.86595,-0.72549 l -4.33822,7.22791 -1.20507,3.13562 c -2.40766,7.70994 -1.68708,14.45828 1.9281,21.44272 1.68709,2.65114 3.61519,5.06372 5.54329,7.22792 2.89215,2.65113 6.50487,4.33822 10.84309,5.54328 7.22792,1.92564 14.45829,1.68709 21.44519,-1.92564 6.74834,-3.61764 11.08411,-9.39948 13.25322,-16.62985 l 0.24101,-1.44608 c 4.57678,5.06372 8.915,8.43544 13.73525,9.6405 4.81779,1.44607 9.63804,1.20506 13.97626,-1.68709 4.09721,-2.41012 6.9869,-6.50733 8.43297,-11.56613 1.20507,-5.30228 1.20507,-10.60209 0,-16.62494 2.40767,1.68709 4.81779,2.88723 7.70994,3.61273 7.70994,2.41012 14.45583,2.16665 21.20417,-1.44608 6.50734,-3.61272 10.8431,-9.399483 13.01221,-16.868413 1.9281,-7.22791 1.44608,-14.21235 -2.16911,-20.960698 l -1.20506,-1.928099 c -1.9281,-2.892149 -3.85374,-5.784297 -6.74589,-7.709937 -2.40766,-1.687087 -5.29981,-2.892149 -7.95095,-4.097211 7.47139,-3.615185 12.7712,-8.673986 15.18132,-15.18132 1.68709,-5.302273 1.20506,-9.638036 -1.20506,-13.976259 l 0,-0.482025 c -2.88969,-4.820247 -6.74589,-7.953408 -12.76874,-9.638036 -3.61518,-0.723037 -7.71239,-0.723037 -11.32512,-0.482024 l -7.95095,1.687086 2.65114,-6.02285 c 2.41012,-7.7099373 1.68708,-15.1813213 -2.41013,-22.1682203 l -0.72303,-1.205062 c -3.61519,-6.0253097 -8.915,-9.6380357 -16.14291,-11.5661357 -7.46893,-1.928099 -14.45583,-1.205061 -21.20418,2.410124 -6.74589,3.612727 -11.56613,9.1560117 -13.73279,16.3863827 l 0,0.482025 -0.24101,1.68708703 -0.96405,-1.68708703 -2.41012,-4.338223 c -3.85866,-6.0154717 -8.67891,-9.6306577 -14.70176,-11.3177447 l 0,0 z m 61.44587,14.4582837 c 1.20506,2.40766503 1.9281,5.299813 1.9281,8.432974 l -0.72304,5.2998133 c -0.96405,2.651136 -2.16911,5.06126 -3.61519,7.227912 l -21.6862,26.508903 c -2.16911,-1.687087 -4.57923,-2.892149 -6.98935,-4.097211 l -2.40767,-27.227021 -0.24101,-9.6380363 0.24101,-2.40766397 c 1.20506,-4.81778803 4.57678,-8.43297403 8.915,-10.84309773 4.33577,-2.407664 9.15601,-2.892149 13.73279,-1.205062 5.06126,1.202603 8.67645,3.8537387 10.84556,7.9484897 l 0,0 z m -74.69909,4.820248 c 0.24101,-4.338223 1.9281,-7.227912 4.81779,-8.914999 1.44607,-1.205062 3.61519,-1.205062 5.54083,-0.241012 4.33822,1.205061 7.95094,4.338222 10.84309,10.361073 1.20506,2.410123 2.41013,4.817788 2.89215,7.7099363 l 4.81779,28.434543 -3.61519,1.205062 -21.44518,-23.373283 -1.20506,-2.407664 c -1.92318,-4.3406823 -3.12824,-8.4354343 -2.64622,-12.7736563 l 0,0 z m -13.01221,28.1910703 6.50734,2.651136 21.20417,15.422333 c -1.9281,2.407665 -3.1307,4.817789 -3.85374,7.227912 l -34.69841,4.338223 -2.41012,-0.482024 c -4.33822,-0.723038 -7.22791,-2.651137 -9.15601,-6.263863 -1.9281,-3.615186 -1.9281,-7.227912 -0.48203,-10.843098 1.68709,-4.579235 4.81779,-8.194421 9.39703,-10.12006 4.33576,-2.412584 8.67153,-3.135621 13.49177,-1.930559 l 0,0 z m 22.89126,39.275181 1.68709,4.820251 0.72303,1.68708 c -3.61518,3.130713 -6.26632,6.022853 -9.15601,8.673993 l -7.23037,6.02531 -1.9281,1.20506 c -4.57923,2.16665 -8.43297,2.89215 -12.53018,2.40767 -3.61519,-0.24102 -6.50734,-1.44608 -7.7124,-3.61273 l -0.72304,-2.65114 0.48203,-2.16665 c 1.20506,-3.61764 4.33822,-7.22791 9.88151,-9.881513 2.88969,-1.20506 5.29981,-2.41012 7.22791,-2.892145 l 19.27853,-3.615186 0,0 z m 75.17865,-39.034168 c 4.33822,-1.928099 8.43298,-2.410124 12.7712,-1.928099 4.09721,0.482024 6.98936,2.407664 8.43297,5.299813 l 0.96405,3.130701 -0.48202,2.410124 c -1.68709,4.338223 -5.30228,7.709937 -11.32513,10.361073 -2.40766,1.205062 -5.0588,1.687087 -7.95095,2.166652 l -29.63714,3.615186 -0.48202,-1.687087 -0.48203,-0.720578 0.96405,-1.205062 24.33733,-20.240121 2.88969,-1.202602 0,0 z m -61.4434,22.891257 c 2.88969,-2.651136 6.74588,-4.335764 11.32512,-4.335764 4.33822,0 8.43297,1.687087 11.08411,4.335764 3.37417,3.374173 4.82025,6.989359 4.82025,11.325123 0,4.335763 -1.44608,8.432974 -4.82025,11.325119 -3.13316,3.130713 -6.74589,4.817793 -11.08411,4.817793 -4.57924,0 -8.43543,-1.68708 -11.32512,-4.817793 -3.13316,-2.892145 -4.81779,-6.989356 -4.81779,-11.325119 0,-4.335764 1.68463,-7.95095 4.81779,-11.325123 l 0,0 z m 5.54082,34.939425 c 0.48203,8.19442 1.20506,16.868403 2.41013,26.265433 l 0,9.64049 -0.24102,2.41013 c -1.68708,4.3333 -4.57923,7.94849 -8.915,9.87658 -4.33576,2.41013 -8.91499,2.89215 -13.25322,1.68709 -4.81779,-1.20014 -8.43297,-4.09229 -10.36107,-7.94849 -1.20506,-2.41012 -2.16911,-5.30227 -2.16911,-8.19442 l 1.20506,-5.53837 c 0.48202,-2.41012 1.68709,-4.8227 3.61519,-6.74834 l 20.24012,-24.098783 c 2.41012,1.2026 4.81779,2.40766 7.46892,2.64868 l 0,0 z m 18.5555,-3.13316 10.12006,10.36107 6.26386,7.709943 1.20506,2.41012 c 2.16912,4.09721 3.37418,7.95341 2.89215,12.53264 -0.48202,4.33823 -1.9281,7.46893 -4.81779,8.67399 -1.68708,1.20506 -3.61518,1.20506 -5.54082,0.96159 -4.57924,-1.20014 -8.19443,-4.81779 -10.8431,-10.60209 l -2.89215,-7.94849 -3.61519,-20.965613 4.09721,-1.44608 3.13071,-1.68708 0,0 z m 10.8431,-14.940317 27.22948,-2.407664 9.63803,-0.241013 2.41013,0.241013 c 3.61518,1.205061 6.98936,3.374173 8.915,6.986898 2.40766,2.65114 3.61272,6.263863 3.61272,10.361083 l -0.72058,4.81778 c -1.20506,4.82271 -4.09721,8.43544 -8.19442,10.36108 -4.33822,2.410123 -8.67398,2.892153 -13.49423,1.205063 -2.89215,-0.72058 -4.81779,-1.925643 -6.50733,-3.851283 l -25.30139,-20.965623 1.68709,-3.612726 0.7255,-2.894608 0,0 z"
     style="fill:#8bc800;fill-opacity:1"
     id="path10-1"
     inkscape:export-filename="D:\studyworkspace\Asia\res\icq_online_96.png"
     inkscape:export-xdpi="50.553905"
     inkscape:export-ydpi="50.553905" />
  <path
     inkscape:connector-curvature="0"
     d="m -477.45048,-51.687126 c -5.29981,-1.205062 -9.63803,-0.723037 -14.21481,1.687087 -5.06126,3.133161 -7.95341,7.953409 -9.15847,14.699296 -1.20506,6.9869 0,13.735246 3.61519,20.481134 l 1.68708,2.407664 -5.78429,-1.928099 c -7.22792,-1.687086 -13.97626,-0.723037 -20.72215,2.892149 -6.9869,3.615185 -11.32512,8.673986 -14.21727,15.663345 -2.65114,6.748347 -2.40767,13.253222 0.96405,19.276072 1.44607,2.651136 3.61518,4.817788 5.54082,6.263863 2.89215,2.892148 6.50734,4.579235 10.8431,5.299813 l 1.68709,0.482024 -3.61519,3.133161 c -3.37417,2.892145 -5.29981,6.504878 -6.50487,10.120068 -1.20506,4.33822 -0.72304,8.67398 1.68708,12.77119 1.20507,1.92564 2.40767,3.61273 4.33577,4.81779 1.9281,1.68709 4.33822,2.89215 7.22791,3.1307 5.30227,1.20507 10.8431,1.20507 16.86595,-0.72549 l -4.33822,7.22791 -1.20507,3.13562 c -2.40766,7.70994 -1.68708,14.45828 1.9281,21.442719 1.68709,2.65114 3.61519,5.06372 5.54329,7.22792 2.89215,2.65113 6.50487,4.33822 10.84309,5.54328 7.22792,1.92564 14.45829,1.68709 21.44519,-1.92564 6.74834,-3.61764 11.08411,-9.39948 13.25322,-16.629849 l 0.24101,-1.44608 c 4.57678,5.06372 8.915,8.435439 13.73525,9.640499 4.81779,1.44607 9.63804,1.20506 13.97626,-1.68709 4.09721,-2.410119 6.9869,-6.507329 8.43297,-11.566129 1.20507,-5.30228 1.20507,-10.60209 0,-16.62494 2.40767,1.68709 4.81779,2.88723 7.70994,3.61273 7.70994,2.41012 14.45583,2.16665 21.20417,-1.44608 6.50734,-3.61272 10.8431,-9.39948 13.01221,-16.86841 1.9281,-7.22791 1.44608,-14.21235 -2.16911,-20.960698 l -1.20506,-1.928099 c -1.9281,-2.892149 -3.85374,-5.784297 -6.74589,-7.709937 -2.40766,-1.687087 -5.29981,-2.892149 -7.95095,-4.097211 7.47139,-3.615185 12.7712,-8.673986 15.18132,-15.18132 1.68709,-5.302273 1.20506,-9.638036 -1.20506,-13.976259 l 0,-0.482025 c -2.88969,-4.820247 -6.74589,-7.953408 -12.76874,-9.638036 -3.61518,-0.723037 -7.71239,-0.723037 -11.32512,-0.482024 l -7.95095,1.687086 2.65114,-6.02285 c 2.41012,-7.709937 1.68708,-15.181321 -2.41013,-22.16822 l -0.72303,-1.205062 c -3.61519,-6.02531 -8.915,-9.638036 -16.14291,-11.566136 -7.46893,-1.928099 -14.45583,-1.205061 -21.20418,2.410124 -6.74589,3.612727 -11.56613,9.156012 -13.73279,16.386383 l 0,0.482025 -0.24101,1.687087 -0.96405,-1.687087 -2.41012,-4.338223 c -3.85866,-6.015472 -8.67891,-9.630658 -14.70176,-11.317745 l 0,0 z m 61.44587,14.458284 c 1.20506,2.407665 1.9281,5.299813 1.9281,8.432974 l -0.72304,5.299813 c -0.96405,2.651136 -2.16911,5.06126 -3.61519,7.227912 l -21.6862,26.508903 c -2.16911,-1.687087 -4.57923,-2.892149 -6.98935,-4.097211 l -2.40767,-27.227021 -0.24101,-9.638036 0.24101,-2.407664 c 1.20506,-4.817788 4.57678,-8.432974 8.915,-10.843098 4.33577,-2.407664 9.15601,-2.892149 13.73279,-1.205062 5.06126,1.202603 8.67645,3.853739 10.84556,7.94849 l 0,0 z m -74.69909,4.820248 c 0.24101,-4.338223 1.9281,-7.227912 4.81779,-8.914999 1.44607,-1.205062 3.61519,-1.205062 5.54083,-0.241012 4.33822,1.205061 7.95094,4.338222 10.84309,10.361073 1.20506,2.410123 2.41013,4.817788 2.89215,7.709936 l 4.81779,28.434543 -3.61519,1.205062 -21.44518,-23.373283 -1.20506,-2.407664 c -1.92318,-4.340682 -3.12824,-8.435434 -2.64622,-12.773656 l 0,0 z m -13.01221,28.19107 6.50734,2.651136 21.20417,15.422333 c -1.9281,2.407665 -3.1307,4.817789 -3.85374,7.227912 l -34.69841,4.338223 -2.41012,-0.482024 c -4.33822,-0.723038 -7.22791,-2.651137 -9.15601,-6.263863 -1.9281,-3.615186 -1.9281,-7.227912 -0.48203,-10.843098 1.68709,-4.579235 4.81779,-8.19442099 9.39703,-10.12006 4.33576,-2.412584 8.67153,-3.135621 13.49177,-1.930559 l 0,0 z m 22.89126,39.275181 1.68709,4.820251 0.72303,1.68708 c -3.61518,3.130713 -6.26632,6.022853 -9.15601,8.673993 l -7.23037,6.02531 -1.9281,1.20506 c -4.57923,2.16665 -8.43297,2.89215 -12.53018,2.40767 -3.61519,-0.24102 -6.50734,-1.44608 -7.7124,-3.61273 l -0.72304,-2.65114 0.48203,-2.16665 c 1.20506,-3.61764 4.33822,-7.22791 9.88151,-9.881513 2.88969,-1.20506 5.29981,-2.41012 7.22791,-2.892145 l 19.27853,-3.615186 0,0 z M -405.646,-3.976511 c 4.33822,-1.928099 8.43298,-2.410124 12.7712,-1.928099 4.09721,0.482024 6.98936,2.407664 8.43297,5.29981301 l 0.96405,3.13070099 -0.48202,2.410124 c -1.68709,4.338223 -5.30228,7.709937 -11.32513,10.361073 -2.40766,1.205062 -5.0588,1.687087 -7.95095,2.166652 l -29.63714,3.615186 -0.48202,-1.687087 -0.48203,-0.720578 0.96405,-1.205062 24.33733,-20.240121 2.88969,-1.202602 0,0 z m -61.4434,22.891257 c 2.88969,-2.651136 6.74588,-4.335764 11.32512,-4.335764 4.33822,0 8.43297,1.687087 11.08411,4.335764 3.37417,3.374173 4.82025,6.989359 4.82025,11.325123 0,4.335763 -1.44608,8.432974 -4.82025,11.325119 -3.13316,3.130713 -6.74589,4.817793 -11.08411,4.817793 -4.57924,0 -8.43543,-1.68708 -11.32512,-4.817793 -3.13316,-2.892145 -4.81779,-6.989356 -4.81779,-11.325119 0,-4.335764 1.68463,-7.95095 4.81779,-11.325123 l 0,0 z m 5.54082,34.939425 c 0.48203,8.19442 1.20506,16.8684 2.41013,26.26543 l 0,9.64049 -0.24102,2.41013 c -1.68708,4.3333 -4.57923,7.948489 -8.915,9.876579 -4.33576,2.41013 -8.91499,2.89215 -13.25322,1.68709 -4.81779,-1.20014 -8.43297,-4.092289 -10.36107,-7.948489 -1.20506,-2.41012 -2.16911,-5.30227 -2.16911,-8.19442 l 1.20506,-5.53837 c 0.48202,-2.41012 1.68709,-4.8227 3.61519,-6.74834 l 20.24012,-24.09878 c 2.41012,1.2026 4.81779,2.40766 7.46892,2.64868 l 0,0 z m 18.5555,-3.13316 10.12006,10.36107 6.26386,7.70994 1.20506,2.41012 c 2.16912,4.09721 3.37418,7.95341 2.89215,12.53264 -0.48202,4.33823 -1.9281,7.46893 -4.81779,8.67399 -1.68708,1.20506 -3.61518,1.20506 -5.54082,0.96159 -4.57924,-1.20014 -8.19443,-4.81779 -10.8431,-10.60209 l -2.89215,-7.94849 -3.61519,-20.96561 4.09721,-1.44608 3.13071,-1.68708 0,0 z m 10.8431,-14.940317 27.22948,-2.407664 9.63803,-0.241013 2.41013,0.241013 c 3.61518,1.205061 6.98936,3.374173 8.915,6.986898 2.40766,2.65114 3.61272,6.263863 3.61272,10.361083 l -0.72058,4.81778 c -1.20506,4.82271 -4.09721,8.43544 -8.19442,10.36108 -4.33822,2.41012 -8.67398,2.89215 -13.49423,1.20506 -2.89215,-0.72058 -4.81779,-1.92564 -6.50733,-3.85128 l -25.30139,-20.965623 1.68709,-3.612726 0.7255,-2.894608 0,0 z"
     style="fill:#808080;fill-opacity:0.50196081"
     id="path10-1-1"
     inkscape:export-filename="D:\studyworkspace\Asia\res\icq_invisible_96.png"
     inkscape:export-xdpi="50.553905"
     inkscape:export-ydpi="50.553905" />
</svg>
