<?xml version="1.0" encoding="UTF-8" standalone="no"?>
<svg
   xmlns:dc="http://purl.org/dc/elements/1.1/"
   xmlns:cc="http://creativecommons.org/ns#"
   xmlns:rdf="http://www.w3.org/1999/02/22-rdf-syntax-ns#"
   xmlns:svg="http://www.w3.org/2000/svg"
   xmlns="http://www.w3.org/2000/svg"
   xmlns:xlink="http://www.w3.org/1999/xlink"
   xmlns:sodipodi="http://sodipodi.sourceforge.net/DTD/sodipodi-0.dtd"
   xmlns:inkscape="http://www.inkscape.org/namespaces/inkscape"
   width="256pt"
   height="256pt"
   viewBox="0 0 256 256"
   version="1.1"
   id="svg2"
   inkscape:version="0.48.1 "
   sodipodi:docname="mrim-offline.svg">
  <metadata
     id="metadata66">
    <rdf:RDF>
      <cc:Work
         rdf:about="">
        <dc:format>image/svg+xml</dc:format>
        <dc:type
           rdf:resource="http://purl.org/dc/dcmitype/StillImage" />
        <dc:title></dc:title>
      </cc:Work>
    </rdf:RDF>
  </metadata>
  <defs
     id="defs64">
    <inkscape:perspective
       sodipodi:type="inkscape:persp3d"
       inkscape:vp_x="0 : 332 : 1"
       inkscape:vp_y="0 : 1000 : 0"
       inkscape:vp_z="443 : 332 : 1"
       inkscape:persp3d-origin="221.5 : 221.33333 : 1"
       id="perspective3265" />
    <inkscape:perspective
       id="perspective23"
       inkscape:persp3d-origin="230.05077 : 64.253571 : 1"
       inkscape:vp_z="460.10153 : 96.380356 : 1"
       inkscape:vp_y="0 : 1000 : 0"
       inkscape:vp_x="0 : 96.380356 : 1"
       sodipodi:type="inkscape:persp3d" />
    <radialGradient
       gradientUnits="userSpaceOnUse"
       gradientTransform="matrix(2.0824918,-6.83348,10.405135,3.1709431,-4768.9247,211.49142)"
       r="185.25969"
       fy="280.71976"
       fx="188.27602"
       cy="280.71976"
       cx="188.27602"
       id="radialGradient3164"
       xlink:href="#linearGradient3158"
       inkscape:collect="always" />
    <inkscape:perspective
       id="perspective15"
       inkscape:persp3d-origin="221.5 : 221.33333 : 1"
       inkscape:vp_z="443 : 332 : 1"
       inkscape:vp_y="0 : 1000 : 0"
       inkscape:vp_x="0 : 332 : 1"
       sodipodi:type="inkscape:persp3d" />
    <linearGradient
       id="linearGradient3158"
       inkscape:collect="always">
      <stop
         id="stop3160"
         offset="0"
         style="stop-color:#ffffff;stop-opacity:1;" />
      <stop
         id="stop3162"
         offset="1"
         style="stop-color:#ffffff;stop-opacity:0;" />
    </linearGradient>
    <inkscape:perspective
       sodipodi:type="inkscape:persp3d"
       inkscape:vp_x="0 : 332 : 1"
       inkscape:vp_y="0 : 1000 : 0"
       inkscape:vp_z="443 : 332 : 1"
       inkscape:persp3d-origin="221.5 : 221.33333 : 1"
       id="perspective3265-2" />
    <inkscape:perspective
       id="perspective23-0"
       inkscape:persp3d-origin="230.05077 : 64.253571 : 1"
       inkscape:vp_z="460.10153 : 96.380356 : 1"
       inkscape:vp_y="0 : 1000 : 0"
       inkscape:vp_x="0 : 96.380356 : 1"
       sodipodi:type="inkscape:persp3d" />
    <radialGradient
       gradientUnits="userSpaceOnUse"
       gradientTransform="matrix(2.0824918,-6.83348,10.405135,3.1709431,-4768.9247,211.49142)"
       r="185.25969"
       fy="280.71976"
       fx="188.27602"
       cy="280.71976"
       cx="188.27602"
       id="radialGradient3164-8"
       xlink:href="#linearGradient3158-6"
       inkscape:collect="always" />
    <inkscape:perspective
       id="perspective15-9"
       inkscape:persp3d-origin="221.5 : 221.33333 : 1"
       inkscape:vp_z="443 : 332 : 1"
       inkscape:vp_y="0 : 1000 : 0"
       inkscape:vp_x="0 : 332 : 1"
       sodipodi:type="inkscape:persp3d" />
    <linearGradient
       id="linearGradient3158-6"
       inkscape:collect="always">
      <stop
         id="stop3160-1"
         offset="0"
         style="stop-color:#ffffff;stop-opacity:1;" />
      <stop
         id="stop3162-7"
         offset="1"
         style="stop-color:#ffffff;stop-opacity:0;" />
    </linearGradient>
    <radialGradient
       inkscape:collect="always"
       xlink:href="#linearGradient3158-6"
       id="radialGradient3987"
       gradientUnits="userSpaceOnUse"
       gradientTransform="matrix(1.6659934,-5.466784,8.324108,2.5367545,-3032.3963,75.545617)"
       cx="188.27602"
       cy="280.71976"
       fx="188.27602"
       fy="280.71976"
       r="185.25969" />
  </defs>
  <sodipodi:namedview
     pagecolor="#ffffff"
     bordercolor="#666666"
     borderopacity="1"
     objecttolerance="10"
     gridtolerance="10"
     guidetolerance="10"
     inkscape:pageopacity="0"
     inkscape:pageshadow="2"
     inkscape:window-width="1920"
     inkscape:window-height="1018"
     id="namedview62"
     showgrid="false"
     inkscape:zoom="0.909375"
     inkscape:cx="-498.03975"
     inkscape:cy="557.04013"
     inkscape:window-x="-8"
     inkscape:window-y="-8"
     inkscape:window-maximized="1"
     inkscape:current-layer="svg2" />
  <path
     style="fill:#dc0000;fill-opacity:1;stroke:none"
     d="m -3.8808419,-290.42761 c -8.2666101,0.094 -14.3181881,-0.24303 -22.3756881,1.63041 -35.27,7.63 -62.306374,24.9522 -77.92637,57.5622 -3.6,6.95 -6.68986,14.78486 -8.58986,22.36486 -2.17224,13.66562 -3.89327,19.43121 -2.97028,34.87637 0.36,6.36 1.27,13.97459 2.6,20.19459 1.35,5.44 3.95973,13.42418 5.92973,18.66418 1.96,5.32 6.96207,11.25426 9.79207,16.15426 9.231878,13.15261 19.959838,21.058187 32.576824,30.062666 25.553849,14.574949 67.1187971,29.491237 116.406185,3.341236 3.57,-2.22 7.534863,-5.474724 10.564863,-8.404724 3.09,-4.86 4.984175,-6.202058 -0.435825,-9.102068 -5.77,-2.58 -9.360962,0.73459 -14.320962,4.194594 -6.97,4.69 -14.75,7.945 -22.6,10.825 -9.7,2.33 -19.6049996,4.19 -29.6249996,3.95 -9.6400004,0.04 -19.1250004,-1.72 -28.4750004,-3.9 -12.74,-4.52 -25.025,-10.54 -35.525,-19.150004 -5.52,-4.87 -10.735,-10.17 -15.125,-16.1 -3.7,-5.05 -6.865,-10.485 -9.675,-16.075 -2.38,-5.53 -4.31,-11.235 -5.95,-17.025 -1.199995,-5.24 -1.914995,-10.59 -2.374995,-15.95 -0.44,-6.6 -0.435,-13.235 0.075,-19.825 0.83,-6.71 2.294995,-13.345 4.224995,-19.825 2.97,-8.43 6.835,-16.57 11.875,-23.95 15.17,-22.26 39.86,-37.705 66.5,-41.675 36.77,-5.65 75.345,12.33 96.225,42.8 5.44,8.26 9.775,17.305 12.325,26.875 2.27,8.05 3.475,16.38 3.675,24.75 0.14,7.64 -0.3,15.33 -2,22.8 -1.26,3.91 -3.11,8.135 -7,10.075 -5.61,2.75 -12.69,2.655 -18.1,-0.525 -3.37,-1.94 -11.683076,-12.76766 -13.783076,-15.92766 -0.3,-6.86 0.269863,-7.13207 0.339863,-14.00207 0,-6.67 1.284588,-12.89013 1.344588,-19.56013 -0.12,-7.48 0.964862,-13.26055 -0.235138,-20.69055 -2.20605,-11.06541 -5.982604,-6.01834 -8.364862,-1.35069 -1.650275,4.47904 0.518488,17.03643 -2.861512,15.63643 -3.76,-1.74 -6.359863,-8.14418 -9.039863,-11.11418 -4.01,-5.02 -15.248351,-11.79376 -21.028351,-14.23376 -12.96917438,-3.06041 -21.075274,-2.44583 -32.045274,-0.53583 -12.240329,6.19738 -13.03846,4.54117 -22.660911,12.37913 -4.37,6.21 -7.120138,9.31623 -11.299313,17.2061 -1.98,8.2 -5.044038,14.09082 -4.354038,22.46082 0.78,5.58 2.175,13.71918 4.325,18.93918 2.46,6.19 1.036512,7.22651 5.736512,11.98651 9.92,11.3 18.88665,19.14472 33.59665,21.55472 15.33000031,2.23 28.765825,-1.15013 41.635825,-9.71013 2.94,-1.81 6.849312,-5.72973 8.699312,-8.52973 1.38,-3.03 9.234176,-3.22986 10.514176,-0.23986 1.44,2.5 3.549587,4.20041 5.919587,6.03041 10.79,8.18 14.903299,8.88528 25.543987,8.91418 8.32,-2.57 15.979592,-4.09165 20.069592,-11.57165 3.590001,-6.34 6.139861,-7.71179 7.339861,-14.88179 1.48,-7.66 1.88,-12.84582 1.7,-20.63582 -0.06,-8.14 -0.61014,-16.69487 -2.51014,-24.61487 -2.09,-9.23 -3.85541,-16.92041 -8.105408,-25.38041 -12.850005,-26.42 -35.520005,-44.03124 -56.152067,-53.82165 -14.60156,-5.97844 -28.243967,-8.09979 -44.0256869,-7.92027 z m -2.6743127,69.53857 c 6.53363996,-0.1991 13.12,1.25562 19.2249996,3.6 7.51,4.5 14.16,10.575 18.3,18.375 2.84,6.2 4.175,13.015 4.075,19.825 -0.49,6.93 -2.825,13.605 -6.225,19.625 -3.71,4.9 -8.05,9.48 -13.4,12.6 -4.57,2.71 -9.7199996,4.225 -14.79999964,5.625 -3.64999996,-0.19 -7.29499996,-0.2 -10.92500036,0 -9.83,-2.21 -19.175,-6.985 -25.625,-14.875 -3.98,-5.27 -6.825,-11.365 -8.225,-17.825 -0.79,-6.43 -0.555,-13.04 1.175,-19.3 3.08,-8.75 9.06,-16.115 16.45,-21.625 3.63,-1.74 7.26,-3.55 11.15,-4.65 2.90313,-0.84062 5.8551604,-1.2845 8.8250004,-1.375 z"
     id="path10"
     inkscape:connector-curvature="0"
     inkscape:export-filename="D:\studyworkspace\Asia\res\mrim_offline_24.png"
     inkscape:export-xdpi="7.8839431"
     inkscape:export-ydpi="7.8839431"
     sodipodi:nodetypes="sccccccccccccccccccccccccccccccccccccccccccccccccccccccccssccccccccccccs" />
  <path
     inkscape:connector-curvature="0"
     style="fill:#ffffff;fill-opacity:0.88596491;fill-rule:evenodd;stroke:#000000;stroke-width:3.89433885;stroke-linecap:butt;stroke-linejoin:miter;stroke-miterlimit:4;stroke-opacity:1;stroke-dasharray:none"
     d="m 1169.5398,-335.64545 21.2688,-143.2847 223.8824,25.74646 -17.9106,142.16529 -227.2406,-24.62705 z"
     id="path2669"
     inkscape:export-filename="D:\studyworkspace\Asia\res\drawable\mrim_away_80.png"
     inkscape:export-xdpi="23.090603"
     inkscape:export-ydpi="23.090603" />
  <path
     style="fill:#00ff00;fill-opacity:1"
     d="m 426.4378,-346.61657 c -8.2666,0.094 -16.5175,1.07656 -24.575,2.95 -35.27,7.63 -66.705,31.99 -82.32499,64.6 -3.6,6.95 -6.25,14.34499 -8.15,21.92499 -1.81,6.39 -3.02,12.925 -3.65,19.525 -0.57,6.56 -0.61,13.18 -0.2,19.75 0.36,6.36 1.27,12.655 2.6,18.875 1.35,5.44 3.08,10.785 5.05,16.025 1.96,5.32 4.345,10.45 7.175,15.35 3.59,6.67 7.84,12.975 12.69999,18.775 5.57,6.81001 11.825,13.10001 18.975,18.25001 37.87,30.41 95.27,33.450003 136.2,7.3 3.57,-2.22 7.095,-4.595 10.125,-7.525 3.09,-4.86 2.345,-12.8 -3.075,-15.70001 -5.77,-2.58 -12.44,-0.585 -17.4,2.87501 -6.97,4.69 -14.75,7.945 -22.6,10.825 -9.7,2.33 -19.605,4.19 -29.625,3.95 -9.64,0.04 -19.125,-1.72 -28.475,-3.9 -12.74,-4.52 -25.025,-10.54 -35.525,-19.15001 -5.52,-4.87 -10.735,-10.17 -15.125,-16.1 -3.7,-5.05 -6.865,-10.485 -9.675,-16.075 -2.38,-5.53 -4.31,-11.235 -5.95,-17.025 -1.19999,-5.24 -1.91499,-10.59 -2.37499,-15.95 -0.44,-6.6 -0.435,-13.235 0.075,-19.825 0.83,-6.71 2.29499,-13.345 4.22499,-19.825 2.97,-8.43 6.835,-16.56999 11.875,-23.94999 15.17,-22.26 39.86,-37.705 66.5,-41.675 36.77,-5.65 75.345,12.33 96.225,42.8 5.44,8.26 9.775,17.30499 12.325,26.87499 2.27,8.05 3.475,16.38 3.675,24.75 0.14,7.64 -0.3,15.33 -2,22.8 -1.26,3.91 -3.11,8.135 -7,10.075 -5.61,2.75 -12.69,2.655 -18.1,-0.525 -3.37,-1.94 -5.525,-5.29 -7.625,-8.45 -0.3,-6.86 -0.17,-13.73 -0.1,-20.6 0,-6.67 -0.035,-13.33 0.025,-20 -0.12,-7.48 0.525,-15.02 -0.675,-22.44999 l -0.275,-1.725 c -0.63,-0.82 -1.28,-1.595 -1.95,-2.375 -1.9,0.13 -3.83,0.14 -5.7,0.55 -2.53,1.4 -4.32,5.59999 -7.7,4.19999 -3.76,-1.73999 -5.92,-5.50499 -8.6,-8.47499 -4.01,-5.02 -9.97,-7.835 -15.75,-10.275 -10.33,-4.38 -21.955,-5.085 -32.925,-3.175 -16.27,3.24 -31.825,11.935 -41.575,25.57499 -4.37,6.21 -7.56,13.275 -9.1,20.725 -1.98,8.2 -1.965,16.73 -1.275,25.1 0.78,5.58 2.175,11.08 4.325,16.3 2.46,6.19 5.875,12.065 10.575,16.825 9.92,11.3 24.165,18.265 38.875,20.675 15.33,2.23 31.405,-1.59 44.275,-10.15 2.94,-1.81 4.65,-4.85 6.5,-7.65 1.38,-3.03 6.595,-2.79 7.875,0.2 1.44,2.5 2.23,5.52 4.6,7.35 10.79,8.18 25.46,9.765 38.3,6.275 8.32,-2.57 14.66001,-9.37 18.75001,-16.85 3.59,-6.34 5.7,-13.43 6.9,-20.6 1.48,-7.66 1.88,-15.485 1.7,-23.275 -0.06,-8.14 -1.05,-16.255 -2.95,-24.175 -2.09,-9.23 -5.175,-18.23999 -9.425,-26.69999 -12.85001,-26.42 -35.52001,-47.99 -62.75001,-59.1 -14.60156,-5.97844 -30.44328,-8.97952 -46.225,-8.8 z m -0.475,80.97499 c 6.53364,-0.19909 13.12,1.25563 19.225,3.6 7.51,4.5 14.16,10.575 18.3,18.375 2.84,6.2 4.175,13.015 4.075,19.825 -0.49,6.93 -2.825,13.605 -6.225,19.625 -3.71,4.9 -8.05,9.48 -13.4,12.6 -4.57,2.71 -9.72,4.225 -14.8,5.625 -3.65,-0.19 -7.295,-0.2 -10.925,0 -9.83,-2.21 -19.175,-6.985 -25.625,-14.875 -3.98,-5.27 -6.825,-11.365 -8.225,-17.825 -0.79,-6.43 -0.555,-13.04 1.175,-19.3 3.08,-8.75 9.06,-16.115 16.45,-21.625 3.63,-1.74 7.26,-3.55 11.15,-4.65 2.90313,-0.84061 5.85516,-1.28449 8.825,-1.375 z"
     id="path10-1"
     inkscape:connector-curvature="0"
     inkscape:export-filename="D:\studyworkspace\Asia\res\drawable\mrim_online_16.png"
     inkscape:export-xdpi="4.7787018"
     inkscape:export-ydpi="4.7787018" />
  <path
     style="fill:#8bc800;fill-opacity:1;stroke:none"
     d="m -387.31701,-356.78215 c -8.26662,0.094 -14.31819,-0.24303 -22.37569,1.63041 -35.27,7.63 -62.30637,24.9522 -77.92637,57.5622 -3.6,6.95 -6.68986,14.78486 -8.58986,22.36486 -2.17224,13.66562 -3.89327,19.43121 -2.97028,34.87637 0.36,6.36 1.27,13.97459 2.6,20.19459 1.35,5.44 3.95973,13.42417 5.92973,18.66417 1.96,5.32 6.96207,11.25427 9.79207,16.15427 9.23188,13.15261 19.95984,21.05818 32.57682,30.06266 25.55385,14.57495 67.1188,29.49123 116.40619,3.34123 3.57,-2.22 7.53486,-5.47472 10.56486,-8.40472 3.09,-4.86 4.98418,-6.20205 -0.43582,-9.10207 -5.77,-2.58 -9.36096,0.73459 -14.32096,4.1946 -6.97,4.69 -14.75,7.945 -22.6,10.825 -9.7,2.33 -19.605,4.19 -29.625,3.95 -9.64,0.04 -19.125,-1.72 -28.475,-3.9 -12.74001,-4.52 -25.02501,-10.54 -35.52501,-19.15001 -5.52,-4.87 -10.735,-10.17 -15.125,-16.1 -3.7,-5.05 -6.865,-10.485 -9.675,-16.075 -2.38,-5.53 -4.31,-11.235 -5.95,-17.025 -1.19999,-5.24 -1.91499,-10.59 -2.37499,-15.95 -0.44,-6.6 -0.435,-13.235 0.075,-19.82499 0.83,-6.71 2.29499,-13.345 4.22499,-19.825 2.97,-8.43 6.835,-16.57 11.875,-23.95 15.17,-22.26 39.86,-37.705 66.50001,-41.675 36.77,-5.65 75.345,12.33 96.225,42.8 5.44,8.26 9.775,17.305 12.325,26.875 2.27,8.05 3.475,16.38 3.675,24.74999 0.14,7.64 -0.3,15.33 -2,22.8 -1.26,3.91 -3.11,8.135 -7,10.075 -5.61,2.75 -12.69,2.655 -18.1,-0.525 -3.37,-1.94 -11.68308,-12.76765 -13.78308,-15.92765 -0.3,-6.86 0.26986,-7.13207 0.33986,-14.00207 0,-6.67 1.28459,-12.89013 1.34459,-19.56013 -0.12,-7.48 0.96486,-13.26055 -0.23514,-20.69055 -2.20605,-11.06541 -5.9826,-6.01834 -8.36486,-1.35069 -1.65028,4.47904 0.51848,17.03642 -2.86152,15.63642 -3.76,-1.74 -6.35985,-8.14417 -9.03985,-11.11417 -4.01,-5.02 -15.24835,-11.79376 -21.02835,-14.23376 -12.96918,-3.06041 -21.07528,-2.44583 -32.04528,-0.53583 -12.24033,6.19738 -13.03846,4.54117 -22.66091,12.37913 -4.37,6.21 -7.12014,9.31623 -11.29931,17.2061 -1.98,8.2 -5.04404,14.09081 -4.35404,22.46081 0.78,5.58 2.175,13.71919 4.325,18.93919 2.46,6.19 1.03651,7.22651 5.73651,11.98651 9.92,11.3 18.88665,19.14472 33.59665,21.55472 15.33,2.23 28.76582,-1.15014 41.63582,-9.71014 2.94,-1.81 6.84932,-5.72973 8.69932,-8.52973 1.38,-3.03 9.23417,-3.22985 10.51417,-0.23985 1.44,2.5 3.54959,4.20041 5.91959,6.03041 10.79,8.18 14.9033,8.88528 25.54399,8.91417 8.32,-2.57 15.97959,-4.09165 20.06959,-11.57165 3.59,-6.34 6.13986,-7.71179 7.33986,-14.88179 1.48,-7.66 1.88,-12.84581 1.7,-20.63581 -0.06,-8.14 -0.61014,-16.69487 -2.51014,-24.61487 -2.09,-9.23 -3.85541,-16.92041 -8.10541,-25.38041 -12.85001,-26.42 -35.52001,-44.03124 -56.15206,-53.82165 -14.60156,-5.97844 -28.24397,-8.09979 -44.02569,-7.92027 z m -2.67431,69.53857 c 6.53364,-0.1991 13.12,1.25562 19.225,3.6 7.51,4.5 14.16,10.575 18.3,18.375 2.84,6.2 4.175,13.01499 4.075,19.82499 -0.49,6.93 -2.825,13.605 -6.225,19.625 -3.71,4.9 -8.05,9.48 -13.4,12.6 -4.57,2.71 -9.72,4.225 -14.8,5.625 -3.65,-0.19 -7.295,-0.2 -10.925,0 -9.83,-2.21 -19.175,-6.985 -25.625,-14.875 -3.98001,-5.27 -6.82501,-11.365 -8.22501,-17.825 -0.79,-6.43 -0.555,-13.04 1.175,-19.29999 3.08,-8.75 9.06001,-16.115 16.45001,-21.625 3.63,-1.74 7.26,-3.55 11.15,-4.65 2.90313,-0.84062 5.85516,-1.2845 8.825,-1.375 z"
     id="path10-6"
     inkscape:connector-curvature="0"
     inkscape:export-filename="D:\studyworkspace\Asia\res\mrim_online_96.png"
     inkscape:export-xdpi="31.535776"
     inkscape:export-ydpi="31.535776"
     sodipodi:nodetypes="sccccccccccccccccccccccccccccccccccccccccccccccccccccccccssccccccccccccs" />
  <path
     style="fill:#808080;fill-opacity:0.50196081;stroke:none"
     d="m 126.44244,14.461833 c -8.26662,0.094 -14.31819,-0.24303 -22.37569,1.63041 -35.27,7.629999 -62.306374,24.952199 -77.92637,57.562199 -3.6,6.95 -6.68986,14.78486 -8.58986,22.364864 -2.17224,13.665614 -3.89327,19.431214 -2.97028,34.876374 0.36,6.36 1.27,13.97459 2.6,20.19459 1.35,5.44 3.95973,13.42417 5.92973,18.66417 1.96,5.32 6.96207,11.25427 9.79207,16.15427 9.231878,13.15261 19.959838,21.05818 32.576824,30.06266 25.553849,14.57495 67.118796,29.49123 116.406186,3.34123 3.57,-2.22 7.53486,-5.47472 10.56486,-8.40472 3.09,-4.86 4.98418,-6.20205 -0.43582,-9.10207 -5.77,-2.58 -9.36096,0.73459 -14.32096,4.1946 -6.97,4.69 -14.75,7.945 -22.6,10.825 -9.7,2.33 -19.605,4.19 -29.625,3.95 -9.64,0.04 -19.125,-1.72 -28.475002,-3.9 -12.740003,-4.52 -25.025003,-10.54 -35.525003,-19.15001 -5.52,-4.87 -10.735,-10.17 -15.125,-16.1 -3.7,-5.05 -6.865,-10.485 -9.675,-16.075 -2.38,-5.53 -4.31,-11.235 -5.95,-17.025 -1.199995,-5.24 -1.914995,-10.59 -2.374995,-15.95 -0.44,-6.6 -0.435,-13.235 0.075,-19.825 0.83,-6.71 2.294995,-13.344998 4.224995,-19.824998 2.97,-8.43 6.835,-16.57 11.875,-23.95 15.17,-22.26 39.86,-37.705 66.500005,-41.675 36.77,-5.649999 75.345,12.33 96.225,42.8 5.44,8.26 9.775,17.305 12.325,26.875 2.27,8.049998 3.475,16.379998 3.675,24.749998 0.14,7.64 -0.3,15.33 -2,22.8 -1.26,3.91 -3.11,8.135 -7,10.075 -5.61,2.75 -12.69,2.655 -18.1,-0.525 -3.37,-1.94 -11.68308,-12.76765 -13.78308,-15.92765 -0.3,-6.86 0.26986,-7.13207 0.33986,-14.00207 0,-6.67 1.28459,-12.89013 1.34459,-19.56013 -0.12,-7.480004 0.96486,-13.260558 -0.23514,-20.690558 -2.20605,-11.06541 -5.9826,-6.01834 -8.36486,-1.35069 -1.65028,4.47904 0.51848,17.036428 -2.86152,15.636428 -3.76,-1.74 -6.35985,-8.144178 -9.03985,-11.114178 -4.01,-5.02 -15.24835,-11.79376 -21.02835,-14.23376 -12.96918,-3.06041 -21.07528,-2.44583 -32.04528,-0.53583 -12.240332,6.19738 -13.03846,4.54117 -22.660911,12.37913 -4.37,6.21 -7.120139,9.31623 -11.299313,17.206098 -1.98,8.2 -5.044038,14.09082 -4.354038,22.46082 0.78,5.58 2.175,13.71919 4.325,18.93919 2.46,6.19 1.036512,7.22651 5.736512,11.98651 9.92,11.3 18.88665,19.14472 33.59665,21.55472 15.33,2.23 28.76582,-1.15014 41.63582,-9.71014 2.94,-1.81 6.84932,-5.72973 8.69932,-8.52973 1.38,-3.03 9.23417,-3.22985 10.51417,-0.23985 1.44,2.5 3.54959,4.20041 5.91959,6.03041 10.79,8.18 14.9033,8.88528 25.54399,8.91417 8.32,-2.57 15.97959,-4.09165 20.06959,-11.57165 3.59,-6.34 6.13986,-7.71179 7.33986,-14.88179 1.48,-7.66 1.88,-12.84581 1.7,-20.63581 -0.06,-8.14 -0.61014,-16.69488 -2.51014,-24.61488 -2.09,-9.229998 -3.85541,-16.920408 -8.10541,-25.380408 -12.85001,-26.42 -35.52001,-44.03124 -56.15206,-53.821649 -14.60156,-5.97844 -28.24397,-8.09979 -44.02569,-7.92027 z m -2.67431,69.538569 c 6.53364,-0.1991 13.12,1.25562 19.225,3.6 7.51,4.5 14.16,10.575 18.3,18.374998 2.84,6.2 4.175,13.015 4.075,19.825 -0.49,6.93 -2.825,13.605 -6.225,19.625 -3.71,4.9 -8.05,9.48 -13.4,12.6 -4.57,2.71 -9.72,4.225 -14.8,5.625 -3.65,-0.19 -7.295,-0.2 -10.925,0 -9.83,-2.21 -19.175,-6.985 -25.625002,-14.875 -3.980003,-5.27 -6.825003,-11.365 -8.225003,-17.825 -0.79,-6.43 -0.555,-13.04 1.175,-19.3 3.08,-8.75 9.060003,-16.114998 16.450005,-21.624998 3.63,-1.74 7.26,-3.55 11.15,-4.65 2.90313,-0.84062 5.85516,-1.2845 8.825,-1.375 z"
     id="path10-17"
     inkscape:connector-curvature="0"
     inkscape:export-filename="D:\studyworkspace\Asia\res\mrim_invisible_96.png"
     inkscape:export-xdpi="31.535776"
     inkscape:export-ydpi="31.535776"
     sodipodi:nodetypes="sccccccccccccccccccccccccccccccccccccccccccccccccccccccccssccccccccccccs" />
  <path
     style="fill:#ffc200;fill-opacity:1;stroke:none"
     d="m -455.05584,-96.383528 c -8.26662,0.094 -14.31819,-0.24303 -22.37569,1.63041 -35.27,7.629999 -62.30638,24.952199 -77.92637,57.562199 -3.6,6.95 -6.68986,14.78486 -8.58986,22.364864 -2.17224,13.6656164 -3.89327,19.4312124 -2.97028,34.876372 0.36,6.36 1.27,13.97459 2.6,20.19459 1.35,5.44 3.95973,13.42417 5.92973,18.66417 1.96,5.32 6.96207,11.25427 9.79207,16.15427 9.23188,13.15261 19.95984,21.05818 32.57682,30.062663 25.55385,14.57495 67.1188,29.49123 116.40619,3.34123 3.57,-2.22 7.53486,-5.47472 10.56486,-8.40472 3.09,-4.860003 4.98418,-6.202053 -0.43582,-9.102073 -5.77,-2.58 -9.36096,0.73459 -14.32096,4.1946 -6.97,4.69 -14.75,7.945003 -22.6,10.825003 -9.7,2.33 -19.605,4.19 -29.625,3.95 -9.64,0.04 -19.125,-1.72 -28.475,-3.9 -12.74001,-4.52 -25.02501,-10.540003 -35.52501,-19.150013 -5.52,-4.87 -10.735,-10.17 -15.125,-16.1 -3.7,-5.05 -6.865,-10.485 -9.675,-16.075 -2.38,-5.53 -4.31,-11.235 -5.95,-17.025 -1.19999,-5.24 -1.91499,-10.59 -2.37499,-15.95 -0.44,-6.6 -0.435,-13.2349996 0.075,-19.8249956 0.83,-6.71 2.29499,-13.3450004 4.22499,-19.8250004 2.97,-8.43 6.835,-16.57 11.875,-23.95 15.17,-22.26 39.86,-37.705 66.50001,-41.675 36.77,-5.649999 75.345,12.33 96.225,42.8 5.44,8.26 9.775,17.305 12.325,26.875 2.27,8.0500004 3.475,16.3800004 3.675,24.749996 0.14,7.64 -0.3,15.33 -2,22.8 -1.26,3.91 -3.11,8.135 -7,10.075 -5.61,2.75 -12.69,2.655 -18.1,-0.525 -3.37,-1.94 -11.68308,-12.76765 -13.78308,-15.92765 -0.3,-6.86 0.26986,-7.13207 0.33986,-14.00207 0,-6.6699996 1.28459,-12.8901316 1.34459,-19.5601316 -0.12,-7.4800004 0.96486,-13.2605544 -0.23514,-20.6905544 -2.20605,-11.06541 -5.9826,-6.01834 -8.36486,-1.35069 -1.65028,4.47904 0.51848,17.036428 -2.86152,15.636428 -3.76,-1.74 -6.35985,-8.144178 -9.03985,-11.114178 -4.01,-5.02 -15.24835,-11.79376 -21.02835,-14.23376 -12.96918,-3.06041 -21.07528,-2.44583 -32.04529,-0.53583 -12.24032,6.19738 -13.03845,4.54117 -22.6609,12.37913 -4.37,6.21 -7.12014,9.31623 -11.29932,17.2061024 -1.98,8.2 -5.04403,14.090814 -4.35403,22.4608136 0.78,5.58 2.175,13.71919 4.325,18.93919 2.46,6.19 1.03651,7.22651 5.73651,11.98651 9.92,11.3 18.88665,19.14472 33.59665,21.55472 15.33,2.23 28.76582,-1.15014 41.63582,-9.71014 2.94,-1.81 6.84932,-5.72973 8.69932,-8.52973 1.38,-3.03 9.23417,-3.22985 10.51417,-0.23985 1.44,2.5 3.54959,4.20041 5.91959,6.03041 10.79,8.18 14.9033,8.88528 25.54399,8.91417 8.32,-2.57 15.97959,-4.09165 20.06959,-11.57165 3.59,-6.34 6.13986,-7.71179 7.33986,-14.88179 1.48,-7.66 1.88,-12.84581 1.7,-20.63581 -0.06,-8.1399996 -0.61014,-16.6948756 -2.51014,-24.6148756 -2.09,-9.2300004 -3.85541,-16.9204104 -8.10541,-25.3804104 -12.85001,-26.42 -35.52001,-44.03124 -56.15206,-53.821649 -14.60156,-5.97844 -28.24397,-8.09979 -44.02569,-7.92027 z m -2.67431,69.538569 c 6.53364,-0.1991 13.12,1.25562 19.225,3.6 7.51,4.5 14.16,10.575 18.3,18.3750004 2.84,6.2 4.175,13.014996 4.075,19.8249956 -0.49,6.93 -2.825,13.605 -6.225,19.625 -3.71,4.9 -8.05,9.48 -13.4,12.6 -4.57,2.71 -9.72,4.225 -14.8,5.625 -3.65,-0.19 -7.295,-0.2 -10.925,0 -9.83,-2.21 -19.175,-6.985 -25.625,-14.875 -3.98001,-5.27 -6.82501,-11.365 -8.22501,-17.825 -0.79,-6.43 -0.555,-13.0399996 1.175,-19.2999956 3.08,-8.75 9.06001,-16.1150004 16.45001,-21.6250004 3.63,-1.74 7.26,-3.55 11.15,-4.65 2.90313,-0.84062 5.85516,-1.2845 8.825,-1.375 z"
     id="path10-174"
     inkscape:connector-curvature="0"
     inkscape:export-filename="D:\studyworkspace\Asia\res\mrim_connecting_96.png"
     inkscape:export-xdpi="31.535776"
     inkscape:export-ydpi="31.535776"
     sodipodi:nodetypes="sccccccccccccccccccccccccccccccccccccccccccccccccccccccccssccccccccccccs" />
</svg>
