<?xml version="1.0" encoding="UTF-8" standalone="no"?>
<svg
   xmlns:dc="http://purl.org/dc/elements/1.1/"
   xmlns:cc="http://creativecommons.org/ns#"
   xmlns:rdf="http://www.w3.org/1999/02/22-rdf-syntax-ns#"
   xmlns:svg="http://www.w3.org/2000/svg"
   xmlns="http://www.w3.org/2000/svg"
   xmlns:xlink="http://www.w3.org/1999/xlink"
   xmlns:sodipodi="http://sodipodi.sourceforge.net/DTD/sodipodi-0.dtd"
   xmlns:inkscape="http://www.inkscape.org/namespaces/inkscape"
   width="256pt"
   height="256pt"
   viewBox="0 0 256 256"
   version="1.1"
   id="svg2"
   inkscape:version="0.48.1 "
   sodipodi:docname="mrim_undetermined.svg">
  <metadata
     id="metadata66">
    <rdf:RDF>
      <cc:Work
         rdf:about="">
        <dc:format>image/svg+xml</dc:format>
        <dc:type
           rdf:resource="http://purl.org/dc/dcmitype/StillImage" />
        <dc:title></dc:title>
      </cc:Work>
    </rdf:RDF>
  </metadata>
  <defs
     id="defs64">
    <inkscape:perspective
       sodipodi:type="inkscape:persp3d"
       inkscape:vp_x="0 : 332 : 1"
       inkscape:vp_y="0 : 1000 : 0"
       inkscape:vp_z="443 : 332 : 1"
       inkscape:persp3d-origin="221.5 : 221.33333 : 1"
       id="perspective3265" />
    <inkscape:perspective
       id="perspective23"
       inkscape:persp3d-origin="230.05077 : 64.253571 : 1"
       inkscape:vp_z="460.10153 : 96.380356 : 1"
       inkscape:vp_y="0 : 1000 : 0"
       inkscape:vp_x="0 : 96.380356 : 1"
       sodipodi:type="inkscape:persp3d" />
    <radialGradient
       gradientUnits="userSpaceOnUse"
       gradientTransform="matrix(2.0824918,-6.83348,10.405135,3.1709431,-4768.9247,211.49142)"
       r="185.25969"
       fy="280.71976"
       fx="188.27602"
       cy="280.71976"
       cx="188.27602"
       id="radialGradient3164"
       xlink:href="#linearGradient3158"
       inkscape:collect="always" />
    <inkscape:perspective
       id="perspective15"
       inkscape:persp3d-origin="221.5 : 221.33333 : 1"
       inkscape:vp_z="443 : 332 : 1"
       inkscape:vp_y="0 : 1000 : 0"
       inkscape:vp_x="0 : 332 : 1"
       sodipodi:type="inkscape:persp3d" />
    <linearGradient
       id="linearGradient3158"
       inkscape:collect="always">
      <stop
         id="stop3160"
         offset="0"
         style="stop-color:#ffffff;stop-opacity:1;" />
      <stop
         id="stop3162"
         offset="1"
         style="stop-color:#ffffff;stop-opacity:0;" />
    </linearGradient>
    <inkscape:perspective
       sodipodi:type="inkscape:persp3d"
       inkscape:vp_x="0 : 332 : 1"
       inkscape:vp_y="0 : 1000 : 0"
       inkscape:vp_z="443 : 332 : 1"
       inkscape:persp3d-origin="221.5 : 221.33333 : 1"
       id="perspective3265-2" />
    <inkscape:perspective
       id="perspective23-0"
       inkscape:persp3d-origin="230.05077 : 64.253571 : 1"
       inkscape:vp_z="460.10153 : 96.380356 : 1"
       inkscape:vp_y="0 : 1000 : 0"
       inkscape:vp_x="0 : 96.380356 : 1"
       sodipodi:type="inkscape:persp3d" />
    <radialGradient
       gradientUnits="userSpaceOnUse"
       gradientTransform="matrix(2.0824918,-6.83348,10.405135,3.1709431,-4768.9247,211.49142)"
       r="185.25969"
       fy="280.71976"
       fx="188.27602"
       cy="280.71976"
       cx="188.27602"
       id="radialGradient3164-8"
       xlink:href="#linearGradient3158-6"
       inkscape:collect="always" />
    <inkscape:perspective
       id="perspective15-9"
       inkscape:persp3d-origin="221.5 : 221.33333 : 1"
       inkscape:vp_z="443 : 332 : 1"
       inkscape:vp_y="0 : 1000 : 0"
       inkscape:vp_x="0 : 332 : 1"
       sodipodi:type="inkscape:persp3d" />
    <linearGradient
       id="linearGradient3158-6"
       inkscape:collect="always">
      <stop
         id="stop3160-1"
         offset="0"
         style="stop-color:#ffffff;stop-opacity:1;" />
      <stop
         id="stop3162-7"
         offset="1"
         style="stop-color:#ffffff;stop-opacity:0;" />
    </linearGradient>
    <radialGradient
       inkscape:collect="always"
       xlink:href="#linearGradient3158-6"
       id="radialGradient3987"
       gradientUnits="userSpaceOnUse"
       gradientTransform="matrix(1.6659934,-5.466784,8.324108,2.5367545,-3032.3963,75.545617)"
       cx="188.27602"
       cy="280.71976"
       fx="188.27602"
       fy="280.71976"
       r="185.25969" />
    <inkscape:perspective
       id="perspective15-5"
       inkscape:persp3d-origin="221.5 : 221.33333 : 1"
       inkscape:vp_z="443 : 332 : 1"
       inkscape:vp_y="0 : 1000 : 0"
       inkscape:vp_x="0 : 332 : 1"
       sodipodi:type="inkscape:persp3d" />
  </defs>
  <sodipodi:namedview
     pagecolor="#ffffff"
     bordercolor="#666666"
     borderopacity="1"
     objecttolerance="10"
     gridtolerance="10"
     guidetolerance="10"
     inkscape:pageopacity="0"
     inkscape:pageshadow="2"
     inkscape:window-width="1920"
     inkscape:window-height="1018"
     id="namedview62"
     showgrid="false"
     inkscape:zoom="0.22734375"
     inkscape:cx="733.11039"
     inkscape:cy="629.60028"
     inkscape:window-x="-8"
     inkscape:window-y="-8"
     inkscape:window-maximized="1"
     inkscape:current-layer="svg2" />
  <path
     d="m 535.76667,-231.3455 c 22.12,-3.5 45.32,-0.98 65.91,7.95 33.25,14.17 59.52,43.66 69.77,78.32 5.97,20.17 6.85,41.96 2.01,62.450002 -3.22,12.96 -10.65,26.17 -23.44,31.62 -13.76,5.02 -30.23,3.22 -41.95,-5.83 -2.53,-2.19 -3.62,-5.67 -6.34,-7.66 -2.58,-1.69 -4.39,1.69 -5.94,3.23 -4.18,5.5 -10.65,8.43 -16.8,11.14 -13.89,5.54 -29.78,6.34 -43.98,1.46 -13.3,-4.03 -25.08,-12.56 -33.44,-23.61 -10.75,-14.74 -13.43,-34.080002 -10.51,-51.770002 2.5,-15.46 11.69,-29.52 24.44,-38.52 11.14,-7.85 24.53,-12.54 38.17,-13.18 12.37,-0.27 24.8,3.35 35.04,10.31 3.77,2.53 6.23,6.42 9.34,9.64 1.47,1.57 3.93,2.88 6.01,1.66 3.25,-1.62 7.14,-4.1 10.66,-1.6 -1.9,0.13 -3.82,0.14 -5.69,0.55 -2.53,1.4 -4.32,5.6 -7.7,4.2 -3.76,-1.74 -5.92,-5.5 -8.6,-8.47 -4.01,-5.02 -9.98,-7.83 -15.76,-10.27 -10.33,-4.38 -21.95,-5.09 -32.92,-3.18 -16.27,3.24 -31.82,11.94 -41.57,25.58 -4.37,6.21 -7.56,13.28 -9.1,20.73 -1.98,8.2 -1.97,16.72 -1.28,25.09 0.78,5.580002 2.18,11.090002 4.33,16.310002 2.46,6.19 5.87,12.06 10.57,16.82 9.92,11.3 24.16,18.27 38.87,20.68 15.33,2.23 31.42,-1.59 44.29,-10.15 2.94,-1.81 4.65,-4.85 6.5,-7.65 1.38,-3.03 6.58,-2.8 7.86,0.19 1.44,2.5 2.25,5.53 4.62,7.36 10.79,8.18 25.44,9.75 38.28,6.26 8.32,-2.57 14.68,-9.37 18.77,-16.85 3.59,-6.34 5.68,-13.42 6.88,-20.59 1.48,-7.66 1.89,-15.490002 1.71,-23.280002 -0.06,-8.14 -1.04,-16.26 -2.94,-24.18 -2.09,-9.23 -5.18,-18.24 -9.43,-26.7 -12.85,-26.42 -35.53,-47.97 -62.76,-59.08 -22.25,-9.11 -47.35,-11.32 -70.79,-5.87 -35.27,7.63 -66.72,31.99 -82.34,64.6 -3.6,6.95 -6.25,14.35 -8.15,21.93 -1.81,6.39 -3,12.94 -3.63,19.54 -0.57,6.56 -0.63,13.16 -0.22,19.73 0.36,6.360002 1.29,12.670002 2.62,18.890002 1.35,5.44 3.06,10.78 5.03,16.02 1.96,5.32 4.36,10.46 7.19,15.36 3.59,6.67 7.84,12.97 12.7,18.77 5.57,6.81 11.82,13.1 18.97,18.25 37.87,30.41 95.27,33.44 136.2,7.2899997 3.57,-2.2199997 7.1,-4.5799997 10.13,-7.5099997 3.09,-4.86 2.35,-12.81 -3.07,-15.71 -5.77,-2.58 -12.46,-0.59 -17.42,2.87 -6.97,4.69 -14.74,7.96 -22.59,10.84 -9.7,2.33 -19.6,4.18 -29.62,3.94 -9.64,0.04 -19.14,-1.71 -28.49,-3.89 -12.74,-4.52 -25.02,-10.56 -35.52,-19.17 -5.52,-4.87 -10.72,-10.16 -15.11,-16.09 -3.7,-5.05 -6.88,-10.48 -9.69,-16.07 -2.38,-5.53 -4.31,-11.25 -5.95,-17.04 -1.2,-5.24 -1.91,-10.59 -2.37,-15.950002 -0.44,-6.6 -0.43,-13.23 0.08,-19.82 0.83,-6.71 2.28,-13.35 4.21,-19.83 2.97,-8.43 6.84,-16.57 11.88,-23.95 15.17,-22.26 39.87,-37.7 66.51,-41.67 36.77,-5.65 75.35,12.33 96.23,42.8 5.44,8.26 9.77,17.31 12.32,26.88 2.27,8.05 3.48,16.39 3.68,24.76 0.14,7.64 -0.32,15.320002 -2.02,22.790002 -1.26,3.91 -3.09,8.14 -6.98,10.08 -5.61,2.75 -12.69,2.65 -18.1,-0.53 -3.37,-1.94 -5.53,-5.28 -7.63,-8.44 -0.3,-6.86 -0.18,-13.730002 -0.11,-20.600002 0,-6.67 -0.02,-13.33 0.04,-20 -0.12,-7.48 0.51,-15.03 -0.69,-22.46 -0.07,-0.43 -0.21,-1.29 -0.28,-1.72 2.91,1.53 2.66,5.07 2.72,7.88 -0.14,15.69 0.02,31.37 -0.12,47.060002 -0.1,4.54 0.11,9.54 3.22,13.17 5.53,7.1 18.3,8.01 23.73,0.4 3.95,-7.5 4.28,-16.270002 4.26,-24.570002 0.44,-20.22 -5.71,-40.72 -17.87,-56.95 -13.62,-18.73 -34.54,-31.49 -56.82,-37.14 -22.71,-5.85 -47.37,-1.82 -67.74,9.49 -20.59,11.29 -36.92,30.35 -44.19,52.74 -5.25,15.18 -6.09,31.67 -3.7,47.480002 3.16,19.6 12.72,38.08 26.97,51.91 15.26,13.84 34.62,23.38 55.14,25.87 20.61,2.67 42.32,-0.87 60.3,-11.55 6.28,-3.93 13.92,-8.36 21.47,-5.15 8.1,3.66 8.75,16.22 1.45,21.11 -31.89,24.5 -76.66,29.39 -114,15.4699997 -37.81,-13.85 -67.19,-47.9399997 -75.94,-87.1799997 -9.33,-39.810002 2.75,-84.370002 32.24,-112.980002 18.08,-18.63 42.35,-31.03 67.98,-35.06 z"
     id="path8"
     inkscape:connector-curvature="0"
     style="fill:#000000;fill-opacity:1"
     inkscape:export-filename="D:\studyworkspace\Asia\res\mrim_undetermined_80.png"
     inkscape:export-xdpi="23.565744"
     inkscape:export-ydpi="23.565744" />
</svg>
