<?xml version="1.0" encoding="UTF-8" standalone="no"?>
<!-- Created with Inkscape (http://www.inkscape.org/) -->

<svg
   xmlns:dc="http://purl.org/dc/elements/1.1/"
   xmlns:cc="http://creativecommons.org/ns#"
   xmlns:rdf="http://www.w3.org/1999/02/22-rdf-syntax-ns#"
   xmlns:svg="http://www.w3.org/2000/svg"
   xmlns="http://www.w3.org/2000/svg"
   xmlns:xlink="http://www.w3.org/1999/xlink"
   xmlns:sodipodi="http://sodipodi.sourceforge.net/DTD/sodipodi-0.dtd"
   xmlns:inkscape="http://www.inkscape.org/namespaces/inkscape"
   width="439.47464"
   height="423.97159"
   id="svg2"
   sodipodi:version="0.32"
   inkscape:version="0.48.1 "
   version="1.0"
   sodipodi:docname="rg1024_Little_octopus.svg"
   inkscape:output_extension="org.inkscape.output.svg.inkscape">
  <defs
     id="defs4">
    <linearGradient
       inkscape:collect="always"
       id="linearGradient3693">
      <stop
         style="stop-color:#b7b3b8;stop-opacity:1;"
         offset="0"
         id="stop3695" />
      <stop
         style="stop-color:#b7b3b8;stop-opacity:0;"
         offset="1"
         id="stop3697" />
    </linearGradient>
    <linearGradient
       inkscape:collect="always"
       id="linearGradient3679">
      <stop
         style="stop-color:#bfbbc0;stop-opacity:1;"
         offset="0"
         id="stop3681" />
      <stop
         style="stop-color:#bfbbc0;stop-opacity:0;"
         offset="1"
         id="stop3683" />
    </linearGradient>
    <linearGradient
       inkscape:collect="always"
       id="linearGradient3657">
      <stop
         style="stop-color:#aca8ae;stop-opacity:1;"
         offset="0"
         id="stop3659" />
      <stop
         style="stop-color:#aca8ae;stop-opacity:0;"
         offset="1"
         id="stop3661" />
    </linearGradient>
    <linearGradient
       inkscape:collect="always"
       id="linearGradient3649">
      <stop
         style="stop-color:#bfbbc0;stop-opacity:1;"
         offset="0"
         id="stop3651" />
      <stop
         style="stop-color:#bfbbc0;stop-opacity:0;"
         offset="1"
         id="stop3653" />
    </linearGradient>
    <linearGradient
       inkscape:collect="always"
       id="linearGradient3609">
      <stop
         style="stop-color:#4b424e;stop-opacity:1;"
         offset="0"
         id="stop3611" />
      <stop
         style="stop-color:#4b424e;stop-opacity:0;"
         offset="1"
         id="stop3613" />
    </linearGradient>
    <linearGradient
       inkscape:collect="always"
       id="linearGradient3591">
      <stop
         style="stop-color:#eeeeec;stop-opacity:1;"
         offset="0"
         id="stop3593" />
      <stop
         style="stop-color:#eeeeec;stop-opacity:0;"
         offset="1"
         id="stop3595" />
    </linearGradient>
    <linearGradient
       inkscape:collect="always"
       id="linearGradient3549">
      <stop
         style="stop-color:#eeeeec;stop-opacity:1;"
         offset="0"
         id="stop3551" />
      <stop
         style="stop-color:#eeeeec;stop-opacity:0;"
         offset="1"
         id="stop3553" />
    </linearGradient>
    <linearGradient
       inkscape:collect="always"
       id="linearGradient3541">
      <stop
         style="stop-color:#eeeeec;stop-opacity:1;"
         offset="0"
         id="stop3543" />
      <stop
         style="stop-color:#eeeeec;stop-opacity:0;"
         offset="1"
         id="stop3545" />
    </linearGradient>
    <linearGradient
       inkscape:collect="always"
       id="linearGradient3510">
      <stop
         style="stop-color:#2e3436;stop-opacity:1;"
         offset="0"
         id="stop3512" />
      <stop
         style="stop-color:#2e3436;stop-opacity:0;"
         offset="1"
         id="stop3514" />
    </linearGradient>
    <linearGradient
       inkscape:collect="always"
       id="linearGradient3385">
      <stop
         style="stop-color:#eeeeec;stop-opacity:1;"
         offset="0"
         id="stop3387" />
      <stop
         style="stop-color:#eeeeec;stop-opacity:0;"
         offset="1"
         id="stop3389" />
    </linearGradient>
    <linearGradient
       id="linearGradient3313">
      <stop
         style="stop-color:#5a4f60;stop-opacity:1;"
         offset="0"
         id="stop3315" />
      <stop
         style="stop-color:#252120;stop-opacity:1;"
         offset="1"
         id="stop3317" />
    </linearGradient>
    <linearGradient
       inkscape:collect="always"
       id="linearGradient3264">
      <stop
         style="stop-color:#eeeeec;stop-opacity:1;"
         offset="0"
         id="stop3266" />
      <stop
         style="stop-color:#eeeeec;stop-opacity:0;"
         offset="1"
         id="stop3268" />
    </linearGradient>
    <inkscape:perspective
       sodipodi:type="inkscape:persp3d"
       inkscape:vp_x="0 : 526.18109 : 1"
       inkscape:vp_y="0 : 1000 : 0"
       inkscape:vp_z="744.09448 : 526.18109 : 1"
       inkscape:persp3d-origin="372.04724 : 350.78739 : 1"
       id="perspective10" />
    <inkscape:perspective
       id="perspective2467"
       inkscape:persp3d-origin="372.04724 : 350.78739 : 1"
       inkscape:vp_z="744.09448 : 526.18109 : 1"
       inkscape:vp_y="0 : 1000 : 0"
       inkscape:vp_x="0 : 526.18109 : 1"
       sodipodi:type="inkscape:persp3d" />
    <linearGradient
       inkscape:collect="always"
       xlink:href="#linearGradient3313"
       id="linearGradient5313"
       gradientUnits="userSpaceOnUse"
       x1="213.35818"
       y1="458.78714"
       x2="296.9357"
       y2="463.78714" />
    <linearGradient
       inkscape:collect="always"
       xlink:href="#linearGradient3649"
       id="linearGradient5315"
       gradientUnits="userSpaceOnUse"
       x1="150.0352"
       y1="377.68222"
       x2="174.3219"
       y2="400.58847" />
    <linearGradient
       inkscape:collect="always"
       xlink:href="#linearGradient3657"
       id="linearGradient5317"
       gradientUnits="userSpaceOnUse"
       gradientTransform="translate(-168.29141,255.97265)"
       x1="380.88419"
       y1="171.90958"
       x2="405.47858"
       y2="199.28406" />
    <linearGradient
       inkscape:collect="always"
       xlink:href="#linearGradient3313"
       id="linearGradient5319"
       gradientUnits="userSpaceOnUse"
       x1="251.09383"
       y1="414.54727"
       x2="317.32272"
       y2="436.54727" />
    <linearGradient
       inkscape:collect="always"
       xlink:href="#linearGradient3679"
       id="linearGradient5321"
       gradientUnits="userSpaceOnUse"
       gradientTransform="translate(32.12132,183.29289)"
       x1="176.88293"
       y1="148.79565"
       x2="217.1875"
       y2="185.79565" />
    <linearGradient
       inkscape:collect="always"
       xlink:href="#linearGradient3693"
       id="linearGradient5323"
       gradientUnits="userSpaceOnUse"
       gradientTransform="translate(3,3.5)"
       x1="254.87929"
       y1="388.91531"
       x2="271.34076"
       y2="410.17783" />
    <linearGradient
       inkscape:collect="always"
       xlink:href="#linearGradient3313"
       id="linearGradient5325"
       gradientUnits="userSpaceOnUse"
       gradientTransform="translate(10,4)"
       x1="411.53165"
       y1="546.62598"
       x2="341.55273"
       y2="493.58145" />
    <linearGradient
       inkscape:collect="always"
       xlink:href="#linearGradient3313"
       id="linearGradient5327"
       gradientUnits="userSpaceOnUse"
       gradientTransform="translate(-3.8890873,1.767767)"
       x1="532.7337"
       y1="365.71439"
       x2="476.22675"
       y2="420.80627" />
    <linearGradient
       inkscape:collect="always"
       xlink:href="#linearGradient3313"
       id="linearGradient5329"
       gradientUnits="userSpaceOnUse"
       x1="487.88446"
       y1="472.80627"
       x2="439.56903"
       y2="455.80627" />
    <linearGradient
       inkscape:collect="always"
       xlink:href="#linearGradient3313"
       id="linearGradient5331"
       gradientUnits="userSpaceOnUse"
       x1="259.16696"
       y1="386.3414"
       x2="372.07806"
       y2="386.3414" />
    <linearGradient
       inkscape:collect="always"
       xlink:href="#linearGradient3264"
       id="linearGradient5333"
       gradientUnits="userSpaceOnUse"
       x1="401.03125"
       y1="434.59375"
       x2="401.37286"
       y2="477.59375" />
    <linearGradient
       inkscape:collect="always"
       xlink:href="#linearGradient3510"
       id="linearGradient5335"
       gradientUnits="userSpaceOnUse"
       gradientTransform="translate(2.8284271,-2.1213203)"
       x1="492.71313"
       y1="409.91324"
       x2="453.71573"
       y2="332.83862" />
    <linearGradient
       inkscape:collect="always"
       xlink:href="#linearGradient3385"
       id="linearGradient5337"
       gradientUnits="userSpaceOnUse"
       gradientTransform="translate(-0.04372,2.11565)"
       x1="293.65482"
       y1="249.85985"
       x2="369.1239"
       y2="306.42838" />
    <linearGradient
       inkscape:collect="always"
       xlink:href="#linearGradient3541"
       id="linearGradient5339"
       gradientUnits="userSpaceOnUse"
       x1="133.67018"
       y1="485.93454"
       x2="158"
       y2="513.93457" />
    <linearGradient
       inkscape:collect="always"
       xlink:href="#linearGradient3549"
       id="linearGradient5341"
       gradientUnits="userSpaceOnUse"
       x1="205.4146"
       y1="498.13782"
       x2="258.625"
       y2="532.07153" />
    <linearGradient
       inkscape:collect="always"
       xlink:href="#linearGradient3591"
       id="linearGradient5343"
       gradientUnits="userSpaceOnUse"
       gradientTransform="matrix(0.9786983,0.2053036,-0.2053036,0.9786983,118.16972,-56.072275)"
       x1="321.02368"
       y1="510.67468"
       x2="351.19595"
       y2="530.48907" />
    <linearGradient
       inkscape:collect="always"
       xlink:href="#linearGradient3609"
       id="linearGradient5345"
       gradientUnits="userSpaceOnUse"
       x1="378.30212"
       y1="572.23669"
       x2="348.60364"
       y2="531.93158" />
    <linearGradient
       inkscape:collect="always"
       xlink:href="#linearGradient3609"
       id="linearGradient5347"
       gradientUnits="userSpaceOnUse"
       gradientTransform="translate(-86.87868,-6.8180195)"
       x1="376.88791"
       y1="564.4585"
       x2="342.23969"
       y2="523.09277" />
  </defs>
  <sodipodi:namedview
     id="base"
     pagecolor="#ffffff"
     bordercolor="#666666"
     borderopacity="1.0"
     inkscape:pageopacity="0.0"
     inkscape:pageshadow="2"
     inkscape:zoom="1"
     inkscape:cx="280.82145"
     inkscape:cy="300.94385"
     inkscape:document-units="px"
     inkscape:current-layer="layer1"
     showgrid="false"
     inkscape:window-width="1272"
     inkscape:window-height="944"
     inkscape:window-x="0"
     inkscape:window-y="0"
     inkscape:window-maximized="0" />
  <metadata
     id="metadata7">
    <rdf:RDF>
      <cc:Work
         rdf:about="">
        <dc:format>image/svg+xml</dc:format>
        <dc:type
           rdf:resource="http://purl.org/dc/dcmitype/StillImage" />
        <dc:title></dc:title>
      </cc:Work>
    </rdf:RDF>
  </metadata>
  <g
     inkscape:label="Capa 1"
     inkscape:groupmode="layer"
     id="layer1"
     transform="translate(-132.5944,-232.40342)">
    <g
       id="g5285"
       transform="translate(215,-125)"
       inkscape:export-filename="D:\studyworkspace\Asia\res\drawable-hdpi\xstatus_kthulhu_32.png"
       inkscape:export-xdpi="10.189363"
       inkscape:export-ydpi="10.189363">
      <path
         style="fill:url(#linearGradient5313);fill-opacity:1;fill-rule:evenodd;stroke:none"
         d="m 242.43189,427.18618 c -9.08085,-3.71051 -19.75168,13.57019 -29.55209,13.99612 -25.17266,8.09514 -54.0432,-65.03688 -21.77235,-51.81494 9.15185,10.41211 -5.58255,16.40757 4.9178,19.4092 12.33699,-4.13174 16.85257,-16.99419 2.36906,-28.48512 -25.95602,-10.90654 -39.91384,-10.14863 -50.61365,27.522 4.90776,66.87665 47.59879,69.22708 95.32439,85.91001 8.95274,3.71704 21.84168,20.6763 29.03534,14.17868 19.14824,-17.29548 -5.82267,-70.95602 -29.7085,-80.71595 z"
         id="path2477"
         sodipodi:nodetypes="cccccccss"
         inkscape:connector-curvature="0" />
      <path
         id="path3617"
         d="m 173.99022,377.68223 c -12.46015,1.09971 -18.5126,14.12044 -21.85724,24.57037 -2.72762,6.66701 -3.14498,14.93989 0.85724,21.24213 2.39137,-7.84037 2.72515,-16.29526 7.03125,-23.59375 3.45457,-9.22623 10.86681,-16.59603 20.20242,-19.70935 7.71806,-2.19706 -4.11407,-2.46243 -6.23367,-2.5094 z"
         style="fill:url(#linearGradient5315);fill-opacity:1;fill-rule:evenodd;stroke:none"
         inkscape:connector-curvature="0" />
      <path
         id="path3626"
         d="m 239.11484,433.03515 c -8.4801,-0.0972 -18.05588,14.14525 -26.9375,14.53125 -4.09035,1.31539 -8.30507,0.47374 -12.3125,-1.78125 6.24675,6.92216 13.65708,11.13478 20.78125,8.84375 9.8004,-0.42593 20.48164,-17.71051 29.5625,-14 1.55466,0.63525 3.10486,1.45243 4.65625,2.4375 -4.2294,-4.34056 -8.71059,-7.68347 -13.15625,-9.5 -0.85134,-0.34786 -1.7165,-0.52119 -2.59375,-0.53125 z"
         style="fill:url(#linearGradient5317);fill-opacity:1;fill-rule:evenodd;stroke:none"
         inkscape:connector-curvature="0" />
      <path
         sodipodi:nodetypes="cccccccss"
         id="path2479"
         d="m 282.44141,392.07566 c -5.79111,-6.18485 -20.39432,3.53476 -28.2408,0.3376 -22.6767,-2.71637 -18.98652,-70.52582 1.58058,-48.51848 3.43196,11.47095 -10.29446,10.86776 -3.13366,17.00766 11.17296,1.20226 19.35243,-7.26718 12.12403,-21.50619 -16.44451,-17.91432 -27.67403,-22.34899 -49.64735,3.36559 -20.24607,54.26439 12.41798,71.49278 43.86939,101.78589 5.68819,6.1438 9.69444,24.10069 17.68258,21.59245 21.26302,-6.67644 20.99788,-57.79623 5.76523,-74.06452 z"
         style="fill:url(#linearGradient5319);fill-opacity:1;fill-rule:evenodd;stroke:none"
         inkscape:connector-curvature="0" />
      <path
         sodipodi:nodetypes="ccccccc"
         id="path3665"
         d="m 240.65625,327.0625 c -11.21179,1.68398 -19.82536,10.7414 -25.96875,19.53125 -5.32864,14.81929 -8.50566,32.01384 -2.3125,47.03125 -4.63731,-25.04385 4.82528,-60.51636 35.5,-60.09375 7.977,2.08278 14.52094,9.44625 19.3125,14.375 -2.46225,-9.53099 -11.52647,-16.18862 -20.09375,-20.03125 -2.06489,-0.65662 -4.26895,-1.02976 -6.4375,-0.8125 z"
         style="fill:url(#linearGradient5321);fill-opacity:1;fill-rule:evenodd;stroke:none"
         inkscape:connector-curvature="0" />
      <path
         id="path3674"
         d="m 241.61583,386.70909 c 2.21259,8.90483 6.71626,16.17747 13.84375,17.03125 7.84648,3.19716 22.45889,-6.52859 28.25,-0.34375 2.45977,2.62701 4.53594,6.17057 6.1875,10.28125 -1.8414,-6.66145 -4.60013,-12.44998 -8.1875,-16.28125 -5.79111,-6.18484 -20.40352,3.54091 -28.25,0.34375 -5.42911,-0.65033 -9.30705,-5.04461 -11.84375,-11.03125 z"
         style="fill:url(#linearGradient5323);fill-opacity:1;fill-rule:evenodd;stroke:none"
         inkscape:connector-curvature="0" />
      <path
         style="fill:url(#linearGradient5325);fill-opacity:1;fill-rule:evenodd;stroke:none"
         d="m 444.8085,516.74478 c 9.51999,4.55211 3.46669,25.54425 10.21154,33.6596 11.74689,25.90527 90.87623,-3.95804 57.01624,-20.10917 -14.91014,0.23552 -9.03575,16.30743 -19.01709,10.11205 -5.62616,-12.81483 1.35662,-25.70969 20.98015,-22.47758 27.45081,12.79409 36.93634,24.46141 14.66038,60.21535 -56.82469,44.43155 -89.55607,12.12082 -137.3446,-13.84054 -9.43259,-4.44534 -32.25984,-2.4544 -32.28341,-12.88197 -0.0628,-27.75634 60.73585,-46.65145 85.77679,-34.67774 z"
         id="path3277"
         sodipodi:nodetypes="cccccccss"
         inkscape:connector-curvature="0" />
      <path
         style="fill:url(#linearGradient5327);fill-opacity:1;fill-rule:evenodd;stroke:none"
         d="m 442.38643,369.72029 c 9.96953,-3.45839 20.42821,15.72307 30.93051,16.74957 26.56898,10.15684 61.826,-66.72107 26.39489,-54.39246 -10.4349,10.65273 5.04384,17.94816 -6.40929,20.56269 -13.01177,-5.15435 -17.11536,-19.2326 -0.89088,-30.73459 28.51365,-10.20818 41.21232,-3.08371 47.2683,31.2511 6.59556,51.55001 -49.64709,72.84611 -101.87971,87.99502 -9.83231,3.47283 -24.66149,20.94116 -32.01125,13.54414 -19.56376,-19.68953 10.37402,-75.87872 36.59743,-84.97547 z"
         id="path3298"
         sodipodi:nodetypes="cccccccss"
         inkscape:connector-curvature="0" />
      <path
         sodipodi:nodetypes="cccccccss"
         id="path3296"
         d="m 469.27552,426.95252 c 9.96953,-3.45839 20.42821,15.72307 30.93051,16.74957 26.56898,10.15684 61.826,-66.72107 26.39489,-54.39246 -10.4349,10.65273 5.04384,17.94816 -6.40929,20.56269 -13.01177,-5.15435 -17.11536,-19.2326 -0.89088,-30.73459 28.51365,-10.20818 43.46232,-8.58371 52.7683,32.5011 -9.15444,71.55001 -55.14709,71.59611 -107.37971,86.74502 -9.83231,3.47283 -24.66149,20.94116 -32.01125,13.54414 -19.56376,-19.68953 10.37402,-75.87872 36.59743,-84.97547 z"
         style="fill:url(#linearGradient5329);fill-opacity:1;fill-rule:evenodd;stroke:none"
         inkscape:connector-curvature="0" />
      <path
         style="fill:url(#linearGradient5331);fill-opacity:1;fill-rule:evenodd;stroke:none"
         d="m 348.51164,376.13631 c -8.05744,-3.95859 -22.06198,9.45781 -31.68659,8.88458 -26.18863,4.37289 -38.94832,-59.42168 -10.32197,-45.32409 6.72171,9.56051 -8.87089,13.16968 0.71622,16.67093 12.86937,-2.28035 19.95902,-12.59131 8.27602,-23.55784 -22.9677,-11.56595 -36.70682,-12.25606 -55.01371,18.18127 -9.24364,56.30083 31.79989,62.30931 74.73745,80.76127 7.9314,3.95188 16.91671,19.33285 25.2778,14.58973 22.25575,-12.62529 9.20863,-59.79342 -11.98522,-70.20585 z"
         id="path2481"
         sodipodi:nodetypes="cccccccss"
         inkscape:connector-curvature="0" />
      <path
         sodipodi:nodetypes="cssssssscscccccccssssc"
         id="path2483"
         d="m 388.4375,232.40625 c -3.31967,0.027 -6.50655,0.23917 -9.4375,0.65625 -26.36521,3.7518 -61.26396,20.15907 -79.4375,39.625 -13.73355,14.71018 -24.52655,41.85013 -25.75,61.9375 -1.06877,17.54758 18.57092,39.0852 15.75,56.4375 -2.59234,15.94615 -26.31616,28.93251 -30.15625,44.625 -3.79747,15.51834 -0.12219,38.18885 6.09375,52.90625 4.08696,9.67661 13.52147,21.09846 22.125,27.125 4.7438,3.32291 10.1556,6.74321 15.9375,10.0625 -4.82038,0.89166 -8.97501,2.86971 -12,6.21875 -6.49762,7.19366 10.47045,20.0785 14.1875,29.03125 16.68293,47.7256 19.0296,90.43596 85.90625,95.34375 37.67063,-10.69981 38.43778,-24.66901 27.53125,-50.625 -11.49093,-14.48351 -24.36825,-9.96198 -28.5,2.375 3.00163,10.50035 8.99414,-4.24557 19.40625,4.90625 13.22194,32.27085 -59.90764,3.39143 -51.8125,-21.78125 14.63004,-37.95817 36.86173,-67.03988 78.78125,-75.90625 7.64764,-12.75671 6.40825,-56.41203 5.40625,-62.15625 -1.00199,-5.74421 30.48703,-26.27877 38.4375,-41.1875 11.52028,-21.60285 23.632,-55.53004 18.5,-79.46875 -7.11967,-33.2104 -39.66474,-72.28519 -68.625,-90.03125 -10.93845,-6.70278 -27.95849,-10.21058 -42.34375,-10.09375 z"
         style="fill:#5a4f60;fill-opacity:1;fill-rule:evenodd;stroke:none"
         inkscape:connector-curvature="0" />
      <path
         d="m 420.02143,466.87778 c 0,16.40202 -10.76381,29.69848 -24.04163,29.69848 -13.27783,0 -24.04163,-13.29646 -24.04163,-29.69848 0,-16.40202 10.7638,-29.69849 24.04163,-29.69849 13.27782,0 24.04163,13.29647 24.04163,29.69849 z"
         sodipodi:ry="29.698484"
         sodipodi:rx="24.04163"
         sodipodi:cy="466.87778"
         sodipodi:cx="395.9798"
         id="path2485"
         style="opacity:0.58098593;fill:#eeeeec;fill-opacity:1;fill-rule:nonzero;stroke:none"
         sodipodi:type="arc" />
      <path
         transform="matrix(0.3529411,0,0,1,257.63644,0)"
         sodipodi:type="arc"
         style="fill:#5c3566;fill-opacity:1;fill-rule:nonzero;stroke:none"
         id="path2487"
         sodipodi:cx="395.9798"
         sodipodi:cy="466.87778"
         sodipodi:rx="24.04163"
         sodipodi:ry="29.698484"
         d="m 420.02143,466.87778 c 0,16.40202 -10.76381,29.69848 -24.04163,29.69848 -13.27783,0 -24.04163,-13.29646 -24.04163,-29.69848 0,-16.40202 10.7638,-29.69849 24.04163,-29.69849 13.27782,0 24.04163,13.29647 24.04163,29.69849 z" />
      <path
         sodipodi:nodetypes="cscscc"
         id="path2489"
         d="m 394.22829,441.53125 c -11.1391,0 -10.19703,-6.81539 -20.19704,24.94465 -0.1186,0.37669 0.0115,0.78991 0.0262,1.18035 3.23052,-1.52398 22.1813,-12.56668 25.51346,-10.69613 l 14.80193,8.30921 c -0.50909,-13.20156 -9.33227,-23.73806 -20.14458,-23.73808 z"
         style="opacity:0.58098593;fill:url(#linearGradient5333);fill-opacity:1;fill-rule:nonzero;stroke:none"
         inkscape:connector-curvature="0" />
      <path
         id="path3272"
         d="m 273.86551,415.75779 c -9.16087,-0.35799 -18.0987,11.88848 -20.20896,28.01912 -2.04366,15.6216 3.03622,29.36567 11.48278,32.04392 -1.41334,-8.94653 -1.5663,-18.90814 -0.2099,-29.27641 1.49836,-11.45333 4.6699,-21.94799 8.93608,-30.78663 z"
         style="fill:#b0abb1;fill-opacity:1;fill-rule:nonzero;stroke:none"
         inkscape:connector-curvature="0" />
      <path
         sodipodi:nodetypes="cccccccss"
         id="path2473"
         d="m 233.57143,488.07647 c -10.27083,2.42119 -8.82503,24.22077 -17.14286,30.71428 C 199.43628,541.60159 128.4779,495.57792 165,487.00503 c 14.51824,3.40415 5.35715,17.85715 16.42857,13.92858 8.22519,-11.32342 4.14749,-25.40919 -15.71429,-26.42857 -29.54518,6.65717 -41.297,16.03781 -27.14285,55.71428 46.06372,55.50984 84.92309,30.90748 137.14285,15.71429 10.1627,-2.33546 32.04289,4.46925 34.28572,-5.71429 5.97002,-27.10677 -49.41266,-58.51144 -76.42857,-52.14285 z"
         style="fill:#5a4f60;fill-opacity:1;fill-rule:evenodd;stroke:none"
         inkscape:connector-curvature="0" />
      <path
         id="path3300"
         d="m 450.35968,322.72243 c 0.95319,6.98641 1.46875,14.19252 1.46875,21.53125 0,23.16905 -4.94876,44.84222 -13.5625,63.34375 4.49389,7.76668 7.77486,17.05911 9.40625,27.28125 21.62444,-8.19835 37.15625,-30.45842 37.15625,-56.625 0,-25.07103 -14.25528,-46.56414 -34.46875,-55.53125 z"
         style="fill:url(#linearGradient5335);fill-opacity:1;fill-rule:nonzero;stroke:none"
         inkscape:connector-curvature="0" />
      <path
         id="path3308"
         d="m 382.5,408.375 c -18.492,0 -33.5,19.712 -33.5,44 0,15.44558 6.07489,29.02328 15.25,36.875 -2.07621,-5.72409 -3.25,-12.11593 -3.25,-18.875 0,-24.288 15.008,-44 33.5,-44 6.73661,0 12.99529,2.62469 18.25,7.125 -5.38019,-14.85952 -16.89593,-25.125 -30.25,-25.125 z"
         style="fill:#2e3436;fill-opacity:1;fill-rule:nonzero;stroke:none"
         inkscape:connector-curvature="0" />
      <path
         style="fill:url(#linearGradient5337);fill-opacity:1;fill-rule:evenodd;stroke:none"
         d="m 388.85457,239.13895 c -29.71385,2.15521 -58.21538,15.83268 -80.4375,35.25 -16.6176,17.05067 -26.5539,41.21946 -26.96875,65.0625 2.80531,19.03765 19.48104,35.36856 14.90625,55.59374 -4.7715,19.24066 -28.32452,27.74397 -30.63823,47.96588 -2.25015,24.9036 5.09485,52.53361 26.04448,67.90912 -4.85596,-19.26654 -6.11785,-42.71666 8.65625,-58.0625 7.47209,-9.04814 19.74835,-17.26443 19.90625,-30.125 -1.59203,-19.95935 -19.62592,-36.86332 -15.1875,-57.81249 4.30438,-31.93838 21.63877,-63.00128 50.2208,-78.93975 25.00192,-15.39712 54.74713,-26.53368 84.58193,-22.57703 3.55724,0.31528 8.63166,1.75569 11.16602,2.04803 -14.68889,-14.85282 -34.33096,-26.13822 -55.78125,-26.1875 -2.15319,-0.15221 -4.31116,-0.20014 -6.46875,-0.125 z"
         id="path3393"
         inkscape:connector-curvature="0" />
      <path
         id="path3526"
         d="m 165.40625,477.625 c -0.97308,0.0275 -1.95486,0.16138 -2.90625,0.4375 -11.22339,2.74066 -26.0716,7.01182 -28.375,20.21875 -1.69838,11.12027 1.60506,22.60138 5.84375,32.6875 4.08238,5.60751 3.82342,3.40549 1.84375,-1.9375 -3.74994,-12.37062 -6.30136,-28.8112 4.59375,-38.34375 7.51586,-6.71821 18.98989,-9.27043 27.625,-11.28125 -2.74906,-0.97623 -5.70576,-1.86371 -8.625,-1.78125 z m 10.21875,19.5625 c -0.0448,0.017 -0.0939,0.0552 -0.125,0.0937 -0.49971,2.40365 2.17648,4.60263 3.4375,2.6875 -0.53822,-0.96113 -2.64027,-3.03586 -3.3125,-2.78125 z m 20.8125,30.625 c -0.052,0.0112 -0.0297,0.043 0.21875,0.0625 -0.0403,-0.0645 -0.16671,-0.0737 -0.21875,-0.0625 z m 0.25,0.125 c 0.42557,0.139 0.87311,0.27638 1.3125,0.40625 l 0,-0.3125 c -0.44339,-0.022 -0.88197,-0.0602 -1.3125,-0.0937 z"
         style="fill:url(#linearGradient5339);fill-opacity:1;fill-rule:evenodd;stroke:none"
         inkscape:connector-curvature="0" />
      <path
         id="path3533"
         d="m 238.625,492.21875 c -4.53496,0.21268 -8.28513,3.00926 -9.53125,7.59375 -3.38044,9.34878 -4.7164,20.43414 -13.46875,26.5625 -4.79209,3.56957 -11.44691,3.98976 -16.9375,3.5625 9.06376,2.96048 21.48647,4.03999 27.71875,-4.875 6.76335,-8.56059 4.62533,-22.65014 14.4375,-29.0625 5.51541,-2.41818 11.90562,-1.88553 17.78125,-1.25 -5.84603,-1.62393 -11.90925,-2.70468 -18,-2.46875 -0.6742,-0.0777 -1.35215,-0.0929 -2,-0.0625 z m -40.1875,37.59375 c -0.052,0.0112 -0.0297,0.043 0.21875,0.0625 -0.0403,-0.0645 -0.16671,-0.0737 -0.21875,-0.0625 z"
         style="fill:url(#linearGradient5341);fill-opacity:1;fill-rule:evenodd;stroke:none"
         inkscape:connector-curvature="0" />
      <path
         sodipodi:nodetypes="cscscsc"
         id="path3582"
         d="m 343.24078,512.93101 c -14.79185,-3.10291 -29.63603,7.88889 -33.12681,24.52974 -0.62969,3.00178 -0.842,5.97858 -0.68896,8.868 4.19232,-15.54946 18.44427,-25.5762 32.65589,-22.595 12.12833,2.54419 18.14166,4.96847 18.83133,18.10356 0.17284,-0.63993 0.33614,-1.2922 0.47419,-1.95031 3.49078,-16.64084 -3.35378,-23.85307 -18.14564,-26.95599 z"
         style="opacity:0.62323943;fill:url(#linearGradient5343);fill-opacity:1;fill-rule:nonzero;stroke:none"
         inkscape:connector-curvature="0" />
      <path
         id="path3599"
         d="m 382.54477,544.65951 -24.04163,-15.55635 -21.21321,-4.24264 7.77818,50.20458 13.43503,31.81981 3.53553,1.41421 -8.48528,-16.97056 6.36396,-13.43503 22.62742,-33.23402 z"
         style="fill:url(#linearGradient5345);fill-opacity:1;fill-rule:evenodd;stroke:none"
         inkscape:connector-curvature="0" />
      <path
         id="path3717"
         d="m 445.68948,520.26916 c 1.84205,8.61546 -0.16163,18.44148 5.40625,25.84375 -2.53437,-8.42041 0.57768,-18.86485 -5.4375,-25.9375 l 0.0312,0.0937 z m 5.40625,25.84375 c 0.025,0.16001 0.0598,8.1e-4 0,0 z m 52.875,-18.34375 c -5.14713,0.14573 -8.53323,5.8041 -9.46875,10.0625 -0.21485,2.61076 3.96454,4.40495 4.5,1.125 1.51321,-4.37947 5.54303,-8.24619 9.53125,-9.3125 -1.37981,-0.77528 -2.81623,-2.35472 -4.5625,-1.875 z m 32.09375,8.40625 c 2.61598,14.09101 -5.46943,27.3621 -12.5625,38.875 -18.21892,14.66618 -41.79798,25.8388 -65.71875,21.625 21.63243,6.67137 44.77924,-0.62296 62.5625,-13.4375 9.45736,-4.87703 13.38317,-15.49121 17.21875,-24.8125 2.70602,-6.94882 3.40945,-16.73725 -1.5,-22.25 z m -167.8125,21.875 c 4.23867,1.3192 10.69367,2.16823 13.5625,2.5625 -4.24632,-1.28932 -10.16847,-2.05051 -13.5625,-2.5625 z"
         style="fill:#2e3436;fill-opacity:1;fill-rule:evenodd;stroke:none"
         inkscape:connector-curvature="0" />
      <path
         id="path5266"
         d="m 525.34375,387.03125 c -7.01589,-0.71335 -9.27104,8.12781 -6.25,13.28125 1.43573,2.67041 0.0608,6.03078 -1.90625,7.40625 1.63843,2.09461 6.0545,0.46161 4.0625,-2.34375 -3.51469,-6.67519 -0.63024,-17.27429 7.59375,-18.0625 -1.11721,-0.3427 -2.33756,-0.41916 -3.5,-0.28125 z m 37.46875,6.28125 c 2.51605,7.63108 5.7177,15.66461 2.96875,23.75 -3.56584,22.62009 -14.98905,45.2595 -35.46875,56.78125 -22.90512,13.6341 -50.24775,15.86211 -74.96875,24.8125 -7.00559,4.32696 -14.52798,10.63808 -21.28125,13.59375 6.80335,1.69622 12.26879,-4.82979 17.5771,-7.90753 11.10469,-9.60047 26.58711,-10.12749 40.07915,-14.40497 23.31722,-5.84725 49.31902,-13.50322 63.15625,-34.9375 8.39738,-12.83117 12.76109,-28.08461 13.93139,-43.22439 -1.57613,-6.63429 -3.40544,-13.18473 -6.27514,-19.24436 l 0.28125,0.78125 z"
         style="fill:#2e3436;fill-opacity:1;fill-rule:evenodd;stroke:none"
         inkscape:connector-curvature="0" />
      <path
         sodipodi:nodetypes="czccc"
         style="fill:url(#linearGradient5347);fill-opacity:1;fill-rule:evenodd;stroke:none"
         d="m 295.66609,537.84149 c -0.21222,-10.84428 -10.9315,-19.38864 -19.09188,-25.8094 -7.94021,-6.24752 -26.16296,6.01041 -26.16296,6.01041 l -12.37436,36.76955 c 24.28145,-9.98704 38.78713,-11.09335 57.6292,-16.97056 z"
         id="path5279"
         inkscape:connector-curvature="0" />
    </g>
    <rect
       style="opacity:0.62323943;fill:#2e3436;fill-opacity:1;fill-rule:nonzero;stroke:none;stroke-width:3;stroke-linecap:round;stroke-linejoin:bevel;stroke-miterlimit:4;stroke-dasharray:none;stroke-dashoffset:0;stroke-opacity:1"
       id="rect5283"
       width="176"
       height="0"
       x="42"
       y="136.36218"
       ry="0" />
  </g>
</svg>
