<?xml version="1.0" encoding="UTF-8" standalone="no"?>
<!-- Created with Inkscape (http://www.inkscape.org/) -->

<svg
   xmlns:dc="http://purl.org/dc/elements/1.1/"
   xmlns:cc="http://creativecommons.org/ns#"
   xmlns:rdf="http://www.w3.org/1999/02/22-rdf-syntax-ns#"
   xmlns:svg="http://www.w3.org/2000/svg"
   xmlns="http://www.w3.org/2000/svg"
   xmlns:xlink="http://www.w3.org/1999/xlink"
   xmlns:sodipodi="http://sodipodi.sourceforge.net/DTD/sodipodi-0.dtd"
   xmlns:inkscape="http://www.inkscape.org/namespaces/inkscape"
   width="229.95029"
   height="194.81299"
   id="svg2"
   version="1.1"
   inkscape:version="0.48.1 "
   sodipodi:docname="skillet.svg">
  <defs
     id="defs4">
    <linearGradient
       inkscape:collect="always"
       id="linearGradient3735">
      <stop
         style="stop-color:#eeeeec;stop-opacity:1"
         offset="0"
         id="stop3737" />
      <stop
         style="stop-color:#babdb6;stop-opacity:1"
         offset="1"
         id="stop3739" />
    </linearGradient>
    <linearGradient
       inkscape:collect="always"
       id="linearGradient3706">
      <stop
         style="stop-color:#555753;stop-opacity:1;"
         offset="0"
         id="stop3708" />
      <stop
         style="stop-color:#555753;stop-opacity:0;"
         offset="1"
         id="stop3710" />
    </linearGradient>
    <linearGradient
       inkscape:collect="always"
       id="linearGradient3679">
      <stop
         style="stop-color:#888a85;stop-opacity:1"
         offset="0"
         id="stop3681" />
      <stop
         style="stop-color:#d3d7cf;stop-opacity:1"
         offset="1"
         id="stop3683" />
    </linearGradient>
    <linearGradient
       inkscape:collect="always"
       id="linearGradient3661">
      <stop
         style="stop-color:#ffffff;stop-opacity:1;"
         offset="0"
         id="stop3663" />
      <stop
         id="stop3669"
         offset="0.90626669"
         style="stop-color:#ffffff;stop-opacity:0.09019608;" />
      <stop
         style="stop-color:#888a85;stop-opacity:1"
         offset="1"
         id="stop3665" />
    </linearGradient>
    <inkscape:perspective
       sodipodi:type="inkscape:persp3d"
       inkscape:vp_x="0 : 526.18109 : 1"
       inkscape:vp_y="0 : 1000 : 0"
       inkscape:vp_z="744.09448 : 526.18109 : 1"
       inkscape:persp3d-origin="372.04724 : 350.78739 : 1"
       id="perspective10" />
    <linearGradient
       inkscape:collect="always"
       xlink:href="#linearGradient3661"
       id="linearGradient3667"
       x1="86.549713"
       y1="407.18753"
       x2="222.92467"
       y2="436.18753"
       gradientUnits="userSpaceOnUse"
       gradientTransform="matrix(0.990025,0,0,0.990025,-313.63227,-9.1793691)" />
    <linearGradient
       inkscape:collect="always"
       xlink:href="#linearGradient3706"
       id="linearGradient3712"
       x1="251.67578"
       y1="557.09601"
       x2="224.90416"
       y2="545.0752"
       gradientUnits="userSpaceOnUse"
       gradientTransform="translate(-337.28993,-176.42314)" />
    <filter
       inkscape:collect="always"
       id="filter3721"
       color-interpolation-filters="sRGB">
      <feGaussianBlur
         inkscape:collect="always"
         stdDeviation="1.4908878"
         id="feGaussianBlur3723" />
    </filter>
    <filter
       inkscape:collect="always"
       id="filter3731"
       color-interpolation-filters="sRGB">
      <feGaussianBlur
         inkscape:collect="always"
         stdDeviation="0.40094223"
         id="feGaussianBlur3733" />
    </filter>
    <linearGradient
       inkscape:collect="always"
       xlink:href="#linearGradient3735"
       id="linearGradient3741"
       x1="178"
       y1="387.69699"
       x2="88.101715"
       y2="387.69699"
       gradientUnits="userSpaceOnUse"
       gradientTransform="translate(-315.36962,-12.727922)" />
    <linearGradient
       inkscape:collect="always"
       xlink:href="#linearGradient3679"
       id="linearGradient3743"
       gradientUnits="userSpaceOnUse"
       x1="70.5"
       y1="369.86218"
       x2="230"
       y2="365.48438"
       gradientTransform="translate(-315.36962,-12.727922)" />
    <linearGradient
       inkscape:collect="always"
       xlink:href="#linearGradient3661"
       id="linearGradient3629"
       gradientUnits="userSpaceOnUse"
       gradientTransform="matrix(0.990025,0,0,0.990025,-116.34949,200.83134)"
       x1="86.549713"
       y1="407.18753"
       x2="222.92467"
       y2="436.18753" />
    <linearGradient
       inkscape:collect="always"
       xlink:href="#linearGradient3679"
       id="linearGradient3631"
       gradientUnits="userSpaceOnUse"
       x1="70.5"
       y1="369.86218"
       x2="230"
       y2="365.48438"
       gradientTransform="translate(-118.08683,197.28279)" />
    <linearGradient
       inkscape:collect="always"
       xlink:href="#linearGradient3735"
       id="linearGradient3633"
       gradientUnits="userSpaceOnUse"
       x1="178"
       y1="387.69699"
       x2="88.101715"
       y2="387.69699"
       gradientTransform="translate(-118.08683,197.28279)" />
    <linearGradient
       inkscape:collect="always"
       xlink:href="#linearGradient3706"
       id="linearGradient3635"
       gradientUnits="userSpaceOnUse"
       gradientTransform="translate(-140.00714,33.587572)"
       x1="251.67578"
       y1="557.09601"
       x2="224.90416"
       y2="545.0752" />
  </defs>
  <sodipodi:namedview
     id="base"
     pagecolor="#ffffff"
     bordercolor="#666666"
     borderopacity="1.0"
     inkscape:pageopacity="0.0"
     inkscape:pageshadow="2"
     inkscape:zoom="1.4142136"
     inkscape:cx="133.62483"
     inkscape:cy="59.410119"
     inkscape:document-units="px"
     inkscape:current-layer="layer1"
     showgrid="false"
     inkscape:window-width="1920"
     inkscape:window-height="1018"
     inkscape:window-x="-8"
     inkscape:window-y="-8"
     inkscape:window-maximized="1" />
  <metadata
     id="metadata7">
    <rdf:RDF>
      <cc:Work
         rdf:about="">
        <dc:format>image/svg+xml</dc:format>
        <dc:type
           rdf:resource="http://purl.org/dc/dcmitype/StillImage" />
        <dc:title></dc:title>
      </cc:Work>
    </rdf:RDF>
  </metadata>
  <g
     inkscape:label="Capa 1"
     inkscape:groupmode="layer"
     id="layer1"
     transform="translate(-57.54971,-252.81207)">
    <path
       style="fill:#d3d7cf;fill-opacity:1;stroke:#000000;stroke-width:1px;stroke-linecap:butt;stroke-linejoin:miter;stroke-opacity:1"
       d="m -48.025866,240.58458 c -14.3078,0.30281 -75.343754,71.0625 -75.343754,71.0625 3,2 8,25 22,7 14.000004,-18 73.000004,-70 73.000004,-70 0,0 -6,-6 -19,-8 -0.20312,-0.0312 -0.42914,-0.0673 -0.65625,-0.0625 z m -0.22151,3.89461 c 0,0 8.30546,1.44302 8.65901,3.91789 -26.40781,18.27244 -38.65549,18.99756 -8.65901,-3.91789 z"
       id="path2885"
       sodipodi:nodetypes="ccscscccc"
       inkscape:connector-curvature="0"
       inkscape:export-filename="D:\studyworkspace\Asia\res\drawable-hdpi\xstatus_cook_32.png"
       inkscape:export-xdpi="22.175095"
       inkscape:export-ydpi="22.175095" />
    <path
       style="fill:#6c6f6c;fill-opacity:1;stroke:none;filter:url(#filter3721)"
       d="m -108.89444,315.55692 76.721084,-67.5287 -71.771344,71.77134 -4.94974,-4.24264 z"
       id="path3719"
       inkscape:connector-curvature="0"
       inkscape:export-filename="D:\studyworkspace\Asia\res\drawable-hdpi\xstatus_cook_32.png"
       inkscape:export-xdpi="22.175095"
       inkscape:export-ydpi="22.175095" />
    <path
       style="fill:#babdb6;fill-opacity:1;stroke:#2e3436"
       d="m -163.88241,306.52208 c -51.60499,0 -93.4375,20.91625 -93.4375,46.71875 l 12.34375,47.96875 c 0,0 0.20643,-0.0723 0.28125,-0.0937 7.3605,18.96037 40.73831,33.28125 80.8125,33.28125 39.47671,0 72.432334,-13.89852 80.437504,-32.4375 l 0.0937,0.0312 0.21875,-0.78125 c 3.08205,-16.3045 10.15437,-31.55265 12.6875,-47.96875 0,-25.8025 -41.832504,-46.71875 -93.437504,-46.71875 l 5e-5,0 z"
       id="path2843"
       sodipodi:nodetypes="ccccscccccc"
       inkscape:connector-curvature="0"
       inkscape:export-filename="D:\studyworkspace\Asia\res\drawable-hdpi\xstatus_cook_32.png"
       inkscape:export-xdpi="22.175095"
       inkscape:export-ydpi="22.175095" />
    <path
       sodipodi:nodetypes="ccccscccccc"
       id="path2887"
       d="m -163.65615,306.88611 c -51.09025,0 -92.50546,20.70761 -92.50546,46.25272 l 12.22062,47.49027 c 0,0 0.20437,-0.0715 0.27844,-0.0927 7.28708,18.77125 40.33195,32.94927 80.0064,32.94927 39.08293,0 71.709824,-13.75988 79.635134,-32.11393 l 0.0927,0.0308 0.21657,-0.77345 c 3.05131,-16.14187 10.05308,-31.23792 12.56094,-47.49027 0,-25.54511 -41.415214,-46.25272 -92.505464,-46.25272 l 5e-5,0 z"
       style="opacity:0.6857143;fill:url(#linearGradient3667);fill-opacity:1;stroke:none"
       inkscape:connector-curvature="0"
       inkscape:export-filename="D:\studyworkspace\Asia\res\drawable-hdpi\xstatus_cook_32.png"
       inkscape:export-xdpi="22.175095"
       inkscape:export-ydpi="22.175095" />
    <path
       style="fill:url(#linearGradient3743);fill-opacity:1;stroke:none"
       d="m -163.55712,310.74083 c -47.42363,0 -86.16029,18.58477 -88.78125,41.96875 l -0.34375,0.125 c 2.62096,23.38398 41.35762,41.9375 88.78125,41.9375 47.42409,0 86.160984,-18.55319 88.781254,-41.9375 l 0.375,-0.125 c -2.62027,-23.38431 -41.388414,-41.96875 -88.812504,-41.96875 z"
       id="path2869"
       sodipodi:nodetypes="cccsccc"
       inkscape:connector-curvature="0"
       inkscape:export-filename="D:\studyworkspace\Asia\res\drawable-hdpi\xstatus_cook_32.png"
       inkscape:export-xdpi="22.175095"
       inkscape:export-ydpi="22.175095" />
    <path
       style="fill:url(#linearGradient3741);fill-opacity:1;stroke:#555753"
       d="m -163.42416,358.54721 c -28.00861,0 -52.21302,8.08724 -63.84374,19.84375 16.08697,8.02581 38.2894,13 62.81249,13 25.22664,0 48.00321,-5.25239 64.1875,-13.6875 -11.88253,-11.38517 -35.69386,-19.15625 -63.15625,-19.15625 z"
       id="path2874"
       inkscape:connector-curvature="0"
       inkscape:export-filename="D:\studyworkspace\Asia\res\drawable-hdpi\xstatus_cook_32.png"
       inkscape:export-xdpi="22.175095"
       inkscape:export-ydpi="22.175095" />
    <path
       style="font-size:medium;font-style:normal;font-variant:normal;font-weight:normal;font-stretch:normal;text-indent:0;text-align:start;text-decoration:none;line-height:normal;letter-spacing:normal;word-spacing:normal;text-transform:none;direction:ltr;block-progression:tb;writing-mode:lr-tb;text-anchor:start;color:#000000;fill:url(#linearGradient3712);fill-opacity:1;fill-rule:nonzero;stroke:none;stroke-width:3;marker:none;visibility:visible;display:inline;overflow:visible;enable-background:accumulate;font-family:Bitstream Vera Sans;-inkscape-font-specification:Bitstream Vera Sans"
       d="m -90.164926,325.20186 c -2.50509,0.98973 -4.68503,2.23529 -1.68762,3.53765 7.19502,5.1155 14.38379,11.67378 16.28216,20.54218 -1.02523,10.9865 -11.77255,20.51251 -20.62926,26.05459 -17.776654,10.78736 -38.719424,15.02253 -59.262144,16.25041 -3.34254,0.39488 -6.88546,-0.39516 -9.96515,1.24038 -1.659,0.86791 -8.67047,2.18139 -3.55656,1.97855 23.24302,0.41505 47.0418,-3.00839 68.0625,-13.3617 11.844044,-6.08824 32.207404,-19.41418 28.687994,-35.69929 -3.48922,-9.52331 -10.05752,-15.20526 -17.93192,-20.54277 z"
       id="path3693"
       sodipodi:nodetypes="cccccccccc"
       inkscape:connector-curvature="0"
       inkscape:export-filename="D:\studyworkspace\Asia\res\drawable-hdpi\xstatus_cook_32.png"
       inkscape:export-xdpi="22.175095"
       inkscape:export-ydpi="22.175095" />
    <path
       id="path3725"
       d="m -49.693856,242.78741 c 0,0 -17.39182,11.39029 -17.39182,18.28458 3.18198,-5.65685 18.64886,-17.28642 18.64886,-17.28642 l 1.526,-1.06536 -2.78304,0.0672 z"
       style="fill:#9a9e99;fill-opacity:1;stroke:none;filter:url(#filter3731)"
       sodipodi:nodetypes="ccccc"
       inkscape:connector-curvature="0"
       inkscape:export-filename="D:\studyworkspace\Asia\res\drawable-hdpi\xstatus_cook_32.png"
       inkscape:export-xdpi="22.175095"
       inkscape:export-ydpi="22.175095" />
  </g>
</svg>
