<?xml version="1.0" encoding="UTF-8" standalone="no"?>
<svg
   xmlns:f="tag:f_bruder@web.de,2008:fbedit"
   xmlns:xhv="http://www.w3.org/1999/xhtml/vocab#"
   xmlns:dc="http://purl.org/dc/elements/1.1/"
   xmlns:cc="http://creativecommons.org/ns#"
   xmlns:rdf="http://www.w3.org/1999/02/22-rdf-syntax-ns#"
   xmlns:svg="http://www.w3.org/2000/svg"
   xmlns="http://www.w3.org/2000/svg"
   xmlns:sodipodi="http://sodipodi.sourceforge.net/DTD/sodipodi-0.dtd"
   xmlns:inkscape="http://www.inkscape.org/namespaces/inkscape"
   version="1.1"
   viewBox="0 0 4500 4500"
   id="svg2"
   inkscape:version="0.48.1 "
   width="100%"
   height="100%"
   sodipodi:docname="skotan_Condom.svg">
  <sodipodi:namedview
     pagecolor="#ffffff"
     bordercolor="#666666"
     borderopacity="1"
     objecttolerance="10"
     gridtolerance="10"
     guidetolerance="10"
     inkscape:pageopacity="0"
     inkscape:pageshadow="2"
     inkscape:window-width="1920"
     inkscape:window-height="1018"
     id="namedview116"
     showgrid="false"
     inkscape:zoom="0.069555556"
     inkscape:cx="2250"
     inkscape:cy="2250"
     inkscape:window-x="-8"
     inkscape:window-y="-8"
     inkscape:window-maximized="1"
     inkscape:current-layer="svg2" />
  <title
     id="title4">vector condom</title>
  <metadata
     id="metadata6">
    <rdf:RDF>
      <rdf:Description
         rdf:about="">
        <dc:creator>
          <rdf:Description
             rdf:about="http://purl.org/net/2008,frankbruder/id">
            <dc:title>Frank Bruder</dc:title>
          </rdf:Description>
        </dc:creator>
        <xhv:license
           rdf:resource="http://creativecommons.org/publicdomain/zero/1.0/" />
        <dc:relation
           rdf:resource="http://purl.org/net/frankbruders_tragicomics/leastOfMyProblems" />
      </rdf:Description>
      <cc:Work
         rdf:about="">
        <dc:format>image/svg+xml</dc:format>
        <dc:type
           rdf:resource="http://purl.org/dc/dcmitype/StillImage" />
        <dc:title>vector condom</dc:title>
      </cc:Work>
    </rdf:RDF>
  </metadata>
  <defs
     id="defs8">
    <radialGradient
       id="rgs"
       gradientUnits="userSpaceOnUse"
       cx="0"
       cy="0"
       r="1550">
      <stop
         offset="0"
         stop-opacity="0.14"
         stop-color="#D1C356"
         id="stop11" />
      <stop
         offset="0.32"
         stop-opacity="0.35"
         stop-color="#D1C356"
         id="stop13" />
      <stop
         offset="0.42"
         stop-opacity="0.56"
         stop-color="#D1C356"
         id="stop15" />
      <stop
         offset="0.63"
         stop-opacity="0.35"
         stop-color="#D1C356"
         id="stop17" />
      <stop
         offset="1"
         stop-opacity="0.14"
         stop-color="#D1C356"
         id="stop19" />
    </radialGradient>
    <radialGradient
       id="rgsp">
      <stop
         offset="0"
         stop-opacity="1"
         stop-color="#fff"
         id="stop22" />
      <stop
         offset="0.3"
         stop-opacity="1"
         stop-color="#fff"
         id="stop24" />
      <stop
         offset="1"
         stop-opacity="0"
         stop-color="#fff"
         id="stop26" />
    </radialGradient>
    <radialGradient
       id="rgr"
       gradientUnits="userSpaceOnUse"
       cx="0"
       cy="0"
       r="2"
       gradientTransform="translate(-50 -50) scale(1775 1675)">
      <stop
         offset="0"
         stop-color="#000"
         id="stop29" />
      <stop
         offset="0.49"
         stop-color="#D1C356"
         id="stop31" />
      <stop
         offset="0.51"
         stop-color="#D1C356"
         id="stop33" />
      <stop
         offset="1"
         stop-color="#000"
         id="stop35" />
    </radialGradient>
    <radialGradient
       id="rgspr"
       gradientUnits="userSpaceOnUse"
       cx="0"
       cy="-0.07"
       r="2"
       gradientTransform="scale(1775 1675) rotate(-45)">
      <stop
         offset="0"
         stop-opacity="0"
         stop-color="#fff"
         id="stop38" />
      <stop
         offset="0.48"
         stop-opacity="0"
         stop-color="#fff"
         id="stop40" />
      <stop
         offset="0.5"
         stop-opacity="0.4"
         stop-color="#fff"
         id="stop42" />
      <stop
         offset="0.52"
         stop-opacity="0"
         stop-color="#fff"
         id="stop44" />
      <stop
         offset="1"
         stop-opacity="0"
         stop-color="#fff"
         id="stop46" />
    </radialGradient>
    <radialGradient
       id="rgrro"
       gradientUnits="userSpaceOnUse"
       cx="0"
       cy="0"
       r="1"
       gradientTransform="scale(2000 1900)">
      <stop
         offset="0"
         stop-opacity="0"
         stop-color="#fff"
         id="stop49" />
      <stop
         offset="0.95"
         stop-opacity="0"
         stop-color="#fff"
         id="stop51" />
      <stop
         offset="0.985"
         stop-opacity="0.7"
         stop-color="#fff"
         id="stop53" />
      <stop
         offset="1"
         stop-opacity="0"
         stop-color="#fff"
         id="stop55" />
    </radialGradient>
    <radialGradient
       id="rgrri"
       gradientUnits="userSpaceOnUse"
       cx="0"
       cy="0"
       r="1"
       gradientTransform="scale(2000 1871)">
      <stop
         offset="0"
         stop-opacity="0"
         stop-color="#fff"
         id="stop58" />
      <stop
         offset="0.775"
         stop-opacity="0"
         stop-color="#fff"
         id="stop60" />
      <stop
         offset="0.81"
         stop-opacity="0"
         stop-color="#fff"
         id="stop62" />
      <stop
         offset="0.85"
         stop-opacity="0.3"
         stop-color="#fff"
         id="stop64" />
      <stop
         offset="0.89"
         stop-opacity="0"
         stop-color="#fff"
         id="stop66" />
      <stop
         offset="1"
         stop-opacity="0"
         stop-color="#fff"
         id="stop68" />
    </radialGradient>
  </defs>
  <g
     transform="translate(2250 2250)"
     id="g70"
     inkscape:export-filename="D:\studyworkspace\Asia\res\drawable-hdpi\xstatus_sex_32.png"
     inkscape:export-xdpi="1.1076924"
     inkscape:export-ydpi="1.1076924">
    <path
       fill="#ccc"
       transform="translate(100 100)"
       d="M2000 0a2000 1900 0 0 1 -4000 0a2000 1900 0 1 1 4000 0zM1550 0a1550 1450 0 1 0 -3100 0a1550 1450 0 0 0 3100 0z"
       id="path72" />
    <ellipse
       fill="url(#rgs)"
       cx="0"
       cy="0"
       rx="1775"
       ry="1675"
       id="ellipse74"
       d="M 1775,0 C 1775,925.07696 980.30543,1675 0,1675 -980.30543,1675 -1775,925.07696 -1775,0 c 0,-925.07696 794.69457,-1675 1775,-1675 980.30543,0 1775,749.92304 1775,1675 z" />
    <circle
       fill="url(#rgsp)"
       cx="-270"
       cy="-270"
       r="153"
       id="circle76"
       d="m -117,-270 c 0,84.49957 -68.50043,153 -153,153 -84.49957,0 -153,-68.50043 -153,-153 0,-84.49957 68.50043,-153 153,-153 84.49957,0 153,68.50043 153,153 z" />
    <path
       fill="url(#rgr)"
       d="M2000 0a2000 1900 0 0 1 -4000 0a2000 1900 0 1 1 4000 0zM1590 0q-81 -53 -4 -111 -85 -47 -14 -111 -88 -40 -22 -110 -91 -33 -31 -107 -94 -27 -39 -105 -96 -20 -47 -102 -98 -13 -56 -99 -98 -5 -63 -94 -99 2 -71 -90 -98 9 -77 -84 -98 16 -85 -79 -96 23 -90 -73 -94 31 -95 -66 -93 37 -101 -59 -89 43 -105 -52 -86 50 -109 -45 -82 56 -112 -37 -78 62 -115 -29 -73 68 -117 -20 -68 72 -118 -13 -63 77 -119 -4 -56 81 -119 4 -50 85 -118 13 -44 88 -117 20 -37 91 -115 29 -30 93 -112 37 -23 95 -109 45 -16 95 -105 52 -8 96 -101 59 -1 97 -95 66 6 96 -90 73 13 95 -85 79 21 93 -77 84 28 92 -71 90 35 89 -63 94 42 86 -56 99 49 82 -47 102 55 78 -39 105 60 74 -31 107 66 70 -22 110 71 64 -14 111 77 58 -4 111 81 53 4 111 85 47 14 111 88 40 22 110 91 33 31 107 94 27 39 105 96 20 47 102 98 13 56 99 98 5 63 94 99 -2 71 90 98 -9 77 84 98 -16 85 79 96 -23 90 73 94 -31 95 66 93 -37 101 59 89 -43 105 52 86 -50 109 45 82 -56 112 37 78 -62 115 29 73 -68 117 20 68 -72 118 13 63 -77 119 4 56 -81 119 -4 50 -85 118 -13 44 -88 117 -20 37 -91 115 -29 30 -93 112 -37 23 -95 109 -45 16 -95 105 -52 8 -96 101 -59 1 -97 95 -66 -6 -96 90 -73 -13 -95 85 -79 -21 -93 77 -84 -28 -92 71 -90 -35 -89 63 -94 -42 -86 56 -99 -49 -82 47 -102 -55 -78 39 -105 -60 -74 31 -107 -66 -70 22 -110 -71 -64 14 -111 -77 -58 4 -111z"
       id="path78">
      <f:source
         attributeName="d">
        <f:js>
        var Rx = 2000-450;
        var Ry = 1900-450;
        var d = 40;
        var N = 84;
        var points = [];
        points[-2] = Rx+d;
        points[-1] = 0;
        for(var k = 0; k &lt; N; k++) {
          points.push(Math.cos(-2*Math.PI*(k+0.5)/N)*(Rx-d));
          points.push(Math.sin(-2*Math.PI*(k+0.5)/N)*(Ry-d));
          points.push(Math.cos(-2*Math.PI*(k+1)/N)*(Rx+d));
          points.push(Math.sin(-2*Math.PI*(k+1)/N)*(Ry+d));
        }
        for(var k = 0; k &lt; points.length; k++) {
          points[k] = Math.round(points[k]);
        }

        for(var k = points.length-1; k &gt;= 0; k--) {
          points[k] -= points[k-((k%4)&lt;2 ? 2:4)];
        }
        p = 'M2000 0a2000 1900 0 0 1 -4000 0a2000 1900 0 1 1 4000 0z';
        p += 'M'+points[-2]+' '+points[-1]+'q'+points.join(' ')+'z';
        return p;
      </f:js>
      </f:source>
    </path>
    <ellipse
       fill="url(#rgrri)"
       cx="0"
       cy="0"
       rx="2000"
       ry="1900"
       id="ellipse80"
       d="m 2000,0 c 0,1049.341 -895.4305,1900 -2000,1900 -1104.5695,0 -2000,-850.659 -2000,-1900 0,-1049.341 895.4305,-1900 2000,-1900 1104.5695,0 2000,850.659 2000,1900 z" />
    <ellipse
       fill="url(#rgrro)"
       cx="0"
       cy="0"
       rx="2000"
       ry="1900"
       id="ellipse82"
       d="m 2000,0 c 0,1049.341 -895.4305,1900 -2000,1900 -1104.5695,0 -2000,-850.659 -2000,-1900 0,-1049.341 895.4305,-1900 2000,-1900 1104.5695,0 2000,850.659 2000,1900 z" />
    <ellipse
       fill="url(#rgspr)"
       cx="0"
       cy="0"
       rx="2000"
       ry="1900"
       id="ellipse84"
       d="m 2000,0 c 0,1049.341 -895.4305,1900 -2000,1900 -1104.5695,0 -2000,-850.659 -2000,-1900 0,-1049.341 895.4305,-1900 2000,-1900 1104.5695,0 2000,850.659 2000,1900 z" />
    <g
       transform="scale(1.775 1.675) rotate(-45)"
       id="g86">
      <circle
         fill="url(#rgsp)"
         cx="0"
         cy="0"
         r="200"
         transform="translate(0 -1070) scale(1 0.25)"
         id="circle88"
         d="m 200,0 c 0,110.45695 -89.54305,200 -200,200 -110.45695,0 -200,-89.54305 -200,-200 0,-110.45695 89.54305,-200 200,-200 110.45695,0 200,89.54305 200,200 z" />
      <circle
         fill="url(#rgsp)"
         cx="0"
         cy="0"
         r="30"
         transform="rotate(45) translate(0 945) rotate(10) scale(0.5 1)"
         id="circle90"
         d="M 30,0 C 30,16.568542 16.568542,30 0,30 -16.568542,30 -30,16.568542 -30,0 c 0,-16.568542 13.431458,-30 30,-30 16.568542,0 30,13.431458 30,30 z" />
      <circle
         fill="url(#rgsp)"
         cx="0"
         cy="0"
         r="50"
         transform="rotate(41) translate(0 940) rotate(10) scale(0.4 1)"
         id="circle92"
         d="M 50,0 C 50,27.614237 27.614237,50 0,50 -27.614237,50 -50,27.614237 -50,0 c 0,-27.614237 22.385763,-50 50,-50 27.614237,0 50,22.385763 50,50 z" />
      <circle
         fill="url(#rgsp)"
         cx="0"
         cy="0"
         r="30"
         transform="rotate(37) translate(0 935) rotate(10) scale(0.5 1)"
         id="circle94"
         d="M 30,0 C 30,16.568542 16.568542,30 0,30 -16.568542,30 -30,16.568542 -30,0 c 0,-16.568542 13.431458,-30 30,-30 16.568542,0 30,13.431458 30,30 z" />
      <circle
         fill="url(#rgsp)"
         cx="0"
         cy="0"
         r="25"
         transform="rotate(6) translate(0 930) rotate(10) scale(1 0.6)"
         id="circle96"
         d="M 25,0 C 25,13.807119 13.807119,25 0,25 -13.807119,25 -25,13.807119 -25,0 c 0,-13.807119 11.192881,-25 25,-25 13.807119,0 25,11.192881 25,25 z" />
      <circle
         fill="url(#rgsp)"
         cx="0"
         cy="0"
         r="30"
         transform="rotate(4) translate(0 890) scale(1 0.7)"
         id="circle98"
         d="M 30,0 C 30,16.568542 16.568542,30 0,30 -16.568542,30 -30,16.568542 -30,0 c 0,-16.568542 13.431458,-30 30,-30 16.568542,0 30,13.431458 30,30 z" />
      <circle
         fill="url(#rgsp)"
         cx="0"
         cy="0"
         r="30"
         transform="rotate(2) translate(0 930) rotate(-10) scale(0.6 1)"
         id="circle100"
         d="M 30,0 C 30,16.568542 16.568542,30 0,30 -16.568542,30 -30,16.568542 -30,0 c 0,-16.568542 13.431458,-30 30,-30 16.568542,0 30,13.431458 30,30 z" />
      <circle
         fill="url(#rgsp)"
         cx="0"
         cy="0"
         r="40"
         transform="translate(0 900) scale(1 0.7)"
         id="circle102"
         d="M 40,0 C 40,22.09139 22.09139,40 0,40 -22.09139,40 -40,22.09139 -40,0 c 0,-22.09139 17.90861,-40 40,-40 22.09139,0 40,17.90861 40,40 z" />
      <circle
         fill="url(#rgsp)"
         cx="0"
         cy="0"
         r="30"
         transform="rotate(-2) translate(0 930) rotate(10) scale(0.6 1)"
         id="circle104"
         d="M 30,0 C 30,16.568542 16.568542,30 0,30 -16.568542,30 -30,16.568542 -30,0 c 0,-16.568542 13.431458,-30 30,-30 16.568542,0 30,13.431458 30,30 z" />
      <circle
         fill="url(#rgsp)"
         cx="0"
         cy="0"
         r="30"
         transform="rotate(-4) translate(0 890) scale(1 0.7)"
         id="circle106"
         d="M 30,0 C 30,16.568542 16.568542,30 0,30 -16.568542,30 -30,16.568542 -30,0 c 0,-16.568542 13.431458,-30 30,-30 16.568542,0 30,13.431458 30,30 z" />
      <circle
         fill="url(#rgsp)"
         cx="0"
         cy="0"
         r="25"
         transform="rotate(-6) translate(0 930) rotate(-10) scale(1 0.6)"
         id="circle108"
         d="M 25,0 C 25,13.807119 13.807119,25 0,25 -13.807119,25 -25,13.807119 -25,0 c 0,-13.807119 11.192881,-25 25,-25 13.807119,0 25,11.192881 25,25 z" />
      <circle
         fill="url(#rgsp)"
         cx="0"
         cy="0"
         r="30"
         transform="rotate(-37) translate(0 935) rotate(-10) scale(0.5 1)"
         id="circle110"
         d="M 30,0 C 30,16.568542 16.568542,30 0,30 -16.568542,30 -30,16.568542 -30,0 c 0,-16.568542 13.431458,-30 30,-30 16.568542,0 30,13.431458 30,30 z" />
      <circle
         fill="url(#rgsp)"
         cx="0"
         cy="0"
         r="50"
         transform="rotate(-41) translate(0 940) rotate(-10) scale(0.4 1)"
         id="circle112"
         d="M 50,0 C 50,27.614237 27.614237,50 0,50 -27.614237,50 -50,27.614237 -50,0 c 0,-27.614237 22.385763,-50 50,-50 27.614237,0 50,22.385763 50,50 z" />
      <circle
         fill="url(#rgsp)"
         cx="0"
         cy="0"
         r="30"
         transform="rotate(-45) translate(0 945) rotate(-10) scale(0.5 1)"
         id="circle114"
         d="M 30,0 C 30,16.568542 16.568542,30 0,30 -16.568542,30 -30,16.568542 -30,0 c 0,-16.568542 13.431458,-30 30,-30 16.568542,0 30,13.431458 30,30 z" />
    </g>
  </g>
</svg>
