<?xml version="1.0" encoding="UTF-8" standalone="no"?>
<!-- Created with Inkscape (http://www.inkscape.org/) -->

<svg
   xmlns:dc="http://purl.org/dc/elements/1.1/"
   xmlns:cc="http://creativecommons.org/ns#"
   xmlns:rdf="http://www.w3.org/1999/02/22-rdf-syntax-ns#"
   xmlns:svg="http://www.w3.org/2000/svg"
   xmlns="http://www.w3.org/2000/svg"
   xmlns:xlink="http://www.w3.org/1999/xlink"
   xmlns:sodipodi="http://sodipodi.sourceforge.net/DTD/sodipodi-0.dtd"
   xmlns:inkscape="http://www.inkscape.org/namespaces/inkscape"
   version="1.0"
   width="210mm"
   height="297mm"
   id="svg2"
   inkscape:version="0.48.1 "
   sodipodi:docname="smile_police.svg">
  <metadata
     id="metadata32">
    <rdf:RDF>
      <cc:Work
         rdf:about="">
        <dc:format>image/svg+xml</dc:format>
        <dc:type
           rdf:resource="http://purl.org/dc/dcmitype/StillImage" />
        <dc:title></dc:title>
      </cc:Work>
    </rdf:RDF>
  </metadata>
  <sodipodi:namedview
     pagecolor="#ffffff"
     bordercolor="#666666"
     borderopacity="1"
     objecttolerance="10"
     gridtolerance="10"
     guidetolerance="10"
     inkscape:pageopacity="0"
     inkscape:pageshadow="2"
     inkscape:window-width="1920"
     inkscape:window-height="1018"
     id="namedview30"
     showgrid="false"
     inkscape:zoom="0.78211887"
     inkscape:cx="-14.396765"
     inkscape:cy="295.75385"
     inkscape:window-x="-8"
     inkscape:window-y="-8"
     inkscape:window-maximized="1"
     inkscape:current-layer="svg2" />
  <defs
     id="defs5">
    <linearGradient
       inkscape:collect="always"
       id="linearGradient3937">
      <stop
         style="stop-color:#ffffff;stop-opacity:1;"
         offset="0"
         id="stop3939" />
      <stop
         style="stop-color:#ffffff;stop-opacity:0;"
         offset="1"
         id="stop3941" />
    </linearGradient>
    <linearGradient
       inkscape:collect="always"
       id="linearGradient3929">
      <stop
         style="stop-color:#ffffff;stop-opacity:1;"
         offset="0"
         id="stop3931" />
      <stop
         style="stop-color:#ffffff;stop-opacity:0;"
         offset="1"
         id="stop3933" />
    </linearGradient>
    <linearGradient
       id="linearGradient3950">
      <stop
         style="stop-color:#79513a;stop-opacity:1"
         offset="0"
         id="stop3952" />
      <stop
         style="stop-color:#271a12;stop-opacity:1"
         offset="1"
         id="stop3954" />
    </linearGradient>
    <linearGradient
       id="linearGradient3196">
      <stop
         style="stop-color:#fdeeee;stop-opacity:1"
         offset="0"
         id="stop3198" />
      <stop
         style="stop-color:#fac1bb;stop-opacity:1"
         offset="1"
         id="stop3200" />
    </linearGradient>
    <linearGradient
       id="linearGradient3154">
      <stop
         style="stop-color:#ffe500;stop-opacity:1"
         offset="0"
         id="stop3156" />
      <stop
         style="stop-color:#ff9b00;stop-opacity:1"
         offset="1"
         id="stop3158" />
    </linearGradient>
    <inkscape:perspective
       id="perspective9"
       inkscape:persp3d-origin="372.04724 : 350.78739 : 1"
       inkscape:vp_z="744.09448 : 526.18109 : 1"
       inkscape:vp_y="0 : 1000 : 0"
       inkscape:vp_x="0 : 526.18109 : 1"
       sodipodi:type="inkscape:persp3d" />
    <radialGradient
       cx="404.31665"
       cy="506.70181"
       r="222.75591"
       fx="404.31665"
       fy="506.70181"
       id="radialGradient3160"
       xlink:href="#linearGradient3154"
       gradientUnits="userSpaceOnUse"
       gradientTransform="matrix(1,0,0,0.9897742,-66.219201,-25.603219)"
       spreadMethod="pad" />
    <linearGradient
       x1="422.7608"
       y1="316.15829"
       x2="422.7608"
       y2="406.6579"
       id="linearGradient3956"
       xlink:href="#linearGradient3950"
       gradientUnits="userSpaceOnUse" />
    <linearGradient
       inkscape:collect="always"
       xlink:href="#linearGradient3929"
       id="linearGradient3935"
       x1="645.92505"
       y1="694.99963"
       x2="488.71442"
       y2="473.8056"
       gradientUnits="userSpaceOnUse" />
    <linearGradient
       inkscape:collect="always"
       xlink:href="#linearGradient3937"
       id="linearGradient3943"
       x1="430.55164"
       y1="702.24207"
       x2="284.17349"
       y2="468.90161"
       gradientUnits="userSpaceOnUse" />
    <filter
       id="filter33607"
       height="1.2629213"
       y="-0.13146064"
       width="1.2207547"
       x="-0.11037739"
       inkscape:collect="always">
      <feGaussianBlur
         id="feGaussianBlur33609"
         stdDeviation="1.1698454"
         inkscape:collect="always" />
    </filter>
    <linearGradient
       id="linearGradient25606">
      <stop
         id="stop25608"
         offset="0"
         style="stop-color:#494b4a;stop-opacity:1;" />
      <stop
         id="stop25610"
         offset="1"
         style="stop-color:#909291;stop-opacity:1;" />
    </linearGradient>
    <linearGradient
       id="linearGradient28629">
      <stop
         id="stop28631"
         offset="0"
         style="stop-color:#b3b3b3;stop-opacity:1;" />
      <stop
         id="stop28633"
         offset="1"
         style="stop-color:#d4dada;stop-opacity:1;" />
    </linearGradient>
    <linearGradient
       id="linearGradient42364">
      <stop
         style="stop-color:#b3b3b3;stop-opacity:1;"
         offset="0"
         id="stop42366" />
      <stop
         style="stop-color:#e5e5e5;stop-opacity:1;"
         offset="1"
         id="stop42368" />
    </linearGradient>
    <linearGradient
       id="linearGradient42380">
      <stop
         id="stop42382"
         offset="0"
         style="stop-color:#8b8b8b;stop-opacity:1;" />
      <stop
         id="stop42384"
         offset="1"
         style="stop-color:#f5f5f5;stop-opacity:1;" />
    </linearGradient>
    <linearGradient
       id="linearGradient43450">
      <stop
         id="stop43452"
         offset="0"
         style="stop-color:#99999f;stop-opacity:1;" />
      <stop
         id="stop43454"
         offset="1"
         style="stop-color:#99999f;stop-opacity:0;" />
    </linearGradient>
    <linearGradient
       inkscape:collect="always"
       xlink:href="#linearGradient43450"
       id="linearGradient4291"
       gradientUnits="userSpaceOnUse"
       gradientTransform="matrix(0.01536289,0.63078112,-0.76390578,0.01254238,255.70829,638.09076)"
       spreadMethod="reflect"
       x1="225.39813"
       y1="65.914146"
       x2="225.39813"
       y2="50.462624" />
    <linearGradient
       gradientUnits="userSpaceOnUse"
       xlink:href="#linearGradient3154-5"
       id="linearGradient3430"
       y2="577.29688"
       x2="677.3078"
       y1="577.29688"
       x1="560.56989" />
    <linearGradient
       gradientUnits="userSpaceOnUse"
       xlink:href="#linearGradient3416"
       id="linearGradient3422"
       y2="613.67566"
       x2="719.03314"
       y1="569.63403"
       x1="566.25616" />
    <linearGradient
       gradientUnits="userSpaceOnUse"
       xlink:href="#linearGradient3382"
       id="linearGradient3388"
       y2="194.51459"
       x2="151.04599"
       y1="194.51459"
       x1="126.23879" />
    <linearGradient
       gradientUnits="userSpaceOnUse"
       xlink:href="#linearGradient3374"
       id="linearGradient3380"
       y2="426.08728"
       x2="147.06889"
       y1="426.08728"
       x1="120.32496" />
    <radialGradient
       gradientTransform="matrix(0.8778636,0.1306894,-0.1530917,1.0283435,77.863917,-47.006679)"
       gradientUnits="userSpaceOnUse"
       xlink:href="#linearGradient3196-8"
       id="radialGradient3206"
       fy="313.64542"
       fx="243.84201"
       r="108.81631"
       cy="313.64542"
       cx="243.84201" />
    <radialGradient
       gradientTransform="matrix(0.9995717,2.9265887e-2,-3.0427056e-2,1.0392314,9.7131327,-25.690257)"
       gradientUnits="userSpaceOnUse"
       xlink:href="#linearGradient3196-8"
       id="radialGradient3202"
       fy="313.69574"
       fx="392.90057"
       r="108.81631"
       cy="313.69574"
       cx="392.90057" />
    <radialGradient
       spreadMethod="pad"
       gradientTransform="matrix(1,0,0,0.9897742,0,5.2990749)"
       gradientUnits="userSpaceOnUse"
       xlink:href="#linearGradient3154-5"
       id="radialGradient3160-2"
       fy="506.70181"
       fx="404.31665"
       r="222.75591"
       cy="506.70181"
       cx="404.31665" />
    <inkscape:perspective
       sodipodi:type="inkscape:persp3d"
       inkscape:vp_x="0 : 526.18109 : 1"
       inkscape:vp_y="0 : 1000 : 0"
       inkscape:vp_z="744.09448 : 526.18109 : 1"
       inkscape:persp3d-origin="372.04724 : 350.78739 : 1"
       id="perspective9-4" />
    <linearGradient
       id="linearGradient3154-5">
      <stop
         id="stop3156-2"
         offset="0"
         style="stop-color:#ffe500;stop-opacity:1" />
      <stop
         id="stop3158-6"
         offset="1"
         style="stop-color:#ff9b00;stop-opacity:1" />
    </linearGradient>
    <linearGradient
       id="linearGradient3196-8">
      <stop
         id="stop3198-0"
         offset="0"
         style="stop-color:#fdeeee;stop-opacity:1" />
      <stop
         id="stop3200-3"
         offset="1"
         style="stop-color:#fac1bb;stop-opacity:1" />
    </linearGradient>
    <linearGradient
       id="linearGradient3374">
      <stop
         id="stop3376"
         offset="0"
         style="stop-color:#646464;stop-opacity:1" />
      <stop
         id="stop3378"
         offset="1"
         style="stop-color:#bcbcbc;stop-opacity:1" />
    </linearGradient>
    <linearGradient
       id="linearGradient3382">
      <stop
         id="stop3384"
         offset="0"
         style="stop-color:#646464;stop-opacity:1" />
      <stop
         id="stop3386"
         offset="1"
         style="stop-color:#646464;stop-opacity:0" />
    </linearGradient>
    <linearGradient
       id="linearGradient3416">
      <stop
         id="stop3418"
         offset="0"
         style="stop-color:#d20000;stop-opacity:1" />
      <stop
         id="stop3420"
         offset="1"
         style="stop-color:#6d0000;stop-opacity:1" />
    </linearGradient>
    <linearGradient
       inkscape:collect="always"
       xlink:href="#linearGradient3154-5"
       id="linearGradient4480"
       gradientUnits="userSpaceOnUse"
       gradientTransform="matrix(0.37445717,0.92724421,0.92724421,-0.37445717,-688.12201,399.15658)"
       x1="560.56989"
       y1="577.29688"
       x2="677.3078"
       y2="577.29688" />
  </defs>
  <path
     d="M 569.46007 518.20868 A 215.25591 212.97806 0 1 1  138.94826,518.20868 A 215.25591 212.97806 0 1 1  569.46007 518.20868 z"
     transform="translate(66.219201,30.902294)"
     style="opacity:1;fill:url(#radialGradient3160);fill-opacity:1;fill-rule:evenodd;stroke:#000000;stroke-width:15;stroke-linecap:butt;stroke-linejoin:miter;marker:none;marker-start:none;marker-mid:none;marker-end:none;stroke-miterlimit:4;stroke-dasharray:none;stroke-dashoffset:0;stroke-opacity:1;visibility:visible;display:inline;overflow:visible;enable-background:accumulate"
     id="path2382"
     inkscape:export-filename="D:\studyworkspace\Asia\res\drawable\dirol_30.png"
     inkscape:export-xdpi="6.122015"
     inkscape:export-ydpi="6.122015" />
  <path
     d="M 265.54473 91.113609 A 25.232576 37.901764 0 1 1  215.07957,91.113609 A 25.232576 37.901764 0 1 1  265.54473 91.113609 z"
     transform="translate(127.57982,391.48149)"
     style="opacity:1;fill:#000000;fill-opacity:1;fill-rule:evenodd;stroke:#000000;stroke-width:0;stroke-linecap:butt;stroke-linejoin:miter;marker:none;marker-start:none;marker-mid:none;marker-end:none;stroke-miterlimit:4;stroke-dasharray:none;stroke-dashoffset:0;stroke-opacity:1;visibility:visible;display:inline;overflow:visible;enable-background:accumulate"
     id="path3164"
     inkscape:export-filename="D:\studyworkspace\Asia\res\drawable\dirol_30.png"
     inkscape:export-xdpi="6.122015"
     inkscape:export-ydpi="6.122015" />
  <use
     transform="translate(106.16644,-2.207306)"
     id="use3168"
     x="0"
     y="0"
     width="744.09448"
     height="1052.3622"
     xlink:href="#path3164"
     inkscape:export-filename="D:\studyworkspace\Asia\res\drawable\dirol_30.png"
     inkscape:export-xdpi="6.122015"
     inkscape:export-ydpi="6.122015" />
  <path
     style="font-size:medium;font-style:normal;font-variant:normal;font-weight:normal;font-stretch:normal;text-indent:0;text-align:start;text-decoration:none;line-height:normal;letter-spacing:normal;word-spacing:normal;text-transform:none;direction:ltr;block-progression:tb;writing-mode:lr-tb;text-anchor:start;baseline-shift:baseline;color:#000000;fill:#c8c8c8;fill-opacity:1;fill-rule:nonzero;stroke:none;stroke-width:59.79330826;marker:none;visibility:visible;display:inline;overflow:visible;enable-background:accumulate;font-family:Sans;-inkscape-font-specification:Sans"
     d="m 362.01651,452.88546 0,5.69845 0,1.38289 0,5.70444 21.10848,0 83.59575,0 21.10848,0 0,-5.70444 0,-1.38289 0,-5.69845 -21.10848,0 -83.59575,0 -21.10848,0 z"
     id="rect3815-6"
     inkscape:connector-curvature="0"
     inkscape:export-filename="D:\studyworkspace\Asia\res\drawable\dirol_30.png"
     inkscape:export-xdpi="6.122015"
     inkscape:export-ydpi="6.122015" />
  <path
     style="font-size:medium;font-style:normal;font-variant:normal;font-weight:normal;font-stretch:normal;text-indent:0;text-align:start;text-decoration:none;line-height:normal;letter-spacing:normal;word-spacing:normal;text-transform:none;direction:ltr;block-progression:tb;writing-mode:lr-tb;text-anchor:start;baseline-shift:baseline;color:#000000;fill:#c8c8c8;fill-opacity:1;fill-rule:nonzero;stroke:none;stroke-width:59.79330826;marker:none;visibility:visible;display:inline;overflow:visible;enable-background:accumulate;font-family:Sans;-inkscape-font-specification:Sans"
     d="m 358.85707,420.35002 0,5.69845 0,1.38289 0,5.70444 21.10848,0 83.59575,0 21.10848,0 0,-5.70444 0,-1.38289 0,-5.69845 -21.10848,0 -83.59575,0 -21.10848,0 z"
     id="rect3815"
     inkscape:connector-curvature="0"
     inkscape:export-filename="D:\studyworkspace\Asia\res\drawable\dirol_30.png"
     inkscape:export-xdpi="6.122015"
     inkscape:export-ydpi="6.122015" />
  <path
     style="font-size:medium;font-style:normal;font-variant:normal;font-weight:normal;font-stretch:normal;text-indent:0;text-align:start;text-decoration:none;line-height:normal;letter-spacing:normal;word-spacing:normal;text-transform:none;direction:ltr;block-progression:tb;writing-mode:lr-tb;text-anchor:start;baseline-shift:baseline;color:#000000;fill:#000000;fill-opacity:1;fill-rule:nonzero;stroke:none;stroke-width:59.79330826;marker:none;visibility:visible;display:inline;overflow:visible;enable-background:accumulate;font-family:Sans;-inkscape-font-specification:Sans"
     d="m 334.2119,570.32808 c -16.78558,3.1028 -48.73974,8.33791 -63.42873,-4.48652 -14.68901,-12.82443 -33.02842,-39.84286 -35.64291,-60.57643 -2.73696,-21.70481 -10.03466,-44.55154 9.34074,-67.9274 17.3613,-20.94592 53.44648,-19.43297 74.13316,-20.31661 20.68669,-0.88364 58.86078,-4.24563 73.54196,8.5791 14.68118,12.82476 10.44021,21.73293 11.33206,42.61164 -2.61413,36.63591 -38.50408,96.42801 -69.27628,102.11622 z"
     id="path2997-1"
     inkscape:connector-curvature="0"
     sodipodi:nodetypes="sssssscs"
     inkscape:export-filename="D:\studyworkspace\Asia\res\drawable\dirol_30.png"
     inkscape:export-xdpi="6.122015"
     inkscape:export-ydpi="6.122015" />
  <path
     style="font-size:medium;font-style:normal;font-variant:normal;font-weight:normal;font-stretch:normal;text-indent:0;text-align:start;text-decoration:none;line-height:normal;letter-spacing:normal;word-spacing:normal;text-transform:none;direction:ltr;block-progression:tb;writing-mode:lr-tb;text-anchor:start;baseline-shift:baseline;color:#000000;fill:#000000;fill-opacity:1;fill-rule:nonzero;stroke:none;stroke-width:59.79330826;marker:none;visibility:visible;display:inline;overflow:visible;enable-background:accumulate;font-family:Sans;-inkscape-font-specification:Sans"
     d="m 506.3996,571.38464 c 16.75122,3.28322 48.64719,8.86185 63.47332,-3.80379 14.82614,-12.66564 33.45521,-39.48518 36.29263,-60.18942 2.97034,-21.6741 10.51345,-44.44099 -8.60931,-68.02398 -17.13492,-21.1315 -53.23429,-20.00691 -73.91026,-21.11309 -20.67598,-1.10617 -58.81168,-4.87871 -73.63001,7.78731 -14.81832,12.66605 -10.67345,21.61933 -11.78989,42.48724 2.21978,36.66192 37.46431,96.83674 68.17352,102.85573 z"
     id="path2997-1-3"
     inkscape:connector-curvature="0"
     sodipodi:nodetypes="sssssscs"
     inkscape:export-filename="D:\studyworkspace\Asia\res\drawable\dirol_30.png"
     inkscape:export-xdpi="6.122015"
     inkscape:export-ydpi="6.122015" />
  <path
     inkscape:connector-curvature="0"
     d="m 343.70088,660.88044 a 27.34209,18.239468 76.226522 0 1 -35.44635,8.6181 27.34209,18.239468 76.226522 1 1 35.44635,-8.6181 z"
     style="fill:#000000;fill-opacity:1;fill-rule:evenodd;stroke:#000000;stroke-width:0;stroke-linecap:butt;stroke-linejoin:miter;stroke-miterlimit:4;stroke-opacity:1;stroke-dasharray:none;stroke-dashoffset:0;marker:none;visibility:visible;display:inline;overflow:visible;enable-background:accumulate"
     id="path3164-5"
     inkscape:export-filename="D:\studyworkspace\Asia\res\drawable\dirol_30.png"
     inkscape:export-xdpi="6.122015"
     inkscape:export-ydpi="6.122015" />
  <path
     style="font-size:medium;font-style:normal;font-variant:normal;font-weight:normal;font-stretch:normal;text-indent:0;text-align:start;text-decoration:none;line-height:normal;letter-spacing:normal;word-spacing:normal;text-transform:none;direction:ltr;block-progression:tb;writing-mode:lr-tb;text-anchor:start;baseline-shift:baseline;color:#000000;fill:url(#linearGradient3943);fill-opacity:1;fill-rule:nonzero;stroke:none;stroke-width:59.79330826000000300;marker:none;visibility:visible;display:inline;overflow:visible;enable-background:accumulate;font-family:Sans;-inkscape-font-specification:Sans"
     d="m 331.68326,561.6704 c -14.97618,2.76833 -43.48585,7.43912 -56.59145,-4.0029 -13.10561,-11.44202 -29.46813,-35.54801 -31.80079,-54.04661 -2.44193,-19.36514 -8.95297,-39.74912 8.33386,-60.60518 15.48984,-18.68806 47.68523,-17.3382 66.14199,-18.12659 18.45678,-0.78838 52.5159,-3.78797 65.61453,7.65432 13.09862,11.44232 9.31481,19.39024 10.11052,38.01833 -2.33234,32.68675 -34.35354,86.03358 -61.80866,91.10863 z"
     id="path2997-1-5"
     inkscape:connector-curvature="0"
     sodipodi:nodetypes="sssssscs"
     inkscape:export-filename="D:\studyworkspace\Asia\res\drawable\dirol_30.png"
     inkscape:export-xdpi="6.122015"
     inkscape:export-ydpi="6.122015" />
  <path
     style="font-size:medium;font-style:normal;font-variant:normal;font-weight:normal;font-stretch:normal;text-indent:0;text-align:start;text-decoration:none;line-height:normal;letter-spacing:normal;word-spacing:normal;text-transform:none;direction:ltr;block-progression:tb;writing-mode:lr-tb;text-anchor:start;baseline-shift:baseline;color:#000000;fill:url(#linearGradient3935);fill-opacity:1;fill-rule:nonzero;stroke:none;stroke-width:59.79330826000000300;marker:none;visibility:visible;display:inline;overflow:visible;enable-background:accumulate;font-family:Sans;-inkscape-font-specification:Sans"
     d="m 509.23481,564.0839 c 15.2659,2.9921 44.3337,8.07608 57.84521,-3.46651 13.51153,-11.5426 30.48878,-35.98408 33.07461,-54.8525 2.70696,-19.75228 9.58123,-40.50046 -7.84594,-61.99238 -15.61558,-19.25779 -48.51406,-18.23292 -67.35672,-19.24101 -18.84267,-1.00809 -53.59692,-4.44612 -67.10133,7.09682 -13.50439,11.54296 -9.72704,19.70237 -10.74449,38.71994 2.02295,33.41115 34.14239,88.25034 62.12866,93.73564 z"
     id="path2997-1-3-8"
     inkscape:connector-curvature="0"
     sodipodi:nodetypes="sssssscs"
     inkscape:export-filename="D:\studyworkspace\Asia\res\drawable\dirol_30.png"
     inkscape:export-xdpi="6.122015"
     inkscape:export-ydpi="6.122015" />
  <path
     inkscape:connector-curvature="0"
     style="fill:#565656;fill-opacity:1;fill-rule:nonzero;stroke:#000000;stroke-width:0.74565911;stroke-linecap:butt;stroke-linejoin:miter;stroke-miterlimit:4;stroke-opacity:1;stroke-dashoffset:0.7;display:inline"
     d="m 171.0336,445.20441 0.45601,25.41187 -1.39128,0.48894 0.92128,65.84675 -66.20221,1.05291 -2.1197,-90.27716 10.10385,-0.18465 14.11637,-3.03676 28.85434,-0.43691 15.26134,1.13501 z"
     id="rect3138"
     sodipodi:nodetypes="cccccccccc"
     inkscape:export-filename="D:\studyworkspace\Asia\res\drawable\dirol_30.png"
     inkscape:export-xdpi="6.122015"
     inkscape:export-ydpi="6.122015" />
  <path
     inkscape:connector-curvature="0"
     style="fill:#b3b3b3;fill-opacity:1;fill-rule:nonzero;stroke:#000000;stroke-width:0.72397321;stroke-linecap:butt;stroke-linejoin:miter;stroke-miterlimit:4;stroke-opacity:1;stroke-dashoffset:0.7"
     d="m 180.52597,445.9621 0.42545,17.46905 -7.03258,7.6536 -2.27176,0.0373 -0.62685,-25.73792 9.50574,0.57797 z"
     id="rect4136"
     sodipodi:nodetypes="cccccc"
     inkscape:export-filename="D:\studyworkspace\Asia\res\drawable\dirol_30.png"
     inkscape:export-xdpi="6.122015"
     inkscape:export-ydpi="6.122015" />
  <path
     inkscape:connector-curvature="0"
     style="fill:#000000;fill-opacity:1;fill-rule:nonzero;stroke:#000000;stroke-width:0.72397321;stroke-linecap:butt;stroke-linejoin:miter;stroke-miterlimit:4;stroke-opacity:1;stroke-dashoffset:0.7"
     d="m 185.68729,446.55495 c 0,0 1.52818,12.14864 0.77772,12.72017 -0.68669,0.52295 -5.20389,0.40486 -5.20389,0.40486 l -0.33081,-13.58334 4.75698,0.45831 z"
     id="rect8015"
     sodipodi:nodetypes="czccc"
     inkscape:export-filename="D:\studyworkspace\Asia\res\drawable\dirol_30.png"
     inkscape:export-xdpi="6.122015"
     inkscape:export-ydpi="6.122015" />
  <path
     inkscape:connector-curvature="0"
     style="fill:#d3d2c2;fill-opacity:1;fill-rule:evenodd;stroke:#000000;stroke-width:1.6310153px;stroke-linecap:butt;stroke-linejoin:miter;stroke-opacity:1"
     d="m 174.965,643.24075 1.68422,15.93473 c -11.47301,1.962 -22.40186,8.52639 -23.84716,14.22562 12.66773,11.61602 17.46922,19.54794 13.19094,27.18553 -2.88977,-4.24078 -8.55331,-11.21485 -14.72818,-15.32155 -3.30074,-5.57695 -8.83854,-9.74267 -15.9054,-9.62662 l -8.84009,0.67721 c 0.24774,10.17561 -14.61884,26.4893 -27.431564,26.6997 l -1.32127,-54.25046 77.198504,-5.52416 z"
     id="path19771"
     sodipodi:nodetypes="cccccccccc"
     inkscape:export-filename="D:\studyworkspace\Asia\res\drawable\dirol_30.png"
     inkscape:export-xdpi="6.122015"
     inkscape:export-ydpi="6.122015" />
  <rect
     style="fill:#4d4d4d;fill-opacity:1;fill-rule:nonzero;stroke:none;filter:url(#filter33607)"
     id="rect19750"
     width="25.43663"
     height="21.357185"
     x="-542.38409"
     y="254.17049"
     rx="0"
     ry="0"
     transform="matrix(0.02227173,0.91445023,-1.1137481,0.01828636,439.51167,1051.9873)"
     inkscape:export-filename="D:\studyworkspace\Asia\res\drawable\dirol_30.png"
     inkscape:export-xdpi="6.122015"
     inkscape:export-ydpi="6.122015" />
  <path
     inkscape:connector-curvature="0"
     style="fill:#d3d2c2;fill-opacity:1;fill-rule:evenodd;stroke:#000000;stroke-width:1.0093931px;stroke-linecap:butt;stroke-linejoin:miter;stroke-opacity:1"
     d="m 81.751116,614.14673 c -6.00276,0.53763 -14.79845,1.6699 -20.41367,1.65233 -25.43562,0.41763 -18.57826,-12.64707 -26.90814,-12.51031 1.36768,6.75385 5.45033,19.2289 27.19676,18.87185 -1.68825,11.187 5.5956,12.01868 11.21169,10.24344 l 8.91336,-18.25731 z"
     id="path19724"
     sodipodi:nodetypes="cccccc"
     inkscape:export-filename="D:\studyworkspace\Asia\res\drawable\dirol_30.png"
     inkscape:export-xdpi="6.122015"
     inkscape:export-ydpi="6.122015" />
  <g
     id="g4475"
     transform="matrix(1.6854414,0,0,1.3838429,-101.30321,-375.98291)"
     inkscape:export-filename="D:\studyworkspace\Asia\res\drawable\dirol_30.png"
     inkscape:export-xdpi="6.122015"
     inkscape:export-ydpi="6.122015">
    <path
       inkscape:transform-center-y="-64.487826"
       id="path3400"
       style="fill:url(#linearGradient4480);fill-opacity:1;fill-rule:evenodd;stroke:#000000;stroke-width:10;stroke-linecap:butt;stroke-linejoin:miter;stroke-miterlimit:4;stroke-opacity:1;stroke-dasharray:none"
       d="m 66.514378,811.87319 c -20.78686,-2.85633 -41.01338,-26.514 -43.86704,-45.10745 -2.28861,-14.91172 7.56692,-29.38235 26.20699,-36.07403 14.52987,-5.21614 26.3255,-33.69087 45.69358,-37.11656 17.434522,-3.08368 40.649392,42.91734 40.951402,56.08732 0.27117,11.82508 -2.50731,33.26123 -17.966,44.50377 -15.45869,11.24254 -29.996142,20.59571 -51.018932,17.70695 z"
       inkscape:connector-curvature="0" />
    <path
       inkscape:transform-center-y="-92.641171"
       inkscape:transform-center-x="-0.31330706"
       id="path3412"
       style="fill:none;stroke:#000000;stroke-width:8;stroke-linecap:round;stroke-linejoin:miter;stroke-miterlimit:4;stroke-opacity:1;stroke-dasharray:none"
       d="m 71.859488,709.86651 c 4.40636,13.15202 10.2117,25.28659 12.4785,27.53847 2.26676,2.25189 2.26676,2.25189 2.26676,2.25189"
       inkscape:connector-curvature="0" />
    <path
       inkscape:transform-center-y="-71.843516"
       inkscape:transform-center-x="22.055673"
       id="path3414"
       style="fill:none;stroke:#000000;stroke-width:8;stroke-linecap:round;stroke-linejoin:miter;stroke-miterlimit:4;stroke-opacity:1;stroke-dasharray:none"
       d="m 49.490508,730.66417 c 4.40635,13.15202 10.2117,25.28659 12.4785,27.53846 2.26676,2.25189 2.26676,2.25189 2.26676,2.25189"
       inkscape:connector-curvature="0" />
  </g>
  <path
     inkscape:connector-curvature="0"
     style="fill:#565656;fill-opacity:1;fill-rule:nonzero;stroke:#000000;stroke-width:1.0093931;stroke-linecap:butt;stroke-linejoin:miter;stroke-miterlimit:4;stroke-opacity:1;stroke-dasharray:none;stroke-dashoffset:0.7"
     d="m 174.32729,595.42364 -1.84323,-9.91836 -1.19363,-49.00882 -67.34695,1.10576 c -4.724374,5.45596 -23.322644,9.93133 -35.163854,10.12572 l 0.51853,21.28956 c -0.9007,3.27109 -5.24064,7.92152 -8.88079,8.49351 l -7.10013,0.11649 c -17.47581,0.28691 -31.99585,14.39497 -31.40645,38.59486 0.2594,10.65005 3.43194,16.93351 14.41114,21.29013 l 79.525594,54.32655 c 9.00236,-5.45306 -1.46668,-41.33819 53.4573,-51.02106 l 0.0459,-8.11973 5.87085,-0.55381 -0.89436,-36.72089 z m -10.2965,-28.19024 1.28827,52.89523 c 0.0459,1.88432 -1.76392,3.43093 -4.05893,3.46862 l -62.021824,1.01831 c -2.29501,0.0376 -4.1787,-1.44828 -4.22459,-3.3326 l -1.28828,-52.89523 c -0.0459,-1.88433 3.62771,-2.95463 5.92272,-2.9923 l 60.523044,-0.99372 c 2.295,-0.0376 3.8137,0.94736 3.85959,2.83169 z m -79.747234,52.98724 c 5.86756,12.31461 -13.0674,28.6531 -26.9352,27.28255 -13.80246,-1.36408 -30.27149,-16.45376 -30.63731,-31.47391 -0.44064,-18.09233 11.37687,-34.63401 28.05405,-34.70903 9.34194,-0.0436 19.24806,4.65481 19.62489,10.91285 z"
     id="rect16806"
     sodipodi:nodetypes="ccccccccscccccccccccccccccscccc"
     inkscape:export-filename="D:\studyworkspace\Asia\res\drawable\dirol_30.png"
     inkscape:export-xdpi="6.122015"
     inkscape:export-ydpi="6.122015" />
  <rect
     style="fill:#000000;fill-opacity:1;fill-rule:nonzero;stroke:#000000;stroke-width:1.00940895;stroke-linecap:butt;stroke-linejoin:miter;stroke-miterlimit:4;stroke-opacity:1;stroke-dasharray:none;stroke-dashoffset:0.7"
     id="rect19760"
     width="18.218681"
     height="69.061684"
     x="610.89514"
     y="-149.73692"
     rx="5.6776943"
     ry="34.530842"
     transform="matrix(0.02434811,0.99970354,-0.99986524,0.01641654,0,0)"
     inkscape:export-filename="D:\studyworkspace\Asia\res\drawable\dirol_30.png"
     inkscape:export-xdpi="6.122015"
     inkscape:export-ydpi="6.122015" />
  <rect
     style="fill:#565656;fill-opacity:1;fill-rule:nonzero;stroke:#000000;stroke-width:1.00940895;stroke-linecap:butt;stroke-linejoin:miter;stroke-miterlimit:4;stroke-opacity:1;stroke-dasharray:none;stroke-dashoffset:0.7"
     id="rect19752"
     width="57.026989"
     height="69.061684"
     x="568.75031"
     y="-149.73692"
     rx="2.1950421"
     ry="2.6730027"
     transform="matrix(0.02434811,0.99970354,-0.99986524,0.01641654,0,0)"
     inkscape:export-filename="D:\studyworkspace\Asia\res\drawable\dirol_30.png"
     inkscape:export-xdpi="6.122015"
     inkscape:export-ydpi="6.122015" />
  <path
     inkscape:connector-curvature="0"
     style="fill:#333333;fill-opacity:1;fill-rule:evenodd;stroke:#000000;stroke-width:1.0093931px;stroke-linecap:butt;stroke-linejoin:miter;stroke-opacity:1"
     d="m 108.39564,666.77504 c -31.626284,-4.53312 -28.602384,-18.76821 -51.897124,-19.55191 -11.34287,-1.38409 -18.83639,-9.87408 -28.00973,-14.36617 0.0948,3.89013 7.11187,15.44999 7.25648,21.38755 -0.45945,22.43755 0.0398,12.67711 -11.81383,22.28815 -12.3096,4.77605 -14.01676,-7.02118 -23.96479996,-5.76545 -5.35506704,24.57087 -22.29105704,27.54869 -27.58472704,28.80696 -5.96983,0.71249 -11.04394,4.62292 -15.308079,3.66881 -1.39396,0.0806 -5.90658,3.89921 -9.00592,-2.49723 l 1.38136,36.23149 c 1.80486,8.00426 14.852459,14.08591 21.051449,14.19701 21.97572,1.72761 31.898607,-10.11985 24.4008,-11.65487 -2.20395,-19.11536 10.080947,-20.2877 28.036167,-27.37589 17.95524,-7.08819 33.66461,-20.66945 55.66415,-22.64704 4.62036,-1.59246 17.69422,-5.05022 23.511844,-4.56228 2.6621,0.0453 4.4274,0.84177 5.48666,0.2616 1.91402,0.6552 8.62136,12.25515 8.57542,10.36854 l -0.16949,-13.34749 c -0.1267,-5.19806 -3.56757,-9.90962 -7.61063,-15.44178 z"
     id="path20746"
     sodipodi:nodetypes="cccccccccccczcccccc"
     inkscape:export-filename="D:\studyworkspace\Asia\res\drawable\dirol_30.png"
     inkscape:export-xdpi="6.122015"
     inkscape:export-ydpi="6.122015" />
</svg>
