<?xml version="1.0" encoding="UTF-8" standalone="no"?>
<!-- Created with Inkscape (http://www.inkscape.org/) -->

<svg
   xmlns:dc="http://purl.org/dc/elements/1.1/"
   xmlns:cc="http://creativecommons.org/ns#"
   xmlns:rdf="http://www.w3.org/1999/02/22-rdf-syntax-ns#"
   xmlns:svg="http://www.w3.org/2000/svg"
   xmlns="http://www.w3.org/2000/svg"
   xmlns:xlink="http://www.w3.org/1999/xlink"
   xmlns:sodipodi="http://sodipodi.sourceforge.net/DTD/sodipodi-0.dtd"
   xmlns:inkscape="http://www.inkscape.org/namespaces/inkscape"
   version="1.0"
   width="210mm"
   height="297mm"
   id="svg2"
   inkscape:version="0.48.1 "
   sodipodi:docname="smile_toilet.svg">
  <metadata
     id="metadata44">
    <rdf:RDF>
      <cc:Work
         rdf:about="">
        <dc:format>image/svg+xml</dc:format>
        <dc:type
           rdf:resource="http://purl.org/dc/dcmitype/StillImage" />
        <dc:title></dc:title>
      </cc:Work>
    </rdf:RDF>
  </metadata>
  <sodipodi:namedview
     pagecolor="#ffffff"
     bordercolor="#666666"
     borderopacity="1"
     objecttolerance="10"
     gridtolerance="10"
     guidetolerance="10"
     inkscape:pageopacity="0"
     inkscape:pageshadow="2"
     inkscape:window-width="1920"
     inkscape:window-height="1018"
     id="namedview42"
     showgrid="false"
     inkscape:zoom="0.39105942"
     inkscape:cx="-192.10568"
     inkscape:cy="526.18109"
     inkscape:window-x="-8"
     inkscape:window-y="-8"
     inkscape:window-maximized="1"
     inkscape:current-layer="svg2" />
  <defs
     id="defs5">
    <linearGradient
       id="linearGradient3416">
      <stop
         style="stop-color:#d20000;stop-opacity:1"
         offset="0"
         id="stop3418" />
      <stop
         style="stop-color:#6d0000;stop-opacity:1"
         offset="1"
         id="stop3420" />
    </linearGradient>
    <linearGradient
       id="linearGradient3382">
      <stop
         style="stop-color:#646464;stop-opacity:1"
         offset="0"
         id="stop3384" />
      <stop
         style="stop-color:#646464;stop-opacity:0"
         offset="1"
         id="stop3386" />
    </linearGradient>
    <linearGradient
       id="linearGradient3374">
      <stop
         style="stop-color:#646464;stop-opacity:1"
         offset="0"
         id="stop3376" />
      <stop
         style="stop-color:#bcbcbc;stop-opacity:1"
         offset="1"
         id="stop3378" />
    </linearGradient>
    <linearGradient
       id="linearGradient3196">
      <stop
         style="stop-color:#fdeeee;stop-opacity:1"
         offset="0"
         id="stop3198" />
      <stop
         style="stop-color:#fac1bb;stop-opacity:1"
         offset="1"
         id="stop3200" />
    </linearGradient>
    <linearGradient
       id="linearGradient3154">
      <stop
         style="stop-color:#ffe5c2;stop-opacity:1;"
         offset="0"
         id="stop3156" />
      <stop
         style="stop-color:#00af00;stop-opacity:1;"
         offset="1"
         id="stop3158" />
    </linearGradient>
    <inkscape:perspective
       id="perspective9"
       inkscape:persp3d-origin="372.04724 : 350.78739 : 1"
       inkscape:vp_z="744.09448 : 526.18109 : 1"
       inkscape:vp_y="0 : 1000 : 0"
       inkscape:vp_x="0 : 526.18109 : 1"
       sodipodi:type="inkscape:persp3d" />
    <radialGradient
       cx="404.31665"
       cy="506.70181"
       r="222.75591"
       fx="404.31665"
       fy="506.70181"
       id="radialGradient3160"
       xlink:href="#linearGradient3154"
       gradientUnits="userSpaceOnUse"
       gradientTransform="matrix(1,0,0,0.9897742,-1309.1241,-74.260952)"
       spreadMethod="pad" />
    <radialGradient
       cx="392.90057"
       cy="313.69574"
       r="108.81631"
       fx="392.90057"
       fy="313.69574"
       id="radialGradient3202"
       xlink:href="#linearGradient3196"
       gradientUnits="userSpaceOnUse"
       gradientTransform="matrix(0.9995717,2.9265887e-2,-3.0427056e-2,1.0392314,9.7131327,-25.690257)" />
    <radialGradient
       cx="243.84201"
       cy="313.64542"
       r="108.81631"
       fx="243.84201"
       fy="313.64542"
       id="radialGradient3206"
       xlink:href="#linearGradient3196"
       gradientUnits="userSpaceOnUse"
       gradientTransform="matrix(0.8778636,0.1306894,-0.1530917,1.0283435,77.863917,-47.006679)" />
    <linearGradient
       x1="120.32496"
       y1="426.08728"
       x2="147.06889"
       y2="426.08728"
       id="linearGradient3380"
       xlink:href="#linearGradient3374"
       gradientUnits="userSpaceOnUse" />
    <linearGradient
       x1="126.23879"
       y1="194.51459"
       x2="151.04599"
       y2="194.51459"
       id="linearGradient3388"
       xlink:href="#linearGradient3382"
       gradientUnits="userSpaceOnUse" />
    <linearGradient
       x1="566.25616"
       y1="569.63403"
       x2="719.03314"
       y2="613.67566"
       id="linearGradient3422"
       xlink:href="#linearGradient3416"
       gradientUnits="userSpaceOnUse" />
    <linearGradient
       x1="560.56989"
       y1="577.29688"
       x2="677.3078"
       y2="577.29688"
       id="linearGradient3430"
       xlink:href="#linearGradient3154"
       gradientUnits="userSpaceOnUse" />
    <clipPath
       id="clipPath4556"
       clipPathUnits="userSpaceOnUse">
      <rect
         y="75.271912"
         x="556.60968"
         height="315.01749"
         width="268.66354"
         id="rect4558"
         style="fill:#ffffff;fill-opacity:1;stroke:#000000;stroke-width:0.64708;stroke-miterlimit:4;stroke-dasharray:none;stroke-opacity:1" />
    </clipPath>
    <linearGradient
       id="linearGradient17250">
      <stop
         style="stop-color:#dc0000;stop-opacity:1.0000000;"
         offset="0.0000000"
         id="stop17251" />
      <stop
         style="stop-color:#ffb200;stop-opacity:1.0000000;"
         offset="1.0000000"
         id="stop17252" />
    </linearGradient>
    <linearGradient
       id="linearGradient29186">
      <stop
         style="stop-color:#ffffff;stop-opacity:1.0000000;"
         offset="0.0000000"
         id="stop29187" />
      <stop
         style="stop-color:#ffffff;stop-opacity:0;"
         offset="1"
         id="stop29188" />
    </linearGradient>
    <linearGradient
       id="linearGradient26051">
      <stop
         style="stop-color:#ffffff;stop-opacity:0.44927537;"
         offset="0.0000000"
         id="stop26052" />
      <stop
         style="stop-color:#ffffff;stop-opacity:0;"
         offset="1"
         id="stop26053" />
    </linearGradient>
    <linearGradient
       id="linearGradient14625">
      <stop
         style="stop-color:#ffffff;stop-opacity:1.0000000;"
         offset="0.0000000"
         id="stop14626" />
      <stop
         style="stop-color:#ffffff;stop-opacity:0;"
         offset="1"
         id="stop14627" />
    </linearGradient>
  </defs>
  <path
     d="m -739.66402,438.64865 a 215.25591,212.97806 0 1 1 -430.51178,0 215.25591,212.97806 0 1 1 430.51178,0 z"
     style="fill:url(#radialGradient3160);fill-opacity:1;fill-rule:evenodd;stroke:#000000;stroke-width:15;stroke-linecap:butt;stroke-linejoin:miter;stroke-miterlimit:4;stroke-opacity:1;stroke-dasharray:none;stroke-dashoffset:0;marker:none;visibility:visible;display:inline;overflow:visible;enable-background:accumulate"
     id="path2382"
     inkscape:connector-curvature="0"
     inkscape:export-filename="D:\studyworkspace\Asia\res\drawable\bo_30.png"
     inkscape:export-xdpi="3.4671397"
     inkscape:export-ydpi="3.4671397" />
  <path
     style="fill:#f2f2f2;fill-opacity:1;stroke:#000000;stroke-width:15;stroke-miterlimit:4;stroke-opacity:1;stroke-dasharray:none"
     d="m -1364.1566,612.19326 c -1.0228,5.54827 -1.5549,11.17845 -1.5549,16.88522 0,20.61879 6.8509,40.31134 19.2894,58.32697 2.7209,15.67948 9.9394,44.49102 28.934,77.13002 2.2859,3.928 1.3658,78.83942 1.3658,78.83942 l 336.219,2.02202 c 0,0 0,-35.86977 0,-48.55021 0,-28.44018 17.4444,-33.5785 23.89107,-35.2922 26.57207,-7.06358 49.45387,-23.97512 60.78877,-33.4786 37.89973,-26.91415 60.6838,-61.40404 60.68374,-98.99742 0,-5.70676 -0.55305,-11.33695 -1.5759,-16.88522 l -528.04098,0 z"
     id="path2555"
     inkscape:connector-curvature="0"
     inkscape:export-filename="D:\studyworkspace\Asia\res\drawable\bo_30.png"
     inkscape:export-xdpi="3.4671397"
     inkscape:export-ydpi="3.4671397" />
  <rect
     style="fill:#f2f2f2;fill-opacity:1;stroke:#000000;stroke-width:15;stroke-miterlimit:4;stroke-opacity:1;stroke-dasharray:none"
     id="rect2549"
     width="176.74409"
     height="276.35776"
     x="-1396.0114"
     y="291.23151"
     inkscape:export-filename="D:\studyworkspace\Asia\res\drawable\bo_30.png"
     inkscape:export-xdpi="3.4671397"
     inkscape:export-ydpi="3.4671397" />
  <rect
     style="fill:#f2f2f2;fill-opacity:1;stroke:#000000;stroke-width:15;stroke-miterlimit:4;stroke-opacity:1;stroke-dasharray:none"
     id="rect2547"
     width="211.95383"
     height="59.088352"
     x="-1408.165"
     y="251.2048"
     rx="30.580812"
     ry="30.580814"
     inkscape:export-filename="D:\studyworkspace\Asia\res\drawable\bo_30.png"
     inkscape:export-xdpi="3.4671397"
     inkscape:export-ydpi="3.4671397" />
  <g
     style="fill:#f2f2f2;fill-opacity:1;stroke:#000000;stroke-width:22.36451449;stroke-miterlimit:4;stroke-opacity:1;stroke-dasharray:none"
     id="g2573"
     transform="matrix(0.67436012,0,0,0.66707043,-1573.093,151.47673)"
     inkscape:export-filename="D:\studyworkspace\Asia\res\drawable\bo_30.png"
     inkscape:export-xdpi="3.4671397"
     inkscape:export-ydpi="3.4671397">
    <path
       style="fill:#f2f2f2;fill-opacity:1;stroke:#000000;stroke-width:22.39715526;stroke-miterlimit:4;stroke-opacity:1;stroke-dasharray:none"
       d="m 1083.4688,620.625 c -1.318,0 -2.5984,0.13397 -3.8438,0.375 l -822.59375,0 c -8.33427,-10e-6 -15.0625,6.69 -15.0625,15 l 0,41.1875 c 0,8.30999 6.72823,14.99998 15.0625,15 l 822.56255,0 c 1.2552,0.24503 2.5459,0.375 3.875,0.375 l 46.0624,0 c 11.0801,0 20,-8.92001 20,-20 l 0,-31.9375 c 0,-11.08 -8.92,-20.00001 -20,-20 l -46.0624,0 z"
       transform="matrix(0.9970874,0,0,1,3.349371,2.5255256e-4)"
       id="rect2551"
       inkscape:connector-curvature="0" />
  </g>
  <rect
     style="fill:#f2f2f2;fill-opacity:1;stroke:#000000;stroke-width:15;stroke-miterlimit:4;stroke-opacity:1;stroke-dasharray:none"
     id="rect2553"
     width="404.81662"
     height="51.212059"
     x="-1342.6155"
     y="831.91364"
     rx="30.580812"
     ry="30.580814"
     inkscape:export-filename="D:\studyworkspace\Asia\res\drawable\bo_30.png"
     inkscape:export-xdpi="3.4671397"
     inkscape:export-ydpi="3.4671397" />
  <path
     style="fill:#f2f2f2;fill-opacity:1;fill-rule:evenodd;stroke:#000000;stroke-width:15;stroke-linecap:butt;stroke-linejoin:miter;stroke-miterlimit:4;stroke-opacity:1;stroke-dasharray:none"
     d="m -1189.6986,531.45044 c 1.1068,10.84844 10.7694,19.24007 15.7329,23.04086 -0.1301,-0.58678 -0.2102,-1.19129 -0.2102,-1.81564 0,-4.62859 3.7726,-8.40827 8.4898,-8.609 -5.2049,-2.98377 -13.1531,-8.38965 -12.7077,-12.48839 0.054,-0.0466 -11.3408,-0.0685 -11.3048,-0.12783 z"
     id="path3617"
     sodipodi:nodetypes="ccsccc"
     inkscape:connector-curvature="0"
     inkscape:export-filename="D:\studyworkspace\Asia\res\drawable\bo_30.png"
     inkscape:export-xdpi="3.4671397"
     inkscape:export-ydpi="3.4671397" />
  <path
     style="fill:#f2f2f2;fill-opacity:1;stroke:#000000;stroke-width:15;stroke-miterlimit:4;stroke-opacity:1;stroke-dasharray:none"
     d="m -1135.6297,545.78394 c -14.9009,0 -15.1138,7.66232 -15.7609,17.34883 l 346.74446,0 c -0.64718,-9.68649 -12.71124,-17.34883 -27.61214,-17.34883 l -303.37142,0 z"
     id="rect3608"
     sodipodi:nodetypes="ccccc"
     inkscape:connector-curvature="0"
     inkscape:export-filename="D:\studyworkspace\Asia\res\drawable\bo_30.png"
     inkscape:export-xdpi="3.4671397"
     inkscape:export-ydpi="3.4671397" />
  <g
     id="g3901"
     transform="matrix(0.67876127,-1.6699264,-1.6699264,-0.67876127,-496.80588,1992.3161)"
     inkscape:export-filename="D:\studyworkspace\Asia\res\drawable\bo_30.png"
     inkscape:export-xdpi="3.4671397"
     inkscape:export-ydpi="3.4671397">
    <path
       id="path3400"
       style="fill:url(#linearGradient3430);fill-opacity:1;fill-rule:evenodd;stroke:#000000;stroke-width:10;stroke-linecap:butt;stroke-linejoin:miter;stroke-miterlimit:4;stroke-opacity:1;stroke-dasharray:none"
       d="m 665.2681,545.18754 c -10.43231,-18.20492 -39.94271,-28.10106 -58.25196,-23.78465 -14.68379,3.4617 -24.41112,18.01881 -23.63604,37.80846 0.60418,15.42595 -21.38189,37.02595 -17.30582,56.26766 3.66915,17.32077 55.0163,21.62121 67.34118,16.96965 11.06628,-4.17654 29.90241,-14.77979 34.53837,-33.32362 4.63596,-18.54383 7.86498,-35.52595 -2.68573,-53.9375 z"
       inkscape:connector-curvature="0" />
    <path
       id="path3412"
       style="fill:none;stroke:#000000;stroke-width:8;stroke-linecap:round;stroke-linejoin:miter;stroke-miterlimit:4;stroke-opacity:1;stroke-dasharray:none"
       d="m 572.68451,588.34089 c 13.84512,-0.8391 27.27069,0 30.20754,1.25864 2.93684,1.25865 2.93684,1.25865 2.93684,1.25865"
       inkscape:connector-curvature="0" />
    <path
       id="path3414"
       style="fill:none;stroke:#000000;stroke-width:8;stroke-linecap:round;stroke-linejoin:miter;stroke-miterlimit:4;stroke-opacity:1;stroke-dasharray:none"
       d="m 583.59279,559.81155 c 13.84512,-0.8391 27.27069,0 30.20754,1.25864 2.93684,1.25865 2.93684,1.25865 2.93684,1.25865"
       inkscape:connector-curvature="0" />
  </g>
  <path
     style="fill:#f2f2f2;fill-opacity:1;stroke:#000000;stroke-width:15;stroke-miterlimit:4;stroke-opacity:1;stroke-dasharray:none"
     d="m -1192.1932,515.12562 c 0,13.44006 6.6462,13.63205 15.0482,14.21574 l 0,-312.75124 c -8.4019,0.58371 -15.0482,11.46512 -15.0482,24.90505 l 0,273.63045 z"
     id="path3615"
     sodipodi:nodetypes="ccccc"
     inkscape:connector-curvature="0"
     inkscape:export-filename="D:\studyworkspace\Asia\res\drawable\bo_30.png"
     inkscape:export-xdpi="3.4671397"
     inkscape:export-ydpi="3.4671397" />
  <path
     sodipodi:type="arc"
     style="fill:#f2f2f2;fill-opacity:1;stroke:#000000;stroke-width:21.81389535;stroke-miterlimit:4;stroke-opacity:1;stroke-dasharray:none"
     id="path3606"
     sodipodi:cx="548.57141"
     sodipodi:cy="605.93359"
     sodipodi:rx="12.857142"
     sodipodi:ry="12.857142"
     d="m 561.42855,605.93359 a 12.857142,12.857142 0 1 1 -25.71428,0 12.857142,12.857142 0 1 1 25.71428,0 z"
     transform="matrix(0,-0.68490656,0.6903745,0,-1580.5465,930.22693)"
     inkscape:export-filename="D:\studyworkspace\Asia\res\drawable\bo_30.png"
     inkscape:export-xdpi="3.4671397"
     inkscape:export-ydpi="3.4671397" />
  <path
     style="fill:#f2f2f2;fill-opacity:1;stroke:#000000;stroke-width:15;stroke-miterlimit:4;stroke-opacity:1;stroke-dasharray:none"
     d="m -1211.7118,315.01339 c -2.9801,0 -5.3792,2.3801 -5.3792,5.33656 l 0,21.05441 c 0,2.95646 2.3991,5.33656 5.3792,5.33656 l 3.404,0 0,4.71119 c 0,1.84778 1.4994,3.33536 3.362,3.33535 l 3.2359,0 c 1.8625,0 3.3619,-1.48756 3.362,-3.33535 l 0,-5.4408 c 0,-0.29171 -0.056,-0.56451 -0.1261,-0.83383 0.9723,-0.96459 1.5759,-2.2949 1.5759,-3.77312 l 0,-21.05441 c 0,-2.95646 -2.3991,-5.33656 -5.3792,-5.33656 l -9.4345,0 z"
     id="rect4597"
     inkscape:connector-curvature="0"
     inkscape:export-filename="D:\studyworkspace\Asia\res\drawable\bo_30.png"
     inkscape:export-xdpi="3.4671397"
     inkscape:export-ydpi="3.4671397" />
  <path
     style="fill:#523631;fill-opacity:1;fill-rule:evenodd;stroke:#000000;stroke-width:13.38899326;stroke-miterlimit:4;stroke-opacity:1;stroke-dasharray:none"
     d="m -920.60883,258.13804 c -34.81157,-7.07844 4.03089,-29.41126 17.92825,-62.10396 9.82691,-23.11721 -1.0118,-64.53287 22.12444,-74.31493 31.28088,-13.22561 43.82141,16.30032 75.79412,27.75262 34.07019,12.2036 75.98185,0.23504 89.00695,33.99969 9.32644,24.17671 1.28157,37.42868 -20.88659,50.84763 -24.78477,15.00284 -116.27028,-64.65328 -82.61294,-7.90976 13.19983,22.25384 3.5538,69.27156 -20.981,61.05491 -32.05342,-10.73462 -47.10241,-22.56103 -80.37323,-29.3262 z"
     inkscape:connector-curvature="0"
     sodipodi:nodetypes="sssssssss"
     id="path59"
     inkscape:export-filename="D:\studyworkspace\Asia\res\drawable\bo_30.png"
     inkscape:export-xdpi="3.4671397"
     inkscape:export-ydpi="3.4671397" />
  <path
     id="path3935"
     style="fill:#523631;fill-opacity:1;fill-rule:evenodd;stroke:#000000;stroke-width:13.38899326;stroke-miterlimit:4;stroke-opacity:1;stroke-dasharray:none"
     d="m -796.00516,308.59394 c -20.3031,-29.15019 23.21752,-18.49911 55.83921,-32.56236 23.06702,-9.9442 43.81114,-47.39307 67.30403,-38.50157 31.76306,12.02156 20.45713,42.0419 35.68708,72.39743 16.22906,32.34694 54.81668,52.61586 40.93561,86.03775 -9.93934,23.93126 -24.90749,27.96722 -50.21023,22.37552 -28.28934,-6.25171 -39.50443,-127.03632 -54.3174,-62.74619 -5.80938,25.2135 -45.24261,52.57648 -57.32401,29.69616 -15.78373,-29.89196 -18.5098,-48.83673 -37.91429,-76.69674 z"
     inkscape:connector-curvature="0"
     sodipodi:nodetypes="sssssssss"
     inkscape:export-filename="D:\studyworkspace\Asia\res\drawable\bo_30.png"
     inkscape:export-xdpi="3.4671397"
     inkscape:export-ydpi="3.4671397" />
  <path
     sodipodi:type="arc"
     style="fill:none;stroke:#000000;stroke-width:15;stroke-linecap:round;stroke-miterlimit:4;stroke-opacity:1;stroke-dasharray:none"
     id="path3944"
     sodipodi:cx="-30.685873"
     sodipodi:cy="-425.67407"
     sodipodi:rx="347.77322"
     sodipodi:ry="332.4303"
     d="M 313.54642,-378.357 A 347.77322,332.4303 0 0 1 188.97401,-167.94763"
     sodipodi:start="0.14282188"
     sodipodi:end="0.88715769"
     transform="translate(-1048.434,964.04786)"
     sodipodi:open="true"
     inkscape:export-filename="D:\studyworkspace\Asia\res\drawable\bo_30.png"
     inkscape:export-xdpi="3.4671397"
     inkscape:export-ydpi="3.4671397" />
  <path
     sodipodi:type="arc"
     style="fill:none;stroke:#000000;stroke-width:13.202668;stroke-linecap:round;stroke-miterlimit:4;stroke-opacity:1;stroke-dasharray:none"
     id="path3944-2"
     sodipodi:cx="-30.685873"
     sodipodi:cy="-425.67407"
     sodipodi:rx="347.77322"
     sodipodi:ry="332.4303"
     d="M 313.54642,-378.357 A 347.77322,332.4303 0 0 1 188.97401,-167.94763"
     sodipodi:start="0.14282188"
     sodipodi:end="0.88715769"
     transform="matrix(1.136134,0,0,1.136134,-1032.8833,1022.5981)"
     sodipodi:open="true"
     inkscape:export-filename="D:\studyworkspace\Asia\res\drawable\bo_30.png"
     inkscape:export-xdpi="3.4671397"
     inkscape:export-ydpi="3.4671397" />
</svg>
