<?xml version="1.0" encoding="UTF-8" standalone="no"?>
<!-- Created with Inkscape (http://www.inkscape.org/) -->

<svg
   xmlns:dc="http://purl.org/dc/elements/1.1/"
   xmlns:cc="http://creativecommons.org/ns#"
   xmlns:rdf="http://www.w3.org/1999/02/22-rdf-syntax-ns#"
   xmlns:svg="http://www.w3.org/2000/svg"
   xmlns="http://www.w3.org/2000/svg"
   xmlns:xlink="http://www.w3.org/1999/xlink"
   xmlns:sodipodi="http://sodipodi.sourceforge.net/DTD/sodipodi-0.dtd"
   xmlns:inkscape="http://www.inkscape.org/namespaces/inkscape"
   width="744.09448819"
   height="1052.3622047"
   id="svg2"
   version="1.1"
   inkscape:version="0.48.1 "
   sodipodi:docname="tabs.svg">
  <defs
     id="defs4">
    <linearGradient
       inkscape:collect="always"
       id="linearGradient3876">
      <stop
         style="stop-color:#000000;stop-opacity:1;"
         offset="0"
         id="stop3878" />
      <stop
         style="stop-color:#000000;stop-opacity:0;"
         offset="1"
         id="stop3880" />
    </linearGradient>
    <linearGradient
       inkscape:collect="always"
       id="linearGradient3834">
      <stop
         style="stop-color:#000000;stop-opacity:1;"
         offset="0"
         id="stop3836" />
      <stop
         style="stop-color:#000000;stop-opacity:0;"
         offset="1"
         id="stop3838" />
    </linearGradient>
    <linearGradient
       inkscape:collect="always"
       id="linearGradient3806">
      <stop
         style="stop-color:#ffffff;stop-opacity:1;"
         offset="0"
         id="stop3808" />
      <stop
         style="stop-color:#ffffff;stop-opacity:0;"
         offset="1"
         id="stop3810" />
    </linearGradient>
    <linearGradient
       inkscape:collect="always"
       id="linearGradient3796">
      <stop
         style="stop-color:#ffffff;stop-opacity:1;"
         offset="0"
         id="stop3798" />
      <stop
         style="stop-color:#ffffff;stop-opacity:0;"
         offset="1"
         id="stop3800" />
    </linearGradient>
    <linearGradient
       inkscape:collect="always"
       xlink:href="#linearGradient3796"
       id="linearGradient3802"
       x1="-619.53198"
       y1="1018.3955"
       x2="-638.16772"
       y2="212.92242"
       gradientUnits="userSpaceOnUse"
       gradientTransform="matrix(1.0712033,0,0,1.029094,36.68131,-11.746012)" />
    <linearGradient
       inkscape:collect="always"
       xlink:href="#linearGradient3806"
       id="linearGradient3812"
       x1="-261.92953"
       y1="412.37604"
       x2="-478.04428"
       y2="246.22078"
       gradientUnits="userSpaceOnUse"
       gradientTransform="translate(8.9285714,2.5)" />
    <linearGradient
       inkscape:collect="always"
       xlink:href="#linearGradient3796-7"
       id="linearGradient3802-7"
       x1="-619.53198"
       y1="1018.3955"
       x2="-638.16772"
       y2="212.92242"
       gradientUnits="userSpaceOnUse"
       gradientTransform="matrix(1.0612505,0,0,1.029094,27.256054,-13.02665)" />
    <linearGradient
       inkscape:collect="always"
       id="linearGradient3796-7">
      <stop
         style="stop-color:#ffffff;stop-opacity:1;"
         offset="0"
         id="stop3798-1" />
      <stop
         style="stop-color:#ffffff;stop-opacity:0;"
         offset="1"
         id="stop3800-9" />
    </linearGradient>
    <linearGradient
       y2="381.08994"
       x2="-622.61664"
       y1="529.56165"
       x1="-621.51581"
       gradientTransform="matrix(1.0183752,0,0,1.029094,2.1187863,-20.370961)"
       gradientUnits="userSpaceOnUse"
       id="linearGradient3829"
       xlink:href="#linearGradient3796-7"
       inkscape:collect="always" />
    <linearGradient
       gradientTransform="matrix(-1,0,0,-1,-618.70014,329.7798)"
       inkscape:collect="always"
       xlink:href="#linearGradient3806-0"
       id="linearGradient3812-5"
       x1="-261.92953"
       y1="412.37604"
       x2="-478.04428"
       y2="246.22078"
       gradientUnits="userSpaceOnUse" />
    <linearGradient
       inkscape:collect="always"
       id="linearGradient3806-0">
      <stop
         style="stop-color:#ffffff;stop-opacity:1;"
         offset="0"
         id="stop3808-3" />
      <stop
         style="stop-color:#ffffff;stop-opacity:0;"
         offset="1"
         id="stop3810-9" />
    </linearGradient>
    <linearGradient
       inkscape:collect="always"
       xlink:href="#linearGradient3796-6"
       id="linearGradient3802-1"
       x1="-619.53198"
       y1="1018.3955"
       x2="-638.16772"
       y2="212.92242"
       gradientUnits="userSpaceOnUse"
       gradientTransform="matrix(1.0612505,0,0,-1.029094,803.51898,356.70285)" />
    <linearGradient
       inkscape:collect="always"
       id="linearGradient3796-6">
      <stop
         style="stop-color:#ffffff;stop-opacity:1;"
         offset="0"
         id="stop3798-5" />
      <stop
         style="stop-color:#ffffff;stop-opacity:0;"
         offset="1"
         id="stop3800-4" />
    </linearGradient>
    <linearGradient
       y2="381.08994"
       x2="-622.61664"
       y1="529.56165"
       x1="-621.51581"
       gradientTransform="matrix(1.0183752,0,0,-1.029094,773.21187,361.56701)"
       gradientUnits="userSpaceOnUse"
       id="linearGradient3829-5"
       xlink:href="#linearGradient3796-7-0"
       inkscape:collect="always" />
    <linearGradient
       inkscape:collect="always"
       id="linearGradient3796-7-0">
      <stop
         style="stop-color:#ffffff;stop-opacity:1;"
         offset="0"
         id="stop3798-1-2" />
      <stop
         style="stop-color:#ffffff;stop-opacity:0;"
         offset="1"
         id="stop3800-9-2" />
    </linearGradient>
    <linearGradient
       inkscape:collect="always"
       xlink:href="#linearGradient3806-6"
       id="linearGradient3812-57"
       x1="-261.92953"
       y1="412.37604"
       x2="-478.04428"
       y2="246.22078"
       gradientUnits="userSpaceOnUse"
       gradientTransform="translate(-616.54472,-212.62022)" />
    <linearGradient
       inkscape:collect="always"
       id="linearGradient3806-6">
      <stop
         style="stop-color:#ffffff;stop-opacity:1;"
         offset="0"
         id="stop3808-0" />
      <stop
         style="stop-color:#ffffff;stop-opacity:0;"
         offset="1"
         id="stop3810-7" />
    </linearGradient>
    <linearGradient
       inkscape:collect="always"
       xlink:href="#linearGradient3796-3"
       id="linearGradient3802-70"
       x1="-619.53198"
       y1="1018.3955"
       x2="-638.16772"
       y2="212.92242"
       gradientUnits="userSpaceOnUse"
       gradientTransform="matrix(1.0712033,0,0,1.029094,-588.79198,-226.86623)" />
    <linearGradient
       inkscape:collect="always"
       id="linearGradient3796-3">
      <stop
         style="stop-color:#ffffff;stop-opacity:1;"
         offset="0"
         id="stop3798-0" />
      <stop
         style="stop-color:#ffffff;stop-opacity:0;"
         offset="1"
         id="stop3800-47" />
    </linearGradient>
    <linearGradient
       y2="381.08994"
       x2="-622.61664"
       y1="529.56165"
       x1="-621.51581"
       gradientTransform="matrix(1.0183752,0,0,1.029094,-623.3545,-235.49118)"
       gradientUnits="userSpaceOnUse"
       id="linearGradient3829-0"
       xlink:href="#linearGradient3796-7-3"
       inkscape:collect="always" />
    <linearGradient
       inkscape:collect="always"
       id="linearGradient3796-7-3">
      <stop
         style="stop-color:#ffffff;stop-opacity:1;"
         offset="0"
         id="stop3798-1-21" />
      <stop
         style="stop-color:#ffffff;stop-opacity:0;"
         offset="1"
         id="stop3800-9-1" />
    </linearGradient>
    <linearGradient
       inkscape:collect="always"
       xlink:href="#linearGradient3806-7"
       id="linearGradient3812-1"
       x1="-261.92953"
       y1="412.37604"
       x2="-478.04428"
       y2="246.22078"
       gradientUnits="userSpaceOnUse"
       gradientTransform="translate(8.9285714,2.5)" />
    <linearGradient
       inkscape:collect="always"
       id="linearGradient3806-7">
      <stop
         style="stop-color:#ffffff;stop-opacity:1;"
         offset="0"
         id="stop3808-4" />
      <stop
         style="stop-color:#ffffff;stop-opacity:0;"
         offset="1"
         id="stop3810-0" />
    </linearGradient>
    <linearGradient
       inkscape:collect="always"
       xlink:href="#linearGradient3834"
       id="linearGradient3840"
       x1="-1351.5745"
       y1="-180.30212"
       x2="-827.65833"
       y2="378.4231"
       gradientUnits="userSpaceOnUse"
       gradientTransform="translate(-87.142857,27.142857)" />
    <linearGradient
       inkscape:collect="always"
       xlink:href="#linearGradient3796-31"
       id="linearGradient3802-9"
       x1="-619.53198"
       y1="1018.3955"
       x2="-638.16772"
       y2="212.92242"
       gradientUnits="userSpaceOnUse"
       gradientTransform="matrix(1.0712033,0,0,1.029094,36.68131,-11.746012)" />
    <linearGradient
       inkscape:collect="always"
       id="linearGradient3796-31">
      <stop
         style="stop-color:#ffffff;stop-opacity:1;"
         offset="0"
         id="stop3798-3" />
      <stop
         style="stop-color:#ffffff;stop-opacity:0;"
         offset="1"
         id="stop3800-96" />
    </linearGradient>
    <linearGradient
       inkscape:collect="always"
       xlink:href="#linearGradient3876"
       id="linearGradient3882"
       x1="-716.61108"
       y1="-237.17227"
       x2="-706.61249"
       y2="259.46298"
       gradientUnits="userSpaceOnUse"
       gradientTransform="matrix(1.0085459,0,0,1,-79.806813,44.285714)" />
  </defs>
  <sodipodi:namedview
     id="base"
     pagecolor="#ffffff"
     bordercolor="#666666"
     borderopacity="1.0"
     inkscape:pageopacity="0.0"
     inkscape:pageshadow="2"
     inkscape:zoom="0.24748737"
     inkscape:cx="-501.43187"
     inkscape:cy="720.98604"
     inkscape:document-units="px"
     inkscape:current-layer="layer1"
     showgrid="false"
     inkscape:window-width="1920"
     inkscape:window-height="1018"
     inkscape:window-x="-8"
     inkscape:window-y="-8"
     inkscape:window-maximized="1" />
  <metadata
     id="metadata7">
    <rdf:RDF>
      <cc:Work
         rdf:about="">
        <dc:format>image/svg+xml</dc:format>
        <dc:type
           rdf:resource="http://purl.org/dc/dcmitype/StillImage" />
        <dc:title></dc:title>
      </cc:Work>
    </rdf:RDF>
  </metadata>
  <g
     inkscape:label="Layer 1"
     inkscape:groupmode="layer"
     id="layer1">
    <rect
       style="fill:#6d4296;fill-opacity:1;fill-rule:evenodd;stroke:#000000;stroke-width:7.19999981;stroke-linecap:round;stroke-miterlimit:4;stroke-opacity:1;stroke-dasharray:none"
       id="rect3776"
       width="1641.4286"
       height="1047.1428"
       x="-1464.2856"
       y="665.2193" />
    <path
       style="fill:#000000;fill-opacity:0.25098039;fill-rule:evenodd;stroke:none"
       d="m -919.125,146.65625 c -17.8942,0 -32.3125,14.2252 -32.3125,31.9181 0.20985,92.88352 0.47999,191.60438 0.73661,278.82762 l 518.94196,-0.35714 c 0.0832,-93.19579 0.32143,-185.32249 0.32143,-278.47048 0,-17.6929 -14.38705,-31.9181 -32.28125,-31.9181 z"
       id="rect2985"
       inkscape:export-filename="D:\studyworkspace\Asia\res\drawable\tab_inactive.png"
       inkscape:export-xdpi="13.846154"
       inkscape:export-ydpi="13.846154"
       inkscape:connector-curvature="0"
       sodipodi:nodetypes="sccccss" />
    <path
       inkscape:connector-curvature="0"
       style="fill:url(#linearGradient3829);fill-opacity:1;fill-rule:evenodd;stroke:none"
       d="m -895.41533,151.46764 c -16.2796,0 -29.39684,13.22661 -29.39684,29.6775 31.27631,92.03404 41.92153,185.32547 -1.27934,259.25443 l 475.0401,0 c 0,0 -15.8151,-28.6871 -21.71828,-53.16257 -6.89182,-28.57453 -18.0244,-75.39135 -14.31934,-104.5508 4.51759,-35.5542 35.35534,-101.54106 35.35534,-101.54106 5.40947,-15.53607 -13.08883,-29.6775 -29.36843,-29.6775 z"
       id="rect2985-0-9"
       sodipodi:nodetypes="scccsssss"
       inkscape:export-filename="D:\studyworkspace\Asia\res\drawable\tab_inactive.png"
       inkscape:export-xdpi="13.846154"
       inkscape:export-ydpi="13.846154" />
    <path
       inkscape:connector-curvature="0"
       style="fill:url(#linearGradient3802);fill-opacity:1;fill-rule:evenodd;stroke:none"
       d="m -907.41234,160.0926 c -17.12404,0 -27.35035,-4.63053 -33.06464,11.10607 47.18447,67.74833 54.09623,185.32547 0.79718,277.82586 l 499.68279,0 c 0,0 -8.83868,-18.3588 -12.38545,-26.2456 -18.79198,-41.78684 -23.71242,-88.31962 -23.14951,-122.88147 1.85094,-113.64316 33.38866,-130.12736 33.38866,-130.12736 -8.17569,-12.92643 -12.33926,-9.6775 -29.46331,-9.6775 z"
       id="rect2985-0"
       sodipodi:nodetypes="scccsssss"
       inkscape:export-filename="D:\studyworkspace\Asia\res\drawable\tab_inactive.png"
       inkscape:export-xdpi="13.846154"
       inkscape:export-ydpi="13.846154" />
    <path
       style="fill:url(#linearGradient3812);fill-opacity:1;stroke:none"
       d="m -439.64286,448.43361 -0.71428,-260 c -1.34439,-7.66361 -3.0069,-12.41874 -7.85715,-15 -41.0453,92.9725 -34.1604,203.1264 8.57143,275 z"
       id="path3804"
       inkscape:connector-curvature="0"
       sodipodi:nodetypes="cccc"
       inkscape:export-filename="D:\studyworkspace\Asia\res\drawable\tab_inactive.png"
       inkscape:export-xdpi="13.846154"
       inkscape:export-ydpi="13.846154" />
    <path
       inkscape:connector-curvature="0"
       style="fill:#000000;fill-opacity:0.37647059;fill-rule:evenodd;stroke:none"
       d="m -149.25563,-114.22666 c -17.8942,0 -32.3125,14.2252 -32.3125,31.918102 -0.29219,92.674532 0.35465,191.996118 0.37946,278.827618 l 519.65626,0 c 0.20851,-91.63551 0.035,-192.4153724 -0.0357,-278.827618 0,-17.692902 -14.38705,-31.918102 -32.28125,-31.918102 z"
       id="rect2985-07"
       inkscape:export-filename="D:\studyworkspace\Asia\res\drawable\tab_active.png"
       inkscape:export-xdpi="13.902041"
       inkscape:export-ydpi="13.902041"
       sodipodi:nodetypes="sccccss" />
    <path
       inkscape:connector-curvature="0"
       style="fill:url(#linearGradient3802-1);fill-opacity:1;fill-rule:evenodd;stroke:none"
       d="m -131.80288,184.86425 c -16.96494,0 -30.63448,-13.22661 -30.63448,-29.6775 34.91451,-66.141177 43.68652,-185.682607 0.98825,-254.790137 0.61063,-0.507763 3.88675,-3.931933 11.69939,-3.990333 59.558926,-0.4452 314.04579,0.79698 463.24631,-0.32412 6.10762,-0.0459 7.57453,2.76139 11.88013,7.528733 0,0 -6.75576,10.32309 -10.26958,18.20989 -18.61738,41.78684 -23.4921,88.67676 -22.93442,123.23861 1.83374,113.643157 38.3858,110.127357 38.3858,110.127357 4.63796,15.78357 -13.63991,29.6775 -30.60485,29.6775 z"
       id="rect2985-0-1"
       sodipodi:nodetypes="sccsscsssss"
       inkscape:export-filename="D:\studyworkspace\Asia\res\drawable\tab_active.png"
       inkscape:export-xdpi="13.902041"
       inkscape:export-ydpi="13.902041" />
    <path
       inkscape:connector-curvature="0"
       style="fill:url(#linearGradient3829-5);fill-opacity:1;fill-rule:evenodd;stroke:none"
       d="m -124.32225,189.72842 c -16.2796,0 -29.39684,-13.22661 -29.39684,-29.6775 31.27631,-92.034037 41.92153,-185.325467 -1.27934,-259.254427 l 470.99596,0.17857 c 2.04459,0.52288 4.23753,2.29184 2.07986,4.46429 0,0 -13.85081,24.04424 -19.75399,48.51971 -6.89182,28.57453 -18.0244,75.39135 -14.31934,104.5508 4.51759,35.5542 35.35534,101.541057 35.35534,101.541057 5.40947,15.53607 -13.08883,29.6775 -29.36843,29.6775 z"
       id="rect2985-0-9-1"
       sodipodi:nodetypes="sccccsssss"
       inkscape:export-filename="D:\studyworkspace\Asia\res\drawable\tab_active.png"
       inkscape:export-xdpi="13.902041"
       inkscape:export-ydpi="13.902041" />
    <path
       style="fill:url(#linearGradient3812-5);fill-opacity:1;stroke:none"
       d="m -169.72824,-84.688057 0.31381,228.534257 c 1.34439,7.66361 3.0069,12.41874 7.85715,15 35.53058,-80.480987 41.34131,-189.372737 0.23559,-258.612827 -5.09478,2.66707 -8.4166,7.75637 -8.40655,15.07857 z"
       id="path3804-5"
       inkscape:connector-curvature="0"
       sodipodi:nodetypes="scccs"
       inkscape:export-filename="D:\studyworkspace\Asia\res\drawable\tab_active.png"
       inkscape:export-xdpi="13.902041"
       inkscape:export-ydpi="13.902041" />
    <path
       inkscape:connector-curvature="0"
       style="fill:#ff7f00;fill-opacity:0.75294118;fill-rule:evenodd;stroke:none"
       d="m -1544.5983,-68.46397 c -17.8942,0 -32.3125,14.248323 -32.3125,31.969978 -0.5045,93.0336 0.1229,191.927692 0.3794,279.280812 l 519.6563,-0.35714 c 0.214,-92.1934 -0.2102,-192.45177 -0.036,-278.923672 0,-17.721655 -14.387,-31.969978 -32.2812,-31.969978 z"
       id="rect2985-08"
       inkscape:export-filename="D:\studyworkspace\Asia\res\drawable\tab_pressed.png"
       inkscape:export-xdpi="13.879482"
       inkscape:export-ydpi="13.879482"
       sodipodi:nodetypes="sccccss" />
    <path
       inkscape:connector-curvature="0"
       style="fill:url(#linearGradient3829-0);fill-opacity:1;fill-rule:evenodd;stroke:none"
       d="m -1520.8886,-63.65258 c -16.2796,0 -29.3969,13.22661 -29.3969,29.6775 31.2763,92.03404 41.9216,185.32547 -1.2793,259.25443 l 475.0401,0 c 0,0 -15.8151,-28.6871 -21.7183,-53.16257 -6.8918,-28.57453 -18.0244,-75.39135 -14.3193,-104.5508 4.5176,-35.5542 35.3553,-101.54106 35.3553,-101.54106 5.4095,-15.53607 -13.0888,-29.6775 -29.3684,-29.6775 z"
       id="rect2985-0-9-6"
       sodipodi:nodetypes="scccsssss"
       inkscape:export-filename="D:\studyworkspace\Asia\res\drawable\tab_pressed.png"
       inkscape:export-xdpi="13.879482"
       inkscape:export-ydpi="13.879482" />
    <path
       inkscape:connector-curvature="0"
       style="fill:url(#linearGradient3802-70);fill-opacity:1;fill-rule:evenodd;stroke:none"
       d="m -1532.8856,-55.02762 c -17.1241,0 -30.9218,13.22661 -30.9218,29.6775 32.8987,92.03404 44.0962,185.32547 -1.3457,259.25443 l 499.6828,0 c 0,0 -8.8387,-18.3588 -12.3855,-26.2456 -18.7919,-41.78684 -23.7124,-88.31962 -23.1495,-122.88147 1.851,-113.64316 34.8173,-110.12736 34.8173,-110.12736 4.6814,-15.78357 -13.7679,-29.6775 -30.8919,-29.6775 z"
       id="rect2985-0-3"
       sodipodi:nodetypes="scccsssss"
       inkscape:export-filename="D:\studyworkspace\Asia\res\drawable\tab_pressed.png"
       inkscape:export-xdpi="13.879482"
       inkscape:export-ydpi="13.879482" />
    <path
       style="fill:url(#linearGradient3812-57);fill-opacity:1;stroke:none"
       d="m -1065.1162,233.31339 -0.7142,-260 c -1.3444,-7.66361 -3.0069,-12.41874 -7.8572,-15 -41.0453,92.9725 -34.1604,203.1264 8.5714,275 z"
       id="path3804-7"
       inkscape:connector-curvature="0"
       sodipodi:nodetypes="cccc"
       inkscape:export-filename="D:\studyworkspace\Asia\res\drawable\tab_pressed.png"
       inkscape:export-xdpi="13.879482"
       inkscape:export-ydpi="13.879482" />
    <path
       style="fill:url(#linearGradient3840);fill-opacity:1;stroke:none"
       d="m -941.19844,171.64789 1.07143,254.64286 c 1.34439,7.66361 3.0069,12.41874 7.85715,15 44.61673,-82.9725 33.80325,-238.48354 -8.92858,-269.64286 z"
       id="path3804-9"
       inkscape:connector-curvature="0"
       sodipodi:nodetypes="cccc"
       inkscape:export-filename="D:\studyworkspace\Asia\res\drawable\tab_inactive.png"
       inkscape:export-xdpi="13.846154"
       inkscape:export-ydpi="13.846154" />
    <path
       inkscape:connector-curvature="0"
       style="fill:url(#linearGradient3882);fill-opacity:1;fill-rule:evenodd;stroke:none"
       d="m -913.02271,153.61049 c -17.27039,0 -26.86371,6.79804 -26.86371,18.24893 48.8942,49.89118 40.15074,196.75404 -5.67951,270.683 l 503.95305,0 c 0,0 -8.91422,-18.3588 -12.49129,-26.2456 -18.95258,-41.78684 -23.91507,-88.31962 -23.34735,-122.88147 1.86676,-113.64316 37.66174,-123.76442 37.66174,-123.76442 -6.48518,-14.77342 -16.43245,-16.04044 -33.70284,-16.04044 z"
       id="rect2985-0-37"
       sodipodi:nodetypes="scccsssss"
       inkscape:export-filename="D:\studyworkspace\Asia\res\drawable\tab_inactive.png"
       inkscape:export-xdpi="13.846154"
       inkscape:export-ydpi="13.846154" />
  </g>
</svg>
