<?xml version="1.0" encoding="UTF-8" standalone="no"?>
<!-- Created with Inkscape (http://www.inkscape.org/) -->
<svg
   xmlns:dc="http://purl.org/dc/elements/1.1/"
   xmlns:cc="http://creativecommons.org/ns#"
   xmlns:rdf="http://www.w3.org/1999/02/22-rdf-syntax-ns#"
   xmlns:svg="http://www.w3.org/2000/svg"
   xmlns="http://www.w3.org/2000/svg"
   xmlns:xlink="http://www.w3.org/1999/xlink"
   xmlns:sodipodi="http://sodipodi.sourceforge.net/DTD/sodipodi-0.dtd"
   xmlns:inkscape="http://www.inkscape.org/namespaces/inkscape"
   version="1.0"
   width="443"
   height="664"
   id="svg1903"
   sodipodi:version="0.32"
   inkscape:version="0.46"
   sodipodi:docname="xmpp-away.svg"
   inkscape:output_extension="org.inkscape.output.svg.inkscape">
  <metadata
     id="metadata13">
    <rdf:RDF>
      <cc:Work
         rdf:about="">
        <dc:format>image/svg+xml</dc:format>
        <dc:type
           rdf:resource="http://purl.org/dc/dcmitype/StillImage" />
      </cc:Work>
    </rdf:RDF>
  </metadata>
  <sodipodi:namedview
     inkscape:window-height="1148"
     inkscape:window-width="1920"
     inkscape:pageshadow="2"
     inkscape:pageopacity="0.0"
     guidetolerance="10.0"
     gridtolerance="10.0"
     objecttolerance="10.0"
     borderopacity="1.0"
     bordercolor="#666666"
     pagecolor="#ffffff"
     id="base"
     showgrid="false"
     inkscape:zoom="0.34789157"
     inkscape:cx="-639.67994"
     inkscape:cy="332"
     inkscape:window-x="0"
     inkscape:window-y="14"
     inkscape:current-layer="svg1903" />
  <defs
     id="defs1905">
    <linearGradient
       inkscape:collect="always"
       id="linearGradient3158">
      <stop
         style="stop-color:#ffffff;stop-opacity:1;"
         offset="0"
         id="stop3160" />
      <stop
         style="stop-color:#ffffff;stop-opacity:0;"
         offset="1"
         id="stop3162" />
    </linearGradient>
    <inkscape:perspective
       sodipodi:type="inkscape:persp3d"
       inkscape:vp_x="0 : 332 : 1"
       inkscape:vp_y="0 : 1000 : 0"
       inkscape:vp_z="443 : 332 : 1"
       inkscape:persp3d-origin="221.5 : 221.33333 : 1"
       id="perspective15" />
    <radialGradient
       inkscape:collect="always"
       xlink:href="#linearGradient3158"
       id="radialGradient3164"
       cx="188.27602"
       cy="280.71976"
       fx="188.27602"
       fy="280.71976"
       r="185.25969"
       gradientTransform="matrix(2.0824918,-6.83348,10.405135,3.1709431,-4768.9247,211.49142)"
       gradientUnits="userSpaceOnUse" />
    <inkscape:perspective
       sodipodi:type="inkscape:persp3d"
       inkscape:vp_x="0 : 96.380356 : 1"
       inkscape:vp_y="0 : 1000 : 0"
       inkscape:vp_z="460.10153 : 96.380356 : 1"
       inkscape:persp3d-origin="230.05077 : 64.253571 : 1"
       id="perspective23" />
    <inkscape:perspective
       id="perspective3265"
       inkscape:persp3d-origin="221.5 : 221.33333 : 1"
       inkscape:vp_z="443 : 332 : 1"
       inkscape:vp_y="0 : 1000 : 0"
       inkscape:vp_x="0 : 332 : 1"
       sodipodi:type="inkscape:persp3d" />
  </defs>
  <g
     id="g3166"
     inkscape:export-filename="D:\studyworkspace\Asia\res\drawable\xmpp_away_16.png"
     inkscape:export-xdpi="2.1686757"
     inkscape:export-ydpi="2.1686757"
     transform="translate(-290.32034,359.30736)">
    <path
       inkscape:export-ydpi="10.843379"
       inkscape:export-xdpi="10.843379"
       inkscape:export-filename="D:\studyworkspace\Asia\res\drawable\xmpp_online_80.png"
       id="path28"
       style="fill:#00fa00;fill-opacity:1;stroke:none"
       d="M -1503.5296,-465.19821 C -1515.5722,-463.61554 -1527.8123,-463.77965 -1539.9133,-461.9105 C -1563.0941,-458.33073 -1585.2962,-451.12948 -1607.0082,-442.44292 C -1614.9142,-439.28038 -1622.7145,-435.75624 -1630.3757,-432.04853 C -1633.2268,-430.66891 -1637.5751,-429.56467 -1639.8673,-427.35061 C -1641.0604,-426.19629 -1640.938,-423.4927 -1641.083,-421.94897 C -1641.4861,-417.60708 -1642.0285,-413.27076 -1642.4489,-408.93165 C -1644.0704,-392.18714 -1645.2137,-374.9364 -1642.8158,-358.20024 C -1642.0397,-352.79304 -1640.3594,-342.98554 -1633.7136,-341.94805 C -1623.4934,-340.3487 -1615.554,-352.92377 -1610.5384,-359.86912 C -1598.824,-376.09071 -1585.4962,-391.19137 -1566.2849,-398.44269 C -1543.6685,-406.97905 -1517.7751,-408.99006 -1493.8485,-410.63113 C -1426.7199,-415.2317 -1353.3631,-402.97094 -1303.9131,-353.52735 C -1296.8806,-346.49577 -1290.2237,-339.03306 -1284.5626,-330.83047 C -1262.422,-298.77113 -1250.7132,-262.31706 -1245.0744,-224.0272 C -1242.4233,-206.0505 -1240.6123,-187.85962 -1244.7128,-169.95801 C -1251.8287,-138.90001 -1270.4865,-111.8668 -1291.9262,-88.852838 C -1306.6004,-73.101318 -1323.1134,-58.862918 -1340.2996,-45.920688 C -1349.8941,-38.697188 -1360.6543,-32.569588 -1369.6758,-24.672968 C -1380.066,-15.577528 -1388.7092,-4.1957085 -1395.2771,7.9398815 C -1412.9529,40.616712 -1417.6929,79.935712 -1412.4939,116.41204 C -1411.4284,123.88866 -1410.4659,131.40144 -1408.7718,138.77514 C -1408.2655,140.98085 -1408.1765,144.77201 -1406.7494,146.57441 C -1404.0788,149.94556 -1396.7904,151.80081 -1392.7094,151.9983 C -1388.4532,152.20413 -1385.6213,148.93311 -1384.5781,145.11691 C -1382.7922,138.57766 -1383.8604,131.33468 -1384.8953,124.75648 C -1387.015,111.28299 -1388.9567,97.714932 -1388.3559,84.038402 C -1387.2487,58.785342 -1377.4844,35.254022 -1359.9811,16.951882 C -1342.1801,-1.6617785 -1318.1367,-12.395518 -1297.9071,-27.988488 C -1257.1365,-59.413648 -1220.6109,-101.81175 -1206.5849,-152.26502 C -1201.572,-170.30848 -1199.9112,-189.42837 -1202.2007,-208.0031 C -1205.0938,-231.49826 -1213.6869,-254.96561 -1221.7821,-277.09228 C -1246.4542,-344.53761 -1288.7771,-408.67853 -1355.9892,-439.53349 C -1382.6642,-451.77757 -1410.5577,-457.35165 -1439.4416,-461.37367 C -1452.9864,-463.25952 -1466.5284,-464.41661 -1480.1652,-465.01463 C -1487.7399,-465.34563 -1495.9797,-466.18563 -1503.5324,-465.19264" />
    <path
       inkscape:export-ydpi="10.843379"
       inkscape:export-xdpi="10.843379"
       inkscape:export-filename="D:\studyworkspace\Asia\res\drawable\xmpp_online_80.png"
       id="path30"
       style="fill:#00fa00;fill-opacity:1;stroke:none"
       d="M -1608.6804,-28.633798 C -1621.7801,-26.759078 -1625.5884,-16.258988 -1623.1682,-4.4126685 C -1620.0692,10.746402 -1608.1463,22.309012 -1596.3321,31.415582 C -1566.0629,54.746632 -1526.9669,67.357862 -1488.8473,65.688972 C -1473.9728,65.038112 -1457.7686,62.579282 -1444.1181,56.268102 C -1436.7991,52.885822 -1429.1435,40.700162 -1439.1108,35.484882 C -1440.4767,34.770042 -1442.2624,34.327782 -1443.7843,34.077452 C -1448.1376,33.365392 -1453.0117,35.217862 -1457.1369,36.402772 C -1464.4114,38.491662 -1471.6803,40.630622 -1479.169,41.832222 C -1501.5434,45.425892 -1525.737,40.313532 -1544.2613,27.057002 C -1559.2357,16.337172 -1571.3478,2.2016915 -1582.7815,-12.089548 C -1589.7803,-20.837308 -1596.1062,-30.436198 -1608.6857,-28.633798" />
    <path
       inkscape:export-ydpi="10.843379"
       inkscape:export-xdpi="10.843379"
       inkscape:export-filename="D:\studyworkspace\Asia\res\drawable\xmpp_online_80.png"
       id="path32"
       style="fill:#00fa00;fill-opacity:1;stroke:none"
       d="M -1625.7052,45.459272 C -1629.0379,45.898742 -1632.8601,45.773572 -1635.7143,47.868032 C -1641.6674,52.237732 -1635.1106,61.027212 -1631.9783,65.010292 C -1622.8959,76.550652 -1610.9367,86.130072 -1599.0024,94.574642 C -1565.7318,118.10874 -1528.0435,131.68515 -1487.5118,134.46385 C -1475.8589,135.26213 -1463.9888,134.43325 -1452.4636,132.51403 C -1448.2494,131.81031 -1443.0054,131.49323 -1439.1108,129.67414 C -1428.0894,124.52006 -1431.2774,103.70068 -1441.1137,99.072292 C -1445.4089,97.052942 -1452.2995,99.720382 -1456.8033,100.34621 C -1467.455,101.83152 -1478.1373,101.98172 -1488.8501,101.72026 C -1516.9272,101.03324 -1546.8376,92.385622 -1571.3011,78.739682 C -1580.9179,73.371422 -1589.75,66.840502 -1598.0067,59.572502 C -1603.028,55.152732 -1608.1855,47.920882 -1614.6975,45.687352 C -1617.7297,44.647082 -1622.5593,45.042052 -1625.7139,45.456492" />
    <path
       inkscape:export-ydpi="10.843379"
       inkscape:export-xdpi="10.843379"
       inkscape:export-filename="D:\studyworkspace\Asia\res\drawable\xmpp_online_80.png"
       id="path34"
       style="fill:#00fa00;fill-opacity:1;stroke:none"
       d="M -1619.0291,107.87846 C -1623.7746,108.40972 -1627.3521,110.88524 -1630.4733,114.40659 C -1632.6237,116.83204 -1634.6655,119.02385 -1635.9007,122.08348 C -1642.7106,138.92812 -1624.5563,154.82984 -1612.0186,162.78488 C -1598.0652,171.63554 -1582.8207,178.19706 -1567.2897,183.72386 C -1532.2607,196.19045 -1491.1757,204.17052 -1454.7976,193.02513 C -1443.9846,189.71516 -1433.2968,183.66266 -1425.4353,175.48233 C -1421.0069,170.87342 -1417.9663,163.89469 -1426.089,160.94354 C -1430.9016,159.19677 -1436.7463,163.64435 -1441.111,165.40225 C -1451.4149,169.55778 -1462.0972,172.71198 -1473.1578,174.04987 C -1487.7263,175.81611 -1500.8426,172.60906 -1514.8826,169.09605 C -1526.8751,166.09762 -1539.0036,163.09918 -1550.5986,158.77676 C -1560.4908,155.08852 -1570.3163,150.70769 -1578.9731,144.58287 C -1581.5602,142.75266 -1584.6592,141.12271 -1586.779,138.73898 C -1593.7085,130.94249 -1598.9161,121.81924 -1606.3464,114.40381 C -1609.5567,111.19955 -1614.1186,107.32773 -1619.0316,107.87568" />
    <path
       sodipodi:nodetypes="csssssssssssssssssssssssssssssss"
       id="path2384"
       d="M -1428.7402,15.408222 C -1418.7284,7.5305015 -1420.6211,-13.665698 -1413.4961,-24.226498 C -1406.4988,-34.598098 -1392.8938,-45.013988 -1383.0079,-52.682188 C -1372.7164,-60.664968 -1356.7274,-68.091678 -1346.422,-76.056498 C -1332.9368,-86.478948 -1315.6814,-101.59492 -1304.7547,-114.67494 C -1296.4046,-124.67068 -1286.6602,-139.3544 -1281.3804,-151.26083 C -1277.1529,-160.79413 -1273.7615,-174.48181 -1272.2339,-184.7979 C -1270.6256,-195.65946 -1270.1712,-210.45376 -1271.2177,-221.38378 C -1272.2892,-232.57611 -1276.3466,-247.13413 -1279.3479,-257.96967 C -1282.4361,-269.11934 -1286.1737,-284.30756 -1291.5432,-294.55556 C -1297.2031,-305.3579 -1308.1033,-317.72703 -1315.9338,-327.07635 C -1323.9671,-336.66795 -1334.1093,-350.43358 -1344.3894,-357.56459 C -1355.5084,-365.27741 -1373.2662,-370.42298 -1386.0567,-374.84126 C -1398.9216,-379.28526 -1416.2928,-385.0405 -1429.7565,-387.03656 C -1443.3312,-389.04907 -1461.7761,-388.58413 -1475.4889,-388.05283 C -1487.7358,-387.57833 -1504.0467,-385.97947 -1516.1399,-383.98773 C -1528.1806,-382.00464 -1544.7331,-380.03701 -1555.7746,-374.84126 C -1567.5822,-369.28504 -1581.1214,-357.66634 -1590.3279,-348.41812 C -1599.233,-339.4727 -1608.4903,-325.21734 -1615.7348,-314.88106 C -1622.8212,-304.77037 -1634.3888,-292.10583 -1638.0928,-280.32772 C -1643.3095,-263.73966 -1640.3806,-239.78718 -1640.1254,-222.40006 C -1639.8474,-203.46009 -1636.3262,-178.33117 -1636.0603,-159.39103 C -1635.8247,-142.61307 -1639.2058,-120.23859 -1638.0928,-103.49592 C -1637.2517,-90.842788 -1640.671,-70.006238 -1630.9789,-61.828658 C -1626.0855,-57.699888 -1616.0085,-62.459548 -1609.6371,-61.828658 C -1603.449,-61.215908 -1595.0856,-60.072148 -1589.3116,-57.763558 C -1582.9499,-55.219978 -1575.1547,-50.084338 -1570.0024,-45.568258 C -1561.0489,-37.720398 -1552.4022,-24.069488 -1544.5956,-15.080018 C -1538.9343,-8.5609385 -1532.5796,1.6403715 -1525.2863,6.2617415 C -1516.4061,11.888712 -1502.1057,14.617552 -1491.7493,16.424492 C -1480.0204,18.470882 -1464.0114,18.924032 -1452.1146,18.457042 C -1445.0483,18.179672 -1434.2978,19.781122 -1428.7402,15.408222 z"
       style="fill:url(#radialGradient3164);fill-opacity:1;fill-rule:evenodd;stroke:none;stroke-width:1px;stroke-linecap:butt;stroke-linejoin:miter;stroke-opacity:1" />
    <path
       inkscape:export-ydpi="10.843379"
       inkscape:export-xdpi="10.843379"
       inkscape:export-filename="D:\studyworkspace\Asia\res\drawable\xmpp_online_80.png"
       id="path26"
       style="fill:#ffb400;stroke:none"
       d="M -1489.1756,-140.92214 C -1489.1756,-150.60448 -1490.964,-161.1741 -1496.5889,-169.29324 C -1507.8665,-185.56768 -1532.0768,-190.74401 -1548.9292,-180.4887 C -1557.4472,-175.30124 -1562.1847,-166.24474 -1564.8553,-156.94625 C -1570.1575,-138.48279 -1567.7261,-117.41308 -1564.0182,-98.871728 C -1562.8332,-92.941608 -1561.6091,-87.003148 -1559.9456,-81.181518 C -1559.3447,-79.081498 -1559.0665,-76.030218 -1557.7007,-74.283448 C -1555.3169,-71.229378 -1549.497,-70.344868 -1545.9282,-70.945668 C -1535.2209,-72.745288 -1537.872,-90.374308 -1538.2364,-97.870398 C -1539.0904,-115.42988 -1544.2647,-132.47201 -1539.2518,-149.93692 C -1537.1292,-157.32731 -1533.0288,-165.63838 -1525.5651,-168.8482 C -1518.8275,-171.74929 -1512.0287,-168.20012 -1509.3609,-161.61914 C -1505.041,-150.96329 -1506.1203,-138.6608 -1503.4108,-127.57382 C -1502.49,-123.80492 -1501.4774,-120.07217 -1499.7777,-116.55916 C -1499.2854,-115.54392 -1498.6066,-113.43278 -1497.1795,-113.56073 C -1493.7105,-113.87781 -1488.7783,-119.66607 -1486.1776,-121.81338 C -1477.7764,-128.75595 -1469.1444,-136.19085 -1459.4719,-141.32824 C -1454.9208,-143.74535 -1447.4324,-147.65889 -1442.7837,-143.54786 C -1441.5989,-142.49924 -1440.6447,-141.24758 -1439.7963,-139.92081 C -1434.3327,-131.3622 -1439.7573,-124.69499 -1443.3094,-116.55638 C -1447.9078,-106.02291 -1452.62,-95.595148 -1459.2828,-86.182618 C -1465.0106,-78.088508 -1472.8384,-70.992958 -1477.4148,-62.150628 C -1480.3608,-56.456938 -1482.0271,-50.218078 -1480.8087,-43.792858 C -1479.8211,-38.597058 -1475.793,-35.459548 -1470.4936,-36.677838 C -1466.5267,-37.590158 -1463.8394,-40.989128 -1461.5778,-44.126638 C -1457.5469,-49.722978 -1453.8025,-55.530708 -1449.7967,-61.149298 C -1442.0465,-72.016538 -1432.9026,-82.177288 -1426.3847,-93.859498 C -1418.5288,-107.94214 -1414.74,-123.87723 -1414.7486,-139.91803 C -1414.7539,-153.02715 -1419.508,-173.06215 -1434.7778,-175.81025 C -1437.6512,-176.32482 -1440.9368,-176.04389 -1443.791,-175.54601 C -1447.3376,-174.92852 -1450.8983,-173.7742 -1454.1392,-172.20545 C -1462.8213,-168.00541 -1470.3295,-161.73318 -1476.7805,-154.60146 C -1480.8056,-150.15666 -1484.4109,-144.56588 -1489.1873,-140.91658" />
  </g>
  <path
     style="fill:#ffffff;fill-rule:evenodd;stroke:#000000;stroke-width:10;stroke-linecap:butt;stroke-linejoin:miter;stroke-opacity:1;fill-opacity:0.88596492999999998;stroke-miterlimit:4;stroke-dasharray:none"
     d="M -2104.1039,373.67966 L -2049.4892,5.7489248 L -1474.5974,71.861478 L -1520.5887,436.91775 L -2104.1039,373.67966 z"
     id="path2669"
     inkscape:export-filename="D:\studyworkspace\Asia\res\drawable\xmpp_away_16.png"
     inkscape:export-xdpi="2.1686757"
     inkscape:export-ydpi="2.1686757" />
</svg>
