<?xml version="1.0" encoding="UTF-8" standalone="no"?>
<!-- Created with Inkscape (http://www.inkscape.org/) -->

<svg
   xmlns:dc="http://purl.org/dc/elements/1.1/"
   xmlns:cc="http://creativecommons.org/ns#"
   xmlns:rdf="http://www.w3.org/1999/02/22-rdf-syntax-ns#"
   xmlns:svg="http://www.w3.org/2000/svg"
   xmlns="http://www.w3.org/2000/svg"
   xmlns:xlink="http://www.w3.org/1999/xlink"
   xmlns:sodipodi="http://sodipodi.sourceforge.net/DTD/sodipodi-0.dtd"
   xmlns:inkscape="http://www.inkscape.org/namespaces/inkscape"
   id="svg18949"
   sodipodi:version="0.32"
   inkscape:version="0.48.1 "
   width="210mm"
   height="297mm"
   sodipodi:docname="xstatus_sleep.svg"
   inkscape:output_extension="org.inkscape.output.svg.inkscape"
   version="1.1">
  <metadata
     id="metadata18954">
    <rdf:RDF>
      <cc:Work
         rdf:about="">
        <dc:format>image/svg+xml</dc:format>
        <dc:type
           rdf:resource="http://purl.org/dc/dcmitype/StillImage" />
        <dc:title></dc:title>
      </cc:Work>
    </rdf:RDF>
  </metadata>
  <defs
     id="defs18952">
    <linearGradient
       inkscape:collect="always"
       id="linearGradient20052">
      <stop
         style="stop-color:#c8c8c8;stop-opacity:1;"
         offset="0"
         id="stop20054" />
      <stop
         style="stop-color:#c8c8c8;stop-opacity:0;"
         offset="1"
         id="stop20056" />
    </linearGradient>
    <linearGradient
       inkscape:collect="always"
       id="linearGradient20022">
      <stop
         style="stop-color:#ffffff;stop-opacity:1;"
         offset="0"
         id="stop20024" />
      <stop
         style="stop-color:#ffffff;stop-opacity:0;"
         offset="1"
         id="stop20026" />
    </linearGradient>
    <linearGradient
       inkscape:collect="always"
       id="linearGradient19996">
      <stop
         style="stop-color:#dcdcdc;stop-opacity:1;"
         offset="0"
         id="stop19998" />
      <stop
         style="stop-color:#dcdcdc;stop-opacity:0;"
         offset="1"
         id="stop20000" />
    </linearGradient>
    <linearGradient
       inkscape:collect="always"
       id="linearGradient19970">
      <stop
         style="stop-color:#ffffff;stop-opacity:1;"
         offset="0"
         id="stop19972" />
      <stop
         style="stop-color:#ffffff;stop-opacity:0;"
         offset="1"
         id="stop19974" />
    </linearGradient>
    <inkscape:perspective
       sodipodi:type="inkscape:persp3d"
       inkscape:vp_x="0 : 526.18109 : 1"
       inkscape:vp_y="0 : 1000 : 0"
       inkscape:vp_z="744.09448 : 526.18109 : 1"
       inkscape:persp3d-origin="372.04724 : 350.78739 : 1"
       id="perspective18956" />
    <linearGradient
       inkscape:collect="always"
       xlink:href="#linearGradient19970"
       id="linearGradient19976"
       x1="332.27997"
       y1="477.99054"
       x2="339.68292"
       y2="488.24081"
       gradientUnits="userSpaceOnUse" />
    <linearGradient
       inkscape:collect="always"
       xlink:href="#linearGradient19996"
       id="linearGradient20002"
       x1="374.32483"
       y1="555.05597"
       x2="355.76117"
       y2="506.55597"
       gradientUnits="userSpaceOnUse" />
    <linearGradient
       inkscape:collect="always"
       xlink:href="#linearGradient20022"
       id="linearGradient20028"
       x1="352.25"
       y1="486.23718"
       x2="361.125"
       y2="498.11218"
       gradientUnits="userSpaceOnUse"
       gradientTransform="translate(-1.0606602,3.5355339)" />
    <radialGradient
       inkscape:collect="always"
       xlink:href="#linearGradient20052"
       id="radialGradient20058"
       cx="366.28131"
       cy="536.70459"
       fx="366.28131"
       fy="536.70459"
       r="27.046835"
       gradientTransform="matrix(1,0,0,0.130719,0,466.54713)"
       gradientUnits="userSpaceOnUse" />
  </defs>
  <sodipodi:namedview
     inkscape:window-height="926"
     inkscape:window-width="1337"
     inkscape:pageshadow="2"
     inkscape:pageopacity="0.0"
     guidetolerance="10.0"
     gridtolerance="10.0"
     objecttolerance="10.0"
     borderopacity="1.0"
     bordercolor="#666666"
     pagecolor="#ffffff"
     id="base"
     showgrid="false"
     inkscape:zoom="5.6568542"
     inkscape:cx="344.47008"
     inkscape:cy="536.18109"
     inkscape:window-x="293"
     inkscape:window-y="81"
     inkscape:current-layer="svg18949"
     inkscape:window-maximized="0" />
  <path
     style="fill:none;stroke:#000000;stroke-width:0.91100401px;stroke-linecap:butt;stroke-linejoin:miter;stroke-opacity:1"
     d="m 345.66225,505.91793 c 0,29.06558 0,28.94743 0,28.94743 l 1.85075,0 0,-28.94743 -1.85075,0 z"
     id="path19449"
     inkscape:export-filename="D:\studyworkspace\Asia\res\drawable-hdpi\xstatus_sleeping_32.png"
     inkscape:export-xdpi="89.771812"
     inkscape:export-ydpi="89.771812"
     inkscape:connector-curvature="0" />
  <path
     style="fill:none;fill-rule:evenodd;stroke:#000000;stroke-width:1px;stroke-linecap:butt;stroke-linejoin:miter;stroke-opacity:1"
     d="M 389.72422,500.19947 C 389.72422,535.22126 389.72422,535.0789 389.72422,535.0789 L 391.57497,535.0789 L 391.57497,500.19947 L 389.72422,500.19947 z"
     id="path19451"
     inkscape:export-filename="D:\studyworkspace\Asia\res\drawable-hdpi\xstatus_sleeping_32.png"
     inkscape:export-xdpi="89.771812"
     inkscape:export-ydpi="89.771812" />
  <path
     sodipodi:type="arc"
     style="fill:#e1a700;fill-opacity:1;fill-rule:nonzero;stroke:#df982c;stroke-width:1;stroke-linecap:round;stroke-linejoin:round;stroke-miterlimit:4;stroke-dasharray:none;stroke-opacity:1"
     id="path19457"
     sodipodi:cx="378.83331"
     sodipodi:cy="503.90097"
     sodipodi:rx="5.5522356"
     sodipodi:ry="5.4810529"
     d="M 384.38555,503.90097 A 5.5522356,5.4810529 0 1 1 373.28108,503.90097 A 5.5522356,5.4810529 0 1 1 384.38555,503.90097 z"
     transform="translate(5.1251405,10.677376)"
     inkscape:export-filename="D:\studyworkspace\Asia\res\drawable-hdpi\xstatus_sleeping_32.png"
     inkscape:export-xdpi="89.771812"
     inkscape:export-ydpi="89.771812" />
  <rect
     style="fill:#f0f0f0;fill-opacity:1;fill-rule:nonzero;stroke:#000000;stroke-width:1;stroke-linecap:round;stroke-linejoin:round;stroke-miterlimit:4;stroke-dasharray:none;stroke-opacity:1"
     id="rect19453"
     width="41.57058"
     height="11.104477"
     x="347.65536"
     y="517.92389"
     inkscape:export-filename="D:\studyworkspace\Asia\res\drawable-hdpi\xstatus_sleeping_32.png"
     inkscape:export-xdpi="89.771812"
     inkscape:export-ydpi="89.771812" />
  <path
     sodipodi:type="arc"
     style="fill:url(#linearGradient19976);fill-opacity:1;fill-rule:nonzero;stroke:#df982c;stroke-width:0;stroke-linecap:round;stroke-linejoin:round;stroke-miterlimit:4;stroke-dasharray:none;stroke-opacity:1"
     id="path19968"
     sodipodi:cx="338.68637"
     sodipodi:cy="486.95953"
     sodipodi:rx="3.9862204"
     sodipodi:ry="3.9150379"
     d="M 342.67259,486.95953 A 3.9862204,3.9150379 0 1 1 334.70015,486.95953 A 3.9862204,3.9150379 0 1 1 342.67259,486.95953 z"
     transform="translate(45.12971,27.476448)"
     inkscape:export-filename="D:\studyworkspace\Asia\res\drawable-hdpi\xstatus_sleeping_32.png"
     inkscape:export-xdpi="89.771812"
     inkscape:export-ydpi="89.771812" />
  <rect
     style="fill:#dcdcdc;fill-opacity:1;fill-rule:nonzero;stroke:#df982c;stroke-width:0;stroke-linecap:round;stroke-linejoin:round;stroke-miterlimit:4;stroke-dasharray:none;stroke-opacity:1"
     id="rect20004"
     width="38.625"
     height="8.375"
     x="349"
     y="519.23718"
     ry="0.28473002"
     inkscape:export-filename="D:\studyworkspace\Asia\res\drawable-hdpi\xstatus_sleeping_32.png"
     inkscape:export-xdpi="89.771812"
     inkscape:export-ydpi="89.771812" />
  <path
     style="fill:#ffffff;fill-rule:evenodd;stroke:#d7d9d7;stroke-width:1px;stroke-linecap:butt;stroke-linejoin:miter;stroke-opacity:1;fill-opacity:1"
     d="M 348.22482,517.63919 L 348.22482,515.21898 L 350.50266,513.79533 L 353.2076,512.51405 L 357.05146,511.37513 L 359.61403,510.94803 L 365.73572,510.6633 L 368.29829,509.95148 L 370.86086,510.94803 L 374.41999,511.37513 L 377.83675,512.37168 L 378.54857,515.07662 L 378.97567,518.06628 L 379.54513,520.20176 L 380.96878,524.61508 L 381.11114,526.18109 L 378.97567,528.03184 L 374.56235,529.31312 L 366.58991,530.87914 L 362.31896,531.0215 L 358.75984,531.87569 L 354.77362,532.01806 L 352.21105,531.87569 L 349.9332,527.88947 L 349.36374,524.47271 L 348.36719,521.91014 L 348.22482,517.63919 z"
     id="path19455"
     inkscape:export-filename="D:\studyworkspace\Asia\res\drawable-hdpi\xstatus_sleeping_32.png"
     inkscape:export-xdpi="89.771812"
     inkscape:export-ydpi="89.771812" />
  <path
     style="fill:url(#linearGradient20002);fill-opacity:1;fill-rule:evenodd;stroke:#000000;stroke-width:0;stroke-linecap:butt;stroke-linejoin:miter;stroke-miterlimit:4;stroke-dasharray:none;stroke-opacity:1"
     d="M 349.44982,518.1905 L 349.44982,516.02719 L 351.57528,514.75467 L 354.09927,513.60938 L 357.68599,512.59136 L 360.07712,512.20961 L 365.7893,511.9551 L 368.18043,511.31884 L 370.57157,512.20961 L 373.89262,512.59136 L 377.08081,513.48214 L 377.74501,515.89995 L 378.14354,518.57225 L 378.6749,520.48105 L 380.00331,524.42591 L 380.13616,525.82569 L 378.14354,527.47999 L 374.02545,528.62525 L 366.58635,530.02504 L 362.60111,530.15228 L 359.28008,530.91581 L 355.56052,531.04307 L 353.16939,530.91581 L 351.04391,527.35271 L 350.51254,524.29865 L 349.58267,522.00809 L 349.44982,518.1905 z"
     id="path19978"
     inkscape:export-filename="D:\studyworkspace\Asia\res\drawable-hdpi\xstatus_sleeping_32.png"
     inkscape:export-xdpi="89.771812"
     inkscape:export-ydpi="89.771812" />
  <path
     style="fill:#f0f01c;fill-opacity:1;fill-rule:nonzero;stroke:#f5f800;stroke-width:1.01022863;stroke-linecap:round;stroke-linejoin:round;stroke-miterlimit:4;stroke-opacity:1;stroke-dasharray:none"
     d="m 359.12684,489.66053 c -4.93068,0 -8.9375,3.95081 -8.9375,8.8125 0,4.40075 3.28374,8.03492 7.5625,8.6875 -0.62698,-1.20409 -1,-2.55422 -1,-4 -1e-5,-4.86168 4.00682,-8.8125 8.9375,-8.8125 0.46747,0 0.92685,0.0254 1.375,0.0937 -1.48135,-2.84486 -4.47311,-4.78125 -7.9375,-4.78125 z"
     id="path20006"
     inkscape:export-filename="D:\studyworkspace\Asia\res\drawable-hdpi\xstatus_sleeping_32.png"
     inkscape:export-xdpi="89.771812"
     inkscape:export-ydpi="89.771812"
     inkscape:connector-curvature="0" />
  <path
     style="fill:url(#linearGradient20028);fill-opacity:1;fill-rule:evenodd;stroke:#000000;stroke-width:0;stroke-linecap:butt;stroke-linejoin:miter;stroke-miterlimit:4;stroke-opacity:1;stroke-dasharray:none"
     d="m 354.56434,503.64771 -1.625,-1.5 -0.75,-1.625 -0.25,-2.375 0.5,-2.25 0.875,-1.5 1.5,-1.25 1.875,-1.25 1.75,-0.5 1.5,0.125 1.5,0.25 1.125,0.375 0.625,0.625 -1.75,0.375 -2.125,1.125 -1.375,1 -1.375,1.375 -0.75,1.875 -0.5,1.5 -0.5,1.25 0.125,1.75 -0.375,0.625 z"
     id="path20020"
     inkscape:export-filename="D:\studyworkspace\Asia\res\drawable-hdpi\xstatus_sleeping_32.png"
     inkscape:export-xdpi="89.771812"
     inkscape:export-ydpi="89.771812"
     inkscape:connector-curvature="0" />
  <path
     sodipodi:type="arc"
     style="fill:url(#radialGradient20058);fill-opacity:1;fill-rule:nonzero;stroke:#f5f800;stroke-width:0;stroke-linecap:round;stroke-linejoin:round;stroke-miterlimit:4;stroke-dasharray:none;stroke-opacity:1"
     id="path20050"
     sodipodi:cx="366.28131"
     sodipodi:cy="536.70459"
     sodipodi:rx="27.046835"
     sodipodi:ry="3.5355339"
     d="M 393.32815,536.70459 A 27.046835,3.5355339 0 1 1 339.23448,536.70459 A 27.046835,3.5355339 0 1 1 393.32815,536.70459 z"
     transform="translate(1.0606602,-3.0052038)"
     inkscape:export-filename="D:\studyworkspace\Asia\res\drawable-hdpi\xstatus_sleeping_32.png"
     inkscape:export-xdpi="89.771812"
     inkscape:export-ydpi="89.771812" />
</svg>
