<?xml version="1.0" encoding="UTF-8" standalone="no"?>
<!-- Created with Inkscape (http://www.inkscape.org/) -->

<svg
   xmlns:dc="http://purl.org/dc/elements/1.1/"
   xmlns:cc="http://creativecommons.org/ns#"
   xmlns:rdf="http://www.w3.org/1999/02/22-rdf-syntax-ns#"
   xmlns:svg="http://www.w3.org/2000/svg"
   xmlns="http://www.w3.org/2000/svg"
   xmlns:sodipodi="http://sodipodi.sourceforge.net/DTD/sodipodi-0.dtd"
   xmlns:inkscape="http://www.inkscape.org/namespaces/inkscape"
   id="svg2"
   sodipodi:version="0.32"
   inkscape:version="0.48.1 "
   width="271.75473"
   height="340.12646"
   version="1.0"
   sodipodi:docname="yves_guillou_brain.svg"
   inkscape:output_extension="org.inkscape.output.svg.inkscape">
  <metadata
     id="metadata7">
    <rdf:RDF>
      <cc:Work
         rdf:about="">
        <dc:format>image/svg+xml</dc:format>
        <dc:type
           rdf:resource="http://purl.org/dc/dcmitype/StillImage" />
        <dc:title></dc:title>
      </cc:Work>
    </rdf:RDF>
  </metadata>
  <defs
     id="defs5">
    <filter
       inkscape:collect="always"
       id="filter2927">
      <feGaussianBlur
         inkscape:collect="always"
         stdDeviation="1.5302553"
         id="feGaussianBlur2929" />
    </filter>
    <filter
       inkscape:collect="always"
       id="filter2943">
      <feGaussianBlur
         inkscape:collect="always"
         stdDeviation="1.071054"
         id="feGaussianBlur2945" />
    </filter>
    <filter
       inkscape:collect="always"
       id="filter2955">
      <feGaussianBlur
         inkscape:collect="always"
         stdDeviation="0.61210212"
         id="feGaussianBlur2957" />
    </filter>
    <filter
       inkscape:collect="always"
       id="filter2963">
      <feGaussianBlur
         inkscape:collect="always"
         stdDeviation="0.61210212"
         id="feGaussianBlur2965" />
    </filter>
  </defs>
  <sodipodi:namedview
     inkscape:window-height="713"
     inkscape:window-width="1024"
     inkscape:pageshadow="2"
     inkscape:pageopacity="0.0"
     guidetolerance="10.0"
     gridtolerance="10.0"
     objecttolerance="10.0"
     borderopacity="1.0"
     bordercolor="#666666"
     pagecolor="#ffffff"
     id="base"
     showgrid="false"
     inkscape:zoom="0.52285657"
     inkscape:cx="477.8691"
     inkscape:cy="354.56461"
     inkscape:window-x="0"
     inkscape:window-y="0"
     inkscape:current-layer="svg2"
     inkscape:window-maximized="0" />
  <path
     id="path2343"
     d="M 0.01577,151.06397 C 5.46066,165.01516 -1.91464,179.0096 4.97148,192.77217 C 8.11165,208.22561 16.57295,221.93621 18.67201,237.75147 C 20.7273,251.22059 27.93787,262.87774 32.21774,275.8339 C 42.26192,306.93761 69.85422,331.93562 101.53031,339.55559 C 116.9611,344.55069 133.82961,334.92755 127.56586,317.56132 C 129.19488,310.26878 136.65708,304.73633 133.72548,316.28777 C 126.15609,335.23642 148.41682,340.03006 162.40273,336.93021 C 179.70915,341.73151 187.96644,325.34798 201.18654,320.49742 C 214.64364,312.13533 224.49613,301.23399 230.67211,286.04241 C 240.2528,274.80086 243.39333,259.51081 245.26714,245.22818 C 245.22386,227.47178 261.39191,214.08955 263.19627,196.10837 C 265.93226,182.01469 264.69741,166.92526 268.10951,153.25147 C 275.02633,140.10372 271.66388,123.61632 263.7026,111.6978 C 260.19334,97.028306 252.75654,82.493264 242.54701,71.126467 C 230.75678,57.814962 221.82357,42.227206 209.74663,29.113724 C 193.35151,19.801613 178.70324,2.4266308 158.02318,4.3863653 C 145.44145,7.6316283 139.65014,26.018784 139.84778,37.860347 C 145.90297,44.224006 136.13533,67.924443 135.66764,49.721985 C 134.1369,33.595408 133.3467,16.526173 124.42201,2.4389666 C 110.021,-3.669111 90.70447,6.5961564 81.85951,18.157717 C 66.47252,20.775186 57.78339,34.491546 48.49717,45.687417 C 38.3664,56.469323 27.69825,66.923398 22.71485,81.309611 C 16.2777,95.963848 6.77303,109.40059 3.54803,125.40696 C 1.4062,133.77873 -0.12127,142.39528 0.01577,151.06397 z"
     style="fill:#f5aa91;"
     inkscape:export-filename="D:\studyworkspace\Asia\res\drawable-hdpi\xstatus_thinking_32.png"
     inkscape:export-xdpi="12.428055"
     inkscape:export-ydpi="12.428055" />
  <path
     id="path2341"
     d="M 0.01577,151.06397 C 5.46066,165.01516 -1.91464,179.0096 4.97148,192.77217 C 8.11165,208.22561 16.57295,221.93621 18.67201,237.75147 C 20.7273,251.22059 27.93787,262.87774 32.21774,275.8339 C 42.26192,306.93761 69.85422,331.93562 101.53031,339.55559 C 116.9611,344.55069 133.82961,334.92755 127.56586,317.56132 C 129.19488,310.26878 136.65708,304.73633 133.72548,316.28777 C 126.15609,335.23642 148.41682,340.03006 162.40273,336.93021 C 179.70915,341.73151 187.96644,325.34798 201.18654,320.49742 C 214.64364,312.13533 224.49613,301.23399 230.67211,286.04241 C 240.2528,274.80086 243.39333,259.51081 245.26714,245.22818 C 245.22386,227.47178 261.39191,214.08955 263.19627,196.10837 C 265.93226,182.01469 264.69741,166.92526 268.10951,153.25147 C 275.02633,140.10372 271.66388,123.61632 263.7026,111.6978 C 260.19334,97.028306 252.75654,82.493264 242.54701,71.126467 C 230.75678,57.814962 221.82357,42.227206 209.74663,29.113724 C 193.35151,19.801613 178.70324,2.4266308 158.02318,4.3863653 C 145.44145,7.6316283 139.65014,26.018784 139.84778,37.860347 C 145.90297,44.224006 136.13533,67.924443 135.66764,49.721985 C 134.1369,33.595408 133.3467,16.526173 124.42201,2.4389666 C 110.021,-3.669111 90.70447,6.5961564 81.85951,18.157717 C 66.47252,20.775186 57.78339,34.491546 48.49717,45.687417 C 38.3664,56.469323 27.69825,66.923398 22.71485,81.309611 C 16.2777,95.963848 6.77303,109.40059 3.54803,125.40696 C 1.4062,133.77873 -0.12127,142.39528 0.01577,151.06397 z M 9.76577,171.90772 C 14.96255,158.42418 11.92973,142.4728 14.3716,127.75466 C 18.19376,122.83602 30.02454,128.56995 26.96222,116.1761 C 35.91276,104.24098 57.37441,111.86745 66.50795,121.19562 C 73.12085,124.07502 74.23746,146.82164 79.73451,131.18897 C 81.75649,114.14874 96.42825,124.87268 102.95326,120.53272 C 88.90465,115.65401 75.0484,90.707491 96.48451,85.595217 C 113.01007,78.098323 94.67734,111.21862 115.69253,108.97245 C 128.0433,106.81061 123.32423,118.7598 113.86687,114.78674 C 105.12726,114.26743 97.02109,114.79706 109.42201,120.47022 C 102.09406,127.17749 86.92226,131.097 78.01464,138.99948 C 62.57097,147.10273 63.7728,115.35907 52.5185,128.08236 C 47.94328,141.72936 27.53673,148.13018 29.9045,165.97509 C 32.35563,174.28497 20.30614,187.2373 36.07652,182.89166 C 36.96454,169.16101 37.31927,149.80886 52.67689,143.8756 C 64.47328,138.74719 70.85792,162.01274 84.5385,151.26168 C 97.42785,145.90504 108.79078,128.43341 124.25182,136.66089 C 140.22499,132.79574 126.16499,172.35231 122.44664,149.85647 C 127.03866,134.40978 110.79995,148.25795 102.71084,147.93899 C 89.64335,155.10516 80.76654,175.3583 63.1497,170.58737 C 59.15085,166.19727 48.50315,150.67845 52.10235,165.95019 C 55.59999,172.44181 42.45044,190.41323 56.39076,182.56397 C 69.35297,173.85254 61.64643,200.14987 50.56822,199.38424 C 36.22116,207.31644 28.72918,188.84655 19.23451,186.50147 C 21.76493,197.55444 42.74907,206.89081 35.80024,223.11172 C 39.05956,232.67194 34.85693,248.29141 27.1885,232.82057 C 27.97069,223.70068 11.68232,207.48603 25.49704,206.63768 C 13.63645,202.46188 10.15962,186.48898 17.10951,175.81397 C 13.08068,176.16193 9.80923,180.20981 9.76577,171.90772 z M 17.17202,153.06397 C 18.65713,156.09972 17.55808,148.53667 17.17202,153.06397 z M 20.70327,106.84522 C 22.74572,97.886785 37.48497,92.818229 31.22017,83.890116 C 41.24847,74.274856 46.4941,86.974024 37.78647,94.667901 C 34.76819,100.06828 26.80221,108.56114 20.70327,106.84522 z M 29.95327,248.43897 C 32.7479,238.53476 47.12956,255.68375 44.39411,241.67142 C 40.01466,226.068 47.09578,210.21723 62.33561,204.31619 C 77.13948,193.28755 65.65644,221.82035 69.94039,229.69288 C 75.01612,242.49777 91.37798,260.34151 76.46402,270.88571 C 75.39245,257.08469 55.19849,255.28652 47.37802,264.01359 C 53.30387,275.38445 68.56015,252.03909 65.07011,271.37264 C 59.2757,279.14328 33.44214,274.18154 44.78138,260.96537 C 55.6791,248.13146 40.029,255.21816 34.88367,253.95702 C 33.25947,252.10047 31.60022,250.27521 29.95327,248.43897 z M 33.32827,126.37647 C 40.76309,133.59221 47.81802,116.74293 35.21492,123.60702 L 33.8707,124.97887 L 33.32826,126.37647 L 33.32827,126.37647 z M 41.17202,100.40772 C 47.09186,91.745519 53.08868,81.648983 62.76338,77.848991 C 61.94418,72.20242 73.28398,61.686444 62.31815,69.829767 C 60.62834,78.572874 48.30947,80.044475 52.14467,68.494352 C 33.18904,73.438883 52.81282,56.296136 60.70326,56.126467 C 67.55471,51.904354 78.92261,46.869223 66.24911,43.934308 C 71.71995,30.80548 90.80599,53.334509 71.32928,54.296977 C 64.16866,53.571205 49.35528,69.041772 65.14159,61.477865 C 84.78485,55.889207 73.87753,77.539226 66.7629,81.897848 C 77.1084,99.553124 80.11513,57.301183 88.83272,66.945612 C 95.47322,65.044101 113.39844,71.073538 97.00056,72.91112 C 81.18852,81.985318 80.01146,100.75979 76.67497,115.762 C 66.1228,109.61577 53.44139,107.10455 41.75591,103.52238 L 41.23451,101.31397 L 41.17201,100.40772 L 41.17202,100.40772 z M 48.85952,284.09524 C 57.18492,287.11944 69.89125,282.09096 76.95326,284.43897 C 74.82695,295.23079 54.73337,282.31535 65.96259,296.77866 C 63.89212,302.19343 53.76478,285.12789 48.85952,284.09524 z M 49.23452,241.53272 C 56.75431,249.27826 83.00122,238.90161 61.90096,234.17333 C 52.42412,226.7717 51.35481,232.98719 49.23452,241.53272 z M 54.14077,92.34522 C 54.33597,101.12522 68.76812,105.32764 59.14076,95.126467 C 58.64356,95.080045 54.70832,89.257838 54.14077,92.34522 z M 74.67202,199.18897 C 76.05262,192.6448 88.70662,175.51158 88.89076,187.40772 C 78.01004,202.87543 102.59929,215.0467 97.50424,227.93145 C 108.15134,226.02699 116.66292,240.28341 101.83394,242.24937 C 86.62172,254.5388 77.78284,226.77355 76.27885,215.08517 C 75.70936,209.78997 75.20897,204.48755 74.67202,199.18897 z M 76.23452,47.157716 C 82.28073,51.756047 79.19226,41.743392 76.23452,47.157716 z M 78.14077,298.40774 C 83.63936,296.40109 86.10327,295.05027 86.82608,287.48429 C 95.31616,286.56511 110.98404,287.10621 115.55567,291.84552 C 106.82903,298.0245 89.0769,283.55551 90.92376,301.55631 C 84.27736,292.12915 83.87977,309.93454 78.14077,298.40774 z M 80.04702,36.563966 C 84.43882,33.19477 104.79054,36.880735 90.35951,42.563967 C 86.56661,42.535655 81.55554,40.21116 80.04702,36.563966 z M 84.01577,310.31399 C 89.71634,305.44403 100.42549,323.75068 86.29701,313.53272 L 84.5936,311.92389 L 84.01576,310.31397 L 84.01577,310.31399 z M 88.39077,278.37649 C 98.97489,266.79618 91.53799,248.4948 108.07564,242.73329 C 114.41687,243.69542 112.76015,256.12858 120.17201,249.22022 C 132.5726,245.51541 103.9093,224.13972 117.965,218.14572 C 124.45293,213.10624 114.79877,197.08062 126.73451,201.40772 C 130.49938,217.48296 128.49172,234.70159 125.6944,250.86812 C 118.80144,258.81173 104.72464,249.35772 110.27577,263.45136 C 97.49607,281.01145 128.55454,255.0888 125.85024,271.44245 C 122.13968,282.29554 96.72515,285.16858 88.39077,278.37649 z M 91.20327,180.87647 C 94.55321,164.89918 114.5634,154.14041 127.26576,167.59522 C 130.04218,180.90018 104.25672,184.17329 112.54701,200.12647 C 121.47343,205.36542 112.13035,220.17736 108.31263,207.99235 C 99.0704,200.51961 109.53173,186.59719 104.90137,181.84934 C 100.83524,179.30547 93.98446,183.24298 91.20327,180.87647 z M 93.07827,60.188966 C 97.88421,51.47538 119.78836,57.529245 121.26051,64.892426 C 113.59264,77.663873 106.98976,56.163915 100.01129,59.404054 C 98.17333,60.28886 93.1741,64.502553 93.07827,60.188966 z M 94.20327,318.25149 C 101.8161,314.35477 103.84121,326.32627 95.70326,320.31397 L 94.20326,318.25147 L 94.20327,318.25149 z M 95.29702,47.720216 C 102.38181,41.024381 107.06188,49.233046 95.29702,47.720216 z M 110.42202,28.907716 C 114.64034,25.503446 115.53569,31.586939 110.42202,28.907716 z M 112.17202,315.87649 C 115.37461,302.8518 127.0707,324.16379 112.98949,317.94478 L 112.37726,317.01305 L 112.17201,315.87647 L 112.17202,315.87649 z M 115.39077,29.595216 C 121.55934,26.808846 118.45005,35.364598 115.39077,29.595216 z M 124.29702,281.18899 C 128.27824,273.82674 127.27472,287.4286 124.29702,281.18899 z M 140.07827,168.59522 C 144.93109,156.03946 141.09317,140.3534 144.89809,128.51205 C 154.99061,132.79312 158.62223,145.96146 170.6691,146.30343 C 160.71262,152.99518 148.54957,162.45898 150.67201,176.34522 C 155.67948,188.31969 172.99653,166.3364 181.98822,180.13017 C 195.75567,188.07315 198.80137,206.80963 191.24758,219.84821 C 191.41495,227.69531 195.31352,244.87092 187.48451,246.37647 C 186.08711,240.31155 183.54768,230.33762 176.89238,233.08168 C 168.8173,220.76653 171.97971,208.42389 176.40205,196.42989 C 177.95577,189.00162 174.57452,172.11171 166.96676,185.83159 C 168.224,194.96984 162.73769,185.96547 161.14484,195.56917 C 144.85998,195.86292 138.95452,183.30199 140.07827,168.59522 z M 140.23452,82.15772 C 138.81066,65.724735 152.54478,86.247144 140.23452,82.15772 z M 142.23452,273.25149 C 151.98422,271.54298 167.77,278.65257 176.17201,265.97022 C 183.93262,267.46457 190.79093,248.76188 189.92202,254.68897 C 184.68284,265.57345 180.25821,287.89648 163.8019,283.00431 C 154.29122,281.22807 144.1789,297.61944 143.99238,279.89452 C 143.36994,277.69333 142.28148,275.58437 142.23452,273.25149 z M 142.29702,206.56397 C 139.95728,192.703 165.97767,197.13926 160.53004,209.14434 C 166.00335,216.51609 156.62103,221.87817 163.00344,230.48981 C 162.15783,239.62701 158.92873,248.91893 151.70326,252.68897 C 133.19908,247.16512 152.24577,227.49552 148.02555,218.859 C 139.43419,221.61563 143.86081,210.80856 142.29702,206.56397 z M 145.04702,104.78272 C 147.94673,97.732279 155.84329,100.07962 150.61481,105.89724 C 160.93206,108.94628 171.24554,121.28841 179.83283,107.99359 C 178.70349,102.40466 181.52443,93.036026 185.29398,102.97505 C 189.21469,94.932546 192.03964,118.13686 182.79701,118.53272 C 174.4001,119.97223 172.05506,126.96647 162.33782,126.4752 C 156.31261,119.35331 155.10567,107.74726 145.04702,104.78272 z M 145.04702,66.688966 C 147.16273,57.840706 154.92662,71.60467 145.2575,68.286758 L 145.04701,66.688967 L 145.04702,66.688966 z M 145.17202,264.12647 C 148.0844,253.51926 150.98225,266.38357 145.17202,264.12647 z M 146.04702,299.06399 C 154.28498,297.32088 164.61476,300.10493 170.66514,301.89468 C 172.59065,296.34786 172.74285,280.60969 178.42945,294.6061 C 180.46794,307.62346 167.59666,310.25383 159.21479,302.4993 C 155.2877,300.99811 148.21734,303.33745 146.04702,299.06399 z M 148.23452,84.22022 C 150.96278,77.771159 157.15698,92.120573 148.23452,84.22022 z M 153.04702,42.345216 C 158.57829,33.245276 164.41027,44.885562 153.04702,42.345216 z M 169.29702,76.37647 C 173.61782,70.966078 174.4697,82.536435 169.29702,76.37647 z M 172.04702,145.62647 C 176.69692,134.70812 182.53005,144.15207 172.50446,146.92641 L 172.04701,145.62647 L 172.04702,145.62647 z M 176.32827,250.40772 C 180.28767,239.93109 181.04989,247.04911 182.51576,252.78272 C 192.42587,258.73827 176.8151,253.98694 176.32827,250.40772 z M 180.04702,165.28272 C 184.32507,155.7887 192.665,142.17424 186.04686,134.32028 C 203.62178,134.73021 196.14439,151.79554 195.52005,160.7028 C 205.56881,158.16314 211.25551,136.21107 220.41229,154.92543 C 222.83153,168.01865 222.36261,184.29165 239.3491,186.55477 C 259.74134,176.05946 253.53275,205.32367 247.56305,214.6608 C 242.39188,207.7731 256.58843,185.00951 239.74927,193.66245 C 220.67707,188.68076 206.26429,172.63207 186.35955,169.59951 C 184.14126,168.55713 181.1209,167.80364 180.04702,165.28272 z M 180.70327,74.00147 C 184.53257,61.381749 187.1488,82.745161 180.70327,74.00147 z M 181.04702,309.59524 C 186.32348,305.02972 192.33584,295.97173 198.17364,293.90314 C 196.72648,301.87257 197.12286,312.64006 185.535,313.7199 C 186.03245,307.55648 185.8137,309.8897 181.04702,309.59524 z M 181.04702,31.688966 C 182.6498,26.149949 183.29406,35.908784 181.04702,31.688966 z M 188.23452,292.78274 C 195.16523,280.53029 197.45593,300.41947 188.23452,292.78274 z M 188.42202,279.81399 C 184.67645,264.23522 214.20743,256.1409 216.28746,269.84077 C 212.33705,275.05441 185.91082,273.51596 201.92337,280.0673 C 207.84704,280.43219 224.83277,269.85418 216.42201,282.18897 C 216.52694,287.13637 198.04699,301.29091 207.77922,287.65493 C 213.05859,277.73181 184.5677,297.74075 188.42202,279.81399 z M 192.04702,304.12649 C 194.53512,308.01957 194.53489,300.23331 192.04702,304.12649 z M 197.04702,91.31397 C 196.43083,78.007177 214.85521,79.576913 207.77359,90.679145 C 196.61261,98.089144 231.89277,98.615317 226.17201,111.56397 C 217.6401,101.56534 198.23996,123.66567 200.04705,102.50042 C 200.07013,98.384683 196.93492,95.343681 197.04702,91.31397 z M 198.29702,226.09522 C 203.45511,217.16232 199.22764,187.37474 215.51576,201.56397 C 224.22916,206.72761 214.98824,224.02732 226.27098,231.41043 C 230.4075,238.72877 231.74667,248.71095 219.72224,249.02493 C 212.70382,252.42096 230.54205,254.77328 221.31241,262.33979 C 214.64179,260.83835 211.92511,254.28512 205.95326,255.50147 C 206.95323,244.52822 200.40522,236.00964 198.29702,226.09522 z M 199.51577,168.50147 C 205.79289,179.96146 223.25181,147.72734 208.29701,160.65772 C 205.48108,163.21126 201.17838,164.9544 199.51577,168.50147 z M 201.20327,130.06397 C 211.80076,115.82615 224.95088,135.77458 232.64076,143.53272 C 237.38947,147.19303 246.11837,166.48488 245.07151,149.95872 C 245.76192,140.68041 236.51033,131.08092 236.82826,124.12647 C 244.98878,128.69723 251.54,136.18339 258.82826,141.43897 C 263.41997,152.63806 248.78838,166.59092 256.35951,176.81397 C 241.10567,186.71363 230.23248,173.55655 229.45314,158.23701 C 224.73369,144.7874 212.96561,133.9751 201.20326,130.06397 L 201.20327,130.06397 z M 202.04702,69.970216 C 205.6981,60.458119 210.96452,76.721003 202.21042,72.230155 L 202.04701,69.970217 L 202.04702,69.970216 z M 207.23452,232.72022 C 205.83421,248.43955 228.67313,241.29002 219.09313,230.3881 C 214.6126,218.47008 207.40438,220.61675 207.23452,232.72022 z M 211.48452,217.50147 C 218.9859,221.20225 215.67637,207.92223 211.48452,217.50147 z M 220.60952,67.501466 C 221.06416,54.923892 227.92624,68.694527 220.60952,67.501466 z M 224.70327,85.53272 C 224.72985,72.888237 243.4246,89.785244 226.54701,87.313967 L 225.06954,87.148411 L 224.70326,85.532717 L 224.70327,85.53272 z M 227.45327,93.43897 C 240.26147,87.644612 251.22255,106.71531 255.16583,117.22047 C 266.91481,125.8672 247.10078,130.38913 246.4145,121.47783 C 246.75762,103.82861 231.68376,108.07909 227.45327,93.43897 z M 230.14077,267.22024 C 234.95273,252.98431 237.99018,268.20324 230.14077,267.22024 z M 231.23452,214.84522 C 238.13264,205.94171 240.72341,239.42205 233.84951,222.59541 C 232.77265,220.08943 231.70523,217.55298 231.23452,214.84522 z M 233.04702,252.62647 C 235.19829,247.75396 235.19827,257.49898 233.04702,252.62647 z"
     style="fill:#f28e6e;filter:url(#filter2955)"
     inkscape:export-filename="D:\studyworkspace\Asia\res\drawable-hdpi\xstatus_thinking_32.png"
     inkscape:export-xdpi="12.428055"
     inkscape:export-ydpi="12.428055" />
  <path
     id="path2339"
     d="M 0.01577,151.06397 C 5.46066,165.01516 -1.91464,179.0096 4.97148,192.77217 C 8.11165,208.22561 16.57295,221.93621 18.67201,237.75147 C 20.7273,251.22059 27.93787,262.87774 32.21774,275.8339 C 42.26192,306.93761 69.85422,331.93562 101.53031,339.55559 C 116.9611,344.55069 133.82961,334.92755 127.56586,317.56132 C 129.19488,310.26878 136.65708,304.73633 133.72548,316.28777 C 126.15609,335.23642 148.41682,340.03006 162.40273,336.93021 C 179.70915,341.73151 187.96644,325.34798 201.18654,320.49742 C 214.64364,312.13533 224.49613,301.23399 230.67211,286.04241 C 240.2528,274.80086 243.39333,259.51081 245.26714,245.22818 C 245.22386,227.47178 261.39191,214.08955 263.19627,196.10837 C 265.93226,182.01469 264.69741,166.92526 268.10951,153.25147 C 275.02633,140.10372 271.66388,123.61632 263.7026,111.6978 C 260.19334,97.028306 252.75654,82.493264 242.54701,71.126467 C 230.75678,57.814962 221.82357,42.227206 209.74663,29.113724 C 193.35151,19.801613 178.70324,2.4266308 158.02318,4.3863653 C 145.44145,7.6316283 139.65014,26.018784 139.84778,37.860347 C 145.90297,44.224006 136.13533,67.924443 135.66764,49.721985 C 134.1369,33.595408 133.3467,16.526173 124.42201,2.4389666 C 110.021,-3.669111 90.70447,6.5961564 81.85951,18.157717 C 66.47252,20.775186 57.78339,34.491546 48.49717,45.687417 C 38.3664,56.469323 27.69825,66.923398 22.71485,81.309611 C 16.2777,95.963848 6.77303,109.40059 3.54803,125.40696 C 1.4062,133.77873 -0.12127,142.39528 0.01577,151.06397 z M 2.73452,151.50147 C 1.36652,142.6191 10.5084,131.6878 7.47534,125.71562 C 10.99739,113.98522 17.88926,98.693238 25.50103,90.595566 C 39.67586,91.671349 16.61327,84.999493 27.01746,78.909349 C 31.51664,75.351526 39.71409,76.075547 31.34406,71.980818 C 32.20292,68.133077 47.18161,61.465954 37.22547,61.760321 C 45.25465,52.244406 58.31469,50.377315 61.08841,40.595375 C 69.30417,31.549309 78.68839,38.149294 82.51558,46.787712 C 79.70754,53.113171 73.64296,57.252294 80.5288,61.881563 C 80.08178,69.482763 64.37149,83.9295 72.83322,84.668091 C 79.76783,72.972587 87.1247,61.006367 89.04432,49.696786 C 93.56879,46.034365 105.79234,37.673175 92.79886,43.878888 C 79.79928,47.875557 73.72837,30.592855 88.11714,28.31999 C 98.53691,23.637245 95.98681,31.369078 92.23451,32.532717 C 106.01364,39.363714 96.29063,13.919783 109.37143,25.15908 C 122.70895,26.243776 96.91695,14.196385 112.11977,14.45354 C 123.5208,13.181384 122.87201,31.854948 119.97535,33.687201 C 113.87454,30.339921 94.81893,31.32304 109.95781,36.38153 C 116.57818,39.540707 131.53145,46.88527 118.06014,52.667964 C 113.91653,57.907123 131.62633,60.685186 120.79701,68.595217 C 106.39997,74.890629 86.71411,76.814339 80.91803,95.020725 C 78.3484,102.62371 83.28935,124.57406 68.95326,113.50147 C 60.41316,103.89148 37.97249,113.36757 39.7935,96.333351 C 34.43861,103.39324 24.23072,108.73587 19.60638,116.93619 C 12.12078,124.26491 31.19471,126.24743 26.1115,115.46431 C 34.39854,102.08397 56.72187,111.24689 67.60545,118.60034 C 75.71119,120.544 73.85086,146.53244 79.48776,129.1421 C 81.01182,116.28904 101.59083,120.55532 88.20326,108.68897 C 76.25843,95.844256 93.00396,80.056343 106.31568,78.781952 C 117.90839,72.504848 137.12121,76.932106 125.70951,89.496242 C 117.95552,82.176665 112.49031,88.163892 110.34075,94.558036 C 99.86632,81.91359 112.61934,120.45536 120.13038,101.48716 C 131.35501,96.49379 127.30639,120.02058 117.10951,119.47022 C 108.87044,132.53311 89.5748,127.63487 80.77221,140.58236 C 68.58077,145.04987 62.21141,133.7937 59.07081,125.5819 C 52.85279,137.8109 35.71338,146.18899 32.86641,161.95049 C 32.57363,167.22376 27.54274,189.68928 35.48971,179.31805 C 35.90336,164.68328 39.4052,145.95772 55.50492,141.01088 C 67.30458,144.47598 82.73238,155.19383 92.0459,139.18893 C 104.39892,132.66507 120.57663,131.13785 132.17201,132.72022 C 133.91337,146.87139 128.62675,161.4301 131.23452,175.75147 C 121.35921,180.27947 117.69346,190.13068 116.11419,200.16814 C 121.51711,200.49799 135.49097,189.52868 134.44044,204.84693 C 132.24101,210.95666 133.65097,219.15876 133.42201,222.47022 C 130.35861,231.72413 135.48822,254.41435 120.72144,257.85649 C 111.21103,248.35906 104.65678,277.35691 117.67201,265.06397 C 136.87031,256.50834 126.9722,288.23362 123.37812,297.48881 C 118.70388,303.75866 127.82512,328.56204 112.72996,326.29775 C 106.47348,315.01429 120.52511,294.67376 99.47314,294.71721 C 101.3235,299.0928 103.81215,309.63455 96.74846,313.22996 C 108.39665,317.08798 105.25124,328.43886 94.17201,326.84522 C 86.13242,330.8026 84.92947,322.01705 87.24369,317.25819 C 83.4336,307.83988 71.44138,297.75431 84.02544,290.62866 C 92.56327,283.38613 81.61938,275.92337 91.95163,269.65958 C 103.21366,255.38301 87.58509,244.30752 80.88622,232.9454 C 75.62046,228.4126 74.93332,197.83816 71.69335,215.79024 C 72.3427,221.43976 68.23326,228.86832 73.73787,232.86498 C 79.47594,244.39071 91.38534,257.05973 84.41338,270.35522 C 77.24836,287.01016 71.58489,252.65457 68.04701,265.68897 C 75.33203,277.24343 45.69046,280.69859 64.7128,282.82185 C 72.04157,279.81975 86.20937,279.19008 74.50468,289.57716 C 54.40163,288.56566 81.48012,311.4695 74.57548,316.7182 C 70.19643,307.01952 48.77825,303.43377 55.85938,291.69639 C 49.49583,288.83696 41.67645,288.88839 39.97868,280.71497 C 34.70991,273.45692 32.35554,264.86982 33.57528,258.56355 C 17.20865,257.44528 33.28747,245.78467 32.79701,240.72022 C 21.56652,240.57881 17.3226,230.16407 21.82826,223.00147 C 16.14599,211.46768 2.44874,199.174 9.87791,184.85442 C -4.63884,174.82667 14.26335,159.80663 11.88436,146.82012 C 11.27511,142.00379 5.24355,150.98838 2.73452,151.50147 z M 20.04702,189.56397 C 28.9102,200.43104 24.54461,179.78222 20.04702,189.56397 z M 24.17202,245.12647 C 24.85767,240.28111 24.98494,249.95954 24.17202,245.12647 z M 35.04702,203.78272 C 43.79332,209.99739 38.63647,216.30491 37.95326,224.47022 C 38.79832,235.37703 42.72401,232.40441 43.60951,223.65772 C 45.75679,207.44963 65.11323,204.09753 75.50867,194.2422 C 82.31815,180.36697 97.97896,173.24949 103.30106,158.2713 C 109.54797,144.10909 132.19393,175.19686 121.53043,154.30449 C 123.83989,137.53457 101.33395,151.09104 95.68864,157.91941 C 88.16883,165.99106 78.31724,173.72508 68.56921,175.35111 C 71.41307,190.24523 53.54909,206.70035 38.38703,203.66632 L 36.64873,203.59676 L 35.04701,203.78272 L 35.04702,203.78272 z M 35.64077,125.87647 C 42.29944,130.52402 40.17104,118.77477 35.64077,125.87647 z M 39.17202,260.25147 C 40.16909,276.63533 53.92143,241.43448 39.6264,257.3974 L 39.17201,260.25147 L 39.17202,260.25147 z M 40.42202,244.18897 C 45.78126,253.98312 44.31625,236.27991 40.42202,244.18897 z M 41.26577,94.53272 C 50.20788,93.005181 55.9238,74.843316 49.32412,70.379834 C 33.50442,69.640322 52.59648,84.223623 42.02791,92.02568 L 41.26576,94.532717 L 41.26577,94.53272 z M 42.54702,62.188966 C 52.46303,58.533311 50.47638,54.180331 42.54702,62.188966 z M 45.14077,281.34524 C 54.52563,284.60634 50.63921,272.3189 45.14077,281.34524 z M 50.14077,181.87647 C 54.44619,188.4643 72.64512,171.95855 59.20368,167.53475 C 50.05277,154.59381 54.4104,167.68716 56.43133,173.67966 C 54.16723,176.24789 50.80565,178.27939 50.14077,181.87647 z M 50.54702,264.18897 C 59.96233,272.70011 60.31104,254.59856 50.54702,264.18897 z M 52.04702,240.47022 C 59.0994,243.35847 76.46585,241.55236 60.50257,235.70763 C 54.37305,231.25933 53.86005,235.25482 52.04702,240.47022 z M 57.17202,53.813966 C 65.08408,52.180985 59.97277,49.148004 57.17202,53.813966 z M 68.04702,29.188966 C 70.19268,25.558349 70.83728,31.390894 68.04702,29.188966 z M 77.26577,25.376467 C 85.5163,17.336905 87.35799,28.497947 77.26577,25.376467 z M 89.51577,16.876467 C 96.50078,10.847155 93.99082,21.569495 89.51577,16.876467 z M 90.23452,193.81397 C 88.86346,207.9093 100.88523,217.57415 105.17201,227.68897 C 110.95414,228.61013 122.39975,254.21851 120.915,241.12383 C 116.23396,225.91275 105.20311,215.15394 97.02524,202.63022 C 109.82619,198.4156 98.22261,171.47303 90.72708,188.26828 L 90.34425,190.80813 L 90.23451,193.81397 L 90.23452,193.81397 z M 99.04702,64.657716 C 106.76007,73.465365 106.01945,56.311927 99.04702,64.657716 z M 101.23452,285.18899 C 108.28809,294.27137 129.9642,278.41561 110.24372,283.14381 C 107.34554,284.03526 103.74535,283.25256 101.23452,285.18899 z M 112.23452,117.75147 C 116.60629,119.19167 114.0128,116.04186 112.23452,117.75147 z M 125.42202,97.75147 C 128.80043,94.723938 128.64029,102.20872 125.42202,97.75147 z M 138.29702,161.97022 C 142.92545,146.73924 139.13926,131.26741 140.01776,115.5993 C 138.37303,95.980836 160.45786,96.708136 169.50413,109.1492 C 184.86879,112.23339 170.64955,96.369945 165.13514,91.831722 C 157.72284,88.955804 145.21505,96.236455 140.218,86.587867 C 135.89095,73.160226 142.98096,53.074002 159.10081,64.852599 C 165.04749,66.850664 184.20551,79.168533 173.14076,66.251467 C 158.78935,51.167471 184.65303,61.422718 192.67769,62.049066 C 199.67546,63.987333 213.74983,60.969149 213.62532,70.654593 C 205.64562,65.331961 221.55846,83.580943 211.56665,88.526534 C 200.11546,98.928743 225.75765,92.262699 226.70156,104.32559 C 228.72854,112.06966 234.36417,123.49526 243.74413,124.25321 C 242.93414,119.11145 244.49393,104.61354 235.92202,107.84522 C 225.24319,107.40666 214.10506,76.273794 232.66108,77.612848 C 240.61391,75.428313 245.0025,86.374581 249.70326,90.876467 C 258.19366,102.03418 256.02947,115.36827 267.42201,125.53272 C 272.8937,137.80613 264.69695,150.80416 262.43642,160.66795 C 255.15893,149.01371 252.84058,172.38394 259.42334,176.67718 C 260.80803,186.13337 252.32327,192.00794 255.14916,202.68231 C 250.59869,213.41247 248.13706,234.98896 235.37121,236.10531 C 234.21624,230.52727 227.46578,205.61547 224.55699,220.01125 C 229.61425,227.31457 228.12263,240.96558 233.09925,245.86189 C 243.12772,242.80447 241.18376,249.88651 239.14076,257.62647 C 236.58241,266.43929 233.75682,283.62886 225.76576,283.87647 C 223.90328,273.08485 236.52092,255.70126 225.53167,249.67358 C 222.53222,262.19433 216.20452,271.47236 219.32778,284.5323 C 217.69436,290.16107 232.77866,284.41615 222.4715,293.59396 C 215.3933,296.35269 215.24235,311.93935 204.04701,307.78272 C 206.17389,303.13611 222.25986,285.53198 209.35652,293.79342 C 196.5767,303.06546 198.18701,320.44362 181.55494,324.64047 C 171.43818,328.61393 156.08706,312.89997 148.67569,327.01705 C 139.59422,328.60228 141.02268,310.10735 139.17201,303.47022 C 145.46771,288.6754 137.76395,271.46824 144.00538,257.62072 C 156.59632,255.53771 132.90083,242.38753 145.23712,233.76993 C 146.64763,227.58543 140.68909,221.0003 141.31271,214.27926 C 139.12812,203.49496 142.22708,192.06428 154.54729,196.27056 C 136.995,195.01448 138.96473,176.65556 138.30318,163.63511 L 138.29701,161.97022 L 138.29702,161.97022 z M 142.04702,305.59524 C 148.53238,313.2526 146.15178,298.24794 142.04702,305.59524 z M 145.23452,110.18897 C 150.71315,122.23005 162.02723,140.57651 176.35208,137.00011 C 189.14699,122.8896 198.93197,143.82055 204.53844,149.77171 C 218.70239,136.58273 225.47676,164.68508 224.22905,175.57449 C 225.84532,181.39278 247.25951,189.21416 239.14076,180.97022 C 227.3438,170.43128 229.15532,150.1521 215.04701,139.62647 C 212.75399,130.35191 191.76441,139.036 201.06376,124.84516 C 206.29762,116.61433 214.45024,123.00916 221.28302,125.36734 C 232.58737,125.25032 237.84673,150.5367 242.89561,146.69151 C 241.29603,134.18778 230.81394,121.0717 223.04701,116.22022 C 218.2718,105.83656 191.60326,126.75043 199.09515,105.69706 C 199.06417,98.932782 189.72427,93.21899 195.11222,86.806637 C 199.55129,81.467092 202.92311,61.205153 192.89535,73.805396 C 179.70114,88.721789 163.37614,76.63284 150.21021,69.27388 C 142.02381,78.926603 167.57279,81.023935 172.9862,88.461597 C 188.35403,92.491195 195.59592,111.39931 185.44918,123.50463 C 174.5592,122.64931 167.24686,140.13139 159.54034,124.24081 C 156.37452,120.65261 151.17044,104.09475 145.23452,110.18897 z M 148.70327,51.188966 C 148.49137,32.815895 171.08819,37.45858 181.7116,43.441716 C 199.34332,51.531619 183.81794,33.018403 174.86105,34.644576 C 163.98168,36.462998 159.14748,13.649455 169.98451,25.720217 C 173.32812,35.002432 184.98911,25.025271 189.66232,34.61265 C 199.9974,37.677101 209.39456,59.121439 191.35928,52.655291 C 178.19754,49.072869 163.16251,40.117504 150.73981,49.956163 C 154.14191,51.336754 167.46626,54.277288 155.41022,56.10668 C 152.6742,55.894595 148.37212,54.802405 148.70327,51.188966 z M 149.54702,269.84524 C 162.43645,280.24338 169.37067,262.24633 180.37856,259.09069 C 164.00626,256.40042 181.88067,238.94517 173.74703,228.16491 C 164.0066,213.17193 180.07851,198.00909 172.57468,183.29678 C 165.51876,196.9585 158.83032,210.96606 168.11474,225.35917 C 174.21724,238.91698 158.51828,247.3329 164.64388,260.94435 C 161.55076,266.10459 154.62998,267.33599 149.54702,269.84524 z M 150.04702,294.06399 C 157.00868,300.41105 175.77702,295.73712 159.83712,289.20821 C 156.76234,289.24784 152.49093,291.97402 150.04702,294.06399 z M 151.04702,307.40774 C 156.0002,323.50081 164.83357,300.46124 151.04702,307.40774 z M 153.01577,179.43897 C 166.14587,170.74395 187.05152,174.49898 193.13329,191.73782 C 202.22123,206.03245 188.44496,219.41949 193.19101,234.5374 C 193.31562,250.59942 188.81949,265.41866 179.78121,278.71696 C 169.0827,287.09406 188.30182,300.75948 173.20326,308.81397 C 162.89722,316.63872 181.26189,327.88007 177.74984,312.27877 C 181.11126,303.81094 193.24646,299.20431 183.96088,289.39398 C 183.74363,280.25689 189.63231,266.1677 198.09931,261.98336 C 206.2656,262.76819 222.44736,262.76336 205.95648,257.99978 C 193.57857,256.08909 202.92031,243.5771 198.45326,235.97022 C 194.19986,221.95371 202.0664,207.92679 202.38977,193.84521 C 215.48012,195.66044 228.93827,204.28044 236.89629,215.16913 C 239.62346,223.50469 243.47265,234.32755 243.1924,219.16727 C 241.64822,209.6177 251.16892,193.40289 235.7427,196.18879 C 220.48309,189.70471 207.64877,177.75808 190.68628,175.72778 C 166.51592,171.75744 189.46421,151.79314 186.60221,139.27491 C 179.75734,145.44204 170.12812,158.5875 163.04701,159.62647 C 156.37758,154.84847 154.86344,175.29841 153.01577,179.43897 z M 198.04702,276.53274 C 202.9005,283.20893 214.95896,273.23574 200.75105,275.20649 C 199.97006,275.41466 198.15123,275.26145 198.04702,276.53274 z M 201.70327,168.12647 C 210.03774,169.40948 212.0414,157.16567 203.35857,166.35621 C 202.8068,166.9463 202.25504,167.53638 201.70327,168.12647 z M 208.07827,42.251466 C 214.21821,44.350018 225.87535,56.496442 211.83538,47.566932 C 210.16334,46.235886 208.25194,44.563657 208.07827,42.251466 z M 212.17202,231.12647 C 215.16753,246.28719 221.92433,230.00024 212.81504,228.19855 L 212.20326,230.53272 L 212.17201,231.12647 L 212.17202,231.12647 z M 214.23452,58.532716 C 223.06803,54.108603 240.40224,78.336312 220.21228,73.698229 C 214.24611,71.015732 218.28822,62.98159 214.23452,58.532716 z M 246.04702,129.81397 C 251.9148,138.69176 262.96416,125.06414 248.8575,127.33499 C 247.68511,127.57937 245.93532,128.29498 246.04702,129.81397 z M 246.04702,94.06397 C 248.89363,100.00934 252.93697,89.976312 246.04702,94.06397 z M 247.04702,182.18897 C 260.28828,189.15521 254.40376,175.53183 247.04702,182.18897 z M 262.04702,125.12647 C 264.45205,129.12244 263.63128,121.40613 262.04702,125.12647 z"
     style="fill:#e9734e;filter:url(#filter2927)"
     inkscape:export-filename="D:\studyworkspace\Asia\res\drawable-hdpi\xstatus_thinking_32.png"
     inkscape:export-xdpi="12.428055"
     inkscape:export-ydpi="12.428055" />
  <path
     id="path2337"
     d="M 0.01577,151.06397 C 5.46066,165.01516 -1.91464,179.0096 4.97148,192.77217 C 8.11165,208.22561 16.57295,221.93621 18.67201,237.75147 C 20.7273,251.22059 27.93787,262.87774 32.21774,275.8339 C 42.26192,306.93761 69.85422,331.93562 101.53031,339.55559 C 116.9611,344.55069 133.82961,334.92755 127.56586,317.56132 C 129.19488,310.26878 136.65708,304.73633 133.72548,316.28777 C 126.15609,335.23642 148.41682,340.03006 162.40273,336.93021 C 179.70915,341.73151 187.96644,325.34798 201.18654,320.49742 C 214.64364,312.13533 224.49613,301.23399 230.67211,286.04241 C 240.2528,274.80086 243.39333,259.51081 245.26714,245.22818 C 245.22386,227.47178 261.39191,214.08955 263.19627,196.10837 C 265.93226,182.01469 264.69741,166.92526 268.10951,153.25147 C 275.02633,140.10372 271.66388,123.61632 263.7026,111.6978 C 260.19334,97.028306 252.75654,82.493264 242.54701,71.126467 C 230.75678,57.814962 221.82357,42.227206 209.74663,29.113724 C 193.35151,19.801613 178.70324,2.4266308 158.02318,4.3863653 C 145.44145,7.6316283 139.65014,26.018784 139.84778,37.860347 C 145.90297,44.224006 136.13533,67.924443 135.66764,49.721985 C 134.1369,33.595408 133.3467,16.526173 124.42201,2.4389666 C 110.021,-3.669111 90.70447,6.5961564 81.85951,18.157717 C 66.47252,20.775186 57.78339,34.491546 48.49717,45.687417 C 38.3664,56.469323 27.69825,66.923398 22.71485,81.309611 C 16.2777,95.963848 6.77303,109.40059 3.54803,125.40696 C 1.4062,133.77873 -0.12127,142.39528 0.01577,151.06397 z M 1.07827,151.09522 C 2.71568,129.42018 8.55124,107.57442 21.14383,89.594757 C 26.69621,73.84502 35.71151,59.506845 48.40496,48.532041 C 54.76334,40.365822 63.41846,38.724553 63.64554,30.035561 C 72.7237,21.214003 85.12771,23.171496 90.09823,12.375453 C 99.63664,4.8532539 91.00886,29.774115 100.12789,28.334835 C 100.31614,21.875474 99.1065,8.9684949 102.75866,7.4757775 C 110.11735,14.302611 121.50768,4.6789266 122.79701,18.251467 C 126.48978,25.554436 124.91072,34.022378 131.97224,39.150755 C 124.32671,36.16889 117.72944,36.460909 128.14673,42.627159 C 132.13249,45.142152 135.91897,59.724833 127.16843,50.751671 C 118.942,48.904869 117.14374,57.459749 126.81947,55.757002 C 146.0304,61.30731 105.73491,74.264395 122.54701,74.438967 C 135.74295,69.526494 131.36352,103.01838 118.8178,88.75926 C 106.26096,86.278872 117.06969,116.72085 119.3061,97.399135 C 129.21552,90.014375 136.53785,104.17693 128.47109,110.99232 C 120.27773,126.87934 100.84952,128.39041 87.46706,136.44735 C 77.6884,150.52426 60.59177,137.21515 58.74469,126.40621 C 56.2859,133.66461 48.82711,139.97561 45.7459,144.81033 C 58.75531,130.12719 72.53981,156.0686 85.72795,143.35438 C 96.94621,132.31986 114.16769,132.5078 127.79055,125.43665 C 136.26751,108.5508 133.09889,138.40519 133.33158,145.53812 C 130.0496,160.93024 137.86558,179.74726 121.40369,188.22753 C 119.30048,194.04814 115.19107,202.75415 124.10951,195.68897 C 140.99162,189.41867 134.29092,219.62305 135.24058,229.92568 C 136.75148,240.98476 134.38063,250.39584 129.83322,259.57193 C 139.07912,268.74523 131.24797,287.6299 128.70326,299.31397 C 127.05932,311.73369 126.01623,327.2492 115.07826,337.12647 C 103.56214,338.14545 77.99288,336.5993 80.18491,321.40222 C 96.31707,316.87297 65.63914,297.94303 82.21599,291.32236 C 91.13471,283.70769 81.25965,274.45882 91.80785,268.07229 C 102.26146,253.60495 85.14534,243.89498 79.68964,232.01974 C 75.86411,226.5181 73.26201,206.27234 72.04701,223.22022 C 74.55565,238.39617 93.12057,251.63029 86.81978,268.32843 C 79.56856,276.94296 80.325,291.97925 67.64704,292.91783 C 71.5102,303.27949 87.92725,319.19125 70.79701,323.12647 C 56.75382,314.024 45.17246,300.35349 37.77851,285.30088 C 34.17725,271.37744 25.63146,259.36785 22.39076,245.50147 C 18.159,229.63401 15.70478,213.40674 7.59154,199.02609 C 4.88151,185.12303 -1.27701,168.57402 10.416,156.69624 C 16.12146,137.71536 0.47074,162.37954 1.07827,151.09522 z M 18.39077,219.75147 C 20.80143,224.04378 20.28115,216.87739 18.39077,219.75147 z M 20.04702,120.06397 C 29.47041,130.42302 23.26327,104.7646 20.04702,120.06397 z M 21.29702,189.28272 C 24.98762,195.03467 24.48933,184.50662 21.29702,189.28272 z M 28.23452,244.43897 C 33.65996,245.54739 31.11736,236.90791 28.23451,244.43897 L 28.23452,244.43897 z M 32.04702,107.34522 C 43.39581,114.14912 40.25352,92.160289 33.02441,105.80565 L 32.04701,107.34522 L 32.04702,107.34522 z M 32.51577,179.56397 C 36.25537,186.25562 35.24323,170.91192 32.51577,179.56397 z M 33.04702,169.59522 C 34.55788,174.53459 41.96856,150.78329 39.18596,150.64367 C 34.63758,155.58761 33.80284,163.18348 33.04702,169.59522 z M 39.32827,221.43897 C 43.42359,233.24454 44.24794,206.52867 53.88445,208.08428 C 69.37021,199.96313 79.85274,187.40132 90.87605,174.34124 C 99.83678,165.07901 108.00019,142.08429 122.16562,160.45136 C 120.21538,156.44823 121.90978,141.03975 111.63002,149.61432 C 96.13391,151.33799 93.00073,170.75279 80.73557,175.86913 C 71.3561,174.44051 70.79662,175.25412 71.07815,183.01031 C 66.65395,198.5748 45.77221,200.51196 42.56484,214.41504 C 41.37331,216.69949 39.29316,218.67372 39.32827,221.43897 z M 40.64077,259.40772 C 46.06243,262.77188 47.41872,247.66661 41.08485,257.87955 L 40.64076,259.40772 L 40.64077,259.40772 z M 43.57827,73.90772 C 51.07355,79.163864 44.25158,86.245404 44.95326,92.126467 C 50.12646,88.868399 56.09015,64.593906 43.57827,73.90772 z M 51.07827,182.18897 C 59.31319,183.83497 68.74163,171.15258 56.70326,165.81397 C 50.52043,159.47448 63.91514,177.65359 52.97584,178.5193 L 51.86895,179.90019 L 51.07826,182.18897 L 51.07827,182.18897 z M 51.17202,108.47022 C 63.41095,112.5141 76.38577,122.2877 76.96153,133.92292 C 77.1189,120.94083 98.92961,116.68458 85.06083,105.34905 C 78.74562,101.17467 89.75811,81.21924 81.85951,95.001467 C 79.16944,102.80427 84.04695,125.59541 68.98451,114.50147 C 63.7627,111.51179 57.33694,107.75998 51.17202,108.47022 z M 52.51577,264.03272 C 59.6552,268.64793 56.93452,258.47922 52.51577,264.03272 z M 55.04702,237.68897 C 63.88799,244.35615 57.93773,230.12953 55.04702,237.68897 z M 69.20327,264.00147 C 71.21534,269.34838 69.8093,286.37189 75.84116,274.72744 C 72.52741,272.72449 74.32818,261.02231 69.20327,264.00147 z M 70.01577,84.22022 C 75.62784,85.022625 81.09541,65.077233 72.30811,79.373062 L 71.04092,81.384285 L 70.01576,84.220217 L 70.01577,84.22022 z M 75.07827,36.063966 C 79.24437,48.355 76.82598,26.893738 84.62985,27.293905 C 80.17783,26.712871 75.19916,31.635337 75.07827,36.063966 z M 78.17202,56.970216 C 82.10616,60.877718 81.96624,68.869237 84.64835,59.527264 C 81.78664,53.753181 94.41717,43.214684 83.49227,45.125629 C 85.57785,50.718859 79.44812,52.435288 78.17202,56.970216 z M 87.20327,25.407717 C 91.85048,26.537616 89.64284,19.802763 87.20327,25.407717 z M 89.04702,85.37647 C 93.26053,86.123835 92.47219,78.209056 89.04702,85.37647 z M 92.04702,197.84522 C 91.54595,209.82546 103.76945,217.44872 106.68075,227.00476 C 110.91061,230.51401 124.74093,250.79167 117.07022,234.53993 C 114.94042,218.63604 95.29609,214.01396 95.80932,197.76472 C 100.52577,193.8067 99.9695,179.60393 93.49006,188.74945 C 92.38336,191.64348 92.06188,194.76938 92.04702,197.84522 z M 102.10952,312.47024 C 107.81096,316.84694 101.44916,337.66783 109.89076,326.62647 C 104.70803,317.14148 118.91451,296.57012 102.18718,298.04132 C 106.68556,304.1653 107.73603,306.95953 102.10952,312.47024 z M 109.14077,285.90774 C 115.74702,287.31686 114.07146,281.58483 109.14077,285.90774 z M 109.29702,33.782716 C 115.56422,38.793805 126.44829,36.601196 113.38015,33.997628 C 112.68581,34.512468 109.51089,32.027668 109.29702,33.782716 z M 111.48452,265.81399 C 119.68226,267.78103 123.73613,255.09536 114.32443,259.35529 C 113.18991,261.40156 111.89448,263.46737 111.48452,265.81399 z M 125.26577,12.345217 C 128.38426,8.180677 132.08233,30.980534 125.82302,14.744553 L 125.26576,12.345217 L 125.26577,12.345217 z M 130.17202,25.001467 C 130.90837,18.922989 130.97178,30.462227 130.17202,25.001467 z M 137.54702,325.72024 C 142.88974,314.39384 133.65519,299.41187 139.50642,286.88312 C 144.46265,276.83397 134.79107,257.76353 146.79971,253.20093 C 134.20336,243.51953 150.0422,229.52002 140.73209,217.63364 C 136.46643,205.10292 149.24823,194.83936 138.85723,185.8011 C 136.14864,170.82474 139.15235,155.67641 140.02962,140.99902 C 138.55514,127.81803 135.42305,111.28546 145.27036,100.65289 C 155.6585,88.607054 168.91851,116.07672 174.68704,105.50934 C 167.07357,91.891135 144.90019,99.118064 139.01576,86.032717 C 138.71017,76.260077 135.12501,47.993136 151.73686,60.349986 C 157.96562,61.473564 175.24366,71.242734 164.64656,58.509104 C 153.41765,61.033729 138.47169,52.2894 150.35586,40.623785 C 160.21042,31.909212 175.86999,40.252851 185.42076,42.232232 C 177.73245,33.964517 161.58128,34.379884 156.2871,21.242462 C 152.87382,20.128766 145.13358,42.991171 142.71235,33.337911 C 146.82369,23.044075 152.98996,0.7867026 165.82826,17.813967 C 171.90983,25.876736 177.70937,28.127687 187.14076,29.688967 C 203.47686,35.153877 165.48765,15.628977 185.00843,20.439126 C 193.42804,28.280459 205.74546,42.101977 201.72056,53.62055 C 187.9332,61.119925 171.62897,40.887447 158.48867,48.670497 C 171.24401,55.638215 186.55211,57.019822 200.81968,60.101062 C 207.31721,58.174568 221.90451,72.603822 211.77555,60.271174 C 216.4625,51.655879 198.10721,38.242765 207.95165,34.711276 C 217.14712,40.752425 228.81043,52.590567 226.29701,60.782717 C 237.80959,69.047353 249.51363,78.406134 254.31832,92.376854 C 260.17057,106.44157 267.69609,119.79285 269.94616,134.94402 C 271.31117,144.88029 264.58734,157.18797 262.44923,163.77035 C 256.51635,149.66062 252.21727,173.05259 262.16632,175.21525 C 264.81848,191.83092 256.96512,208.86969 250.20964,224.13842 C 240.10792,237.45222 244.747,255.1345 237.92302,269.91989 C 231.22047,283.23104 223.25591,296.69251 214.60834,308.71908 C 204.86673,316.75206 193.4968,320.67673 183.355,326.92144 C 180.27871,339.30014 155.97958,333.16372 158.01576,325.56397 C 153.23566,329.825 138.87231,336.03414 137.54702,325.72024 z M 146.35952,111.06397 C 149.72142,117.12662 157.88776,131.71772 162.63694,130.31303 C 157.19065,126.93896 153.52293,107.02608 146.35952,111.06397 z M 148.67202,72.845216 C 153.94897,77.789935 152.03887,66.985035 148.67202,72.845216 z M 153.42202,308.75149 C 155.17092,312.33523 158.09619,305.38979 153.42202,308.75149 z M 154.45327,293.62649 C 161.51938,298.16919 170.43443,293.01113 157.90615,291.37634 C 156.81399,291.97561 154.9283,292.20017 154.45327,293.62649 z M 154.48452,177.75147 C 168.16667,168.38953 187.41591,175.61964 193.61884,191.14645 C 204.49515,201.15947 189.56169,216.90359 195.2366,223.98765 C 203.22029,215.22766 192.42766,182.88018 211.62568,195.19824 C 224.33955,196.7795 234.01487,212.05462 240.80236,216.85454 C 240.45038,209.42195 248.59558,194.61912 235.2136,199.45875 C 222.05163,189.92763 205.53521,186.05655 190.94331,180.12691 C 181.46588,174.08552 170.65074,164.22819 182.58448,154.32105 C 187.59716,147.66982 186.79686,133.66806 180.99313,148.00931 C 173.88643,159.34935 156.41835,162.35538 154.48452,177.75147 z M 155.73452,271.22024 C 162.03317,274.6594 176.51011,260.97251 172.54701,256.97022 C 168.95656,247.33366 179.53876,234.16741 171.35094,222.84864 C 168.60919,216.22171 166.85605,209.81735 171.93443,203.83705 C 175.76635,196.4939 173.27856,174.96737 168.8461,194.36925 C 156.37329,208.96656 173.04019,222.93258 171.15616,238.80876 C 163.34613,244.91784 163.64821,250.58857 166.17155,259.71861 C 165.73206,265.9156 158.39015,266.70938 155.73452,271.22024 z M 157.07827,76.65772 C 162.52116,82.195645 170.63176,81.673552 160.52333,75.99771 C 159.74153,74.576852 156.98374,74.892368 157.07827,76.65772 z M 167.42202,81.65772 C 181.29467,89.102663 195.9505,100.73894 189.81784,118.738 C 187.56286,127.84491 167.29773,126.85846 170.95701,135.58952 C 184.17043,126.87695 199.79029,134.0383 203.23451,149.12647 C 219.46457,135.1651 225.6585,163.99601 225.29701,176.09522 C 230.48054,182.62117 246.55833,187.68675 233.12479,177.66 C 229.89486,161.46878 221.64641,147.79299 210.86563,135.72188 C 197.29069,142.25707 191.72597,123.87646 205.51803,119.64215 C 210.68549,118.91768 228.1271,116.63025 213.46106,114.90721 C 204.72892,116.92386 191.31637,119.95728 197.96423,106.64042 C 192.18689,96.144383 190.35998,86.952015 197.97545,76.228327 C 198.92477,61.974607 189.16304,89.671094 180.35278,83.567677 C 176.0014,83.499657 171.47152,83.460193 167.42202,81.65772 z M 171.04702,68.063966 C 176.19752,75.340191 176.10363,66.366018 171.04702,68.063966 z M 171.48452,314.09524 C 176.85039,326.99487 176.90609,301.90201 186.04108,300.60797 C 188.99036,294.3723 175.38675,285.50506 184.94243,278.66535 C 186.04875,266.62095 199.25487,259.15488 205.98683,259.3939 C 191.06974,257.91651 203.62316,235.90654 194.74094,233.94841 C 193.84304,250.46738 189.91976,265.86166 180.08931,279.51489 C 170.60557,285.61604 183.27923,293.21431 179.79326,301.24652 C 177.89176,306.07677 172.87486,309.06578 171.48452,314.09524 z M 197.48452,310.50149 C 201.83696,322.01303 202.78816,300.02507 197.48452,310.50149 z M 200.23452,276.75149 C 204.60632,278.19166 202.01275,275.04183 200.23452,276.75149 z M 209.14077,92.90772 C 216.2973,92.673058 229.36405,103.07515 221.25174,88.686259 C 223.14814,81.640416 225.14362,71.606872 216.03988,74.903407 C 216.43728,81.580176 213.92198,88.198477 209.14077,92.90772 z M 218.70327,270.90774 C 219.96331,276.53767 223.072,290.03102 225.0943,276.818 C 224.91314,272.73788 232.37785,251.14837 225.04701,258.72022 C 223.90228,263.27617 220.01619,266.54486 218.70327,270.90774 z M 224.17202,122.12647 C 228.99312,130.77012 230.04779,117.5798 224.17201,122.12647 L 224.17202,122.12647 z M 228.35952,75.93897 C 235.21465,80.214756 236.142,66.700756 228.35952,75.93897 z M 229.04702,225.03272 C 230.69203,229.58386 231.77795,223.23525 229.04702,225.03272 z M 229.35952,111.40772 C 234.24741,121.20235 248.02084,128.58951 240.79701,112.06397 C 240.09701,106.82856 231.40029,108.42688 229.35952,111.40772 z M 231.17202,234.28272 C 228.97991,241.44902 234.46964,249.0983 240.48776,240.80962 C 233.53038,243.06234 231.1828,223.6803 231.17202,234.28272 z M 235.26577,134.15772 C 236.10788,141.52012 243.76316,145.49895 238.23109,135.64488 C 238.35556,134.93694 235.38274,131.52683 235.26577,134.15772 z M 246.98452,129.56397 C 257.66287,136.44697 254.52916,122.23504 246.98452,129.56397 z"
     style="fill:#e0562c;filter:url(#filter2963)"
     inkscape:export-filename="D:\studyworkspace\Asia\res\drawable-hdpi\xstatus_thinking_32.png"
     inkscape:export-xdpi="12.428055"
     inkscape:export-ydpi="12.428055" />
  <path
     id="path2331"
     d="M 0.01577,151.06397 C -0.54828,158.67713 5.43834,169.96585 1.45326,156.50147 C -1.76337,139.38816 4.96563,121.72856 10.98441,105.82653 C 18.94607,92.326921 24.58451,77.616503 32.69672,64.219596 C 44.08434,52.225719 54.45754,39.286221 65.70111,27.144361 C 74.34302,20.74303 84.09878,18.574437 91.03215,10.133557 C 102.8342,4.1104538 125.19316,-7.702719 128.60951,13.126467 C 134.99838,28.558564 132.60096,45.742089 136.20326,61.720217 C 148.92684,51.259583 135.6343,34.590791 143.73893,22.043466 C 146.484,4.7420062 165.13538,0.9704418 178.12236,9.4492637 C 191.55944,17.968418 206.41811,25.546107 216.28503,38.285722 C 226.91466,51.215205 235.58012,65.600531 247.14215,77.765985 C 255.24815,89.04717 260.36197,102.21282 264.54701,114.93897 C 273.03663,127.10047 273.36725,144.85106 265.17764,157.09123 C 266.17859,172.60261 263.69873,188.11039 260.29766,203.18241 C 256.77666,220.21766 240.81888,232.8585 244.42788,251.05593 C 239.62631,264.50725 237.88047,279.02544 227.52637,289.77361 C 221.72269,305.02899 209.15299,316.52546 194.38821,321.69943 C 184.05347,338.139 164.18616,336.76558 147.19356,335.91078 C 125.45901,336.49303 138.60506,312.01495 134.62232,299.45464 C 127.08195,309.57552 127.98948,323.60952 124.93378,334.77228 C 113.65971,343.9078 97.51519,338.25668 85.43978,333.36842 C 61.08403,321.57885 39.99867,300.7689 32.7167,274.10961 C 26.39391,260.61905 21.68745,246.81411 17.58162,232.55396 C 17.95355,216.00008 5.02417,204.10391 4.75875,187.90596 C -0.48257,182.22418 5.35321,158.32874 1.19819,175.97698 C 3.2195,190.6567 7.07573,205.17914 14.33597,218.26196 C 16.67489,232.71539 20.35588,246.64658 25.71966,260.16658 C 33.11008,273.16859 34.59892,289.1261 44.85266,300.72727 C 59.85413,320.77149 82.28008,337.93871 107.8824,340.09919 C 122.69767,343.91626 131.95621,330.82174 127.56586,317.56132 C 129.19488,310.26878 136.65708,304.73633 133.72548,316.28777 C 126.15609,335.23642 148.41682,340.03006 162.40273,336.93021 C 179.70915,341.73151 187.96644,325.34798 201.18654,320.49742 C 214.64364,312.13533 224.49613,301.23399 230.67211,286.04241 C 240.2528,274.80086 243.39333,259.51081 245.26714,245.22818 C 245.22386,227.47178 261.39191,214.08955 263.19627,196.10837 C 265.93226,182.01469 264.69741,166.92526 268.10951,153.25147 C 275.02633,140.10372 271.66388,123.61632 263.7026,111.6978 C 260.19334,97.028306 252.75654,82.493264 242.54701,71.126467 C 230.75678,57.814962 221.82357,42.227206 209.74663,29.113724 C 193.35151,19.801613 178.70324,2.4266308 158.02318,4.3863653 C 145.44145,7.6316283 139.65014,26.018784 139.84778,37.860347 C 145.90297,44.224006 136.13533,67.924443 135.66764,49.721985 C 134.1369,33.595408 133.3467,16.526173 124.42201,2.4389666 C 110.021,-3.669111 90.70447,6.5961564 81.85951,18.157717 C 66.47252,20.775186 57.78339,34.491546 48.49717,45.687417 C 38.3664,56.469323 27.69825,66.923398 22.71485,81.309611 C 16.2777,95.963848 6.77303,109.40059 3.54803,125.40696 C 1.4062,133.77873 -0.12127,142.39528 0.01577,151.06397 z M 36.04702,106.12647 C 38.53508,110.01958 38.53494,102.23332 36.04702,106.12647 z M 54.17202,180.31397 C 61.95674,177.07861 62.42847,169.34597 54.96954,178.96727 L 54.17201,180.31397 L 54.17202,180.31397 z M 56.29702,137.25147 C 68.95591,143.43617 55.31643,118.22451 56.29702,137.25147 z M 72.04702,294.12649 C 74.88654,301.07187 75.92918,287.27857 72.04702,294.12649 z M 72.29702,191.97022 C 75.45579,196.76127 76.02789,186.27464 72.29702,191.97022 z M 75.26577,122.97022 C 75.33446,143.4602 84.96262,115.74777 75.26577,122.97022 z M 81.51577,288.22024 C 83.35897,292.30197 83.56811,281.68905 81.51577,288.22024 z M 83.04702,111.03272 C 84.69203,115.58386 85.77795,109.23525 83.04702,111.03272 z M 105.42202,218.93897 C 106.50888,226.71353 117.01919,235.54304 109.84415,222.8403 C 109.5079,222.5803 106.7338,216.07613 105.42202,218.93897 z M 113.04702,151.62647 C 118.04458,157.70709 118.04441,145.54582 113.04702,151.62647 z M 114.39077,96.59522 C 118.75566,99.840326 116.85061,88.921168 114.39076,96.595217 L 114.39077,96.59522 z M 123.92202,187.56397 C 133.77133,189.62623 136.75121,202.73904 138.49828,208.49369 C 139.87157,193.77289 134.96762,179.26342 136.2708,164.37699 C 138.55603,153.12449 139.98409,129.02527 135.44665,124.83374 C 134.51338,143.66135 136.51009,162.82472 133.30085,181.44222 C 131.79008,185.55622 125.98477,184.3019 123.92202,187.56397 z M 130.82827,72.282716 C 134.99184,84.38248 132.00365,108.77513 137.03866,114.14365 C 144.3915,99.761755 135.40612,84.476152 135.52303,69.295431 C 133.91123,67.986637 130.94592,70.641174 130.82827,72.282716 z M 135.60952,280.97024 C 141.05744,291.43803 138.08391,251.05045 135.73393,271.84887 C 135.62346,274.88779 135.60176,277.92956 135.60952,280.97024 z M 135.85952,235.12647 C 139.76128,239.15946 134.49872,261.04606 141.49511,252.05356 C 134.51028,243.32343 149.71035,227.7204 138.17293,224.22803 C 137.38257,227.84982 136.35162,231.45488 135.85952,235.12647 z M 152.04702,117.03272 C 153.69203,121.58386 154.77795,115.23525 152.04702,117.03272 z M 154.17202,33.970216 C 163.55566,40.327822 154.67261,23.453816 154.17202,33.970216 z M 161.42202,168.56397 C 168.32236,171.78682 180.80092,173.9739 170.19656,165.04921 C 173.29347,160.36147 188.27897,149.04014 174.04701,157.22022 C 169.62689,160.40169 164.46754,164.16582 161.42202,168.56397 z M 165.10952,210.68897 C 170.46712,213.8261 173.25394,183.98585 166.73448,203.67907 C 165.93275,205.92885 165.07046,208.25906 165.10952,210.68897 z M 167.54702,105.03272 C 172.7293,112.33828 172.05407,101.08272 167.54702,105.03272 z M 177.42202,172.81397 C 183.41624,178.06362 178.68713,170.9703 177.42202,172.81397 z M 178.04702,286.31399 C 181.11694,295.46306 178.83299,281.28668 178.04702,286.31399 z M 180.07827,290.25149 C 182.08349,301.68618 187.78744,296.34329 180.07827,290.25149 z M 190.20327,123.31397 C 195.37728,127.46973 205.7983,114.95643 194.12486,120.74712 C 194.00467,121.93915 190.16127,121.60082 190.20327,123.31397 z M 191.04702,104.06397 C 196.75742,116.6787 194.8894,92.607317 191.04702,104.06397 z M 193.01577,185.53272 C 196.90005,193.06315 198.10287,181.15405 193.01577,185.53272 z M 201.45327,142.72022 C 207.24273,151.13647 216.30088,132.46094 204.38953,139.23808 C 203.24455,140.10801 201.43352,140.98903 201.45327,142.72022 z M 208.45327,190.53272 C 212.89408,197.87705 224.11549,195.97764 211.6353,190.99513 C 210.97353,191.33361 209.10031,189.27352 208.45327,190.53272 z M 226.04702,175.06397 C 229.57902,180.05975 230.05034,172.99261 226.04702,175.06397 z M 232.07827,112.09522 C 242.41633,121.17337 237.26504,105.00214 232.07827,112.09522 z"
     style="fill:#642918;filter:url(#filter2943)"
     inkscape:export-filename="D:\studyworkspace\Asia\res\drawable-hdpi\xstatus_thinking_32.png"
     inkscape:export-xdpi="12.428055"
     inkscape:export-ydpi="12.428055" />
  <g
     inkscape:groupmode="layer"
     id="layer1"
     inkscape:label="01"
     transform="translate(-536.48283,-90.270404)" />
</svg>
