<?xml version="1.0" encoding="UTF-8" standalone="no"?>
<!-- Created with Inkscape (http://www.inkscape.org/) -->

<svg
   xmlns:dc="http://purl.org/dc/elements/1.1/"
   xmlns:cc="http://creativecommons.org/ns#"
   xmlns:rdf="http://www.w3.org/1999/02/22-rdf-syntax-ns#"
   xmlns:svg="http://www.w3.org/2000/svg"
   xmlns="http://www.w3.org/2000/svg"
   xmlns:xlink="http://www.w3.org/1999/xlink"
   xmlns:sodipodi="http://sodipodi.sourceforge.net/DTD/sodipodi-0.dtd"
   xmlns:inkscape="http://www.inkscape.org/namespaces/inkscape"
   id="svg2"
   sodipodi:version="0.32"
   inkscape:version="0.48.1 "
   width="210mm"
   height="297mm"
   sodipodi:docname="ася menu account.svg"
   inkscape:output_extension="org.inkscape.output.svg.inkscape"
   version="1.1">
  <metadata
     id="metadata7">
    <rdf:RDF>
      <cc:Work
         rdf:about="">
        <dc:format>image/svg+xml</dc:format>
        <dc:type
           rdf:resource="http://purl.org/dc/dcmitype/StillImage" />
        <dc:title></dc:title>
      </cc:Work>
    </rdf:RDF>
  </metadata>
  <defs
     id="defs5">
    <linearGradient
       id="linearGradient3780">
      <stop
         style="stop-color:#8c8c8c;stop-opacity:1;"
         offset="0"
         id="stop3782" />
      <stop
         style="stop-color:#b2b2b2;stop-opacity:1;"
         offset="1"
         id="stop3784" />
    </linearGradient>
    <inkscape:perspective
       sodipodi:type="inkscape:persp3d"
       inkscape:vp_x="0 : 526.18109 : 1"
       inkscape:vp_y="0 : 1000 : 0"
       inkscape:vp_z="744.09448 : 526.18109 : 1"
       inkscape:persp3d-origin="372.04724 : 350.78739 : 1"
       id="perspective9" />
    <linearGradient
       inkscape:collect="always"
       xlink:href="#linearGradient3780"
       id="linearGradient3786"
       x1="1399.3922"
       y1="994.42883"
       x2="1399.3922"
       y2="56.964279"
       gradientUnits="userSpaceOnUse" />
  </defs>
  <sodipodi:namedview
     inkscape:window-height="1058"
     inkscape:window-width="1920"
     inkscape:pageshadow="2"
     inkscape:pageopacity="0"
     guidetolerance="10.0"
     gridtolerance="10.0"
     objecttolerance="10.0"
     borderopacity="1.0"
     bordercolor="#666666"
     pagecolor="#ffffff"
     id="base"
     showgrid="false"
     inkscape:zoom="0.31042862"
     inkscape:cx="849.12802"
     inkscape:cy="601.5674"
     inkscape:window-x="0"
     inkscape:window-y="14"
     inkscape:current-layer="svg2"
     inkscape:window-maximized="0" />
  <path
     inkscape:connector-curvature="0"
     style="fill:url(#linearGradient3786);stroke:#000000;stroke-width:30;stroke-linecap:butt;stroke-linejoin:miter;stroke-miterlimit:4;stroke-opacity:0.25925925000000000;stroke-dasharray:none;fill-opacity:1.0"
     d="m 1174.6525,76.354512 c -0.4205,0.73643 -51.5543,96.309048 -42.7188,179.374998 -6.6342,11.22802 -11.6647,23.37783 -14.8437,36.34375 -13.4317,54.78214 9.1498,111.91745 55.0312,155.71875 l -5.5,-0.59375 c -22.1617,17.75346 -27.1798,34.33137 -31.9062,59.25 -8.7963,25.45737 -9.3646,42.07877 -13.6563,68.3125 2.1772,40.44318 6.7026,71.62738 15.9375,88.84375 15.8366,30.66038 16.1093,46.00572 34.1875,77.4375 11.3142,18.14776 15.9713,29.66904 9.0938,29.625 l 2.2812,20.5 c -17.6849,-4.23933 -36.0186,-9.76144 -47.8437,-2.28125 -28.7013,7.82047 -38.7022,20.30522 -43.2813,34.15625 -14.5093,33.25033 -13.361,57.79816 18.25,79.75 26.3299,23.44789 64.8091,38.76154 109.3125,50.09377 84.433,22.7836 160.6844,29.6472 239.1875,22.7812 75.928,6.3609 154.1345,-7.1248 230.0625,-54.65622 36.8482,-39.04942 35.0875,-67.98042 37.6094,-108.40365 -0.8998,-41.57275 -5.6572,-96.00459 -37.7408,-157.72655 -31.4351,-52.9456 -74.7797,-81.01909 -165.8803,-120.21744 -17.0792,-25.81552 -26.8225,-25.18058 -20.7695,-50.99611 l -0.4375,-0.0625 c 29.2184,-20.84317 50.1874,-49.15901 58.5,-83.0625 3.1256,-12.74836 4.303,-25.599 3.6875,-38.40625 45.2717,-69.6048 44.1568,-176.50232 44.125,-177.34375 -51.368,4.68291 -100.4252,11.84884 -136.6563,33.03125 -26.2583,-17.52463 -57.1069,-31.30793 -91.1562,-39.65625 -33.5301,-8.22101 -66.6795,-10.30059 -97.6563,-7.125 -22.0325,-36.52519 -62.9672,-66.21159 -107.2187,-94.687498 z"
     id="path2382"
     sodipodi:nodetypes="ccscccccccccccccccccccscccscc"
     inkscape:export-filename="D:\studyworkspace\Asia\res\drawable-hdpi\account_settings.png"
     inkscape:export-xdpi="4.6054869"
     inkscape:export-ydpi="4.6054869" />
  <path
     inkscape:connector-curvature="0"
     style="fill:none;stroke:#787878;stroke-width:24.80315018;stroke-linecap:butt;stroke-linejoin:miter;stroke-miterlimit:4;stroke-opacity:1;stroke-dasharray:none"
     d="m 1181.4237,791.16394 c 30.3712,17.02524 59.6035,30.07903 91.1136,39.8622 79.1231,22.94641 73.0613,19.27251 108.1974,28.473 75.5255,11.44988 87.3735,10.71939 127.5591,14.80596 44.0083,1.86826 87.8995,3.61939 123.0034,-3.41676 13.4446,-3.03712 26.0247,-6.07424 36.4454,-9.11136"
     id="path3165"
     sodipodi:nodetypes="cccccc"
     inkscape:export-filename="D:\studyworkspace\Asia\res\drawable-hdpi\account_settings.png"
     inkscape:export-xdpi="4.6054869"
     inkscape:export-ydpi="4.6054869" />
  <path
     inkscape:connector-curvature="0"
     style="fill:none;stroke:#787878;stroke-width:24.80315018;stroke-linecap:butt;stroke-linejoin:miter;stroke-miterlimit:4;stroke-opacity:1;stroke-dasharray:none"
     d="m 1531.0722,654.49352 c 5.3448,22.04899 7.1724,40.58073 3.4167,53.52925 6.07,4.87673 -4.9441,36.5183 -35.3065,80.86332 -15.9449,23.10535 -31.8897,49.09015 -47.8346,75.16873 l -4.5557,3.41676"
     id="path3167"
     sodipodi:nodetypes="ccccc"
     inkscape:export-filename="D:\studyworkspace\Asia\res\drawable-hdpi\account_settings.png"
     inkscape:export-xdpi="4.6054869"
     inkscape:export-ydpi="4.6054869" />
  <path
     inkscape:connector-curvature="0"
     style="fill:none;stroke:#787878;stroke-width:24.80315018;stroke-linecap:butt;stroke-linejoin:miter;stroke-miterlimit:4;stroke-opacity:1;stroke-dasharray:none"
     d="m 1377.318,744.46821 c -3.0897,21.80302 -9.0744,43.8669 -18.2228,62.64061 -6.0742,19.11438 -13.2873,36.6385 -19.3616,41.00112"
     id="path3169"
     sodipodi:nodetypes="ccc"
     inkscape:export-filename="D:\studyworkspace\Asia\res\drawable-hdpi\account_settings.png"
     inkscape:export-xdpi="4.6054869"
     inkscape:export-ydpi="4.6054869" />
  <path
     inkscape:connector-curvature="0"
     style="fill:none;stroke:#787878;stroke-width:24.80315018;stroke-linecap:butt;stroke-linejoin:miter;stroke-miterlimit:4;stroke-opacity:1;stroke-dasharray:none"
     d="m 1291.899,742.19037 c 5.1585,21.86273 3.1864,46.84503 2.2778,62.64061 l 3.4168,31.88976"
     id="path3171"
     sodipodi:nodetypes="ccc"
     inkscape:export-filename="D:\studyworkspace\Asia\res\drawable-hdpi\account_settings.png"
     inkscape:export-xdpi="4.6054869"
     inkscape:export-ydpi="4.6054869" />
  <path
     inkscape:connector-curvature="0"
     style="fill:#ffffff;fill-opacity:1;fill-rule:evenodd;stroke:#787878;stroke-width:13.82400417;stroke-linecap:butt;stroke-linejoin:miter;stroke-miterlimit:4;stroke-opacity:1;stroke-dasharray:none"
     d="M 1188.4318,400.68894 891.96341,330.8656"
     id="path3187"
     inkscape:export-filename="D:\studyworkspace\Asia\res\drawable-hdpi\account_settings.png"
     inkscape:export-xdpi="4.6054869"
     inkscape:export-ydpi="4.6054869" />
  <path
     inkscape:connector-curvature="0"
     style="fill:#ffffff;fill-opacity:1;fill-rule:evenodd;stroke:#787878;stroke-width:13.90520763;stroke-linecap:butt;stroke-linejoin:miter;stroke-miterlimit:4;stroke-opacity:1;stroke-dasharray:none"
     d="M 1187.2523,426.8435 893.14291,407.21385"
     id="path3189"
     inkscape:export-filename="D:\studyworkspace\Asia\res\drawable-hdpi\account_settings.png"
     inkscape:export-xdpi="4.6054869"
     inkscape:export-ydpi="4.6054869" />
  <path
     inkscape:connector-curvature="0"
     style="fill:#ffffff;fill-opacity:1;fill-rule:evenodd;stroke:#787878;stroke-width:13.56386471;stroke-linecap:butt;stroke-linejoin:miter;stroke-miterlimit:4;stroke-opacity:1;stroke-dasharray:none"
     d="M 1186.4053,363.81105 923.60181,265.24069"
     id="path3191"
     inkscape:export-filename="D:\studyworkspace\Asia\res\drawable-hdpi\account_settings.png"
     inkscape:export-xdpi="4.6054869"
     inkscape:export-ydpi="4.6054869" />
  <path
     inkscape:connector-curvature="0"
     style="fill:#ffffff;fill-opacity:1;fill-rule:evenodd;stroke:#787878;stroke-width:13.44564056;stroke-linecap:butt;stroke-linejoin:miter;stroke-miterlimit:4;stroke-opacity:1;stroke-dasharray:none"
     d="m 1448.3608,446.46908 279.6469,65.41849"
     id="path3205"
     inkscape:export-filename="D:\studyworkspace\Asia\res\drawable-hdpi\account_settings.png"
     inkscape:export-xdpi="4.6054869"
     inkscape:export-ydpi="4.6054869" />
  <path
     inkscape:connector-curvature="0"
     style="fill:#ffffff;fill-opacity:1;fill-rule:evenodd;stroke:#787878;stroke-width:13.57200623;stroke-linecap:butt;stroke-linejoin:miter;stroke-miterlimit:4;stroke-opacity:1;stroke-dasharray:none"
     d="m 1430.6783,471.3682 265.0196,109.62491"
     id="path3207"
     inkscape:export-filename="D:\studyworkspace\Asia\res\drawable-hdpi\account_settings.png"
     inkscape:export-xdpi="4.6054869"
     inkscape:export-ydpi="4.6054869" />
  <path
     inkscape:connector-curvature="0"
     style="fill:#ffffff;fill-opacity:1;fill-rule:evenodd;stroke:#787878;stroke-width:13.51274967;stroke-linecap:butt;stroke-linejoin:miter;stroke-miterlimit:4;stroke-opacity:1;stroke-dasharray:none"
     d="m 1461.3688,416.57785 264.7698,15.82555"
     id="path3209"
     inkscape:export-xdpi="4.6054869"
     inkscape:export-ydpi="4.6054869"
     inkscape:export-filename="D:\studyworkspace\Asia\res\drawable-hdpi\account_settings.png" />
  <path
     sodipodi:type="arc"
     style="fill:#787878;fill-opacity:1;stroke-width:24.80315018;stroke-miterlimit:4;stroke-dasharray:none"
     id="path3183"
     sodipodi:cx="228.92294"
     sodipodi:cy="329.14792"
     sodipodi:rx="34.167603"
     sodipodi:ry="26.195162"
     d="m 263.09055,329.14792 a 34.167603,26.195162 0 1 1 -68.33521,0 34.167603,26.195162 0 1 1 68.33521,0 z"
     transform="matrix(0.5833334,0,0,0.7391304,1129.3181,68.395332)"
     inkscape:export-filename="D:\studyworkspace\Asia\res\drawable-hdpi\account_settings.png"
     inkscape:export-xdpi="4.6054869"
     inkscape:export-ydpi="4.6054869" />
  <path
     sodipodi:type="arc"
     style="fill:#787878;fill-opacity:1;stroke-width:24.80315018;stroke-miterlimit:4;stroke-dasharray:none"
     id="path3185"
     sodipodi:cx="228.92294"
     sodipodi:cy="329.14792"
     sodipodi:rx="34.167603"
     sodipodi:ry="26.195162"
     d="m 263.09055,329.14792 a 34.167603,26.195162 0 1 1 -68.33521,0 34.167603,26.195162 0 1 1 68.33521,0 z"
     transform="matrix(0.5833334,0,0,0.7391304,1266.558,98.007262)"
     inkscape:export-filename="D:\studyworkspace\Asia\res\drawable-hdpi\account_settings.png"
     inkscape:export-xdpi="4.6054869"
     inkscape:export-ydpi="4.6054869" />
  <rect
     style="fill:#b2b2b2;fill-opacity:1;fill-rule:nonzero;stroke:#000000;stroke-width:30;stroke-linecap:round;stroke-linejoin:round;stroke-miterlimit:4;stroke-dasharray:none;stroke-opacity:0.28042328"
     id="rect4932"
     width="695.81244"
     height="100.9434"
     x="1298.205"
     y="444.24484"
     ry="19.812262"
     inkscape:export-filename="D:\studyworkspace\Asia\res\drawable-hdpi\account_settings.png"
     inkscape:export-xdpi="4.6054869"
     inkscape:export-ydpi="4.6054869" />
  <rect
     style="fill:#a3a3a3;fill-opacity:1;fill-rule:nonzero;stroke:#000000;stroke-width:30;stroke-linecap:round;stroke-linejoin:round;stroke-miterlimit:4;stroke-dasharray:none;stroke-opacity:0.26455027"
     id="rect4938"
     width="695.81244"
     height="100.9434"
     x="1295.702"
     y="628.22235"
     ry="19.812262"
     inkscape:export-filename="D:\studyworkspace\Asia\res\drawable-hdpi\account_settings.png"
     inkscape:export-xdpi="4.6054869"
     inkscape:export-ydpi="4.6054869" />
  <rect
     style="fill:#8c8c8c;fill-opacity:1;fill-rule:nonzero;stroke:#000000;stroke-width:30;stroke-linecap:round;stroke-linejoin:round;stroke-miterlimit:4;stroke-dasharray:none;stroke-opacity:0.25396827"
     id="rect4940"
     width="695.81244"
     height="100.9434"
     x="1300.7078"
     y="810.57166"
     ry="19.812262"
     inkscape:export-filename="D:\studyworkspace\Asia\res\drawable-hdpi\account_settings.png"
     inkscape:export-xdpi="4.6054869"
     inkscape:export-ydpi="4.6054869" />
</svg>
